<svg viewBox="0 0 64 64" fill="none" xmlns="http://www.w3.org/2000/svg">
<path d="M31.4999 43C31.7999 43.3 31.9999 43.6 31.9999 44H33.4999C33.4999 43.2 33.0999 42.4 32.4999 41.9C32.0999 41.5 31.4999 41.3 30.9999 41.2V39.5H29.4999V41.2C28.8999 41.3 28.3999 41.5 27.8999 41.9C27.2999 42.5 26.8999 43.2 26.8999 44C26.8999 44.8 27.2999 45.6 27.8999 46.1C28.4999 46.6 29.2999 46.9 30.1999 46.9C30.6999 46.9 31.1999 47.1 31.4999 47.4C31.7999 47.7 31.9999 48 31.9999 48.4C31.9999 48.8 31.7999 49.1 31.4999 49.4C30.7999 50 29.4999 50 28.8999 49.4C28.5999 49.1 28.3999 48.8 28.3999 48.4H26.8999C26.8999 49.2 27.2999 50 27.8999 50.5C28.2999 50.9 28.8999 51.1 29.3999 51.2V52.9H30.8999V51.2C31.4999 51.1 31.9999 50.8 32.4999 50.5C33.0999 49.9 33.4999 49.2 33.4999 48.4C33.4999 47.6 33.0999 46.8 32.4999 46.3C31.8999 45.8 31.0999 45.5 30.1999 45.5C29.6999 45.5 29.1999 45.3 28.8999 45C28.5999 44.7 28.3999 44.4 28.3999 44C28.3999 43.6 28.5999 43.3 28.8999 43C29.4999 42.4 30.7999 42.4 31.4999 43Z" fill="currentcolor"/>
<path d="M56.3 35.7V32H39.3V17.5C39.7 17.5 40.1 17.5 40.6 17.5C43.3 17.5 48.4 17 51.6 13.8C56.2 9.20003 55.2 1.00002 55.2 0.700024L55.1 0.100024L54.5 2.44156e-05C54.5 2.44156e-05 53.6 -0.0999756 52.4 -0.0999756C49.7 -0.0999756 44.6 0.400024 41.4 3.60002C36.9 8.10002 37.7 16 37.8 16.7V19.4C36.9 17.4 35.1 14.2 32 13C31.1 12.6 30 12.4 28.9 12.4C25.3 12.4 22 14.3 21.8 14.4L21.3 14.7L21.5 15.2C21.6 15.5 23.4 21.4 27.9 23.2C28.8 23.6 29.9 23.8 31 23.8C34.1 23.8 36.9 22.4 37.8 21.9V31.9H4V60.2H7.7V64H60V35.7H56.3ZM42.4 4.70002C45.2 1.90002 49.9 1.40002 52.4 1.40002C53 1.40002 53.4 1.40002 53.8 1.40002C53.9 3.30002 54 9.30002 50.6 12.7C47.8 15.5 43.1 16 40.6 16C40.2 16 39.9 16 39.7 16C40.6 14.3 43 10.6 47.4 8.20002L46.7 7.00002C42.9 9.10002 40.5 12 39.2 14C39.2 11.4 39.8 7.30002 42.4 4.70002ZM28.4 22C25.2 20.8 23.6 16.9 23 15.5C24 15 26.4 14 28.8 14C29.7 14 30.6 14.2 31.4 14.5C33.6 15.4 35.1 17.5 36 19.2C34.4 18.3 32.1 17.2 29.3 17L29.2 18.5C32.6 18.8 35.2 20.4 36.4 21.3C35.2 21.8 33.2 22.6 31 22.6C30.1 22.4 29.2 22.3 28.4 22ZM5.5 33.5H54.9V58.9H5.5V33.5ZM58.5 62.5H9.1V60.3H56.3V37.1H58.5V62.5Z" fill="currentcolor"/>
<path d="M47.4001 36.4H12.9001C13.0001 38.7 11.9001 39.8 9.6001 39.7V52.6C11.8001 52.5 13.0001 53.5 12.9001 55.9H47.4001C47.3001 53.5 48.6001 52.5 50.7001 52.6V39.7C48.4001 39.8 47.3001 38.7 47.4001 36.4ZM49.3001 51.2C47.7001 51.5 46.4001 52.8 46.1001 54.4H14.3001C14.0001 52.8 12.7001 51.5 11.1001 51.2V41.1C12.7001 40.8 14.0001 39.5 14.3001 37.9H46.0001C46.3001 39.5 47.6001 40.8 49.2001 41.1V51.2H49.3001Z" fill="currentcolor"/>
</svg>
