<svg currentcolor="0 0 64 64" fill="none" xmlns="http://www.w3.org/2000/svg">
<path d="M60.4 28.4C60.3 28.4 60.2 28.4 60.1 28.4L54.4 14.6C54.5 14.5 57.2 12.3 54.7 9.3C53.5 7.9 51 8 49.7 9.3C49.5 9.5 49.4 9.6 49.3 9.8L35.5 4.2C35.5 4 35.6 3.8 35.6 3.5C35.6 1.6 34 0 32 0C30 0 28.4 1.6 28.4 3.6C28.4 3.8 28.4 4 28.5 4.2L14.8 9.9C14.7 9.7 14.5 9.6 14.4 9.4C12.7 7.5 8.6 8 8.3 11.9C8.3 12.9 8.7 13.7 9.3 14.4C9.4 14.5 9.5 14.5 9.6 14.6L3.9 28.5C3.8 28.5 3.7 28.5 3.6 28.5C1.6 28.4 0 30 0 32C0 34 1.6 35.6 3.6 35.6C3.7 35.6 3.8 35.6 3.9 35.6L9.6 49.4C9.5 49.5 9.4 49.5 9.3 49.6C8.6 50.3 7.3 52.5 9.3 54.6C12.2 57.1 14.5 54.4 14.6 54.3L28.4 60C28.4 60.1 28.4 60.2 28.4 60.3C28.4 62.3 30 63.9 32 63.9C34 63.9 35.6 62.3 35.6 60.3C35.6 60.2 35.6 60.1 35.6 60L49.4 54.3C49.5 54.4 51.7 57.1 54.7 54.6C57.1 51.8 54.5 49.4 54.4 49.3L60.1 35.5C60.2 35.5 60.3 35.5 60.4 35.5C62.4 35.5 64 33.9 64 31.9C64 29.9 62.4 28.4 60.4 28.4ZM52.1 9.8C54.1 9.8 54.8 12.1 53.6 13.4C52.8 14.2 51.4 14.2 50.6 13.4C49.6 12.4 49.8 10 52.1 9.8ZM50.2 14.9C51.7 15.8 52.8 15.4 53.1 15.3L58.7 28.9C57.8 29.4 57.2 30.2 57 31.3H50.2C50 26.9 48.2 22.8 45.4 19.8L50.2 14.9ZM42.9 36.4L37.1 32.8C38.1 31.6 38.7 30.1 38.7 28.5C38.7 27.3 37.9 22.3 32.1 21.9C28.4 21.9 25.5 24.9 25.5 28.5C25.5 30.1 26.1 31.6 27.1 32.8L21.3 36.4C19.8 37.4 18.9 39 18.9 40.8V42C16.8 39.2 15.5 35.7 15.5 32C15.5 22.8 23 15.3 32.2 15.3C41.4 15.3 48.9 22.8 48.9 32C48.9 35.8 47.6 39.2 45.5 42V40.7C45.3 38.9 44.4 37.3 42.9 36.4ZM36 33.7L42.1 37.5C43.2 38.2 43.8 39.4 43.8 40.6V43.6C40.8 46.6 36.6 48.5 32 48.5C27.4 48.5 23.2 46.6 20.2 43.6V40.6C20.2 39.3 20.8 38.1 21.9 37.5L28 33.7C30.2 35.6 34.2 35.4 36 33.7ZM26.8 28.4C26.8 25.5 29.1 23.2 32 23.2C36.6 23.6 37.2 27.4 37.2 28.4C37.2 29.9 36.6 31.3 35.5 32.3C31.6 35.3 26.8 32.5 26.8 28.4ZM34.9 5.6L48.6 11.3C48.6 11.5 48.4 13.2 49.1 13.9L44.3 18.7C41.2 15.9 37.2 14.1 32.8 13.9V7.1C33.6 6.9 34.4 6.3 34.9 5.6ZM32 1.5C33.2 1.5 34.1 2.4 34.1 3.6C34.1 4.8 33.2 5.7 32 5.7C30.8 5.7 29.9 4.8 29.9 3.6C29.9 2.4 30.8 1.5 32 1.5ZM15.4 11.2L29.1 5.5C29.6 6.2 30.4 6.8 31.3 7V13.8C26.9 14 22.8 15.8 19.8 18.6L15 13.8C15.5 13 15.4 11.4 15.4 11.2ZM11.9 9.8C12.5 9.8 13 10 13.4 10.4C13.8 10.8 14.5 12.4 13.4 13.4C12.6 14.2 11.2 14.2 10.4 13.4C9.3 12.6 9.7 9.8 11.9 9.8ZM10.9 15.3C11.2 15.4 12.5 15.7 13.8 14.9L18.6 19.7C15.8 22.8 14 26.8 13.8 31.2H7.1C6.9 30.2 6.2 29.3 5.4 28.8L10.9 15.3ZM3.6 34.1C2.4 34.1 1.5 33.2 1.5 32C1.5 30.8 2.4 29.9 3.6 29.9C4.8 29.9 5.7 30.8 5.7 32C5.7 33.2 4.7 34.1 3.6 34.1ZM13.4 53.6C12.6 54.4 11.2 54.4 10.4 53.6C10 53.2 9.8 52.7 9.8 52.1C9.8 51.5 10.1 50.1 11.9 50C14.7 50.4 14.1 52.9 13.4 53.6ZM13.8 49.1C12.9 48.6 11.9 48.4 10.9 48.7L5.3 35.1C6.2 34.6 6.8 33.8 7 32.7H13.8C14 37.1 15.8 41.2 18.6 44.2L13.8 49.1ZM28.9 58.7L15.3 53.1C15.4 52.8 15.7 51.1 14.9 50.2L19.7 45.4C22.8 48.2 26.8 50 31.2 50.2V57C30.3 57.2 29.4 57.8 28.9 58.7ZM32 62.5C30.8 62.5 29.9 61.6 29.9 60.4C29.9 59.2 30.8 58.3 32 58.3C33.2 58.3 34.1 59.2 34.1 60.4C34.1 61.6 33.2 62.5 32 62.5ZM48.7 53.1L35.1 58.7C34.6 57.8 33.8 57.2 32.7 57V50.2C37.1 50 41.2 48.2 44.2 45.4L49 50.2C48.4 51.4 48.6 52.7 48.7 53.1ZM50.6 53.6C49 52 50.8 49.8 52.1 50C52.7 50 54.2 50.4 54.2 52.1C54.3 52.7 53.2 55.4 50.6 53.6ZM53 48.7C52 48.4 51 48.6 50.1 49.1L45.2 44.2C48 41.1 49.8 37.1 50 32.7H56.8C57 33.7 57.7 34.6 58.5 35.1L53 48.7ZM60.4 34.1C59.2 34.1 58.3 33.2 58.3 32C58.3 30.8 59.2 29.9 60.4 29.9C61.6 29.9 62.5 30.8 62.5 32C62.5 33.2 61.6 34.1 60.4 34.1Z" fill="black"/>
</svg>
