<svg currentcolor="0 0 64 64" fill="none" xmlns="http://www.w3.org/2000/svg">
<path d="M40 18.1H24L16 32L24 45.9H40L48 32L40 18.1ZM41.1 41.2L39.2 44.5H24.8L22.9 41.2V39.1C22.9 38.1 23.4 37.3 24.2 36.8L28.9 33.9C31.8 36 35.1 34.2 35.1 33.9L39.8 36.8C40.6 37.3 41.1 38.2 41.1 39.1V41.2ZM28.1 29.5C28.1 27.3 29.8 25.6 32 25.6C35.5 25.8 35.9 28.8 35.9 29.5C35.9 30.6 35.4 31.7 34.6 32.4C30.6 35.2 27.7 31 28.1 29.5ZM40.6 35.5L36.2 32.7C36.9 31.8 37.4 30.6 37.4 29.4C37.4 28.4 36.8 24.3 32.1 24.1C29.2 24.1 26.8 26.5 26.8 29.4C26.8 30.6 27.2 31.8 28 32.7L23.6 35.5C22.5 36.2 21.8 37.4 21.7 38.7L17.6 32L24.8 19.5H39.2L46.4 32L42.5 38.7C42.4 37.4 41.7 36.2 40.6 35.5Z" fill="black"/>
<path d="M45.4258 40.0544L46.645 40.7424L47.333 39.5231L46.1137 38.8352L45.4258 40.0544Z" fill="black"/>
<path d="M50.4067 42.8897L51.626 43.5776L52.3139 42.3584L51.0947 41.6704L50.4067 42.8897Z" fill="black"/>
<path d="M47.916 41.4724L49.1353 42.1604L49.8232 40.9411L48.604 40.2532L47.916 41.4724Z" fill="black"/>
<path d="M56.1004 41.9C54.9004 41.9 53.8004 42.6 53.2004 43.6C51.9004 45.8 53.6004 47.8 54.5004 48.2C55.0004 48.5 57.5004 49.5 59.1004 46.9C59.5004 46.1 59.7004 45.2 59.4004 44.3C59.1004 43.5 58.1004 41.9 56.1004 41.9ZM57.7004 46.2C56.4004 48 54.4004 47 54.1004 45.8C54.0004 45.3 54.0004 43.5 56.0004 43.3C56.7004 43.1 58.8004 44.5 57.7004 46.2Z" fill="black"/>
<path d="M47.1637 23.5145L46.4526 22.3085L45.2467 23.0196L45.9577 24.2256L47.1637 23.5145Z" fill="black"/>
<path d="M49.6857 22.0609L48.9746 20.8549L47.7686 21.566L48.4797 22.7719L49.6857 22.0609Z" fill="black"/>
<path d="M52.1212 20.6582L51.4102 19.4523L50.2042 20.1633L50.9153 21.3693L52.1212 20.6582Z" fill="black"/>
<path d="M55.8003 14.3C55.2003 14.3 53.3003 14.5 52.5003 16.8C52.2003 17.7 52.4003 18.6 52.9003 19.4C53.5003 20.4 54.6003 21.1 55.8003 21.1C56.4003 21.1 58.5003 20.7 59.1003 18.6C59.3003 17.6 59.3003 14.6 55.8003 14.3ZM56.8003 19.3C55.9003 19.8 54.7003 19.5 54.1003 18.6C53.3003 17.5 54.4003 15.5 55.8003 15.7C56.5003 15.7 57.1003 16.1 57.5003 16.7C57.7003 17.1 58.1003 18.3 56.8003 19.3Z" fill="black"/>
<path d="M32.5258 15.8108L32.5122 14.4108L31.1122 14.4244L31.1258 15.8244L32.5258 15.8108Z" fill="black"/>
<path d="M32.5299 12.9701L32.5171 11.5701L31.1171 11.5829L31.1299 12.9829L32.5299 12.9701Z" fill="black"/>
<path d="M31.0591 8.73446L31.0728 10.1345L32.4728 10.1208L32.4591 8.72083L31.0591 8.73446Z" fill="black"/>
<path d="M31.7003 0.700012C30.8003 0.700012 30.0003 1.10001 29.3003 1.70001C28.7003 2.30001 28.3003 3.20001 28.3003 4.10001C28.3003 5.90001 29.8003 7.40001 31.7003 7.40001C32.6003 7.40001 33.4003 7.00001 34.1003 6.40001C34.7003 5.80001 35.1003 4.90001 35.1003 4.00001C35.1003 2.20001 33.6003 0.700012 31.7003 0.700012ZM31.8003 6.00001C30.7003 6.00001 29.8003 5.10001 29.8003 4.10001C29.8003 3.60001 30.2003 2.20001 31.7003 2.10001C32.8003 2.10001 33.6003 3.00001 33.6003 4.00001C33.7003 4.60001 33.4003 5.90001 31.8003 6.00001Z" fill="black"/>
<path d="M31.1415 52.3925L32.5415 52.4052L32.5542 51.0051L31.1542 50.9925L31.1415 52.3925Z" fill="black"/>
<path d="M32.5089 48.1086L31.1089 48.095L31.0953 49.495L32.4953 49.5086L32.5089 48.1086Z" fill="black"/>
<path d="M31.0863 55.2268L32.4863 55.2404L32.5 53.8404L31.1 53.8268L31.0863 55.2268Z" fill="black"/>
<path d="M35.1003 60C35.1003 58.1 33.6003 56.6 31.7003 56.6C29.9003 56.6 28.3003 58.1 28.3003 59.9C28.3003 60.8 28.6003 61.7 29.3003 62.3C29.9003 62.9 30.8003 63.3 31.7003 63.3C33.6003 63.3 35.1003 61.8 35.1003 60ZM31.7003 61.9C30.2003 61.9 29.8003 60.5 29.8003 59.9C29.8003 58.8 30.7003 58 31.8003 58C32.9003 58 33.7003 58.9 33.7003 60C33.7003 61 32.8003 61.9 31.7003 61.9Z" fill="black"/>
<path d="M13.5781 20.4214L12.3589 19.7333L11.6708 20.9525L12.89 21.6406L13.5781 20.4214Z" fill="black"/>
<path d="M18.5884 23.2249L17.3691 22.537L16.6812 23.7562L17.9004 24.4442L18.5884 23.2249Z" fill="black"/>
<path d="M16.0835 21.8226L14.8643 21.1346L14.1763 22.3539L15.3956 23.0419L16.0835 21.8226Z" fill="black"/>
<path d="M9.60022 15.2C9.10022 14.9 6.60022 13.9 5.00022 16.5C3.70022 18.9 5.40022 20.7 6.30022 21.1C6.80022 21.4 9.30022 22.4 10.9002 19.8C11.8002 18.1 11.2002 16.1 9.60022 15.2ZM9.70022 19.1C9.20022 20 7.90022 20.3 7.00022 19.8C5.60022 19.1 5.60022 16.3 8.00022 16.2C8.60022 16.1 10.5002 17.1 9.70022 19.1Z" fill="black"/>
<path d="M18.0613 39.1333L16.8555 39.8446L17.5668 41.0504L18.7726 40.3391L18.0613 39.1333Z" fill="black"/>
<path d="M15.1074 42.5007L16.313 41.7889L15.6012 40.5834L14.3957 41.2952L15.1074 42.5007Z" fill="black"/>
<path d="M11.9291 42.7741L12.6401 43.9801L13.8461 43.269L13.135 42.0631L11.9291 42.7741Z" fill="black"/>
<path d="M11.1002 44C11.1002 44 9.90017 42.2 8.20017 42.3C7.30017 42.1 3.50017 43.8 5.30017 47.4C5.60017 48.6 9.80017 50.8 11.5002 46.5C11.7002 45.7 11.1002 44 11.1002 44ZM9.20017 47.4C8.30017 47.9 7.10017 47.6 6.50017 46.7C6.20017 46.3 5.70017 44 8.20017 43.8C8.90017 43.8 9.50017 44.2 9.90017 44.8C10.2002 45.2 10.5002 46.7 9.20017 47.4Z" fill="black"/>
</svg>
