<svg width="64" height="64" viewBox="0 0 64 64" fill="none" xmlns="http://www.w3.org/2000/svg">
<path d="M61.8999 19.3L53.8999 13.2C53.6999 13 53.3999 13 53.0999 13.1C52.8999 13.2 52.6999 13.5 52.6999 13.7V17C44.9999 17.4 37.9999 22.2 34.7999 29.1V5.39998H38.0999C38.4999 5.39998 38.7999 5.09998 38.7999 4.69998C38.7999 4.49998 38.6999 4.29998 38.5999 4.19998L32.5999 -3.70002C32.2999 -4.10002 31.6999 -4.10002 31.4999 -3.70002L25.3999 4.29998C25.1999 4.49998 25.1999 4.79998 25.2999 5.09998C25.3999 5.29998 25.6999 5.49998 25.8999 5.49998H29.1999V29.2C25.9999 22.2 18.9999 17.4 11.2999 17.1V13.8C11.2999 13.5 11.0999 13.3 10.8999 13.2C10.6999 13.1 10.3999 13.1 10.0999 13.3L2.0999 19.4C1.9999 19.4 1.8999 19.6 1.8999 19.9C1.8999 20.1 1.9999 20.3 2.1999 20.5L10.1999 26.6C10.9999 26.9 11.2999 26.6 11.3999 26V22.9C17.6999 23.2 23.0999 27.6 24.5999 33.8C24.6999 34.1 24.9999 34.3 25.2999 34.3C25.3999 34.3 25.3999 34.3 25.4999 34.3C25.8999 34.2 26.0999 33.8 25.9999 33.4C24.2999 26.6 18.3999 21.7 11.3999 21.4V18.6C19.6999 18.9 27.0999 24.9 29.1999 33C29.2999 33.3 29.5999 33.5 29.8999 33.5C29.8999 33.5 29.9999 33.5 30.0999 33.5C30.4999 33.5 30.7999 33.2 30.7999 32.8V5.39998H33.4999V32.8C33.4999 33.5 34.6999 33.8 35.0999 33C37.0999 24.9 44.4999 18.9 52.8999 18.6V21.4C45.8999 21.7 39.9999 26.5 38.2999 33.4C38.1999 33.8 38.3999 34.2 38.7999 34.3C38.8999 34.3 39.3999 34.4 39.6999 33.8C41.1999 27.6 46.5999 23.2 52.8999 22.9V26C53.0999 27 53.8999 26.7 54.0999 26.6L62.0999 20.5C62.2999 20.4 62.3999 20.2 62.3999 19.9C62.0999 19.6 61.9999 19.4 61.8999 19.3ZM9.8999 24.5L3.7999 19.9L9.8999 15.3V24.5ZM27.3999 3.99998L31.9999 -2.10002L36.5999 3.99998H27.3999ZM54.0999 24.5V15.2L60.1999 19.8L54.0999 24.5Z" fill="currentcolor"/>
<path d="M42.3999 45.7C42.9999 45.2 43.3999 44.4 43.3999 43.6C43.3999 42.1 42.1999 40.9 40.6999 40.9H39.2999V39.8C39.2999 38.1 37.8999 36.7 36.1999 36.7H27.9999C27.1999 36.7 26.3999 37.1 25.8999 37.8L23.7999 40.8H17.5999V42.2H24.5999L27.1999 38.5C27.3999 38.2 27.6999 38 28.0999 38H36.1999C37.0999 38 37.7999 38.7 37.7999 39.6V46.8C36.6999 46.5 35.6999 45.6 35.6999 44V39.8H34.2999V40.7H31.3999V42.1H34.2999C34.2999 42.1 34.2999 44.6 34.3999 44.9C33.0999 45.2 32.1999 46.3 32.1999 47.6C32.1999 48.4 32.5999 49.2 33.0999 49.7C32.4999 50.2 32.1999 50.9 32.1999 51.8C32.1999 52.6 32.5999 53.4 33.0999 53.9C32.4999 54.4 32.1999 55.1 32.1999 56C32.1999 56.5 32.2999 56.9 32.5999 57.3H27.8999C27.5999 57.3 27.1999 57.2 26.8999 57.1L25.3999 56.4C24.7999 56.1 24.0999 56 23.4999 56H19.1999V57.4H23.4999C23.9999 57.4 24.3999 57.5 24.7999 57.7L26.2999 58.4C26.7999 58.6 27.2999 58.8 27.8999 58.8H39.9999C41.4999 58.8 42.7999 57.6 42.7999 56C42.7999 55.3 42.5999 54.7 42.1999 54.2C42.9999 53.7 43.5999 52.8 43.5999 51.8C43.5999 51 43.1999 50.2 42.6999 49.7C43.2999 49.2 43.5999 48.5 43.5999 47.6C43.2999 46.9 42.9999 46.2 42.3999 45.7ZM39.7999 57.4H34.8999C34.1999 57.4 33.5999 56.8 33.5999 56.1C33.5999 55.4 34.1999 54.8 34.8999 54.8H39.7999C40.4999 54.8 41.0999 55.4 41.0999 56.1C41.0999 56.8 40.5999 57.4 39.7999 57.4ZM40.5999 53.3H34.9999C34.2999 53.3 33.6999 52.7 33.6999 52C33.6999 51.3 34.2999 50.7 34.9999 50.7H40.5999C41.2999 50.7 41.8999 51.3 41.8999 52C41.8999 52.7 41.2999 53.3 40.5999 53.3ZM40.5999 49.1H34.9999C34.2999 49.1 33.6999 48.5 33.6999 47.8C33.6999 47.1 34.2999 46.5 34.9999 46.5C35.7999 47.8 37.1999 48.5 38.6999 48.5H39.3999V46.5H40.5999H40.6999C41.3999 46.5 41.9999 47.1 41.9999 47.8C41.8999 48.5 41.2999 49.1 40.5999 49.1ZM40.4999 45H39.2999V42.4V42.3H40.6999C41.3999 42.3 41.8999 42.9 41.8999 43.5C41.8999 44.3 41.2999 45 40.4999 45Z" fill="currentcolor"/>
<path d="M22.1 53.3H20.7V54.7H22.1V53.3Z" fill="currentcolor"/>
<path d="M24.9999 53.3H23.5999V54.7H24.9999V53.3Z" fill="currentcolor"/>
</svg>
