<svg viewBox="0 0 64 64" fill="none" xmlns="http://www.w3.org/2000/svg">
<path d="M42.8999 52.2C41.8999 51.9 40.8999 51.5 39.9999 51C39.5999 50.8 39.1999 51 38.9999 51.3C38.7999 51.7 38.9999 52.1 39.2999 52.3C40.2999 52.8 41.3999 53.2 42.3999 53.6C42.4999 53.6 42.5999 53.6 42.5999 53.6C42.8999 53.6 43.1999 53.4 43.2999 53.1C43.4999 52.8 43.2999 52.4 42.8999 52.2Z" fill="currentcolor"/>
<path d="M46.7998 49.5C46.8998 49.1 46.5998 48.7 46.1998 48.6C45.1998 48.4 44.2998 48.2 43.3998 47.8C42.9998 47.7 42.5998 47.8 42.3998 48.2C42.2998 48.6 42.3998 49 42.7998 49.2C43.7998 49.6 44.7998 49.9 45.8998 50.1H45.9998C46.3998 50.1 46.6998 49.9 46.7998 49.5Z" fill="currentcolor"/>
<path d="M14.9001 29.9C17.7001 29.9 19.9001 27.6 19.9001 25V24.9C19.9001 18.2 25.3001 12.8 32.0001 12.8C38.7001 12.8 44.1001 18.2 44.1001 24.9V32.6C44.1001 32.6 44.1001 32.6 44.1001 32.7C44.1001 35.4 46.4001 37.7 49.1001 37.7C49.5001 37.7 49.9001 37.4 49.9001 36.9C49.9001 36.4 49.6001 36.1 49.1001 36.1C47.2001 36.1 45.6001 34.5 45.6001 32.6V24.9C45.6001 17.4 39.5001 11.3 32.0001 11.3C24.5001 11.3 18.4001 17.4 18.4001 24.8V24.9C18.4001 26.8 16.8001 28.4 14.9001 28.4C14.5001 28.4 14.1001 28.7 14.1001 29.2C14.2001 29.5 14.5001 29.9 14.9001 29.9Z" fill="currentcolor"/>
<path d="M37.0002 24.8C37.0002 22 34.7002 19.8 32.0002 19.8C29.2002 19.8 27.0002 22 27.0002 24.8V25.7C26.6002 32 21.3002 36.9 15.0002 36.9C14.6002 36.9 14.2002 37.2 14.2002 37.7C14.2002 38.1 14.5002 38.5 15.0002 38.5C22.1002 38.5 28.0002 33 28.5002 25.9V25C28.5002 23.1 30.1002 21.5 32.0002 21.5C33.9002 21.5 35.5002 23.1 35.5002 25V32.6V32.7C35.5002 39.7 41.0002 45.7 48.0002 46.2C48.0002 46.2 48.0002 46.2 48.1002 46.2C48.5002 46.2 48.8002 45.9 48.8002 45.5C48.8002 45.1 48.5002 44.7 48.1002 44.7C41.9002 44.2 37.0002 39 37.0002 32.7C37.0002 32.7 37.0002 32.7 37.0002 32.6V24.8Z" fill="currentcolor"/>
<path d="M33.2 37.1C33.4 36.8 33.3 36.3 33 36.1C32.7 35.9 32.2 36 32 36.3C28.4 41.7 22.5 45.1 16.2 45.5C15.8 45.5 15.5 45.9 15.5 46.3C15.5 46.7 15.9 47 16.2 47C23.1 46.5 29.4 42.8 33.2 37.1Z" fill="currentcolor"/>
<path d="M33.9002 40.8C30.0002 45.5 24.5002 48.6 18.5002 49.5C18.1002 49.6 17.8002 49.9 17.9002 50.4C18.0002 50.8 18.3002 51 18.6002 51H18.7002C25.0002 50.1 30.8002 46.8 35.0002 41.8C35.3002 41.5 35.2002 41 34.9002 40.7C34.6002 40.4 34.2002 40.5 33.9002 40.8Z" fill="currentcolor"/>
<path d="M37.6998 45.2C37.9998 44.9 37.8998 44.4 37.5998 44.1C37.2998 43.8 36.7998 43.9 36.4998 44.2C32.6998 48.5 27.6998 51.6 22.1998 53C21.7998 53.1 21.5998 53.5 21.6998 53.9C21.7998 54.2 22.0998 54.5 22.3998 54.5C22.4998 54.5 22.4998 54.5 22.5998 54.5C28.3998 52.9 33.5998 49.7 37.6998 45.2Z" fill="currentcolor"/>
<path d="M41.0998 47.7C41.3998 47.4 41.2998 46.9 40.9998 46.6C40.6998 46.3 40.1998 46.4 39.8998 46.7C36.5998 50.5 32.3998 53.5 27.8998 55.5C27.4998 55.7 27.2998 56.1 27.4998 56.5C27.5998 56.8 27.8998 57 28.1998 57C28.2998 57 28.3998 57 28.4998 56.9C33.2998 54.9 37.6998 51.7 41.0998 47.7Z" fill="currentcolor"/>
<path d="M14.2002 25.1C14.2002 25.2 14.3002 25.2 14.3002 25.3C14.3002 25.3 14.3002 25.3 14.4002 25.4C14.4002 25.4 14.5002 25.5 14.6002 25.5C14.6002 25.5 14.6002 25.5 14.7002 25.5C14.8002 25.5 14.9002 25.6 15.0002 25.6C15.4002 25.6 15.8002 25.3 15.8002 24.8C15.8002 15.8 23.1002 8.5 32.1002 8.5C41.1002 8.5 48.4002 15.8 48.4002 24.8V33.2C48.4002 33.6 48.7002 34 49.2002 34C49.6002 34 50.0002 33.7 50.0002 33.2V24.8C49.8002 15 41.8002 7 32.0002 7C22.2002 7 14.2002 15 14.2002 24.8C14.2002 24.9 14.2002 25 14.2002 25.1Z" fill="currentcolor"/>
<path d="M31.1998 25V25.9C30.5998 34.4 23.4998 41.2 14.9998 41.2C14.5998 41.2 14.2998 41.5 14.2998 42C14.2998 42.4 14.5998 42.7 15.0998 42.7C24.3998 42.6 32.0998 35.3 32.6998 25.9V25C32.6998 24.6 32.3998 24.2 31.9998 24.2C31.5998 24.2 31.2998 24.5 31.1998 25Z" fill="currentcolor"/>
<path d="M49.1001 40.3C44.8001 40.3 41.3001 36.8 41.3001 32.5V24.8C41.3001 19.7 37.1001 15.5 32.0001 15.5C26.9001 15.5 22.7001 19.7 22.7001 24.8V25.1V25.2C22.5001 29.4 19.1001 32.6 14.9001 32.6C14.5001 32.6 14.1001 32.9 14.1001 33.4C14.1001 33.8 14.4001 34.2 14.9001 34.2C19.9001 34.2 23.9001 30.3 24.2001 25.4V25.3V24.9C24.2001 20.6 27.7001 17.1 32.0001 17.1C36.3001 17.1 39.8001 20.6 39.8001 24.9V32.6C39.8001 37.7 44.0001 41.9 49.1001 41.9C49.5001 41.9 49.9001 41.6 49.9001 41.1C49.9001 40.6 49.5001 40.3 49.1001 40.3Z" fill="currentcolor"/>
<path d="M10.1536 18.5028L4.69775 15.3528L3.94775 16.6518L9.40355 19.8018L10.1536 18.5028Z" fill="currentcolor"/>
<path d="M6.3 31.3H0V32.8H6.3V31.3Z" fill="currentcolor"/>
<path d="M9.40307 44.1968L3.94727 47.3468L4.69727 48.6458L10.1531 45.4958L9.40307 44.1968Z" fill="currentcolor"/>
<path d="M53.864 45.4737L59.3198 48.6237L60.0698 47.3247L54.614 44.1747L53.864 45.4737Z" fill="currentcolor"/>
<path d="M64.0002 31.3H57.7002V32.8H64.0002V31.3Z" fill="currentcolor"/>
<path d="M60.1396 16.6737L59.3896 15.3747L53.9338 18.5247L54.6838 19.8237L60.1396 16.6737Z" fill="currentcolor"/>
</svg>
