<svg viewBox="0 0 64 64" fill="none" xmlns="http://www.w3.org/2000/svg">
<path d="M63.8002 36.3001L58.5002 24.3001V20.0001C58.1002 15.2001 54.3002 10.3001 50.7002 7.60005C43.6002 2.10005 36.3002 2.80005 33.4002 3.40005C32.9002 3.50005 32.4002 3.60005 31.9002 3.80005C31.4002 3.70005 30.9002 3.60005 30.4002 3.40005C27.6002 2.80005 20.2002 2.10005 13.1002 7.60005C9.7002 10.3001 5.9002 15.2001 5.5002 20.0001V24.3001L0.200195 36.3001L4.7002 36.4001L4.4002 43.1001C4.4002 44.1001 4.7002 45.1001 5.5002 45.8001C6.2002 46.5001 7.2002 46.9001 8.2002 46.8001H13.8002V60.7001H21.3002V59.3001H15.3002V45.4001H8.2002C7.6002 45.4001 7.0002 45.2001 6.6002 44.8001C6.2002 44.4001 5.9002 43.8001 6.0002 43.2001L6.2002 35.0001L2.3002 34.9001L6.8002 24.6001V20.1001C7.1002 16.4001 10.0002 11.8001 14.0002 8.70005C19.9002 4.10005 26.0002 4.20005 29.1002 4.60005C28.1002 5.00005 27.1002 5.40005 26.2002 6.00005C24.0002 7.30005 22.1002 8.90005 20.5002 10.7001C19.0002 12.4001 17.8002 14.4001 17.0002 16.4001C14.9002 21.6001 14.9002 27.4001 17.2002 33.6001C18.0002 35.7001 19.2002 37.8001 20.5002 39.9001C23.0002 44.0001 25.5002 48.2001 25.5002 53.6001V61.0001H26.9002V53.6001C26.9002 47.8001 24.1002 43.2001 21.7002 39.2001C20.4002 37.1001 19.2002 35.1001 18.5002 33.1001C16.4002 27.2001 16.3002 21.8001 18.3002 16.9001C19.1002 15.0001 20.2002 13.2001 21.6002 11.6001C23.2002 9.90005 25.0002 8.40005 27.0002 7.20005C28.9002 6.10005 31.1002 5.30005 33.7002 4.80005C36.3002 4.30005 43.2002 3.60005 49.8002 8.70005C53.8002 11.8001 56.7002 16.4001 57.0002 20.0001V24.6001L61.5002 34.9001L57.8002 35.0001L58.1002 43.2001C58.1002 43.8001 57.9002 44.4001 57.5002 44.8001C57.1002 45.2001 56.5002 45.4001 55.8002 45.4001H48.8002V59.3001H45.0002V60.7001H50.2002V46.8001H55.8002C56.8002 46.9001 57.8002 46.5001 58.5002 45.8001C59.2002 45.1001 59.6002 44.1001 59.6002 43.1001L59.3002 36.4001L63.8002 36.3001Z" fill="currentcolor"/>
<path d="M46.4 52H45V53.4H46.4V52Z" fill="currentcolor"/>
<path d="M46.4 48.6001H45V50.0001H46.4V48.6001Z" fill="currentcolor"/>
<path d="M46.4 55.3H45V56.7001H46.4V55.3Z" fill="currentcolor"/>
<path d="M43.3 19.6L44.3 20.6L48.2 16.8L44.3 12.9L43.3 13.9L45.4 16H39.5V17.5H45.4L43.3 19.6Z" fill="currentcolor"/>
<path d="M37.9 16H36.5V17.4H37.9V16Z" fill="currentcolor"/>
<path d="M35.0001 16H33.6001V17.4H35.0001V16Z" fill="currentcolor"/>
<path d="M26.8 19.3L23 23.2001L26.8 27.1L27.9 26L25.7 23.9H31.6V22.4H25.7L27.9 20.3L26.8 19.3Z" fill="currentcolor"/>
<path d="M34.6002 22.4H33.2002V23.8H34.6002V22.4Z" fill="currentcolor"/>
<path d="M37.5001 22.4H36.1001V23.8H37.5001V22.4Z" fill="currentcolor"/>
</svg>
