<svg viewBox="0 0 64 64" fill="none" xmlns="http://www.w3.org/2000/svg">
<path d="M57.3001 25.9C56.5001 25.9 55.6001 26.1 54.9001 26.4L48.4001 15.1C50.0001 14 51.0001 12.1 51.0001 10.1C51.0001 6.69999 48.2001 3.99999 44.9001 3.99999C41.8001 3.99999 39.2001 6.39999 38.8001 9.39999H25.4001C25.0001 6.39999 22.4001 3.99999 19.3001 3.99999C15.9001 3.99999 13.2001 6.79999 13.2001 10.1C13.2001 12.1 14.1001 13.9 15.7001 15L9.1001 26.4C8.3001 26.1 7.5001 25.9 6.7001 25.9C3.3001 25.9 0.600098 28.7 0.600098 32C0.600098 35.4 3.4001 38.1 6.7001 38.1C7.5001 38.1 8.4001 37.9 9.1001 37.6L15.7001 49C14.1001 50.1 13.2001 52 13.2001 53.9C13.2001 57.3 16.0001 60 19.3001 60C22.4001 60 25.0001 57.6 25.4001 54.6H38.7001C39.1001 57.6 41.7001 60 44.8001 60C48.2001 60 50.9001 57.2 50.9001 53.9C50.9001 51.9 49.9001 50.1 48.3001 48.9L54.8001 37.6C55.6001 37.9 56.4001 38.1 57.2001 38.1C60.6001 38.1 63.3001 35.3 63.3001 32C63.4001 28.6 60.7001 25.9 57.3001 25.9ZM44.8001 5.39999C47.4001 5.39999 49.5001 7.49999 49.5001 10.1C49.5001 14.1 45.6001 14.8 44.8001 14.8C42.2001 14.8 40.1001 12.7 40.1001 10.1C40.1001 7.49999 42.2001 5.39999 44.8001 5.39999ZM14.6001 10.1C14.6001 7.49999 16.7001 5.39999 19.3001 5.39999C21.9001 5.39999 24.0001 7.49999 24.0001 10.1C24.0001 12.7 21.9001 14.8 19.3001 14.8C18.5001 14.8 17.7001 14.6 17.0001 14.2C15.5001 13.3 14.6001 11.8 14.6001 10.1ZM6.7001 36.7C4.1001 36.7 2.0001 34.6 2.0001 32C2.4001 26 8.7001 27.2 9.1001 27.9C10.6001 28.7 11.5001 30.3 11.5001 32C11.4001 32.2 11.2001 36.5 6.7001 36.7ZM19.3001 58.6C16.7001 58.6 14.6001 56.5 14.6001 53.9C14.6001 52.2 15.5001 50.7 17.0001 49.8C17.7001 49.4 18.5001 49.2 19.3001 49.2C21.9001 49.2 24.0001 51.3 24.0001 53.9C24.0001 56.5 21.9001 58.6 19.3001 58.6ZM49.5001 53.9C49.5001 56.5 47.4001 58.6 44.8001 58.6C42.2001 58.6 40.1001 56.5 40.1001 53.9C40.1001 51.3 42.2001 49.2 44.8001 49.2C45.6001 49.2 46.4001 49.4 47.1001 49.8C48.6001 50.6 49.5001 52.2 49.5001 53.9ZM47.1001 48.2C47.0001 48.2 47.0001 48.2 47.0001 48.2C43.4001 46.7 39.3001 49 38.7001 53.2H25.4001C25.4001 53.1 25.3001 53 25.3001 52.9C23.8001 46.6 17.5001 47.7 17.1001 48.2C17.1001 48.2 17.0001 48.2 16.9001 48.3L10.3001 37C10.4001 36.9 10.4001 36.9 10.5001 36.8C15.7001 31.8 10.4001 27.2 10.3001 27.2L16.9001 15.9C17.2001 16.6 24.4001 17.4 25.4001 11H38.7001C38.4001 11.6 40.7001 18 46.9001 16H47.0001L53.5001 27.3C53.4001 27.4 52.8001 27.9 52.7001 28C52.6001 28.1 48.6001 32.4 53.3001 36.9C53.4001 37 53.4001 37 53.5001 37.1L47.1001 48.2ZM57.3001 36.7C52.7001 36.5 52.4001 31.9 52.6001 31.4C53.3001 27.7 56.4001 27.3 57.3001 27.3C59.9001 27.3 62.0001 29.4 62.0001 32C62.0001 34.6 59.9001 36.7 57.3001 36.7Z" fill="currentcolor"/>
<path d="M40.9999 27.6C40.4999 27.6 39.9999 27.7 39.4999 27.8C38.9999 25.2 36.6999 23.2 33.8999 23.2C31.9999 23.2 30.2999 24.1 29.1999 25.7C28.5999 25.3 27.5999 24.9 26.4999 25C24.9999 25 23.4999 25.6 22.3999 26.7C21.4999 27.6 20.8999 28.8 20.7999 30.2C19.3999 30.6 17.3999 31.8 17.3999 34.6C17.3999 37.1 19.3999 39.1 21.8999 39.1H40.9999C44.0999 39.1 46.6999 36.6 46.6999 33.4C46.5999 30.1 44.0999 27.6 40.9999 27.6ZM40.9999 37.5H21.7999C20.0999 37.5 18.7999 36.1 18.7999 34.5C18.7999 31.9 21.1999 31.5 21.4999 31.5L22.0999 31.4V30.8C22.0999 29.7 22.4999 28.6 23.3999 27.8C24.1999 27 25.2999 26.5 26.4999 26.5C26.5999 26.5 26.6999 26.5 26.7999 26.5C27.9999 26.5 28.9999 27.3 28.9999 27.3L29.6999 27.9L30.0999 27.1C30.7999 25.6 32.2999 24.7 33.8999 24.7C36.1999 24.7 38.0999 26.6 38.0999 28.9C38.0999 29.4 37.9999 29.8 37.8999 30.2L39.2999 30.7C39.3999 30.3 39.4999 29.8 39.5999 29.4C40.0999 29.2 40.5999 29.1 41.0999 29.1C43.3999 29.1 45.2999 31 45.2999 33.3C45.1999 35.6 43.2999 37.5 40.9999 37.5Z" fill="currentcolor"/>
<path d="M23.3003 30.1L24.7003 30.5C25.0003 29.4 26.1003 28.8 27.2003 29.1L27.6003 27.7C25.7003 27.2 23.8003 28.3 23.3003 30.1Z" fill="currentcolor"/>
</svg>
