<svg viewBox="0 0 64 64" fill="none" xmlns="http://www.w3.org/2000/svg">
<path d="M16.6001 10.6999C24.6001 4.99993 35.2001 4.09993 44.1001 8.19993L40.5001 9.39993L41.0001 10.7999L47.0001 8.79993L45.0001 2.79993L43.6001 3.29993L44.8001 6.89993C35.5001 2.49993 24.3001 3.49993 15.8001 9.49993C15.5001 9.69993 15.1001 9.99993 14.6001 10.3999L15.5001 11.4999C15.9001 11.1999 16.3001 10.8999 16.6001 10.6999Z" fill="currentcolor"/>
<path d="M14.1 12.8L13.1 11.7C12.8 12 12.4 12.4 12 12.7L13 13.7C13.4 13.4 13.7 13.1 14.1 12.8Z" fill="currentcolor"/>
<path d="M11.8003 15.1999L10.7003 14.2999C10.4003 14.6999 10.1003 14.9999 9.80029 15.3999L10.9003 16.2999C11.2003 15.8999 11.5003 15.4999 11.8003 15.1999Z" fill="currentcolor"/>
<path d="M9.80039 17.7L8.60039 16.9C8.40039 17.2 8.10039 17.6 7.90039 17.9L9.10039 18.7C9.30039 18.4 9.50039 18.1 9.80039 17.7Z" fill="currentcolor"/>
<path d="M58 22.7999C58.2 23.2999 58.3 23.7 58.5 24.1L59.9 23.6C59.8 23.2 59.6 22.7 59.4 22.2L58 22.7999Z" fill="currentcolor"/>
<path d="M60.8001 27C60.7001 26.6 60.6001 26.1 60.4001 25.6L59.1001 26C59.2001 26.5 59.3001 26.9 59.4001 27.4L60.8001 27Z" fill="currentcolor"/>
<path d="M56.8003 20C57.0003 20.4 57.1003 20.7 57.3003 21.1L58.6003 20.5C58.4003 20.1 58.3003 19.8 58.1003 19.4L56.8003 20Z" fill="currentcolor"/>
<path d="M48.0001 55.5L48.8001 51.8L47.4001 51.5L46.1001 57.6L52.2001 58.9L52.5001 57.5L48.8001 56.7C57.3001 50.9 62.2001 40.8 61.3001 30.4C61.3001 30 61.2001 29.5 61.1001 28.9L59.7001 29.1C59.8001 29.7 59.8001 30.1 59.9001 30.5C60.7001 40.4 56.1001 50 48.0001 55.5Z" fill="currentcolor"/>
<path d="M20.7002 57.7C11.9002 53.4 6.0002 44.5 5.3002 34.8L8.1002 37.4L9.1002 36.3L4.5002 32L0.200195 36.6L1.3002 37.6L3.9002 34.8C4.5002 45.1 10.8002 54.5 20.1002 59C20.4002 59.2 20.9002 59.4 21.5002 59.6L22.0002 58.3C21.4002 58 21.0002 57.8 20.7002 57.7Z" fill="currentcolor"/>
<path d="M25.1004 59.3C24.6004 59.2 24.2004 59 23.8004 58.9L23.4004 60.3C23.8004 60.4 24.3004 60.6 24.8004 60.7L25.1004 59.3Z" fill="currentcolor"/>
<path d="M26.6001 61.1999C27.1001 61.2999 27.5001 61.3999 28.0001 61.4999L28.2001 60.0999C27.7001 59.9999 27.3001 59.8999 26.8001 59.7999L26.6001 61.1999Z" fill="currentcolor"/>
<path d="M31.4 60.3999C31 60.3999 30.6 60.2999 30.2 60.2999L30 61.6999C30.4 61.6999 30.8 61.7999 31.2 61.7999L31.4 60.3999Z" fill="currentcolor"/>
<path d="M33.5001 12.7H32.1001V24.3H33.5001V12.7Z" fill="currentcolor"/>
<path d="M33.5001 41.7999H32.1001V53.3999H33.5001V41.7999Z" fill="currentcolor"/>
<path d="M53.2001 32.4H41.6001V33.8H53.2001V32.4Z" fill="currentcolor"/>
<path d="M24.1 32.4H12.5V33.8H24.1V32.4Z" fill="currentcolor"/>
<path d="M30.7003 17L30.5003 15.6C22.6003 16.6 16.3003 22.9 15.3003 30.8L16.7003 31C17.7003 23.6 23.4003 17.9 30.7003 17Z" fill="currentcolor"/>
<path d="M49 35.2C48.1 42.5 42.3 48.3 35 49.2L35.2 50.5999C43.2 49.5999 49.4 43.2999 50.4 35.2999L49 35.2Z" fill="currentcolor"/>
<path d="M30.5003 50.6999L30.7003 49.2999C23.4003 48.2999 17.6003 42.5999 16.7003 35.2999L15.3003 35.4999C16.3003 43.2999 22.5003 49.5999 30.5003 50.6999Z" fill="currentcolor"/>
<path d="M31.2 20.7999C25.7 21.4999 21.3 25.8999 20.5 31.3999L21.9 31.5999C22.6 26.6999 26.4 22.8999 31.3 22.1999L31.2 20.7999Z" fill="currentcolor"/>
<path d="M45.1003 34.7L43.7003 34.5C43.1003 39.4 39.2003 43.3 34.3003 43.9L34.5003 45.3C40.0003 44.6 44.4003 40.2 45.1003 34.7Z" fill="currentcolor"/>
<path d="M22.0001 34.5L20.6001 34.7C21.3001 40.3 25.7001 44.7 31.3001 45.4L31.5001 44C26.5001 43.3 22.6001 39.4 22.0001 34.5Z" fill="currentcolor"/>
<path d="M57.1001 2.09998L48.5001 10.7L49.4001 15.4L44.8001 20C42.2001 17.6 38.8001 15.9 35.1001 15.5L35.0001 17C38.4001 17.4 41.4001 18.9 43.8001 21.1L41.1001 23.8C39.3001 22.2 37.0001 21.1 34.5001 20.8L34.3001 22.2C36.5001 22.5 38.5001 23.4 40.1001 24.8L35.7001 29.2C34.9001 28.6 33.9001 28.2 32.9001 28.2C30.2001 28.2 28.1001 30.4 28.1001 33C28.1001 35.7 30.3001 37.8 32.9001 37.8C35.6001 37.8 37.7001 35.6 37.7001 33C37.7001 31.9 37.3001 31 36.7001 30.2L41.1001 25.8C42.5001 27.4 43.4001 29.4 43.7001 31.5L45.1001 31.3C44.8001 28.8 43.7001 26.5 42.1001 24.7L44.8001 22C47.0001 24.4 48.5001 27.4 48.9001 30.8L50.3001 30.6C49.8001 26.9 48.2001 23.6 45.8001 21L50.4001 16.4L55.1001 17.3L63.7001 8.69998L58.1001 7.59998L57.1001 2.09998ZM36.2001 33.1C36.2001 35 34.7001 36.5 32.8001 36.5C30.9001 36.5 29.4001 35 29.4001 33.1C29.4001 31.2 30.9001 29.7 32.8001 29.7C33.5001 29.7 34.1001 29.9 34.6001 30.2L32.3001 32.5L33.3001 33.5L35.6001 31.2C36.0001 31.8 36.2001 32.4 36.2001 33.1ZM54.7001 15.8L50.8001 15L50.0001 11.1L56.1001 4.99998L57.0001 8.89998L60.9001 9.69998L54.7001 15.8Z" fill="currentcolor"/>
</svg>
