<svg viewBox="0 0 64 64" fill="none" xmlns="http://www.w3.org/2000/svg">
<path d="M27.6 36.2L40 27.6L39.2 26.4L28 34.1L25.2 30L24 30.9L27.6 36.2Z" fill="currentcolor"/>
<path d="M20.3999 31.2001C20.3999 37.7001 25.6999 43.1 32.2999 43.1C38.8999 43.1 44.1999 37.8001 44.1999 31.2001C44.1999 24.7001 38.8999 19.3 32.2999 19.3C25.6999 19.3 20.3999 24.6001 20.3999 31.2001ZM32.2999 20.7001C37.9999 20.7001 42.6999 25.4001 42.6999 31.1C42.6999 36.8 37.9999 41.5 32.2999 41.5C26.5999 41.5 21.8999 36.8 21.8999 31.1C21.7999 25.4001 26.4999 20.7001 32.2999 20.7001Z" fill="currentcolor"/>
<path d="M62.4998 13.4C41.1998 10.7 32.5998 1.00005 32.5998 0.900049L31.9998 0.300049L31.4998 0.900049C31.3998 1.00005 22.8998 10.6 1.4998 13.4L0.799805 13.5L0.899805 14.2C0.899805 14.6 5.39981 51.4 31.6998 63.5L31.9998 63.6L32.2998 63.5C59.2998 51.9 63.0998 14.5 63.0998 14.1L63.1998 13.4H62.4998ZM31.9998 62.1C8.69981 51.2001 3.1998 19.9 2.3998 14.8C20.9998 12.2 29.7998 4.60005 31.9998 2.40005C34.1998 4.60005 42.9998 12.2 61.5998 14.7C60.9998 19.9 55.9998 51.6 31.9998 62.1Z" fill="currentcolor"/>
<path d="M31.5996 10.2001C27.4996 13.1001 20.3996 16.9001 9.79961 19.3001L9.09961 19.5001L9.29961 20.2001C11.3996 29.6001 17.0996 46.7001 31.7996 55.5001L32.1996 55.7001L32.5996 55.5001C47.3996 47.0001 52.8996 29.7001 54.8996 20.2001L54.9996 19.5001L54.2996 19.3001C43.5996 17.0001 36.4996 13.0001 32.3996 10.2001L31.9996 9.90005L31.5996 10.2001ZM53.2996 20.6001C51.2996 30.0001 45.8996 46.0001 32.0996 54.0001C18.5996 45.7001 12.9996 29.8001 10.7996 20.6001C20.8996 18.3001 27.7996 14.6001 31.9996 11.7001C36.1996 14.5001 43.0996 18.3001 53.2996 20.6001Z" fill="currentcolor"/>
</svg>
