<svg viewBox="0 0 64 64" fill="none" xmlns="http://www.w3.org/2000/svg">
<path d="M42 26.2L43.7 23.8L40.4 20.4L38 22C37.1 21.5 36.1 21 35.1 20.8L34.4 18H29.7L29.2 20.9C28.2 21.2 27.2 21.6 26.2 22.1L23.8 20.4L20.4 23.7L22 26.1C21.5 27 21 28 20.8 29L18 29.6V34.3L20.9 34.8C21.2 35.8 21.6 36.8 22.1 37.8L20.4 40.2L23.7 43.6L26.1 42C27 42.6 28 43 29 43.2L29.5 46.1H34.2L34.7 43.2C35.7 42.9 36.7 42.5 37.7 42L40.1 43.7L43.5 40.4L41.9 38C42.5 37.1 42.9 36.1 43.1 35.1L46 34.6V29.9L43.1 29.4C42.9 28.1 42.5 27.1 42 26.2ZM44.6 33.2L42 33.7C41.7 35.3 41.1 36.7 40.2 37.9L41.7 40.1L40 41.8L37.8 40.3C36.5 41.2 35.1 41.8 33.6 42L33.1 44.6H30.8L30.3 42C28.8 41.8 27.4 41.2 26.1 40.2L23.9 41.7L22.2 40L23.7 37.8C22.8 36.5 22.2 35.1 22 33.6L19.4 33.1V30.8L22 30.3C22.3 28.8 22.9 27.4 23.8 26.1L22.3 23.9L24 22.3L26.2 23.8C27.3 22.9 28.8 22.4 30.4 22.1L30.9 19.5H33.2L33.7 22.1C35.2 22.4 36.6 23 37.9 23.9L40.1 22.4L41.7 24.1L40.2 26.3C41.1 27.5 41.7 28.9 41.9 30.5L44.5 31L44.6 33.2Z" fill="currentcolor"/>
<path d="M32.0002 24.7C28.0002 24.7 24.7002 28 24.7002 32C24.7002 34 25.4002 35.8 26.8002 37.2C28.2002 38.6 30.0002 39.4 32.0002 39.4C36.0002 39.4 39.3002 36.1 39.3002 32.1C39.4002 28 36.1002 24.7 32.0002 24.7ZM32.0002 37.9C30.4002 37.9 28.9002 37.3 27.8002 36.2C26.7002 35.1 26.1002 33.6 26.1002 32C26.1002 28.8 28.8002 26.1 32.0002 26.1C35.3002 26.1 37.9002 28.8 37.9002 32C37.9002 35.3 35.2002 37.9 32.0002 37.9Z" fill="currentcolor"/>
<path d="M57.3 25.8C56.5 25.8 55.6 26 54.9 26.3L48.4 15C50 13.9 51 12 51 9.99998C51 6.59998 48.2 3.79998 44.9 3.79998C41.7 3.79998 39.1 6.19998 38.8 9.19998H25.4C25 6.09998 22.4 3.79998 19.3 3.79998C15.9 3.79998 13.1 6.59998 13.1 9.99998C13.1 12 14 13.8 15.6 14.9L9.1 26.4C8.3 26.1 7.5 25.9 6.7 25.9C3.3 25.9 0.5 28.7 0.5 32C0.5 35.4 3.3 38.2 6.7 38.2C7.5 38.2 8.4 38 9.1 37.7L15.7 49C14.1 50.1 13.2 52 13.2 53.9C13.2 57.3 16 60.1 19.4 60.1C22.5 60.1 25.1 57.7 25.5 54.7H38.8C39.2 57.8 41.8 60.1 44.9 60.1C48.3 60.1 51 57.3 51 53.9C51 51.9 50 50.1 48.4 48.9L54.9 37.6C55.7 37.9 56.5 38.1 57.3 38.1C60.7 38.1 63.5 35.3 63.5 31.9C63.5 28.6 60.7 25.8 57.3 25.8ZM44.8 5.29998C47.4 5.29998 49.5 7.39998 49.5 9.99998C49.5 11.7 48.6 13.3 47 14.1C46.3 14.5 45.5 14.7 44.7 14.7C42.1 14.7 40 12.6 40 9.99998C40.1 7.49998 42.2 5.29998 44.8 5.29998ZM14.6 10.1C14.6 7.49998 16.7 5.39998 19.3 5.39998C21.9 5.39998 24 7.49998 24 10.1C24 12.7 21.9 14.8 19.3 14.8C18.5 14.8 14.9 14.3 14.6 10.1ZM6.7 36.7C4.1 36.7 2 34.6 2 32C2 29.4 4.1 27.3 6.7 27.3C7.5 27.3 8.3 27.5 9 27.9C10.5 28.7 11.4 30.3 11.4 32C11.4 32.2 11.4 32.4 11.4 32.6C10.4 36.4 7.5 36.7 6.7 36.7ZM19.3 58.7C16.7 58.7 14.6 56.6 14.6 54C14.6 52.3 15.5 50.7 17 49.9C17.7 49.5 18.5 49.3 19.3 49.3C21.9 49.3 24 51.4 24 54C24 56.5 21.9 58.7 19.3 58.7ZM49.5 53.9C49.5 56.5 47.4 58.6 44.8 58.6C42.2 58.6 40.1 56.5 40.1 53.9C40.1 51.3 42.2 49.2 44.8 49.2C45.6 49.2 49.4 49.9 49.5 53.9ZM47.1 48.2C47 48.2 47 48.2 47 48.2C40.5 46.1 38.5 52.9 38.7 53.2H25.4C24.1 46.3 17.4 47.8 17.1 48.2C17.1 48.2 17 48.2 16.9 48.3L10.3 36.9C15.5 32.4 10.8 27.2 10.3 27.1L16.9 15.7C17.1 15.9 23.9 18 25.4 10.7H38.7C38.4 11.6 41 17.9 47 15.7H47.1L53.6 27C53.5 27.1 53.5 27.1 53.4 27.2C51.8 28.3 49.2 32.7 53.6 36.8L47.1 48.2ZM57.3 36.7C50.7 36.4 51.6 27.4 57.3 27.3C59.9 27.3 62 29.4 62 32C62 34.6 59.9 36.7 57.3 36.7Z" fill="currentcolor"/>
</svg>
