<svg viewBox="0 0 64 64" fill="none" xmlns="http://www.w3.org/2000/svg">
<path d="M56.7001 39.7V31.2L51.0001 30.2C50.4001 27.6 49.4001 25.2 48.0001 23L46.8001 23.8C48.2001 26 49.2001 28.4 49.7001 31L49.8001 31.5L55.3001 32.5V38.6L49.8001 39.6C49.2001 42.5 48.1001 45.2 46.4001 47.6L49.6001 52.3L45.3001 56.6L40.7001 53.4C38.1001 55.1 35.4001 56.2 32.7001 56.7L31.7001 62.2H25.6001L24.6001 56.7C21.8001 56.1 19.1001 55 16.6001 53.3L11.9001 56.5L7.6001 52L10.8001 47.4C9.2001 45 8.1001 42.3 7.5001 39.4L2.0001 38.4V32.3L7.5001 31.3C8.0001 28.5 9.2001 25.8 10.9001 23.3L7.7001 18.6L12.0001 14.3L16.6001 17.5C18.9001 15.9 21.6001 14.8 24.6001 14.2L25.6001 8.7H31.7001L32.7001 14.2C32.8001 14 38.2001 15.6 40.3001 17.3L41.1001 16.1C38.9001 14.7 36.5001 13.6 34.0001 13L33.0001 7.2H24.5001L23.5001 13C21.1001 13.5 18.8001 14.5 16.7001 15.8L11.9001 12.4L5.9001 18.3L9.2001 23.2C7.9001 25.3 7.0001 27.5 6.4001 29.9L0.600098 30.9V39.4L6.4001 40.5C6.9001 42.9 7.9001 45.1 9.2001 47.3L5.8001 52.1L11.8001 58.1L16.7001 54.8C18.8001 56.1 21.1001 57.1 23.4001 57.6L24.4001 63.4H32.9001L34.0001 57.6C36.4001 57 38.7001 56.1 40.8001 54.8L45.6001 58.2L51.6001 52.2L48.3001 47.3C49.6001 45.2 50.6001 43 51.1001 40.6L56.7001 39.7Z" fill="currentcolor"/>
<path d="M29.2999 11.8H27.8999V25.3H29.2999V11.8Z" fill="currentcolor"/>
<path d="M29.2999 45.5H27.8999V59H29.2999V45.5Z" fill="currentcolor"/>
<path d="M52.2002 34.7H38.7002V36.1H52.2002V34.7Z" fill="currentcolor"/>
<path d="M18.5 34.7H5V36.1H18.5V34.7Z" fill="currentcolor"/>
<path d="M26.7 21.3C20.3 22.1 15.3 27.2 14.5 33.5L15.9 33.7C16.7 28 21.2 23.5 26.9 22.7L26.7 21.3Z" fill="currentcolor"/>
<path d="M30.3003 48.1L30.5003 49.5C36.9003 48.7 41.9003 43.6 42.8003 37.2L41.3003 37C40.6003 42.8 36.0003 47.3 30.3003 48.1Z" fill="currentcolor"/>
<path d="M26.7 49.5L26.9 48.1C21.2 47.3 16.6 42.8 15.9 37.1L14.5 37.3C15.3 43.6 20.3 48.7 26.7 49.5Z" fill="currentcolor"/>
<path d="M63.4001 7.49999C63.3001 7.19999 63.0001 7.09999 62.8001 6.99999L57.2001 6.79999L57.0001 1.19999C57.0001 0.899991 56.8001 0.699991 56.5001 0.599991C56.2001 0.499991 55.9001 0.599991 55.7001 0.799991L47.2001 9.29999C47.0001 9.39999 46.9001 9.59999 47.0001 9.79999L47.3001 15.8L38.2001 24.9C36.1001 23 33.5001 21.7 30.5001 21.3L30.3001 22.7C32.9001 23 35.3001 24.2 37.1001 25.9L31.9001 31.1C31.0001 30.4 29.8001 30 28.6001 30C25.6001 30 23.1001 32.5 23.1001 35.5C23.1001 38.5 25.6001 41 28.6001 41C31.6001 41 34.1001 38.5 34.1001 35.5C34.1001 34.3 33.7001 33.1 33.0001 32.2L38.2001 27C39.9001 28.9 41.0001 31.2 41.3001 33.8L42.7001 33.6C42.3001 30.7 41.0001 28.1 39.1001 26L48.2001 16.9L54.2001 17.2C54.4001 17.2 54.6001 17.1 54.7001 17L63.2001 8.49999C63.5001 8.09999 63.5001 7.79999 63.4001 7.49999ZM32.6001 35.4C32.6001 37.6 30.8001 39.4 28.6001 39.4C26.4001 39.4 24.6001 37.6 24.6001 35.4C24.6001 33.2 26.4001 31.4 28.6001 31.4C29.5001 31.4 30.2001 31.7 30.9001 32.1L28.1001 34.9C27.8001 35.2 27.8001 35.6 28.1001 35.9C28.2001 36 28.4001 36.1 28.6001 36.1C28.8001 36.1 29.0001 36 29.1001 35.9L31.9001 33.1C32.4001 33.8 32.6001 34.5 32.6001 35.4ZM54.0001 15.6L48.7001 15.4L48.4001 9.99999L55.5001 2.89999L55.7001 7.59999C55.7001 7.99999 56.0001 8.29999 56.4001 8.29999L61.1001 8.49999L54.0001 15.6Z" fill="currentcolor"/>
</svg>
