<svg viewBox="0 0 64 64" fill="none" xmlns="http://www.w3.org/2000/svg">
<path d="M60.1 46.4V14.2C60.1 12.7 58.9 11.6 57.5 11.6H6.6C5.1 11.6 4 12.8 4 14.2V46.4H0.5V48.8L3.2 52.5H60.9L63.6 48.8V46.4H60.1ZM5.4 14.2C5.4 13.5 5.9 13 6.6 13H57.5C58.2 13 58.7 13.5 58.7 14.2V46.4H5.4V14.2ZM62 48.3L60 51H3.9L1.9 48.3V47.8H3.9H60.1H62.1V48.3H62Z" fill="currentcolor"/>
<path d="M29.2998 24.5C31.4998 24.5 33.2998 22.7 33.2998 20.5C33.2998 18.3 31.4998 16.5 29.2998 16.5C27.0998 16.5 25.2998 18.3 25.2998 20.5C25.2998 22.7 27.0998 24.5 29.2998 24.5ZM29.2998 18C30.6998 18 31.7998 19.1 31.7998 20.5C31.7998 21.9 30.6998 23 29.2998 23C27.8998 23 26.7998 21.9 26.7998 20.5C26.7998 19.2 27.8998 18 29.2998 18Z" fill="currentcolor"/>
<path d="M37.5 33.6C37.4 31.3 37.2 29 37.1 29C37.1 28.3 36.9 27.7 36.5 27C36.1 26.3 35.5 25.8 34.7 25.5L31.9 24.5L29.6 28.9H29.2L26.9 24.5L24.1 25.5C23.7 25.7 23.3 25.9 22.9 26.2C22.6 25.9 22.2 25.6 21.7 25.5L18.9 24.5L16.6 28.9H16L13.7 24.5L10.9 25.5C10 25.8 9.4 26.3 9 27C8.6 27.7 8.4 28.3 8.4 28.9C8.4 28.9 8.1 31.3 8 33.6V34.3H37.5V33.6ZM9.5 32.9C9.6 30.9 9.8 29.1 9.8 29C9.8 28.5 10 28 10.2 27.7C10.4 27.3 10.8 27 11.3 26.8L13 26.2L15.2 30.2H17.3L19.5 26.2L21.2 26.8C21.7 27 22 27.3 22.2 27.6V27.7C22.8 28.4 22.9 32.7 22.9 32.9H9.5ZM24.3 32.9C24.4 32.7 24 27.8 23.6 27.4C23.8 27.2 24.1 27 24.4 26.9L26.1 26.3L28.3 30.3H30.4L32.6 26.3L34.3 26.9C34.8 27.1 35.1 27.4 35.4 27.8C35.6 28.1 35.8 28.6 35.8 29.2C35.8 29.2 36 31 36.1 33H24.3V32.9Z" fill="currentcolor"/>
<path d="M16.2002 24.5C18.4002 24.5 20.2002 22.7 20.2002 20.5C20.2002 18.3 18.4002 16.5 16.2002 16.5C14.0002 16.5 12.2002 18.3 12.2002 20.5C12.2002 22.7 14.0002 24.5 16.2002 24.5ZM16.2002 18C17.6002 18 18.7002 19.1 18.7002 20.5C18.7002 21.9 17.6002 23 16.2002 23C14.8002 23 13.7002 21.9 13.7002 20.5C13.7002 19.2 14.8002 18 16.2002 18Z" fill="currentcolor"/>
<path d="M41.1001 33.6H55.0001V26.9H41.1001V33.6ZM42.5001 28.4H53.6001V32.2H42.5001V28.4Z" fill="currentcolor"/>
<path d="M55.0001 22.4H41.1001V23.8H55.0001V22.4Z" fill="currentcolor"/>
<path d="M55.0001 18.7H45.1001V20.1H55.0001V18.7Z" fill="currentcolor"/>
<path d="M8.7998 43.4H18.5998V36.7H8.7998V43.4ZM10.1998 38.2H17.0998V42H10.1998V38.2Z" fill="currentcolor"/>
<path d="M20.8999 43.4H30.6999V36.7H20.8999V43.4ZM22.3999 38.2H29.2999V42H22.3999V38.2Z" fill="currentcolor"/>
<path d="M33.1001 43.4H42.9001V36.7H33.1001V43.4ZM34.5001 38.2H41.4001V42H34.5001V38.2Z" fill="currentcolor"/>
<path d="M45.2002 43.4H55.0002V36.7H45.2002V43.4ZM46.7002 38.2H53.6002V42H46.7002V38.2Z" fill="currentcolor"/>
</svg>
