<svg viewBox="0 0 64 64" fill="none" xmlns="http://www.w3.org/2000/svg">
<path d="M48.0998 19.4V3.70005C48.0998 2.10005 46.7998 0.800049 45.1998 0.800049H10.1998C8.5998 0.800049 7.2998 2.10005 7.2998 3.70005V60.3C7.2998 61.9 8.5998 63.2001 10.1998 63.2001H45.2998C46.8998 63.2001 48.1998 61.9 48.1998 60.3V41.1C55.4998 34.2 56.5998 22.8001 56.6998 22.2001L56.7998 21.5C56.6998 21.5 52.0998 21.1 48.0998 19.4ZM8.6998 3.70005C8.6998 2.90005 9.2998 2.30005 10.0998 2.30005H45.1998C45.9998 2.30005 46.5998 2.90005 46.5998 3.70005V8.70005H8.5998V3.70005H8.6998ZM46.6998 60.3C46.6998 61.1 46.0998 61.7001 45.2998 61.7001H10.1998C9.3998 61.7001 8.7998 61.1 8.7998 60.3V56.4001H46.7998V60.3H46.6998ZM46.6998 55H8.6998V10.1H46.6998V18.8C43.8998 17.5 42.6998 16.1 42.6998 16.1L42.1998 15.5L41.6998 16.1C35.9998 20.9 27.7998 21.6 27.6998 21.5L27.7998 22.2001C27.8998 22.9001 29.8998 39.4 41.9998 44.8L42.2998 44.9001L42.5998 44.8C44.1998 44.1 45.5998 43.3 46.8998 42.3V55H46.6998ZM42.1998 43.3C32.3998 38.8 29.7998 25.8001 29.2998 22.7001C36.8998 21.6 40.8998 18.7001 42.1998 17.5C43.4998 18.7001 47.4998 21.6 55.0998 22.7001C54.6998 25.9001 52.1998 39 42.1998 43.3Z" fill="currentcolor"/>
<path d="M39.1996 25.7V27.4H38.7996C37.8996 27.4 37.0996 28.1 37.0996 29.1V33.5C37.0996 34.4 37.7996 35.2 38.7996 35.2H45.5996C46.4996 35.2 47.2996 34.5 47.2996 33.5V29.1C47.2996 28.2 46.5996 27.4 45.5996 27.4H45.1996V25.7C45.1996 24.1 43.8996 22.7 42.1996 22.7C40.4996 22.7 39.1996 24.1 39.1996 25.7ZM45.7996 29.1V33.5C45.7996 33.6 45.6996 33.7 45.5996 33.7H38.7996C38.6996 33.7 38.5996 33.6 38.5996 33.5V29.1C38.5996 29 38.6996 28.9 38.7996 28.9H45.5996C45.6996 28.9 45.7996 29 45.7996 29.1ZM43.6996 25.7V27.4H40.5996V25.7C40.5996 24.8 41.2996 24.1 42.1996 24.1C42.9996 24.2 43.6996 24.9 43.6996 25.7Z" fill="currentcolor"/>
<path d="M32.9 58.1H24V59.5H32.9V58.1Z" fill="currentcolor"/>
<path d="M29.4996 4.80005H20.5996V6.20005H29.4996V4.80005Z" fill="currentcolor"/>
<path d="M32.6998 4.80005H31.2998V6.20005H32.6998V4.80005Z" fill="currentcolor"/>
<path d="M35.5997 4.80005H34.1997V6.20005H35.5997V4.80005Z" fill="currentcolor"/>
</svg>
