<svg viewBox="0 0 64 64" fill="none" xmlns="http://www.w3.org/2000/svg">
<path d="M28.0998 14C27.6998 14.7 27.4998 15.6 27.4998 16.4H28.8998C28.8998 15.6 29.0998 14.9 29.4998 14.3C29.5998 14.1 29.7998 13.9 29.9998 13.7C30.6998 13 31.6998 12.6 32.6998 12.6C33.6998 12.6 34.6998 13 35.3998 13.7C36.0998 14.4 36.4998 15.4 36.4998 16.4C36.4998 17.4 36.0998 18.4 35.3998 19.1L36.3998 20.1C36.6998 19.8 36.9998 19.4 37.1998 19.1L37.2998 19.2C38.6998 17.8 41.2998 17.8 42.6998 19.2C43.3998 19.9 43.7998 20.9 43.7998 21.9C43.7998 22.9 43.3998 23.9 42.6998 24.6L42.4998 24.9L42.5998 25.9H43.1998C44.3998 25.9 45.3998 26.3 46.1998 27.2C46.9998 28 47.4998 29.1 47.4998 30.3H48.8998C48.8998 28.7 48.2998 27.3 47.1998 26.2C46.3998 25.4 45.4998 24.9 44.4998 24.7C44.9998 23.9 45.1998 23 45.1998 22C45.1998 20.6 44.6998 19.3 43.6998 18.3C42.6998 17.3 41.3998 16.8 39.9998 16.8C39.2998 16.8 38.5998 16.9 37.8998 17.2C37.8998 17 37.9998 16.8 37.9998 16.6C37.9998 15.2 37.4998 13.9 36.4998 12.9C35.4998 11.9 34.1998 11.4 32.7998 11.4C31.4998 11.4 30.2998 11.9 29.2998 12.8C28.9998 12.1 28.5998 11.4 28.0998 10.9C27.0998 9.89999 25.7998 9.39999 24.3998 9.39999C22.9998 9.39999 21.6998 9.89999 20.6998 10.9C20.0998 11.5 19.6998 12.2 19.4998 12.9C18.5998 12.2 17.4998 11.8 16.2998 11.8C14.8998 11.8 13.5998 12.3 12.5998 13.3C11.5998 14.3 11.0998 15.6 11.0998 17C11.0998 17.2 11.0998 17.3 11.0998 17.5C10.4998 17.2 9.7998 17.1 9.0998 17.1C7.6998 17.1 6.3998 17.6 5.3998 18.6C4.3998 19.6 3.8998 20.9 3.8998 22.3C3.8998 23.3 4.1998 24.2 4.6998 25C3.7998 25.3 3.0998 25.7 2.3998 26.4C1.3998 27.4 0.799805 28.8 0.799805 30.3C0.799805 31.8 1.3998 33.1 2.3998 34.2C2.8998 34.7 3.3998 35 3.9998 35.3C2.4998 36.4 1.4998 38.2 1.6998 40.3C1.9998 43 4.3998 45.2 7.1998 45.2C7.7998 45.4 11.3998 46.6 11.5998 51.8L12.9998 51.7C12.7998 45.1 7.4998 43.8 7.4998 43.8H7.2998C5.0998 43.8 3.2998 42.2 3.0998 40.2C2.8998 38.1 4.2998 36.2 6.3998 35.9C7.3998 35.9 8.2998 35.6 9.1998 35L8.3998 33.8C6.8998 34.8 4.6998 34.6 3.3998 33.3C2.3998 32 1.9998 31 1.9998 30C1.9998 28.9 2.3998 27.9 3.1998 27.2C3.7998 26.4 4.6998 26 5.6998 26H6.3998V25L6.1998 24.8C5.4998 24 5.0998 23 5.0998 22C5.0998 21 5.4998 20 6.1998 19.3C7.5998 17.9 10.1998 17.9 11.5998 19.3C11.7998 19.7 12.0998 20.1 12.3998 20.4L13.3998 19.4C12.6998 18.7 12.2998 17.7 12.2998 16.7C12.2998 15.7 12.6998 14.7 13.3998 14C14.7998 12.6 17.3998 12.6 18.7998 14C18.8998 14.1 18.8998 14.2 18.9998 14.3C19.5998 15 19.8998 15.8 19.8998 16.7H21.2998C21.2998 15.7 20.9998 14.7 20.4998 13.8C20.5998 13 20.9998 12.2 21.5998 11.6C22.2998 10.9 23.2998 10.5 24.2998 10.5C25.2998 10.5 26.2998 10.9 26.9998 11.6C27.5998 12.2 27.9998 13.1 28.0998 14Z" fill="currentcolor"/>
<path d="M17.7999 25L17.4999 23.6C12.1999 24.8 12.2999 29.4 12.2999 29.4L13.6999 29.3C13.6999 29.2 13.5999 26 17.7999 25Z" fill="currentcolor"/>
<path d="M28.4 25.7L27.6 24.5C24.9 26.2 25 28.7 25.4 29.8L26.7 29.3C26.7 29.1 26 27.2 28.4 25.7Z" fill="currentcolor"/>
<path d="M30.5 19.9C30.5 19.9 33.1 20.7 33.4 23.2L34.8 23C34.4 19.6 31 18.5 30.9 18.5L30.5 19.9Z" fill="currentcolor"/>
<path d="M20.2 38.2V46.6H21.6V38.2C21.6 36.3 21 34.9 19.9 34C18 32.5 15.2 33.1 15 33.1L15.3 34.5C15.3 34.5 17.6 34 18.9 35.1C19.8 35.8 20.2 36.8 20.2 38.2Z" fill="currentcolor"/>
<path d="M56.3997 40.8C55.6997 40.8 54.8997 40.9 54.2997 41.1C53.7997 37.7 50.7997 35.1 47.2997 35.1C44.7997 35.1 42.5997 36.3 41.2997 38.4C40.4997 37.9 39.1997 37.3 37.6997 37.5C35.7997 37.5 33.9997 38.2 32.5997 39.6C31.3997 40.8 30.6997 42.4 30.4997 44.1C28.6997 44.5 26.1997 46 26.1997 49.5C26.1997 52.6 28.6997 55.1 31.7997 55.1H56.3997C60.2997 55.1 63.4997 51.9 63.4997 48C63.4997 44 60.2997 40.8 56.3997 40.8ZM56.3997 53.5H31.7997C29.4997 53.5 27.6997 51.7 27.6997 49.4C27.6997 45.7 31.1997 45.3 31.2997 45.3L31.8997 45.2V44.6C31.8997 43.1 32.4997 41.6 33.5997 40.5C34.6997 39.4 36.0997 38.8 37.6997 38.8C37.7997 38.8 37.8997 38.8 38.0997 38.8C39.6997 38.8 40.9997 39.9 40.9997 39.9L41.6997 40.5L42.0997 39.7C43.0997 37.7 44.9997 36.5 47.1997 36.5C50.2997 36.5 52.7997 39 52.7997 42.1C52.7997 42.7 52.6997 43.3 52.4997 43.9L53.8997 44.3C54.0997 43.7 54.1997 43.1 54.1997 42.5C54.8997 42.2 55.5997 42.1 56.2997 42.1C59.3997 42.1 61.8997 44.6 61.8997 47.7C61.9997 51 59.4997 53.5 56.3997 53.5Z" fill="currentcolor"/>
</svg>
