<svg viewBox="0 0 64 64" fill="none" xmlns="http://www.w3.org/2000/svg">
<path d="M32 39.8C30.9 39.8 29.8 39.4 29 38.7C28.2 38 27.8 37.2 27.8 36.2H26.3C26.3 37.6 26.9 38.8 28 39.8C28.9 40.6 30.0001 41 31.2001 41.2V45H32.7001V41.2C33.9001 41.1 35.0001 40.6 35.9001 39.8C37.0001 38.9 37.6 37.6 37.6 36.2C37.6 34.8 37.0001 33.6 35.9001 32.6C34.8001 31.7 33.4 31.2 31.9 31.2C30.8 31.2 29.7 30.8 28.9 30.1C28.1 29.4 27.7001 28.6 27.7001 27.6C27.7001 26.7 28.1 25.8 28.9 25.1C29.7 24.4 30.8 24 31.9 24C33 24 34.1001 24.4 34.9001 25.1C35.7001 25.8 36.1 26.6 36.1 27.6H37.6C37.6 26.2 37.0001 25 35.9001 24C35.0001 23.2 33.9001 22.8 32.7001 22.6V19H31.2001V22.8C30.0001 22.9 28.9 23.4 28 24.2C26.9 25.1 26.3 26.4 26.3 27.8C26.3 29.2 26.9 30.4 28 31.4C29.1 32.3 30.5 32.8 32 32.8C33.1 32.8 34.2 33.2 35 33.9C35.8 34.6 36.2001 35.4 36.2001 36.4C36.2001 37.3 35.8 38.2 35 38.9C34.2 39.4 33.1 39.8 32 39.8Z" fill="currentcolor"/>
<path d="M10.3 55.6C16.3 61 23.9 64 32 64C40.1 64 47.7 61 53.7 55.6C60.2 49.5 64 40.9 64 32C64 23.1 60.2 14.5 53.7 8.4C47.8 3 40.1 0 32.1 0H32H31.9C23.9 0 16.2 3 10.3 8.4C3.8 14.5 0 23.1 0 32C0 40.9 3.8 49.5 10.3 55.6ZM2.7 40.7H7.6C9.5 49 13.9 55.9 19.8 60C16.7 58.7 13.9 56.8 11.4 54.5C7.3 50.7 4.3 45.9 2.7 40.7ZM8.2 32C8.2 29.5 8.4 27.1 8.9 24.8H15.7C14.7 27 14.2 29.5 14.2 32C14.2 34.6 14.8 37 15.7 39.2H8.9C8.4 36.9 8.2 34.5 8.2 32ZM55.8 32C55.8 34.5 55.6 36.9 55.1 39.2H48.3C49.3 37 49.8 34.5 49.8 32C49.8 29.4 49.2 27 48.3 24.8H55.1C55.6 27.1 55.8 29.5 55.8 32ZM32.7 1.5C38.7 2.1 44 10 46.2 21.2C43.1 17.1 38.2 14.4 32.7 14.1V1.5ZM31.3 1.5V14.2C25.8 14.4 21 17.1 17.8 21.2C19.9 10 25.3 2.1 31.3 1.5ZM32 15.6C41 15.6 48.4 23 48.4 32C48.4 41 41 48.4 32 48.4C23 48.4 15.6 41 15.6 32C15.6 23 23 15.6 32 15.6ZM32.7 62.5V49.8C38.2 49.6 43.1 46.9 46.2 42.7C44.1 54 38.7 61.9 32.7 62.5ZM31.3 49.8V62.5C25.3 61.9 20 54 17.8 42.8C20.9 46.9 25.8 49.6 31.3 49.8ZM48 40.7H54.8C52.5 50.5 46.5 58.3 38.8 61.3C43.2 57.5 46.7 50.1 48 40.7ZM48 23.3C46.6 13.9 43.2 6.5 38.8 2.7C46.5 5.6 52.5 13.4 54.8 23.3H48ZM16 23.3H9.2C11.5 13.5 17.5 5.7 25.2 2.7C20.8 6.5 17.3 13.9 16 23.3ZM16 40.7C17.4 50.1 20.8 57.5 25.3 61.3C17.6 58.4 11.6 50.6 9.3 40.7H16ZM52.7 54.5C50.2 56.8 47.3 58.7 44.3 60C50.1 55.9 54.5 49 56.4 40.7H61.4C59.7 45.9 56.7 50.7 52.7 54.5ZM61.7 39.2H56.6C57 36.9 57.3 34.5 57.3 32C57.3 29.5 57.1 27.1 56.6 24.8H61.7C62.3 27.1 62.6 29.6 62.6 32C62.5 34.5 62.2 36.9 61.7 39.2ZM61.3 23.3H56.3C54.5 15 50 8.1 44.2 4C47.3 5.3 50.1 7.2 52.6 9.5C56.7 13.3 59.7 18.1 61.3 23.3ZM11.3 9.5C13.8 7.2 16.7 5.3 19.7 4C13.9 8.1 9.5 15 7.7 23.3H2.7C4.3 18.1 7.3 13.3 11.3 9.5ZM2.3 24.8H7.3C7 27.1 6.7 29.5 6.7 32C6.7 34.5 6.9 36.9 7.4 39.2H2.4C1.8 36.9 1.5 34.4 1.5 32C1.5 29.5 1.8 27.1 2.3 24.8Z" fill="currentcolor"/>
</svg>
