<svg viewBox="0 0 64 64" fill="none" xmlns="http://www.w3.org/2000/svg">
<path d="M53.3002 26.3C53.2002 25.2 52.9002 24 52.4002 22.7L51.1002 23.2C51.5002 24.3 51.8002 25.4 51.9002 26.3V30.8L56.4002 41.1H52.6002V49.3C52.6002 49.9 52.4002 50.5 52.0002 50.9C51.6002 51.3 51.0002 51.5 50.4002 51.5H43.7002V59.8H45.1002V52.9H50.3002C51.3002 53 52.3002 52.6 53.0002 51.9C53.7002 51.2 54.1002 50.2 54.1002 49.2V42.5H58.7002L53.4002 30.5L53.3002 26.3Z" fill="currentcolor"/>
<path d="M22.1003 63V59.7C22.1003 53.9 19.3003 49.4 16.9003 45.4C15.6003 43.3 14.4003 41.3 13.7003 39.4C11.6003 33.5 11.5003 28.1 13.5003 23.3L12.2003 22.8C10.1003 27.9 10.1003 33.7 12.4003 39.9C13.2003 42 14.4003 44 15.7003 46.2C18.2003 50.2 20.7003 54.4 20.7003 59.8V63H22.1003Z" fill="currentcolor"/>
<path d="M56.0001 1C53.9001 1 52.1001 2.7 52.1001 4.9C52.1001 6.8 53.5001 8.4 55.2001 8.7V16.7H32.7001V8.7C34.5001 8.4 35.8001 6.8 35.8001 4.9C35.9001 2.8 34.1001 1 32.0001 1C29.9001 1 28.1001 2.7 28.1001 4.9C28.1001 6.8 29.5001 8.4 31.2001 8.7V16.7H8.7001V8.7C10.5001 8.4 11.8001 6.8 11.8001 4.9C11.9001 2.8 10.1001 1 8.0001 1C5.9001 1 4.1001 2.8 4.1001 4.9C4.1001 6.8 5.5001 8.4 7.2001 8.7V18.1H31.2001V28.6H32.6001V18.1H56.6001V8.7C58.4001 8.4 59.7001 6.8 59.7001 4.9C59.9001 2.8 58.1001 1 56.0001 1ZM29.6001 4.9C29.6001 3.6 30.7001 2.5 32.0001 2.5C33.3001 2.5 34.4001 3.6 34.4001 4.9C34.4001 6.2 33.3001 7.3 32.0001 7.3C30.7001 7.3 29.6001 6.2 29.6001 4.9ZM5.6001 4.9C5.6001 3.6 6.7001 2.5 8.0001 2.5C9.3001 2.5 10.4001 3.6 10.4001 4.9C10.4001 6.2 9.3001 7.3 8.0001 7.3C6.7001 7.3 5.6001 6.2 5.6001 4.9ZM56.0001 7.3C54.7001 7.3 53.6001 6.2 53.6001 4.9C53.6001 3.6 54.7001 2.5 56.0001 2.5C57.3001 2.5 58.4001 3.6 58.4001 4.9C58.4001 6.2 57.3001 7.3 56.0001 7.3Z" fill="currentcolor"/>
</svg>
