<svg viewBox="0 0 64 64" fill="none" xmlns="http://www.w3.org/2000/svg">
<path d="M32.9996 9.5H31.5996V10.9H32.9996V9.5Z" fill="currentcolor"/>
<path d="M32.9996 17.1H31.5996V18.5H32.9996V17.1Z" fill="currentcolor"/>
<path d="M32.9996 13.3H31.5996V14.7H32.9996V13.3Z" fill="currentcolor"/>
<path d="M32.3 7.6C34.1 7.6 35.6 6.1 35.6 4.3C35.6 2.5 34.1 1 32.3 1C30.4 1 29 2.5 29 4.3C29 6.1 30.4 7.6 32.3 7.6ZM32.3 2.4C33.3 2.4 34.2 3.2 34.2 4.3C34.2 5.4 33.4 6.2 32.3 6.2C31.3 6.2 30.4 5.4 30.4 4.3C30.4 3.2 31.2 2.4 32.3 2.4Z" fill="currentcolor"/>
<path d="M24.3247 16.8193L25.5371 16.1192L24.837 14.9068L23.6246 15.6069L24.3247 16.8193Z" fill="currentcolor"/>
<path d="M26.2598 20.1422L27.4722 19.4421L26.772 18.2297L25.5596 18.9298L26.2598 20.1422Z" fill="currentcolor"/>
<path d="M21.7476 12.3429L22.4478 13.5553L23.6602 12.8552L22.96 11.6428L21.7476 12.3429Z" fill="currentcolor"/>
<path d="M21.3999 10.4C22.9999 9.50001 23.4999 7.50001 22.5999 5.90001C21.9999 4.90001 20.8999 4.20001 19.6999 4.20001C19.0999 4.20001 18.4999 4.40001 17.9999 4.60001C16.3999 5.50001 15.8999 7.50001 16.7999 9.10001C17.3999 10.1 18.4999 10.8 19.6999 10.8C20.3999 10.8 20.8999 10.7 21.3999 10.4ZM18.0999 8.50001C17.5999 7.60001 17.8999 6.40001 18.7999 5.90001C19.0999 5.70001 19.3999 5.60001 19.6999 5.60001C20.3999 5.60001 20.9999 6.00001 21.2999 6.50001C21.7999 7.40001 21.4999 8.60001 20.5999 9.10001C19.7999 9.70001 18.5999 9.30001 18.0999 8.50001Z" fill="currentcolor"/>
<path d="M23.1528 23.0348L21.9404 22.3348L21.2404 23.5472L22.4528 24.2472L23.1528 23.0348Z" fill="currentcolor"/>
<path d="M16.5488 19.2322L15.3364 18.5322L14.6364 19.7446L15.8488 20.4446L16.5488 19.2322Z" fill="currentcolor"/>
<path d="M18.666 20.4282L17.9658 21.6406L19.1782 22.3407L19.8784 21.1283L18.666 20.4282Z" fill="currentcolor"/>
<path d="M8.89982 19.4C9.39982 19.7 9.99982 19.8 10.5998 19.8C11.7998 19.8 12.8998 19.2 13.4998 18.1C13.8998 17.3 14.0998 16.4 13.7998 15.6C13.5998 14.7 12.9998 14 12.2998 13.6C11.7998 13.3 11.1998 13.2 10.5998 13.2C9.39982 13.2 8.29982 13.8 7.69982 14.9C7.29982 15.7 7.09982 16.6 7.39982 17.4C7.59982 18.3 8.09982 19 8.89982 19.4ZM8.89982 15.6C9.19982 15 9.89982 14.7 10.4998 14.7C10.7998 14.7 11.1998 14.8 11.3998 15C11.7998 15.3 12.0998 15.7 12.2998 16.1C12.3998 16.6 12.3998 17.1 12.0998 17.5C11.5998 18.4 10.3998 18.7 9.49982 18.2C9.09982 17.9 8.79982 17.5 8.59982 17.1C8.59982 16.5 8.69982 16 8.89982 15.6Z" fill="currentcolor"/>
<path d="M17.4 28.3H16V29.7H17.4V28.3Z" fill="currentcolor"/>
<path d="M13.5997 28.3H12.1997V29.7H13.5997V28.3Z" fill="currentcolor"/>
<path d="M21.1998 28.3H19.7998V29.7H21.1998V28.3Z" fill="currentcolor"/>
<path d="M7.0998 25.7C5.2998 25.7 3.7998 27.2 3.7998 29C3.7998 30.8 5.2998 32.3 7.0998 32.3C8.8998 32.3 10.3998 30.8 10.3998 29C10.3998 27.2 8.8998 25.7 7.0998 25.7ZM7.0998 30.9C6.0998 30.9 5.1998 30.1 5.1998 29C5.1998 27.9 5.9998 27.1 7.0998 27.1C8.1998 27.1 8.9998 27.9 8.9998 29C8.9998 30.1 8.0998 30.9 7.0998 30.9Z" fill="currentcolor"/>
<path d="M51.7999 28.8H50.3999V30.2H51.7999V28.8Z" fill="currentcolor"/>
<path d="M47.9996 28.8H46.5996V30.2H47.9996V28.8Z" fill="currentcolor"/>
<path d="M44.0997 28.8H42.6997V30.2H44.0997V28.8Z" fill="currentcolor"/>
<path d="M56.8996 26.2C55.0996 26.2 53.5996 27.7 53.5996 29.5C53.5996 31.3 55.0996 32.8 56.8996 32.8C58.6996 32.8 60.1996 31.3 60.1996 29.5C60.2996 27.7 58.7996 26.2 56.8996 26.2ZM56.8996 31.4C55.8996 31.4 54.9996 30.6 54.9996 29.5C54.9996 28.4 55.7996 27.6 56.8996 27.6C57.8996 27.6 58.7996 28.4 58.7996 29.5C58.7996 30.6 57.9996 31.4 56.8996 31.4Z" fill="currentcolor"/>
<path d="M45.138 22.8698L46.3506 22.1699L45.6507 20.9574L44.4382 21.6572L45.138 22.8698Z" fill="currentcolor"/>
<path d="M47.7681 19.7407L48.4683 20.9531L49.6807 20.2529L48.9805 19.0405L47.7681 19.7407Z" fill="currentcolor"/>
<path d="M42.2803 22.8719L41.0679 23.5721L41.768 24.7845L42.9804 24.0843L42.2803 22.8719Z" fill="currentcolor"/>
<path d="M53.6999 20.3C54.2999 20.3 54.8999 20.1 55.3999 19.9C56.9999 19 57.4999 17 56.5999 15.4C55.9999 14.4 54.8999 13.7 53.6999 13.7C53.0999 13.7 52.4999 13.9 51.9999 14.1C50.3999 15 49.8999 17 50.7999 18.6C51.4999 19.7 52.5999 20.3 53.6999 20.3ZM52.7999 15.4C53.0999 15.2 53.3999 15.1 53.6999 15.1C54.3999 15.1 54.9999 15.5 55.2999 16C55.7999 16.9 55.4999 18.1 54.5999 18.6C53.6999 19.1 52.4999 18.8 51.9999 17.9C51.5999 17.1 51.8999 15.9 52.7999 15.4Z" fill="currentcolor"/>
<path d="M40.8833 15.8594L39.6709 15.1592L38.9708 16.3716L40.1832 17.0718L40.8833 15.8594Z" fill="currentcolor"/>
<path d="M38.9395 19.2554L37.7271 18.5553L37.0269 19.7677L38.2393 20.4678L38.9395 19.2554Z" fill="currentcolor"/>
<path d="M42.7427 12.6517L41.5303 11.9516L40.8301 13.164L42.0425 13.8641L42.7427 12.6517Z" fill="currentcolor"/>
<path d="M43.1 10.7C43.6 11 44.2 11.1 44.8 11.1C46 11.1 47.1 10.5 47.7 9.4C48.1 8.6 48.3 7.7 48 6.9C47.8 6 47.2 5.3 46.5 4.9C46 4.6 45.4 4.5 44.8 4.5C43.6 4.5 42.5 5.1 41.9 6.2C41.5 7 41.3 7.9 41.6 8.7C41.7 9.5 42.3 10.2 43.1 10.7ZM43.1 6.9C43.4 6.3 44.1 6 44.7 6C45 6 45.4 6.1 45.6 6.3C46 6.6 46.3 7 46.5 7.4C46.6 7.9 46.6 8.4 46.3 8.8C45.8 9.7 44.6 10 43.7 9.5C43.3 9.2 43 8.8 42.8 8.4C42.8 7.8 42.8 7.3 43.1 6.9Z" fill="currentcolor"/>
<path d="M44.1996 46.6V42.8C44.1996 41.5 43.0996 40.4 41.7996 40.4C41.3996 40.4 41.0996 40.5 40.7996 40.6C40.4996 39.6 39.5996 38.9 38.4996 38.9C37.9996 38.9 37.5996 39 37.1996 39.3C36.7996 38.6 35.9996 38.2 35.1996 38.2C34.8996 38.2 34.5996 38.3 34.2996 38.4V37.4C37.8996 36.4 40.3996 33.1 40.3996 29.3C40.3996 24.6 36.5996 20.9 31.9996 20.9C27.3996 20.9 23.5996 24.7 23.5996 29.3C23.5996 33 26.0996 36.4 29.6996 37.4V44C29.3996 43.9 29.0996 43.8 28.7996 43.8C27.4996 43.8 26.3996 44.9 26.3996 46.2V46.3V50.6V50.8C26.4996 52.4 27.2996 53.9 28.5996 54.8C29.2996 55.3 29.6996 56.1 29.6996 56.9V57.7L29.5996 57.8C29.1996 58.2 28.9996 58.7 29.0996 59.3C29.1996 60.5 29.1996 61.8 29.1996 63H30.5996C30.5996 61.8 30.4996 60.5 30.4996 59.2C30.4996 59 30.4996 58.9 30.5996 58.8C30.6996 58.7 30.6996 58.7 30.7996 58.7H40.7996C40.8996 58.7 40.8996 58.7 40.9996 58.8C41.0996 58.9 41.0996 59.1 41.0996 59.2C41.0996 59.7 40.9996 60.1 40.9996 60.4C40.8996 61.2 40.8996 61.7 40.8996 63H42.2996C42.2996 61.7 42.2996 61.3 42.3996 60.5C42.3996 60.2 42.4996 59.8 42.4996 59.3C42.4996 58.8 42.3996 58.3 42.0996 58C42.0996 57.7 42.1996 56.8 42.4996 56.3C42.5996 56.1 42.6996 56 42.7996 55.9C43.1996 55.2 43.6996 54.3 44.0996 52.6C44.4996 50.7 44.2996 46.9 44.1996 46.6ZM24.9996 29.3C24.9996 25.4 28.0996 22.3 31.9996 22.3C35.8996 22.3 38.9996 25.4 38.9996 29.3C38.9996 32.3 37.0996 34.9 34.3996 35.9V35.3C34.3996 34 33.2996 32.9 31.9996 32.9C30.6996 32.9 29.5996 34 29.5996 35.3V35.9C26.8996 34.8 24.9996 32.2 24.9996 29.3ZM42.6996 52.2C42.3996 53.7 41.8996 54.4 41.4996 55C41.3996 55.2 41.2996 55.3 41.1996 55.5C40.8996 56 40.7996 56.7 40.6996 57.2H30.9996V56.9C30.9996 55.6 30.3996 54.4 29.2996 53.6C28.2996 52.9 27.6996 51.8 27.6996 50.6V46.3V46.2C27.6996 45.7 28.0996 45.3 28.5996 45.3C29.0996 45.3 29.4996 45.7 29.4996 46.2V48.7H30.8996V46.2C30.8996 46.1 30.8996 46 30.8996 45.8V35.3C30.8996 34.8 31.2996 34.4 31.7996 34.4C32.2996 34.4 32.6996 34.8 32.6996 35.3V40.6V44.3V45.9H34.0996V44.3V40.6C34.0996 40.1 34.4996 39.7 34.9996 39.7C35.4996 39.7 35.8996 40.1 35.8996 40.6V41.3V44.3V45.7H37.2996V44.3V41.3C37.2996 40.8 37.6996 40.4 38.1996 40.4C38.6996 40.4 39.0996 40.8 39.0996 41.3V42.8V45.7V46.7H40.4996V45.7V42.8C40.4996 42.3 40.8996 41.9 41.3996 41.9C41.8996 41.9 42.2996 42.3 42.2996 42.8V46.7H42.9996H42.7996C42.8996 47.7 42.9996 50.8 42.6996 52.2Z" fill="currentcolor"/>
</svg>
