<svg viewBox="0 0 64 64" fill="none" xmlns="http://www.w3.org/2000/svg">
<path d="M49.6999 13.3V6.49998H52.6999V1.09998H45.3999V6.49998H48.3999V11.9H32.6999V6.49998H35.6999V1.09998H28.3999V6.49998H31.3999V11.9H15.6999V6.49998H18.6999V1.09998H11.3999V6.49998H14.3999V13.3H31.3999V20.1C31.0999 20.1 30.7999 20.1 30.4999 20.2L28.8999 17.7L24.3999 19.5L24.9999 22.5C24.0999 23.2 23.2999 24 22.5999 24.9L19.5999 24.3L17.6999 28.8L20.1999 30.5C19.9999 31.6 19.9999 32.7 20.1999 33.8L17.5999 35.4L19.3999 39.9L22.3999 39.3C23.0999 40.2 23.8999 41 24.7999 41.7L24.1999 44.7L28.6999 46.6L30.3999 44.1C30.6999 44.1 31.0999 44.2 31.3999 44.2V51H14.3999V57.8H11.3999V63.2H18.6999V57.8H15.6999V52.4H31.2999V57.8H28.2999V63.2H35.5999V57.8H32.5999V52.4H48.1999V57.8H45.1999V63.2H52.4999V57.8H49.4999V51H32.4999V44.2C32.7999 44.2 33.0999 44.2 33.3999 44.1L34.9999 46.7L39.4999 44.9L38.8999 41.9C39.7999 41.2 40.5999 40.4 41.2999 39.5L44.2999 40.1L46.1999 35.6L43.6999 33.9C43.8999 32.8 43.8999 31.7 43.6999 30.5L46.1999 28.9L44.3999 24.4L41.3999 25C40.6999 24.1 39.8999 23.3 38.9999 22.6L39.5999 19.6L35.0999 17.7L33.3999 20.2C33.0999 20.2 32.6999 20.1 32.3999 20.1V13.3H49.6999ZM46.7999 5.09998V2.49998H51.2999V5.09998H46.7999ZM12.6999 5.09998V2.49998H17.1999V5.09998H12.6999ZM17.1999 58.9V61.5H12.6999V58.9H17.1999ZM51.2999 58.9V61.5H46.7999V58.9H51.2999ZM34.2999 58.9V61.5H29.7999V58.9H34.2999ZM34.3999 21.8L35.8999 19.5L38.1999 20.5L37.5999 23.2C38.8999 24 39.9999 25.1 40.8999 26.5L43.5999 25.9L44.4999 28.2L42.1999 29.7C42.4999 31.3 42.4999 32.9 42.1999 34.4L44.4999 35.9L43.4999 38.2L40.7999 37.6C39.9999 38.9 38.8999 40 37.4999 40.9L38.0999 43.6L35.7999 44.5L34.2999 42.2C32.7999 42.5 31.1999 42.5 29.5999 42.2L28.0999 44.5L25.7999 43.5L26.3999 40.8C25.0999 40 23.9999 38.9 23.0999 37.5L20.3999 38.1L19.4999 35.8L21.7999 34.3C21.3999 32.7 21.4999 31.1 21.7999 29.6L19.4999 28.1L20.4999 25.8L23.1999 26.4C23.9999 25.1 25.0999 24 26.4999 23.1L25.8999 20.4L28.1999 19.5L29.6999 21.8C31.1999 21.4 32.7999 21.4 34.3999 21.8ZM29.6999 5.09998V2.49998H34.1999V5.09998H29.6999Z" fill="currentcolor"/>
<path d="M38.9999 34.9C39.7999 33 39.7999 31 38.9999 29.1C38.1999 27.2 36.7999 25.8 34.8999 25C33.9999 24.6 32.9999 24.4 31.9999 24.4C28.8999 24.4 26.1999 26.2 24.9999 29.1C24.1999 31 24.1999 33 24.9999 34.9C25.7999 36.8 27.1999 38.2 29.0999 39C29.9999 39.4 30.9999 39.6 31.9999 39.6C35.0999 39.6 37.7999 37.7 38.9999 34.9ZM26.2999 34.3C25.6999 32.8 25.6999 31.1 26.2999 29.6C27.2999 27.3 29.4999 25.8 31.9999 25.8C32.7999 25.8 33.5999 26 34.3999 26.3C35.8999 26.9 37.0999 28.1 37.6999 29.6C38.2999 31.1 38.2999 32.8 37.6999 34.3C36.6999 36.6 34.4999 38.1 31.9999 38.1C31.1999 38.1 30.3999 37.9 29.5999 37.6C28.0999 37 26.8999 35.9 26.2999 34.3Z" fill="currentcolor"/>
</svg>
