<svg viewBox="0 0 64 64" fill="none" xmlns="http://www.w3.org/2000/svg">
<path d="M2 23.1C5.3 26.9 13.8 29.7 24.5 30.1V32.8L27.2 34.5L29.9 32.8V30.1C40.6 29.7 49.1 26.9 52.4 23.1V32.3H53.8V9.8H36.9L35.9 4.5H18.4L17.4 9.8H0.5V45.6H35.8V44.2H2V23.1ZM19.6 6H34.8L35.5 9.8H18.9L19.6 6ZM28.4 32L27.1 32.8L25.9 32V27.6H28.4V32ZM52.3 11.3V19.9C51.9 24.4 42.1 28.2 29.8 28.7V26.2H24.4V28.7C12.1 28.2 2.3 24.4 2 19.9V11.3H52.3Z" fill="currentcolor"/>
<path d="M63.4 53C62.9 50.5 60.7 48.7 58.1 48.7C57.7 48.7 57.4 48.7 57 48.8C55.6 49.1 54.4 49.9 53.6 51.1C53.5 51.2 53.5 51.4 53.4 51.5L46.1 47.5C46.5 46.6 46.6 45.7 46.4 44.7C46.3 44 46 43.4 45.6 42.9L50.7 40.2C53.4 43.2 56.4 40.8 56.9 40C57.5 39.1 57.9 38 57.5 37.1C55.1 31.7 51.1 34.9 50.5 35.7C49.5 36.9 50 38.8 50 38.9L44.5 41.9C43.5 41.2 42.2 41 41 41.2C40.9 41.2 40.9 41.2 40.8 41.2C38.4 41.8 36.9 44.1 37.4 46.5C37.8 48.6 39.7 50.1 41.9 50.1C42.2 50.1 43.7 50.1 45.2 48.6L52.7 52.7C52.5 53.4 52.5 54.2 52.7 55C53.2 57.5 55.4 59.3 58 59.3C58.4 59.3 58.7 59.3 59.1 59.2C62.1 58.8 64 55.9 63.4 53ZM53.8 35.5C54.9 35.5 55.9 36.3 56.2 37.4C56.3 38 56.1 39.9 54.3 40.2C53 40.5 51.7 39.6 51.5 38.3C51.3 37.7 51.4 35.4 53.8 35.5ZM42 48.8C40.5 48.8 39.3 47.8 39 46.3C39 41.6 43.2 42.4 44.1 43.3C44.6 43.7 45 44.3 45.1 45C45.6 48.5 42.2 48.8 42 48.8ZM58.9 57.9C58.6 58 58.4 58 58.1 58C56.2 58 54.6 56.7 54.2 54.8C54 53.8 54.2 52.7 54.8 51.8C55.4 50.9 56.3 50.3 57.3 50.1C57.6 50 57.8 50 58.1 50C60 50 61.6 51.3 62 53.2C62.4 55.4 61 57.5 58.9 57.9Z" fill="currentcolor"/>
</svg>
