<svg viewBox="0 0 64 64" fill="none" xmlns="http://www.w3.org/2000/svg">
<g clip-path="url(#clip0_1_361)">
<path d="M34.0999 41.1935C34.6999 41.6935 35.0999 42.3935 35.0999 43.1935H36.5C36.5 41.9935 36 40.8935 35 40.0935C34.3 39.4935 33.2999 39.0935 32.2999 38.8935V35.7935H30.9V38.8935C29.9 38.9935 29 39.3935 28.2 40.0935C27.3 40.8935 26.7 41.9935 26.7 43.1935C26.7 44.3935 27.2 45.4935 28.2 46.2935C29.1 47.0935 30.3 47.4935 31.6 47.4935C32.5 47.4935 33.3999 47.7935 34.0999 48.3935C34.6999 48.8935 35.0999 49.5935 35.0999 50.3935C35.0999 51.0935 34.7999 51.8935 34.0999 52.3935C32.7999 53.4935 30.5 53.4935 29.2 52.3935C28.6 51.8935 28.2 51.1935 28.2 50.3935H26.7999C26.7999 51.5935 27.2999 52.6935 28.2999 53.4935C28.9999 54.0935 30 54.4935 31 54.6935V57.7935H32.4V54.6935C33.4 54.5935 34.2999 54.1935 35.0999 53.4935C35.9999 52.6935 36.5999 51.5935 36.5999 50.3935C36.5999 49.1935 36.0999 48.0935 35.0999 47.2935C34.1999 46.4935 33 46.0935 31.7 46.0935C30.8 46.0935 29.9 45.7935 29.2 45.1935C28.6 44.6935 28.2 43.9935 28.2 43.1935C28.2 42.4935 28.5 41.6935 29.2 41.1935C30.5 40.0935 32.7999 40.0935 34.0999 41.1935Z" fill="currentcolor"/>
<path d="M52.3 19.6935L52 19.3935H51.3C54 16.4935 55.5 11.9935 55.6 11.6935C56.3 8.99347 56 7.29347 54.8 6.39347C53 5.19347 49.6 7.09347 49.1 7.39347C42.9 10.1935 39.6 7.49347 39.4 7.39347L39.3 7.29347C37.1 6.29347 35.5 6.19347 34.5 7.19347C33 8.59347 33.6 11.6935 34.4 13.4935C34.6 13.8935 34.8 14.3935 35.1 14.7935C32.2 15.8935 29.9 15.8935 28.5 15.4935C28.9 14.7935 29.3 13.9935 29.6 13.4935C30.4 11.6935 31 8.59347 29.5 7.19347C28.5 6.19347 26.9 6.29347 24.8 7.39347L24.7 7.49347C24.6 7.59347 21.2 10.2935 15 7.49347C14.4 7.09347 11 5.19347 9.09998 6.49347C7.99998 7.39347 7.69998 9.09347 8.39998 11.7935C8.49998 11.9935 9.99998 16.4935 12.6 19.3935H12L11.8 19.6935C5.69998 27.0935 -1.60002 41.5935 1.09998 50.7935C1.99998 54.0935 4.69998 56.9935 7.49998 57.7935C9.79998 58.4935 12.2 58.8935 14.7 59.0935C15.9 61.7935 18.2 64.0935 20.7 64.7935C24.4 65.7935 28.2 66.3935 32 66.3935C35.8 66.3935 39.6 65.8935 43.3 64.7935C45.8 64.0935 48.1 61.7935 49.3 59.0935C51.7 58.8935 54.1 58.3935 56.4 57.7935C59.3 56.9935 61.9 54.0935 62.8 50.7935C65.6 41.5935 58.3 27.0935 52.3 19.6935ZM35.5 8.19347C36.2 7.59347 37.6 8.09347 38.5 8.59347C39.1 9.09347 43 11.6935 49.7 8.69347H49.8C50.8 8.09347 53.1 6.99347 54 7.69347C54.6 8.09347 54.7 9.49347 54.2 11.3935C54.2 11.4935 52.3 17.0935 49.2 19.4935H42.2C42.3 19.1935 42.4 18.8935 42.4 18.8935C43.1 16.1935 42.8 14.4935 41.6 13.5935C40 12.4935 37.5 13.5935 36.3 14.1935C36 13.7935 35.8 13.2935 35.6 12.8935C35 11.2935 34.8 8.99347 35.5 8.19347ZM36.6 15.7935C37.7 15.0935 40 14.0935 40.9 14.6935C41.5 15.0935 41.6 16.4935 41.1 18.3935C41.1 18.4935 39.2 24.0935 36.1 26.4935H27.6C26.9 25.8935 24.3 23.4935 22.6 19.8935C21.9 18.3935 21.6 15.9935 22.4 15.2935C23.1 14.6935 24.5 15.1935 25.4 15.6935C26 16.0935 29.9 18.7935 36.6 15.7935ZM9.79998 11.3935C9.29998 9.39347 9.39998 8.09347 9.99998 7.69347C10.9 6.99347 13.3 8.09347 14.2 8.69347H14.3C21 11.6935 24.9 8.99347 25.5 8.59347C26.4 8.19347 27.8 7.59347 28.5 8.19347C29.3 8.99347 29 11.2935 28.3 12.7935C28.1 13.2935 27.5 14.2935 27.2 14.8935C26.7 14.5935 26.4 14.3935 26.3 14.3935L26.2 14.2935C24 13.2935 22.4 13.2935 21.4 14.1935C20.2 15.3935 20.3 17.5935 20.9 19.3935H14.8C11.7 17.0935 9.79998 11.3935 9.79998 11.3935ZM2.49998 50.3935C-1.9908e-05 41.8935 6.99998 27.8935 12.6 20.8935H21.4C22.7 23.3935 24.3 25.2935 25.4 26.4935H25L24.8 26.7935C18.8 34.0935 11.5 48.4935 14.1 57.5935C12 57.3935 9.89998 56.9935 7.79998 56.3935C5.49998 55.6935 3.29998 53.1935 2.49998 50.3935ZM42.9 63.3935C35.8 65.3935 28.1 65.3935 21 63.3935C18.6 62.6935 16.3 60.1935 15.6 57.3935C13.1 48.8935 20.1 34.8935 25.8 27.8935H38.2C43.9 34.8935 50.9 48.8935 48.4 57.3935C47.6 60.1935 45.3 62.7935 42.9 63.3935ZM61.5 50.3935C60.7 53.1935 58.4 55.6935 56.1 56.3935C54.1 56.9935 52 57.3935 49.9 57.5935C52.4 48.3935 45.2 34.0935 39.2 26.7935L39 26.4935H38.3C39.9 24.7935 41 22.4935 41.8 20.8935H51.5C57 27.8935 64 41.8935 61.5 50.3935Z" fill="currentcolor"/>
</svg>
