<svg viewBox="0 0 64 64" fill="none" xmlns="http://www.w3.org/2000/svg">
<path d="M18.8002 7.19997C14.9002 7.19997 11.7002 10.4 11.7002 14.3C11.7002 16.2 12.4002 18 13.8002 19.3C15.1002 20.7 16.9002 21.4 18.8002 21.4C22.7002 21.4 25.9002 18.2 25.9002 14.3C25.9002 12.4 25.2002 10.6 23.8002 9.29997C22.5002 7.99997 20.8002 7.19997 18.8002 7.19997ZM18.8002 20C17.3002 20 15.8002 19.4 14.8002 18.3C13.7002 17.2 13.1002 15.8 13.2002 14.3C13.2002 11.2 15.8002 8.59997 18.9002 8.59997C20.4002 8.59997 21.8002 9.19997 22.9002 10.3C24.0002 11.4 24.6002 12.8 24.5002 14.3C24.5002 17.5 21.9002 20 18.8002 20Z" fill="currentcolor"/>
<path d="M48.3002 38.7C43.3002 38.4 39.1002 42.4 39.1002 47.3C39.1002 47.9 39.2002 48.5 39.3002 49.1H20.5002C16.0002 49.1 12.4002 45.4 12.4002 41C12.4002 36.5 16.1002 32.9 20.5002 32.9H43.4002C48.7002 32.9 53.0002 28.6 53.0002 23.3C53.0002 18 48.7002 13.7 43.4002 13.7H32.4002V12.2L29.6002 11.7C29.3002 10.7 29.0002 9.69997 28.4002 8.89997L30.0002 6.59997L26.8002 3.29997L24.5002 4.89997C23.6002 4.39997 22.7002 3.99997 21.7002 3.69997L21.2002 0.899971H16.6002L16.1002 3.69997C15.1002 3.99997 14.2002 4.29997 13.3002 4.89997L11.0002 3.29997L7.6002 6.29997L9.2002 8.69997C8.7002 9.49997 8.3002 10.5 8.0002 11.5L5.2002 12V16.6L8.0002 17.1C8.3002 18.1 8.6002 19 9.2002 19.9L7.6002 22.2L10.8002 25.5L13.1002 23.9C14.0002 24.4 14.9002 24.8 15.9002 25.1L16.4002 27.9H21.0002L21.5002 25.1C22.5002 24.8 23.5002 24.5 24.3002 23.9L26.6002 25.5L29.9002 22.3L28.4002 20C28.9002 19.1 29.3002 18.2 29.6002 17.2L32.4002 16.7V15H43.3002C47.8002 15 51.5002 18.7 51.5002 23.2C51.5002 27.7 47.8002 31.4 43.3002 31.4H20.5002C15.2002 31.4 10.9002 35.7 10.9002 41C10.9002 46.3 15.2002 50.6 20.5002 50.6H39.7002L40.3002 51.8C40.4002 52 40.5002 52.2 40.6002 52.3L40.7002 52.4C41.8002 54.4 42.6002 56.6 43.1002 59H42.2002V60.4H43.4002C43.5002 60.9 43.6002 61.3 43.6002 61.8V62C43.9002 62.8 44.7002 63.3 45.5002 63.3H49.8002C50.8002 63.3 51.6002 62.7 51.8002 61.6C51.8002 61.2 51.9002 60.8 52.0002 60.4H53.2002V59H52.3002C52.9002 56.5 53.8002 54.1 55.0002 52C55.1002 51.9 55.1002 51.8 55.2002 51.6C56.0002 50.2 56.4002 48.5 56.3002 46.9C56.1002 42.5 52.6002 39 48.3002 38.7ZM31.0002 15.5L28.4002 16C28.1002 17.5 27.6002 18.9 26.7002 20.1L28.2002 22.2L26.6002 23.8L24.5002 22.3C23.2002 23.2 21.9002 23.7 20.4002 24L19.9002 26.5H17.7002L17.2002 24C15.7002 23.7 14.3002 23.1 13.1002 22.3L11.0002 23.8L9.4002 22.2L10.9002 20.1C10.1002 18.8 9.4002 17.4 9.2002 16L6.7002 15.5V13.3L9.2002 12.8C9.5002 11.3 10.1002 9.99997 10.9002 8.69997L9.5002 6.49997L11.0002 4.89997L13.1002 6.39997C14.3002 5.49997 15.7002 4.99997 17.2002 4.69997L17.7002 2.19997H19.9002L20.4002 4.69997C21.9002 4.99997 23.2002 5.59997 24.5002 6.39997L26.7002 4.99997L28.3002 6.59997L26.8002 8.69997C27.7002 9.99997 28.3002 11.4 28.5002 12.8L31.0002 13.3V15.5ZM50.4002 61.4C50.3002 61.7 50.1002 61.9 49.8002 61.9H45.5002C45.3002 61.9 45.1002 61.8 45.0002 61.6C45.0002 61.2 44.9002 60.8 44.8002 60.5H50.5002C50.5002 60.7 50.4002 61.1 50.4002 61.4ZM53.9002 50.9C53.8002 51 53.8002 51.1 53.7002 51.2C52.3002 53.5 51.4002 56.2 50.8002 59H44.6002C44.1002 56.3 43.1002 53.8 41.9002 51.6L41.8002 51.5C41.7002 51.3 41.6002 51.2 41.6002 51.1L40.9002 49.7C40.6002 48.9 40.5002 48.1 40.5002 47.3C40.5002 43.2 44.0002 39.8 48.2002 40.1C51.8002 40.3 54.7002 43.3 54.9002 46.9C54.9002 48.3 54.6002 49.7 53.9002 50.9Z" fill="currentcolor"/>
<path d="M56.1454 54.83L55.0278 53.685L54.026 54.6629L55.1436 55.8079L56.1454 54.83Z" fill="currentcolor"/>
<path d="M58.7729 49.5436L57.2324 49.1111L56.854 50.459L58.3945 50.8915L58.7729 49.5436Z" fill="currentcolor"/>
<path d="M56.8958 44.1127L57.2422 45.4692L58.7924 45.0733L58.4461 43.7169L56.8958 44.1127Z" fill="currentcolor"/>
<path d="M56.2598 39.8303L55.2822 38.8282L54.1369 39.9455L55.1146 40.9476L56.2598 39.8303Z" fill="currentcolor"/>
<path d="M49.6965 37.7358L51.0444 38.1142L51.4769 36.5737L50.129 36.1953L49.6965 37.7358Z" fill="currentcolor"/>
<path d="M44.6572 37.9599L46.0137 37.6136L45.6178 36.0633L44.2614 36.4097L44.6572 37.9599Z" fill="currentcolor"/>
<path d="M40.4611 40.7891L41.4624 39.8106L40.3442 38.6663L39.3429 39.6448L40.4611 40.7891Z" fill="currentcolor"/>
<path d="M38.1953 45.2357L38.5728 43.8875L37.032 43.4562L36.6545 44.8043L38.1953 45.2357Z" fill="currentcolor"/>
<path d="M40.2557 53.4517L39.1123 54.5711L40.0917 55.5715L41.2351 54.4522L40.2557 53.4517Z" fill="currentcolor"/>
</svg>
