<svg viewBox="0 0 64 64" fill="none" xmlns="http://www.w3.org/2000/svg">
<path d="M44 51.7C45.8 52.6 47.8 53.2 50 53.2H50.1C57.5 53.2 63.5 47.2 63.5 39.8C63.5 32.4 57.5 26.4 50.1 26.3C47.9 26.3 45.9 26.8 44 27.8V4.79999H0.5V59.3H44V51.7ZM50.1 27.8C56.7 27.8 62.1 33.2 62 39.8C62 46.4 56.6 51.7 50 51.7V52.4V51.7C43.4 51.7 38 46.3 38.1 39.7C38.1 33.1 43.5 27.8 50.1 27.8ZM2 57.8V6.19999H42.6V28.6C39.1 31 36.7 35.1 36.7 39.6C36.7 44.2 39 48.3 42.6 50.8V57.7H2V57.8Z" fill="currentcolor"/>
<path d="M38.0999 11.4H6.3999V23.3H38.0999V11.4ZM36.6999 21.9H7.8999V12.9H36.6999V21.9Z" fill="currentcolor"/>
<path d="M17.4 47.3H8.5V48.7H17.4V47.3Z" fill="currentcolor"/>
<path d="M32.4001 51.1H30.6001V52.5H32.4001V51.1Z" fill="currentcolor"/>
<path d="M36.0001 47.3H27.1001V48.7H36.0001V47.3Z" fill="currentcolor"/>
<path d="M32.4001 43.4H30.6001V44.8H32.4001V43.4Z" fill="currentcolor"/>
<path d="M13.7 28.5H12.3V32.2H8.5V33.6H12.3V37.4H13.7V33.6H17.5V32.2H13.7V28.5Z" fill="currentcolor"/>
<path d="M34.1999 29.3L31.4999 31.9L28.8999 29.3L27.8999 30.3L30.4999 32.9L27.8999 35.6L28.8999 36.6L31.4999 33.9L34.1999 36.6L35.1999 35.6L32.4999 32.9L35.1999 30.3L34.1999 29.3Z" fill="currentcolor"/>
<path d="M45.0522 45.8L56.4365 34.4157L55.4466 33.4258L44.0623 44.8101L45.0522 45.8Z" fill="currentcolor"/>
<path d="M53.7001 40.5C52.1001 40.5 50.8 41.8 50.8 43.4C50.8 45 52.1001 46.3 53.7001 46.3C55.3001 46.3 56.6 45 56.6 43.4C56.6 41.8 55.3001 40.5 53.7001 40.5ZM53.7001 44.8C52.9001 44.8 52.2001 44.1 52.2001 43.3C52.2001 42.5 52.9001 41.8 53.7001 41.8C54.5001 41.8 55.2001 42.5 55.2001 43.3C55.2001 44.2 54.5001 44.8 53.7001 44.8Z" fill="currentcolor"/>
<path d="M46.4 39C48 39 49.3 37.7 49.3 36.1C49.3 34.5 48 33.2 46.4 33.2C44.8 33.2 43.5 34.5 43.5 36.1C43.5 37.7 44.8 39 46.4 39ZM46.4 34.6C47.2 34.6 47.9 35.3 47.9 36.1C47.9 36.9 47.2 37.6 46.4 37.6C45.6 37.6 45 36.9 45 36.1C45 35.3 45.6 34.6 46.4 34.6Z" fill="currentcolor"/>
</svg>
