<svg viewBox="0 0 64 64" fill="none" xmlns="http://www.w3.org/2000/svg">
<path d="M57.5999 55.9V53.5H56.1999V55.9H49.5999V53.5H48.1999V55.9H41.5999V53.5H40.1999V55.9H33.5999V53.5H32.1999V55.9H25.5999V53.5H24.1999V55.9H17.5999V53.5H16.1999V55.9H9.5999V53.5H8.1999V55.9H2.2999V51.3H4.6999V49.8H2.2999V43.7H4.6999V42.3H2.2999V36.1H4.6999V34.7H2.2999V28.6H4.6999V27.1H2.2999V21H4.6999V19.6H2.2999V13.4H4.6999V12H2.2999V6.7H0.899902V57.3H63.0999V55.9H57.5999Z" fill="currentcolor"/>
<path d="M26.8998 38.4H28.2998V29.2H31.1998V27.7H27.7998L30.6998 24.8L33.5998 27.7H32.7998V46.6H34.2998V29.2H37.0998L30.6998 22.8L24.2998 29.2H26.8998V38.4Z" fill="currentcolor"/>
<path d="M38.8998 36.2H40.2998V23.2H43.0998V21.8H39.6998L42.6998 18.8L45.5998 21.8H44.7998V46.6H46.1998V23.2H49.0998L42.6998 16.8L36.2998 23.2H38.8998V36.2Z" fill="currentcolor"/>
<path d="M52.2999 44.3H50.8999V45.7H52.2999V44.3Z" fill="currentcolor"/>
<path d="M52.2999 41.5H50.8999V42.9H52.2999V41.5Z" fill="currentcolor"/>
<path d="M52.2999 35.7H50.8999V37.1H52.2999V35.7Z" fill="currentcolor"/>
<path d="M52.2999 38.6H50.8999V40H52.2999V38.6Z" fill="currentcolor"/>
<path d="M40.2999 37.7H38.8999V39.1H40.2999V37.7Z" fill="currentcolor"/>
<path d="M40.2999 40.6H38.8999V42H40.2999V40.6Z" fill="currentcolor"/>
<path d="M40.2999 43.4H38.8999V44.8H40.2999V43.4Z" fill="currentcolor"/>
<path d="M28.2999 42.8H26.8999V44.2H28.2999V42.8Z" fill="currentcolor"/>
<path d="M28.2999 39.9H26.8999V41.3H28.2999V39.9Z" fill="currentcolor"/>
<path d="M16.2999 41.9H14.8999V43.3H16.2999V41.9Z" fill="currentcolor"/>
<path d="M50.9 34.3H52.2999V17.6H55.0999V16.2H51.7L54.5999 13.3L57.5999 16.2H56.7999V46.6H58.2V17.6H61.0999L54.5999 11.2L48.2 17.6H50.9V34.3Z" fill="currentcolor"/>
<path d="M14.8998 40.5H16.3998V35.1H19.1998V33.7H15.7998L18.6998 30.8L21.6998 33.7H20.7998V46.6H22.2998V35.1H25.0998L18.6998 28.7L12.2998 35.1H14.8998V40.5Z" fill="currentcolor"/>
</svg>
