<svg viewBox="0 0 64 64" fill="none" xmlns="http://www.w3.org/2000/svg">
<path d="M52.6998 36.7001H39.7998V38.1001H52.6998V36.7001Z" fill="currentcolor"/>
<path d="M20.2999 36.7001H7.3999V38.1001H20.2999V36.7001Z" fill="currentcolor"/>
<path d="M54.6999 19.8C54.8999 19.8 55.0999 19.7 55.1999 19.6L63.3999 11.4C63.5999 11.2 63.6999 10.9 63.5999 10.6C63.4999 10.3 63.1999 10.2 62.9999 10.1L57.5999 10L57.3999 4.60005C57.3999 4.30005 57.1999 4.10005 56.8999 4.00005C56.5999 3.90005 56.2999 4.00005 56.0999 4.20005L47.8999 12.4C47.7999 12.5 47.6999 12.7 47.6999 12.9L47.8999 18.6L40.8999 25.6C40.1999 25.4 39.3999 25.1 38.6999 24.9C35.9999 24.2 33.3999 23.8 30.7999 23.7V14.8H29.3999V23.7C26.8999 23.8 24.1999 24.1 21.5999 24.9C9.6999 28.1 1.1999 36.6 0.899902 37L0.399902 37.5L0.899902 38C1.0999 38.2 5.5999 42.7 12.4999 46.4C18.1999 49.5 23.8999 51.1 29.3999 51.2V60.1H30.7999V51.2C36.2999 51.1 41.9999 49.5 47.7999 46.4C54.7999 42.7 59.1999 38.2 59.3999 38L59.8999 37.5L59.3999 37C59.0999 36.7 52.2999 29.9 42.4999 26.1L48.9999 19.6L54.6999 19.8ZM55.9999 6.30005L56.1999 10.7C56.1999 11.1 56.4999 11.4 56.8999 11.4L61.2999 11.6L54.4999 18.4L49.3999 18.2L49.1999 13.1L55.9999 6.30005ZM38.2999 26.2C38.7999 26.3 39.2999 26.5 39.7999 26.6L39.1999 27.2C38.7999 26.8 38.2999 26.4 37.7999 26.1C37.9999 26.2 38.1999 26.2 38.2999 26.2ZM57.7999 37.5C56.3999 38.8 52.4999 42.2 47.0999 45.2C43.8999 46.9 40.7999 48.1 37.6999 48.9C40.8999 46.7 43.1999 43.3 43.6999 39.3L42.2999 39C41.5999 44.5 37.2999 48.9 31.6999 49.6V49.8C31.3999 49.8 31.0999 49.8 30.7999 49.8V47.2H29.3999V49.8C29.0999 49.8 28.7999 49.8 28.4999 49.8V49.6C22.9999 48.9 18.5999 44.5 17.8999 39L16.4999 39.2C16.9999 43.2 19.1999 46.7 22.3999 48.8C19.2999 48 16.1999 46.8 13.0999 45.1C7.6999 42.2 3.6999 38.7 2.3999 37.4C4.3999 35.5 12.0999 28.9 21.8999 26.2C21.9999 26.2 22.1999 26.1 22.2999 26.1C19.1999 28.2 16.9999 31.6 16.4999 35.5L17.8999 35.7C19.4999 25.8 28.9999 25.1 29.2999 25.1V27.7H30.6999V25.1C30.9999 25.1 34.6999 25.2 38.0999 28.2L33.0999 33.2C32.1999 32.5 31.0999 32.1 29.8999 32.1C26.9999 32.1 24.5999 34.5 24.5999 37.4C24.5999 40.3 26.9999 42.7 29.8999 42.7C32.7999 42.7 35.1999 40.3 35.1999 37.4C35.1999 36.2 34.7999 35.1 34.0999 34.2L39.0999 29.2C40.6999 31 41.7999 33.2 42.0999 35.7L43.4999 35.5C43.0999 32.7 41.8999 30.2 40.0999 28.2L41.0999 27.2C49.6999 30.3 55.9999 35.8 57.7999 37.5ZM29.5999 37.9C29.6999 38 29.8999 38.1 30.0999 38.1C30.2999 38.1 30.4999 38 30.5999 37.9L33.2999 35.2C33.6999 35.8 33.9999 36.6 33.9999 37.4C33.9999 39.5 32.2999 41.2 30.1999 41.2C28.0999 41.2 26.3999 39.5 26.3999 37.4C26.3999 35.3 28.0999 33.6 30.1999 33.6C30.9999 33.6 31.6999 33.8 32.3999 34.3L29.6999 37C29.2999 37.2 29.2999 37.7 29.5999 37.9Z" fill="currentcolor"/>
</svg>
