<svg viewBox="0 0 64 64" fill="none" xmlns="http://www.w3.org/2000/svg">
<path d="M35.5 0.599976H34V2.09998H35.5V0.599976Z" fill="currentcolor"/>
<path d="M39.1001 0.599976H37.6001V2.09998H39.1001V0.599976Z" fill="currentcolor"/>
<path d="M42.7 0.599976H41.2V2.09998H42.7V0.599976Z" fill="currentcolor"/>
<path d="M46.3 0.599976H44.8V2.09998H46.3V0.599976Z" fill="currentcolor"/>
<path d="M11.4 48.1V55C5 49.2 1.4 41.1 1.4 32.5C1.5 15.7 15.1 1.99998 31.9 1.99998V0.599976C14.3 0.599976 0 14.9 0 32.5C0 41.4 3.7 49.8 10.2 55.9H3.7V57.4H12.9V48.2H11.4V48.1Z" fill="currentcolor"/>
<path d="M53.8001 8.09998H60.3001V6.69998H51.1001V15.9H52.6001V8.99998C59.0001 14.8 62.6001 22.9 62.6001 31.5C62.5001 48.3 48.9001 62 32.1001 62V63.5C49.7001 63.4 64.0001 49.1 64.0001 31.5C64.0001 22.6 60.3001 14.2 53.8001 8.09998Z" fill="currentcolor"/>
<path d="M30 62H28.5V63.5H30V62Z" fill="currentcolor"/>
<path d="M26.3999 62H24.8999V63.5H26.3999V62Z" fill="currentcolor"/>
<path d="M22.8 62H21.3V63.5H22.8V62Z" fill="currentcolor"/>
<path d="M19.3 62H17.8V63.5H19.3V62Z" fill="currentcolor"/>
<path d="M31.2 30.5V41.8H27.9V25.8H26.5V41.8H23.2V29.3H21.7V41.8H18.4V34.1H16.9V41.8H14.2V43.3H49.7999V41.8H47V20H45.5999V41.8H42.2999V24.8H40.7999V41.8H37.5V29.6H36V41.8H32.7V30.5H31.2Z" fill="currentcolor"/>
<path d="M15.6999 11.7C15.3999 12.1 15.0999 12.6 14.8999 13.1L16.1999 13.7C16.3999 13.3 16.5999 12.9 16.8999 12.6L15.6999 11.7Z" fill="currentcolor"/>
<path d="M25.5 12.8C25.7 13.2 26 13.5 26.1 13.9L27.5 13.4C27.3 12.9 27 12.4 26.7 12L25.5 12.8Z" fill="currentcolor"/>
<path d="M25.3999 10.6C24.9999 10.3 24.4999 9.99998 23.9999 9.69998L23.3999 11C23.7999 11.2 24.1999 11.4 24.4999 11.7L25.3999 10.6Z" fill="currentcolor"/>
<path d="M27.8999 17C27.9999 16.6 27.9999 16.3 27.9999 15.9C27.9999 15.7 27.9999 15.5 27.9999 15.3L26.4999 15.4C26.4999 15.5 26.4999 15.7 26.4999 15.8C26.4999 16.1 26.4999 16.4 26.3999 16.6L27.8999 17Z" fill="currentcolor"/>
<path d="M14.8 18.5C15 19 15.3 19.5 15.6 19.9L16.8 19C16.5 18.7 16.3 18.3 16.2 17.9L14.8 18.5Z" fill="currentcolor"/>
<path d="M19.1 10.9L18.6 9.49997C18.1 9.69997 17.6 9.99997 17.2 10.3L18.1 11.5C18.3 11.3 18.7 11.1 19.1 10.9Z" fill="currentcolor"/>
<path d="M21.1 22.7C21.4 22.7 21.6999 22.7 21.9 22.6L21.7 21.1C21.3 21.2 20.8 21.2 20.4 21.1L20.2 22.6C20.6 22.7 20.8 22.7 21.1 22.7Z" fill="currentcolor"/>
<path d="M21.9 10.6L22.1 9.09998C21.6 8.99998 21 8.99998 20.5 9.09998L20.6 10.6C21 10.5 21.5 10.5 21.9 10.6Z" fill="currentcolor"/>
<path d="M23.7999 22.2C24.2999 22 24.8 21.7 25.2 21.4L24.2999 20.2C23.9999 20.5 23.6 20.7 23.2 20.9L23.7999 22.2Z" fill="currentcolor"/>
<path d="M14.3 15.9C14.3 16.1 14.3 16.4 14.3 16.6L15.8 16.4C15.8 16.2 15.8 16 15.8 15.8C15.8 15.6 15.8 15.3 15.8 15.1L14.4 15C14.3 15.3 14.3 15.6 14.3 15.9Z" fill="currentcolor"/>
<path d="M18.4 22.2L19 20.9C18.6 20.7 18.2 20.5 17.9 20.3L17 21.4C17.4 21.7 17.9 22 18.4 22.2Z" fill="currentcolor"/>
</svg>
