<svg viewBox="0 0 64 64" fill="none" xmlns="http://www.w3.org/2000/svg">
<path d="M33.7999 28.9C33.8999 28.9 33.9999 29 34.0999 29C34.2999 29 34.3999 28.9 34.4999 28.8L55.7999 12.2C55.8999 12.1 55.9999 11.9 56.0999 11.7C56.0999 11.5 56.0999 11.3 55.9999 11.2C50.5999 4.40001 42.7999 0.600006 34.0999 0.600006C33.6999 0.600006 33.3999 0.900006 33.3999 1.30001V28.3C33.3999 28.6 33.5999 28.8 33.7999 28.9ZM34.7999 2.00001C42.4999 2.20001 49.3999 5.60001 54.2999 11.5L34.7999 26.8V2.00001Z" fill="currentcolor"/>
<path d="M41.7999 60.8C41.9999 60.7 42.0999 60.6 42.1999 60.4C42.2999 60.2 42.2999 60 42.1999 59.9L30.7999 35.6V8.7C30.7999 8.3 30.4999 8 30.0999 8C14.7999 8 2.3999 20.5 2.3999 35.7C2.3999 51 14.7999 63.4 30.0999 63.4C34.3999 63.4 37.7999 62.7 41.7999 60.8ZM3.7999 35.7C3.7999 21.5 15.1999 9.8 29.2999 9.5V35.7C29.2999 35.8 29.2999 35.9 29.3999 36L40.4999 59.8C37.0999 61.3 33.9999 62 30.0999 62C15.5999 62 3.7999 50.2 3.7999 35.7Z" fill="currentcolor"/>
<path d="M61.2999 29.6C60.9999 27.6 60.4999 25.6 59.6999 23.7C59.4999 23.2 59.2999 22.6 58.9999 22.1C58.0999 20.1 57.0999 18.5 55.6999 16.8C55.5999 16.6 55.3999 16.6 55.1999 16.5C54.9999 16.5 54.7999 16.5 54.6999 16.6L34.0999 32.8L33.4999 33.3C33.1999 33.5 33.0999 33.9 33.2999 34.2L35.7999 39.6L38.6999 45.7L41.6999 52.2L44.6999 58.6C44.7999 58.9 45.0999 59 45.3999 59C45.4999 59 45.5999 59 45.6999 58.9C47.9999 57.8 50.0999 56.5 51.9999 54.9C53.5999 53.5 55.0999 51.9 56.2999 50.2C57.3999 48.7 58.2999 47.1 59.0999 45.5C59.7999 43.9 60.3999 42.2 60.8999 40.5C61.2999 38.8 61.5999 37 61.6999 35.2C61.6999 33.4 61.5999 31.5 61.2999 29.6ZM54.9999 18.2C56.0999 19.6 56.8999 21 57.6999 22.7C57.6999 22.8 57.7999 22.8 57.7999 22.9L54.2999 21.9L51.2999 21.1L54.9999 18.2ZM49.8999 22.2L55.0999 23.6L58.4999 24.5C58.9999 25.9 59.3999 27.3 59.6999 28.7L46.2999 25L49.8999 22.2ZM45.6999 57.3L43.6999 53L49.9999 54.7C48.5999 55.7 47.0999 56.5 45.6999 57.3ZM51.1999 53.5L42.7999 51.2L40.5999 46.4L54.3999 50.2C53.4999 51.4 52.3999 52.5 51.1999 53.5ZM55.3999 49L45.7999 46.4L39.8999 44.8L37.7999 40.4L57.3999 45.8C56.7999 46.8 56.0999 47.9 55.3999 49ZM57.9999 44.3L36.9999 38.6L34.8999 34.2L59.1999 40.8C58.8999 42 58.4999 43.2 57.9999 44.3ZM59.5999 39.4L36.0999 33L39.7999 30.1L55.3999 34.4L60.0999 35.7C59.9999 37 59.7999 38.2 59.5999 39.4ZM41.1999 29.1L44.8999 26.2L54.7999 28.9L59.9999 30.3C60.1999 31.6 60.2999 32.9 60.1999 34.2L41.1999 29.1Z" fill="currentcolor"/>
</svg>
