<svg viewBox="0 0 64 64" fill="none" xmlns="http://www.w3.org/2000/svg">
<path d="M61.9001 51.5L49.7001 40.5C52.1001 37.2 53.3001 33.2 53.1001 29.1C52.9001 25.3 51.6001 21.8 49.4001 18.9L60.9001 7.39996V11.9H62.3001V4.89996H55.3001V6.29996H59.8001L48.5001 17.8C45.5001 14.5 41.4001 12.3 36.7001 11.9C31.0001 11.4 25.5001 13.7 21.8001 17.9C18.3001 21.8 16.8001 26.8 17.4001 32C17.7001 34.9 18.8001 37.6 20.3001 39.9H14.8001L0.600098 54.1L1.6001 55.1L15.4001 41.3H21.3001C24.6001 45.3 29.6001 47.8 35.2001 47.8C38.8001 47.8 42.2001 46.7 45.1001 44.7L55.6001 57.4C56.4001 58.4 57.7001 59 59.0001 59C60.1001 59 61.2001 58.6 62.0001 57.8C62.9001 57 63.4001 55.8 63.3001 54.6C63.4001 53.4 62.8001 52.3 61.9001 51.5ZM61.0001 56.8C59.8001 57.9 57.8001 57.8 56.7001 56.6L45.5001 42.8L44.9001 43.2C42.1001 45.3 38.8001 46.4 35.2001 46.4C26.8001 46.4 19.7001 40.2 18.8001 31.9C18.2001 27.1 19.7001 22.5 22.9001 18.9C26.3001 15 31.4001 13 36.6001 13.4C44.9001 14.1 51.4001 20.8 51.7001 29.2C51.9001 33.2 50.6001 37 48.2001 40.1L47.8001 40.6L61.0001 52.5C61.6001 53 62.0001 53.8 62.0001 54.6C62.0001 55.5 61.6001 56.3 61.0001 56.8Z" fill="currentcolor"/>
<path d="M57.6732 54.359L58.6284 55.3825L59.652 54.4273L58.6967 53.4037L57.6732 54.359Z" fill="currentcolor"/>
<path d="M56.714 51.2103L55.6909 52.166L56.6466 53.1891L57.6697 52.2334L56.714 51.2103Z" fill="currentcolor"/>
<path d="M35.1001 20.8C33.8001 20.8 32.7001 21.3 31.8001 22.2C30.9001 23.1 30.4001 24.3 30.4001 25.5H31.8001C31.8001 24.6 32.1001 23.8 32.8001 23.2C34.0001 22 36.2001 22 37.4001 23.2C38.0001 23.8 38.4001 24.6 38.4001 25.5C38.4001 26.4 38.0001 27.1 37.3001 28C37.2001 28.1 35.6001 29.6 34.8001 32.3C34.6001 33.2 34.4001 34 34.4001 34.9H35.8001C35.8001 34.2 35.9001 33.4 36.1001 32.7C36.7001 30.5 38.2001 29.1 38.2001 29.1C39.3001 28 39.7001 26.9 39.7001 25.6C39.7001 24.3 39.2001 23.2 38.3001 22.3C37.6001 21.3 36.4001 20.8 35.1001 20.8Z" fill="currentcolor"/>
<path d="M35.8001 36.6H34.4001V38.1H35.8001V36.6Z" fill="currentcolor"/>
</svg>
