<svg viewBox="0 0 64 64" fill="none" xmlns="http://www.w3.org/2000/svg">
<path d="M42.9001 16.4H55.4001V38.7H8.6001V16.4H21.1001V15H4.6001V16.4H7.2001V38.7H4.6001V40.2H31.2001V46.7L20.7001 62H19.4001V63.5H23.3001V62H22.5001L31.2001 49.2V62H29.7001V63.5H34.0001V62H32.6001V49.2L41.3001 62H40.7001V63.5H44.6001V62H43.0001L32.6001 46.7V40.2H59.4001V38.7H56.8001V16.4H59.4001V15H42.9001V16.4Z" fill="currentcolor"/>
<path d="M36.6001 11.4L39.1001 9V20.4L49.9001 25.5V32.7H51.4001V24.6L40.5001 19.5V9L42.9001 11.4L43.9001 10.4L39.8001 6.3L35.6001 10.4L36.6001 11.4Z" fill="currentcolor"/>
<path d="M23.5001 9V19.5L12.6001 24.6V32.7H14.1001V25.5L24.9001 20.4V9L27.4001 11.4L28.4001 10.4L24.2001 6.3L20.1001 10.4L21.1001 11.4L23.5001 9Z" fill="currentcolor"/>
<path d="M31.3001 3.29999V32.7H32.7001V3.29999L35.1001 5.69999L36.1001 4.69999L32.0001 0.499992L27.9001 4.69999L28.9001 5.69999L31.3001 3.29999Z" fill="currentcolor"/>
</svg>
