<svg  viewBox="0 0 64 64" fill="none" xmlns="http://www.w3.org/2000/svg">
<path d="M62.8 28.1C60.4 23 55.6001 21.9 55.4001 21.9C50.5001 20.4 45.8 20.8 42.3 23.2C39.1 25.3 37.2 28.8 36.8 33V35.7L33.3 43.7L36.3 43.8L36.1 47.8C36.1 48.5 36.3001 49.2 36.9001 49.7C37.4001 50.2 38.1 50.5 38.8 50.4H42.1V58.4H43.6V49H38.8C38.5 49 38.2 48.9 38 48.7C37.8 48.5 37.7001 48.2 37.7001 47.9L37.9001 42.4L35.6 42.3L38.4001 36V33.1C38.7001 29.4 40.4001 26.4 43.2001 24.5C46.3001 22.4 50.5 22 55.1 23.4C55.1 23.4 59.5 24.4 61.5 28.8C63.7001 33.6 62.5 40.4 58 49.1C57.3 50.8 57 52.5 57 54.4V58.3H58.5V54.4C58.5 52.8 58.8001 51.2 59.4001 49.8C64.0001 40.6 65.2 33.3 62.8 28.1Z" fill="currentcolor"/>
<path d="M50.1001 48.8H48.6001V50.3H50.1001V48.8Z" fill="currentcolor"/>
<path d="M47.1001 48.8H45.6001V50.3H47.1001V48.8Z" fill="currentcolor"/>
<path d="M27.6001 29.1L30.6001 29L27.1001 21V18.3C26.7001 14.2 24.8001 10.7 21.6001 8.60004C18.1001 6.30004 13.5001 5.80004 8.60007 7.30004C8.40007 7.30004 3.50007 8.50004 1.20007 13.5C-1.19993 18.8 6.77109e-05 26.1 4.70007 35.1C5.30007 36.6 5.60007 38.2 5.60007 39.8V43.7H7.10007V39.8C7.10007 38 6.80007 36.2 6.00007 34.5C1.50007 25.8 0.300067 19 2.50007 14.2C4.50007 9.80004 8.90007 8.80004 9.00007 8.70004C13.5001 7.30004 17.7001 7.70004 20.8001 9.80004C23.6001 11.7 25.3001 14.7 25.6001 18.3V21.3L28.4001 27.6L26.1001 27.7L26.3001 33.2C26.3001 33.5 26.2001 33.8 26.0001 34C25.8001 34.2 25.5001 34.3 25.1001 34.3H20.3001V43.7H21.8001V35.7H25.1001C25.8001 35.7 26.5001 35.5 27.0001 35C27.5001 34.5 27.8001 33.8 27.8001 33.1L27.6001 29.1Z" fill="currentcolor"/>
<path d="M15.4001 34.3H13.9001V35.8H15.4001V34.3Z" fill="currentcolor"/>
<path d="M18.4001 34.3H16.9001V35.8H18.4001V34.3Z" fill="currentcolor"/>
<path d="M60.4001 1.90002H54.6001V16.7H60.4001V1.90002ZM58.9001 15.3H56.0001V3.40002H58.9001V15.3Z" fill="currentcolor"/>
<path d="M51.6 5.5H45.8V16.7H51.6V5.5ZM50.2001 15.3H47.3V7H50.2001V15.3Z" fill="currentcolor"/>
<path d="M42.8 9.59998H37V16.8H42.8V9.59998ZM41.4 15.3H38.5V11H41.4V15.3Z" fill="currentcolor"/>
<path d="M22.1 49.1L23.9 50.9H6.80005V52.3H23.9L22.1 54.1L23.2001 55.1L26.7001 51.6L23.2001 48.1L22.1 49.1Z" fill="currentcolor"/>
<path d="M9.29995 55L5.69995 58.5L9.29995 62.1L10.3 61L8.49995 59.3H25.7V57.8H8.49995L10.3 56L9.29995 55Z" fill="currentcolor"/>
</svg>
