<svg viewBox="0 0 64 64" fill="none" xmlns="http://www.w3.org/2000/svg">
<path d="M63.8998 27.4V20.1L59.0998 19.2C58.5998 17.2 57.8998 15.4 56.7998 13.7L59.5998 9.59999L54.4998 4.39998L50.3998 7.19998C48.6998 6.09998 46.8998 5.39998 44.8998 4.89998L44.0998 -1.52588e-05H36.7998L35.8998 4.79998C33.9998 5.29998 32.0998 5.99998 30.3998 7.09998L26.2998 4.29998L21.0998 9.39998L23.8998 13.5C22.8998 15.2 22.0998 17 21.5998 19L16.6998 19.9V27.2L21.4998 28.1C21.9998 30.2 22.7998 32.1 23.9998 34L10.1998 47.7C9.59977 47.5 8.89977 47.5 8.19977 47.5C5.99977 47.5 3.89977 48.4 2.39977 49.9C0.0997689 52.2 -0.600231 55.7 0.499769 58.7L0.899769 59.7L4.39977 56.2L7.49977 56.5L7.79977 59.6L4.39977 63L5.49977 63.4C6.39977 63.8 7.39977 64 8.29977 64C10.4998 64 12.5998 63.1 14.0998 61.6C16.0998 59.6 16.9998 56.6 16.2998 53.8L30.0998 40C31.7998 41.1 33.6998 41.9 35.6998 42.4L36.5998 47.3H43.8998L44.7998 42.5C46.7998 42 48.5998 41.3 50.2998 40.2L54.3998 43L59.5998 37.9L56.7998 33.8C57.8998 32.1 58.6998 30.2 59.0998 28.3L63.8998 27.4ZM14.6998 53.4L14.7998 53.8C15.4998 56.2 14.8998 58.8 13.0998 60.6C11.4998 62.2 9.29977 62.9 7.19977 62.5L9.39977 60.3L8.99977 55.3L3.99977 54.9L1.69977 57.2C1.29977 55 1.89977 52.7 3.59977 51.1C4.89977 49.8 6.59977 49.1 8.39977 49.1C9.09977 49.1 9.69977 49.2 10.3998 49.4L10.7998 49.5L33.8998 26.4L33.7998 26C33.0998 23.6 33.6998 21 35.4998 19.2C36.7998 17.9 38.4998 17.2 40.2998 17.2C40.7998 17.2 41.1998 17.2 41.5998 17.3L39.2998 19.6L39.6998 24.6L44.6998 25L46.8998 22.8C47.2998 24.9 46.5998 27.2 44.9998 28.7C43.6998 30 41.9998 30.7 40.1998 30.7C39.4998 30.7 38.8998 30.6 38.1998 30.4L37.7998 30.3L14.6998 53.4ZM47.9998 21L47.5998 20L44.1998 23.4L40.9998 23.1L40.7998 20L44.2998 16.5L43.2998 16.1C42.2998 15.7 41.2998 15.5 40.2998 15.5C38.0998 15.5 35.9998 16.4 34.4998 17.9C32.4998 19.9 31.5998 22.9 32.2998 25.7L29.9998 28C29.3998 26.6 29.0998 25.1 29.0998 23.5C29.0998 17.2 34.1998 12.2 40.4998 12.2C40.4998 12.2 40.4998 12.2 40.5998 12.2C46.8998 12.2 51.8998 17.4 51.8998 23.6C51.8998 29.9 46.7998 34.9 40.4998 34.9C40.4998 34.9 40.4998 34.9 40.3998 34.9C38.8998 34.9 37.4998 34.6 36.0998 34L38.3998 31.7C38.9998 31.9 39.6998 31.9 40.3998 31.9C42.5998 31.9 44.6998 31 46.1998 29.5C48.2998 27.4 49.0998 24 47.9998 21ZM54.9998 33.8L57.5998 37.7L54.1998 41.1L50.2998 38.4C48.0998 39.7 45.8998 40.8 43.4998 41.2L42.5998 45.8H37.7998L36.9998 41.2C36.9998 41.2 32.8998 40 31.1998 39L34.8998 35.3C36.5998 36.1 38.3998 36.5 40.2998 36.5C40.2998 36.5 40.2998 36.5 40.3998 36.5C47.3998 36.5 53.1998 30.8 53.1998 23.7C53.1998 16.6 47.4998 10.8 40.3998 10.8C40.3998 10.8 40.3998 10.8 40.2998 10.8C33.2998 10.8 27.4998 16.5 27.4998 23.6C27.4998 25.5 27.8998 27.5 28.7998 29.2L25.0998 32.9C23.7998 31.2 22.6998 26.9 22.7998 26.8L18.1998 25.9V21.1L22.7998 20.3C23.1998 18 24.1998 15.7 25.6998 13.5L22.9998 9.59999L26.4998 6.19998L30.3998 8.89998C32.2998 7.49998 34.6998 6.59998 37.1998 6.09998L37.9998 1.49998H42.7998L43.5998 6.09998C46.0998 6.59998 48.3998 7.59998 50.3998 8.99998L54.2998 6.39998L57.6998 9.79998L54.9998 13.7C56.3998 15.8 57.3998 18.1 57.7998 20.5L62.3998 21.4V26.2L57.8998 27C57.3998 29.5 56.3998 31.8 54.9998 33.8Z" fill="currentcolor"/>
<path d="M19.8788 43.0681L20.9395 44.1287L22.0001 43.0681L20.9395 42.0074L19.8788 43.0681Z" fill="currentcolor"/>
<path d="M26.4872 36.5062L27.5479 37.5668L28.6085 36.5062L27.5479 35.4455L26.4872 36.5062Z" fill="currentcolor"/>
<path d="M24.331 38.6465L25.3916 39.7071L26.4523 38.6465L25.3916 37.5858L24.331 38.6465Z" fill="currentcolor"/>
<path d="M22.1054 40.8573L23.166 41.9179L24.2267 40.8573L23.166 39.7966L22.1054 40.8573Z" fill="currentcolor"/>
</svg>
