<svg viewBox="0 0 64 64" fill="none" xmlns="http://www.w3.org/2000/svg">
<path d="M40.2999 14.3001L28.5999 22.4001L25.5999 18.1001L24.3999 18.9001L28.1999 24.4001L41.0999 15.5001L40.2999 14.3001Z" fill="currentcolor"/>
<path d="M62.7999 40.5001C60.3999 42.2001 57.8999 43.9001 55.5999 45.8001C55.1999 46.1001 54.7999 46.2001 54.4999 46.2001C54.2999 46.2001 54.1999 46.1001 54.0999 45.9001L45.7999 33.9001C45.6999 33.8001 45.6999 33.6001 45.6999 33.4001C45.7999 33.1001 46.0999 32.7001 46.3999 32.5001C48.1999 31.4001 49.8999 30.3001 51.5999 29.2001L50.7999 28.0001C49.0999 29.1001 47.3999 30.2001 45.6999 31.3001C45.0999 31.7001 44.6999 32.2001 44.3999 32.7001H41.2999C49.5999 23.4001 50.9999 9.80007 50.9999 9.20007L51.0999 8.50007L50.3999 8.40007C37.6999 6.70007 32.5999 1.20007 32.4999 1.20007L31.9999 0.600067L31.4999 1.20007C31.4999 1.30007 26.3999 6.80007 13.5999 8.30007L12.8999 8.40007L12.9999 9.10007C13.0999 9.70007 14.6999 23.2001 22.9999 32.6001H19.6999C19.4999 32.0001 18.9999 31.5001 18.3999 31.2001C16.6999 30.1001 14.8999 29.0001 13.1999 27.9001L12.3999 29.1001C14.0999 30.2001 15.7999 31.3001 17.5999 32.4001C17.9999 32.6001 18.2999 33.0001 18.2999 33.3001C18.2999 33.5001 18.2999 33.7001 18.1999 33.8001L9.8999 45.8001C9.7999 45.9001 9.6999 46.0001 9.4999 46.1001C9.1999 46.2001 8.6999 46.0001 8.3999 45.7001C5.9999 43.9001 3.5999 42.1001 1.1999 40.4001L0.399902 41.6001C2.7999 43.2001 5.1999 45.0001 7.5999 46.8001C9.7999 48.2001 10.8999 47.0001 11.2999 46.6001L11.8999 45.7001C12.3999 46.2001 13.1999 46.9001 13.4999 47.6001C13.5999 47.9001 13.6999 48.0001 13.7999 48.2001C13.7999 48.3001 13.8999 48.4001 13.8999 48.5001C13.5999 48.7001 13.2999 48.9001 13.0999 49.2001C12.5999 49.9001 12.3999 50.7001 12.4999 51.6001C12.5999 52.5001 13.0999 53.2001 13.7999 53.7001L13.8999 53.8001C14.8999 54.6001 16.1999 54.4001 16.3999 54.4001C16.3999 55.4001 16.7999 56.4001 17.6999 57.1001C18.2999 57.5001 18.9999 57.7001 19.6999 57.7001C19.9999 57.7001 20.2999 57.7001 20.4999 57.6001C20.4999 57.7001 20.4999 57.8001 20.4999 58.0001C20.5999 58.9001 21.0999 59.6001 21.7999 60.2001C22.3999 60.6001 23.0999 60.8001 23.7999 60.8001C24.0999 60.8001 24.4999 60.7001 24.7999 60.6001C24.7999 60.7001 24.7999 60.7001 24.7999 60.8001C24.8999 61.6001 25.2999 62.3001 25.9999 62.8001C26.4999 63.2001 27.0999 63.4001 27.7999 63.4001C28.6999 63.4001 29.4999 63.0001 30.0999 62.3001C32.4999 63.6001 34.1999 62.1001 34.6999 61.4001C35.0999 60.8001 35.2999 60.1001 35.2999 59.4001C35.2999 59.4001 36.5999 60.6001 38.0999 60.6001C39.1999 60.6001 40.2999 60.1001 40.8999 59.1001C41.2999 58.5001 41.4999 57.8001 41.4999 57.1001L41.6999 57.2001C44.1999 58.7001 45.8999 57.1001 46.4999 56.3001C46.8999 55.7001 47.0999 55.0001 47.0999 54.3001L47.4999 54.6001C50.0999 56.1001 51.6999 54.5001 52.2999 53.7001C52.7999 52.9001 52.9999 52.0001 52.7999 51.1001C52.5999 50.2001 52.0999 49.4001 51.3999 48.9001L40.1999 41.3001H38.0999C34.3999 41.3001 33.9999 38.4001 33.9999 38.2001L33.8999 37.6001H26.2999L25.9999 38.4001C25.6999 40.2001 25.0999 41.4001 24.1999 42.0001C23.6999 42.3001 23.1999 42.4001 22.7999 42.4001V37.3001L28.5999 34.1001H44.3999C44.4999 34.8001 52.8999 46.7001 52.8999 46.7001C54.1999 48.3001 55.9999 47.4001 56.5999 46.9001C58.9999 45.1001 61.3999 43.3001 63.7999 41.7001L62.7999 40.5001ZM14.6999 52.7001L14.5999 52.6001C14.1999 52.3001 13.9999 51.9001 13.8999 51.4001C13.7999 50.9001 13.9999 49.5001 15.5999 49.4001C15.9999 49.4001 16.2999 49.5001 16.5999 49.7001L16.6999 49.8001C18.6999 51.8001 16.3999 53.8001 14.6999 52.7001ZM21.0999 55.6001C20.4999 56.4001 19.2999 56.6001 18.4999 56.0001C18.0999 55.7001 17.7999 55.3001 17.7999 54.8001C17.6999 54.3001 17.7999 53.9001 18.0999 53.5001C18.1999 53.4001 18.2999 53.3001 18.2999 53.2001C18.3999 53.1001 18.4999 52.9001 18.5999 52.8001L19.2999 51.9001C19.6999 51.4001 20.7999 50.7001 21.8999 51.5001C22.6999 52.1001 22.8999 53.3001 22.2999 54.1001L21.0999 55.6001ZM25.1999 58.7001C24.5999 59.5001 23.3999 59.7001 22.5999 59.1001C22.1999 58.8001 21.8999 58.4001 21.8999 57.9001C21.7999 57.4001 21.8999 56.9001 22.1999 56.5001L23.2999 55.0001L24.2999 53.6001C24.6999 53.1001 25.1999 52.9001 25.7999 52.9001C26.1999 52.9001 26.5999 53.0001 26.8999 53.3001C27.6999 53.9001 27.8999 55.1001 27.2999 55.9001L25.1999 58.7001ZM29.0999 60.9001L28.7999 61.3001C28.2999 61.9001 27.2999 62.1001 26.6999 61.6001C26.3999 61.4001 26.1999 61.0001 26.0999 60.6001C25.9999 60.2001 26.0999 59.8001 26.3999 59.5001L26.6999 59.1001C26.9999 58.7001 27.3999 58.5001 27.8999 58.5001C28.1999 58.5001 28.4999 58.6001 28.7999 58.8001C29.0999 59.0001 29.2999 59.4001 29.3999 59.8001C29.4999 60.2001 29.3999 60.6001 29.0999 60.9001ZM21.1999 36.4001V43.5001L21.6999 43.7001C21.7999 43.7001 23.2999 44.2001 24.7999 43.3001C25.9999 42.6001 26.7999 41.2001 27.1999 39.3001H32.3999C32.8999 40.8001 34.3999 43.0001 37.8999 43.0001H39.5999L50.3999 50.3001C51.5999 50.9001 51.1999 52.6001 50.8999 53.0001C50.0999 54.3001 48.5999 53.8001 48.1999 53.5001L45.3999 51.6001L37.6999 46.3001L36.8999 47.5001L44.5999 52.8001C45.4999 53.4001 45.6999 54.6001 45.0999 55.5001C44.1999 56.7001 42.7999 56.3001 42.3999 56.0001L34.6999 50.7001L34.5999 50.8001L33.7999 52.0001L39.0999 55.5001C39.9999 56.1001 40.1999 57.3001 39.5999 58.2001C38.9999 59.1001 37.7999 59.3001 36.8999 58.7001L31.8999 55.2001L30.9999 56.4001L32.7999 57.7001V57.8001C33.6999 58.4001 33.8999 59.6001 33.2999 60.5001C32.9999 60.9001 32.5999 61.2001 31.9999 61.3001C31.4999 61.4001 30.9999 61.3001 30.5999 61.0001C30.7999 60.5001 30.7999 60.0001 30.7999 59.5001C30.6999 58.7001 30.2999 58.0001 29.5999 57.5001C29.0999 57.2001 28.5999 57.0001 28.0999 57.0001L28.3999 56.5001C29.4999 55.0001 29.1999 53.0001 27.6999 51.9001C25.8999 50.7001 24.2999 51.5001 23.7999 51.9001C23.5999 51.2001 23.1999 50.6001 22.5999 50.2001C20.7999 49.0001 19.2999 49.8001 18.6999 50.2001C17.9999 48.2001 16.1999 47.9001 15.4999 47.9001C15.3999 47.9001 15.1999 47.9001 15.0999 48.0001C14.9999 47.9001 14.9999 47.8001 14.8999 47.6001C14.7999 47.4001 14.6999 47.2001 14.5999 46.9001C14.0999 45.9001 13.0999 45.0001 12.4999 44.5001L19.2999 34.6001C19.3999 34.4001 19.4999 34.2001 19.5999 34.0001H25.3999L21.1999 36.4001ZM24.8999 32.6001C17.1999 24.7001 14.8999 12.7001 14.3999 9.70007C24.9999 8.20007 30.2999 4.20007 31.8999 2.70007C33.4999 4.20007 38.7999 8.20007 49.3999 9.70007C48.9999 12.7001 46.8999 24.8001 39.1999 32.6001H24.8999Z" fill="currentcolor"/>
<path d="M54.12 40.6927L53.3374 39.4131L52.0578 40.1956L52.8403 41.4753L54.12 40.6927Z" fill="currentcolor"/>
<path d="M54.3789 43.8738L55.6587 43.0914L54.8763 41.8116L53.5965 42.594L54.3789 43.8738Z" fill="currentcolor"/>
<path d="M10.1834 42.9628L8.95117 42.1075L8.09587 43.3398L9.32812 44.1951L10.1834 42.9628Z" fill="currentcolor"/>
<path d="M11.8711 40.5795L10.6392 39.7236L9.78326 40.9556L11.0152 41.8115L11.8711 40.5795Z" fill="currentcolor"/>
</svg>
