<svg viewBox="0 0 64 64" fill="none" xmlns="http://www.w3.org/2000/svg">
<path d="M58.5999 41.9L45.1999 47.8C45.1999 47.6 45.2999 47.4 45.2999 47.2C45.2999 45.3 43.7999 43.8 41.9999 43.8C41.9999 43.8 41.9999 43.8 41.8999 43.8H32.5999L25.4999 40.5C23.9999 39.8 22.3999 39.5 20.7999 39.5H15.3999V37H0.399902V38.5H13.8999V57.7H3.0999V59.2H15.3999V56.7H19.4999L32.3999 61C33.2999 61.3 34.1999 61.4 35.0999 61.4C36.3999 61.4 37.7999 61.1 38.9999 60.5L61.3999 48.8C63.2999 48 64.0999 45.9 63.3999 44C62.5999 42 60.3999 41.2 58.5999 41.9ZM60.7999 47.4L38.2999 59.1C36.5999 60 34.6999 60.1 32.8999 59.5L19.8999 55.2H15.3999V41H20.7999C22.1999 41 23.5999 41.3 24.8999 41.9L32.1999 45.3H41.7999C42.7999 45.3 43.6999 46.2 43.6999 47.2C43.6999 48.3 42.7999 49.2 41.6999 49.2H30.4999H30.3999C29.3999 49.4 27.3999 50.3 27.3999 52.3H28.8999C28.8999 51.1 30.2999 50.7 30.5999 50.7H41.8999C42.4999 50.7 42.9999 50.5 43.4999 50.3L59.1999 43.4C60.2999 42.9 61.5999 43.5 62.0999 44.6C62.4999 45.6 61.8999 46.9 60.7999 47.4Z" fill="currentcolor"/>
<path d="M11.3999 53.4H9.8999V54.9H11.3999V53.4Z" fill="currentcolor"/>
<path d="M8.2998 53.4H6.7998V54.9H8.2998V53.4Z" fill="currentcolor"/>
<path d="M60.5001 28.7V23.3L57.1001 22.7C56.8001 21.4 56.3001 20.2 55.6001 19.1L57.6001 16.3L53.8001 12.5L51.0001 14.5C49.9001 13.8 48.7001 13.3 47.4001 13L46.8001 9.59998H41.4001L40.8001 13C39.5001 13.3 38.3001 13.8 37.2001 14.5L34.4001 12.6L30.6001 16.4L32.5001 19.2C31.8001 20.3 31.3001 21.5 31.0001 22.8L27.6001 23.4V28.8L31.0001 29.4C31.3001 30.6 31.8001 31.8 32.5001 33L30.5001 35.8L34.3001 39.6L37.1001 37.7C38.2001 38.4 39.4001 38.9 40.7001 39.2L41.3001 42.6H46.7001L47.3001 39.2C48.6001 38.9 49.8001 38.4 50.9001 37.7L53.7001 39.7L57.5001 35.9L55.6001 33.1C56.3001 32 56.8001 30.8 57.1001 29.5L60.5001 28.7ZM53.8001 32.9L55.6001 35.5L53.5001 37.6L51.0001 35.8C49.4001 36.8 47.8001 37.5 46.1001 37.8L45.5001 40.9H42.6001L42.0001 37.7C40.3001 37.4 38.7001 36.7 37.2001 35.7L34.6001 37.5L32.5001 35.4L34.3001 32.8C33.3001 31.3 32.6001 29.7 32.3001 27.9L29.2001 27.3V24.4L32.3001 23.8C32.6001 22.1 33.3001 20.5 34.3001 19L32.5001 16.4L34.6001 14.3L37.2001 16.1C38.7001 15.1 40.3001 14.4 42.1001 14.1L42.7001 11H45.6001L46.2001 14.1C47.9001 14.4 49.5001 15.1 51.0001 16.2L53.6001 14.4L55.7001 16.5L53.9001 19.1C54.9001 20.7 55.7001 22.3 55.9001 24L59.0001 24.6V27.5L55.9001 28.1C55.5001 29.9 54.9001 31.5 53.8001 32.9Z" fill="currentcolor"/>
<path d="M44.1001 34.5C48.8001 34.5 52.6001 30.7 52.6001 26C52.6001 21.3 48.8001 17.5 44.1001 17.5C39.4001 17.5 35.6001 21.3 35.6001 26C35.6001 28.3 36.5001 30.4 38.1001 32C39.7001 33.6 41.8001 34.5 44.1001 34.5ZM44.1001 18.9C48.0001 18.9 51.1001 22.1 51.1001 26C51.1001 29.9 47.9001 33 44.1001 33V33.7V33C42.2001 33 40.5001 32.2 39.1001 30.9C37.8001 29.6 37.1001 27.8 37.1001 25.9C37.1001 22.1 40.2001 18.9 44.1001 18.9Z" fill="currentcolor"/>
<path d="M28.2001 13.9L30.4001 12.7L29.0001 8.69998L26.6001 9.09998C26.1001 8.39998 25.6001 7.79998 24.9001 7.19998L25.6001 4.79998L21.8001 2.99998L20.3001 4.99998C19.5001 4.79998 18.6001 4.79998 17.8001 4.79998L16.6001 2.59998L12.7001 3.99998L13.0001 6.39998C12.3001 6.89998 11.7001 7.39998 11.1001 8.09998L8.8001 7.39998L7.0001 11.1L9.0001 12.6C8.8001 13.4 8.8001 14.3 8.8001 15.1L6.6001 16.3L7.9001 20.2L10.3001 19.8C10.8001 20.5 11.3001 21.1 12.0001 21.7L11.3001 24.1L15.0001 25.9L16.5001 23.9C17.3001 24.1 18.2001 24.1 19.0001 24.1L20.2001 26.3L24.1001 25L23.7001 22.6C24.4001 22.1 25.0001 21.6 25.6001 20.9L28.0001 21.6L29.8001 17.9L27.8001 16.4C28.2001 15.6 28.3001 14.7 28.2001 13.9ZM28.2001 18.3L27.4001 19.9L25.3001 19.3C24.6001 20.3 23.6001 21.2 22.3001 21.9L22.6001 24.1L21.0001 24.6L19.9001 22.7C18.6001 22.9 17.2001 22.8 16.0001 22.4L14.7001 24.2L13.1001 23.4L13.7001 21.3C12.6001 20.5 11.7001 19.5 11.1001 18.3L8.9001 18.6L8.4001 17L10.3001 15.9C10.1001 14.6 10.2001 13.3 10.6001 12L8.8001 10.7L9.6001 9.19998L11.7001 9.79998C12.4001 8.79998 13.4001 7.89998 14.7001 7.19998L14.3001 4.99998L15.9001 4.39998L17.0001 6.29998C18.3001 6.09998 19.6001 6.19998 20.9001 6.59998L22.2001 4.79998L23.7001 5.59998L23.1001 7.69998C24.2001 8.59998 25.0001 9.59998 25.7001 10.7L27.9001 10.4L28.5001 12L26.6001 13.1C26.8001 14.4 26.7001 15.7 26.3001 17L28.2001 18.3Z" fill="currentcolor"/>
<path d="M18.5001 20.8C19.2001 20.8 19.9001 20.7 20.5001 20.5C22.1001 20 23.4001 18.8 24.1001 17.3C24.8001 15.8 24.9001 14.1 24.4001 12.5C23.5001 9.99997 21.2001 8.29997 18.5001 8.29997C17.8001 8.29997 17.1001 8.39997 16.5001 8.59997C14.9001 9.09997 13.6001 10.3 12.9001 11.8C12.2001 13.3 12.1001 15 12.6001 16.6C13.4001 19.1 15.8001 20.8 18.5001 20.8ZM14.2001 12.4C14.8001 11.3 15.7001 10.4 17.0001 9.99997C17.5001 9.79997 18.0001 9.69997 18.5001 9.69997C20.5001 9.69997 22.4001 11 23.0001 12.9C23.4001 14.1 23.3001 15.4 22.8001 16.6C22.2001 17.7 21.3001 18.6 20.0001 19C19.5001 19.2 19.0001 19.3 18.5001 19.3C16.5001 19.3 14.6001 18 14.0001 16.1C13.5001 14.8 13.6001 13.5 14.2001 12.4Z" fill="currentcolor"/>
</svg>
