<svg viewBox="0 0 64 64" fill="none" xmlns="http://www.w3.org/2000/svg">
<path d="M61.3 34.4L55.7001 30.9C56.7001 29.7 57.2001 28.3 57.2001 26.7C57.2001 23.1 54.3 20.2 50.7001 20.2C47.1001 20.2 44.2001 23.1 44.2001 26.7C44.2001 28.2 44.7001 29.7 45.7001 30.9L42.4001 33L37.8 30.1C39 28.7 39.7001 26.9 39.7001 25.1C39.7001 20.9 36.3 17.4 32 17.4C27.8 17.4 24.3 20.8 24.3 25.1C24.3 27 25 28.8 26.2001 30.1L21.6 33L18.3 30.9C19.3 29.7 19.8 28.3 19.8 26.7C19.8 23.1 16.9 20.2 13.3 20.2C9.70005 20.2 6.80005 23.1 6.80005 26.7C6.80005 28.2 7.30005 29.7 8.30005 30.9L2.70005 34.4C1.20005 35.3 0.300049 36.9 0.300049 38.7V45H16.5V46.9H47.4001V45H63.6V38.7C63.6 36.9 62.8 35.3 61.3 34.4ZM45.7001 26.7C45.7001 23.9 47.9001 21.7 50.7001 21.7C53.5 21.7 55.7001 23.9 55.7001 26.7C55.7001 28.1 55.1 29.5 54 30.5C52 32.1 49.4001 32.2 47.4001 30.5C46.3001 29.5 45.7001 28.2 45.7001 26.7ZM25.8 25.1C25.8 21.7 28.6 18.9 32 18.9C35.4001 18.9 38.2001 21.7 38.2001 25.1C38.2001 26.9 37.4 28.6 36.1 29.7C33.9 31.6 30.3 31.8 27.9 29.7C26.6 28.5 25.8 26.8 25.8 25.1ZM8.30005 26.7C8.30005 23.9 10.5 21.7 13.3 21.7C16.1 21.7 18.3 23.9 18.3 26.7C18.3 28.1 17.7001 29.5 16.6 30.5C15.2001 31.7 13.2 32 11.5 31.4C10.9 31.2 10.4 30.9 10 30.5C8.90005 29.5 8.30005 28.2 8.30005 26.7ZM16.5 43.5H1.90005V38.7C1.90005 37.5 2.50005 36.3 3.60005 35.7L9.50005 32C12.8 34.5 16.1 32.7 17.2001 32L20.2001 33.9L19.3 34.5C17.6 35.6 16.5 37.5 16.5 39.5V43.5ZM45.9001 45.3H18V39.4C18 37.9 18.8001 36.5 20.1 35.6L27.3 31.1C27.6 31.3 27.9001 31.5 28.2001 31.7C31 33.2 34.2001 32.8 36.5 31.1L43.7001 35.6C45 36.4 45.8 37.8 45.8 39.4V45.3H45.9001ZM62.1 43.5H47.4001V39.5C47.4001 37.4 46.4 35.6 44.6 34.5L43.7001 34L46.7001 32.1C49.1001 33.9 52.3001 33.7 54.4001 32.1L60.3 35.8C61.3 36.5 62 37.6 62 38.8V43.5H62.1Z" fill="currentcolor"/>
<path d="M13.6001 9.90001L12.6001 8.70001C12.2001 9.00001 11.8001 9.40001 11.4001 9.70001L12.4001 10.8C12.8001 10.6 13.2001 10.2 13.6001 9.90001Z" fill="currentcolor"/>
<path d="M10.6 12.8L9.5 11.8C9.2 12.2 8.8 12.6 8.5 13L9.7 13.9C10 13.5 10.3 13.1 10.6 12.8Z" fill="currentcolor"/>
<path d="M16.9 7.50001L16.1 6.20001C15.7 6.50001 15.2 6.80001 14.8 7.00001L15.7 8.20001C16.1 8.10001 16.5 7.80001 16.9 7.50001Z" fill="currentcolor"/>
<path d="M20.5 5.60001L19.9 4.20001C19.4 4.40001 19 4.60001 18.5 4.90001L19.2 6.20001C19.6 6.00001 20.1 5.80001 20.5 5.60001Z" fill="currentcolor"/>
<path d="M8.1 16L6.9 15.2C6.6 15.6 6.3 16 6 16.4L7.3 17.2C7.6 16.8 7.8 16.4 8.1 16Z" fill="currentcolor"/>
<path d="M6.09995 19.5L4.79995 18.8C4.59995 19.3 4.39995 19.7 4.19995 20.2L5.59995 20.8C5.69995 20.4 5.89995 20 6.09995 19.5Z" fill="currentcolor"/>
<path d="M7.20005 46.9C7.00005 46.6 6.80005 46.2 6.60005 45.9L5.30005 46.6C5.50005 47 5.70005 47.3 5.90005 47.7L7.20005 46.9Z" fill="currentcolor"/>
<path d="M20.8 58.7C20.3 58.5 19.9 58.3 19.5 58.1L18.8 59.5C19.3 59.7 19.7001 59.9 20.2001 60.1L20.8 58.7Z" fill="currentcolor"/>
<path d="M7.80005 50.4C8.10005 50.8 8.40005 51.2 8.80005 51.6L10 50.6C9.70005 50.2 9.40005 49.8 9.10005 49.5L7.80005 50.4Z" fill="currentcolor"/>
<path d="M16.8 56.6C16.4 56.3 16 56.1 15.6 55.8L14.7 57C15.1 57.3 15.5 57.6 16 57.8L16.8 56.6Z" fill="currentcolor"/>
<path d="M12 52.9L11 54C11.4 54.4 11.7 54.7 12.1 55L13.1 53.9C12.7 53.6 12.4 53.2 12 52.9Z" fill="currentcolor"/>
<path d="M58.9001 46.3L57.6001 45.6C57.4001 46 57.1001 46.5 56.9001 46.9L58.2001 47.7C58.4001 47.2 58.7001 46.8 58.9001 46.3Z" fill="currentcolor"/>
<path d="M51.3 53.6L52.3 54.7C52.7 54.4 53.1001 54 53.4001 53.6L52.3 52.5C52 53 51.7 53.3 51.3 53.6Z" fill="currentcolor"/>
<path d="M54.4001 50.5L55.6001 51.5C55.9001 51.1 56.2001 50.7 56.5001 50.3L55.3001 49.4C55.0001 49.7 54.7001 50.1 54.4001 50.5Z" fill="currentcolor"/>
<path d="M45.3 57.8C44.9 58 44.4 58.2 44 58.4L44.6 59.8C45.1 59.6 45.5 59.4 46 59.1L45.3 57.8Z" fill="currentcolor"/>
<path d="M49.1001 55.5C48.7001 55.8 48.3001 56.1 47.9001 56.3L48.7001 57.6C49.1001 57.3 49.6001 57 50.0001 56.7L49.1001 55.5Z" fill="currentcolor"/>
<path d="M55.4001 12.6C55.1001 12.2 54.7001 11.8 54.4001 11.4L53.3 12.4C53.6 12.8 54 13.1 54.3 13.5L55.4001 12.6Z" fill="currentcolor"/>
<path d="M59.9001 19.9C59.7001 19.4 59.5001 19 59.2001 18.5L57.9001 19.2C58.1001 19.6 58.3001 20.1 58.5001 20.5L59.9001 19.9Z" fill="currentcolor"/>
<path d="M52.4001 9.5C52.0001 9.2 51.6001 8.8 51.2001 8.5L50.3 9.7C50.7 10 51.0001 10.3 51.4001 10.7L52.4001 9.5Z" fill="currentcolor"/>
<path d="M57.9001 16.1C57.6001 15.7 57.3001 15.2 57.1001 14.8L55.9001 15.7C56.2001 16.1 56.4001 16.5 56.7001 16.9L57.9001 16.1Z" fill="currentcolor"/>
<path d="M49 6.89998C48.6 6.59998 48.1 6.29998 47.7 6.09998L47 7.39998C47.4 7.69998 47.8 7.89998 48.2 8.19998L49 6.89998Z" fill="currentcolor"/>
<path d="M45.3 4.69998C44.8 4.49998 44.4001 4.29998 43.9001 4.09998L43.3 5.49998C43.8 5.69998 44.2 5.89998 44.6 6.09998L45.3 4.69998Z" fill="currentcolor"/>
<path d="M30.8 9.2C30.5 9 30.4 8.6 30.4 8.3H28.9C28.9 9.1 29.2 9.8 29.9 10.3C30.3 10.6 30.8 10.9 31.3 11V12.5H32.8V11C33.3 10.9 33.8001 10.7 34.2001 10.3C34.8001 9.8 35.2001 9.1 35.2001 8.3C35.2001 7.5 34.9001 6.8 34.2001 6.3C33.6001 5.8 32.8 5.5 32 5.5C31.5 5.5 31.1 5.4 30.8 5.1C30.5 4.9 30.4 4.5 30.4 4.2C30.4 3.9 30.6 3.6 30.8 3.3C31.4 2.8 32.5001 2.8 33.2001 3.3C33.5001 3.5 33.6 3.9 33.6 4.2H35.1C35.1 3.4 34.8 2.7 34.1 2.2C33.7 1.9 33.2001 1.6 32.7001 1.5V0H31.2001V1.5C30.7001 1.6 30.2 1.8 29.8 2.2C29.2 2.7 28.8 3.4 28.8 4.2C28.8 5 29.1 5.7 29.8 6.2C30.4 6.7 31.2 7 32 7C32.5 7 32.9001 7.1 33.2001 7.4C33.5001 7.6 33.6 8 33.6 8.3C33.6 8.6 33.4001 8.9 33.2001 9.2C32.6001 9.7 31.4 9.7 30.8 9.2Z" fill="currentcolor"/>
<path d="M33.2001 54.8C33.5001 55 33.6 55.4 33.6 55.7H35.1C35.1 54.9 34.8 54.2 34.1 53.7C33.7 53.4 33.2001 53.1 32.7001 53V51.5H31.2001V53C30.7001 53.1 30.2 53.3 29.8 53.7C29.2 54.2 28.8 54.9 28.8 55.7C28.8 56.5 29.1 57.2 29.8 57.7C30.4 58.2 31.2 58.5 32 58.5C32.5 58.5 32.9001 58.6 33.2001 58.9C33.5001 59.1 33.6 59.5 33.6 59.8C33.6 60.1 33.4001 60.4 33.2001 60.7C32.6001 61.2 31.4 61.2 30.8 60.7C30.5 60.5 30.4 60.1 30.4 59.8H28.9C28.9 60.6 29.2 61.3 29.9 61.8C30.3 62.1 30.8 62.4 31.3 62.5V64H32.8V62.5C33.3 62.4 33.8001 62.2 34.2001 61.8C34.8001 61.3 35.2001 60.6 35.2001 59.8C35.2001 59 34.9001 58.3 34.2001 57.8C33.6001 57.3 32.8 57 32 57C31.5 57 31.1 56.9 30.8 56.6C30.5 56.4 30.4 56 30.4 55.7C30.4 55.4 30.6 55.1 30.8 54.8C31.4 54.3 32.6001 54.3 33.2001 54.8Z" fill="currentcolor"/>
</svg>
