<svg viewBox="0 0 64 64" fill="none" xmlns="http://www.w3.org/2000/svg">
<path d="M39.3999 21.1C36.9999 20.4 34.5999 20.1 32.2999 20.1C32.1999 20.1 32.0999 20.1 31.9999 20.1C31.8999 20.1 31.7999 20.1 31.6999 20.1C29.3999 20.1 26.9999 20.5 24.5999 21.1C14.4999 23.9 7.1999 31.2 6.8999 31.5L6.3999 32L6.8999 32.5C7.0999 32.7 10.8999 36.5 16.8999 39.7C22.0999 42.5 27.1999 43.9 32.0999 43.9C36.9999 43.9 42.0999 42.5 47.2999 39.7C53.2999 36.5 57.0999 32.6 57.2999 32.5L57.7999 32L57.2999 31.5C56.7999 31.2 49.4999 23.9 39.3999 21.1ZM31.9999 42.4C26.2999 42.4 21.5999 37.7 21.5999 32C21.5999 26.4 26.0999 21.8 31.6999 21.6C31.8999 21.6 32.0999 21.6 32.2999 21.6C37.8999 21.8 42.3999 26.4 42.3999 32C42.3999 37.7 37.6999 42.4 31.9999 42.4ZM17.4999 38.4C12.9999 36 9.6999 33.1 8.4999 32C10.2999 30.3 16.5999 25 24.5999 22.7C21.7999 24.9 20.0999 28.3 20.0999 32C20.0999 35.8 21.8999 39.2 24.5999 41.3C22.2999 40.7 19.8999 39.7 17.4999 38.4ZM46.4999 38.4C44.0999 39.7 41.7999 40.6 39.3999 41.3C42.1999 39.1 43.8999 35.7 43.8999 32C43.8999 28.2 42.0999 24.9 39.3999 22.7C47.3999 25 53.6999 30.3 55.4999 32C54.1999 33.2 50.8999 36 46.4999 38.4Z" fill="currentcolor"/>
<path d="M31.9999 28.4C29.9999 28.4 28.3999 30 28.3999 32C28.3999 34 29.9999 35.6 31.9999 35.6C33.9999 35.6 35.5999 34 35.5999 32C35.5999 30 33.9999 28.4 31.9999 28.4ZM31.9999 34.1C30.8999 34.1 29.8999 33.2 29.8999 32C29.8999 30.9 30.7999 29.9 31.9999 29.9C33.0999 29.9 34.0999 30.8 34.0999 32C34.0999 33.1 33.0999 34.1 31.9999 34.1Z" fill="currentcolor"/>
<path d="M14.6999 43.2352L13.9497 41.9362L12.6507 42.6863L13.4009 43.9853L14.6999 43.2352Z" fill="currentcolor"/>
<path d="M9.85213 44.2962L10.603 45.5947L11.9016 44.8438L11.1507 43.5453L9.85213 44.2962Z" fill="currentcolor"/>
<path d="M4.21541 47.552L4.96631 48.8506L6.17829 48.1497L5.42739 46.8512L4.21541 47.552Z" fill="currentcolor"/>
<path d="M7.00928 45.927L7.75928 47.226L9.05828 46.476L8.30828 45.177L7.00928 45.927Z" fill="currentcolor"/>
<path d="M14.9594 48.4044L16.0205 49.4646L17.0807 48.4035L16.0196 47.3433L14.9594 48.4044Z" fill="currentcolor"/>
<path d="M13.1363 52.2968L14.1968 51.2358L13.1358 50.1753L12.0753 51.2363L13.1363 52.2968Z" fill="currentcolor"/>
<path d="M9.22308 54.0672L10.2842 55.1274L11.3444 54.0663L10.2833 53.0061L9.22308 54.0672Z" fill="currentcolor"/>
<path d="M17.6855 45.5721L18.7466 46.6323L19.8068 45.5712L18.7457 44.511L17.6855 45.5721Z" fill="currentcolor"/>
<path d="M17.4943 56.1115L18.7939 56.8605L19.5429 55.5609L18.2433 54.8119L17.4943 56.1115Z" fill="currentcolor"/>
<path d="M17.1123 59.6681L17.8623 58.3691L16.5633 57.6191L15.8133 58.9181L17.1123 59.6681Z" fill="currentcolor"/>
<path d="M20.7941 50.3749L22.0938 51.124L22.8428 49.8244L21.5432 49.0753L20.7941 50.3749Z" fill="currentcolor"/>
<path d="M24.451 46.9726L23.1519 46.2229L22.4022 47.5221L23.7013 48.2718L24.451 46.9726Z" fill="currentcolor"/>
<path d="M19.1276 53.1763L20.4272 53.9253L21.1762 52.6257L19.8766 51.8767L19.1276 53.1763Z" fill="currentcolor"/>
<path d="M27.7595 51.1156L26.3105 50.728L25.9229 52.177L27.3719 52.5646L27.7595 51.1156Z" fill="currentcolor"/>
<path d="M26.8933 48.6571L28.3423 49.0447L28.7299 47.5957L27.2809 47.2081L26.8933 48.6571Z" fill="currentcolor"/>
<path d="M24.9602 55.6512L26.4092 56.0388L26.7968 54.5898L25.3478 54.2022L24.9602 55.6512Z" fill="currentcolor"/>
<path d="M24.4317 57.681L24.0439 59.13L25.4929 59.5178L25.8807 58.0688L24.4317 57.681Z" fill="currentcolor"/>
<path d="M23.154 62.5738L24.603 62.9614L24.9906 61.5124L23.5416 61.1248L23.154 62.5738Z" fill="currentcolor"/>
<path d="M32.7998 58.8H31.2998V60.3H32.7998V58.8Z" fill="currentcolor"/>
<path d="M32.7998 55.1H31.2998V56.6H32.7998V55.1Z" fill="currentcolor"/>
<path d="M32.7998 47.7H31.2998V49.2H32.7998V47.7Z" fill="currentcolor"/>
<path d="M32.7998 51.4H31.2998V52.9H32.7998V51.4Z" fill="currentcolor"/>
<path d="M32.7998 62.5H31.2998V64H32.7998V62.5Z" fill="currentcolor"/>
<path d="M39.0508 61.5121L39.4395 62.9608L40.8882 62.5722L40.4995 61.1235L39.0508 61.5121Z" fill="currentcolor"/>
<path d="M38.5719 54.1459L37.123 54.5344L37.5115 55.9833L38.9604 55.5948L38.5719 54.1459Z" fill="currentcolor"/>
<path d="M38.0333 52.1414L37.644 50.6929L36.1955 51.0821L36.5847 52.5307L38.0333 52.1414Z" fill="currentcolor"/>
<path d="M38.4633 59.4941L39.9121 59.1055L39.5235 57.6566L38.0746 58.0453L38.4633 59.4941Z" fill="currentcolor"/>
<path d="M35.3158 47.5623L35.7051 49.011L37.1538 48.6217L36.7645 47.173L35.3158 47.5623Z" fill="currentcolor"/>
<path d="M41.6225 47.4376L40.8721 46.1389L39.5734 46.8894L40.3238 48.1881L41.6225 47.4376Z" fill="currentcolor"/>
<path d="M42.5134 49.0076L41.2148 49.7583L41.9656 51.0569L43.2641 50.3061L42.5134 49.0076Z" fill="currentcolor"/>
<path d="M48.1616 58.9026L47.4111 57.6038L46.1123 58.3542L46.8627 59.6531L48.1616 58.9026Z" fill="currentcolor"/>
<path d="M44.1423 51.9259L42.8438 52.6766L43.5945 53.9752L44.8931 53.2244L44.1423 51.9259Z" fill="currentcolor"/>
<path d="M46.573 56.069L45.8223 54.7703L44.5236 55.521L45.2743 56.8197L46.573 56.069Z" fill="currentcolor"/>
<path d="M46.2344 45.521L45.1733 44.4608L44.1131 45.5219L45.1742 46.5821L46.2344 45.521Z" fill="currentcolor"/>
<path d="M46.9147 48.4126L47.9761 49.4725L49.036 48.4111L47.9746 47.3512L46.9147 48.4126Z" fill="currentcolor"/>
<path d="M51.8897 51.2361L50.8286 50.1759L49.7684 51.237L50.8295 52.2972L51.8897 51.2361Z" fill="currentcolor"/>
<path d="M52.6513 54.0765L53.7124 55.1367L54.7726 54.0756L53.7115 53.0154L52.6513 54.0765Z" fill="currentcolor"/>
<path d="M54.9899 46.4548L56.2891 47.2045L57.0388 45.9053L55.7396 45.1556L54.9899 46.4548Z" fill="currentcolor"/>
<path d="M54.1922 44.2771L52.8926 43.528L52.1435 44.8276L53.4431 45.5767L54.1922 44.2771Z" fill="currentcolor"/>
<path d="M51.3794 42.68L50.0801 41.9304L49.3305 43.2297L50.6298 43.9793L51.3794 42.68Z" fill="currentcolor"/>
<path d="M57.8516 48.1128L59.0645 48.8123L59.8139 47.5128L58.601 46.8134L57.8516 48.1128Z" fill="currentcolor"/>
<path d="M12.6481 21.278L13.9468 22.0284L14.6972 20.7297L13.3985 19.9793L12.6481 21.278Z" fill="currentcolor"/>
<path d="M9.78382 19.707L11.0825 20.4576L11.8331 19.1589L10.5344 18.4083L9.78382 19.707Z" fill="currentcolor"/>
<path d="M4.28544 16.4838L5.49756 17.1843L6.24816 15.8856L5.03604 15.1851L4.28544 16.4838Z" fill="currentcolor"/>
<path d="M9.08141 17.4891L7.78271 16.7386L7.03226 18.0373L8.33096 18.7878L9.08141 17.4891Z" fill="currentcolor"/>
<path d="M11.3873 9.96515L10.3271 8.90405L9.26605 9.96425L10.3262 11.0254L11.3873 9.96515Z" fill="currentcolor"/>
<path d="M17.0451 15.5444L15.9849 14.4833L14.9238 15.5435L15.984 16.6046L17.0451 15.5444Z" fill="currentcolor"/>
<path d="M14.2146 12.7547L13.1543 11.6937L12.0933 12.7541L13.1537 13.815L14.2146 12.7547Z" fill="currentcolor"/>
<path d="M17.7274 18.3605L18.7876 19.4216L19.8487 18.3614L18.7885 17.3003L17.7274 18.3605Z" fill="currentcolor"/>
<path d="M22.3724 16.5303L23.1226 17.8293L24.4216 17.0792L23.6714 15.7802L22.3724 16.5303Z" fill="currentcolor"/>
<path d="M21.5456 14.9234L22.8447 14.1736L22.0949 12.8744L20.7957 13.6243L21.5456 14.9234Z" fill="currentcolor"/>
<path d="M17.8789 5.63152L17.1289 4.33252L15.8299 5.08252L16.5799 6.38152L17.8789 5.63152Z" fill="currentcolor"/>
<path d="M19.8752 12.1257L21.1748 11.3767L20.4259 10.0771L19.1263 10.8261L19.8752 12.1257Z" fill="currentcolor"/>
<path d="M18.2419 9.18962L19.5415 8.44067L18.7926 7.14107L17.493 7.89002L18.2419 9.18962Z" fill="currentcolor"/>
<path d="M27.2824 16.7941L28.7314 16.4065L28.3438 14.9575L26.8948 15.3451L27.2824 16.7941Z" fill="currentcolor"/>
<path d="M24.9799 2.47549L24.5923 1.02649L23.1433 1.41409L23.5309 2.86309L24.9799 2.47549Z" fill="currentcolor"/>
<path d="M26.3293 13.345L27.7783 12.9574L27.3907 11.5084L25.9417 11.896L26.3293 13.345Z" fill="currentcolor"/>
<path d="M25.3493 9.80169L26.7983 9.41394L26.4106 7.96494L24.9616 8.35269L25.3493 9.80169Z" fill="currentcolor"/>
<path d="M24.4929 6.32522L25.9419 5.93762L25.5543 4.48862L24.1053 4.87622L24.4929 6.32522Z" fill="currentcolor"/>
<path d="M32.7998 7.40002H31.2998V8.90002H32.7998V7.40002Z" fill="currentcolor"/>
<path d="M32.7998 0H31.2998V1.5H32.7998V0Z" fill="currentcolor"/>
<path d="M32.7998 3.69995H31.2998V5.19995H32.7998V3.69995Z" fill="currentcolor"/>
<path d="M32.7998 11.1H31.2998V12.6H32.7998V11.1Z" fill="currentcolor"/>
<path d="M32.7998 14.8H31.2998V16.3H32.7998V14.8Z" fill="currentcolor"/>
<path d="M39.9669 4.92857L38.5181 4.53992L38.1294 5.98877L39.5783 6.37742L39.9669 4.92857Z" fill="currentcolor"/>
<path d="M40.8711 1.42054L39.4224 1.03174L39.0336 2.48044L40.4823 2.86924L40.8711 1.42054Z" fill="currentcolor"/>
<path d="M37.1728 15.3275L35.7241 14.9387L35.3353 16.3874L36.784 16.7762L37.1728 15.3275Z" fill="currentcolor"/>
<path d="M38.0822 11.8189L36.6333 11.4304L36.2448 12.8793L37.6937 13.2678L38.0822 11.8189Z" fill="currentcolor"/>
<path d="M38.9625 8.40913L37.5137 8.02063L37.1252 9.46948L38.574 9.85798L38.9625 8.40913Z" fill="currentcolor"/>
<path d="M48.1886 5.07254L46.8896 4.32239L46.1395 5.62139L47.4385 6.37154L48.1886 5.07254Z" fill="currentcolor"/>
<path d="M46.5598 7.99309L45.2612 7.24219L44.5103 8.54074L45.8089 9.29164L46.5598 7.99309Z" fill="currentcolor"/>
<path d="M43.2658 13.6969L41.9673 12.946L41.2164 14.2446L42.5149 14.9955L43.2658 13.6969Z" fill="currentcolor"/>
<path d="M44.8947 10.7769L43.5962 10.026L42.8453 11.3246L44.1438 12.0755L44.8947 10.7769Z" fill="currentcolor"/>
<path d="M39.5672 17.0371L40.8662 17.7872L41.6164 16.4882L40.3174 15.7381L39.5672 17.0371Z" fill="currentcolor"/>
<path d="M51.9323 12.753L50.8721 11.6919L49.811 12.7521L50.8712 13.8132L51.9323 12.753Z" fill="currentcolor"/>
<path d="M54.7218 9.92389L53.6616 8.86279L52.6005 9.92299L53.6607 10.9841L54.7218 9.92389Z" fill="currentcolor"/>
<path d="M46.9798 15.5567L48.0396 16.6183L49.1011 15.5585L48.0414 14.497L46.9798 15.5567Z" fill="currentcolor"/>
<path d="M44.182 18.4521L45.2422 19.5132L46.3033 18.453L45.2431 17.3919L44.182 18.4521Z" fill="currentcolor"/>
<path d="M57.0223 18.0289L56.2725 16.7297L54.9733 17.4796L55.7232 18.7787L57.0223 18.0289Z" fill="currentcolor"/>
<path d="M59.726 16.4801L58.9771 15.1805L57.7641 15.8796L58.513 17.1792L59.726 16.4801Z" fill="currentcolor"/>
<path d="M51.363 21.3309L50.6133 20.0316L49.314 20.7813L50.0637 22.0806L51.363 21.3309Z" fill="currentcolor"/>
<path d="M54.1483 19.7039L53.3984 18.4048L52.0993 19.1546L52.8491 20.4538L54.1483 19.7039Z" fill="currentcolor"/>
</svg>
