<svg viewBox="0 0 64 64" fill="none" xmlns="http://www.w3.org/2000/svg">
<path d="M42.7999 54.7C42.4999 48.3 41.7999 41.8 41.7999 41.8C41.7999 40.2 41.2999 38.5 40.2999 36.9C39.2999 35.2 37.7999 33.9 35.8999 33.2V26.2C37.3999 25.9 38.4999 24.6 38.4999 23C38.4999 21.4 37.3999 20.1 35.8999 19.8V15H34.3999V19.8C33.0999 20.2 31.9999 21.5 31.9999 23C31.9999 24.6 33.0999 25.9 34.4999 26.2V32.7L29.0999 30.8L22.6999 42.7H20.0999L13.6999 30.8L6.7999 33.3C4.8999 34 3.2999 35.3 2.3999 37C1.3999 38.7 0.899902 40.3 0.899902 41.9C0.899902 42 0.199902 48.5 -0.100098 54.9V55.7H42.7999V54.7ZM33.4999 23C33.4999 22 34.2999 21.2 35.2999 21.2C36.2999 21.2 37.0999 22 37.0999 23C37.0999 24 36.2999 24.8 35.2999 24.8C34.2999 24.8 33.4999 24 33.4999 23ZM35.1999 54L34.6999 46.5L33.1999 46.6L33.6999 54H9.0999L9.5999 46.6L8.0999 46.5L7.6999 54H1.4999C1.7999 47.9 2.3999 42 2.3999 41.8C2.3999 40.1 3.0999 38.6 3.6999 37.6C4.4999 36.2 5.7999 35.2 7.2999 34.6L12.9999 32.6L19.1999 44.1H23.4999L29.6999 32.6L35.3999 34.6C36.9999 35.2 38.2999 36.2 38.9999 37.6C39.5999 38.6 40.2999 40.1 40.2999 41.9C40.2999 42 40.9999 47.9 41.1999 54H35.1999Z" fill="currentcolor"/>
<path d="M21.4001 28.1C26.8001 28.1 31.2001 23.7 31.2001 18.3C31.2001 12.9 26.8001 8.5 21.4001 8.5C16.0001 8.5 11.6001 12.9 11.6001 18.3C11.6001 23.7 16.0001 28.1 21.4001 28.1ZM21.4001 10C26.0001 10 29.7001 13.7 29.7001 18.3C29.7001 22.9 26.0001 26.6 21.4001 26.6C16.8001 26.6 13.1001 22.9 13.1001 18.3C13.1001 13.7 16.8001 10 21.4001 10Z" fill="currentcolor"/>
<path d="M64 33.8C64 32.2 62.9 30.9 61.4 30.6V15H60V30.6C58.5 30.9 57.5 32.2 57.5 33.8C57.5 35.4 58.6 36.7 60 37V43.9H61.5V37C62.9 36.6 64 35.3 64 33.8ZM60.7 35.6C59.7 35.6 58.9 34.8 58.9 33.8C58.9 32.8 59.7 32 60.7 32C61.7 32 62.5 32.8 62.5 33.8C62.5 34.8 61.7 35.6 60.7 35.6Z" fill="currentcolor"/>
<path d="M53 22.7V15H51.5V22.7C50.1 23 49 24.3 49 25.9C49 27.5 50.1 28.8 51.5 29.1V43.8H53V29.1C54.5 28.8 55.6 27.5 55.6 25.9C55.5 24.3 54.4 23 53 22.7ZM52.2 27.7C51.2 27.7 50.4 26.9 50.4 25.9C50.4 24.9 51.2 24.1 52.2 24.1C53.2 24.1 54 24.9 54 25.9C54.1 26.9 53.2 27.7 52.2 27.7Z" fill="currentcolor"/>
<path d="M44.5 26.2V15H43V26.2C41.5 26.5 40.5 27.8 40.5 29.4C40.5 31 41.6 32.3 43 32.6V43.9H44.5V32.5C46 32.2 47.1 30.9 47.1 29.3C47 27.8 45.9 26.5 44.5 26.2ZM43.8 31.2C42.8 31.2 42 30.4 42 29.4C42 28.4 42.8 27.6 43.8 27.6C44.8 27.6 45.6 28.4 45.6 29.4C45.6 30.4 44.8 31.2 43.8 31.2Z" fill="currentcolor"/>

</svg>
