<svg viewBox="0 0 64 64" fill="none" xmlns="http://www.w3.org/2000/svg">
<path d="M60 13.4L53.2 18.7L52.9 21.3L34.2 39.9L30.4 36.1L29.4 37.1L30.6 38.3L15.2 53.9C14.1 55 13.5 56.4 13.5 58C13.5 59.5 14.1 61 15.2 62.1L15.4 62.3C16.5 63.4 17.9 64 19.5 64C21 64 22.5 63.4 23.6 62.3L39.1 46.8L40.3 48L41.3 47L37.5 43.2L56.2 24.5L58.8 24.2L64.1 17.4L60 13.4ZM22.4 61.2C21.6 62 20.5 62.5 19.4 62.5C18.3 62.5 17.2 62.1 16.4 61.2L16.2 61C15.4 60.2 14.9 59.1 14.9 58C14.9 56.9 15.3 55.8 16.2 55L19.8 51.4L26 57.6L22.4 61.2ZM37.9 45.7L27.1 56.5L20.9 50.3L31.7 39.5L31.9 39.7L37.9 45.7ZM57.9 22.8L55.4 23.1L36.4 42.1L35.3 41L54.3 22L54.6 19.5L59.9 15.4L62.1 17.6L57.9 22.8Z" fill="currentcolor"/>
<path d="M19.0792 53.1411L18.0186 54.2018L19.0792 55.2624L20.1399 54.2018L19.0792 53.1411Z" fill="currentcolor"/>
<path d="M23.1656 57.2733L22.105 58.334L23.1656 59.3946L24.2263 58.334L23.1656 57.2733Z" fill="currentcolor"/>
<path d="M21.0523 55.206L19.9917 56.2666L21.0523 57.3273L22.113 56.2666L21.0523 55.206Z" fill="currentcolor"/>
<path d="M51.0002 5.79998L50.6002 4.69998L47.1002 8.19998L43.8002 7.89998L43.5002 4.59998L47.1002 0.999983L46.1002 0.599983C42.9002 -0.500017 39.8002 -0.100017 37.0002 2.49998C34.9002 4.59998 34.0002 7.69998 34.7002 10.6L10.5002 34.8C7.40017 34.3 4.60017 34.8 2.40017 37.1C0.000174761 39.5 -0.699825 43.1 0.500175 46.2L0.900175 47.2L4.50017 43.6L7.80018 43.9L8.10017 47.2L4.60017 50.7L5.70017 51.1C8.80017 52.3 12.3002 51.4 14.6002 49.1C16.7002 47 17.6002 43.9 16.9002 41L41.0002 16.9C41.7002 17.1 42.3002 17.1 43.0002 17.1C45.3002 17.1 47.4002 16.2 49.0002 14.6C51.3002 12.3 52.1002 8.89998 51.0002 5.79998ZM48.0002 13.6C46.0002 15.5 43.6002 16.2 40.6002 15.2L15.2002 40.6L15.3002 41C16.0002 43.5 15.4002 46.2 13.5002 48C11.9002 49.6 9.50018 50.4 7.30018 50L9.60017 47.7L9.20017 42.5L4.00017 42.1L1.60017 44.5C1.10017 42.2 1.80017 39.8 3.50017 38.1C4.80017 36.8 6.60017 36 8.50017 36C9.20017 36 9.90017 36.1 10.5002 36.3L10.9002 36.4L36.3002 11C35.3002 8.09998 36.1002 5.69998 37.9002 3.59998C39.2002 2.29998 41.0002 1.49998 42.9002 1.49998C43.4002 1.49998 43.9002 1.49998 44.3002 1.59998L42.0002 4.09998L42.4002 9.29998L47.6002 9.69998L49.9002 7.39998C50.3002 9.69998 49.6002 12 48.0002 13.6Z" fill="currentcolor"/>
</svg>
