<svg viewBox="0 0 64 64" fill="none" xmlns="http://www.w3.org/2000/svg">
<path d="M23.7001 23C23.0001 23.7 22.4001 24.6 22.1001 25.5L23.5001 26C23.8001 25.3 24.2001 24.6 24.8001 24C25.8001 23 27.1001 22.4 28.6001 22.4C29.9001 22.4 31.1001 22.8 32.0001 23.6L33.0001 22.5C31.8001 21.5 30.2001 20.9 28.6001 20.9C26.7001 21 24.9001 21.7 23.7001 23Z" fill="currentcolor"/>
<path d="M59.1 38.5C59.1 38.1 59.1 37.6 59 37.2V36.9C58.3 33.3 55 30.6 51.3 30.6H50.4C50 26.7 46.7 23.6 42.6 23.6C41 23.6 39.4 24.1 38.2 25C37 20.7 33.1 17.7 28.5 17.7C23.3 17.7 19 21.6 18.5 26.7C17.4 26.3 16.3 26.1 15.1 26.1C9.5 26.1 5 30.6 5 36.2C5 41.8 9.5 46.3 15.1 46.3H51.3C55.6 46.3 59.1 42.8 59.1 38.5ZM6.4 36.2C6.4 31.5 10.3 27.6 15 27.6C16.2 27.6 17.3 27.8 18.4 28.3C18.4 29.2 18.6 30.1 18.9 31L20.3 30.5C20 29.6 19.9 28.7 19.9 27.8C19.9 23.1 23.8 19.2 28.5 19.2C32.6 19.2 36.1 22.1 36.9 26.1C36.3 26.7 35.8 27.4 35.5 28.2L36.9 28.8C37.9 26.5 40.2 25.1 42.7 25.1C46.2 25.1 49 27.9 49 31.4V32.2H51.3C54.3 32.2 56.9 34.3 57.5 37.3V37.5C57.6 37.9 57.6 38.2 57.6 38.6C57.6 42.1 54.7 45 51.2 45H15C10.3 44.8 6.4 40.9 6.4 36.2Z" fill="currentcolor"/>
<path d="M54.4003 53.3H58.3003V51.8H51.8003V58.3H53.3003V54.4L58.6003 59.6L59.6003 58.6L54.4003 53.3Z" fill="currentcolor"/>
<path d="M62.0722 63.0919L63.1318 64.1536L64.1935 63.094L63.1339 62.0323L62.0722 63.0919Z" fill="currentcolor"/>
<path d="M62.0643 61.0654L61.0049 60.0035L59.943 61.063L61.0025 62.1248L62.0643 61.0654Z" fill="currentcolor"/>
<path d="M10.6999 58.3H12.1999V51.8H5.6999V53.3H9.5999L4.3999 58.6L5.3999 59.6L10.6999 54.4V58.3Z" fill="currentcolor"/>
<path d="M1.99055 60.9958L3.05225 62.0554L4.11185 60.9937L3.05015 59.9341L1.99055 60.9958Z" fill="currentcolor"/>
<path d="M0.869997 62.0996L-0.189453 63.1614L0.872397 64.2209L1.93185 63.159L0.869997 62.0996Z" fill="currentcolor"/>
<path d="M58.3003 12.2V10.7H54.4003L59.6003 5.39997L58.6003 4.39997L53.3003 9.59997V5.69997H51.8003V12.2H58.3003Z" fill="currentcolor"/>
<path d="M62.1299 2.99371L61.0684 1.93396L60.0086 2.99551L61.0702 4.05526L62.1299 2.99371Z" fill="currentcolor"/>
<path d="M62.0321 0.87967L63.0942 1.93882L64.1534 0.87667L63.0912 -0.18248L62.0321 0.87967Z" fill="currentcolor"/>
<path d="M5.6999 10.7V12.2H12.1999V5.69997H10.6999V9.59997L5.3999 4.39997L4.3999 5.39997L9.5999 10.7H5.6999Z" fill="currentcolor"/>
<path d="M1.93426 0.842243L0.874512 -0.219307L-0.187038 0.840443L0.872712 1.90199L1.93426 0.842243Z" fill="currentcolor"/>
<path d="M3.05271 4.06369L4.11426 3.00394L3.05451 1.94239L1.99296 3.00214L3.05271 4.06369Z" fill="currentcolor"/>
</svg>
