<svg viewBox="0 0 64 64" fill="none" xmlns="http://www.w3.org/2000/svg">
<path d="M49.8998 14.3H58.6998V39.9H5.2998V14.3H40.7998V12.8H0.799805V14.3H3.7998V39.9H0.799805V41.3H31.0998V48.8L19.1998 66.4H17.5998V67.8H22.0998V66.4H20.9998L31.0998 51.5V66.4H29.3998V67.8H34.2998V66.4H32.5998V51.5L42.7998 66.4H41.8998V67.8H46.2998V66.4H44.4998L32.5998 48.8V41.3H63.1998V39.9H60.1998V14.3H63.1998V12.8H49.8998V14.3Z" fill="currentcolor"/>
<path d="M37.3998 20.5H20.3998L16.9998 23.9L12.3998 19.2L11.2998 20.3L15.9998 24.9L11.2998 29.6L12.3998 30.7L16.9998 26L24.1998 33.1L31.1998 26.1L37.8998 32.9H48.7998L46.8998 34.8L47.9998 35.8L51.5998 32.1L47.9998 28.5L46.8998 29.5L48.7998 31.4H38.4998L31.1998 24.1L24.1998 31L18.0998 24.9L20.9998 22H37.9998L52.4998 7.49998V10.1H53.9998V4.99998H48.7998V6.39998H51.4998L37.3998 20.5Z" fill="currentcolor"/>
</svg>
