<svg viewBox="0 0 64 64" fill="none" xmlns="http://www.w3.org/2000/svg">
<path d="M58.5999 43.5L45.1999 49.4C45.1999 49.2 45.2999 49 45.2999 48.8C45.2999 46.9 43.7999 45.4 41.9999 45.4C41.9999 45.4 41.9999 45.4 41.8999 45.4H32.5999L25.4999 42.1C23.9999 41.4 22.3999 41.1 20.7999 41.1H15.3999V38.6H0.399902V40H13.8999V59.2H3.0999V60.7H15.3999V58.2H19.4999L32.3999 62.5C33.2999 62.8 34.1999 62.9 35.0999 62.9C36.3999 62.9 37.7999 62.6 38.9999 62L61.3999 50.3C62.2999 49.9 62.9999 49.2 63.3999 48.3C63.7999 47.4 63.7999 46.4 63.3999 45.5C62.5999 43.6 60.3999 42.7 58.5999 43.5ZM61.9999 47.7C61.7999 48.2 61.3999 48.7 60.7999 48.9L38.2999 60.7C36.5999 61.6 34.6999 61.7 32.8999 61.1L19.8999 56.8H15.3999V42.5H20.7999C22.1999 42.5 23.5999 42.8 24.8999 43.4L32.1999 46.8H41.7999C42.8999 46.8 43.6999 47.7 43.6999 48.7C43.6999 49.8 42.7999 50.7 41.6999 50.7H30.4999H30.3999C29.3999 50.9 27.3999 51.8 27.3999 53.8H28.8999C28.8999 52.6 30.2999 52.2 30.5999 52.2H41.8999C42.4999 52.2 42.9999 52 43.4999 51.8L59.1999 44.9C60.2999 44.4 61.5999 45 62.0999 46.1C62.1999 46.5 62.1999 47.1 61.9999 47.7Z" fill="currentcolor"/>
<path d="M8.2998 55H6.7998V56.5H8.2998V55Z" fill="currentcolor"/>
<path d="M11.3999 55H9.8999V56.5H11.3999V55Z" fill="currentcolor"/>
<path d="M56.0999 19.7L59.6999 17.7L57.6999 11.7L53.5999 12.3C52.6999 10.9 51.5999 9.7 50.2999 8.6L51.3999 4.6L45.6999 1.8L43.1999 5.2C41.5999 4.8 39.9999 4.7 38.2999 4.9L36.2999 1.3L30.2999 3.3L30.8999 7.4C29.4999 8.3 28.2999 9.4 27.1999 10.7L23.1999 9.6L20.3999 15.3L23.7999 17.8C23.3999 19.4 23.2999 21.1 23.4999 22.7L19.8999 24.7L21.8999 30.7L25.9999 30.1C26.8999 31.5 27.9999 32.7 29.1999 33.8L28.0999 37.8L33.7999 40.6L36.2999 37.2C37.8999 37.6 39.5999 37.7 41.1999 37.5L43.1999 41.1L49.1999 39.1L48.5999 35C49.9999 34.1 51.1999 33 52.2999 31.8L56.2999 32.9L59.0999 27.2L55.6999 24.7C56.0999 23 56.2999 21.3 56.0999 19.7ZM57.2999 27.5L55.5999 31L51.7999 30C50.2999 31.8 48.6999 33.3 47.0999 34.2L47.6999 38.1L43.9999 39.4L41.9999 35.8C39.7999 36.1 37.6999 36 35.6999 35.4L33.2999 38.6L29.7999 36.9L30.8999 33.1C29.1999 31.9 27.8999 30.3 26.6999 28.4L22.7999 29L21.4999 25.3L24.8999 23.4C24.5999 21.3 24.6999 19.2 25.2999 17.1L22.0999 14.7L23.7999 11.2L27.5999 12.3C28.7999 10.7 30.2999 9.3 32.2999 8.1L31.9999 4.1L35.6999 2.8L37.5999 6.2C39.7999 5.9 41.8999 6 43.8999 6.6L46.2999 3.4L49.7999 5.1L48.6999 8.9C50.3999 10.1 51.6999 11.7 52.8999 13.6L56.7999 13L58.0999 16.7L54.6999 18.6C54.9999 20.7 54.8999 22.8 54.2999 24.9L57.2999 27.5Z" fill="currentcolor"/>
<path d="M29.5997 22.4C28.9997 23 28.6997 23.8 28.7997 24.7C28.8997 26.1 30.1997 27.3 31.6997 27.3C31.9997 27.4 33.2997 28 33.3997 30L34.8997 29.9C34.7997 27.2 32.9997 26.1 31.9997 25.8H31.7997C30.9997 25.8 30.2997 25.2 30.1997 24.5C30.0997 23.7 30.5997 23.1 31.3997 22.9C31.8997 22.9 32.3997 22.7 32.7997 22.4L31.9997 21.2C31.3997 21.6 30.5997 21.5 30.1997 21C29.8997 20.7 29.7997 20.4 29.7997 20C29.7997 19.6 29.9997 19.2 30.1997 19C30.4997 18.7 30.7997 18.6 31.0997 18.6H31.7997V17.6L31.5997 17.4C31.2997 17.1 31.1997 16.8 31.1997 16.4C31.1997 16 31.2997 15.7 31.5997 15.4C32.0997 14.9 32.9997 14.9 33.4997 15.4C33.5997 15.6 33.6997 15.8 33.8997 15.9L34.8997 14.9C34.5997 14.6 34.4997 14.3 34.4997 13.9C34.4997 13.5 34.5997 13.2 34.8997 12.9C35.3997 12.4 36.2997 12.4 36.7997 12.9C37.0997 13.2 37.1997 13.5 37.1997 13.9H38.6997C38.6997 13.4 38.5997 12.9 38.2997 12.5C38.3997 12.2 38.4997 12 38.6997 11.8C39.1997 11.3 40.0997 11.3 40.5997 11.8C40.7997 12 40.8997 12.3 40.9997 12.6C40.7997 13 40.6997 13.4 40.6997 13.8H42.1997C42.1997 13.4 42.2997 13.1 42.5997 12.8C43.0997 12.3 43.9997 12.3 44.4997 12.8C44.7997 13.1 44.8997 13.4 44.8997 13.8C44.8997 14.2 44.7997 14.5 44.4997 14.8L45.4997 15.8C45.5997 15.7 45.7997 15.5 45.8997 15.3C46.3997 14.8 47.2997 14.8 47.7997 15.3C48.0997 15.6 48.1997 15.9 48.1997 16.3C48.1997 16.7 48.0997 17 47.7997 17.3L47.5997 17.6L47.6997 18.6H48.3997C48.8997 18.6 49.2997 18.9 49.4997 19.1C49.7997 19.4 49.9997 19.8 49.9997 20.3C49.9997 20.7 49.7997 21.1 49.4997 21.5C49.1997 21.8 48.9997 22 48.1997 22C47.5997 22 47.0997 22.3 46.7997 22.8C46.4997 23.3 46.1997 23.6 45.8997 23.8C44.1997 24.7 43.2997 27.9 43.1997 28.2L44.5997 28.6C44.8997 27.5 45.6997 25.6 46.5997 25.1C47.2997 24.7 47.7997 24.1 48.0997 23.6C48.0997 23.5 48.1997 23.5 48.2997 23.5C49.4997 23.5 50.0997 23 50.5997 22.6C51.1997 22 51.4997 21.2 51.4997 20.4C51.4997 19.6 51.1997 18.8 50.5997 18.2C50.2997 17.9 49.9997 17.7 49.5997 17.5C49.6997 17.2 49.7997 16.8 49.7997 16.5C49.7997 15.7 49.4997 15 48.9997 14.5C48.2997 13.8 47.2997 13.6 46.3997 13.7C46.2997 13 46.0997 12.4 45.5997 11.9C44.6997 11 43.1997 10.9 42.0997 11.5C41.9997 11.3 41.7997 11.1 41.6997 10.9C40.5997 9.8 38.7997 9.8 37.6997 10.9C37.4997 11.1 37.3997 11.3 37.1997 11.5C36.0997 11 34.6997 11.1 33.8997 12C33.3997 12.5 33.1997 13.1 33.0997 13.7C32.1997 13.5 31.1997 13.8 30.4997 14.5C29.9997 15 29.6997 15.7 29.6997 16.5C29.6997 16.9 29.7997 17.2 29.8997 17.5C29.5997 17.6 29.2997 17.8 29.0997 18.1C28.4997 18.7 28.1997 19.4 28.1997 20.2C28.1997 21 28.4997 21.7 29.0997 22.3C29.2997 22.2 29.3997 22.3 29.5997 22.4Z" fill="currentcolor"/>
<path d="M34.9 20.3L36.4 20.2C36.4 20.1 36.4 18.9 38 18.6L37.7 17.2C35.3 17.8 34.8 19.5 34.9 20.3Z" fill="currentcolor"/>
<path d="M43.1001 18.3L44.6001 18.1C44.4001 16.3 42.6001 15.7 42.5001 15.7L42.1001 17.1C42.1001 17.1 43.0001 17.4 43.1001 18.3Z" fill="currentcolor"/>
<path d="M40.5997 23.2C40.1997 23.5 39.6997 24.2 39.6997 25.4V29.3H41.1997V25.4C41.1997 24.9 41.2997 24.5 41.5997 24.3C41.9997 24 42.6997 24 42.9997 24.1L43.2997 22.7C43.0997 22.7 41.6997 22.4 40.5997 23.2Z" fill="currentcolor"/>
</svg>
