<svg viewBox="0 0 64 64" fill="none" xmlns="http://www.w3.org/2000/svg">
<path d="M22.4 18.7L14.7 26.4H17.8V38.3H19.2V26.4H23V24.9H18.2L22.4 20.7L26.6 24.9H25.3V48.7H26.8V26.4H30.1L22.4 18.7Z" fill="currentcolor"/>
<path d="M32.9999 35.5H34.4999V18.8H38.1999V17.3H33.3999L37.5999 13.2L41.7999 17.3H40.4999V38.3H41.9999V18.8H45.2999L37.5999 11.1L29.8999 18.8H32.9999V35.5Z" fill="currentcolor"/>
<path d="M49.7 34.8H48.2V36.3H49.7V34.8Z" fill="currentcolor"/>
<path d="M34.5 37.4H33V38.9H34.5V37.4Z" fill="currentcolor"/>
<path d="M34.5 43.2H33V44.7H34.5V43.2Z" fill="currentcolor"/>
<path d="M34.5 40.3H33V41.8H34.5V40.3Z" fill="currentcolor"/>
<path d="M19.3 43.1H17.8V44.6H19.3V43.1Z" fill="currentcolor"/>
<path d="M19.3 40.2H17.8V41.7H19.3V40.2Z" fill="currentcolor"/>
<path d="M4 42.7H2.5V44.2H4V42.7Z" fill="currentcolor"/>
<path d="M48.2001 33H49.7001V11.7H53.4001V10.2H48.7001L52.8001 6.09998L57.0001 10.2H55.7001V39.2H57.2001V11.7H60.6001L52.8001 3.99998L45.1001 11.7H48.2001V33Z" fill="currentcolor"/>
<path d="M-0.5 33.9H2.5V40.9H4V33.9H7.8V32.5H3L7.2 28.3L11.4 32.5H10.1V48.7H11.5V33.9H14.9L7.2 26.2L-0.5 33.9Z" fill="currentcolor"/>
<path d="M64.5 55.8V50.8L61.4 50.2C61.2 49.1 60.8 48.1 60.2 47.1L62 44.5L58.5 41L55.9 42.8C54.9 42.2 53.9 41.8 52.7 41.5L52.2 38.4H47.2L46.5999 41.5C45.4999 41.8 44.4 42.2 43.4 42.8L40.7999 41L37.2999 44.5L39.0999 47.1C38.4999 48.1 38.0999 49.1 37.7999 50.3L34.7 50.8V55.8L37.7999 56.4C38.0999 57.5 38.4999 58.6 39.0999 59.6L37.2999 62.2L40.7999 65.7L43.4 63.9C44.4 64.5 45.4999 64.9 46.5999 65.2L47.0999 68.3H52.0999L52.7 65.2C53.8 64.9 54.9 64.5 55.9 63.9L58.5 65.7L62 62.2L60.2 59.6C60.8 58.6 61.2 57.5 61.5 56.4L64.5 55.8ZM58.2999 59.6L59.9 62L58.0999 63.8L55.7999 62.1C54.5 63 53 63.6 51.2999 63.9L50.7999 66.7H48.2999L47.7999 63.9C46.2999 63.7 44.7999 63 43.2999 62L40.9 63.6L39.0999 61.8L40.7 59.4C39.8 58.1 39.2 56.6 38.9 54.9L36.0999 54.4V51.9L38.9 51.4C39.2 49.8 39.7999 48.3 40.7999 46.9L39.2 44.5L41 42.7L43.4 44.3C44.8 43.3 46.3 42.7 47.9 42.5L48.4 39.7H50.9L51.4 42.5C52.9 42.7 54.4 43.4 55.9 44.4L58.2999 42.8L60.0999 44.6L58.4 47.1C59.3 48.5 60 50 60.2 51.6L63 52.1V54.6L60.2 55.1C59.9 56.9 59.1999 58.4 58.2999 59.6Z" fill="currentcolor"/>
<path d="M49.6 45.5C45.3 45.5 41.8 49 41.8 53.2C41.8 57.5 45.3 61 49.5 61C53.8 61 57.3 57.5 57.3 53.3C57.4 49 53.9 45.5 49.6 45.5ZM49.6 59.6V60.3V59.6C46.1 59.6 43.3 56.7 43.3 53.2C43.3 49.7 46.2001 46.9 49.7001 46.9C53.2001 46.9 56 49.8 56 53.3C55.9 56.8 53.1 59.6 49.6 59.6Z" fill="currentcolor"/>
</svg>
