<svg viewBox="0 0 64 64" fill="none" xmlns="http://www.w3.org/2000/svg">
<path d="M57.4001 31.5C57.1001 31.2 49.7001 23.8 39.5001 21C37.1001 20.3 34.7001 20 32.3001 20C32.2001 20 32.1001 20 32.0001 20C31.9001 20 31.8001 20 31.7001 20C29.3001 20 27.0001 20.4 24.5001 21C14.3001 23.8 6.9001 31.2 6.6001 31.5L6.1001 32L6.6001 32.5C6.8001 32.7 10.6001 36.6 16.7001 39.8C21.9001 42.6 27.0001 44 32.0001 44C37.0001 44 42.1001 42.6 47.3001 39.8C53.3001 36.6 57.2001 32.7 57.4001 32.5L57.9001 32L57.4001 31.5ZM31.7001 21.5C31.9001 21.5 32.1001 21.5 32.3001 21.5C38.0001 21.6 42.5001 26.3 42.5001 32C42.5001 37.8 37.8001 42.5 32.0001 42.5C26.2001 42.5 21.5001 37.8 21.5001 32C21.5001 26.3 26.0001 21.6 31.7001 21.5ZM17.4001 38.5C12.9001 36.1 9.5001 33.2 8.3001 32C10.2001 30.3 16.5001 24.9 24.6001 22.6C21.8001 24.8 20.0001 28.2 20.0001 32C20.0001 35.8 21.8001 39.2 24.6001 41.5C22.2001 40.8 19.8001 39.8 17.4001 38.5ZM46.6001 38.5C44.2001 39.8 41.8001 40.8 39.4001 41.4C42.2001 39.2 44.0001 35.8 44.0001 31.9C44.0001 28.1 42.2001 24.7 39.4001 22.5C47.5001 24.8 53.9001 30.2 55.7001 31.9C54.5001 33.2 51.2001 36.1 46.6001 38.5Z" fill="currentcolor"/>
<path d="M31.9999 35.6C33.9999 35.6 35.5999 34 35.5999 32C35.5999 30 33.9999 28.4 31.9999 28.4C29.9999 28.4 28.3999 30 28.3999 32C28.3999 34 29.9999 35.6 31.9999 35.6ZM31.9999 29.9C33.1999 29.9 34.0999 30.8 34.0999 32C34.0999 33.2 33.1999 34.1 31.9999 34.1C30.7999 34.1 29.8999 33.2 29.8999 32C29.8999 30.8 30.7999 29.9 31.9999 29.9Z" fill="currentcolor"/>
<path d="M13.5741 51.9939L14.6348 53.0546L15.6954 51.9939L14.6348 50.9333L13.5741 51.9939Z" fill="currentcolor"/>
<path d="M18.4234 49.3828L17.3628 48.3221L16.3021 49.3828L17.3628 50.4434L18.4234 49.3828Z" fill="currentcolor"/>
<path d="M11.0766 54.6109L12.1372 55.6715L13.1979 54.6109L12.1372 53.5502L11.0766 54.6109Z" fill="currentcolor"/>
<path d="M8.43496 57.2256L9.49561 58.2863L10.5563 57.2256L9.49561 56.165L8.43496 57.2256Z" fill="currentcolor"/>
<path d="M16.3999 46.9H19.7999V50.3H21.2999V45.4H16.3999V46.9Z" fill="currentcolor"/>
<path d="M32.8003 54.7001H31.3003V56.2001H32.8003V54.7001Z" fill="currentcolor"/>
<path d="M32.8003 58.4H31.3003V59.9H32.8003V58.4Z" fill="currentcolor"/>
<path d="M32.8003 62.1H31.3003V63.6H32.8003V62.1Z" fill="currentcolor"/>
<path d="M34.4 54.4L35.5 53.4L32 49.9L28.5 53.4L29.6 54.4L32 52L34.4 54.4Z" fill="currentcolor"/>
<path d="M48.246 52.0631L49.3066 53.1238L50.3673 52.0631L49.3066 51.0025L48.246 52.0631Z" fill="currentcolor"/>
<path d="M50.8627 54.5614L51.9233 55.6221L52.984 54.5614L51.9233 53.5008L50.8627 54.5614Z" fill="currentcolor"/>
<path d="M45.6293 49.424L46.6899 50.4846L47.7506 49.424L46.6899 48.3633L45.6293 49.424Z" fill="currentcolor"/>
<path d="M53.4789 57.2012L54.5396 58.2618L55.6002 57.2012L54.5396 56.1405L53.4789 57.2012Z" fill="currentcolor"/>
<path d="M47.6002 45.4H42.7002V50.3H44.2002V46.9H47.6002V45.4Z" fill="currentcolor"/>
<path d="M32.8003 7.80005H31.3003V9.30005H32.8003V7.80005Z" fill="currentcolor"/>
<path d="M32.8003 4.09998H31.3003V5.59998H32.8003V4.09998Z" fill="currentcolor"/>
<path d="M32.8003 0.400024H31.3003V1.90002H32.8003V0.400024Z" fill="currentcolor"/>
<path d="M35.5 10.6L34.4 9.59998L32 12L29.6 9.59998L28.5 10.6L32 14.1L35.5 10.6Z" fill="currentcolor"/>
<path d="M15.764 12.0719L14.7036 11.011L13.6427 12.0713L14.703 13.1323L15.764 12.0719Z" fill="currentcolor"/>
<path d="M10.5304 6.74376L9.46973 5.68311L8.40908 6.74376L9.46973 7.80441L10.5304 6.74376Z" fill="currentcolor"/>
<path d="M13.1481 9.33677L12.0874 8.27612L11.0268 9.33677L12.0874 10.3974L13.1481 9.33677Z" fill="currentcolor"/>
<path d="M18.381 14.6649L17.3203 13.6042L16.2597 14.6649L17.3203 15.7255L18.381 14.6649Z" fill="currentcolor"/>
<path d="M16.3999 18.6001H21.2999V13.7001H19.7999V17.1001H16.3999V18.6001Z" fill="currentcolor"/>
<path d="M53.0294 9.38316L51.9688 8.32251L50.9081 9.38316L51.9688 10.4438L53.0294 9.38316Z" fill="currentcolor"/>
<path d="M55.6207 6.76817L54.5601 5.70752L53.4994 6.76817L54.5601 7.82882L55.6207 6.76817Z" fill="currentcolor"/>
<path d="M47.7018 14.6162L46.6411 13.5555L45.5805 14.6162L46.6411 15.6768L47.7018 14.6162Z" fill="currentcolor"/>
<path d="M50.295 11.9997L49.2344 10.9391L48.1737 11.9997L49.2344 13.0604L50.295 11.9997Z" fill="currentcolor"/>
<path d="M47.6002 17.1001H44.2002V13.7001H42.7002V18.6001H47.6002V17.1001Z" fill="currentcolor"/>
</svg>
