<svg viewBox="0 0 64 64" fill="none" xmlns="http://www.w3.org/2000/svg">
<path d="M63.8 31.9H49L44.9 40.7L40.8 31.9H12.5L17.5 42.6V62.3H58.8V42.6L63.8 31.9ZM50 33.3H61.6L57.7 41.7H46.1L50 33.3ZM39.9 33.3L43.8 41.7H18.8L14.9 33.3H39.9ZM44.2 60.8H19V43.2H43.8H44.2V60.8ZM57.4 60.8H45.6V43.2H46H57.3V60.8H57.4Z" fill="currentcolor"/>
<path d="M23.2002 57.2H21.7002V58.7H23.2002V57.2Z" fill="currentcolor"/>
<path d="M23.2002 54H21.7002V55.5H23.2002V54Z" fill="currentcolor"/>
<path d="M15.2002 22.2H28.8002C30.6002 24.3 33.2002 25.6 36.0002 25.6C41.2002 25.6 45.4002 21.4 45.4002 16.2C45.4002 11 41.2002 6.80001 36.0002 6.80001C35.6002 6.80001 35.2002 6.80001 34.9002 6.90001L29.8002 1.80001L7.3002 4.50001V1.70001H0.200195V3.20001H5.8002V4.70001V18.3V19.6H1.3002V21.1H7.2002V18.3H8.6002L10.1002 19.9C11.4002 21.4 13.2002 22.2 15.2002 22.2ZM43.9002 16.1C43.9002 20.5 40.3002 24 36.0002 24C34.1002 24 32.3002 23.3 30.9002 22.1H33.0002V21.4C33.0002 18.6 30.8002 16.2 28.0002 16C28.0002 11.6 31.6002 8.10001 35.9002 8.10001C40.3002 8.20001 43.9002 11.7 43.9002 16.1ZM26.5002 16.1H24.6002C23.7002 16.1 22.8002 15.7 22.2002 15.1C21.8002 14.7 21.8002 14 22.2002 13.6L27.0002 8.80001L28.6002 10.4C27.3002 11.9 26.5002 13.9 26.5002 16.1ZM9.3002 16.8H7.3002V6.00001L29.2002 3.30001L33.1002 7.20001C31.7002 7.60001 30.5002 8.40001 29.5002 9.30001L27.0002 6.70001L21.1002 12.6C20.1002 13.6 20.1002 15.2 21.1002 16.1C22.0002 17 23.3002 17.5 24.6002 17.5H27.6002C29.5002 17.5 31.1002 18.9 31.4002 20.7H15.2002C13.7002 20.7 12.2002 20.1 11.2002 18.9L9.3002 16.8Z" fill="currentcolor"/>
<path d="M34.9002 18.7C34.7002 18.5 34.5002 18.2 34.5002 18H33.0002C33.0002 18.7 33.3002 19.4 33.9002 19.8C34.3002 20.1 34.7002 20.3 35.1002 20.4V21.7H36.6002V20.4C37.1002 20.3 37.5002 20.1 37.8002 19.8C38.4002 19.3 38.7002 18.7 38.7002 18C38.7002 17.3 38.4002 16.6 37.8002 16.2C37.3002 15.7 36.6002 15.5 35.8002 15.5C35.4002 15.5 35.1002 15.4 34.8002 15.1C34.6002 14.9 34.4002 14.6 34.4002 14.4C34.4002 14.1 34.5002 13.9 34.8002 13.7C35.3002 13.2 36.3002 13.2 36.8002 13.7C37.0002 13.9 37.2002 14.2 37.2002 14.4H38.7002C38.7002 13.7 38.4002 13 37.8002 12.6C37.5002 12.3 37.0002 12.1 36.6002 12V10.7H35.1002V12C34.6002 12.1 34.2002 12.3 33.9002 12.6C33.3002 13.1 33.0002 13.7 33.0002 14.4C33.0002 15.1 33.3002 15.8 33.9002 16.2C34.4002 16.7 35.1002 16.9 35.9002 16.9C36.3002 16.9 36.6002 17 36.9002 17.3C37.1002 17.5 37.3002 17.8 37.3002 18C37.3002 18.3 37.2002 18.5 36.9002 18.7C36.4002 19.1 35.5002 19.1 34.9002 18.7Z" fill="currentcolor"/>
</svg>
