<svg viewBox="0 0 64 64" fill="none" xmlns="http://www.w3.org/2000/svg">
<path d="M46.4999 34.5V29.6L43.4999 29C43.1999 27.9 42.7999 26.9 42.1999 25.9L43.8999 23.4L40.5999 20L38.0999 21.7C37.1999 21.1 36.0999 20.7 34.9999 20.4L34.4999 17.4H29.5999L28.9999 20.4C27.9999 20.6 26.9999 21.1 25.9999 21.6L23.4999 19.9L19.9999 23.3L21.6999 25.8C21.0999 26.8 20.6999 27.8 20.3999 28.9L17.3999 29.4V34.3L20.3999 34.9C20.6999 36 21.0999 37 21.6999 38L19.9999 40.5L23.3999 44L25.8999 42.3C26.8999 42.9 27.8999 43.3 28.9999 43.6L29.4999 46.6H34.3999L34.9999 43.6C36.0999 43.3 37.0999 42.9 38.0999 42.3L40.5999 44L44.0999 40.6L42.3999 38.1C42.9999 37.1 43.3999 36.1 43.6999 35L46.4999 34.5ZM40.4999 38.1L42.0999 40.4L40.3999 42.1L38.0999 40.5C36.5999 41.4 35.1999 42.1 33.6999 42.3L33.1999 45H30.7999L30.2999 42.3C28.7999 42 27.2999 41.4 25.8999 40.5L23.5999 42L21.8999 40.3L23.4999 38C22.5999 36.6 21.9999 35.2 21.6999 33.6L18.9999 33.1V30.7L21.6999 30.2C21.9999 28.6 22.5999 27.2 23.4999 25.8L21.8999 23.5L23.5999 21.8L25.8999 23.4C27.1999 22.5 28.6999 21.9 30.2999 21.6L30.7999 18.9H33.1999L33.6999 21.6C35.2999 21.9 36.6999 22.5 38.0999 23.4L40.3999 21.8L42.0999 23.5L40.4999 25.8C41.3999 27.1 41.9999 28.6 42.2999 30.2L44.9999 30.7V33.1L42.2999 33.6C41.9999 35.4 41.3999 36.8 40.4999 38.1Z" fill="currentcolor"/>
<path d="M26.5999 37.3C27.9999 38.7 29.8999 39.5 31.9999 39.6C36.1999 39.6 39.5999 36.2 39.5999 32C39.5999 30 38.7999 28.1 37.3999 26.6C35.9999 25.2 34.0999 24.4 31.9999 24.3C27.7999 24.3 24.3999 27.7 24.3999 31.9C24.3999 33.9 25.1999 35.9 26.5999 37.3ZM31.9999 25.8C33.5999 25.8 35.1999 26.5 36.2999 27.6C37.4999 28.8 38.0999 30.3 38.0999 31.9C38.0999 35.3 35.2999 38 31.9999 38V38.7V38C30.3999 38 28.7999 37.3 27.6999 36.2C26.4999 35 25.8999 33.5 25.8999 31.9C25.8999 28.6 28.5999 25.8 31.9999 25.8Z" fill="currentcolor"/>
<path d="M60.2 28.1C58.4 28.1 56.8 29.4 56.5 31.2H52.4V20.2L42.8 14.6L45 11.3C45.5 11.5 45.9 11.6 46.4 11.6C47.7 11.6 48.9 11 49.6 9.89998C50.8 8.19998 50.3 5.79998 48.5 4.59998C47.9 4.19998 47.2 3.99998 46.4 3.99998C45.1 3.99998 43.9 4.59998 43.2 5.69998C42.2 7.19998 42.4 9.29998 43.7 10.5L41.4 13.9L32 8.39998L22.4 14L20.1 10.5C20.6 9.99998 21 9.29998 21.2 8.59999C21.4 7.59999 21.2 6.59998 20.6 5.69998C19.9 4.59998 18.7 3.99998 17.4 3.99998C16.7 3.99998 15.9 4.19998 15.3 4.59998C14.4 5.19998 13.9 5.99998 13.7 6.99998C13.5 7.99998 13.7 8.99998 14.3 9.89998C15 11 16.2 11.6 17.5 11.6C18 11.6 18.5 11.5 18.9 11.3L21.2 14.7L11.7 20.2V31.2H7.5C7.2 29.5 5.6 28.1 3.8 28.1C1.7 28.1 0 29.9 0 32C0 34.1 1.7 35.8 3.8 35.8C5.6 35.8 7.2 34.5 7.5 32.7H11.6V43.7L21.1 49.2L18.8 52.7C18.3 52.5 17.9 52.4 17.4 52.4C16.1 52.4 14.9 53 14.2 54.1C13.7 55 13.5 56 13.7 57C13.9 58 14.5 58.9 15.3 59.4C15.9 59.8 16.7 60 17.4 60C18.7 60 19.9 59.4 20.6 58.3C21.2 57.5 21.4 56.4 21.2 55.4C21 54.6 20.7 54 20.1 53.5L22.5 49.9L32.1 55.4L41.5 49.9L43.8 53.4C42.5 54.7 42.3 56.7 43.3 58.2C44 59.3 45.2 59.9 46.5 59.9C47.2 59.9 48 59.7 48.6 59.3C50.3 58.1 50.8 55.8 49.7 54C49 52.9 47.8 52.3 46.5 52.3C46 52.3 45.5 52.4 45.1 52.6L42.8 49.2L52.5 43.6V32.6H56.6C56.9 34.3 58.5 35.7 60.3 35.7C62.4 35.7 64.1 34 64.1 31.9C64.1 29.8 62.3 28.1 60.2 28.1ZM44.5 6.49998C44.9 5.79998 45.7 5.49998 46.5 5.49998C47 5.49998 47.4 5.59998 47.8 5.89998C48.9 6.59998 49.2 8.09999 48.5 9.09999C48.1 9.79998 47.3 10.1 46.5 10.1C46 10.1 45.6 9.99998 45.2 9.69998C44.1 8.99998 43.8 7.59998 44.5 6.49998ZM15.4 9.09999C15.1 8.59999 14.9 7.99998 15.1 7.29998C15.2 6.69999 15.6 6.19999 16.1 5.79998C16.5 5.49998 16.9 5.39998 17.4 5.39998C18.2 5.39998 18.9 5.79998 19.4 6.39998C19.7 6.89998 19.9 7.49998 19.7 8.19998C19.6 8.79998 19.2 9.29998 18.7 9.69998C17.6 10.4 16.1 10.1 15.4 9.09999ZM3.8 34.3C2.5 34.3 1.5 33.3 1.5 32C1.5 30.7 2.5 29.7 3.8 29.7C5.1 29.7 6.1 30.7 6.1 32C6.1 33.2 5.1 34.3 3.8 34.3ZM19.3 57.5C18.9 58.2 18.1 58.5 17.3 58.5C16.8 58.5 16.4 58.4 16 58.1C15.5 57.8 15.1 57.2 15 56.6C14.9 56 15 55.4 15.3 54.8C15.7 54.1 16.5 53.8 17.3 53.8C17.8 53.8 18.2 53.9 18.6 54.2C19.1 54.5 19.5 55.1 19.6 55.7C19.8 56.4 19.7 57 19.3 57.5ZM48.4 54.9C49.1 56 48.8 57.4 47.7 58.1C46.7 58.8 45.1 58.5 44.5 57.4C43.8 56.3 44.1 54.9 45.2 54.2C45.6 53.9 46 53.8 46.5 53.8C47.2 53.9 47.9 54.3 48.4 54.9ZM50.9 42.9L32 53.8L13.1 42.9V21L32 10.1L50.9 21V42.9ZM60.2 34.3C58.9 34.3 57.9 33.3 57.9 32C57.9 30.7 58.9 29.7 60.2 29.7C61.5 29.7 62.5 30.7 62.5 32C62.5 33.2 61.5 34.3 60.2 34.3Z" fill="currentcolor"/>
</svg>
