<svg viewBox="0 0 64 64" fill="none" xmlns="http://www.w3.org/2000/svg">
<path d="M63.8002 45.2001C63.4002 44.8001 54.2002 35.6 41.3002 32.1C38.1002 31.2 35.0002 30.8 32.0002 30.8C29.0002 30.8 25.8002 31.2 22.7002 32.1C9.8002 35.5 0.600195 44.8001 0.200195 45.2001L-0.299805 45.7001L0.200195 46.2001C0.400195 46.4001 5.3002 51.3001 12.8002 55.4001C19.3002 58.9001 25.8002 60.7001 32.0002 60.7001C38.2002 60.7001 44.7002 58.9001 51.2002 55.4001C58.8002 51.3001 63.6002 46.4001 63.8002 46.2001L64.3002 45.7001L63.8002 45.2001ZM13.5002 54.1C7.5002 50.9 3.2002 47.1 1.8002 45.7001C3.9002 43.7001 12.3002 36.4 23.1002 33.5C23.3002 33.4 23.5002 33.4001 23.7002 33.4001C19.7002 36.1001 17.1002 40.6 17.1002 45.8C17.1002 50.9 19.7002 55.5 23.7002 58.2001C20.3002 57.2001 16.9002 55.9 13.5002 54.1ZM32.0002 32.2001C39.4002 32.2001 45.5002 38.2001 45.5002 45.7001C45.5002 53.2001 39.5002 59.2001 32.0002 59.2001C24.5002 59.2001 18.5002 53.2001 18.5002 45.7001C18.5002 38.2001 24.6002 32.2001 32.0002 32.2001ZM50.5002 54.1C47.1002 55.9 43.7002 57.3 40.4002 58.1C44.4002 55.4 47.0002 50.9001 47.0002 45.7001C47.0002 40.6 44.4002 36 40.4002 33.3C40.6002 33.3 40.8002 33.4001 41.0002 33.4001C51.8002 36.3001 60.1002 43.6 62.3002 45.6C60.8002 47.1 56.4002 50.9 50.5002 54.1Z" fill="currentcolor"/>
<path d="M32.0002 50C34.4002 50 36.3002 48.1 36.3002 45.7C36.3002 43.3 34.4002 41.4 32.0002 41.4C29.6002 41.4 27.7002 43.3 27.7002 45.7C27.7002 48.1 29.6002 50 32.0002 50ZM32.0002 42.9C33.6002 42.9 34.9002 44.2 34.9002 45.8C34.9002 47.4 33.6002 48.7 32.0002 48.7C30.4002 48.7 29.1002 47.4 29.1002 45.8C29.1002 44.2 30.4002 42.9 32.0002 42.9Z" fill="currentcolor"/>
<path d="M32.8003 7H31.3003V8.5H32.8003V7Z" fill="currentcolor"/>
<path d="M32.8003 14.2001H31.3003V15.7001H32.8003V14.2001Z" fill="currentcolor"/>
<path d="M32.8003 17.8H31.3003V19.3H32.8003V17.8Z" fill="currentcolor"/>
<path d="M32.8003 3.30005H31.3003V4.80005H32.8003V3.30005Z" fill="currentcolor"/>
<path d="M32.8003 10.6001H31.3003V12.1001H32.8003V10.6001Z" fill="currentcolor"/>
<path d="M36.2003 20.8L35.2003 19.8L32.0003 23L28.8003 19.8L27.8003 20.8L32.0003 25L36.2003 20.8Z" fill="currentcolor"/>
<path d="M53.0607 9.19717L51.7617 8.44702L51.0116 9.74602L52.3106 10.4962L53.0607 9.19717Z" fill="currentcolor"/>
<path d="M51.2756 12.3052L49.9766 11.5551L49.2264 12.8541L50.5254 13.6042L51.2756 12.3052Z" fill="currentcolor"/>
<path d="M47.6554 18.6042L46.3564 17.8542L45.6064 19.1532L46.9054 19.9032L47.6554 18.6042Z" fill="currentcolor"/>
<path d="M54.8464 6.08914L53.5474 5.33899L52.7972 6.63799L54.0962 7.38814L54.8464 6.08914Z" fill="currentcolor"/>
<path d="M49.4406 15.4961L48.1416 14.7461L47.3916 16.0451L48.6906 16.7951L49.4406 15.4961Z" fill="currentcolor"/>
<path d="M45.7839 21.6624L44.4849 20.9124L43.7349 22.2114L45.0339 22.9614L45.7839 21.6624Z" fill="currentcolor"/>
<path d="M47.3 26.1L46.9 24.6L42.6 25.8L41.4 21.5L40 21.8L41.5 27.6L47.3 26.1Z" fill="currentcolor"/>
<path d="M11.2005 6.6556L10.4507 5.35645L9.15153 6.1063L9.90138 7.40545L11.2005 6.6556Z" fill="currentcolor"/>
<path d="M15.2728 16.6962L16.5718 15.946L15.8216 14.647L14.5226 15.3972L15.2728 16.6962Z" fill="currentcolor"/>
<path d="M13.4925 13.6272L14.7915 12.8771L14.0414 11.5781L12.7424 12.3282L13.4925 13.6272Z" fill="currentcolor"/>
<path d="M11.6629 10.4716L12.9619 9.72144L12.2118 8.42244L10.9128 9.17259L11.6629 10.4716Z" fill="currentcolor"/>
<path d="M17.1024 19.8513L18.4014 19.1012L17.6512 17.8022L16.3522 18.5523L17.1024 19.8513Z" fill="currentcolor"/>
<path d="M18.9324 23.007L20.2314 22.2568L19.4813 20.9578L18.1823 21.708L18.9324 23.007Z" fill="currentcolor"/>
<path d="M16.7002 26.1L22.5002 27.6L24.0002 21.8L22.6002 21.5L21.4002 25.8L17.1002 24.6L16.7002 26.1Z" fill="currentcolor"/>
</svg>
