<svg viewBox="0 0 64 64" fill="none" xmlns="http://www.w3.org/2000/svg">
<path d="M38.8001 22.1L40.1001 20.7C40.4001 20.8 40.7001 20.9 41.1001 20.9C41.7001 20.9 42.3001 20.7 42.7001 20.2C43.1001 19.8 43.3001 19.2 43.3001 18.6C43.3001 18.3 43.2001 18 43.1001 17.7L48.4001 12.3L47.4001 11.3L42.0001 16.8C41.2001 16.4 40.1001 16.5 39.4001 17.2C39.0001 17.6 38.8001 18.2 38.8001 18.8C38.8001 19.1 38.9001 19.4 39.0001 19.7L37.6001 21.1L38.8001 22.1ZM40.5001 18.2C40.6001 18.1 40.8001 18 41.0001 18C41.2001 18 41.4001 18.1 41.5001 18.2C41.6001 18.3 41.7001 18.5 41.7001 18.7C41.7001 18.9 41.6001 19.1 41.5001 19.2C41.2001 19.5 40.7001 19.5 40.4001 19.2C40.3001 19.1 40.2001 18.9 40.2001 18.7C40.3001 18.6 40.4001 18.4 40.5001 18.2Z" fill="currentcolor"/>
<path d="M60.5 45.2V13.7H54.8C54.5 12.8 54.1 12 53.6 11.2C50.9 6.7 46.2 4 41.1 4C36 4 31.3 6.7 28.6 11.2C28.1 12 27.7 12.9 27.4 13.7H3.5V45.2H0V47.6L2.7 51.4H61.3L64 47.6V45.2H60.5ZM29.8 11.9C30.2 11.2 30.7 10.6 31.2 10L32.2 11L33.2 10L32.2 9C34.4 6.9 37.3 5.7 40.3 5.5V7.4H41.8V5.5C44.8 5.7 47.6 6.9 49.8 8.9L48.8 9.9L49.8 10.9L50.8 9.9C51.3 10.5 51.8 11.2 52.3 11.9C53.5 13.8 54.1 15.9 54.3 18H52.5V19.5H54.3C54.2 21.2 53.8 22.9 53.1 24.5H29.1C28.3 22.9 27.9 21.2 27.9 19.6H29.7V18.1H27.9C28 16 28.6 13.9 29.8 11.9ZM4.9 15.2H26.8C25.9 18.7 26.2 22.3 27.9 25.6L28.1 26H53.9L54.1 25.6C55.8 22.4 56.1 18.7 55.2 15.2H59V45.3H4.9V15.2ZM62.5 47.1L60.5 49.9H3.5L1.5 47.1V46.7H3.5H60.6H62.6V47.1H62.5Z" fill="currentcolor"/>
<path d="M31.9999 30.4H30.4999V40.6H27.0999V33.9H25.5999V40.6H22.1999V25.8H20.6999V40.6H17.2999V30.4H15.7999V40.6H12.3999V35.1H10.8999V40.6H8.3999V42H34.4999V40.6H31.9999V30.4Z" fill="currentcolor"/>
</svg>
