<svg viewBox="0 0 64 64" fill="none" xmlns="http://www.w3.org/2000/svg">
<path d="M45.7002 5.90002H48.7002V11.4H32.7002V5.90002H35.7002V0.400024H28.2002V5.90002H31.2002V11.4H15.2002V5.90002H18.2002V0.400024H10.7002V5.90002H13.7002V12.9H31.1002V19.2H24.4002L17.2002 32L24.6002 44.8H31.3002V51.1H13.8002V58.1H10.8002V63.6H18.3002V58.1H15.3002V52.6H31.3002V58.1H28.3002V63.6H35.8002V58.1H32.8002V52.6H48.8002V58.1H45.8002V63.6H53.3002V58.1H50.3002V51.1H32.7002V44.8H39.4002L46.8002 32L39.4002 19.2H32.7002V12.9H50.1002V5.90002H53.1002V0.400024H45.6002V5.90002H45.7002ZM29.7002 1.80002H34.3002V4.40002H29.7002V1.80002ZM12.3002 1.80002H16.9002V4.40002H12.3002V1.80002ZM16.9002 62.2H12.3002V59.6H16.9002V62.2ZM34.3002 62.2H29.7002V59.6H34.3002V62.2ZM51.7002 62.2H47.1002V59.6H51.7002V62.2ZM45.2002 32L38.6002 43.4H25.4002L18.8002 32L25.4002 20.6H38.6002L45.2002 32ZM47.1002 1.80002H51.7002V4.40002H47.1002V1.80002Z" fill="currentcolor"/>
<path d="M39.5002 34.8C41.1002 34.8 42.3002 33.5 42.3002 32C42.3002 30.4 41.0002 29.2 39.5002 29.2C37.9002 29.2 36.7002 30.5 36.7002 32C36.6002 33.6 37.9002 34.8 39.5002 34.8ZM39.5002 30.6C40.3002 30.6 40.9002 31.2 40.9002 32C40.9002 32.8 40.3002 33.4 39.5002 33.4C38.7002 33.4 38.1002 32.8 38.1002 32C38.1002 31.2 38.7002 30.6 39.5002 30.6Z" fill="currentcolor"/>
<path d="M32.0002 34.8C33.6002 34.8 34.8002 33.5 34.8002 32C34.8002 30.4 33.5002 29.2 32.0002 29.2C30.4002 29.2 29.2002 30.5 29.2002 32C29.2002 33.6 30.4002 34.8 32.0002 34.8ZM32.0002 30.6C32.8002 30.6 33.4002 31.2 33.4002 32C33.4002 32.8 32.8002 33.4 32.0002 33.4C31.2002 33.4 30.6002 32.8 30.6002 32C30.6002 31.2 31.2002 30.6 32.0002 30.6Z" fill="currentcolor"/>
<path d="M21.7002 32C21.7002 33.6 23.0002 34.8 24.5002 34.8C26.0002 34.8 27.3002 33.5 27.3002 32C27.3002 30.4 26.0002 29.2 24.5002 29.2C23.0002 29.2 21.7002 30.4 21.7002 32ZM25.9002 32C25.9002 32.8 25.3002 33.4 24.5002 33.4C23.7002 33.4 23.1002 32.8 23.1002 32C23.1002 31.2 23.7002 30.6 24.5002 30.6C25.3002 30.6 25.9002 31.2 25.9002 32Z" fill="currentcolor"/>
</svg>
