<svg width="64" height="64" viewBox="0 0 64 64" fill="none" xmlns="http://www.w3.org/2000/svg">
<path d="M42.4003 26.4C43.0003 25.4 43.4003 24.4 43.7003 23.3L46.7003 22.8V17.9L43.7003 17.3C43.4003 16.2 43.0003 15.1 42.4003 14.2L44.2003 11.7L40.7003 8.20001L38.2003 9.90001C37.2003 9.30001 36.2003 8.90001 35.1003 8.60001L34.6003 5.60001H29.7003L29.1003 8.60001C28.0003 8.90001 27.0003 9.30001 26.0003 9.90001L23.4003 8.00001L19.9003 11.5L21.6003 14.1C21.0003 15.1 20.6003 16.1 20.3003 17.2L17.3003 17.7V22.6L20.3003 23.2C20.6003 24.3 21.0003 25.3 21.6003 26.3L19.8003 28.8L23.3003 32.3L25.9003 30.6C26.9003 31.2 27.9003 31.6 29.0003 31.9L29.5003 34.9H34.4003L35.0003 31.9C36.1003 31.6 37.2003 31.2 38.1003 30.6L40.6003 32.4L44.1003 28.9L42.4003 26.4ZM40.5003 30.5L38.2003 28.9C37.0003 29.8 35.5003 30.4 33.8003 30.7L33.3003 33.5H30.8003L30.3003 30.7C28.7003 30.4 27.3003 29.8 25.9003 28.8L23.6003 30.4L21.8003 28.6L23.4003 26.3C22.5003 25 21.9003 23.5 21.6003 21.9L18.8003 21.4V18.9L21.6003 18.4C21.9003 16.9 22.5003 15.4 23.5003 14L21.9003 11.7L23.7003 9.90001L26.0003 11.5C27.4003 10.5 28.9003 9.90001 30.4003 9.70001L30.9003 6.90001H33.4003L33.9003 9.70001C35.5003 10 37.0003 10.6 38.3003 11.6L40.6003 10L42.4003 11.8L40.8003 14.1C41.8003 15.5 42.3003 16.9 42.6003 18.5L45.4003 19V21.5L42.5003 22C42.2003 23.6 41.6003 25.1 40.6003 26.4L42.2003 28.7L40.5003 30.5Z" fill="currentcolor"/>
<path d="M32.0003 12.5C27.8003 12.5 24.3003 15.9 24.3003 20.2C24.3003 24.4 27.7003 27.9 32.0003 27.9C36.2003 27.9 39.7003 24.5 39.7003 20.2C39.7003 16 36.3003 12.5 32.0003 12.5ZM32.0003 26.4V27.1V26.4C28.5003 26.4 25.7003 23.6 25.8003 20.1C25.8003 16.7 28.6003 13.9 32.1003 13.9C35.5003 13.9 38.3003 16.7 38.3003 20.2C38.2003 23.7 35.4003 26.4 32.0003 26.4Z" fill="currentcolor"/>
<path d="M64.0001 61.6C63.9001 58.7 63.6001 55.8 63.6001 55.8C63.6001 55 63.4001 54.2 62.9001 53.4C62.4001 52.6 61.6001 51.9 60.7001 51.6L57.3001 50.4L54.4001 55.8H53.7001L50.8001 50.4L47.4001 51.6C46.5001 51.9 45.7001 52.6 45.2001 53.4C44.7001 54.2 44.5001 55 44.5001 55.7C44.5001 55.7 44.2001 58.7 44.1001 61.6V62.4H64.0001V61.6ZM45.5001 60.9C45.6001 58.3 45.9001 55.9 45.9001 55.8C45.9001 55.1 46.2001 54.5 46.4001 54.1C46.7001 53.6 47.2001 53.1 47.8001 52.9L50.0001 52.1L52.7001 57.2H55.1001L57.8001 52.1L60.0001 52.9C60.6001 53.1 61.1001 53.5 61.4001 54.1C61.6001 54.5 61.9001 55.1 61.9001 55.9C61.9001 55.9 62.2001 58.3 62.3001 60.9H45.5001Z" fill="currentcolor"/>
<path d="M54.0002 50C56.6002 50 58.8002 47.8 58.8002 45.2C58.8002 42.6 56.6002 40.4 54.0002 40.4C51.4002 40.4 49.2002 42.6 49.2002 45.2C49.2002 47.9 51.3002 50 54.0002 50ZM54.0002 41.9C55.8002 41.9 57.3002 43.4 57.3002 45.2C57.3002 47 55.8002 48.5 54.0002 48.5C52.2002 48.5 50.7002 47 50.7002 45.2C50.6002 43.4 52.1002 41.9 54.0002 41.9Z" fill="currentcolor"/>
<path d="M20.0001 61.6C19.9001 58.7 19.6001 55.8 19.6001 55.8C19.6001 55 19.4001 54.2 18.9001 53.4C18.4001 52.6 17.6001 51.9 16.7001 51.6L13.3001 50.4L10.4001 55.8H9.7001L6.8001 50.4L3.4001 51.6C2.5001 51.9 1.7001 52.6 1.2001 53.4C0.700098 54.2 0.500098 55 0.500098 55.7C0.500098 55.7 0.200098 58.7 0.100098 61.6V62.4H20.2001L20.0001 61.6ZM1.5001 60.9C1.6001 58.3 1.9001 55.9 1.9001 55.8C1.9001 55.1 2.2001 54.5 2.4001 54.1C2.7001 53.6 3.2001 53.1 3.8001 52.9L6.0001 52.1L8.7001 57.2H11.1001L13.8001 52.1L16.0001 52.9C16.6001 53.1 17.1001 53.5 17.4001 54.1C17.6001 54.5 17.9001 55.1 17.9001 55.9C17.9001 55.9 18.2001 58.3 18.3001 60.9H1.5001Z" fill="currentcolor"/>
<path d="M10.0002 50C12.6002 50 14.8002 47.8 14.8002 45.2C14.8002 42.6 12.6002 40.4 10.0002 40.4C7.4002 40.4 5.2002 42.6 5.2002 45.2C5.2002 47.9 7.4002 50 10.0002 50ZM10.0002 41.9C11.8002 41.9 13.3002 43.4 13.3002 45.2C13.3002 47 11.8002 48.5 10.0002 48.5C8.2002 48.5 6.7002 47 6.7002 45.2C6.7002 43.4 8.2002 41.9 10.0002 41.9Z" fill="currentcolor"/>
<path d="M14.9 29.1H13.5V38.7H23.1V37.3H14.9V29.1Z" fill="currentcolor"/>
<path d="M50.4999 29.1H49.0999V37.3H40.8999V38.7H50.4999V29.1Z" fill="currentcolor"/>
<path d="M49.0999 11.3H50.4999V1.70001H40.8999V3.10001H49.0999V11.3Z" fill="currentcolor"/>
<path d="M14.9 3.10001H23.1V1.70001H13.5V11.3H14.9V3.10001Z" fill="currentcolor"/>
</svg>
