<svg viewBox="0 0 64 64" fill="none" xmlns="http://www.w3.org/2000/svg">
<path d="M2.9 23.1C4.2 23.1 5.4 22.2 5.7 20.9H12.2C12.3 23.9 13.1 26.8 14.5 29.4L8.9 32.7C8.4 32.2 7.6 31.8 6.8 31.8C6.3 31.8 5.8 31.9 5.4 32.2C4.7 32.6 4.3 33.2 4.1 34C3.9 34.7 4 35.5 4.4 36.2C4.9 37.1 5.9 37.6 6.9 37.6C7.4 37.6 7.9 37.5 8.3 37.2C9.5 36.5 10 35.2 9.6 33.9L15.3 30.6C16.1 31.8 17 33 18.1 34.1L19.1 33.1C15.6 29.6 13.7 25 13.7 20.1C13.7 15.2 15.6 10.6 19.1 7.09999L18.1 6.09999C17 7.19999 16.1 8.29999 15.4 9.59999L9.6 6.49999C9.9 5.29999 9.4 3.89999 8.3 3.19999C7.8 2.89999 7.3 2.79999 6.8 2.79999C5.8 2.79999 4.8 3.39999 4.3 4.19999C3.5 5.59999 4 7.39999 5.3 8.19999C5.7 8.49999 6.2 8.59999 6.7 8.59999C7.5 8.59999 8.2 8.29999 8.8 7.69999L14.4 10.9C13 13.5 12.2 16.4 12.1 19.5H5.7C5.4 18.3 4.3 17.3 2.9 17.3C1.3 17.3 0 18.6 0 20.2C0 21.9 1.3 23.1 2.9 23.1ZM7.5 36C6.8 36.4 5.9 36.1 5.5 35.5C5.3 35.2 5.3 34.8 5.4 34.4C5.5 34 5.7 33.7 6.1 33.5C6.3 33.4 6.6 33.3 6.8 33.3C7.3 33.3 7.8 33.6 8 34C8.4 34.8 8.2 35.6 7.5 36ZM8 6.39999C7.6 7.09999 6.7 7.29999 6 6.89999C5.4 6.49999 5.2 5.69999 5.6 4.99999C5.9 4.59999 6.3 4.29999 6.8 4.29999C7 4.29999 7.3 4.39999 7.5 4.49999C8.2 4.89999 8.4 5.69999 8 6.39999ZM2.9 18.8C3.7 18.8 4.3 19.4 4.3 20.2C4.3 21 3.7 21.6 2.9 21.6C2.1 21.6 1.5 21 1.5 20.2C1.5 19.5 2.1 18.8 2.9 18.8Z" fill="currentcolor"/>
<path d="M61.1 17.4C59.8 17.4 58.6 18.3 58.3 19.6H51.8C51.7 16.6 50.9 13.7 49.5 11.1L55.1 7.9C55.6 8.4 56.4 8.8 57.2 8.8C57.7 8.8 58.2 8.7 58.6 8.4C60 7.6 60.5 5.8 59.7 4.4C59.2 3.5 58.2 3 57.2 3C56.7 3 56.2 3.1 55.8 3.4C54.6 4.1 54.1 5.4 54.5 6.7L48.8 10C48 8.5 47.1 7.3 46 6.2L45 7.2C48.5 10.7 50.4 15.3 50.4 20.2C50.4 25.1 48.5 29.7 45 33.2L46 34.2C47.1 33.1 48 31.9 48.8 30.7L54.4 34C54.1 35.2 54.6 36.6 55.7 37.3C56.1 37.6 56.6 37.7 57.1 37.7C58.1 37.7 59.1 37.1 59.6 36.3C60 35.6 60.1 34.9 59.9 34.1C59.7 33.4 59.2 32.7 58.6 32.3C58.2 32 57.7 31.9 57.2 31.9C56.4 31.9 55.7 32.2 55.1 32.8L49.5 29.5C50.9 26.9 51.6 24 51.7 21H58.2C58.5 22.2 59.6 23.2 61 23.2C62.6 23.2 63.9 21.9 63.9 20.3C64 18.7 62.7 17.4 61.1 17.4ZM56.5 4.5C56.7 4.4 57 4.3 57.2 4.3C57.7 4.3 58.2 4.6 58.4 5C58.8 5.7 58.6 6.6 57.9 7C57.2 7.4 56.3 7.1 55.9 6.5C55.6 5.7 55.8 4.9 56.5 4.5ZM56 34.1C56.3 33.7 56.7 33.4 57.2 33.4C57.4 33.4 57.7 33.5 57.9 33.6C58.2 33.8 58.5 34.1 58.6 34.5C58.7 34.9 58.6 35.3 58.5 35.6C58.1 36.3 57.2 36.5 56.5 36.1C55.8 35.6 55.6 34.8 56 34.1ZM61.1 21.7C60.3 21.7 59.7 21.1 59.7 20.3C59.7 19.5 60.3 18.9 61.1 18.9C61.9 18.9 62.5 19.5 62.5 20.3C62.5 21 61.9 21.7 61.1 21.7Z" fill="currentcolor"/>
<path d="M60.5998 60.5C60.5998 57.5 60.5998 53.5 57.3998 50.1C56.0998 48.7 53.8998 47.6 51.4998 46.4C49.5998 45.5 47.2998 44.3 45.1998 42.7C42.8998 41 41.3998 38.9 40.3998 36.6C41.8998 35 43.0998 33 43.8998 30.7C45.3998 30.6 46.4998 28.5 46.4998 25.7C46.4998 23.5 45.7998 21.6 44.6998 21C44.8998 19.5 45.0998 18 45.1998 16.5C45.5998 9.69999 43.7998 8.79999 40.2998 7.69999C39.9998 7.59999 39.7998 7.49999 39.4998 7.39999C37.2998 6.69999 34.6998 6.29999 31.9998 6.29999C30.0998 6.29999 27.2998 6.49999 24.4998 7.39999C24.1998 7.49999 23.9998 7.59999 23.6998 7.69999C20.1998 8.79999 18.3998 9.69999 18.7998 16.5C18.8998 17.4 18.9998 18.4 19.0998 19.3C19.1998 19.9 19.1998 20.5 19.2998 21C18.1998 21.7 17.4998 23.5 17.4998 25.7C17.4998 28.6 18.5998 30.6 20.0998 30.7C20.8998 33 22.0998 35 23.5998 36.6C22.5998 39 20.9998 41 18.6998 42.7C16.5998 44.3 14.1998 45.5 12.0998 46.5C9.7998 47.7 7.6998 48.7 6.4998 50C3.2998 53.4 3.2998 57.5 3.2998 60.4V61.1H60.5998V60.5ZM24.0998 8.99999C24.3998 8.89999 24.5998 8.79999 24.8998 8.69999C26.8998 7.99999 29.3998 7.69999 31.8998 7.69999C34.4998 7.69999 36.8998 8.09999 38.8998 8.69999C39.1998 8.79999 39.4998 8.89999 39.6998 8.99999C42.5998 9.89999 43.8998 10.3 43.4998 16.3C43.4998 16.4 43.4998 16.5 43.4998 16.6C42.4998 15.6 40.9998 15.2 39.5998 15.7C35.1998 17.2 31.2998 15.6 31.2998 15.6C29.3998 14.7 27.5998 14.1 25.8998 13.8C24.1998 13.5 22.3998 13.9 21.0998 15C20.6998 15.3 20.3998 15.6 20.1998 16C19.9998 10.3 21.2998 9.89999 24.0998 8.99999ZM21.0998 28.9L20.3998 29.2C20.2998 29.2 20.2998 29.2 20.2998 29.2C19.8998 29.2 19.0998 27.8 19.0998 25.6C19.0998 23.4 19.8998 22.1 20.2998 22L20.7998 21.9L20.8998 21.1V20.7C20.7998 20.2 20.7998 19.6 20.6998 19.1C20.7998 17.9 21.2998 16.9 22.2998 16.1C23.2998 15.3 24.5998 14.9 25.8998 15.2C27.3998 15.5 29.0998 16 30.8998 16.9C31.0998 17 35.2998 18.7 40.2998 17.1C41.4998 16.7 42.7998 17.3 43.1998 18.5C43.2998 18.8 43.3998 19.2 43.3998 19.5C43.2998 19.9 43.2998 20.4 43.1998 20.8V21.2L43.2998 22L43.7998 22.1C44.1998 22.2 44.9998 23.5 44.9998 25.7C44.9998 27.9 44.1998 29.3 43.7998 29.3H43.6998L42.9998 29L42.7998 29.8C41.0998 35.4 36.8998 39 32.0998 39C27.3998 39 23.1998 35.4 21.3998 29.8L21.0998 28.9ZM24.7998 37.7C26.8998 39.4 29.3998 40.4 31.9998 40.4C34.6998 40.4 37.1998 39.4 39.1998 37.7C40.1998 39.9 41.6998 41.8 43.7998 43.5C41.7998 46.8 39.4998 49.8 36.9998 52.3L36.8998 52.4C35.5998 53.7 33.8998 54.4 31.9998 54.4C30.1998 54.4 28.3998 53.7 27.0998 52.4C24.4998 49.9 22.1998 46.9 20.1998 43.5C22.1998 41.8 23.6998 39.9 24.7998 37.7ZM4.7998 59.7C4.7998 57.1 4.9998 53.7 7.5998 51C8.6998 49.8 10.5998 48.9 12.7998 47.8C14.6998 46.8 16.8998 45.8 18.8998 44.3C20.9998 47.7 23.3998 50.7 25.9998 53.3C27.5998 54.9 29.6998 55.7 31.8998 55.7C34.0998 55.7 36.1998 54.8 37.7998 53.3L37.8998 53.2C40.4998 50.6 42.8998 47.6 44.8998 44.2C46.8998 45.6 48.9998 46.7 50.7998 47.6C53.0998 48.7 55.0998 49.7 56.2998 51C58.8998 53.7 59.0998 57.1 59.0998 59.7H4.7998Z" fill="currentcolor"/>
</svg>
