<svg viewBox="0 0 64 64" fill="none" xmlns="http://www.w3.org/2000/svg">
<path d="M30.1 23.1C29.6 22.7 29.4 22.2 29.4 21.6H28C28 22.6 28.4 23.5 29.2 24.2C29.8 24.7 30.5 25 31.3 25.1V27.4H32.8V25.1C33.6 25 34.3 24.6 34.9 24.2C35.7 23.5 36.1 22.6 36.1 21.6C36.1 20.6 35.7 19.7 34.9 19C34.1 18.3 33.1 18 32.1 18C31.4 18 30.7 17.8 30.2 17.3C29.7 16.9 29.5 16.4 29.5 15.8C29.5 15.3 29.8 14.7 30.2 14.3C31.2 13.5 32.9 13.5 33.9 14.3C34.4 14.7 34.6 15.2 34.6 15.8H36C36 14.8 35.6 13.9 34.8 13.2C34.2 12.7 33.5 12.4 32.7 12.3V9.99997H31.2V12.3C30.4 12.4 29.7 12.7 29.1 13.2C28.4 14.1 28 15 28 15.9C28 16.9 28.4 17.8 29.2 18.5C30 19.2 31 19.5 32 19.5C32.7 19.5 33.4 19.7 33.9 20.2C34.4 20.6 34.6 21.1 34.6 21.7C34.6 22.2 34.3 22.8 33.9 23.2C32.9 23.9 31.1 23.9 30.1 23.1Z" fill="currentcolor"/>
<path d="M31.9999 32.4C39.4999 32.4 45.5999 26.2999 45.5999 18.8C45.5999 11.3 39.4999 5.19995 31.9999 5.19995C24.4999 5.19995 18.3999 11.3 18.3999 18.8C18.3999 26.2999 24.4999 32.4 31.9999 32.4ZM31.9999 6.69995C38.6999 6.69995 44.0999 12.1 44.0999 18.8C44.0999 25.5 38.6999 30.9 31.9999 30.9C25.2999 30.9 19.8999 25.5 19.8999 18.8C19.8999 12.1 25.2999 6.69995 31.9999 6.69995Z" fill="currentcolor"/>
<path d="M28.5999 36.9L28.8999 35.5C28.3999 35.4 27.9999 35.3 27.4999 35.2L27.0999 36.5999C27.5999 36.6999 28.0999 36.8 28.5999 36.9Z" fill="currentcolor"/>
<path d="M39.8999 33.8L40.5999 35.1C41.0999 34.9 41.4999 34.6 41.8999 34.3L41.0999 33.1C40.6999 33.4 40.2999 33.6 39.8999 33.8Z" fill="currentcolor"/>
<path d="M44.3 32.5C44.7 32.2 45.1001 31.8 45.4001 31.4L44.3 30.4C44 30.7 43.6 31.1 43.3 31.4L44.3 32.5Z" fill="currentcolor"/>
<path d="M36.2001 36.7C36.7001 36.6 37.2001 36.4 37.7001 36.3L37.2001 34.9C36.8001 35 36.3 35.2 35.8 35.3L36.2001 36.7Z" fill="currentcolor"/>
<path d="M43.1 4.09995C42.7 3.79995 42.3 3.49995 41.8 3.19995L41 4.39995C41.4 4.69995 41.8 4.89995 42.2 5.19995L43.1 4.09995Z" fill="currentcolor"/>
<path d="M25.9999 2.89997L25.4999 1.49997C24.9999 1.69997 24.4999 1.89997 24.0999 2.09997L24.6999 3.39997C25.1999 3.29997 25.5999 3.09997 25.9999 2.89997Z" fill="currentcolor"/>
<path d="M46.4001 7.29998C46.1001 6.89998 45.7001 6.49998 45.4001 6.09998L44.3 7.09998C44.6 7.39998 44.9001 7.79998 45.2001 8.19998L46.4001 7.29998Z" fill="currentcolor"/>
<path d="M48.8 11.2C48.6 10.7 48.4 10.3 48.1 9.79996L46.8 10.5C47 10.9 47.2001 11.3 47.4001 11.8L48.8 11.2Z" fill="currentcolor"/>
<path d="M24.2001 35.5L24.8 34.2C24.4 34 24 33.8 23.5 33.5L22.8 34.8C23.3 35 23.7001 35.3 24.2001 35.5Z" fill="currentcolor"/>
<path d="M39.1 1.79996C38.6 1.59996 38.1001 1.39996 37.7001 1.29996L37.3 2.69996C37.8 2.79996 38.2 2.99996 38.6 3.19996L39.1 1.79996Z" fill="currentcolor"/>
<path d="M48.6999 15.9L50.0999 15.7C49.9999 15.2 49.8999 14.7 49.7999 14.2L48.3999 14.6C48.4999 15 48.5999 15.4 48.6999 15.9Z" fill="currentcolor"/>
<path d="M34.6 0.599963C34.1 0.499963 33.6 0.499963 33.1 0.399963L33 1.89996C33.5 1.89996 33.9 1.99996 34.4 1.99996L34.6 0.599963Z" fill="currentcolor"/>
<path d="M30.2 1.89997L30 0.499969C29.5 0.599969 29 0.599969 28.5 0.699969L28.8 2.09997C29.2 1.99997 29.7 1.99997 30.2 1.89997Z" fill="currentcolor"/>
<path d="M15.4 15.3L14 15C13.9 15.5 13.8 16 13.7 16.5L15.2 16.7C15.2 16.2 15.3 15.8 15.4 15.3Z" fill="currentcolor"/>
<path d="M20.2999 33L21.1999 31.9C20.7999 31.6 20.4999 31.3 20.0999 31L19.0999 32.1C19.4999 32.3 19.8999 32.7 20.2999 33Z" fill="currentcolor"/>
<path d="M15.1999 20.9C15.0999 20.4 15.0999 20 15.0999 19.5L13.5999 19.6C13.5999 20.1 13.6999 20.6 13.6999 21.1L15.1999 20.9Z" fill="currentcolor"/>
<path d="M50.3999 18.8H48.9999C48.9999 19.3 48.9999 19.8 48.8999 20.2L50.3999 20.3C50.3999 19.8 50.3999 19.3 50.3999 18.8Z" fill="currentcolor"/>
<path d="M33.0999 35.7C32.6999 35.7 32.4 35.7 32 35.7H31.7V37.2H32.0999C32.4999 37.2 32.8999 37.2 33.2999 37.2L33.0999 35.7Z" fill="currentcolor"/>
<path d="M49.8 23.4L48.4 23C48.3 23.5 48.1 23.9 48 24.4L49.4 24.9C49.6 24.4 49.7 23.9 49.8 23.4Z" fill="currentcolor"/>
<path d="M46.0999 28.2L47.2999 29C47.5999 28.6 47.8999 28.1 48.0999 27.7L46.8999 27C46.5999 27.4 46.3999 27.8 46.0999 28.2Z" fill="currentcolor"/>
<path d="M19.1 7.69995L18 6.69995C17.7 7.09995 17.3 7.49995 17 7.89995L18.2 8.79995C18.5 8.49995 18.8 8.09995 19.1 7.69995Z" fill="currentcolor"/>
<path d="M22.2999 4.89995L21.5 3.69995C21 3.99995 20.6 4.29995 20.2 4.59995L21.1 5.69995C21.5 5.39995 21.8999 5.19995 22.2999 4.89995Z" fill="currentcolor"/>
<path d="M16.3 28.4C16.6 28.8 16.9001 29.3 17.2001 29.7L18.4 28.8C18.1 28.4 17.9 28 17.6 27.6L16.3 28.4Z" fill="currentcolor"/>
<path d="M16.7999 11.3L15.4999 10.6C15.2999 11.1 15.0999 11.5 14.8999 12L16.2999 12.5C16.3999 12.1 16.5999 11.7 16.7999 11.3Z" fill="currentcolor"/>
<path d="M14.3999 24.1C14.4999 24.6 14.6999 25.1 14.8999 25.6L16.2999 25.1C16.0999 24.7 15.9999 24.2 15.7999 23.8L14.3999 24.1Z" fill="currentcolor"/>
<path d="M52.5999 59.4999H51.0999V61.3999H52.5999V59.4999Z" fill="currentcolor"/>
<path d="M49.5 59.4999H48V61.3999H49.5V59.4999Z" fill="currentcolor"/>
<path d="M62 21.9999C61.2001 21.2999 60.2001 21.0999 59 21.2999C57.3 21.5999 56.3 23.1999 56.3 25.4999V37.1999H57.8V25.4999C57.8 23.9999 58.4 22.8999 59.3 22.6999C59.8 22.5999 60.6 22.5999 61.1 23.0999C61.6 23.5999 61.9001 24.3999 61.9001 25.4999V43.1999C61.9001 44.2999 61.4 45.4999 60.6 46.2999L53.5 53.3999C52.8 54.0999 52.4001 54.9999 52.4001 55.9999V56.5999H40V51.5999C40 50.2999 40.5 48.9999 41.5 48.0999L51 38.9C51.4 38.5 51.9 38.2999 52.5 38.2999C53.1 38.2999 53.6 38.4999 54 38.9999C54.4 39.3999 54.6 39.9999 54.6 40.4999C54.6 41.0999 54.4001 41.5999 53.9001 41.9999L49.4001 46.4L50.4001 47.4999L55 42.9999C55.7001 42.2999 56.1 41.3999 56.1 40.4999C56.1 39.4999 55.8 38.6 55.1 37.9C54.4 37.2 53.5 36.7999 52.6 36.7999C51.6 36.7999 50.7 37.1999 50 37.7999L40.4001 46.9999C39.2001 48.1999 38.5 49.8999 38.5 51.5999V56.5999H36.3V63.6999H37.8V57.9999H54.6V63.5999H56.1V56.4999H53.9001V55.9999C53.9001 55.3999 54.1 54.8999 54.5 54.4999L61.6 47.4C62.7 46.2999 63.3 44.8999 63.3 43.2999V25.4999C63.3 23.4999 62.6 22.4999 62 21.9999Z" fill="currentcolor"/>
<path d="M12.8999 59.4999H11.3999V61.3999H12.8999V59.4999Z" fill="currentcolor"/>
<path d="M16.0999 59.4999H14.5999V61.3999H16.0999V59.4999Z" fill="currentcolor"/>
<path d="M25.5 51.5C25.5 49.8 24.8 48.1 23.6 46.9L14.1 37.7C13.4 37 12.5 36.7 11.5 36.7C10.5 36.7 9.59995 37.1 8.99995 37.8C7.59995 39.3 7.59995 41.6 8.99995 43L13.5 47.4L14.5 46.3L9.99995 41.9C9.09995 41.1 9.09995 39.7 9.99995 38.8C10.4 38.4 10.9 38.2 11.5 38.1C12.1 38.1 12.6 38.3 13 38.7L22.5 47.9C23.4 48.8 24 50.1 24 51.4V56.4H11.6V56C11.6 55 11.2 54.1 10.5 53.4L3.39995 46.3C2.59995 45.5 2.09995 44.4 2.09995 43.2V25.5C2.09995 24.4 2.39995 23.6 2.89995 23.1C3.49995 22.6 4.19995 22.6 4.69995 22.7C5.59995 22.8 6.19995 24 6.19995 25.5V37.2H7.69995V25.5C7.69995 23.2 6.59995 21.6 4.99995 21.3C3.79995 21.1 2.79995 21.4 1.99995 22C1.39995 22.5 0.699951 23.5 0.699951 25.5V43.2C0.699951 44.7 1.29995 46.2 2.39995 47.3L9.49995 54.4C9.89995 54.8 10.1 55.4 10.1 55.9V56.5H7.89995V63.6H9.39995V58H26.2V63.6H27.7V56.5H25.5V51.5Z" fill="currentcolor"/>
</svg>
