<svg viewBox="0 0 64 64" fill="none" xmlns="http://www.w3.org/2000/svg">
<path d="M45.8 19.5L40.5 30.9L35.2 19.5H27V21H34.3L39.4 31.9H7.4L2.3 21H9.5V19.6H0L6.2 32.9V57.6H57.8V32.8L64 19.5H45.8ZM39.7 56H7.6V33.3H39.7V56ZM56.4 56H41.2V33.3H56.4V56ZM56.6 31.9H41.6L46.7 21H61.7L56.6 31.9Z" fill="currentcolor"/>
<path d="M11.0001 46.5H9.6001V48H11.0001V46.5Z" fill="currentcolor"/>
<path d="M11.0001 49.5H9.6001V51H11.0001V49.5Z" fill="currentcolor"/>
<path d="M11.0001 52.4H9.6001V53.9H11.0001V52.4Z" fill="currentcolor"/>
<path d="M54.2999 46.3H52.8999V53.8H54.2999V46.3Z" fill="currentcolor"/>
<path d="M51.5999 52.4H50.2V53.8H51.5999V52.4Z" fill="currentcolor"/>
<path d="M24.9 13.7H23.5V15.2H24.9V13.7Z" fill="currentcolor"/>
<path d="M24.9 10.8H23.5V12.3H24.9V10.8Z" fill="currentcolor"/>
<path d="M28.1 25.6L27.1 24.6L24.9 26.8V16.9H23.5V26.8L21.3 24.6L20.3 25.6L24.2001 29.6L28.1 25.6Z" fill="currentcolor"/>
<path d="M15.7999 9.5H14.3999V11H15.7999V9.5Z" fill="currentcolor"/>
<path d="M15.7999 6.5H14.3999V8H15.7999V6.5Z" fill="currentcolor"/>
<path d="M19 21.4L18 20.4L15.8 22.6V12.7H14.4V22.6L12.2 20.4L11.2 21.4L15.1 25.4L19 21.4Z" fill="currentcolor"/>
<path d="M27 40.5C27.5 40.9 27.7001 41.4 27.7001 41.9H29.1C29.1 40.9 28.7 40 27.9 39.4C27.3 38.9 26.6 38.6 25.9 38.5V36.2H24.5V38.5C23.7 38.6 23 38.9 22.5 39.4C21.7 40.1 21.3 41 21.3 41.9C21.3 42.9 21.7 43.8 22.5 44.4C23.2 45 24.2 45.4 25.3 45.4C26 45.4 26.6 45.6 27.1 46C27.6 46.4 27.8 46.9 27.8 47.4C27.8 47.9 27.6 48.4 27.1 48.8C26.1 49.6 24.4 49.6 23.5 48.8C23 48.4 22.8 47.9 22.8 47.4H21.4C21.4 48.4 21.8 49.3 22.6 49.9C23.2 50.4 23.9 50.7 24.6 50.8V53.1H26V51C26.8 50.9 27.5 50.6 28 50.1C28.8 49.4 29.2001 48.5 29.2001 47.6C29.2001 46.6 28.8 45.7 28 45.1C27.3 44.5 26.3001 44.1 25.2001 44.1C24.5001 44.1 23.9 43.9 23.4 43.5C22.9 43.1 22.7001 42.6 22.7001 42.1C22.7001 41.6 22.9 41.1 23.4 40.7C24.3 39.7 26 39.7 27 40.5Z" fill="currentcolor"/>
</svg>
