<svg viewBox="0 0 64 64" fill="none" xmlns="http://www.w3.org/2000/svg">
<path d="M16.62 46.3374L17.6807 47.398L18.7413 46.3374L17.6807 45.2767L16.62 46.3374Z" fill="currentcolor"/>
<path d="M15.7387 49.3391L16.7993 48.2784L15.7387 47.2178L14.678 48.2784L15.7387 49.3391Z" fill="currentcolor"/>
<path d="M19.6593 43.3336L18.5986 44.3943L19.6593 45.4549L20.7199 44.3943L19.6593 43.3336Z" fill="currentcolor"/>
<path d="M14.6002 49.4C13.3002 48.1 11.0002 48.1 9.7002 49.4C9.0002 50.1 8.7002 50.9 8.7002 51.8C8.7002 52.7 9.1002 53.6 9.7002 54.2C10.4002 54.9 11.2002 55.2 12.1002 55.2C13.0002 55.2 13.9002 54.8 14.5002 54.2C15.2002 53.5 15.5002 52.7 15.5002 51.8C15.6002 51 15.2002 50.1 14.6002 49.4ZM13.5002 53.3C12.7002 54.1 11.4002 54.1 10.7002 53.3C10.3002 52.9 10.1002 52.4 10.1002 51.9C10.1002 51.4 10.3002 50.9 10.7002 50.5C11.1002 50.1 11.6002 49.9 12.1002 49.9C12.6002 49.9 13.1002 50.1 13.5002 50.5C13.9002 50.9 14.1002 51.4 14.1002 51.9C14.1002 52.4 13.9002 52.9 13.5002 53.3Z" fill="currentcolor"/>
<path d="M32.7998 51.5H31.2998V53H32.7998V51.5Z" fill="currentcolor"/>
<path d="M32.7998 48.8H31.2998V50.3H32.7998V48.8Z" fill="currentcolor"/>
<path d="M32.7998 54.3H31.2998V55.8H32.7998V54.3Z" fill="currentcolor"/>
<path d="M32 56.9C30.1 56.9 28.5 58.5 28.5 60.4C28.5 62.3 30.1 63.9 32 63.9C33.9 63.9 35.5 62.3 35.5 60.4C35.5 58.5 33.9 56.9 32 56.9ZM32 62.4C30.9 62.4 30 61.5 30 60.4C30 59.3 30.9 58.4 32 58.4C33.1 58.4 34 59.3 34 60.4C34 61.5 33.1 62.4 32 62.4Z" fill="currentcolor"/>
<path d="M46.3546 45.2763L45.2939 46.337L46.3546 47.3976L47.4152 46.337L46.3546 45.2763Z" fill="currentcolor"/>
<path d="M48.2442 47.2051L47.1836 48.2657L48.2442 49.3264L49.3049 48.2657L48.2442 47.2051Z" fill="currentcolor"/>
<path d="M44.3578 45.4693L45.4185 44.4087L44.3578 43.348L43.2972 44.4087L44.3578 45.4693Z" fill="currentcolor"/>
<path d="M54.3001 49.4C53.0001 48.1 50.7001 48.1 49.4001 49.4C48.0001 50.8 48.0001 52.9 49.4001 54.3C50.1001 55 50.9001 55.3 51.8001 55.3C52.7001 55.3 53.6001 54.9 54.2001 54.3C54.9001 53.6 55.2001 52.8 55.2001 51.9C55.3001 51 55.0001 50.1 54.3001 49.4ZM53.3001 53.3C52.5001 54.1 51.2001 54.1 50.5001 53.3C49.7001 52.5 49.7001 51.2 50.5001 50.5C50.9001 50.1 51.4001 49.9 51.9001 49.9C52.4001 49.9 52.9001 50.1 53.3001 50.5C53.7001 50.9 53.9001 51.4 53.9001 51.9C53.9001 52.4 53.7001 52.9 53.3001 53.3Z" fill="currentcolor"/>
<path d="M32.7998 8.29999H31.2998V9.79999H32.7998V8.29999Z" fill="currentcolor"/>
<path d="M32.7998 11H31.2998V12.5H32.7998V11Z" fill="currentcolor"/>
<path d="M32.7998 13.7H31.2998V15.2H32.7998V13.7Z" fill="currentcolor"/>
<path d="M32 7.09998C33.9 7.09998 35.5 5.49998 35.5 3.59998C35.5 1.69998 33.9 0.0999756 32 0.0999756C30.1 0.0999756 28.5 1.69998 28.5 3.59998C28.5 5.49998 30.1 7.09998 32 7.09998ZM32 1.59998C33.1 1.59998 34 2.49998 34 3.59998C34 4.69998 33.1 5.59998 32 5.59998C30.9 5.59998 30 4.69998 30 3.59998C30 2.49998 30.9 1.59998 32 1.59998Z" fill="currentcolor"/>
<path d="M19.5023 20.6481L20.563 19.5874L19.5023 18.5268L18.4417 19.5874L19.5023 20.6481Z" fill="currentcolor"/>
<path d="M17.682 18.7237L18.7427 17.6631L17.682 16.6024L16.6214 17.6631L17.682 18.7237Z" fill="currentcolor"/>
<path d="M15.7211 16.7991L16.7817 15.7384L15.7211 14.6778L14.6604 15.7384L15.7211 16.7991Z" fill="currentcolor"/>
<path d="M12.1001 15.6C13.0001 15.6 13.9001 15.2 14.5001 14.6C15.2001 13.9 15.5001 13.1 15.5001 12.2C15.5001 11.3 15.1001 10.4 14.5001 9.79995C13.2001 8.49995 10.9001 8.49995 9.6001 9.79995C8.9001 10.5 8.6001 11.3 8.6001 12.2C8.6001 13.1 9.0001 14 9.6001 14.6C10.3001 15.2 11.2001 15.6 12.1001 15.6ZM10.7001 10.7C11.1001 10.3 11.6001 10.1 12.1001 10.1C12.6001 10.1 13.1001 10.3 13.5001 10.7C13.9001 11.1 14.1001 11.6 14.1001 12.1C14.1001 12.6 13.9001 13.1 13.5001 13.5C12.7001 14.3 11.4001 14.3 10.7001 13.5C10.3001 13.1 10.1001 12.6 10.1001 12.1C10.1001 11.6 10.3001 11.1 10.7001 10.7Z" fill="currentcolor"/>
<path d="M47.4156 17.6625L46.355 16.6018L45.2943 17.6625L46.355 18.7231L47.4156 17.6625Z" fill="currentcolor"/>
<path d="M49.3053 15.737L48.2446 14.6763L47.184 15.737L48.2446 16.7976L49.3053 15.737Z" fill="currentcolor"/>
<path d="M45.4557 19.6587L44.395 18.598L43.3344 19.6587L44.395 20.7193L45.4557 19.6587Z" fill="currentcolor"/>
<path d="M51.9001 15.6C52.8001 15.6 53.7001 15.2 54.3001 14.6C55.0001 13.9 55.3001 13.1 55.3001 12.2C55.3001 11.3 54.9001 10.4 54.3001 9.79995C53.0001 8.49995 50.7001 8.49995 49.4001 9.79995C48.0001 11.2 48.0001 13.3 49.4001 14.7C50.1001 15.2 51.0001 15.6 51.9001 15.6ZM50.5001 10.7C50.9001 10.3 51.4001 10.1 51.9001 10.1C52.4001 10.1 52.9001 10.3 53.3001 10.7C53.7001 11.1 53.9001 11.6 53.9001 12.1C53.9001 12.6 53.7001 13.1 53.3001 13.5C52.5001 14.3 51.2001 14.3 50.5001 13.5C49.7001 12.8 49.7001 11.5 50.5001 10.7Z" fill="currentcolor"/>
<path d="M16.3 40C21.6 42.9 26.9 44.2999 32 44.2999C37.1 44.2999 42.4 42.7999 47.7 40C53.9 36.7 57.9 32.7 58 32.5L58.5 32L58 31.5C57.7 31.2 50.1 23.6 39.6 20.7C37 20 34.5 19.7 32 19.7C29.5 19.7 27 20.0999 24.4 20.7999C13.8 23.5999 6.3 31.2 6 31.5L5.5 32L6 32.5C6.1 32.7 10.1 36.7 16.3 40ZM32 21.1C38 21.1 42.9 26 42.9 32C42.9 38 38 42.9 32 42.9C26 42.9 21.1 38 21.1 32C21.1 26 26 21.1 32 21.1ZM56.4 32C55.1 33.2 51.7 36.2 47 38.7C44.4 40.1 41.9 41.0999 39.4 41.7999C42.4 39.5 44.3 36 44.3 32C44.3 28 42.4 24.4 39.4 22.2C47.9 24.6 54.6 30.3 56.4 32ZM24.6 22.2C21.6 24.5 19.7 28 19.7 32C19.7 36 21.6 39.5999 24.6 41.7999C22.1 41.0999 19.6 40.1 17 38.7C12.3 36.2 8.8 33.2 7.6 32C9.4 30.3 16.1 24.6 24.6 22.2Z" fill="currentcolor"/>
<path d="M31.9998 36.7C34.5998 36.7 36.6998 34.6 36.6998 32C36.6998 29.4 34.5998 27.3 31.9998 27.3C29.3998 27.3 27.2998 29.4 27.2998 32C27.2998 34.6 29.3998 36.7 31.9998 36.7ZM31.9998 28.7C33.7998 28.7 35.2998 30.2 35.2998 32C35.2998 33.8 33.7998 35.3 31.9998 35.3C30.1998 35.3 28.6998 33.8 28.6998 32C28.6998 30.2 30.1998 28.7 31.9998 28.7Z" fill="currentcolor"/>
</svg>
