<svg viewBox="0 0 64 64" fill="none" xmlns="http://www.w3.org/2000/svg">
<path d="M35.2001 51.1L32.0001 44.5L28.8001 51.1L21.6001 52.1L26.9001 57.2L25.6001 64.4L32.0001 61L38.4001 64.4L37.1001 57.2L42.4001 52.1L35.2001 51.1ZM36.5001 61.6L32.0001 59.2L27.5001 61.6L28.4001 56.6L24.8001 53.1L29.8001 52.4L32.0001 47.9L34.2001 52.4L39.2001 53.1L35.6001 56.6L36.5001 61.6Z" fill="currentcolor"/>
<path d="M48.0999 50.2L42.5999 49.5L40.2 44.5L37.7 49.8L39 50.5L40.2 47.9L41.7 50.8L44.9 51.3L42.5999 53.5L43.0999 56.8L40.5999 55.4L39.9 56.7L45.0999 59.5L44.0999 54.1L48.0999 50.2Z" fill="currentcolor"/>
<path d="M18.8999 59.5L24.0999 56.7L23.3999 55.4L20.8999 56.8L21.3999 53.5L19.0999 51.3L22.2999 50.8L23.7999 47.9L24.9999 50.5L26.2999 49.8L23.7999 44.5L21.3999 49.5L15.8999 50.2L19.8999 54.1L18.8999 59.5Z" fill="currentcolor"/>
<path d="M54.3 8.89995C48.3 2.89995 40.4 -0.300049 32 -0.300049C23.6 -0.300049 15.7 2.99995 9.7 8.89995C3.7 14.9 0.5 22.8 0.5 31.2C0.5 39.6 3.8 47.5 9.7 53.5L10.2 54L18.1 46.0999L17.6 45.5999C13.7 41.6999 11.6 36.6 11.6 31.2C11.6 25.8 13.7 20.5999 17.6 16.7999C21.5 12.9 26.6 10.8 32 10.8C36.3 10.8 40.2 12 43.5 14.2C44 14.5 44.5 14.9 44.9 15.3L31.4 26C30.5 26.1 29.6 26.5 29 27.2C27.3 28.9 27.3 31.7 29 33.4C29.8 34.2 30.9 34.7 32.1 34.7C33.3 34.7 34.4 34.2 35.2 33.4C35.9 32.7 36.3 31.9 36.4 31L47.2 17.6C50.6 21.4 52.5 26.1 52.5 31.2C52.5 36.6 50.4 41.6999 46.5 45.5999L46 46.0999L53.9 54L54.4 53.5C60.4 47.5 63.6 39.6 63.6 31.2C63.5 22.8 60.2 14.9 54.3 8.89995ZM34.1 32.4C33 33.5 31 33.5 29.9 32.4C28.8 31.2 28.8 29.4 29.9 28.2C32.4 26.3 35.1 27.9 34.9 30.6C34.9 31.3 34.6 31.9 34.1 32.4ZM36.2 28.9C36.1 28.6 35.4 26.7 33.5 26.2L46 16.4L46.1 16.5L36.2 28.9ZM53.8 51.9L48 46.0999C49 45.0999 49.8 43.9 50.6 42.7L53.2 44.2L53.9 42.9L51.3 41.4C52.9 38.5 53.7 35.2 53.9 31.9H56.9V30.4H53.9C53.8 27 52.9 23.7999 51.4 20.7999L54 19.2999L53.3 18L50.7 19.5C50 18.4 49.2 17.2999 48.2 16.2999L51.8 11.8C52 11.5 52 11.1 51.7 10.8C51.4 10.5 51 10.5 50.7 10.7L46.1 14.3C45.6 13.8 45 13.3 44.3 12.9C44.1 12.7 43.8 12.6 43.6 12.5L45 9.99995L43.7 9.29995L42.3 11.8C39.4 10.3 36.2 9.39995 32.7 9.29995V6.29995H31.2V9.29995C27.8 9.39995 24.6 10.3 21.6 11.8L20.1 9.19995L19 10.1L20.5 12.7C19.1 13.6 17.8 14.6 16.6 15.8C15.4 17 14.4 18.3 13.5 19.7L10.9 18.2L10.2 19.5L12.8 21C11.2 23.9 10.4 27.2 10.3 30.6H7.3V32H10.3C10.4 35.4 11.3 38.5999 12.9 41.5L10.2 43L10.9 44.2999L13.5 42.7999C14.2 44 15.1 45.1 16.1 46.2L10.3 52C4.9 46.2999 1.9 39 1.9 31.2C1.9 23.2 5 15.6 10.7 9.89995C16.4 4.29995 24 1.19995 32 1.19995C40 1.19995 47.6 4.29995 53.2 9.99995C58.9 15.7 62 23.1999 62 31.2999C62.1 39 59.1 46.3 53.8 51.9Z" fill="currentcolor"/>
</svg>
