<svg viewBox="0 0 64 64" fill="none" xmlns="http://www.w3.org/2000/svg">
<path d="M39.354 26.171L39.7251 24.7177L38.078 24.2971L37.7069 25.7504L39.354 26.171Z" fill="currentcolor"/>
<path d="M41.6543 21.2898L42.7026 20.217L41.4868 19.0289L40.4384 20.1017L41.6543 21.2898Z" fill="currentcolor"/>
<path d="M45.6102 16.51L46.0693 18.1467L47.5135 17.7416L47.0544 16.1048L45.6102 16.51Z" fill="currentcolor"/>
<path d="M53.3752 16.5079L51.9219 16.1368L51.5013 17.784L52.9546 18.1551L53.3752 16.5079Z" fill="currentcolor"/>
<path d="M58.6943 19.8654L57.6206 18.818L56.4335 20.0349L57.5072 21.0823L58.6943 19.8654Z" fill="currentcolor"/>
<path d="M61.5276 25.5145L61.1216 24.0704L59.485 24.5306L59.891 25.9747L61.5276 25.5145Z" fill="currentcolor"/>
<path d="M7.79993 38.2V33.3C7.79993 29.4 5.89993 26.3 4.29993 23.7C3.49993 22.3 2.69993 21 2.19993 19.8C0.799933 16 0.799933 12.5 2.09993 9.29997C2.59993 8.09997 3.29993 6.89997 4.19993 5.89997C5.19993 4.79997 6.29993 3.79997 7.59993 3.09997C8.79993 2.39997 10.2999 1.89997 11.8999 1.49997C13.5999 1.19997 17.9999 0.699974 22.2999 3.99997C24.8999 5.99997 26.6999 8.89997 26.8999 11.3V14.4L29.7999 20.9L27.3999 21L27.5999 26.7C27.5999 27 27.4999 27.3 27.2999 27.5C27.0999 27.7 26.7999 27.8 26.3999 27.8H21.4999V37H19.2999V38.5H22.9999V29.3H26.3999C27.0999 29.3 27.8999 29.1 28.3999 28.6C28.8999 28.1 29.1999 27.4 29.1999 26.6L28.9999 22.3L32.0999 22.2L28.4999 14V11.2C28.2999 8.39997 26.1999 5.09997 23.2999 2.79997C18.4999 -0.900026 13.5999 -0.400026 11.6999 -2.6077e-05C9.79993 0.399974 8.19993 0.899974 6.89993 1.79997C5.39993 2.59997 4.09993 3.69997 2.99993 4.89997C1.99993 6.09997 1.29993 7.39997 0.699933 8.69997C-0.700067 12.2 -0.700067 16.1 0.799933 20.2C1.29993 21.7 2.09993 23 2.99993 24.5C4.59993 27.1 6.29993 29.9 6.29993 33.4V38.3H7.79993V38.2Z" fill="currentcolor"/>
<path d="M20 29.6H18.5V31.1H20V29.6Z" fill="currentcolor"/>
<path d="M20 32.7999H18.5V34.2999H20V32.7999Z" fill="currentcolor"/>
<path d="M63.2999 34.6999C62.6999 33.2999 61.8999 32.0999 60.8999 30.8999C60.2999 30.1999 59.5999 29.5999 58.8999 28.9999C58.8999 28.6999 58.8999 28.4999 58.8999 28.1999C58.8999 22.8999 54.3999 18.5999 48.9999 18.8999C44.2999 19.1999 40.5999 22.9999 40.3999 27.6999C40.3999 28.0999 40.3999 28.5999 40.3999 28.9999C37.5999 31.2999 35.6999 34.3999 35.4999 37.1999V39.9999L31.8999 48.1999L34.9999 48.2999L34.7999 52.4999C34.7999 53.1999 35.0999 53.9999 35.5999 54.4999C36.0999 54.9999 36.8999 55.2999 37.4999 55.1999H40.8999V64.3999H44.5999V62.8999H42.3999V53.6999H37.3999C37.0999 53.6999 36.7999 53.5999 36.4999 53.3999C36.2999 53.1999 36.1999 52.8999 36.1999 52.5999L36.3999 46.8999L33.9999 46.7999L36.8999 40.2999V37.2999C37.0999 35.1999 38.5999 32.6999 40.6999 30.6999C40.8999 31.3999 41.1999 32.0999 41.5999 32.7999C41.6999 32.8999 41.6999 32.9999 41.7999 33.0999C43.0999 35.3999 44.0999 37.9999 44.6999 40.6999H43.1999V42.1999H44.9999C45.0999 42.5999 45.0999 43.0999 45.1999 43.5999C45.3999 44.5999 46.2999 45.2999 47.2999 45.2999H51.9999C52.8999 45.2999 53.6999 44.6999 53.9999 43.8999V43.6999C54.0999 43.1999 54.0999 42.6999 54.1999 42.1999H55.9999V40.6999H54.4999C54.9999 38.1999 55.8999 35.7999 57.0999 33.5999L57.1999 33.3999C57.2999 33.1999 57.3999 32.9999 57.5999 32.7999L58.3999 31.1999C58.4999 30.9999 58.4999 30.7999 58.5999 30.6999C58.9999 31.0999 59.3999 31.4999 59.7999 31.8999C60.6999 32.8999 61.3999 34.0999 61.8999 35.2999C63.1999 38.3999 63.0999 41.8999 61.7999 45.7999C61.2999 47.0999 60.5999 48.3999 59.6999 49.6999C58.0999 52.3999 56.1999 55.3999 56.1999 59.2999V64.1999H57.6999V59.2999C57.6999 55.7999 59.3999 53.0999 60.9999 50.3999C61.8999 48.9999 62.6999 47.5999 63.1999 46.1999C64.6999 42.0999 64.6999 38.1999 63.2999 34.6999ZM52.5999 43.4999C52.4999 43.6999 52.2999 43.8999 51.9999 43.8999H47.3999C47.0999 43.8999 46.7999 43.6999 46.7999 43.4999C46.7999 43.0999 46.6999 42.6999 46.5999 42.2999H52.7999C52.7999 42.6999 52.6999 43.0999 52.5999 43.4999ZM57.0999 30.6999L56.3999 32.1999C56.2999 32.3999 56.1999 32.4999 56.0999 32.6999L55.9999 32.7999C54.5999 35.1999 53.6999 37.8999 53.0999 40.7999H46.2999C45.6999 37.7999 44.5999 34.8999 43.1999 32.3999C43.0999 32.2999 43.0999 32.0999 42.9999 31.9999C42.2999 30.6999 41.8999 29.1999 41.9999 27.7999C42.1999 23.8999 45.2999 20.6999 49.1999 20.3999C49.3999 20.3999 49.5999 20.3999 49.6999 20.3999C53.9999 20.3999 57.4999 23.8999 57.4999 28.1999C57.4999 29.0999 57.3999 29.8999 57.0999 30.6999Z" fill="currentcolor"/>
<path d="M45.5 58.7H44V60.2H45.5V58.7Z" fill="currentcolor"/>
<path d="M45.5 55.5H44V57H45.5V55.5Z" fill="currentcolor"/>
<path d="M37.1001 6.49995L34.9001 4.29995C38.0001 4.29995 40.9001 5.29995 43.4001 7.29995C45.3001 8.79995 46.7001 10.7 47.6001 12.9L49.0001 12.3C48.0001 9.89995 46.4001 7.69995 44.3001 6.09995C41.6001 3.99995 38.4001 2.79995 35.0001 2.79995L37.0001 0.699951L36.0001 -0.300049L32.1001 3.69995L36.1001 7.59995L37.1001 6.49995Z" fill="currentcolor"/>
<path d="M16.3001 45.5999L11.8001 42.3999L8.6001 46.8999L9.8001 47.7999L11.5001 45.2999C12.4001 49.7999 14.8001 53.8999 18.5001 56.8999C22.1001 59.7999 26.4001 61.2999 31.0001 61.2999C31.7001 61.2999 32.4001 61.2999 33.1001 61.1999L32.9001 59.6999C28.0001 60.1999 23.2001 58.7999 19.4001 55.6999C16.0001 52.9999 13.8001 49.2999 13.0001 45.0999L15.4001 46.7999L16.3001 45.5999Z" fill="currentcolor"/>
</svg>
