<svg viewBox="0 0 64 64" fill="none" xmlns="http://www.w3.org/2000/svg">
<path d="M48.5998 46.4L47.5998 47.4L50.8998 50.7H39.4998V38.2L42.4998 37L41.6998 32.9C42.9998 31.9 44.1998 30.8 45.1998 29.5L49.2998 30.4L51.6998 24.6L48.1998 22.3C48.4998 20.7 48.4998 19 48.1998 17.4L51.6998 15.1L49.2998 9.29998L45.1998 10.1C44.1998 8.79998 43.0998 7.59998 41.7998 6.59998L42.6998 2.49998L36.8998 0.0999756L34.5998 3.59998C32.9998 3.29998 31.2998 3.29998 29.6998 3.59998L27.3998 0.0999756L21.5998 2.49998L22.3998 6.59998C21.0998 7.59998 19.8998 8.69998 18.8998 10.1L14.7998 9.19998L12.3998 15L15.8998 17.3C15.5998 18.9 15.5998 20.6 15.8998 22.2L12.3998 24.5L14.7998 30.3L18.8998 29.5C19.8998 30.8 20.9998 32 22.3998 33L21.4998 37.1L24.5998 38.4V50.9H13.0998L16.3998 47.6L15.3998 46.6L10.2998 51.7L15.3998 56.8L16.3998 55.8L13.0998 52.5H25.9998V38.8L27.2998 39.3L29.5998 35.8C30.1998 35.9 30.7998 35.9 31.3998 36V61.1L27.9998 57.8L26.9998 58.8L32.0998 63.9L37.1998 58.8L36.1998 57.8L32.8998 61.1V36C33.4998 36 33.9998 35.9 34.5998 35.9L36.8998 39.4L38.2998 38.8V52.2H51.1998L47.8998 55.5L48.8998 56.5L53.9998 51.4L48.5998 46.4ZM37.1998 37.6L35.0998 34.3C32.8998 34.7 30.7998 34.7 28.7998 34.3L26.6998 37.6L23.0998 36L23.8998 32.2C22.1998 31 20.6998 29.6 19.4998 27.7L15.6998 28.5L14.1998 24.9L17.4998 22.8C17.0998 20.7 17.0998 18.6 17.4998 16.5L14.1998 14.4L15.6998 10.8L19.4998 11.6C20.5998 9.89998 22.0998 8.39998 23.9998 7.19998L23.1998 3.39998L26.7998 1.89998L28.8998 5.19998C30.9998 4.69998 33.0998 4.79998 35.1998 5.19998L37.2998 1.89998L40.8998 3.39998L40.0998 7.19998C41.8998 8.39998 43.3998 9.89997 44.4998 11.7L48.2998 10.9L49.7998 14.5L46.4998 16.6C46.8998 18.8 46.9998 20.9 46.4998 22.9L49.7998 25L48.2998 28.6L44.4998 27.8C43.2998 29.6 41.8998 31.1 39.9998 32.2L40.7998 36L37.1998 37.6Z" fill="currentcolor"/>
<path d="M35.9998 10.3C34.6998 9.79997 33.3998 9.49997 31.9998 9.49997C27.8998 9.49997 24.0998 12 22.4998 15.8C21.3998 18.3 21.3998 21.1 22.4998 23.7C23.4998 26.2 25.4998 28.2 27.9998 29.3C29.2998 29.8 30.5998 30.1 31.9998 30.1C36.1998 30.1 39.8998 27.6 41.4998 23.8C43.6998 18.5 41.1998 12.4 35.9998 10.3ZM40.0998 23.1C38.6998 26.4 35.4998 28.5 31.9998 28.5C30.7998 28.5 29.6998 28.3 28.5998 27.8C26.3998 26.9 24.6998 25.2 23.7998 23C22.8998 20.8 22.8998 18.4 23.7998 16.3C25.1998 13 28.3998 10.9 31.8998 10.9C33.0998 10.9 34.1998 11.1 35.2998 11.6C39.8998 13.5 41.9998 18.7 40.0998 23.1Z" fill="currentcolor"/>
</svg>
