<svg viewBox="0 0 64 64" fill="none" xmlns="http://www.w3.org/2000/svg">
<path d="M45.5517 16.9711L43.7222 16.4587L43.3176 17.903L45.1471 18.4155L45.5517 16.9711Z" fill="currentcolor"/>
<path d="M45.7004 11.1523L45.3291 9.69894L43.4882 10.1692L43.8594 11.6225L45.7004 11.1523Z" fill="currentcolor"/>
<path d="M42.4463 4.69647L41.3975 3.62411L40.0392 4.9526L41.088 6.02495L42.4463 4.69647Z" fill="currentcolor"/>
<path d="M36.543 0.654822L35.0991 0.248322L34.5842 2.07726L36.0281 2.48376L36.543 0.654822Z" fill="currentcolor"/>
<path d="M29.7196 2.02646L29.2495 0.185547L27.7962 0.556647L28.2662 2.39756L29.7196 2.02646Z" fill="currentcolor"/>
<path d="M24.1223 4.80077L22.7944 3.44189L21.7216 4.49024L23.0495 5.84912L24.1223 4.80077Z" fill="currentcolor"/>
<path d="M20.6493 9.99148L18.8198 9.47867L18.415 10.923L20.2445 11.4358L20.6493 9.99148Z" fill="currentcolor"/>
<path d="M20.5918 17.5915L20.2207 16.1382L18.3798 16.6082L18.7509 18.0616L20.5918 17.5915Z" fill="currentcolor"/>
<path d="M60.7002 49.9L62.9002 48.5L61.2002 44.4L58.6002 44.9C58.0002 44.2 57.4002 43.5 56.6002 42.9L57.2002 40.3L53.2002 38.6L51.8002 40.8C51.6002 40.8 51.3002 40.8 51.1002 40.8V19.8H40.7002C40.7002 19.7 40.8002 19.7 40.8002 19.6C40.9002 19.5 41.0002 19.3 41.1002 19.2C42.1002 17.5 42.6002 15.5 42.5002 13.5C42.2002 8.19998 38.0002 3.89998 32.7002 3.49998C26.5002 3.09998 21.4002 7.99998 21.4002 14C21.4002 15.2 21.6002 16.4 22.0002 17.6L22.9002 19.4C23.0002 19.5 23.1002 19.7 23.1002 19.8H13.0002V40.8C12.8002 40.8 12.5002 40.8 12.3002 40.8L10.9002 38.6L6.9002 40.3L7.5002 42.9C6.8002 43.5 6.1002 44.1 5.5002 44.9L2.9002 44.4L1.2002 48.5L3.4002 49.9C3.3002 50.8 3.3002 51.7 3.4002 52.7L1.2002 54.1L2.9002 58.1L5.5002 57.5C6.1002 58.2 6.7002 58.9 7.5002 59.5L7.0002 62.1L11.1002 63.8L12.5002 61.6C13.4002 61.7 14.3002 61.7 15.3002 61.6L16.7002 63.8L20.7002 62.1L20.0002 59.5C20.7002 58.9 21.4002 58.3 22.0002 57.5L24.6002 58L26.3002 53.9L24.0002 52.6C24.1002 51.7 24.1002 50.7 24.0002 49.8L26.2002 48.4L24.5002 44.4L22.0002 44.9C21.4002 44.2 20.8002 43.5 20.0002 42.9L20.5002 40.3L16.4002 38.6L15.0002 40.9C14.8002 40.9 14.6002 40.9 14.4002 40.9V21.3H23.9002C25.0002 23.6 25.9002 26 26.4002 28.6H24.7002V30H26.7002C26.8002 30.6 26.9002 31.3 27.0002 31.9V32.1C27.3002 33 28.2002 33.6 29.2002 33.6H34.5002C35.6002 33.6 36.6002 32.8 36.8002 31.7C36.9002 31.2 36.9002 30.6 37.0002 30.1C37.0002 30.1 37.0002 30.1 37.0002 30H39.0002V28.5H37.3002C37.8002 25.9 38.7002 23.5 39.8002 21.2H49.4002V40.7C49.2002 40.7 49.0002 40.7 48.8002 40.7L47.4002 38.5L43.3002 40.2L43.8002 42.8C43.1002 43.4 42.4002 44 41.8002 44.8L39.2002 44.2L37.5002 48.2L39.7002 49.6C39.6002 50.5 39.6002 51.4 39.7002 52.4L37.7002 54L39.4002 58.1L42.0002 57.6C42.6002 58.3 43.2002 59 44.0002 59.6L43.4002 62.2L47.4002 63.9L48.8002 61.7C49.7002 61.8 50.7002 61.8 51.6002 61.7L53.0002 63.9L57.1002 62.2L56.6002 59.6C57.4002 59 58.0002 58.4 58.6002 57.6L61.2002 58.2L62.9002 54.2L60.7002 52.8C60.8002 51.7 60.8002 50.8 60.7002 49.9ZM15.7002 42.5L17.0002 40.5L18.8002 41.2L18.3002 43.5C19.5002 44.3 20.6002 45.3 21.3002 46.4L23.6002 45.9L24.4002 47.7L22.4002 49C22.7002 50.5 22.7002 51.9 22.4002 53.2L24.4002 54.5L23.7002 56.3L21.4002 55.8C20.7002 57 19.7002 58 18.5002 58.8L19.0002 61.1L17.2002 61.9L15.9002 59.9C14.5002 60.2 13.1002 60.2 11.7002 59.9L10.4002 61.9L8.6002 61.2L9.0002 58.9C7.8002 58.2 6.8002 57.2 6.0002 56L3.7002 56.5L3.0002 54.6L5.0002 53.3C4.7002 51.9 4.7002 50.5 5.0002 49.1L3.0002 47.8L3.7002 46L6.0002 46.5C6.7002 45.4 7.7002 44.4 8.9002 43.5L8.4002 41.2L10.2002 40.4L11.5002 42.4C13.0002 42.2 14.4002 42.2 15.7002 42.5ZM35.5002 31.5C35.4002 31.9 35.0002 32.2 34.6002 32.2H29.3002C29.0002 32.2 28.6002 32 28.5002 31.7C28.4002 31.2 28.4002 30.6 28.3002 30.1H35.7002C35.6002 30.5 35.5002 31 35.5002 31.5ZM39.9002 18.4C39.8002 18.6 39.7002 18.8 39.6002 18.9C37.9002 21.8 36.7002 25.1 36.0002 28.6H28.0002C27.3002 25.3 26.2002 22.2 24.6002 19.4L24.5002 19.3C24.4002 19.1 24.3002 18.9 24.2002 18.7L23.4002 17C23.1002 16 22.9002 15 22.9002 14C22.9002 8.79998 27.3002 4.59998 32.6002 4.99998C37.2002 5.29998 40.8002 8.99998 41.0002 13.6C41.1002 15.3 40.7002 17 39.9002 18.4ZM61.0002 54.6L60.2002 56.4L58.0002 55.9C57.3002 57 56.3002 58 55.0002 58.8L55.5002 61.1L53.7002 62L52.4002 60C50.9002 60.3 49.5002 60.3 48.2002 60L46.9002 62L45.1002 61.2L45.6002 58.9C44.4002 58.1 43.4002 57.1 42.7002 55.9L40.4002 56.4L39.7002 54.6L41.7002 53.3C41.4002 52 41.4002 50.6 41.7002 49.1L39.7002 47.8L40.5002 46L42.8002 46.5C43.6002 45.3 44.6002 44.3 45.8002 43.6L45.3002 41.3L47.1002 40.6L48.4002 42.6C49.8002 42.3 51.2002 42.3 52.6002 42.6L53.9002 40.6L55.7002 41.4L55.0002 43.6C56.2002 44.4 57.2002 45.4 57.9002 46.6L60.2002 46.1L60.9002 47.9L58.9002 49.2C59.2002 50.6 59.2002 52 58.9002 53.4L61.0002 54.6Z" fill="currentcolor"/>
<path d="M52.9002 45.1C52.1002 44.8 51.2002 44.6 50.3002 44.6C47.6002 44.6 45.2002 46.2 44.1002 48.7C43.4002 50.3 43.4002 52.2 44.1002 53.8C44.8002 55.4 46.1002 56.7 47.7002 57.4C48.5002 57.7 49.4002 57.9 50.3002 57.9C53.0002 57.9 55.4002 56.3 56.5002 53.8C57.9002 50.4 56.3002 46.5 52.9002 45.1ZM55.1002 53.2C54.3002 55.1 52.4002 56.4 50.3002 56.4C49.6002 56.4 48.9002 56.3 48.3002 56C47.0002 55.5 46.0002 54.5 45.5002 53.2C45.0002 51.9 45.0002 50.5 45.5002 49.2C46.3002 47.3 48.2002 46 50.3002 46C51.0002 46 51.7002 46.1 52.3002 46.4C55.0002 47.5 56.2002 50.6 55.1002 53.2Z" fill="currentcolor"/>
<path d="M7.5001 48.7C6.8001 50.3 6.8001 52.2 7.5001 53.8C8.5001 56.3 11.0001 57.9 13.7001 57.9C14.6001 57.9 15.5001 57.7 16.3001 57.4C17.9001 56.7 19.2001 55.4 19.9001 53.8C20.6001 52.2 20.6001 50.3 19.9001 48.7C18.9001 46.2 16.4001 44.6 13.7001 44.6C12.8001 44.6 11.9001 44.8 11.1001 45.1C9.5001 45.7 8.2001 47 7.5001 48.7ZM13.7001 46C15.8001 46 17.7001 47.3 18.5001 49.2C19.0001 50.5 19.0001 51.9 18.5001 53.2C18.0001 54.5 17.0001 55.5 15.7001 56C15.1001 56.3 14.4001 56.4 13.7001 56.4C11.6001 56.4 9.7001 55.1 8.9001 53.2C8.4001 51.9 8.4001 50.5 8.9001 49.2C9.4001 47.9 10.4001 46.9 11.7001 46.4C12.3001 46.1 13.0001 46 13.7001 46Z" fill="currentcolor"/>
</svg>
