<svg viewBox="0 0 64 64" fill="none" xmlns="http://www.w3.org/2000/svg">
<path d="M51.4998 52.8H49.6998C49.6998 52.5 49.7998 52.3 49.7998 52C50.9998 44.4 53.5998 37.2 57.1998 31C57.3998 30.7 57.4998 30.5 57.6998 30.2L57.7998 30.1C59.6998 26.8 60.5998 23 60.3998 19.1C59.7998 8.90001 51.6998 0.700008 41.4998 8.13603e-06C29.7998 -0.699992 19.9998 8.60001 19.9998 20.2C19.9998 22.1 20.2998 23.9 20.7998 25.8L6.29976 49C6.19976 49.1 6.09976 49.2 5.99976 49.3C4.39976 51 3.59976 53.3 3.69976 55.6C3.89976 60.3 7.69976 64 12.3998 64C12.4998 64 12.5998 64 12.7998 64C15.9998 63.9 18.6998 62 20.0998 59.4L30.2998 50.1C30.4998 51 30.5998 51.9 30.6998 52.8H28.7998V54.3H30.8998C30.9998 54.8 30.9998 55.2 31.0998 55.7V55.9C31.5998 57.3 32.8998 58.3 34.3998 58.4H34.7998H45.3998H45.8998C47.5998 58.2 48.8998 57 49.2998 55.3C49.2998 55 49.3998 54.7 49.3998 54.4H51.3998V52.8H51.4998ZM12.6998 62.5C12.5998 62.5 12.4998 62.5 12.3998 62.5C8.49976 62.5 5.29976 59.4 5.09976 55.5C4.99976 53.6 5.69976 51.7 6.99976 50.3C8.29976 48.9 10.0998 48 12.0998 48C12.1998 48 12.2998 48 12.3998 48C16.2998 48 19.4998 51.1 19.6998 55C19.8998 59 16.6998 62.4 12.6998 62.5ZM21.0998 56.5C21.1998 56 21.1998 55.4 21.1998 54.9C20.9998 50.1 16.9998 46.3 12.0998 46.5C11.0998 46.5 10.0998 46.8 9.19976 47.1L21.3998 27.5L22.8998 30.5C23.1998 30.9 23.3998 31.4 23.6998 31.8L23.7998 31.9C26.5998 36.9 28.6998 42.5 29.9998 48.4L21.0998 56.5ZM24.9998 31.1C24.6998 30.6 24.4998 30.1 24.1998 29.8L22.4998 26.4C22.4998 26.3 22.3998 26.2 22.3998 26L24.6998 22.4C24.8998 24.3 25.4998 26.2 26.4998 27.9L26.8998 28.6L28.3998 27.5C28.9998 27.1 29.7998 27.2 30.1998 27.8C30.5998 28.4 30.4998 29.2 29.8998 29.6L28.3998 30.7L28.9998 31.3C30.8998 33.3 33.2998 34.8 35.8998 35.5L36.6998 35.7L36.9998 33.9C37.0998 33.2 37.6998 32.7 38.3998 32.8C38.6998 32.9 38.9998 33 39.1998 33.3C39.3998 33.6 39.4998 33.9 39.3998 34.2L39.0998 36H39.8998C39.9998 36 40.1998 36 40.2998 36C41.4998 36 42.6998 35.9 43.8998 35.6L31.1998 47.3C29.8998 41.5 27.7998 36.1 24.9998 31.1ZM28.7998 16.6C28.3998 16 27.6998 15.6 26.9998 15.5H26.7998C27.4998 13.7 28.4998 12 29.7998 10.6L29.8998 10.7C30.7998 11.9 32.4998 12.2 33.6998 11.3C34.8998 10.4 35.1998 8.70001 34.2998 7.50001L34.1998 7.40001C35.9998 6.50001 37.8998 6.10001 39.7998 6.00001V6.20001C39.6998 6.90001 39.8998 7.60001 40.2998 8.20001C40.6998 8.80001 41.3998 9.20001 42.0998 9.30001C43.5998 9.60001 44.9998 8.50001 45.1998 7.00001V6.80001C46.9998 7.50001 48.6998 8.50001 50.0998 9.80001L49.9998 10C48.7998 10.9 48.4998 12.6 49.3998 13.8C50.2998 15 51.9998 15.3 53.1998 14.4L53.2998 14.3C54.0998 16 54.5998 17.9 54.5998 19.9H54.3998C52.8998 19.7 51.4998 20.7 51.2998 22.2C51.1998 22.9 51.3998 23.6 51.7998 24.2C52.1998 24.8 52.8998 25.2 53.5998 25.3H53.7998C53.0998 27.1 52.0998 28.8 50.7998 30.2L50.6998 30C49.7998 28.8 48.0998 28.5 46.8998 29.4C45.6998 30.3 45.3998 32 46.2998 33.2L46.3998 33.3C44.6998 34.1 42.7998 34.6 40.7998 34.6V34.4C40.8998 33.7 40.6998 33 40.2998 32.4C39.8998 31.8 39.1998 31.4 38.4998 31.3C38.3998 31.3 38.1998 31.3 38.0998 31.3C36.7998 31.3 35.5998 32.3 35.3998 33.6V33.8C33.5998 33.1 31.8998 32.1 30.4998 30.8L30.5998 30.7C31.7998 29.8 32.0998 28.1 31.1998 26.9C30.2998 25.7 28.5998 25.4 27.3998 26.3L27.2998 26.4C26.4998 24.7 25.9998 22.8 25.9998 20.8H26.1998C27.6998 21 29.0998 20 29.2998 18.5C29.3998 17.9 29.1998 17.2 28.7998 16.6ZM48.2998 51.7C48.0998 52.7 47.9998 53.8 47.8998 54.9C47.5998 56 46.5998 56.8 45.3998 56.8H34.8998C33.8998 56.8 32.9998 56.2 32.5998 55.3C32.3998 53.5 32.0998 51.6 31.7998 49.8C31.6998 49.5 31.6998 49.2 31.5998 48.9L47.5998 34.3C47.6998 34.3 47.7998 34.2 47.7998 34.2L48.4998 33.8L47.3998 32.3C46.9998 31.7 47.0998 30.9 47.6998 30.5C48.2998 30.1 49.0998 30.2 49.4998 30.8L50.5998 32.3L51.1998 31.7C53.1998 29.8 54.6998 27.4 55.3998 24.8L55.5998 24L53.7998 23.7C53.4998 23.6 53.1998 23.5 52.9998 23.2C52.7998 22.9 52.6998 22.6 52.7998 22.3C52.8998 21.6 53.4998 21.1 54.1998 21.2L55.9998 21.5V20.7C56.0998 18 55.3998 15.2 54.0998 12.8L53.6998 12.1L52.1998 13.2C51.5998 13.6 50.7998 13.5 50.3998 12.9C49.9998 12.3 50.0998 11.5 50.6998 11.1L52.1998 10L51.5998 9.40001C49.6998 7.40001 47.2998 5.90001 44.6998 5.20001L43.9998 5.00001L43.6998 6.80001C43.5998 7.50001 42.9998 8.00001 42.2998 7.90001C41.9998 7.80001 41.6998 7.70001 41.4998 7.40001C41.2998 7.10001 41.1998 6.80001 41.2998 6.50001L41.5998 4.70001H40.7998C38.0998 4.60001 35.2998 5.30001 32.8998 6.60001L32.1998 7.00001L33.2998 8.50001C33.6998 9.10001 33.5998 9.90001 32.9998 10.3C32.3998 10.7 31.5998 10.6 31.1998 10L29.9998 8.30001L29.3998 8.90001C27.3998 10.8 25.8998 13.2 25.1998 15.8L24.9998 16.6L26.7998 16.9C27.0998 17 27.3998 17.1 27.5998 17.4C27.7998 17.7 27.8998 18 27.7998 18.3C27.6998 19 26.9998 19.5 26.3998 19.4L24.5998 19.1V19.7L21.8998 24C21.5998 22.7 21.4998 21.5 21.4998 20.1C21.4998 9.40001 30.5998 0.700008 41.4998 1.40001C50.8998 2.00001 58.3998 9.60001 58.8998 19.1C59.0998 22.7 58.2998 26.2 56.4998 29.3V29.4C56.2998 29.7 56.1998 29.9 55.9998 30.2C52.1998 36.6 49.5998 44 48.2998 51.7Z" fill="currentcolor"/>
<path d="M47.0997 59.9H33.1997V61.4H47.0997V59.9Z" fill="currentcolor"/>
<path d="M44.5998 62.5H35.7998V64H44.5998V62.5Z" fill="currentcolor"/>
<path d="M42.5 52.8H41V54.3H42.5V52.8Z" fill="currentcolor"/>
<path d="M45.5996 52.8H44.0996V54.3H45.5996V52.8Z" fill="currentcolor"/>
<path d="M36.2998 52.8H34.7998V54.3H36.2998V52.8Z" fill="currentcolor"/>
<path d="M39.3999 52.8H37.8999V54.3H39.3999V52.8Z" fill="currentcolor"/>
<path d="M12.3998 51.6H12.1998C10.1998 51.7 8.59976 53.4 8.69976 55.4C8.79976 57.4 10.3998 58.9 12.2998 58.9H12.4998C13.4998 58.9 14.3998 58.4 14.9998 57.7C15.6998 57 15.9998 56.1 15.9998 55.1C15.9998 53.2 14.3998 51.6 12.3998 51.6ZM13.9998 56.7C13.5998 57.1 13.0998 57.4 12.4998 57.4H12.3998C11.1998 57.4 10.2998 56.5 10.1998 55.3C10.1998 54.1 11.0998 53.1 12.3998 53C13.5998 53 14.4998 53.9 14.5998 55.1C14.5998 55.7 14.3998 56.3 13.9998 56.7Z" fill="currentcolor"/>
<path d="M39.5999 27.5C39.7999 27.5 40.0999 27.5 40.2999 27.5C43.9999 27.5 47.0999 24.7 47.3999 21C47.5999 19.1 46.9999 17.2 45.7999 15.7C44.5999 14.2 42.8999 13.3 40.8999 13.1C36.8999 12.7 33.3999 15.6 33.0999 19.6C32.8999 21.5 33.4999 23.4 34.6999 24.9C35.9999 26.4 37.6999 27.3 39.5999 27.5ZM34.5999 19.8C34.8999 16.9 37.2999 14.6 40.2999 14.6C40.4999 14.6 43.1999 14.7 44.6999 16.7C45.6999 17.9 46.0999 19.4 45.9999 20.9C45.6999 24 42.8999 26.3 39.7999 26C38.2999 25.9 36.8999 25.1 35.8999 23.9C34.8999 22.8 34.4999 21.3 34.5999 19.8Z" fill="currentcolor"/>
</svg>
