<svg viewBox="0 0 64 64" fill="none" xmlns="http://www.w3.org/2000/svg">
<path d="M44.3001 13.8C43.8001 13.5 43.1001 13.3 42.5001 13.3C40.9001 13.3 39.5001 14.5 39.2001 16H31.6001C31.3001 14.4 29.9001 13.3 28.2001 13.3C26.3001 13.3 24.8001 14.8 24.8001 16.7C24.8001 17.4 25.0001 18 25.4001 18.6L16.7001 27.3C16.2001 26.9 15.5001 26.7 14.8001 26.7C12.9001 26.7 11.4001 28.2 11.4001 30.1C11.4001 32 12.9001 33.5 14.8001 33.5C16.7001 33.5 18.2001 32 18.2001 30.1C18.2001 29.4 18.0001 28.8 17.7001 28.3L26.4001 19.6C26.9001 19.9 27.6001 20.1 28.2001 20.1C29.8001 20.1 31.1001 19 31.5001 17.5H39.2001C39.6001 19 40.9001 20.1 42.5001 20.1C44.4001 20.1 45.9001 18.6 45.9001 16.7C45.9001 16 45.7001 15.4 45.4001 14.9L53.8001 6.49998C54.2001 6.79998 54.8001 6.99998 55.5001 6.99998C57.4001 6.99998 58.9001 5.49998 58.9001 3.59998C58.9001 1.69998 57.4001 0.199982 55.5001 0.199982C53.6001 0.199982 52.1001 1.69998 52.1001 3.59998C52.1001 4.29998 52.3001 4.89998 52.6001 5.39998L44.3001 13.8ZM14.7001 32C13.6001 32 12.7001 31.1 12.7001 30C12.7001 28.9 13.6001 28 14.7001 28C15.8001 28 16.7001 28.9 16.7001 30C16.7001 31.1 15.8001 32 14.7001 32ZM28.1001 18.6C27.6001 18.6 27.1001 18.4 26.7001 18.1C26.3001 17.7 26.1001 17.2 26.1001 16.7C26.1001 15.6 27.0001 14.7 28.1001 14.7C29.2001 14.7 30.1001 15.6 30.1001 16.7C30.1001 17.7 29.2001 18.6 28.1001 18.6ZM42.4001 18.6C41.3001 18.6 40.5001 17.7 40.4001 16.6C40.4001 15.5 41.3001 14.6 42.4001 14.6C42.9001 14.6 43.4001 14.8 43.8001 15.2C44.2001 15.6 44.4001 16.1 44.4001 16.6C44.4001 17.7 43.5001 18.6 42.4001 18.6ZM55.5001 1.59998C56.6001 1.59998 57.5001 2.49998 57.5001 3.59998C57.5001 4.69998 56.6001 5.59998 55.5001 5.59998C54.4001 5.59998 53.5001 4.69998 53.5001 3.59998C53.5001 2.49998 54.4001 1.59998 55.5001 1.59998Z" fill="currentcolor"/>
<path d="M41.9001 63.9H46.3V62.4H44.5L32.6 44.9V37.3H63.2001V35.9H60.2001V10.3H63.2001V8.79998H55.9001V10.3H58.7001V35.9H5.30005V10.3H44.3V8.79998H0.800049V10.3H3.80005V35.9H0.800049V37.3H31.1V44.9L19.2001 62.4H17.7001V63.9H22.1V62.4H21L31.1 47.5V62.4H29.4V63.9H34.3V62.4H32.6V47.5L42.8 62.4H41.9001V63.9Z" fill="currentcolor"/>
</svg>
