<svg viewBox="0 0 64 64" fill="none" xmlns="http://www.w3.org/2000/svg">
<path d="M48.1 23.9V3.10004C48.1 1.50004 46.8 0.200043 45.2 0.200043H9.4C7.8 0.200043 6.5 1.50004 6.5 3.10004V60.9C6.5 62.5 7.8 63.8 9.4 63.8H45.2C46.8 63.8 48.1 62.5 48.1 60.9V47.5C56.2 40.1 57.4 27.6 57.5 27L57.6 26.3L56.9 26.2C53.2 25.7 50.3 24.9 48.1 23.9ZM9.4 1.60004H45.2C46 1.60004 46.7 2.30004 46.7 3.10004V8.20004H7.9V3.10004C7.9 2.30004 8.6 1.60004 9.4 1.60004ZM45.2 62.4H9.4C8.6 62.4 7.9 61.7 7.9 60.9V56.9H46.7V60.9C46.7 61.7 46 62.4 45.2 62.4ZM46.7 55.5H7.9V9.60004H46.7V23.2C43.9 21.8 42.6 20.4 42.6 20.4L42 19.9L41.5 20.5C41.5 20.5 37.4 24.9 27.2 26.2L26.5 26.3L26.6 27C26.7 27.8 28.8 45.5 41.8 51.2L42.1 51.3L42.4 51.2C44 50.5 45.5 49.7 46.8 48.7V55.5H46.7ZM42 49.7C31.5 44.8 28.6 30.8 28.1 27.5C36.4 26.3 40.6 23.2 42 21.9C43.4 23.2 47.7 26.3 55.9 27.5C55.5 30.9 52.9 45.1 42 49.7Z" fill="currentcolor"/>
<path d="M41.7002 27.4001C39.4002 28.8001 36.8002 29.8001 33.9002 30.6001L33.2002 30.8001L33.4002 31.5001C34.6002 35.7001 37.1002 41.4001 41.7002 44.6001L42.1002 44.9001L42.5002 44.6001C47.2002 41.5001 49.6002 35.7001 50.8002 31.5001L51.0002 30.8001L50.3002 30.6001C47.4002 29.8001 44.7002 28.7001 42.4002 27.3001L42.0002 27.2001L41.7002 27.4001ZM49.2002 31.9001C48.1002 35.7001 45.9002 40.4001 42.1002 43.2001C38.3002 40.4001 36.2002 35.6001 35.0002 31.9001C37.6002 31.1001 39.9002 30.1001 42.1002 28.9001C44.2002 30.1001 46.6002 31.1001 49.2002 31.9001Z" fill="currentcolor"/>
<path d="M32.4999 58.6H23.3999V60.1H32.4999V58.6Z" fill="currentcolor"/>
<path d="M29.1 4.20004H20V5.70004H29.1V4.20004Z" fill="currentcolor"/>
<path d="M32.5 4.20004H31V5.70004H32.5V4.20004Z" fill="currentcolor"/>
<path d="M35.3999 4.20004H33.8999V5.70004H35.3999V4.20004Z" fill="currentcolor"/>
</svg>
