<svg viewBox="0 0 64 64" fill="none" xmlns="http://www.w3.org/2000/svg">
<path d="M32.7998 11.1H31.2998V12.6H32.7998V11.1Z" fill="black"/>
<path d="M32.7998 13.8H31.2998V15.3H32.7998V13.8Z" fill="black"/>
<path d="M32.7998 8.39996H31.2998V9.89996H32.7998V8.39996Z" fill="black"/>
<path d="M32.0001 7.19996C33.9001 7.19996 35.4001 5.69996 35.4001 3.79996C35.4001 1.89996 33.9001 0.399963 32.0001 0.399963C30.1001 0.399963 28.6001 1.89996 28.6001 3.79996C28.6001 5.69996 30.1001 7.19996 32.0001 7.19996ZM32.0001 1.79996C33.1001 1.79996 34.0001 2.69996 34.0001 3.79996C34.0001 4.89996 33.1001 5.79996 32.0001 5.79996C30.9001 5.79996 30.0001 4.89996 30.0001 3.79996C30.0001 2.69996 30.9001 1.79996 32.0001 1.79996Z" fill="black"/>
<path d="M19.6786 20.7224L20.7393 19.6618L19.7493 18.6718L18.6887 19.7325L19.6786 20.7224Z" fill="black"/>
<path d="M15.8812 16.8242L16.8711 15.8343L15.8104 14.7736L14.8205 15.7635L15.8812 16.8242Z" fill="black"/>
<path d="M17.8147 18.7375L18.8047 17.7476L17.8147 16.7576L16.8248 17.7476L17.8147 18.7375Z" fill="black"/>
<path d="M12.1997 15.7C13.0997 15.7 13.9997 15.3 14.5997 14.7C15.2997 14.1 15.5997 13.2 15.5997 12.3C15.5997 11.4 15.1997 10.5 14.5997 9.89996C13.2997 8.59996 10.9997 8.59996 9.69971 9.89996C8.99971 10.6 8.69971 11.4 8.69971 12.3C8.69971 13.2 9.09971 14.1 9.69971 14.7C10.4997 15.3 11.2997 15.7 12.1997 15.7ZM10.7997 10.8C11.1997 10.4 11.6997 10.2 12.1997 10.2C12.6997 10.2 13.1997 10.4 13.5997 10.8C13.9997 11.2 14.1997 11.7 14.1997 12.2C14.1997 12.7 13.9997 13.2 13.5997 13.6C12.7997 14.4 11.4997 14.4 10.7997 13.6C10.3997 13.2 10.1997 12.7 10.1997 12.2C10.1997 11.7 10.4997 11.2 10.7997 10.8Z" fill="black"/>
<path d="M15.2998 31.3H13.7998V32.8H15.2998V31.3Z" fill="black"/>
<path d="M9.8999 31.3H8.3999V32.8H9.8999V31.3Z" fill="black"/>
<path d="M12.6001 31.3H11.1001V32.8H12.6001V31.3Z" fill="black"/>
<path d="M3.7999 28.6C1.8999 28.6 0.399902 30.1 0.399902 32C0.399902 33.9 1.8999 35.4 3.7999 35.4C5.6999 35.4 7.1999 33.9 7.1999 32C7.1999 30.1 5.6999 28.6 3.7999 28.6ZM3.7999 34C2.6999 34 1.7999 33.1 1.7999 32C1.7999 30.9 2.6999 30 3.7999 30C4.8999 30 5.7999 30.9 5.7999 32C5.7999 33.1 4.8999 34 3.7999 34Z" fill="black"/>
<path d="M18.7404 46.1813L17.7505 45.1914L16.7605 46.1813L17.7505 47.1713L18.7404 46.1813Z" fill="black"/>
<path d="M16.8464 48.0952L15.8564 47.1052L14.7958 48.1659L15.7857 49.1558L16.8464 48.0952Z" fill="black"/>
<path d="M18.6858 44.4086L19.6758 45.3985L20.7364 44.3378L19.7465 43.3479L18.6858 44.4086Z" fill="black"/>
<path d="M15.6998 51.8C15.6998 50.9 15.2998 50 14.6998 49.4C13.3998 48.1 11.0998 48.1 9.7998 49.4C9.0998 50 8.7998 50.9 8.7998 51.8C8.7998 52.7 9.1998 53.6 9.7998 54.2C10.4998 54.9 11.2998 55.2 12.1998 55.2C13.0998 55.2 13.9998 54.8 14.5998 54.2C15.2998 53.5 15.6998 52.7 15.6998 51.8ZM13.6998 53.2C12.8998 54 11.5998 54 10.8998 53.2C10.4998 52.8 10.2998 52.3 10.2998 51.8C10.2998 51.3 10.4998 50.8 10.8998 50.4C11.2998 50 11.7998 49.8 12.2998 49.8C12.7998 49.8 13.2998 50 13.6998 50.4C14.0998 50.8 14.2998 51.3 14.2998 51.8C14.2998 52.3 13.9998 52.8 13.6998 53.2Z" fill="black"/>
<path d="M32.7998 54.1H31.2998V55.6H32.7998V54.1Z" fill="black"/>
<path d="M32.7998 51.4H31.2998V52.9H32.7998V51.4Z" fill="black"/>
<path d="M32.7998 48.7H31.2998V50.2H32.7998V48.7Z" fill="black"/>
<path d="M32.0001 56.8C30.1001 56.8 28.6001 58.3 28.6001 60.2C28.6001 62.1 30.1001 63.6 32.0001 63.6C33.9001 63.6 35.4001 62.1 35.4001 60.2C35.4001 58.3 33.9001 56.8 32.0001 56.8ZM32.0001 62.2C30.9001 62.2 30.0001 61.3 30.0001 60.2C30.0001 59.1 30.9001 58.2 32.0001 58.2C33.1001 58.2 34.0001 59.1 34.0001 60.2C34.0001 61.3 33.1001 62.2 32.0001 62.2Z" fill="black"/>
<path d="M48.0715 47.1757L47.0815 48.1656L48.1422 49.2263L49.1321 48.2364L48.0715 47.1757Z" fill="black"/>
<path d="M47.3157 46.2484L46.2549 45.1879L45.2651 46.1779L46.3259 47.2384L47.3157 46.2484Z" fill="black"/>
<path d="M43.3436 44.3923L44.3335 45.3822L45.3941 44.3216L44.4042 43.3316L43.3436 44.3923Z" fill="black"/>
<path d="M55.1997 51.8C55.1997 50.9 54.7997 50 54.1997 49.4C52.8997 48.1 50.5997 48.1 49.2997 49.4C47.9997 50.7 47.9997 52.9 49.2997 54.3C49.9997 55 50.7997 55.3 51.6997 55.3C52.5997 55.3 53.4997 54.9 54.0997 54.3C54.7997 53.5 55.1997 52.7 55.1997 51.8ZM53.1997 53.2C52.3997 54 51.0997 54 50.3997 53.2C49.5997 52.4 49.5997 51.2 50.3997 50.4C50.7997 50 51.2997 49.8 51.7997 49.8C52.2997 49.8 52.7997 50 53.1997 50.4C53.5997 50.8 53.7997 51.3 53.7997 51.8C53.7997 52.3 53.4997 52.8 53.1997 53.2Z" fill="black"/>
<path d="M52.8999 31.3H51.3999V32.8H52.8999V31.3Z" fill="black"/>
<path d="M50.1997 31.3H48.6997V32.8H50.1997V31.3Z" fill="black"/>
<path d="M55.6001 31.3H54.1001V32.8H55.6001V31.3Z" fill="black"/>
<path d="M60.1998 35.4C62.0998 35.4 63.5998 33.9 63.5998 32C63.5998 30.1 62.0998 28.6 60.1998 28.6C58.2998 28.6 56.7998 30.1 56.7998 32C56.7998 33.9 58.2998 35.4 60.1998 35.4ZM60.1998 30C61.2998 30 62.1998 30.9 62.1998 32C62.1998 33.1 61.2998 34 60.1998 34C59.0998 34 58.1998 33.1 58.1998 32C58.1998 30.9 59.0998 30 60.1998 30Z" fill="black"/>
<path d="M47.3118 17.7465L46.251 16.686L45.2612 17.6761L46.322 18.7366L47.3118 17.7465Z" fill="black"/>
<path d="M49.2037 15.8338L48.1431 14.7731L47.0824 15.8338L48.1431 16.8944L49.2037 15.8338Z" fill="black"/>
<path d="M45.342 19.5921L44.3521 18.6021L43.3621 19.5921L44.3521 20.582L45.342 19.5921Z" fill="black"/>
<path d="M51.7997 15.7C52.6997 15.7 53.5997 15.3 54.1997 14.7C54.8997 14.1 55.1997 13.2 55.1997 12.3C55.1997 11.4 54.7997 10.5 54.1997 9.89996C52.8997 8.59996 50.5997 8.59996 49.2997 9.89996C47.9997 11.2 47.9997 13.4 49.2997 14.8C49.9997 15.3 50.7997 15.7 51.7997 15.7ZM50.2997 10.8C50.6997 10.4 51.1997 10.2 51.6997 10.2C52.1997 10.2 52.6997 10.4 53.0997 10.8C53.4997 11.2 53.6997 11.7 53.6997 12.2C53.6997 12.7 53.4997 13.2 53.0997 13.6C52.2997 14.4 50.9997 14.4 50.2997 13.6C49.5997 12.9 49.5997 11.6 50.2997 10.8Z" fill="black"/>
<path d="M47.7997 30.9V23.7H16.1997V30.9H22.2997V33.2H16.1997V40.4H47.7997V33.2H41.6997V30.9H47.7997ZM17.6997 25.1H46.3997V29.4H17.6997V25.1ZM46.2997 38.9H17.6997V34.5999H46.3997V38.9H46.2997ZM40.1997 33.0999H23.7997V30.7999H40.1997V33.0999Z" fill="black"/>
<path d="M37 26.5H35.5V28H37V26.5Z" fill="black"/>
<path d="M40.8999 26.5H39.3999V28H40.8999V26.5Z" fill="black"/>
<path d="M44.6997 26.5H43.1997V28H44.6997V26.5Z" fill="black"/>
<path d="M26.9001 26.5H20.1001V28H26.9001V26.5Z" fill="black"/>
<path d="M37 36H35.5V37.5H37V36Z" fill="black"/>
<path d="M44.6997 36H43.1997V37.5H44.6997V36Z" fill="black"/>
<path d="M40.8999 36H39.3999V37.5H40.8999V36Z" fill="black"/>
<path d="M26.9001 36H20.1001V37.5H26.9001V36Z" fill="black"/>
</svg>
