<svg viewBox="0 0 64 64" fill="none" xmlns="http://www.w3.org/2000/svg">
<path d="M16.3 19.5C16.1 19.3 16 19 16 18.8H14.5C14.5 19.5 14.8 20.1 15.4 20.6C15.7 20.9 16.2 21.1 16.6 21.2V22.4H18V21.2C18.4 21.1 18.9 20.9 19.2 20.6C19.8 20.1 20.1 19.5 20.1 18.8C20.1 18.1 19.8 17.5 19.2 17C18.7 16.5 18 16.3 17.3 16.3C16.9 16.3 16.6 16.2 16.3 16C16.1 15.8 15.9 15.6 15.9 15.3C15.9 15 16 14.8 16.3 14.6C16.8 14.2 17.8 14.2 18.3 14.6C18.5 14.8 18.7 15 18.7 15.3H20.2C20.2 14.6 19.9 14 19.3 13.5C19 13.2 18.5 13 18.1 12.9V11.6H16.6V12.9C16.2 13 15.7 13.2 15.4 13.5C14.8 14 14.5 14.6 14.5 15.3C14.5 16 14.8 16.6 15.4 17.1C15.9 17.6 16.6 17.8 17.3 17.8C17.7 17.8 18 17.9 18.3 18.1C18.5 18.3 18.7 18.5 18.7 18.8C18.7 19.1 18.6 19.3 18.3 19.5C17.8 19.9 16.8 19.9 16.3 19.5Z" fill="currentcolor"/>
<path d="M17.3001 25.2001C21.8001 25.2001 25.5001 21.5 25.5001 17C25.5001 12.5 21.8001 8.80005 17.3001 8.80005C12.8001 8.80005 9.1001 12.5 9.1001 17C9.1001 21.5 12.8001 25.2001 17.3001 25.2001ZM17.3001 10.2C21.0001 10.2 24.1001 13.2 24.1001 17C24.1001 20.7 21.1001 23.8 17.3001 23.8C13.6001 23.8 10.5001 20.8 10.5001 17C10.5001 13.3 13.6001 10.2 17.3001 10.2Z" fill="currentcolor"/>
<path d="M61.9001 47.3C61.2001 45.5 59.1 44.7 57.3 45.4L44.6 51C44.6 50.8 44.7001 50.6 44.7001 50.4C44.7001 48.6 43.3 47.2 41.5 47.1C41.5 47.1 41.5 47.1 41.4001 47.1H32.6L25.9 44C24.5 43.3 22.9 43 21.4 43H16.3V40.6H1.80005V42.1H14.7V60.3H4.40005V61.8H16.2V59.4H20L32.3 63.5C33.1 63.8 34 63.9 34.8 63.9C36.1 63.9 37.4001 63.6 38.5 63L60 51.9C61.8 51.2 62.6001 49.1 61.9001 47.3ZM59.4001 50.6L37.9001 61.8C36.3001 62.6 34.5 62.8 32.8 62.2L20.4 58.1H16.2V44.5H21.3C22.6 44.5 24 44.8 25.2001 45.4L32.2001 48.7H41.4001C42.4001 48.7 43.2001 49.5 43.2001 50.5C43.2001 51.5 42.4001 52.3 41.4001 52.3H30.6H30.5C29.5 52.5 27.6 53.3 27.6 55.3H29.1C29.1 54.2 30.4001 53.8 30.7001 53.8H41.4001C41.9001 53.8 42.4001 53.6 42.9001 53.4L57.8 46.8C58.8 46.4 60 46.9 60.5 47.9C61 48.9 60.5 50.1 59.4001 50.6Z" fill="currentcolor"/>
<path d="M12.2 56.3H10.7V57.9001H12.2V56.3Z" fill="currentcolor"/>
<path d="M9.30005 56.3H7.80005V57.9001H9.30005V56.3Z" fill="currentcolor"/>
<path d="M40.5001 22.7V24.7C39.8001 24.8 39.2001 25.1 38.7001 25.5C38.0001 26.1 37.6001 26.9 37.6001 27.8C37.6001 28.7 38.0001 29.5 38.7001 30.1C39.4001 30.7 40.3001 31 41.2001 31C41.8001 31 42.4001 31.2 42.8001 31.6C43.2001 31.9 43.4001 32.4 43.4001 32.8C43.4001 33.3 43.2001 33.7 42.8001 34C42.0001 34.7 40.5001 34.7 39.7001 34C39.3001 33.7 39.1001 33.2 39.1001 32.8H37.6001C37.6001 33.7 38.0001 34.5 38.7001 35.1C39.2001 35.5 39.8001 35.8 40.5001 35.9V37.9H42.0001V35.9C42.7001 35.8 43.3001 35.5 43.8001 35.1C44.5001 34.5 44.9001 33.7 44.9001 32.8C44.9001 31.9 44.5001 31.1 43.8001 30.5C43.1001 29.9 42.2001 29.6 41.3001 29.6C40.7001 29.6 40.1001 29.4 39.7001 29C39.3001 28.7 39.1001 28.2 39.1001 27.8C39.1001 27.4 39.3001 26.9 39.7001 26.6C40.5001 25.9 42.0001 25.9 42.8001 26.6C43.2001 26.9 43.4001 27.4 43.4001 27.8H44.9001C44.9001 26.9 44.5001 26.1 43.8001 25.5C43.3001 25.1 42.7001 24.8 42.0001 24.7V22.7H40.5001Z" fill="currentcolor"/>
<path d="M29.2 30.4C29.2 37 34.6 42.4 41.2 42.4C47.8 42.4 53.2 37 53.2 30.4C53.2 24 48.2 18.8 42 18.4V11.6C42.2 11.6 42.3999 11.6 42.5999 11.6C44.3999 11.6 47.6 11.3 49.7 9.20002C52.7 6.20002 52.1 0.900024 52 0.700024V0.100024L51.4 2.44156e-05C51.4 2.44156e-05 50.7999 -0.0999756 50 -0.0999756C48.2 -0.0999756 45 0.200024 42.9 2.30002C40 5.20002 40.4999 10.2 40.5999 10.7V11.2C39.8999 10 38.9 8.70003 37.2999 8.10003C36.6999 7.90003 35.9999 7.70002 35.2999 7.70002C32.9999 7.70002 30.8 8.90002 30.7 9.00002L30.2 9.30002L30.4 9.80002C30.4 10 31.5999 13.8 34.5999 15C35.1999 15.2 35.8999 15.4 36.5999 15.4C38.2999 15.4 39.7999 14.8 40.5999 14.4V18.2C34.2999 18.7 29.2 24 29.2 30.4ZM51.7999 30.4C51.7999 36.2 47.0999 40.9 41.2999 40.9C35.4999 40.9 30.7999 36.2 30.7999 30.4C30.7999 24.6 35.4999 19.9 41.2999 19.9C47.0999 19.8 51.7999 24.5 51.7999 30.4ZM44 3.40002C45.7 1.70002 48.4999 1.40002 50.0999 1.40002C50.2999 1.40002 50.5 1.40002 50.7 1.40002C50.8 2.80002 50.7 6.10003 48.7 8.10003C46.9 9.90003 44 10.1 42.5 10.1C43.2 9.00002 44.6 7.00002 47 5.70002L46.2999 4.40002C44.2999 5.50002 42.9 6.90003 42 8.10003C42.2 6.60003 42.7 4.70002 44 3.40002ZM35.0999 13.8C33.3999 13.1 32.4 11.1 32 10.1C32.7 9.80002 33.9999 9.30002 35.2999 9.30002C35.8999 9.30002 36.3999 9.40003 36.7999 9.60003C37.7999 10 38.5 10.8 39 11.6C38.1 11.2 36.9 10.7 35.5 10.6L35.4 12C37.2 12.1 38.6 12.9 39.4 13.4C38.7 13.7 37.6999 14 36.5999 14C35.9999 14.1 35.4999 14 35.0999 13.8Z" fill="currentcolor"/>
</svg>
