<svg viewBox="0 0 64 64" fill="none" xmlns="http://www.w3.org/2000/svg">
<path d="M62.8 40.5C60.4 42.2 57.9 43.9 55.6 45.8C55.2 46.1 54.8 46.2 54.5 46.2C54.3 46.2 54.2 46.1 54.1 45.9L45.8 33.9C45.7001 33.8 45.7001 33.6 45.7001 33.4C45.8 33.1 46.1001 32.7 46.4001 32.5C48.2001 31.4 49.9 30.3 51.6 29.2L50.8 28C49.1 29.1 47.4001 30.2 45.7001 31.3C45.1001 31.7 44.7001 32.2 44.4001 32.7H19.6C19.4 32.1 18.9 31.6 18.3 31.3C16.6 30.2 14.8 29.1 13.1 28L12.3 29.2C14 30.3 15.7 31.4 17.5 32.5C17.9 32.7 18.2001 33.1 18.2001 33.4C18.2001 33.6 18.2001 33.8 18.1 33.9L9.80005 45.9C9.70005 46 9.60005 46.1 9.40005 46.2C9.10005 46.3 8.60005 46.1 8.30005 45.8C5.90005 44 3.50005 42.2 1.10005 40.5L0.300049 41.7C2.70005 43.3 5.10005 45.1 7.50005 46.9C8.10005 47.3 8.70005 47.6 9.40005 47.6C9.50005 47.6 9.70005 47.6 9.80005 47.6C10.4 47.5 10.9 47.2 11.2 46.7L11.8 45.8C12.3 46.3 13.1 47 13.4 47.7C13.5 48 13.6 48.1 13.7 48.3C13.7 48.4 13.8 48.5 13.8 48.6C13.5 48.8 13.2 49 13 49.3C11.9 50.7 12.2 52.7 13.7 53.8L13.8 53.9C14.4 54.3 15 54.5 15.7 54.5C15.9 54.5 16.1 54.5 16.3 54.4C16.3 54.6 16.3 54.7 16.3 54.9C16.4 55.8 16.9 56.5 17.6 57.1C18.2001 57.5 18.9 57.7 19.6 57.7C19.9 57.7 20.2 57.7 20.4 57.6C20.4 57.7 20.4 57.8 20.4 58C20.5 58.9 21 59.6 21.7001 60.2C22.3001 60.6 23 60.8 23.7001 60.8C24 60.8 24.4001 60.7 24.7001 60.6C24.7001 60.7 24.7001 60.7 24.7001 60.8C24.8001 61.6 25.2 62.3 25.9 62.8C26.4 63.2 27 63.4 27.7001 63.4C28.6 63.4 29.4 63 30 62.3C30.6 62.7 31.2 62.8 31.8 62.8C32.9 62.8 34 62.3 34.6 61.3C35 60.7 35.2001 60 35.2001 59.3L36 60C38.4001 61.5 40.4 59.9 40.8 59.1C41.2001 58.5 41.4001 57.8 41.4001 57.1L41.6 57.2C44 58.5 45.7001 57.3 46.4001 56.3C46.8001 55.7 47 55 47 54.3L47.4001 54.6C48 55 48.6 55.2 49.3 55.2C49.5 55.2 49.7001 55.2 49.9001 55.1C50.8001 54.9 51.6 54.4 52.1 53.7C52.6 52.9 52.8 52 52.6 51.1C52.4 50.2 51.9001 49.4 51.2001 48.9L40 41.3H37.9001C34.2001 41.3 33.8 38.4 33.8 38.2L33.7001 37.6H26.1L26 38.5C25.7001 40.3 25.1 41.5 24.2001 42.1C23.7001 42.4 23.2 42.5 22.8 42.5V37.4L28.6 34.2H29.5H44.3C44.4 34.4 44.4 34.6 44.6 34.8L52.9001 46.8C54.3001 48.4 56 47.5 56.6 47C58.9 45.2 61.4 43.4 63.8 41.8L62.8 40.5ZM17.3 52L16.9 52.5C16.9 52.5 16.9 52.6 16.8 52.6C16.2 53.1 15.2 53.2 14.6 52.7L14.5 52.6C13.7 52 13.6 50.9 14.1 50.1C14.4 49.6 15 49.4 15.5 49.4C15.9 49.4 16.2 49.5 16.5 49.7L16.6 49.8C17.4 50.4 17.6 51.3 17.3 52ZM21.1 55.6C20.5 56.4 19.3 56.6 18.5 56C18.1 55.7 17.8 55.3 17.8 54.8C17.7 54.3 17.8001 53.9 18.1 53.5C18.2001 53.4 18.3 53.3 18.3 53.2C18.4 53.1 18.5 52.9 18.6 52.8L19.3 51.9C19.6 51.4 20.2 51.2 20.8 51.2C21.2 51.2 21.6 51.3 21.9 51.6C22.7 52.2 22.9 53.4 22.3 54.2L21.1 55.6ZM25.2001 58.7C24.6 59.5 23.4 59.7 22.6 59.1C22.2001 58.8 21.9 58.4 21.9 57.9C21.8 57.4 21.9001 56.9 22.2001 56.5L22.8 55.7L23.3 55L24.3 53.6C24.7 53.1 25.2 52.9 25.8 52.9C26.2 52.9 26.6 53 26.9 53.3C27.7 53.9 27.9 55.1 27.3 55.9L25.2001 58.7ZM29.1 61L28.8 61.4C28.3 62.1 27.3001 62.2 26.7001 61.7C26.4001 61.5 26.2001 61.1 26.1 60.7C26 60.3 26.1 59.9 26.4 59.6L26.7001 59.2C27 58.8 27.4 58.6 27.9 58.6C28.2 58.6 28.5 58.7 28.8 58.9C29.5 59.3 29.6 60.3 29.1 61ZM21.2001 36.4V43.5L21.7001 43.7C21.8001 43.7 23.3 44.2 24.8 43.3C26 42.6 26.8001 41.2 27.2001 39.3H32.4001C32.9001 40.8 34.4001 43 37.9001 43H39.6L50.4001 50.3C50.8001 50.6 51.1001 51 51.2001 51.6C51.3 52.1 51.2001 52.6 50.9001 53.1C50.6001 53.5 50.2 53.8 49.6 53.9C49.1 54 48.6 53.9 48.1 53.6L37.6 46.4L36.8 47.6L44.5 52.9C45.4001 53.5 45.6 54.7 45 55.6C44.4001 56.5 43.2001 56.7 42.3 56.1L34.6 50.8L34.5 50.9L33.7001 52.1L39 55.6C39.4001 55.9 39.7001 56.3 39.8 56.9C39.9 57.4 39.8 57.9 39.5 58.4C39.2001 58.8 38.3 59.7 36.8 58.9L31.8 55.4L30.9 56.6L32.7001 57.9V58C33.6001 58.6 33.8 59.8 33.2001 60.7C32.6001 61.6 31.4 61.8 30.5 61.2C31 60 30.6 58.6 29.5 57.8C29 57.5 28.5 57.3 28 57.3L28.3 56.8C29.4 55.3 29.1 53.3 27.6 52.2C25.9 50.9 24.2001 51.8 23.7001 52.2C23.5 51.5 23.1 50.9 22.5 50.5C21.9 50.1 21.2001 49.9 20.5 49.9C19.8 49.9 19.1 50.1 18.6 50.6C18.4 50 18 49.4 17.5 49L17.4 48.9C17 48.2 16.3 48 15.6 48C15.5 48 15.3 48 15.2 48.1C15.1 48 15.1 47.9 15 47.7C14.9 47.5 14.8 47.3 14.7 47C14.2 46 13.2 45.1 12.6 44.6L19.4 34.7C19.5 34.5 19.6 34.3 19.7001 34.1H25.5L21.2001 36.4Z" fill="currentcolor"/>
<path d="M55.9143 43.4846L55.1311 42.2052L53.8518 42.9884L54.6349 44.2677L55.9143 43.4846Z" fill="currentcolor"/>
<path d="M10.1893 43.0027L8.95825 42.1456L8.10115 43.3767L9.3322 44.2338L10.1893 43.0027Z" fill="currentcolor"/>
<path d="M50.3001 13.5H44.5001L43.0001 6.29998H37.8001L37.2001 0.599976H26.7001L26.1001 6.29998H21.0001L19.6001 13.5H13.8001L10.4001 23H53.7001L50.3001 13.5ZM41.8001 7.69998L42.9001 13.5H32.7001V7.69998H41.8001ZM28.0001 1.99998H36.0001L36.4001 6.19998H27.6001L28.0001 1.99998ZM22.2001 7.69998H31.3001V13.5H21.0001L22.2001 7.69998ZM24.9001 17.7L24.5001 21.5H12.5001L14.8001 14.9H25.3001L24.9001 17.7ZM26.0001 21.6L26.4001 18.3L26.8001 15H37.3001L37.7001 18.8L38.0001 21.6H26.0001ZM39.2001 18.8L38.7001 15H49.2001L51.5001 21.6H39.5001L39.2001 18.8Z" fill="currentcolor"/>
</svg>
