<svg viewBox="0 0 64 64" fill="none" xmlns="http://www.w3.org/2000/svg">
<path d="M34.7001 25.9C35.4001 26.5 35.8 27.3 35.8 28.1H37.3C37.3 26.8 36.7001 25.7 35.7001 24.8C34.9001 24.1 33.9 23.7 32.8 23.5V21.5H31.3V23.5C30.2 23.6 29.2 24.1 28.4 24.8C27.4 25.7 26.8 26.8 26.8 28.1C26.8 29.4 27.4 30.5 28.4 31.4C29.4 32.2 30.7 32.7 32.1 32.7C33.1 32.7 34.1 33 34.8 33.7C35.5 34.3 35.9001 35.1 35.9001 35.9C35.9001 36.7 35.5 37.5 34.8 38.1C33.4 39.3 30.8 39.3 29.4 38.1C28.7 37.5 28.3 36.7 28.3 35.9H26.8C26.8 37.2 27.4 38.3 28.4 39.2C29.2 39.9 30.2 40.3 31.3 40.5V42.5H32.8V40.5C33.9 40.4 34.9001 39.9 35.7001 39.2C36.7001 38.3 37.3 37.2 37.3 35.9C37.3 34.6 36.7001 33.5 35.7001 32.6C34.7001 31.8 33.4 31.3 32 31.3C31 31.3 30 31 29.3 30.3C28.6 29.7 28.2001 28.9 28.2001 28.1C28.2001 27.3 28.6 26.5 29.3 25.9C30.7 24.7 33.3001 24.7 34.7001 25.9Z" fill="currentcolor"/>
<path d="M60.4 28.4C60.3 28.4 60.2 28.4 60.1 28.4L54.4 14.6C54.5 14.5 54.6 14.5 54.7 14.4C55.4 13.7 55.7 12.8 55.7 11.9C55.7 11 55.3 10.1 54.7 9.4C53.4 8.1 51 8.1 49.7 9.4C49.5 9.6 49.4 9.7 49.3 9.9L35.5 4.2C35.5 4 35.6 3.8 35.6 3.5C35.6 1.6 34 0 32 0C30 0 28.4 1.6 28.4 3.6C28.4 3.8 28.4 4 28.5 4.3L14.8 9.9C14.7 9.7 14.5 9.6 14.4 9.4C13.1 8.1 10.7 8.1 9.4 9.4C8 10.8 8 13.1 9.4 14.4C9.5 14.5 9.6 14.5 9.7 14.6L3.9 28.5C3.8 28.5 3.7 28.5 3.6 28.5C1.6 28.4 0 30 0 32C0 34 1.6 35.6 3.6 35.6C3.7 35.6 3.8 35.6 3.9 35.6L9.6 49.4C9.5 49.5 9.4 49.5 9.3 49.6C7.9 51 7.9 53.3 9.3 54.6C10 55.3 10.9 55.6 11.8 55.6C13.3 55.8 14.5 54.4 14.5 54.3L28.3 60C28.3 60.1 28.3 60.2 28.3 60.3C28.3 62.3 29.9 63.9 31.9 63.9C35.7 63.6 35.4 60.1 35.4 60L49.2 54.3C49.2 54.6 50.9 55.8 51.9 55.6C52.8 55.4 53.5 55.6 54.4 54.6C55.1 53.9 55.4 53 55.4 52.1C55.4 51.2 55 50.3 54.4 49.6C54.3 49.5 54.2 49.5 54.1 49.4L59.8 35.6C59.9 35.6 60 35.6 60.1 35.6C62.1 35.6 63.7 34 63.7 32C64 30 62.4 28.4 60.4 28.4ZM50.6 10.4C51 10 51.5 9.8 52.1 9.8C52.7 9.8 53.2 10 53.6 10.4C54 10.8 54.2 11.3 54.2 11.9C54.2 12.5 54 13 53.6 13.4C52.8 14.2 51.4 14.2 50.6 13.4C50.2 13 50 12.5 50 11.9C50 11.3 50.2 10.8 50.6 10.4ZM50.2 14.9C50.8 15.3 51.4 15.5 52.1 15.5C52.4 15.5 52.7 15.4 53.1 15.4L58.7 29C57.8 29.5 57.2 30.3 57 31.4H50C49.8 27 48 23 45.2 19.9L50.2 14.9ZM48.6 32C48.6 41.2 41.1 48.6 32 48.6C22.8 48.6 15.4 41.1 15.4 32C15.4 22.8 22.9 15.4 32 15.4C41.2 15.4 48.6 22.8 48.6 32ZM34.9 5.6L48.6 11.3C48.6 11.5 48.5 11.7 48.5 12C48.5 12.7 48.7 13.4 49.1 13.9L44.2 18.8C41.1 16 37.1 14.2 32.7 14V7.1C33.6 6.9 34.4 6.3 34.9 5.6ZM32 1.5C33.2 1.5 34.1 2.4 34.1 3.6C34.1 4.8 33.2 5.7 32 5.7C30.8 5.7 29.9 4.8 29.9 3.6C29.9 2.4 30.8 1.5 32 1.5ZM15.4 11.2L29.1 5.5C29.6 6.2 30.4 6.8 31.3 7V14C26.9 14.2 22.9 16 19.8 18.8L14.9 13.9C15.4 13.1 15.6 12.1 15.4 11.2ZM10.4 10.4C10.8 10 11.3 9.8 11.9 9.8C12.5 9.8 13 10 13.4 10.4C14.2 11.2 14.2 12.6 13.4 13.4C12.6 14.2 11.2 14.2 10.4 13.4C9.6 12.6 9.6 11.2 10.4 10.4ZM10.9 15.3C11.2 15.4 11.5 15.4 11.9 15.4C12.6 15.4 13.3 15.2 13.8 14.8L18.7 19.7C15.9 22.8 14.1 26.8 13.9 31.2H7.1C6.9 30.2 6.2 29.3 5.4 28.8L10.9 15.3ZM3.6 34.1C2.4 34.1 1.5 33.2 1.5 32C1.5 30.8 2.4 29.9 3.6 29.9C4.8 29.9 5.7 30.8 5.7 32C5.7 33.2 4.7 34.1 3.6 34.1ZM13.4 53.6C12.6 54.4 11.2 54.4 10.4 53.6C9.6 52.8 9.6 51.4 10.4 50.6C11.5 49.7 12.4 49.9 13.4 50.6C14.2 51.4 14.2 52.8 13.4 53.6ZM13.8 49.1C12.9 48.6 11.9 48.4 10.9 48.7L5.3 35.1C6.2 34.6 6.8 33.8 7 32.7H14C14.2 37.1 16 41.1 18.8 44.2L13.8 49.1ZM28.9 58.7L15.3 53.1C15.6 52.1 15.4 51.1 14.9 50.2L19.8 45.3C22.9 48.1 26.9 49.9 31.3 50.1V57C30.3 57.2 29.4 57.8 28.9 58.7ZM32 62.5C30.8 62.5 29.9 61.6 29.9 60.4C29.9 59.2 30.8 58.3 32 58.3C33.2 58.3 34.1 59.2 34.1 60.4C34.1 61.6 33.2 62.5 32 62.5ZM48.7 53.1L35.1 58.7C34.6 57.8 33.8 57.2 32.7 57V50C37.1 49.8 41.1 48 44.2 45.2L49.1 50.1C48.7 50.7 48.5 51.3 48.5 52C48.5 52.4 48.6 52.7 48.7 53.1ZM50.6 53.6C50.2 53.2 50.1 52.7 50 52.1C49.8 50.9 52.1 49.1 53.6 50.6C53.9 51.1 54.2 51.5 54.2 52.1C54.4 52.8 52.8 55.3 50.6 53.6ZM53 48.7C52 48.4 51 48.6 50.1 49.1L45.2 44.2C48 41.1 49.8 37.1 50 32.7H56.9C57.1 33.7 57.8 34.6 58.6 35.1L53 48.7ZM60.4 34.1C59.2 34.1 58.3 33.2 58.3 32C58.3 30.8 59.2 29.9 60.4 29.9C61.6 29.9 62.5 30.8 62.5 32C62.5 33.2 61.6 34.1 60.4 34.1Z" fill="currentcolor"/>
</svg>
