<svg width="64" height="64" viewBox="0 0 64 64" fill="none" xmlns="http://www.w3.org/2000/svg">
<path d="M35.6 23.4C34.5 22.9 33.3 22.7 32 22.7C28.2 22.7 24.8 25 23.4 28.5C22.4 30.8 22.5 33.3 23.4 35.6C24.4 37.9 26.2 39.7 28.5 40.6C29.6 41.1 30.8 41.3 32.1 41.3C35.9 41.3 39.3 39 40.7 35.5C41.7 33.2 41.6 30.7 40.7 28.4C39.7 26.1 37.9 24.3 35.6 23.4ZM39.3 35C38.1 38 35.2 39.9 32 39.9C31 39.9 30 39.7 29 39.3C27.1 38.5 25.5 37 24.7 35C23.9 33.1 23.9 30.9 24.7 29C25.9 26 28.8 24.1 32 24.1C33 24.1 34 24.3 35 24.7C36.9 25.5 38.5 27 39.3 29C40.1 30.9 40.1 33.1 39.3 35Z" fill="currentcolor"/>
<path d="M61.6 43.3C60.5 43.3 59.6 44 59.3 45H55.4L49.2 38.8H47.2L48.2 36.3L46.5 35.2H51L55.1 39.3C55 39.6 54.9 39.9 54.9 40.2C54.9 41.5 56 42.6 57.3 42.6C58.6 42.6 59.7 41.5 59.7 40.2C59.7 38.9 58.6 37.8 57.3 37.8C56.8 37.8 56.4 37.9 56.1 38.2L51.7 33.8H46C46.1 32.6 46.1 31.5 46 30.3H51.6L56 25.9C56.4 26.1 56.8 26.3 57.2 26.3C58.5 26.3 59.6 25.2 59.6 23.9C59.6 22.6 58.5 21.5 57.2 21.5C55.9 21.5 54.8 22.6 54.8 23.9C54.8 24.2 54.9 24.5 55 24.8L51 28.8H46.5L48.3 27.6L47.3 25.2H49.3L55.5 19H59.4C59.7 20 60.6 20.7 61.7 20.7C63 20.7 64.1 19.6 64.1 18.3C64.1 17 63 15.9 61.7 15.9C60.6 15.9 59.7 16.6 59.4 17.6H54.9L48.7 23.8H46.7L46.6 23.6L43.7 24.2C42.7 22.7 41.3 21.3 39.8 20.3V20.2H47.8L52.6 15.4V10.7C53.6 10.4 54.3 9.49998 54.3 8.39998C54.4 7.09998 53.3 5.99998 52 5.99998C50.7 5.99998 49.6 7.09998 49.6 8.39998C49.6 9.49998 50.3 10.3 51.3 10.7V14.8L47.4 18.7H40.3L40.6 17.4L36.5 15.7L34.9 18.1C33.1 17.7 31.2 17.8 29.4 18.1L27.8 15.7L23.7 17.4L24 18.7H16.9L13 14.8V10.7C14 10.4 14.7 9.49998 14.7 8.39998C14.4 7.09998 13.3 5.99998 12 5.99998C10.7 5.99998 9.6 7.09998 9.6 8.39998C9.6 9.49998 10.3 10.4 11.3 10.7V15.4L16.1 20.2H24.1V20.3C22.6 21.3 21.2 22.7 20.2 24.2L17.3 23.6L17.2 23.7H15.2L9 17.5H4.7C4.4 16.5 3.5 15.8 2.4 15.8C1.1 15.8 0 16.9 0 18.2C0 19.5 1.1 20.6 2.4 20.6C3.5 20.6 4.4 19.9 4.7 18.9H8.6L14.8 25.1H16.8L15.8 27.6L17.5 28.7H13L8.9 24.6C9 24.3 9.1 24 9.1 23.7C9.1 22.4 8 21.3 6.7 21.3C5.4 21.3 4.3 22.4 4.3 23.7C4.3 25 5.4 26.1 6.7 26.1C7.2 26.1 7.6 26 7.9 25.7L12.3 30.1H18C17.9 31.3 17.9 32.4 18 33.6H12.4L8 38C7.6 37.8 7.2 37.6 6.8 37.6C5.5 37.6 4.4 38.7 4.4 40C4.4 41.3 5.5 42.4 6.8 42.4C8.1 42.4 9.2 41.3 9.2 40C9.2 39.7 9.1 39.4 9 39.1L13.1 35H17.6L15.8 36.2L16.8 38.6H14.8L8.6 45H4.7C4.4 44 3.5 43.3 2.4 43.3C1.1 43.3 0 44.4 0 45.7C0 47 1.1 48.1 2.4 48.1C3.5 48.1 4.4 47.4 4.7 46.4H9.2L15.4 40.2H17.4L17.5 40.4L20.4 39.8C21.4 41.3 22.8 42.7 24.3 43.7V43.8H16.3L11.5 48.6V53.3C10.5 53.6 9.8 54.5 9.8 55.6C9.8 56.9 10.9 58 12.2 58C13.5 58 14.6 56.9 14.6 55.6C14.6 54.5 13.9 53.7 12.9 53.3V49.2L16.8 45.3H23.9L23.6 46.6L27.7 48.3L29.3 45.9C31.1 46.3 33 46.2 34.8 45.9L36.4 48.3L40.5 46.6L40.2 45.3H47.3L51.2 49.2V53.3C50.2 53.6 49.5 54.5 49.5 55.6C49.5 56.9 50.6 58 51.9 58C53.2 58 54.3 56.9 54.3 55.6C54.3 54.5 53.6 53.6 52.6 53.3V48.6L47.8 43.8H39.8V43.7C41.3 42.7 42.7 41.3 43.7 39.8L46.6 40.4L46.7 40.3H48.7L54.9 46.5H59.4C59.7 47.5 60.6 48.2 61.7 48.2C63 48.2 64.1 47.1 64.1 45.8C64 44.4 62.9 43.3 61.6 43.3ZM57.3 39.3C57.8 39.3 58.2 39.7 58.2 40.2C58.2 40.7 57.8 41.1 57.3 41.1C56.8 41.1 56.4 40.7 56.4 40.2C56.4 39.7 56.8 39.3 57.3 39.3ZM57.3 22.8C57.8 22.8 58.2 23.2 58.2 23.7C58.2 24.2 57.8 24.6 57.3 24.6C56.8 24.6 56.4 24.2 56.4 23.7C56.4 23.3 56.8 22.8 57.3 22.8ZM61.6 17.3C62.1 17.3 62.5 17.7 62.5 18.2C62.5 18.7 62.1 19.1 61.6 19.1C61.1 19.1 60.7 18.7 60.7 18.2C60.7 17.8 61.1 17.3 61.6 17.3ZM51.1 8.39998C51.1 7.89998 51.5 7.49998 52 7.49998C52.5 7.49998 52.9 7.89998 52.9 8.39998C52.9 8.89998 52.5 9.29998 52 9.29998C51.5 9.29998 51.1 8.89998 51.1 8.39998ZM12 9.29998C11.5 9.29998 11.1 8.89998 11.1 8.39998C11.1 7.89998 11.5 7.49998 12 7.49998C12.5 7.49998 12.9 7.89998 12.9 8.39998C12.9 8.89998 12.5 9.29998 12 9.29998ZM2.4 19.2C1.9 19.2 1.5 18.8 1.5 18.3C1.5 17.8 1.9 17.4 2.4 17.4C2.9 17.4 3.3 17.8 3.3 18.3C3.3 18.8 2.9 19.2 2.4 19.2ZM6.7 24.7C6.2 24.7 5.8 24.3 5.8 23.8C5.8 23.3 6.2 22.9 6.7 22.9C7.2 22.9 7.6 23.3 7.6 23.8C7.6 24.3 7.2 24.7 6.7 24.7ZM6.7 41.2C6.2 41.2 5.8 40.8 5.8 40.3C5.8 39.8 6.2 39.4 6.7 39.4C7.2 39.4 7.6 39.8 7.6 40.3C7.6 40.8 7.2 41.2 6.7 41.2ZM2.4 46.7C1.9 46.7 1.5 46.3 1.5 45.8C1.5 45.3 1.9 44.9 2.4 44.9C2.9 44.9 3.3 45.3 3.3 45.8C3.3 46.2 2.9 46.7 2.4 46.7ZM12.9 55.6C12.9 56.1 12.5 56.5 12 56.5C11.5 56.5 11.1 56.1 11.1 55.6C11.1 55.1 11.5 54.7 12 54.7C12.5 54.7 12.9 55.1 12.9 55.6ZM52 54.7C52.5 54.7 52.9 55.1 52.9 55.6C52.9 56.1 52.5 56.5 52 56.5C51.5 56.5 51.1 56.1 51.1 55.6C51.1 55.1 51.5 54.7 52 54.7ZM45.7 38.8L43 38.3C41.7 40.3 40.2 42 38.2 43.1L38.7 45.8L36.8 46.6L35.3 44.3C33.1 44.9 30.8 44.9 28.5 44.3L27 46.6L25.1 45.8L25.6 43.1C23.6 42 22 40.4 20.8 38.3L18.1 38.8L17.3 36.9L19.6 35.4C19 33 19 30.8 19.6 28.6L17.3 27.1L18.1 25.2L20.8 25.7C21.8 23.7 23.6 22.2 25.6 20.9L25.1 18.2L27 17.4L28.5 19.7C30.7 19.1 32.9 19.1 35.3 19.7L36.8 17.4L38.7 18.2L38.2 20.9C40.3 22.1 41.9 23.7 43 25.7L45.7 25.2L46.5 27.1L44.2 28.6C44.8 30.8 44.8 33.1 44.2 35.4L46.5 36.9L45.7 38.8ZM61.6 46.7C61.1 46.7 60.7 46.3 60.7 45.8C60.7 45.3 61.1 44.9 61.6 44.9C62.1 44.9 62.5 45.3 62.5 45.8C62.5 46.2 62.1 46.7 61.6 46.7Z" fill="currentcolor"/>
<path d="M21.4 10.8C21.6 10.8 21.8 10.8 22 10.7L24.7 13.4H39.4L42.1 10.7C42.3 10.8 42.5 10.8 42.7 10.8C44 10.8 45.1 9.69998 45.1 8.39998C45 7.09998 44 5.99998 42.6 5.99998C41.3 5.99998 40.2 7.09998 40.2 8.39998C40.2 8.99998 40.4 9.49998 40.7 9.89998L38.6 12H25.3L23.2 9.89998C23.5 9.49998 23.7 8.99998 23.7 8.39998C23.7 7.09998 22.6 5.99998 21.3 5.99998C20 5.99998 19 7.09998 19 8.39998C19 9.69998 20 10.8 21.4 10.8ZM42.6 7.49998C43.1 7.49998 43.5 7.89998 43.5 8.39998C43.5 8.89998 43.1 9.29998 42.6 9.29998C42.1 9.29998 41.7 8.89998 41.7 8.39998C41.7 7.89998 42.1 7.49998 42.6 7.49998ZM21.4 7.49998C21.9 7.49998 22.3 7.89998 22.3 8.39998C22.3 8.89998 21.9 9.29998 21.4 9.29998C20.9 9.29998 20.5 8.89998 20.5 8.39998C20.4 7.89998 20.8 7.49998 21.4 7.49998Z" fill="currentcolor"/>
<path d="M42 53.3L39.3 50.6H24.7L22 53.3C20.4 53.1 19.3 53.7 19 55.6C19 56.9 20.1 58 21.4 58C22.7 58 23.8 56.9 23.8 55.6C23.8 55 23.6 54.5 23.3 54.1L25.4 52H38.9L41 54.1C40.7 54.5 40.5 55 40.5 55.6C40.5 56.9 41.6 58 42.9 58C44.2 58 45.3 56.9 45.3 55.6C44.8 53.9 43.9 53.1 42 53.3ZM21.4 56.5C20.9 56.5 20.5 56.1 20.5 55.6C20.5 55.1 20.9 54.7 21.4 54.7C21.9 54.7 22.3 55.1 22.3 55.6C22.3 56.1 21.9 56.5 21.4 56.5ZM42.6 56.5C42.1 56.5 41.7 56.1 41.7 55.6C41.7 55.1 42.1 54.7 42.6 54.7C43.1 54.7 43.5 55.1 43.5 55.6C43.6 56.1 43.2 56.5 42.6 56.5Z" fill="currentcolor"/>
</svg>
