<svg viewBox="0 0 64 64" fill="none" xmlns="http://www.w3.org/2000/svg">
<path d="M58.0999 9.79997V-3.05176e-05H5.8999V9.89997H14.7999V13.9H5.8999V23.8H14.7999V27.8H5.8999V37.7H14.7999V41.7H5.8999V51.6H31.1999V57.2C29.7999 57.5 28.6999 58.6 28.3999 60H14.0999V61.5H28.3999C28.6999 63.2 30.1999 64.4 31.9999 64.4C33.7999 64.4 35.1999 63.2 35.5999 61.5H49.8999V60H35.5999C35.2999 58.6 34.1999 57.5 32.7999 57.2V51.6H58.0999V41.7H49.1999V37.7H58.0999V27.8H49.1999V23.8H58.0999V13.9H49.1999V9.89997H58.0999V9.79997ZM34.1999 60.4C34.1999 61.6 33.1999 62.6 31.9999 62.6C30.7999 62.6 29.7999 61.6 29.7999 60.4C29.7999 59.2 30.7999 58.2 31.9999 58.2C33.1999 58.2 34.1999 59.2 34.1999 60.4ZM7.3999 1.39997H56.5999V8.29997H7.3999V1.39997ZM56.5999 49.8H7.3999V42.9H56.5999V49.8ZM47.6999 41.4H16.2999V37.4H47.6999V41.4ZM56.5999 36H7.3999V29.1H56.5999V36ZM47.6999 27.6H16.2999V23.6H47.6999V27.6ZM56.5999 22.2H7.3999V15.3H56.5999V22.2ZM47.6999 13.8H16.2999V9.79997H47.6999V13.8Z" fill="currentcolor"/>
<path d="M42.1997 4.19998H40.6997V5.69998H42.1997V4.19998Z" fill="currentcolor"/>
<path d="M53.8999 4.19998H52.3999V5.69998H53.8999V4.19998Z" fill="currentcolor"/>
<path d="M46.1001 4.19998H44.6001V5.69998H46.1001V4.19998Z" fill="currentcolor"/>
<path d="M50 4.19998H48.5V5.69998H50V4.19998Z" fill="currentcolor"/>
<path d="M20.9997 4.19998H11.1997V5.69998H20.9997V4.19998Z" fill="currentcolor"/>
<path d="M50 18H48.5V19.5H50V18Z" fill="currentcolor"/>
<path d="M42.1997 18H40.6997V19.5H42.1997V18Z" fill="currentcolor"/>
<path d="M46.1001 18H44.6001V19.5H46.1001V18Z" fill="currentcolor"/>
<path d="M53.8999 18H52.3999V19.5H53.8999V18Z" fill="currentcolor"/>
<path d="M20.9997 18H11.1997V19.5H20.9997V18Z" fill="currentcolor"/>
<path d="M42.1997 31.8H40.6997V33.3H42.1997V31.8Z" fill="currentcolor"/>
<path d="M53.8999 31.8H52.3999V33.3H53.8999V31.8Z" fill="currentcolor"/>
<path d="M46.1001 31.8H44.6001V33.3H46.1001V31.8Z" fill="currentcolor"/>
<path d="M50 31.8H48.5V33.3H50V31.8Z" fill="currentcolor"/>
<path d="M20.9997 31.8H11.1997V33.3H20.9997V31.8Z" fill="currentcolor"/>
<path d="M53.8999 45.6H52.3999V47.1H53.8999V45.6Z" fill="currentcolor"/>
<path d="M50 45.6H48.5V47.1H50V45.6Z" fill="currentcolor"/>
<path d="M42.1997 45.6H40.6997V47.1H42.1997V45.6Z" fill="currentcolor"/>
<path d="M46.1001 45.6H44.6001V47.1H46.1001V45.6Z" fill="currentcolor"/>
<path d="M20.9997 45.6H11.1997V47.1H20.9997V45.6Z" fill="currentcolor"/>
</svg>
