<svg viewBox="0 0 64 64" fill="none" xmlns="http://www.w3.org/2000/svg">
<path d="M63.3002 18.9L32.0002 -1.09998L0.700195 18.9V24.9H63.2002V18.9H63.3002ZM61.8002 23.4H2.2002V19.7L32.0002 0.600024L61.8002 19.7V23.4Z" fill="currentcolor"/>
<path d="M51.3002 19.5H12.7002V21H51.3002V19.5Z" fill="currentcolor"/>
<path d="M27.7002 11.2C27.7002 13.6 29.6002 15.5 32.0002 15.5C34.4002 15.5 36.3002 13.6 36.3002 11.2C36.3002 8.80002 34.4002 6.90002 32.0002 6.90002C29.6002 6.90002 27.7002 8.80002 27.7002 11.2ZM34.8002 11.2C34.8002 12.8 33.5002 14 32.0002 14C30.4002 14 29.2002 12.7 29.2002 11.2C29.2002 9.70002 30.5002 8.40002 32.0002 8.40002C33.6002 8.40002 34.8002 9.70002 34.8002 11.2Z" fill="currentcolor"/>
<path d="M37.3002 43.2001L32.0002 32.3L26.7002 43.2001L14.7002 44.9001L23.4002 53.3L21.3002 65.2L32.0002 59.4001L42.7002 65.1L40.6002 53.2001L49.3002 44.8L37.3002 43.2001ZM40.7002 62.4001L32.0002 57.7001L23.3002 62.3L25.0002 52.6L18.0002 45.9001L27.7002 44.6L32.0002 35.8L36.3002 44.6L46.0002 45.9001L38.9002 52.7001L40.7002 62.4001Z" fill="currentcolor"/>
<path d="M46.6001 32.3L42.6001 40.7001L43.9001 41.4001L46.6001 35.7001L49.5001 41.7001L56.1001 42.6L51.3001 47.2001L52.5001 53.8L47.0001 50.8L46.3001 52.2001L54.5001 56.6L53.0001 47.8L59.4001 41.6L50.5001 40.3L46.6001 32.3Z" fill="currentcolor"/>
<path d="M17.7001 52.2001L17.0001 50.8L11.5001 53.8L12.7001 47.2001L7.9001 42.6L14.5001 41.7001L17.4001 35.7001L20.1001 41.4001L21.4001 40.7001L17.4001 32.3L13.5001 40.3L4.6001 41.6L11.0001 47.8L9.5001 56.6L17.7001 52.2001Z" fill="currentcolor"/>
</svg>
