<svg viewBox="0 0 64 64" fill="none" xmlns="http://www.w3.org/2000/svg">
<path d="M42 51.5999C41.8 48.2999 41.5 45.2999 41.2001 42.7999V27.3999H35V33.6999L28.6 31.3999L22.4 42.8999H19.9L13.7 31.3999L7.00005 33.7999C5.10005 34.4999 3.60005 35.6999 2.70005 37.3999C1.80005 38.9999 1.30005 40.5999 1.30005 42.0999C1.20005 42.5999 0.600049 45.7999 0.300049 51.5999V52.3999H42V51.5999ZM39.7001 28.8999V37.5999C39.7001 37.4999 39.6 37.4999 39.6 37.3999V37.2999C38.9 36.0999 37.9001 35.0999 36.7001 34.3999C36.7001 34.3999 36.6 34.3999 36.6 34.2999V28.7999H39.7001V28.8999ZM1.90005 50.8999C2.20005 45.2999 2.80005 42.3999 2.80005 42.2999V42.0999C2.80005 40.7999 3.20005 39.3999 4.00005 37.9999C4.80005 36.6999 6.00005 35.5999 7.50005 35.0999L13 33.0999L19 44.2999H23.2001L29.2001 33.0999L34.7001 35.0999C35.1001 35.2999 35.5 35.3999 35.8 35.5999C36.8 36.1999 37.6001 36.9999 38.2001 37.9999V38.0999C38.9001 39.2999 39.3001 40.4999 39.4001 41.5999C39.4001 41.5999 39.4001 41.6999 39.4001 41.8999C39.8001 44.3999 40.1 47.4999 40.3 50.8999H1.90005Z" fill="currentcolor"/>
<path d="M21.2 30.7C26.4 30.7 30.7 26.4 30.7 21.2C30.7 16 26.4 11.7 21.2 11.7C16 11.7 11.7 16 11.7 21.2C11.7 26.4 15.9 30.7 21.2 30.7ZM21.2 13.1C25.6 13.1 29.2999 16.7 29.2999 21.2C29.2999 25.6 25.7 29.2999 21.2 29.2999C16.8 29.2999 13.1 25.7 13.1 21.2C13.1 16.7 16.7 13.1 21.2 13.1Z" fill="currentcolor"/>
<path d="M63.6 16.7999H57.5V46.6999H63.6V16.7999ZM62.2 45.2999H59V18.2999H62.2V45.2999Z" fill="currentcolor"/>
<path d="M50 46.6999H56.1V23.8999H50V46.6999ZM51.5 25.2999H54.7V45.1999H51.5V25.2999Z" fill="currentcolor"/>
<path d="M48.6 19.5H42.5V46.7H48.6V19.5ZM47.2 45.3H44V21H47.2V45.3Z" fill="currentcolor"/>
</svg>
