<svg viewBox="0 0 64 64" fill="none" xmlns="http://www.w3.org/2000/svg">
<path d="M40.2001 35.9H38.7001V43.3H35.2001V28.6H33.8V43.3H30.2001V33.2H28.8V43.3H25.3V37.8H23.8V43.3H21.8V44.7H42.2001V43.3H40.2001V35.9Z" fill="currentcolor"/>
<path d="M60.2999 35.2C58.5999 35.2 57.3 36.4 56.9 38H48.2C48.1 35.6 47.5 33.3 46.4 31.3L53.7999 26.9C54.3999 27.6 55.3999 28 56.2999 28C56.8999 28 57.5 27.8 58.0999 27.5C58.8999 27 59.5 26.3 59.7 25.4C59.9 24.5 59.7999 23.6 59.2999 22.8C58.7 21.8 57.5 21.1 56.2999 21.1C55.7 21.1 55.0999 21.3 54.5 21.6C53.7 22.1 53.1 22.8 52.9 23.7C52.7 24.4 52.7999 25 53 25.7L45.7 30.1C44.4 28.1 42.7 26.3 40.7 25L44.7999 17.6C45.0999 17.7 45.5 17.8 45.7999 17.8C47 17.8 48.2 17.1 48.7999 16C49.2999 15.2 49.3999 14.3 49.0999 13.4C48.8999 12.5 48.2999 11.8 47.5 11.3C47 11 46.3999 10.9 45.7999 10.9C44.5999 10.9 43.3999 11.6 42.7999 12.7C42 14.1 42.2999 15.9 43.5 17L39.4 24.4C37.3 23.3 35 22.7 32.5 22.6V14C34.0999 13.7 35.2 12.3 35.2 10.6C35.2 8.69997 33.6 7.19997 31.7 7.19997C29.8 7.19997 28.2999 8.79997 28.2999 10.7V10.9C28.4 12.5 29.6 13.8 31.1 14.1V22.5C28.7 22.6 26.3 23.3 24.2 24.4L19.9 17.2C20.4 16.8 20.6999 16.2 20.9 15.5C21.1 14.6 21 13.7 20.5 12.9C19.9 11.8 18.7 11.2 17.5 11.2C16.9 11.2 16.3 11.4 15.7 11.7C14.9 12.2 14.3 12.9 14.1 13.8C13.9 14.7 14 15.6 14.5 16.4C15.1 17.4 16.2999 18.1 17.5 18.1C17.9 18.1 18.2 18 18.6 17.9L22.9 25.2C22 25.8 21.0999 26.5 20.2999 27.3C19.4 28.2 18.6 29.3 17.9 30.4L10.5 26.2C11 24.7 10.3 23 8.89995 22.2C8.39995 21.9 7.79995 21.8 7.19995 21.8C5.99995 21.8 4.79995 22.5 4.19995 23.6C3.79995 24.1 3.69995 25.1 3.99995 26C4.19995 26.9 4.79995 27.6 5.59995 28.1C6.09995 28.4 6.69995 28.5 7.29995 28.5C8.29995 28.5 9.19995 28.1 9.89995 27.3L17.4 31.5C16.4 33.6 15.8 36 15.7 38.4H6.99995C6.59995 36.9 5.29995 35.7 3.59995 35.7C1.69995 35.7 0.199951 37.3 0.199951 39.2C0.199951 41.1 1.79995 42.6 3.69995 42.6C5.39995 42.6 6.69995 41.4 7.09995 39.8H15.8C16 42.2 16.6999 44.5 17.7999 46.6L10.1 51C8.49995 49.2 6.29995 50 5.79995 50.4C4.19995 51.4 3.59995 53.5 4.59995 55.1C6.49995 57.7 8.79995 56.6 9.29995 56.3C10.7 55.5 11.3 53.7 10.8 52.2L18.4 47.8C21.5 52.2 26.4 55 32 55C36.4 55 40.5 53.3 43.5 50.2C44.2999 49.4 45 48.5 45.7 47.5L53.4 51.8C53.2 52.4 53.2 53.1 53.4 53.8C54.9 57.8 59 56.3 59.7 54.6C60.6 52.9 60 50.8 58.4 49.9C56.3 48.9 54.7999 49.9 54.0999 50.6L46.5 46.3C47.5999 44.2 48.2 41.9 48.2999 39.4H57C57.4 40.9 58.7 42.1 60.4 42.1C62.3 42.1 63.7999 40.5 63.7999 38.6C63.7999 36.8 62.2 35.2 60.2999 35.2ZM54.5 24.1C54.5999 23.6 55 23.1 55.4 22.9C55.7 22.7 56.1 22.6 56.4 22.6C57.1 22.6 57.7999 23 58.0999 23.6C58.3999 24.1 58.3999 24.6 58.2999 25.1C58.2 25.6 57.8 26.1 57.4 26.3C56.5 26.8 55.2 26.5 54.7 25.6C54.4 25.1 54.2999 24.6 54.5 24.1ZM44.2 13.3C44.6 12.7 45.2 12.3 45.9 12.3C46.2 12.3 46.6 12.4 46.9 12.6C47.4 12.9 47.7 13.3 47.7999 13.8C47.8999 14.3 47.8999 14.9 47.5999 15.3C47.0999 16.2 45.8 16.6 44.9 16.1C44 15.5 43.7 14.3 44.2 13.3ZM18.6 16.3C17.7 16.8 16.4 16.5 15.9 15.6C15.3 14.6 15.7 13.4 16.6 12.9C16.9 12.7 17.3 12.6 17.6 12.6C18.3 12.6 19 13 19.2999 13.6C19.9 14.5 19.6 15.7 18.6 16.3ZM9.09995 26C8.59995 26.9 7.29995 27.3 6.39995 26.8C5.89995 26.5 5.59995 26.1 5.49995 25.6C5.39995 25.1 5.39995 24.5 5.69995 24.1C6.09995 23.5 6.69995 23.1 7.39995 23.1C7.69995 23.1 8.09995 23.2 8.39995 23.4C9.29995 23.8 9.59995 25.1 9.09995 26ZM3.69995 41.2V41.9V41.2C2.59995 41.2 1.69995 40.3 1.69995 39.2C1.69995 38.7 1.89995 38.2 2.29995 37.8C2.69995 37.4 3.19995 37.2 3.69995 37.2C4.79995 37.2 5.69995 38.1 5.69995 39.2C5.69995 40.3 4.79995 41.2 3.69995 41.2ZM8.59995 55.1C7.69995 55.6 6.39995 55.3 5.89995 54.4C4.69995 51.6 8.19995 50.4 9.39995 52.4C9.89995 53.3 9.59995 54.5 8.59995 55.1ZM56.7 50.9C57 50.9 59.5 51.3 58.4 53.9C57.9 54.8 56.6 55.2 55.7 54.7C55.2 54.4 54.8999 54 54.7999 53.5C54.2999 51.6 56 50.9 56.7 50.9ZM29.9 10.6C29.9 9.99997 30.1 9.49997 30.5 9.19997C30.9 8.79997 31.4 8.59997 31.9 8.59997C33 8.59997 33.9 9.49997 33.9 10.6C33.9 11.7 33 12.6 31.9 12.6V13.3V12.6C30.7999 12.6 29.9 11.7 29.9 10.6ZM42.5 49.2C39.7 52 36 53.6 32 53.6C23.7999 53.6 17.1 46.9 17.1 38.7C17.1 34.7 18.6 31 21.4 28.2C24.1999 25.4 27.9 23.8 31.9 23.8C40.0999 23.8 46.7999 30.5 46.7999 38.7C46.8999 42.7 45.2999 46.4 42.5 49.2ZM61.7999 40.1C61.3999 40.5 60.9 40.7 60.4 40.7V41.4V40.7C59.3 40.7 58.4 39.8 58.4 38.7C58.4 38.2 58.5999 37.7 59 37.3C59.4 36.9 59.9 36.7 60.4 36.7C61.5 36.7 62.4 37.6 62.4 38.7C62.4 39.2 62.2 39.7 61.7999 40.1Z" fill="currentcolor"/>
</svg>
