<svg viewBox="0 0 64 64" fill="none" xmlns="http://www.w3.org/2000/svg">
<path d="M42.4 48.5V38.5H63.5V12.8H21.5V25.5H3.1C1.6 25.5 0.5 26.7 0.5 28.1V48.5C0.5 50 1.7 51.1 3.1 51.1H39.8C41.3 51.2 42.4 50 42.4 48.5ZM23 14.3H62.1V37H23V14.3ZM39.8 49.7001H3.1C2.4 49.7001 1.9 49.2001 1.9 48.5V28.1C1.9 27.4 2.4 26.9 3.1 26.9H21.6V38.4001H41V48.5C41 49.2001 40.5 49.7001 39.8 49.7001Z" fill="currentcolor"/>
<path d="M28.5001 44.0001H27.1001V45.4001H28.5001V44.0001Z" fill="currentcolor"/>
<path d="M25.2001 44.0001H23.8V45.4001H25.2001V44.0001Z" fill="currentcolor"/>
<path d="M21.9 44.0001H20.5V45.4001H21.9V44.0001Z" fill="currentcolor"/>
<path d="M18.6 44.0001H17.2V45.4001H18.6V44.0001Z" fill="currentcolor"/>
<path d="M35.0001 44.0001H33.6001V45.4001H35.0001V44.0001Z" fill="currentcolor"/>
<path d="M38.2999 44.0001H36.8999V45.4001H38.2999V44.0001Z" fill="currentcolor"/>
<path d="M31.7001 44.0001H30.3V45.4001H31.7001V44.0001Z" fill="currentcolor"/>
<path d="M15.4 44.0001H14V45.4001H15.4V44.0001Z" fill="currentcolor"/>
<path d="M5.5001 44.0001H4.1001V45.4001H5.5001V44.0001Z" fill="currentcolor"/>
<path d="M12.1 44.0001H10.7V45.4001H12.1V44.0001Z" fill="currentcolor"/>
<path d="M8.7999 44.0001H7.3999V45.4001H8.7999V44.0001Z" fill="currentcolor"/>
<path d="M18.4 30.1H6V37.2H18.4V30.1ZM16.9 35.7H7.4V31.5H16.9V35.7Z" fill="currentcolor"/>
<path d="M55.9001 18.3V17.6H29.2001V18.3C29.2001 19.5 28.2 20.5 27 20.5H26.3V30.8H27C28.2 30.8 29.2001 31.8 29.2001 33V33.7H55.9001V33C55.9001 31.8 56.9 30.8 58.1 30.8H58.8V20.5H58C56.9 20.5 55.9001 19.5 55.9001 18.3ZM57.3 29.5C55.9 29.8 54.8 30.9 54.5 32.3H30.6C30.3 30.9 29.2 29.8 27.8 29.5V21.9C29.2 21.6 30.3 20.5 30.6 19.1H54.5C54.8 20.5 55.9 21.6 57.3 21.9V29.5Z" fill="currentcolor"/>
<path d="M42.5999 22.0001C40.5999 22.0001 38.8999 23.7001 38.8999 25.7001C38.8999 27.7001 40.5999 29.4001 42.5999 29.4001C44.5999 29.4001 46.2999 27.7001 46.2999 25.7001C46.1999 23.6001 44.5999 22.0001 42.5999 22.0001ZM42.5999 27.9001C41.3999 27.9001 40.3999 26.9001 40.3999 25.7001C40.3999 24.5001 41.3999 23.5001 42.5999 23.5001C43.7999 23.5001 44.7999 24.5001 44.7999 25.7001C44.7999 26.9001 43.7999 27.9001 42.5999 27.9001Z" fill="currentcolor"/>
</svg>
