<svg viewBox="0 0 64 64" fill="none" xmlns="http://www.w3.org/2000/svg">
<path d="M61.3 17.8C51.5 16.6 47.5 12.3 47.5 12.3L47 11.7L46.5 12.3C46.5 12.3 45.4 13.5 43 14.8V6.80003C42.9 2.30003 32.3 3.05176e-05 22.4 3.05176e-05C12.5 3.05176e-05 2 2.30003 2 6.70003V42.8C2 47.1 12 49.4 21.7 49.5V58C20.6 58.3 19.8 59.1 19.5 60.2H8.2V61.7H19.5C19.8 63 21 64 22.4 64C23.8 64 25 63 25.3 61.7H36.6V60.2H25.3C25 59.1 24.2 58.3 23.1 58V49.5C32.8 49.4 42.8 47 42.8 42.8V39.8C43.9 40.7 45.2 41.4 46.6 42L46.9 42.1L47.2 42C60.1 36.8 61.9 19.3 62 18.6L62.1 17.9L61.3 17.8ZM22.4 1.40003C33.6 1.40003 41.4 4.20003 41.4 6.70003C41.4 9.20003 33.6 12 22.4 12C11.2 12 3.4 9.20003 3.4 6.70003C3.4 4.20003 11.2 1.40003 22.4 1.40003ZM3.4 9.40003C6.6 12.1 14.7 13.5 22.4 13.5C30.1 13.5 38.1 12.1 41.4 9.40003V15.5C39.2 16.5 36.3 17.4 32.6 17.8L31.9 17.9L32 18.6C32 18.8 32.2 20.6 32.9 23.1C29.8 23.7 26.2 24 22.5 24C11.3 24 3.5 21.2 3.5 18.7V9.40003H3.4ZM3.4 21.4C6.6 24.1 14.7 25.5 22.4 25.5C26.3 25.5 30 25.2 33.2 24.5C34 27.3 35.3 30.7 37.4 33.9C33.8 35.3 28.3 36.1 22.4 36.1C11.2 36.1 3.4 33.3 3.4 30.8V21.4ZM24 61C24 61.9 23.3 62.6 22.4 62.6C21.5 62.6 20.8 61.9 20.8 61C20.8 60.1 21.5 59.4 22.4 59.4C23.3 59.4 24 60.1 24 61ZM41.4 42.8C41.4 45.3 33.6 48.1 22.4 48.1C11.2 48.1 3.4 45.3 3.4 42.8V33.4C6.6 36.1 14.7 37.5 22.4 37.5C28.6 37.5 34.4 36.6 38.3 35.1C39.2 36.3 40.2 37.5 41.4 38.6V42.8ZM47 40.6C36.8 35.9 34 22.4 33.5 19.1C41.5 18 45.6 15 47 13.7C48.4 14.9 52.5 17.9 60.5 19.1C60 22.4 57.4 36.1 47 40.6Z" fill="currentcolor"/>
<path d="M46.5999 19C44.3999 20.3 41.8999 21.4 39.0999 22.1L38.3999 22.3L38.5999 23C39.7999 27.1 42.1999 32.6 46.6999 35.7L46.9999 36L47.3999 35.7C51.9999 32.7 54.2999 27.1 55.3999 23L55.5999 22.3L54.9999 22.1C52.1999 21.3 49.5999 20.3 47.3999 18.9L46.9999 18.7L46.5999 19ZM53.8999 23.3C52.7999 27 50.7999 31.5 47.0999 34.2C43.4999 31.4 41.3999 26.9 40.1999 23.3C42.6999 22.6 44.9999 21.6 46.9999 20.4C48.9999 21.6 51.2999 22.6 53.8999 23.3Z" fill="currentcolor"/>
</svg>
