<svg viewBox="0 0 64 64" fill="none" xmlns="http://www.w3.org/2000/svg">
<path d="M33 15.4001C24 14.8001 16.5 21.9001 16.5 30.8001C16.5 32.5001 16.8 34.3001 17.4 36.0001L18.7 38.7001C18.9 39.0001 19.1 39.4001 19.3 39.7001L19.4 39.8001C21.5 43.6001 23.1 47.9001 24.1 52.4001H21.4V53.9001H24.4C24.5 54.4001 24.6 54.9001 24.6 55.4001H21.3V56.9001H24.8C24.8 57.2001 24.9 57.5001 24.9 57.7001V57.9001C25.2 58.8001 26 59.5001 26.9 59.8001C27.2 62.2001 29.3 64.0001 31.9 64.0001C34.5 64.0001 36.6 62.1001 36.9 59.7001C37.9 59.3001 38.7 58.5001 39 57.3001C39 57.1001 39.1 56.9001 39.1 56.8001H42.5V55.3001H39.3C39.3 55.2001 39.3 55.0001 39.4 54.9001C39.5 54.5001 39.5 54.2001 39.6 53.9001H42.6V52.4001H39.9C40.9 47.6001 42.7 43.1001 45 39.1001C45.1 38.9001 45.2 38.7001 45.4 38.4001C46.9 35.8001 47.5 32.9001 47.4 30.0001C47 22.2001 40.8 15.9001 33 15.4001ZM32 62.5001C30.3 62.5001 28.9 61.4001 28.5 59.9001H35.5C35.1 61.4001 33.7 62.5001 32 62.5001ZM37.6 57.1001C37.4 57.9001 36.7 58.4001 35.9 58.4001H27.9C27.2 58.4001 26.6 58.0001 26.3 57.4001C26.3 57.2001 26.2 57.0001 26.2 56.8001H37.6C37.7 56.9001 37.7 57.0001 37.6 57.1001ZM38 54.7001C38 54.9001 37.9 55.1001 37.9 55.3001H26.1C26 54.8001 25.9 54.3001 25.9 53.8001H38.1C38.1 54.2001 38 54.4001 38 54.7001ZM32 41.5001C32.8 42.1001 33.8 42.6001 34.9 43.0001C34 46.3001 33.3 50.8001 33 52.5001H30.9C30.7 50.8001 29.9 46.3001 29 43.0001C30.2 42.6001 31.2 42.0001 32 41.5001ZM31.8 37.1001H32.1C32.9 37.3001 32.8 38.2001 32.8 38.3001C32.8 38.8001 32.3 39.2001 32 39.5001C31.6 39.2001 31.2 38.7001 31.2 38.3001C31.1 38.2001 31.1 37.3001 31.8 37.1001ZM44.2 37.6001C44 37.9001 43.9 38.1001 43.8 38.3001C41.3 42.6001 39.5 47.3001 38.4 52.4001H34.5C34.8 50.6001 35.5 46.3001 36.3 43.2001C36.8 43.2001 37.2 43.2001 37.6 43.1001C38.8 42.8001 39.3 41.6001 39.3 40.6001C39.2 39.6001 38.6 39.0001 37.8 38.9001C37.3 38.8001 36.3 39.0001 35.8 40.2001C35.6 40.6001 35.5 41.1001 35.3 41.6001C34.5 41.4001 33.8 41.0001 33.2 40.6001C33.7 40.1001 34.2 39.4001 34.3 38.6001C34.4 37.4001 33.8 36.1001 32.3 35.8001H31.8H31.7C30.2 36.1001 29.6 37.4001 29.7 38.6001C29.8 39.5001 30.3 40.2001 30.8 40.6001C30.2 41.0001 29.4 41.4001 28.7 41.6001C28.5 41.1001 28.3 40.6001 28.2 40.2001C27.7 39.1001 26.7 38.9001 26.2 38.9001C25.4 39.0001 24.8 39.7001 24.7 40.6001C24.6 41.6001 25.2 42.8001 26.4 43.1001C26.8 43.2001 27.2 43.2001 27.7 43.2001C28.5 46.3001 29.2 50.6001 29.5 52.4001H25.7C24.7 47.6001 23 43.1001 20.7 39.0001L20.6 38.9001C20.4 38.6001 20.2 38.3001 20.1 38.0001L18.8 35.4001C18.3 33.9001 18 32.4001 18 30.8001C18 22.8001 24.8 16.3001 32.9 16.9001C39.9 17.4001 45.5 23.1001 45.9 30.1001C46.1 32.8001 45.4 35.4001 44.2 37.6001ZM36.8 41.7001C36.9 41.3001 37.1 40.9001 37.2 40.7001C37.4 40.3001 37.6 40.3001 37.6 40.3001C37.8 40.3001 37.8 40.7001 37.8 40.7001C37.8 41.0001 37.7 41.6001 37.2 41.7001C37.1 41.7001 36.9 41.7001 36.8 41.7001ZM27.1 41.7001C26.9 41.7001 26.8 41.7001 26.7 41.6001C26.2 41.5001 26.1 40.9001 26.1 40.6001C26.1 40.6001 26.1 40.2001 26.3 40.2001C26.4 40.2001 26.6 40.2001 26.7 40.6001C26.9 41.0001 27 41.3001 27.1 41.7001Z" fill="currentcolor"/>
<path d="M33 9.60007H31.5V11.1001H33V9.60007Z" fill="currentcolor"/>
<path d="M33 4.80007H31.5V6.30007H33V4.80007Z" fill="currentcolor"/>
<path d="M33 6.86646e-05H31.5V1.50007H33V6.86646e-05Z" fill="currentcolor"/>
<path d="M23.0688 13.2817L22.3184 11.9829L21.0195 12.7333L21.77 14.0322L23.0688 13.2817Z" fill="currentcolor"/>
<path d="M20.61 9.15104L19.8599 7.85219L18.561 8.60234L19.3112 9.90119L20.61 9.15104Z" fill="currentcolor"/>
<path d="M18.1874 4.88719L17.438 3.58789L16.1387 4.33729L16.8881 5.63659L18.1874 4.88719Z" fill="currentcolor"/>
<path d="M15.4788 20.0896L14.1797 19.3398L13.4298 20.6389L14.729 21.3888L15.4788 20.0896Z" fill="currentcolor"/>
<path d="M11.2807 17.6711L9.98145 16.9216L9.2319 18.2209L10.5312 18.9704L11.2807 17.6711Z" fill="currentcolor"/>
<path d="M7.16912 15.3029L5.87012 14.5529L5.12012 15.8519L6.41912 16.6019L7.16912 15.3029Z" fill="currentcolor"/>
<path d="M12.3003 29.8001H10.8003V31.3001H12.3003V29.8001Z" fill="currentcolor"/>
<path d="M7.5 29.8001H6V31.3001H7.5V29.8001Z" fill="currentcolor"/>
<path d="M2.7002 29.8001H1.2002V31.3001H2.7002V29.8001Z" fill="currentcolor"/>
<path d="M15.1437 41.0806L14.3936 39.7816L13.0946 40.5317L13.8447 41.8307L15.1437 41.0806Z" fill="currentcolor"/>
<path d="M11.0148 43.5392L10.2646 42.2402L8.96565 42.9904L9.7158 44.2894L11.0148 43.5392Z" fill="currentcolor"/>
<path d="M4.8519 45.3087L5.60205 46.6077L6.90105 45.8575L6.1509 44.5585L4.8519 45.3087Z" fill="currentcolor"/>
<path d="M49.3024 40.2398L48.5522 41.5388L49.8512 42.289L50.6014 40.99L49.3024 40.2398Z" fill="currentcolor"/>
<path d="M52.7137 43.9015L54.0127 44.6515L54.7627 43.3525L53.4637 42.6025L52.7137 43.9015Z" fill="currentcolor"/>
<path d="M56.8394 46.2931L58.1387 47.0427L58.8882 45.7434L57.5889 44.9938L56.8394 46.2931Z" fill="currentcolor"/>
<path d="M53.2002 30.3001H51.7002V31.8001H53.2002V30.3001Z" fill="currentcolor"/>
<path d="M58 30.3001H56.5V31.8001H58V30.3001Z" fill="currentcolor"/>
<path d="M62.8003 30.3001H61.3003V31.8001H62.8003V30.3001Z" fill="currentcolor"/>
<path d="M50.8175 21.1208L50.0674 19.8218L48.7684 20.5719L49.5185 21.8709L50.8175 21.1208Z" fill="currentcolor"/>
<path d="M53.0345 18.1232L53.7847 19.4222L55.0837 18.672L54.3335 17.373L53.0345 18.1232Z" fill="currentcolor"/>
<path d="M59.2116 16.24L58.4614 14.941L57.1624 15.6911L57.9126 16.9901L59.2116 16.24Z" fill="currentcolor"/>
<path d="M43.4606 12.9772L42.1616 12.2272L41.4116 13.5262L42.7106 14.2762L43.4606 12.9772Z" fill="currentcolor"/>
<path d="M45.8786 8.77937L44.5796 8.02937L43.8296 9.32837L45.1286 10.0784L45.8786 8.77937Z" fill="currentcolor"/>
<path d="M47.0194 3.89569L46.27 5.19499L47.5693 5.94439L48.3187 4.64509L47.0194 3.89569Z" fill="currentcolor"/>
</svg>
