<svg viewBox="0 0 64 64" fill="none" xmlns="http://www.w3.org/2000/svg">
<path d="M34.0999 4.59998L33.8999 6.09998C40.2999 6.89998 45.3999 12 46.1999 18.4L47.6999 18.2C46.6999 11.1 41.0999 5.59998 34.0999 4.59998Z" fill="currentcolor"/>
<path d="M30.1003 6.09998L29.9003 4.59998C22.9003 5.49998 17.3003 11.1 16.3003 18.1L17.8003 18.3C18.7003 12 23.7003 6.89998 30.1003 6.09998Z" fill="currentcolor"/>
<path d="M33.8999 34.5L34.0999 36C41.1999 35.1 46.7999 29.4999 47.6999 22.4L46.1999 22.2C45.3999 28.6 40.2999 33.7 33.8999 34.5Z" fill="currentcolor"/>
<path d="M17.8003 22.1L16.3003 22.3C17.2003 29.4 22.8003 35 29.9003 36L30.1003 34.5C23.7003 33.7 18.6003 28.6 17.8003 22.1Z" fill="currentcolor"/>
<path d="M33.1968 53.8969L31.6968 53.9047L31.7046 55.4047L33.2046 55.3969L33.1968 53.8969Z" fill="currentcolor"/>
<path d="M31.7266 57.3035L31.7354 58.8035L33.2354 58.7947L33.2266 57.2947L31.7266 57.3035Z" fill="currentcolor"/>
<path d="M32.0001 0C25.5001 0 19.5001 3 15.6001 8.3C9.60009 16.4 10.8001 28.2 18.2001 35.1C21.2001 37.9 24.8001 39.6 28.8001 40.2L27.6001 58.9C27.5001 60.2 28.0001 61.5 28.9001 62.5C29.8001 63.5 31.1001 64 32.4001 64H32.5001C33.8001 64 35.1001 63.4 36.0001 62.4C36.9001 61.4 37.3001 60.1 37.2001 58.7L35.6001 40.1C40.1001 39.2 44.2001 36.9 47.2001 33.4C54.0001 25.7 53.8001 14.2 47.0001 6.6C43.1001 2.4 37.7001 0 32.0001 0ZM46.2001 32.4C43.3001 35.8 39.2001 38.1 34.8001 38.7L34.1001 38.8L35.8001 58.8C35.9001 59.7 35.6001 60.7 34.9001 61.4C34.3001 62.1 33.4001 62.5 32.4001 62.5L32.3001 63.2V62.5C31.4001 62.5 30.5001 62.1 29.8001 61.4C29.2001 60.7 28.8001 59.8 28.9001 58.9L30.2001 38.9L29.5001 38.8C25.6001 38.4 21.9001 36.7 19.0001 34C12.1001 27.6 11.0001 16.7 16.6001 9.1C20.2001 4.2 25.7001 1.4 31.8001 1.4C37.1001 1.4 42.2001 3.7 45.7001 7.6C52.2001 14.6 52.4001 25.3 46.2001 32.4Z" fill="currentcolor"/>
<path d="M32.6999 11.2V2.19995H31.1999V11.1C26.6999 11.5 23.1999 15 22.7999 19.5H13.8999V21H22.7999C23.1999 25.5 26.6999 29 31.1999 29.4V38.2999H32.6999V29.4C37.1999 29 40.6999 25.5 41.0999 21H49.9999V19.5H41.0999C40.7999 15.1 37.1999 11.5 32.6999 11.2ZM32.6999 28V25.6H31.1999V28C27.4999 27.7 24.5999 24.7 24.2999 21.1H26.6999V19.6H24.2999C24.5999 15.9 27.5999 13 31.1999 12.7V15.1H32.6999V12.7C36.3999 13 39.2999 16 39.5999 19.6H37.1999V21H39.5999C39.2999 24.7 36.3999 27.6 32.6999 28Z" fill="currentcolor"/>
</svg>
