<svg viewBox="0 0 64 64" fill="none" xmlns="http://www.w3.org/2000/svg">
<path d="M33.1275 55.1432L33.1182 53.6432L31.6182 53.6525L31.6275 55.1525L33.1275 55.1432Z" fill="currentcolor"/>
<path d="M31.7241 58.5161L33.2241 58.5064L33.2144 57.0064L31.7144 57.0161L31.7241 58.5161Z" fill="currentcolor"/>
<path d="M46.7999 7.20004L45.6999 8.20004C51.8999 15.1 52.0999 25.6 45.9999 32.6C43.0999 36 39.0999 38.2 34.7999 38.8L34.0999 38.9L35.6999 58.6C35.7999 59.5 35.4999 60.4 34.8999 61.1C34.2999 61.8 33.3999 62.2 32.4999 62.2C31.5999 62.2 30.6999 61.9 30.0999 61.2C29.4999 60.5 29.0999 59.6 29.1999 58.7L30.4999 39L29.7999 38.9C25.8999 38.5 22.3999 36.8 19.4999 34.1C12.5999 27.8 11.5999 17 16.9999 9.60004C17.3999 9.10004 17.7999 8.60004 18.1999 8.10004L17.0999 7.10004C16.5999 7.60004 16.1999 8.20004 15.7999 8.70004C9.89988 16.7 10.9999 28.3 18.3999 35.1C21.2999 37.8 24.8999 39.6 28.8999 40.2L27.6999 58.6C27.5999 59.9 28.0999 61.2 28.9999 62.2C29.8999 63.1 31.1999 63.7 32.3999 63.7H32.4999C33.7999 63.7 35.0999 63.1 35.9999 62.1C36.8999 61.1 37.2999 59.8 37.1999 58.5L35.6999 40.2C40.0999 39.4 44.1999 37 47.0999 33.6C53.5999 25.9 53.4999 14.6 46.7999 7.20004Z" fill="currentcolor"/>
<path d="M42.7998 26.6H44.2998V20.2H46.2998V14.8H44.2998V0.400024H42.7998V14.8H40.7998V20.2H42.7998V26.6ZM42.2998 16.2H44.7998V18.7H42.2998V16.2Z" fill="currentcolor"/>
<path d="M35.1001 26.6H36.6001V12.6H38.6001V7.20002H36.6001V0.400024H35.1001V7.20002H33.1001V12.6H35.1001V26.6ZM34.6001 8.70002H37.1001V11.2H34.6001V8.70002Z" fill="currentcolor"/>
<path d="M27.3999 26.6H28.8999V11.4H30.8999V6.00002H28.8999V0.400024H27.3999V6.00002H25.3999V11.4H27.3999V26.6ZM26.8999 7.50002H29.3999V10H26.8999V7.50002Z" fill="currentcolor"/>
<path d="M17.6997 18.1V23.5H19.6997V26.6H21.1997V23.5H23.1997V18.1H21.1997V0.400024H19.6997V18.1H17.6997ZM21.5997 22.1H19.0997V19.6H21.5997V22.1Z" fill="currentcolor"/>
</svg>
