<svg viewBox="0 0 64 64" fill="none" xmlns="http://www.w3.org/2000/svg">
<path d="M36.9001 14C37.9001 13 39.6 13 40.5 14C41 14.5 41.3 15.1 41.3 15.8C41.3 16.5 41.0001 17.1 40.4001 17.7C40.3001 17.8 38.9 19.1 38.3 21.3C38.1 22 38 22.8 38 23.5H39.5C39.5 22.9 39.6 22.3 39.8 21.7C40.3 19.9 41.5 18.8 41.5 18.8C42.4 17.8 42.8 16.9 42.8 15.8C42.8 14.7 42.4 13.7 41.6 13C40.8 12.2 39.8 11.8 38.8 11.8C37.7 11.8 36.7 12.2 36 13C35.2 13.8 34.8 14.8 34.8 15.8H36.3C36.1 15.2 36.4001 14.5 36.9001 14Z" fill="currentcolor"/>
<path d="M39.5 25.1H38V26.6H39.5V25.1Z" fill="currentcolor"/>
<path d="M57.9 56.2V53.8H56.5V56.2H49.8V53.8H48.4V56.2H41.8V53.8H40.3V56.2H33.7V53.8H32.2V56.2H25.6V53.8H24.1V56.2H17.5V53.8H16V56.2H9.4V53.8H7.9V56.2H2V51.5H4.4V50H2V43.8H4.4V42.4H2V36.2H4.4V34.7H2V28.5H4.4V27.1H2V20.9H4.4V19.4H2V13.2H4.4V11.8H2V6.39999H0.5V57.6H63.5V56.2H57.9Z" fill="currentcolor"/>
<path d="M38.7001 30C40.9001 30 42.9001 29.4 44.7001 28.2L51.8001 36.5C52.4001 37.2 53.2001 37.6 54.1 37.6C54.9 37.6 55.6001 37.3 56.2001 36.8C56.8001 36.2 57.1 35.4 57.1 34.6C57.1 33.8 56.7001 33 56.1 32.5L47.9001 25.2C49.3001 23.2 50.0001 20.8 49.9001 18.3C49.6001 12.6 45.2001 7.99999 39.5001 7.49999C35.9001 7.19999 32.5001 8.59999 30.2001 11.3C28.0001 13.7 27.1001 16.9 27.4001 20.2C28.1001 25.8 32.9001 30 38.7001 30ZM31.3001 12.2C33.3 9.89999 36.3001 8.69999 39.4001 8.89999C44.3001 9.29999 48.2001 13.3 48.4001 18.2C48.5001 20.5 47.8001 22.9 46.3001 24.7L45.9001 25.2L55.1 33.4C55.4 33.7 55.6 34.1 55.6 34.5C55.6 34.9 55.4 35.3 55.1 35.6C54.5 36.2 53.5001 36.1 52.9001 35.5L44.9001 26.1L44.4001 26.5C42.7001 27.7 40.8 28.4 38.6 28.4C33.6 28.4 29.4 24.7 28.8 19.8C28.5 17.1 29.4001 14.4 31.3001 12.2Z" fill="currentcolor"/>
<path d="M8.80005 41.7L15.3 35.3L25 45.1L33.8 36.3L42.4001 44.8H56.6L53.9001 47.5L54.9001 48.6L59.3 44.1L54.9001 39.7L53.9001 40.7L56.6 43.4H43L33.8 34.2L25 43L16.3 34.2L18.9 31.6H27.3L30.7001 28.2L29.6 27.2L26.7001 30.1H18.3L15.3 33.2L10 28L9.00005 29L14.2 34.2L7.80005 40.7L8.80005 41.7Z" fill="currentcolor"/>
</svg>
