<svg viewBox="0 0 64 64" fill="none" xmlns="http://www.w3.org/2000/svg">
<path d="M47.4 45.1C47.8 45.4 48 45.9 48 46.3H49.5C49.5 45.4 49.1 44.6 48.4 44C47.9 43.6 47.2999 43.3 46.5999 43.2V41.2H45.0999V43.2C44.3999 43.3 43.7999 43.6 43.2999 44C42.5999 44.6 42.2 45.4 42.2 46.3C42.2 47.2 42.5999 48 43.2999 48.6C43.9999 49.2 44.8999 49.5 45.7999 49.5C46.3999 49.5 46.9 49.7 47.4 50.1C47.8 50.4 48 50.9 48 51.3C48 51.7 47.8 52.2 47.4 52.5C46.6 53.2 45.0999 53.2 44.2999 52.5C43.8999 52.2 43.7 51.7 43.7 51.3H42.2C42.2 52.2 42.5999 53 43.2999 53.6C43.7999 54 44.3999 54.3 45.0999 54.4V56.3H46.5999V54.4C47.2999 54.3 47.9 54 48.4 53.6C49.1 53 49.5 52.2 49.5 51.3C49.5 50.4 49.1 49.6 48.4 49C47.7 48.4 46.8 48.1 45.9 48.1C45.3 48.1 44.7999 47.9 44.2999 47.5C43.8999 47.2 43.7 46.7 43.7 46.3C43.7 45.9 43.8999 45.4 44.2999 45.1C45.0999 44.4 46.6 44.4 47.4 45.1Z" fill="currentcolor"/>
<path d="M45.7999 36.8H45.7L46.4 32.6H49.0999V25.4H28.4V16.5C28.7 16.5 29.1 16.5 29.6 16.5C32.2 16.5 36.9 16 40 13C44.2999 8.80002 43.4 1.00002 43.4 0.700024L43.2999 0.100024L42.7 2.44156e-05C42.7 2.44156e-05 41.9 -0.0999756 40.7 -0.0999756C38.1 -0.0999756 33.4 0.400024 30.2999 3.40002C26.0999 7.60002 26.8 15.1 26.9 15.7V18C26.1 16.1 24.4 13.3 21.5 12.1C20.6 11.8 19.6 11.6 18.6 11.6C15.2 11.6 12.1 13.4 11.9 13.5L11.4 13.8L11.6 14.3C11.7 14.5 13.4 20.1 17.7 21.9C18.6 22.2 19.6 22.4 20.6 22.4C23.4 22.4 26.1 21.1 27 20.7V25.3H6.19995V32.5H8.89995L14.2 64H41L41.7 60C43 60.5 44.2999 60.7 45.7999 60.7C52.3999 60.7 57.7999 55.3 57.7999 48.7C57.7999 42.2 52.3999 36.8 45.7999 36.8ZM31.4 4.50002C34.1 1.80002 38.4 1.40002 40.7 1.40002C41.2 1.40002 41.5999 1.40002 42 1.40002C42.0999 3.20002 42.2 8.80002 39 12C36.2999 14.7 32 15.1 29.7 15.1C29.4 15.1 29.1 15.1 28.9 15.1C29.8 13.5 31.9999 10 36.0999 7.80002L35.4 6.50002C31.9 8.40002 29.7 11.1 28.4 13C28.4 10.6 29 6.90002 31.4 4.50002ZM18.2 20.6C15.3 19.4 13.7 15.9 13.2 14.6C14.2 14.1 16.3 13.2 18.6 13.2C19.5 13.2 20.3 13.3 21 13.6C23 14.4 24.3 16.3 25.2 17.8C23.7 16.9 21.6 16 19 15.8L18.9 17.3C22 17.6 24.4 19 25.6 19.9C24.5 20.4 22.6 21.1 20.6 21.1C19.7 21.1 18.9 20.9 18.2 20.6ZM7.69995 31.2V26.9H47.7V31.2H46.7999H8.59995H7.69995ZM39.7999 62.6H15.5L10.4 32.7H45L44.2999 37C38.5 37.8 33.9 42.8 33.9 48.8C33.9 53.4 36.5 57.4 40.4 59.4L39.7999 62.6ZM45.7999 59.3C40 59.3 35.2999 54.6 35.2999 48.8C35.2999 43 40 38.3 45.7999 38.3C51.5999 38.3 56.2999 43 56.2999 48.8C56.2999 54.6 51.5999 59.3 45.7999 59.3Z" fill="currentcolor"/>
<path d="M26.3999 58.9H24.8999V60.4H26.3999V58.9Z" fill="currentcolor"/>
<path d="M22.8999 58.9H21.3999V60.4H22.8999V58.9Z" fill="currentcolor"/>
<path d="M19.5 58.9H18V60.4H19.5V58.9Z" fill="currentcolor"/>
</svg>
