<svg viewBox="0 0 64 64" fill="none" xmlns="http://www.w3.org/2000/svg">
<path d="M37.5999 14.2H36.0999V26.3H37.5999V14.2Z" fill="currentcolor"/>
<path d="M37.5999 44.5H36.0999V56.6H37.5999V44.5Z" fill="currentcolor"/>
<path d="M27.6999 34.6H15.5999V36.1H27.6999V34.6Z" fill="currentcolor"/>
<path d="M57.9999 34.6H45.8999V36.1H57.9999V34.6Z" fill="currentcolor"/>
<path d="M34.4 53.6L34.5999 52.2C26.9999 51.2 21 45.2 20 37.6L18.5 37.8C18.9 40.6 19.7999 43.1 21.2999 45.4H14.6L0.199951 59.7L1.19995 60.7L15.2 46.7H22.4C25.2999 50.5 29.5 53 34.4 53.6Z" fill="currentcolor"/>
<path d="M39.0999 52.2L39.2999 53.6C47.4999 52.6 53.9999 46 55.0999 37.7L53.5999 37.5C52.6999 45.2 46.6999 51.2 39.0999 52.2Z" fill="currentcolor"/>
<path d="M48.0999 33.8L49.5 33.6C48.7 27.9 44.2 23.3 38.4 22.6L38.2 24C43.4 24.7 47.4999 28.8 48.0999 33.8Z" fill="currentcolor"/>
<path d="M35.0999 48.1L35.2999 46.7C30.1999 46 26.0999 42 25.4999 36.9L24.0999 37C24.7999 42.8 29.3999 47.4 35.0999 48.1Z" fill="currentcolor"/>
<path d="M49.6 37L48.1 36.8C47.4 41.9 43.4 46 38.3 46.6L38.5 48C44.3 47.4 48.9 42.8 49.6 37Z" fill="currentcolor"/>
<path d="M18.5 18.1L23.2999 22.9C20.7999 25.6 19.1 29.1 18.6 32.9L20 33.1C20.5 29.6 22 26.4 24.2999 23.9L27.2 26.8C25.5 28.7 24.4 31 24 33.6L25.4 33.8C25.7 31.5 26.7 29.5 28.1 27.8L32.7 32.4C32.1 33.2 31.7 34.3 31.7 35.4C31.7 38.2 33.9 40.4 36.7 40.4C39.5 40.4 41.7 38.2 41.7 35.4C41.7 32.6 39.5 30.4 36.7 30.4C35.6 30.4 34.6 30.8 33.7 31.4L29.1 26.8C30.8 25.3 32.7999 24.4 35.0999 24.1L34.9 22.7C32.3 23 29.9 24.2 28 25.9L25.1 23C27.6 20.7 30.7999 19.1 34.2999 18.7L34.0999 17.3C30.1999 17.8 26.7999 19.5 24 22L19.5 17L20.5 12.1L11.6 3.19998L10.5 8.99998L4.69995 10.2L13.6 19.1L18.5 18.1ZM33.9 33.5L36.2999 35.9L37.2999 34.9L34.9 32.5C35.5 32.1 36.0999 31.9 36.7999 31.9C38.7 31.9 40.2999 33.5 40.2999 35.4C40.2999 37.3 38.7 38.9 36.7999 38.9C34.9 38.9 33.2999 37.3 33.2999 35.4C33.2999 34.7 33.5 34 33.9 33.5ZM11.7 10.2L12.5 6.09998L18.9 12.5L18.1 16.6L14 17.4L7.59995 11L11.7 10.2Z" fill="currentcolor"/>
<path d="M56.6999 8.89998V10.4H61.2999L49.5999 22.1C46.7999 19.5 43.2999 17.7 39.2999 17.1L39.0999 18.5C46.6999 19.5 52.6999 25.5 53.6999 33L55.0999 32.8C54.5999 29.1 52.9999 25.7 50.5999 23L62.3999 11.2V16H63.8999V8.89998H56.6999Z" fill="currentcolor"/>
</svg>
