<svg viewBox="0 0 64 64" fill="none" xmlns="http://www.w3.org/2000/svg">
<path d="M49.2999 54.4C50.3999 54.4 51.4999 53.9 52.0999 52.9C52.5999 52.1 52.7999 51.2 52.5999 50.3C52.3999 49.4 51.8999 48.6 51.1999 48.1L39.9999 40.5H37.8999C34.1999 40.5 33.7999 37.6 33.7999 37.4L33.6999 36.8H26.0999L25.9999 37.5C25.6999 39.3 25.0999 40.5 24.1999 41.1C23.6999 41.4 23.1999 41.5 22.7999 41.5V36.4L28.5999 33.2H29.4999H44.2999C44.3999 33.4 44.3999 33.6 44.5999 33.8L52.8999 45.8C53.1999 46.3 53.6999 46.6 54.2999 46.7C54.3999 46.7 54.5999 46.7 54.6999 46.7C55.2999 46.7 55.9999 46.5 56.5999 46C58.8999 44.2 61.3999 42.4 63.7999 40.8L62.9999 39.6C60.5999 41.3 58.0999 43 55.7999 44.9C55.3999 45.2 54.9999 45.3 54.6999 45.3C54.4999 45.3 54.3999 45.2 54.2999 45L45.9999 33C45.8999 32.9 45.8999 32.7 45.8999 32.5C45.9999 32.2 46.2999 31.8 46.5999 31.6C48.2999 30.5 51.4999 28.5 53.2999 27.3L52.2999 26C51.4999 26.5 50.4999 27.2 49.3999 27.9C47.0999 20.3 39.9999 15 31.9999 15C23.9999 15 16.8999 20.2 14.5999 27.8C13.4999 27.1 12.4999 26.4 11.6999 25.9L10.8999 27.1C12.5999 28.2 15.7999 30.3 17.5999 31.4C17.9999 31.6 18.2999 32 18.2999 32.3C18.2999 32.5 18.2999 32.7 18.1999 32.8L9.8999 44.8C9.7999 44.9 9.6999 45 9.4999 45.1C9.1999 45.2 8.6999 45 8.3999 44.7C5.9999 43 3.5999 41.2 1.1999 39.6L0.399902 40.8C2.7999 42.4 5.1999 44.2 7.5999 46C8.1999 46.4 8.7999 46.7 9.4999 46.7C9.5999 46.7 9.7999 46.7 9.8999 46.7C10.4999 46.6 10.9999 46.3 11.2999 45.8L11.8999 44.9C12.3999 45.4 13.1999 46.1 13.4999 46.8C13.5999 47.1 13.6999 47.2 13.7999 47.4C13.7999 47.5 13.8999 47.6 13.8999 47.7C13.5999 47.9 13.2999 48.1 13.0999 48.4C12.5999 49.1 12.3999 49.9 12.4999 50.8C12.5999 51.7 13.0999 52.4 13.7999 52.9L13.8999 53C14.4999 53.4 15.0999 53.6 15.7999 53.6C15.9999 53.6 16.1999 53.6 16.3999 53.5C16.3999 54.5 16.7999 55.5 17.6999 56.2C18.2999 56.6 18.9999 56.8 19.6999 56.8C19.9999 56.8 20.2999 56.8 20.4999 56.7C20.4999 57.7 20.9999 58.6 21.7999 59.2C22.3999 59.6 23.0999 59.8 23.7999 59.8C24.0999 59.8 24.4999 59.7 24.7999 59.6C24.7999 59.7 24.7999 59.7 24.7999 59.8C24.8999 60.6 25.2999 61.3 25.9999 61.8C26.4999 62.2 27.0999 62.4 27.7999 62.4C28.6999 62.4 29.4999 62 30.0999 61.3C30.6999 61.7 31.2999 61.8 31.8999 61.8C32.0999 61.8 32.2999 61.8 32.4999 61.7C33.3999 61.5 34.1999 61 34.6999 60.3C35.0999 59.7 35.2999 59 35.2999 58.3L36.1999 58.9C36.7999 59.3 37.4999 59.5 38.0999 59.5C39.1999 59.5 40.2999 59 40.8999 58C41.2999 57.4 41.4999 56.7 41.4999 56L41.6999 56.1C42.2999 56.5 42.8999 56.7 43.5999 56.7C43.7999 56.7 43.9999 56.7 44.1999 56.6C45.0999 56.4 45.8999 55.9 46.3999 55.2C46.7999 54.6 46.9999 53.9 46.9999 53.2L47.3999 53.5C47.9999 54.2 48.5999 54.4 49.2999 54.4ZM15.8999 28.7C17.8999 21.5 24.4999 16.5 31.9999 16.5C39.4999 16.5 46.0999 21.5 48.0999 28.7C47.1999 29.3 46.2999 29.8 45.6999 30.2C45.0999 30.6 44.6999 31.1 44.3999 31.6H29.3999H28.0999H19.5999C19.3999 31 18.8999 30.5 18.2999 30.2C17.6999 29.8 16.7999 29.3 15.8999 28.7ZM14.6999 51.8L14.5999 51.7C14.1999 51.4 13.9999 51 13.8999 50.5C13.7999 50 13.8999 49.6 14.1999 49.2C14.4999 48.7 15.0999 48.5 15.5999 48.5C15.9999 48.5 16.2999 48.6 16.5999 48.8L16.6999 48.9C17.0999 49.2 17.2999 49.6 17.3999 50.1C17.3999 50.4 17.3999 50.8 17.2999 51.1L16.8999 51.6V51.7C16.2999 52.2 15.2999 52.3 14.6999 51.8ZM18.4999 55.1C17.6999 54.5 17.4999 53.4 18.0999 52.6C18.1999 52.5 18.2999 52.4 18.2999 52.3C18.3999 52.2 18.4999 52 18.5999 51.9L19.2999 51C19.5999 50.5 20.1999 50.3 20.7999 50.3C21.1999 50.3 21.5999 50.4 21.8999 50.7C22.2999 51 22.5999 51.4 22.5999 51.9C22.6999 52.4 22.5999 52.9 22.2999 53.3L21.1999 54.8C20.4999 55.5 19.2999 55.6 18.4999 55.1ZM22.5999 58.1C21.7999 57.5 21.5999 56.3 22.1999 55.5L24.2999 52.6C24.5999 52.1 25.1999 51.9 25.7999 51.9C26.1999 51.9 26.5999 52 26.8999 52.3C27.6999 52.9 27.8999 54.1 27.2999 54.9L25.1999 57.8C24.5999 58.5 23.3999 58.7 22.5999 58.1ZM29.0999 60L28.7999 60.4C28.2999 61 27.2999 61.2 26.6999 60.7C26.3999 60.5 26.1999 60.1 26.0999 59.7C25.9999 59.3 26.0999 58.9 26.3999 58.6L26.6999 58.2C26.9999 57.8 27.3999 57.6 27.8999 57.6C28.1999 57.6 28.4999 57.7 28.7999 57.9C29.0999 58.1 29.2999 58.5 29.3999 58.9C29.4999 59.3 29.3999 59.7 29.0999 60ZM45.0999 54.7C44.7999 55.1 44.3999 55.4 43.7999 55.5C43.2999 55.6 42.7999 55.5 42.2999 55.2L34.5999 49.9V50L33.7999 51.2L39.0999 54.7C39.9999 55.3 40.1999 56.5 39.5999 57.4C38.9999 58.3 37.7999 58.5 36.8999 57.9L31.8999 54.4L30.9999 55.6L32.7999 56.9V57C33.1999 57.3 33.4999 57.7 33.5999 58.3C33.6999 58.8 33.5999 59.3 33.2999 59.8C32.9999 60.2 32.5999 60.5 31.9999 60.6C31.4999 60.7 30.9999 60.6 30.5999 60.3C30.7999 59.8 30.7999 59.3 30.7999 58.8C30.6999 58 30.2999 57.3 29.5999 56.8C29.0999 56.5 28.5999 56.3 28.0999 56.3L28.3999 55.8C29.4999 54.3 29.1999 52.3 27.6999 51.2C27.0999 50.8 26.3999 50.6 25.6999 50.6C24.9999 50.6 24.2999 50.9 23.6999 51.3C23.4999 50.6 23.0999 50 22.4999 49.6C21.8999 49.2 21.1999 49 20.4999 49C19.7999 49 19.0999 49.2 18.5999 49.7C18.3999 49.1 17.9999 48.5 17.4999 48.1L17.3999 48C16.7999 47.6 16.1999 47.4 15.4999 47.4C15.3999 47.4 15.1999 47.4 15.0999 47.5C14.9999 47.4 14.9999 47.3 14.8999 47.1C14.7999 46.9 14.6999 46.7 14.5999 46.4C14.0999 45.4 13.0999 44.5 12.4999 44L19.2999 34.1C19.3999 33.9 19.4999 33.7 19.5999 33.5H25.3999L21.0999 35.9V43L21.5999 43.2C21.6999 43.2 23.1999 43.7 24.6999 42.8C25.8999 42.1 26.6999 40.8 27.0999 38.8H32.2999C32.7999 40.3 34.2999 42.5 37.7999 42.5H39.4999L50.2999 49.8C50.6999 50.1 50.9999 50.5 51.0999 51.1C51.1999 51.6 51.0999 52.1 50.7999 52.6C50.1999 53.5 48.9999 53.7 48.0999 53.1L45.2999 51.2L37.5999 45.9L36.7999 47.1L44.4999 52.4C44.8999 52.7 45.1999 53.1 45.2999 53.7C45.4999 53.7 45.3999 54.2 45.0999 54.7Z" fill="currentcolor"/>
<path d="M54.6538 43.2923L55.9331 42.5092L55.15 41.2298L53.8706 42.013L54.6538 43.2923Z" fill="currentcolor"/>
<path d="M9.2312 43.302L10.0874 42.0703L8.85575 41.2141L7.99955 42.4458L9.2312 43.302Z" fill="currentcolor"/>
<path d="M63.9001 25.4L60.2001 16.5L53.5001 17.9C51.8001 15.6 49.8001 13.5 47.5001 11.8L48.9001 5.19997L40.0001 1.49997L36.3001 7.19997C33.5001 6.69997 30.6001 6.69997 27.7001 7.19997L24.0001 1.49997L15.1001 5.19997L16.5001 11.9C14.2001 13.6 12.1001 15.6 10.4001 17.9L3.8001 16.5L0.100098 25.4L5.8001 29.1C5.3001 32 5.3001 34.9 5.8001 37.8L7.2001 37.6C6.5001 34.1 7.3001 28.4 7.3001 28.4L2.0001 24.8L4.8001 18.2L11.2001 19.6C12.9001 16.9 15.3001 14.6 18.3001 12.6L16.9001 6.19997L23.6001 3.49997L27.0001 8.79997C29.9001 8.09997 33.3001 8.19997 37.0001 8.79997L40.6001 3.29997L47.2001 6.09997L45.8001 12.5C48.8001 14.5 51.1001 16.9 52.8001 19.6L59.2001 18.2L61.9001 24.8L56.4001 28.4L56.5001 28.9C57.0001 31.7 57.1001 34.6 56.6001 37.5L58.0001 37.7C58.5001 34.8 58.5001 31.9 58.0001 29.1L63.9001 25.4Z" fill="currentcolor"/>
</svg>
