<svg viewBox="0 0 64 64" fill="none" xmlns="http://www.w3.org/2000/svg">
<path d="M44.4999 28.1C44.6999 27.6 44.7999 27.2001 44.7999 26.6C44.7999 25.7 44.3999 24.8 43.7999 24.1C42.8999 23.2 41.5999 22.9 40.3999 23.2C40.3999 22.3 39.9999 21.4 39.3999 20.7C38.1999 19.5 36.1999 19.4 34.8999 20.3C34.6999 20 34.4999 19.7 34.2999 19.4C32.9999 18.1 30.6999 18.1 29.2999 19.4C28.9999 19.7 28.7999 20 28.5999 20.4C27.2999 19.6 25.3999 19.8 24.2999 20.9C23.6999 21.5 23.2999 22.4 23.2999 23.3C22.0999 23 20.7999 23.3 19.8999 24.2C19.1999 24.9 18.8999 25.7001 18.8999 26.7001C18.8999 27.2001 18.9999 27.7001 19.1999 28.2001C18.7999 28.4001 18.3999 28.6 17.9999 29C17.2999 29.7 16.8999 30.6 16.8999 31.6C16.8999 32.6 17.2999 33.5001 17.9999 34.2001C18.1999 34.4001 18.3999 34.6 18.6999 34.7001C17.8999 35.4001 17.3999 36.5 17.5999 37.7001C17.7999 39.5 19.3999 40.9 21.1999 41C21.5999 41.1 23.4999 41.9001 23.5999 44.7001L25.0999 44.6C24.9999 41.2 22.6999 39.8 21.4999 39.5H21.2999C20.0999 39.5 19.0999 38.6 18.9999 37.6C18.8999 36.5 19.5999 35.5 20.7999 35.3C21.3999 35.3 22.0999 35.1 22.5999 34.7001L21.7999 33.5C20.9999 34 19.7999 33.9001 19.0999 33.2001C18.6999 32.8001 18.4999 32.2001 18.4999 31.7001C18.4999 31.1 18.6999 30.6 19.0999 30.2001C19.4999 29.8001 19.9999 29.6 20.4999 29.6L21.2999 29.5L21.0999 28.5L20.8999 28.3C20.4999 27.9 20.2999 27.4 20.2999 26.9C20.2999 26.4 20.4999 25.8 20.8999 25.5C21.6999 24.7 22.9999 24.7 23.7999 25.5C23.8999 25.7 24.0999 26.0001 24.2999 26.2L25.2999 25.2C24.8999 24.8 24.6999 24.3 24.6999 23.8C24.6999 23.3 24.8999 22.7 25.2999 22.4C26.0999 21.6 27.3999 21.6 28.1999 22.4C28.5999 22.8 28.7999 23.3 28.7999 23.8H30.2999C30.2999 23.2 30.0999 22.5 29.7999 22C29.8999 21.6 30.0999 21.2 30.3999 20.9C31.1999 20.1 32.4999 20.1 33.2999 20.9C33.5999 21.2 33.7999 21.6 33.8999 22.1C33.6999 22.6 33.4999 23.1 33.4999 23.6H34.9999C34.9999 23.1 35.1999 22.5001 35.5999 22.2C36.3999 21.4 37.6999 21.4 38.4999 22.2C38.8999 22.6 39.0999 23.1 39.0999 23.6C39.0999 24.1 38.8999 24.7 38.4999 25L39.4999 26C39.6999 25.8 39.7999 25.6 39.9999 25.4C40.7999 24.6 42.0999 24.6 42.8999 25.4C43.2999 25.8 43.4999 26.3 43.4999 26.8C43.4999 27.3 43.2999 27.9001 42.8999 28.2001L42.6999 28.5L42.7999 29.5H43.4999C44.0999 29.5 44.6999 29.7001 45.1999 30.2001C45.6999 30.6 45.8999 31.2 45.8999 31.9C45.8999 32.5 45.6999 33.1 45.1999 33.6C44.7999 34 44.3999 34.3 43.2999 34.3C42.5999 34.3 41.9999 34.7 41.5999 35.3C41.1999 36 40.6999 36.5 40.2999 36.7001C38.0999 37.9001 36.9999 41.9001 36.8999 42.4001L38.2999 42.8C38.5999 41.7 39.5999 38.8 40.9999 38C41.7999 37.5 42.4999 36.7 42.8999 36.1C42.9999 35.9 43.1999 35.8 43.3999 35.8C44.8999 35.8 45.5999 35.3001 46.1999 34.7001C46.8999 34.0001 47.2999 33 47.2999 32C47.2999 31 46.8999 30 46.1999 29.3C45.5999 28.6 45.0999 28.3 44.4999 28.1Z" fill="currentcolor"/>
<path d="M27.8001 28.9L27.5001 27.5C24.7001 28.1 24.1001 30.3 24.1001 31.3L25.6001 31.2C25.6001 31.2 25.5001 29.4 27.8001 28.9Z" fill="currentcolor"/>
<path d="M33.7998 32.9L35.2998 32.8C35.2998 32.6 35.3998 31.7 36.6998 31.4L36.3998 30C34.2998 30.5 33.7998 32.1 33.7998 32.9Z" fill="currentcolor"/>
<path d="M37.1 27.6L38.5 27.4C38.2 25.1 36 24.4 35.9 24.4L35.5 25.8C35.5 25.8 36.9 26.2 37.1 27.6Z" fill="currentcolor"/>
<path d="M32.9999 36C32.1999 36.6 31.8999 37.5 31.8999 38.8V44H33.3999V38.8C33.3999 38 33.5999 37.5 33.9999 37.2C34.5999 36.7 35.5999 36.8 35.9999 36.9L36.1999 36.2L35.9999 36.9L36.2999 35.5C36.1999 35.4 34.2999 35 32.9999 36Z" fill="currentcolor"/>
<path d="M26 33.3L26.3 34.7C26.6 34.6 27.7 34.5 28.3 35C28.7 35.3 28.9 35.9 28.9 36.6V41.8H30.4V36.6C30.4 35.4 30 34.4 29.3 33.8C28 32.9 26.1 33.3 26 33.3Z" fill="currentcolor"/>
<path d="M53.2999 41.6H63.1999V40.1H53.2999V35.7H63.1999V34.2H53.2999V29.8H63.1999V28.3H53.2999V23.9H63.1999V22.4H53.2999V15.8L48.1999 10.7H41.5999V0.900024H40.0999V10.8H35.6999V0.900024H34.1999V10.8H29.7999V0.900024H28.2999V10.8H23.8999V0.900024H22.3999V10.8H15.7999L10.6999 15.8V22.4H0.899902V23.9H10.7999V28.3H0.899902V29.8H10.7999V34.2H0.899902V35.7H10.7999V40.1H0.899902V41.6H10.7999V48.2L15.8999 53.3H22.4999V63.2H23.9999V53.3H28.3999V63.2H29.8999V53.3H34.2999V63.2H35.7999V53.3H40.1999V63.2H41.6999V53.3H48.2999L53.3999 48.2V41.6H53.2999ZM51.7999 47.6L47.5999 51.8H16.3999L12.1999 47.6V16.4L16.3999 12.2H47.5999L51.7999 16.4V47.6Z" fill="currentcolor"/>
</svg>
