<svg viewBox="0 0 64 64" fill="none" xmlns="http://www.w3.org/2000/svg">
<path d="M36 26.7C35.4 26.2 35 25.4 35 24.7H33.5C33.5 25.9 34 27 35 27.8C35.7 28.4 36.7 28.8 37.7 29V32.1H39.2V29C40.2 28.9 41.2 28.5 41.9 27.8C42.9 27 43.4 25.9 43.4 24.7C43.4 23.5 42.9 22.4 41.9 21.6C41 20.8 39.8 20.4 38.5 20.4C37.6 20.4 36.7 20.1 36 19.5C35.4 19 35 18.3 35 17.5C35 16.8 35.3 16 36 15.5C37.3 14.4 39.6 14.4 40.9 15.5C41.5 16 41.9 16.8 41.9 17.5H43.4C43.4 16.3 42.9 15.2 41.9 14.4C41.2 13.8 40.2 13.4 39.2 13.2V10.1H37.7V13.2C36.7 13.3 35.7 13.7 35 14.4C34 15.2 33.5 16.3 33.5 17.5C33.5 18.7 34 19.8 35 20.6C35.9 21.4 37.1 21.8 38.4 21.8C39.3 21.8 40.2 22.1 40.9 22.7C41.5 23.2 41.9 23.9 41.9 24.7C41.9 25.4 41.6 26.2 40.9 26.7C39.6 27.8 37.3 27.8 36 26.7Z" fill="currentcolor"/>
<path d="M44.0002 0.699963C43.5002 0.599963 43.0002 0.499963 42.5002 0.399963L42.2002 1.79996C42.7002 1.89996 43.1002 1.99996 43.6002 2.09996L44.0002 0.699963Z" fill="currentcolor"/>
<path d="M47.9001 2.19998C47.4001 1.99998 47.0001 1.79998 46.5001 1.59998L45.9001 2.99998C46.3001 3.19998 46.8001 3.39998 47.2001 3.59998L47.9001 2.19998Z" fill="currentcolor"/>
<path d="M36 1.59998L35.8 0.0999756C35.3 0.199976 34.8 0.199976 34.3 0.299976L34.6 1.69998C35.1 1.69998 35.5 1.69998 36 1.59998Z" fill="currentcolor"/>
<path d="M51.4001 4.39997C51.0001 4.09997 50.6001 3.79997 50.2001 3.49997L49.4001 4.69997C49.8001 4.99997 50.2001 5.19997 50.5001 5.49997L51.4001 4.39997Z" fill="currentcolor"/>
<path d="M54.4001 7.19998C54.1001 6.79998 53.7001 6.49998 53.4001 6.09998L52.4001 7.09998C52.7001 7.39998 53.1001 7.79998 53.4001 8.09998L54.4001 7.19998Z" fill="currentcolor"/>
<path d="M52.3001 37C52.7001 36.7 53.0001 36.3 53.4001 36L52.4001 35C52.1001 35.3 51.7001 35.7 51.4001 36L52.3001 37Z" fill="currentcolor"/>
<path d="M28.8002 3.99996L28.0002 2.79996C27.6002 3.09996 27.1002 3.29996 26.7002 3.59996L27.5002 4.79996C27.9002 4.49996 28.3002 4.29996 28.8002 3.99996Z" fill="currentcolor"/>
<path d="M32.3001 2.49998L31.8001 1.09998C31.3001 1.29998 30.8001 1.39998 30.4001 1.59998L30.9001 2.99998C31.4001 2.79998 31.8001 2.59998 32.3001 2.49998Z" fill="currentcolor"/>
<path d="M56.1001 29.8L57.4001 30.5C57.6001 30 57.8001 29.6 58.0001 29.1L56.6001 28.5C56.5001 28.9 56.3001 29.4 56.1001 29.8Z" fill="currentcolor"/>
<path d="M49 39.4C49.4 39.1 49.9 38.9 50.3 38.6L49.5 37.4C49.1 37.7 48.7 37.9 48.3 38.1L49 39.4Z" fill="currentcolor"/>
<path d="M59.2 25.1L57.8 24.8C57.7 25.3 57.6 25.7 57.5 26.2L58.9 26.6C59 26.1 59.1 25.6 59.2 25.1Z" fill="currentcolor"/>
<path d="M59.6001 21H59.2001L58.1001 21.1C58.1001 21.6 58.1001 22 58.1001 22.4L59.6001 22.5C59.5001 22 59.6001 21.6 59.6001 21Z" fill="currentcolor"/>
<path d="M57.1001 14.8L58.5001 14.3C58.3001 13.8 58.2001 13.3 58.0001 12.9L56.6001 13.5C56.8001 13.9 56.9001 14.4 57.1001 14.8Z" fill="currentcolor"/>
<path d="M57.9001 18.6L59.4001 18.4C59.3001 17.9 59.3001 17.4 59.2001 16.9L57.8 17.2C57.8 17.6 57.9001 18.1 57.9001 18.6Z" fill="currentcolor"/>
<path d="M56.8 10.6C56.5 10.2 56.3 9.69996 56 9.29996L54.8 10.1C55.1 10.5 55.3 10.9 55.5 11.3L56.8 10.6Z" fill="currentcolor"/>
<path d="M54 33.1L55.2 34C55.5 33.6 55.8 33.2 56.1 32.8L54.9 32C54.6 32.3 54.3 32.7 54 33.1Z" fill="currentcolor"/>
<path d="M39.8001 1.49997L39.9001 -3.05176e-05C39.4001 -3.05176e-05 38.9001 -3.05176e-05 38.5001 -3.05176e-05H38.4001V1.49997C38.9001 1.49997 39.4001 1.49997 39.8001 1.49997Z" fill="currentcolor"/>
<path d="M17.6001 23.7C17.7001 24.2 17.7001 24.7 17.8001 25.2L19.2001 24.9C19.1001 24.4 19.0001 24 19.0001 23.5L17.6001 23.7Z" fill="currentcolor"/>
<path d="M22.2002 32C21.9002 31.6 21.7002 31.2 21.5002 30.8L20.2002 31.5C20.5002 31.9 20.7002 32.4 21.0002 32.8L22.2002 32Z" fill="currentcolor"/>
<path d="M20.4 28.6C20.2 28.2 20.1 27.7 19.9 27.3L18.5 27.8C18.7 28.3 18.8 28.7 19 29.2L20.4 28.6Z" fill="currentcolor"/>
<path d="M23.6 36L24.6 35C24.3 34.7 23.9 34.3 23.6 34L22.5 35C22.9 35.3 23.2 35.6 23.6 36Z" fill="currentcolor"/>
<path d="M25.6 6.29998L24.6 5.19998C24.2 5.49998 23.9 5.89998 23.5 6.19998L24.5 7.19998C24.9 6.89998 25.3 6.59998 25.6 6.29998Z" fill="currentcolor"/>
<path d="M18.9 19.7L17.4 19.6C17.4 20.1 17.3 20.6 17.3 21.1H18.8C18.9 20.6 18.9 20.1 18.9 19.7Z" fill="currentcolor"/>
<path d="M19.6001 15.9L18.2001 15.5C18.1001 16 18.0001 16.5 17.9001 17L19.3001 17.3C19.3001 16.8 19.4001 16.3 19.6001 15.9Z" fill="currentcolor"/>
<path d="M23.0001 9.09998L21.8001 8.19998C21.5001 8.59998 21.2001 8.99998 20.9001 9.39998L22.1001 10.2C22.4001 9.79998 22.7001 9.39998 23.0001 9.09998Z" fill="currentcolor"/>
<path d="M20.9 12.3L19.6 11.6C19.4 12 19.2 12.5 19 13L20.4 13.6C20.5 13.2 20.7 12.7 20.9 12.3Z" fill="currentcolor"/>
<path d="M41.2 42C41.7 41.9 42.2 41.9 42.7 41.8L42.4 40.4C41.9 40.5 41.5 40.6 41 40.6L41.2 42Z" fill="currentcolor"/>
<path d="M37.1 40.6L37 42.1C37.5 42.1 38 42.2 38.5 42.2H38.6L38.5 40.7C38 40.7 37.5 40.7 37.1 40.6Z" fill="currentcolor"/>
<path d="M25.5 37.7C25.9 38 26.3 38.3 26.7 38.6L27.5 37.4C27.1 37.1 26.7 36.9 26.4 36.6L25.5 37.7Z" fill="currentcolor"/>
<path d="M34.4001 41.8L34.7001 40.4C34.2001 40.3 33.8001 40.2 33.3001 40.1L32.9001 41.5C33.4001 41.5 33.9001 41.7 34.4001 41.8Z" fill="currentcolor"/>
<path d="M45.2002 41.0999C45.7002 40.8999 46.2002 40.7999 46.6002 40.5999L46.0002 39.2C45.6002 39.4 45.1002 39.5 44.7002 39.7L45.2002 41.0999Z" fill="currentcolor"/>
<path d="M30.4 40.6L31 39.2C30.6 39 30.1 38.8 29.7 38.6L29 39.9C29.5 40.1 29.9 40.4 30.4 40.6Z" fill="currentcolor"/>
<path d="M38.5001 37.9C47.8001 37.9 55.4001 30.3 55.4001 21C55.4001 11.7 47.8001 4.09998 38.5001 4.09998C29.2001 4.09998 21.6001 11.7 21.6001 21C21.6001 30.4 29.2001 37.9 38.5001 37.9ZM38.5001 5.69998C47.0001 5.69998 53.9001 12.6 53.9001 21.1C53.9001 29.6 47.0001 36.5 38.5001 36.5C30.0001 36.5 23.1001 29.6 23.1001 21.1C23.1001 12.6 30.0001 5.69998 38.5001 5.69998Z" fill="currentcolor"/>
<path d="M60.7001 48C60.4001 47.2 59.7001 46.5 58.9001 46.2C58.1001 45.9 57.1001 45.9 56.3001 46.2L44.2001 51.6C44.2001 51.4 44.2001 51.3 44.2001 51.1C44.2001 49.4 42.8001 48 41.1001 47.9C41.1001 47.9 41.1001 47.9 41.0001 47.9H32.6001L26.2001 44.9C24.9001 44.3 23.4001 43.9 21.9001 43.9H17.0001V41.6H3.1001V43.1H15.4001V60.5H5.6001V62H16.9001V59.7H20.6001L32.4001 63.6C33.2001 63.9 34.0001 64 34.8001 64C36.0001 64 37.3001 63.7 38.4001 63.1L58.9001 52.4C59.7001 52.1 60.4001 51.4 60.7001 50.6C61.0001 49.7 61.0001 48.8 60.7001 48ZM59.3001 50C59.1001 50.5 58.7001 50.9 58.2001 51.1L37.7001 61.8C36.2001 62.6 34.4001 62.7 32.8001 62.2L20.9001 58.2H16.9001V45.4H21.8001C23.1001 45.4 24.3001 45.7 25.5001 46.2L32.2001 49.3H41.0001C41.9001 49.3 42.7001 50.1 42.7001 51C42.7001 51.9 41.9001 52.7 41.0001 52.7H30.6001H30.5001C29.5001 52.9 27.7001 53.7 27.7001 55.6H29.2001C29.2001 54.6 30.4001 54.2 30.7001 54.2H41.0001C41.5001 54.2 42.0001 54 42.4001 53.8L56.7001 47.5C57.2001 47.3 57.7001 47.3 58.2001 47.5C58.7001 47.7 59.0001 48.1 59.2001 48.5C59.5001 49 59.5001 49.5 59.3001 50Z" fill="currentcolor"/>
<path d="M10 56.6H8.5V58.1H10V56.6Z" fill="currentcolor"/>
<path d="M13.2002 56.6H11.7002V58.1H13.2002V56.6Z" fill="currentcolor"/>
</svg>
