<svg viewBox="0 0 64 64" fill="none" xmlns="http://www.w3.org/2000/svg">
<path d="M44.5001 12C44.2001 11.8 44.1001 11.5 44.1001 11.1H42.6001C42.6001 11.9 42.9001 12.6 43.5001 13.1C43.9001 13.4 44.4001 13.7 44.9001 13.8V15.2H46.4001V13.8C46.9001 13.7 47.4001 13.5 47.8001 13.1C48.4001 12.6 48.7001 11.9 48.7001 11.1C48.7001 10.3 48.4001 9.59998 47.8001 9.09998C47.2001 8.59998 46.5001 8.29998 45.7001 8.29998C45.3001 8.29998 44.8001 8.19998 44.5001 7.89998C44.2001 7.69998 44.1001 7.39998 44.1001 6.99998C44.1001 6.69998 44.3001 6.39998 44.5001 6.09998C45.1001 5.59998 46.2001 5.59998 46.8001 6.09998C47.1001 6.29998 47.2001 6.59998 47.2001 6.99998H48.7001C48.7001 6.19998 48.4001 5.49998 47.8001 4.99998C47.4001 4.69998 46.9001 4.49998 46.4001 4.29998V3.09998H44.9001V4.59998C44.4001 4.69998 43.9001 4.89998 43.5001 5.29998C42.9001 5.79998 42.6001 6.49998 42.6001 7.29998C42.6001 8.09998 42.9001 8.79998 43.5001 9.29998C44.1001 9.79998 44.8001 10.1 45.6001 10.1C46.0001 10.1 46.5001 10.2 46.8001 10.5C47.1001 10.7 47.2001 11 47.2001 11.4C47.2001 11.7 47.0001 12 46.8001 12.3C46.2001 12.6 45.1001 12.6 44.5001 12Z" fill="currentcolor"/>
<path d="M45.7 18.4C50.8 18.4 54.9 14.3 54.9 9.19997C54.9 4.09997 50.8 -3.05176e-05 45.7 -3.05176e-05C40.6 -3.05176e-05 36.5 4.09997 36.5 9.19997C36.5 14.2 40.6 18.4 45.7 18.4ZM45.7 1.49997C49.9 1.49997 53.4 4.99997 53.4 9.19997C53.4 13.4 49.9 16.9 45.7 16.9C41.5 16.9 38 13.4 38 9.19997C38 4.89997 41.4 1.49997 45.7 1.49997Z" fill="currentcolor"/>
<path d="M23.1 28.4C22.7 28 22.4 27.5 22.4 27H21C21 28 21.4 28.9 22.2 29.5C22.8 30 23.5 30.3 24.2 30.4V32.7H25.7V30.4C26.5 30.3 27.2 30 27.7 29.5C28.5 28.8 28.9 27.9 28.9 27C28.9 26 28.5 25.1 27.7 24.5C27 23.9 26 23.5 24.9 23.5C24.2 23.5 23.6 23.3 23.1 22.9C22.7 22.5 22.4 22 22.4 21.5C22.4 21 22.6 20.5 23.1 20.1C24.1 19.3 25.8 19.3 26.7 20.1C27.1 20.5 27.4 21 27.4 21.5H28.9C28.9 20.5 28.5 19.6 27.7 19C27.1 18.5 26.4 18.2 25.7 18.1V15.8H24.2V18.1C23.4 18.2 22.7 18.5 22.2 19C21.4 19.7 21 20.6 21 21.5C21 22.5 21.4 23.4 22.2 24C22.9 24.6 23.9 25 25 25C25.7 25 26.3 25.2 26.8 25.6C27.2 26 27.5 26.5 27.5 27C27.5 27.5 27.3 28 26.8 28.4C25.8 29.2 24.1 29.2 23.1 28.4Z" fill="currentcolor"/>
<path d="M24.9 37.6C32.3 37.6 38.3 31.6 38.3 24.2C38.3 16.8 32.3 10.8 24.9 10.8C17.5 10.8 11.5 16.8 11.5 24.2C11.5 31.6 17.6 37.6 24.9 37.6ZM24.9 12.3C31.5 12.3 36.8 17.6 36.8 24.2C36.8 30.8 31.5 36.1 24.9 36.1C18.3 36.1 13 30.7 13 24.2C13 17.6 18.4 12.3 24.9 12.3Z" fill="currentcolor"/>
<path d="M53.5 60.2H52V61.9H53.5V60.2Z" fill="currentcolor"/>
<path d="M50.6001 60.2H49.1001V61.9H50.6001V60.2Z" fill="currentcolor"/>
<path d="M62.1002 25.6C61.4002 25 60.4002 24.8 59.3002 24.9C57.7002 25.2 56.7002 26.7 56.7002 28.8V39.6H58.2002V28.9C58.2002 27.6 58.7002 26.6 59.5002 26.4C60.0002 26.3 60.6002 26.3 61.1002 26.7C61.6002 27.1 61.8002 27.8 61.8002 28.8V45.1C61.8002 46.1 61.4002 47.1 60.7002 47.9L54.1002 54.5C53.5002 55.1 53.1002 56 53.1002 56.9V57.4H41.8002V52.9C41.8002 51.7 42.3002 50.6 43.1002 49.7L51.8002 41.2C52.2002 40.8 52.7002 40.6 53.2002 40.7C53.7002 40.7 54.2002 40.9 54.6002 41.3C55.0002 41.7 55.2002 42.2 55.1002 42.7C55.1002 43.2 54.9002 43.7 54.5002 44.1L50.3002 48.1L51.3002 49.2L55.5002 45.2C56.2002 44.6 56.5002 43.7 56.5002 42.8C56.5002 41.9 56.2002 41 55.5002 40.4C54.9002 39.7 54.0002 39.4 53.1002 39.4C52.2002 39.4 51.3002 39.7 50.7002 40.4L42.0002 48.9C40.9002 50 40.2002 51.6 40.2002 53.1V57.6H38.2002V64H39.7002V58.9H55.0002V64H56.5002V57.4H54.4002V57C54.4002 56.5 54.6002 56 55.0002 55.6L61.6002 49C62.6002 48 63.2002 46.6 63.2002 45.2V28.9C63.3002 27.1 62.6002 26.1 62.1002 25.6Z" fill="currentcolor"/>
<path d="M12 60.2H10.5V61.9H12V60.2Z" fill="currentcolor"/>
<path d="M15 60.2H13.5V61.9H15V60.2Z" fill="currentcolor"/>
<path d="M24.2001 64H25.7001V57.4H23.7001V52.9C23.7001 51.3 23.0001 49.8 21.9001 48.7L13.2001 40.2C11.9001 38.9 9.7001 38.9 8.4001 40.3C7.8001 41 7.4001 41.8 7.4001 42.7C7.4001 43.6 7.8001 44.5 8.4001 45.1L12.6001 49.1L13.6001 48L9.4001 44C9.0001 43.6 8.8001 43.2 8.8001 42.6C8.8001 42.1 9.0001 41.6 9.3001 41.2C10.0001 40.4 11.3001 40.4 12.0001 41.2L20.7001 49.7C21.6001 50.5 22.0001 51.7 22.0001 52.9V57.4H10.9001V57C10.9001 56.1 10.5001 55.2 9.9001 54.6L3.3001 48C2.6001 47.3 2.2001 46.3 2.2001 45.2V28.9C2.2001 27.9 2.5001 27.2 2.9001 26.8C3.4001 26.4 4.0001 26.4 4.5001 26.5C5.3001 26.6 5.8001 27.6 5.8001 29V39.8H7.3001V28.9C7.3001 26.8 6.3001 25.2 4.7001 25C3.6001 24.8 2.6001 25 1.9001 25.7C1.3001 26.2 0.600098 27.1 0.600098 29V45.3C0.600098 46.7 1.2001 48.1 2.2001 49.1L8.8001 55.7C9.2001 56 9.4001 56.4 9.4001 57V57.5H7.4001V64H8.9001V58.9H24.2001V64Z" fill="currentcolor"/>
</svg>
