<svg viewBox="0 0 64 64" fill="none" xmlns="http://www.w3.org/2000/svg">
<path d="M37.9 31.7L36.9 30.7L35.9 31.7C35.4 31.4 34.8 31.2 34.2 31.2C32.7 31.2 31.4 32.3 31 33.8H24C23.7 32.3 22.4 31.2 20.8 31.2C19 31.2 17.5 32.7 17.5 34.5C17.5 35.1 17.7 35.7 18 36.2L10 44.2C9.5 43.9 8.9 43.7 8.3 43.7C6.4 43.7 5 45.2 5 47C5 48.8 6.5 50.3 8.3 50.3C10.1 50.3 11.6 48.8 11.6 47C11.6 46.4 11.4 45.8 11.1 45.3L19.2 37.2C19.7 37.5 20.3 37.7 20.9 37.7C22.4 37.7 23.7 36.7 24 35.2H31C31.4 36.6 32.6 37.7 34.1 37.7C35.9 37.7 37.4 36.2 37.4 34.4C37.4 33.8 37.2 33.2 36.9 32.7L37.9 31.7ZM8.2 48.8C7.2 48.8 6.4 48 6.4 47C6.4 46 7.2 45.2 8.2 45.2C9.2 45.2 10 46 10 47C10 48 9.2 48.8 8.2 48.8ZM20.8 36.2C19.8 36.2 19.2 35.6 19 34.4C19 33.4 19.8 32.6 20.8 32.6C21.8 32.6 22.6 33.4 22.6 34.4C22.5 35.4 21.7 36.2 20.8 36.2ZM34.2 36.2C33.2 36.2 32.4 35.4 32.4 34.4C32.4 33.4 33.2 32.6 34.2 32.6C35.3 32.7 35.9 33.3 36 34.4C35.9 35.4 35.2 36.2 34.2 36.2Z" fill="currentcolor"/>
<path d="M58.4 56.6V54.1H56.9V56.6H50.1V54.1H48.7V56.6H41.9V54.1H40.4V56.6H33.7V54.1H32.2V56.6H25.4V54.1H24V56.6H17.2V54.1H15.7V56.6H9V54.1H7.5V56.6H1.5V51.8H4V50.3H1.5V44H4V42.6H1.5V36.3H4V34.8H1.5V28.5H4V27H1.5V20.7H4V19.2H1.5V12.9H4V11.4H1.5V5.89999H0V58.1H64V56.6H58.4Z" fill="currentcolor"/>
<path d="M43.2 33.6C45.4 34.2 47.7 34.1 49.8 33.4L56.8 47C57.3 48.1 58.4 48.8 59.6 48.8C60.1 48.8 60.6 48.7 61.1 48.4C61.8 48 62.4 47.3 62.6 46.4C62.8 45.6 62.6 44.7 62.2 44L53.9 31.2C55.9 29.5 57.2 27.2 57.8 24.7C59.1 18.9 55.8 13 50.2 11C48.9 10.5 47.6 10.3 46.2 10.3C40.2 10.3 35.3 14.6 34.5 20.5C33.6 26.4 37.5 32.1 43.2 33.6ZM35.9 20.8C36.6 15.6 41 11.8 46.2 11.8C47.4 11.8 48.5 12 49.7 12.4C54.6 14.1 57.5 19.3 56.4 24.3C55.9 26.7 54.5 28.9 52.5 30.4L51.9 30.8L60.9 44.8C61.1 45.2 61.2 45.6 61.1 46.1C61 46.5 60.7 46.9 60.3 47.1C60.1 47.2 59.8 47.3 59.5 47.3C58.9 47.3 58.3 46.9 58 46.4L50.4 31.6L50 31.8C48 32.6 45.8 32.8 43.6 32.2C38.6 30.9 35.2 25.9 35.9 20.8Z" fill="currentcolor"/>
<path d="M44.2001 17.1C45.2001 16.1 47.0001 16.1 48.1001 17.1C48.6001 17.6 48.9001 18.3 48.9001 19C48.9001 19.7 48.6001 20.4 48.0001 21C47.9001 21.1 46.5001 22.4 45.8001 24.7C45.6001 25.4 45.5001 26.2 45.5001 27H47.0001C47.0001 26.4 47.1001 25.7 47.3001 25.1C47.9001 23.2 49.1001 22.1 49.1001 22C50.0001 21 50.5001 20 50.5001 18.9C50.5001 17.8 50.1001 16.7 49.3001 15.9C48.5001 15.1 47.4001 14.7 46.3001 14.7C45.2001 14.7 44.1001 15.1 43.3001 15.9C42.5001 16.7 42.1001 17.8 42.1001 18.9H43.6001C43.4001 18.3 43.7001 17.6 44.2001 17.1Z" fill="currentcolor"/>
<path d="M46.8999 28.5H45.3999V30H46.8999V28.5Z" fill="currentcolor"/>
</svg>
