<svg viewBox="0 0 64 64" fill="none" xmlns="http://www.w3.org/2000/svg">
<path d="M38.3999 18.3H36.8999V19.8H38.3999V18.3Z" fill="currentcolor"/>
<path d="M38.3999 21.4H36.8999V22.9H38.3999V21.4Z" fill="currentcolor"/>
<path d="M50.3998 43.8V43.3C50.3998 41.6 48.9998 40.1 47.1998 40.1H43.7998C45.1998 38.9 46.0998 37.2 46.0998 35.2V34.5H42.2998V16.6C44.9998 14.9 46.6998 12 46.6998 8.8C46.6998 5.3 44.5998 2 41.4998 0.5L40.4998 0V5.3L37.6998 7.6L34.9998 5.4V0L33.9998 0.5C30.6998 2 28.4998 5.2 28.4998 8.9C28.4998 12.1 30.1998 15.1 32.8998 16.7V34.6H27.7998C26.7998 34.6 25.7998 35.1 25.1998 36L22.1998 40.2H16.1998V41.7H22.9998L26.3998 36.8C26.6998 36.3 27.2998 36.1 27.7998 36.1H32.8998H42.2998H44.5998C44.1998 38.4 42.1998 40.2 39.7998 40.2H36.6998H30.5998V41.7H33.9998C33.6998 42.2 33.4998 42.8 33.4998 43.4V43.9C33.4998 45 33.9998 45.9 34.7998 46.5C34.0998 47 33.5998 48 33.5998 49V49.5C33.5998 50.5 34.0998 51.5 34.7998 52.1C33.9998 52.7 33.5998 53.6 33.5998 54.7V55.2C33.5998 56.2 34.0998 57.2 34.7998 57.8C33.9998 58.4 33.5998 59.3 33.5998 60.4V60.9C33.5998 61.6 33.7998 62.2 34.1998 62.7H27.4998C26.9998 62.7 26.4998 62.6 26.0998 62.4L24.0998 61.4C23.2998 61 22.4998 60.8 21.5998 60.8H13.7998V62.3H21.5998C22.1998 62.3 22.8998 62.4 23.4998 62.7L25.4998 63.7C26.0998 64 26.7998 64.2 27.4998 64.2H36.9998H39.7998H43.9998C45.7998 64.2 47.2998 62.7 47.2998 60.9V60.4C47.2998 59.7 47.0998 59.1 46.6998 58.6H47.0998C48.8998 58.6 50.3998 57.1 50.3998 55.3V54.8C50.3998 53.8 49.8998 52.8 49.1998 52.2C49.9998 51.6 50.3998 50.7 50.3998 49.6V49C50.3998 47.9 49.8998 47 49.0998 46.4C49.8998 45.8 50.3998 44.9 50.3998 43.8ZM41.2998 15.6L40.8998 15.8V34.6H34.3998V15.8L33.9998 15.6C31.4998 14.3 29.9998 11.7 29.9998 8.8C29.9998 6.1 31.3998 3.7 33.5998 2.3V6L37.7998 9.6L41.9998 6.1V2.5C44.0998 3.9 45.3998 6.3 45.3998 8.8C45.2998 11.6 43.7998 14.2 41.2998 15.6ZM45.7998 60.7C45.7998 61.7 44.9998 62.5 43.9998 62.5H36.8998C35.8998 62.5 35.0998 61.7 35.0998 60.7V60.2C35.0998 59.2 35.8998 58.4 36.8998 58.4H43.9998C44.9998 58.4 45.7998 59.2 45.7998 60.2V60.7ZM48.8998 55.1C48.8998 56.1 48.0998 56.9 47.0998 56.9H43.9998H36.8998C35.8998 56.9 35.0998 56.1 35.0998 55.1V54.6C35.0998 53.6 35.8998 52.8 36.8998 52.8H47.0998C48.0998 52.8 48.8998 53.6 48.8998 54.6V55.1ZM48.8998 49.5C48.8998 50.5 48.0998 51.3 47.0998 51.3H36.8998C35.8998 51.3 35.0998 50.5 35.0998 49.5V49C35.0998 48 35.8998 47.2 36.8998 47.2H47.0998C48.0998 47.2 48.8998 48 48.8998 49V49.5ZM48.8998 43.8C48.8998 44.9 47.9998 45.8 46.8998 45.8H36.9998C35.8998 45.8 34.9998 44.9 34.9998 43.8V43.3C34.9998 42.4 35.7998 41.6 36.6998 41.6H47.1998C48.0998 41.6 48.8998 42.4 48.8998 43.3V43.8Z" fill="currentcolor"/>
<path d="M19.3999 56.9H17.8999V58.4H19.3999V56.9Z" fill="currentcolor"/>
<path d="M22.7998 56.9H21.2998V58.4H22.7998V56.9Z" fill="currentcolor"/>
</svg>
