<svg viewBox="0 0 64 64" fill="none" xmlns="http://www.w3.org/2000/svg">
<path d="M58.0002 7.90003C53.1002 2.60003 45.9002 -0.0999717 38.7002 0.800028C27.6002 2.10003 18.9002 12 18.9002 23.3C18.9002 27.9 20.3002 32.2 22.9002 35.9L2.00018 53.9C0.900182 54.8 0.200182 56.2 0.100182 57.7C0.000181675 59.2 0.600182 60.6 1.60018 61.7C2.60018 62.7 4.00018 63.3 5.40018 63.3C6.90018 63.3 8.40018 62.7 9.40018 61.5L28.2002 41.2C32.4002 44.3 37.3002 45.8 42.6002 45.6C53.9002 45.1 63.2002 36.2 64.1002 25C64.4002 18.7 62.4002 12.6 58.0002 7.90003ZM62.5002 24.9C61.6002 35.5 53.0002 43.8 42.4002 44.2C37.3002 44.4 32.4002 42.9 28.5002 39.7L28.0002 39.3L8.20018 60.6C7.50018 61.4 6.40018 61.9 5.30018 61.9C4.20018 61.9 3.30018 61.5 2.50018 60.7C1.70018 59.9 1.40018 58.9 1.40018 57.8C1.50018 56.7 2.00018 55.7 2.80018 55L24.8002 36.1L24.4002 35.6C21.8002 32 20.3002 27.8 20.3002 23.3C20.3002 12.7 28.4002 3.50003 38.8002 2.20003C39.6002 2.10003 40.5002 2.10003 41.4002 2.10003C47.3002 2.10003 53.0002 4.60003 57.0002 8.90003C61.0002 13.3 62.9002 19 62.5002 24.9Z" fill="currentcolor"/>
<path d="M41.5 4.70007C31.3 4.70007 23 13.0001 23 23.2001C23 33.4001 31.3 41.7001 41.5 41.7001C51.7 41.7001 60 33.4001 60 23.2001C60 13.0001 51.6 4.70007 41.5 4.70007ZM52.8 35.8001C49.8 38.5001 45.8 40.2001 41.5 40.2001C37.1 40.2001 33.2 38.5001 30.2 35.8001V31.7001C30.2 30.5001 30.8 29.4001 31.9 28.7001L37.8 25.0001C40.4 26.7001 42.9 26.6001 45.4 25.0001L51.3 28.7001C52.3 29.3001 53 30.5001 53 31.7001V35.8001H52.8ZM36.5 19.9001C36.7 16.8001 38.9 15.0001 41.4 15.0001C44.1 15.0001 46.3 17.2001 46.3 19.9001C46.3 21.3001 45.7 22.7001 44.6 23.6001C42.4 25.2001 40.2 25.2001 38 23.6001C37.1 22.7001 36.5 21.3001 36.5 19.9001ZM54.3 34.3001V31.7001C54.3 30.0001 53.4 28.4001 52 27.5001L46.4 24.0001C47.4 22.9001 47.9 21.4001 47.9 19.9001C47.9 16.4001 45 13.5001 41.5 13.5001C40.5 13.5001 39.4 13.8001 38.5 14.2001C37.5 14.7001 36.6 15.5001 36 16.5001C35.4 17.5001 35.1 18.7001 35.1 19.9001C35.1 21.4001 35.6 22.9001 36.6 24.0001L31 27.5001C29.5 28.4001 28.7 30.0001 28.7 31.7001V34.3001C26.1 31.3001 24.5 27.4001 24.5 23.1001C24.5 13.7001 32.1 6.10007 41.5 6.10007C50.9 6.10007 58.5 13.7001 58.5 23.1001C58.5 27.4001 56.9 31.3001 54.3 34.3001Z" fill="currentcolor"/>
<path d="M8.74314 53.7556L9.75684 54.8611L10.8623 53.8474L9.84864 52.7419L8.74314 53.7556Z" fill="currentcolor"/>
<path d="M11.6434 51.07L12.6572 52.1755L13.7627 51.1617L12.7489 50.0562L11.6434 51.07Z" fill="currentcolor"/>
<path d="M5.8486 56.4357L6.8623 57.5414L7.96795 56.5277L6.95425 55.422L5.8486 56.4357Z" fill="currentcolor"/>
</svg>
