<svg viewBox="0 0 64 64" fill="none" xmlns="http://www.w3.org/2000/svg">
<path d="M46.1 15.9C42.2 12.5 37.2001 10.6 32 10.6C25.8 10.6 20 13.3 15.9 17.9C12.1 22.2 10.3001 27.7 10.6001 33.4C11.0001 39.1 13.5 44.3 17.8 48.1C21.7 51.5 26.7001 53.4 31.9 53.4C38.1 53.4 43.9001 50.7 48 46.1C55.9001 37.2 55 23.7 46.1 15.9ZM47 45.2C43.2001 49.5 37.7001 52 32 52C27.2001 52 22.5 50.2 18.8 47C14.8 43.5 12.4001 38.6 12.0001 33.3C11.7001 28 13.5001 22.8 17.0001 18.8C20.8 14.5 26.3 12 32 12C36.8 12 41.5 13.8 45.2001 17C53.4001 24.3 54.3 36.9 47 45.2Z" fill="currentcolor"/>
<path d="M61 35.3C59.1 35.3 57.6 33.8 57.5 31.9C57.5 30 59 28.5 60.9 28.4H63.9C63.3 22.3 60.7 16.8 56.9 11.7L54.8 13.8C53.5 15.1 51.3 15.1 49.9 13.8C48.6 12.5 48.5 10.3 49.9 8.89997L52 6.79997C47 2.99997 41.5 0.59997 35.3 -3.05176e-05V2.99997C35.3 4.89997 33.8 6.39997 31.9 6.49997C30 6.49997 28.5 4.99997 28.4 3.09997V0.0999695C21.8 1.19997 16.1 3.29997 11.7 7.09997L13.8 9.19997C14.5 9.79997 14.8 10.7 14.8 11.6C14.8 12.5 14.5 13.4 13.8 14C12.5 15.3 10.3 15.3 8.9 14L6.8 11.9C3.1 16.7 0.7 22.3 0 28.7H3C4.9 28.7 6.4 30.2 6.5 32.1C6.5 34 5 35.5 3.1 35.6H0.1C0.9 41.9 3.2 47.5 7.1 52.3L9.2 50.2C10.5 48.9 12.8 48.9 14.1 50.2C15.4 51.5 15.5 53.7 14.1 55.1L12 57.2C16.8 61.1 22.5 63.3 28.8 64.1V61.1C28.8 59.2 30.3 57.7 32.2 57.6C34.1 57.6 35.6 59.1 35.7 61V64C42.1 63.4 47.4 60.6 52.4 57L50.3 54.9C49.6 54.3 49.3 53.4 49.3 52.5C49.3 51.6 49.7 50.7 50.3 50.1C51.6 48.8 53.9 48.8 55.2 50.1L57.3 52.2C61.2 47.3 63.4 41.7 64.2 35.4L61 35.3ZM57 49.8L56 48.9C55.1 48 53.9 47.5 52.6 47.5C51.3 47.5 50.1 48 49.1 49C48.2 49.9 47.7 51.2 47.7 52.5C47.7 53.8 48.2 55 49.2 56L50.1 56.9C46.3 59.7 41.8 61.6 37.1 62.4V61.1C37.1 58.4 34.9 56.2 32.2 56.2C29.5 56.2 27.3 58.4 27.3 61.1V62.4C22.6 61.7 18.1 59.8 14.2 57L15.1 56.1C17 54.2 17 51.1 15.1 49.2C14.2 48.3 13 47.8 11.7 47.8C10.4 47.8 9.2 48.3 8.2 49.3L7.3 50.2C4.5 46.4 2.6 41.9 1.8 37.2L3 37C5.7 37 7.9 34.8 7.9 32.1C7.9 29.4 5.7 27.2 3 27.2H1.7C2.4 22.5 4.3 18 7 14.2L8 15.1C8.9 16 10.1 16.5 11.4 16.5C12.7 16.5 13.9 16 14.9 15C15.8 14.1 16.3 12.8 16.3 11.5C16.3 10.2 15.8 8.99997 14.8 7.99997L13.9 7.09997C17.7 4.29997 22.2 2.39997 26.9 1.59997L27 2.99997C27 5.69997 29.2 7.89997 31.9 7.89997C34.6 7.89997 36.8 5.69997 36.8 2.99997V1.69997C41.5 2.39997 46 4.29997 49.8 6.99997L48.9 7.99997C47 9.89997 47 13 48.9 14.9C49.8 15.8 51 16.3 52.3 16.3C53.6 16.3 54.8 15.8 55.8 14.8L56.7 13.9C59.5 17.7 61.4 22.2 62.2 26.9L61 27C58.3 27 56.1 29.2 56.1 31.9C56.1 34.6 58.3 36.8 61 36.8H62.3C61.6 41.5 59.7 46 57 49.8Z" fill="currentcolor"/>
<path d="M38.2002 27.3L43.7002 32L38.2002 36.7L39.1002 37.8L46.0002 32L39.1002 26.2L38.2002 27.3Z" fill="currentcolor"/>
<path d="M24.9 26.2L18 32L24.9 37.8L25.8 36.7L20.3 32L25.8 27.3L24.9 26.2Z" fill="currentcolor"/>
<path d="M28.288 40.783L29.7139 41.2487L35.6134 23.1873L34.1875 22.7216L28.288 40.783Z" fill="currentcolor"/>
</svg>
