<svg viewBox="0 0 64 64" fill="none" xmlns="http://www.w3.org/2000/svg">
<path d="M38.1001 21H36.6001V22.4H38.1001V21Z" fill="currentcolor"/>
<path d="M38.1001 23.6H36.6001V25H38.1001V23.6Z" fill="currentcolor"/>
<path d="M38.1001 18.5H36.6001V19.9H38.1001V18.5Z" fill="currentcolor"/>
<path d="M30.8001 16.1H29.4001V37.4H26.1001L33.6001 44.9L41.0001 37.4H38.0001V26.1H36.6001V37.4H34.0001V38.9H37.5001L33.6001 42.8L29.6001 38.9H30.8001V16.1Z" fill="currentcolor"/>
<path d="M23.5 21H22V22.4H23.5V21Z" fill="currentcolor"/>
<path d="M23.5 23.6H22V25H23.5V23.6Z" fill="currentcolor"/>
<path d="M23.5 18.5H22V19.9H23.5V18.5Z" fill="currentcolor"/>
<path d="M19.4 44.7V46.2H22.9L19 50.1L15.1 46.2H16.3V16.1H14.8V44.7H11.5L19 52.1L26.5 44.7H23.5V28.7H22V44.7H19.4Z" fill="currentcolor"/>
<path d="M52.6001 21H51.1001V22.4H52.6001V21Z" fill="currentcolor"/>
<path d="M52.6001 18.5H51.1001V19.9H52.6001V18.5Z" fill="currentcolor"/>
<path d="M45.4 16.1H43.9V30.2H40.7L48.0999 37.6L55.5999 30.2H52.5999V23.6H51.0999V30.2H48.5V31.7H52L48.0999 35.6L44.2 31.7H45.4V16.1Z" fill="currentcolor"/>
<path d="M23.5 26.1H22V27.5H23.5V26.1Z" fill="currentcolor"/>
<path d="M32 61.9C49.9 61.9 64 55.6 64 47.4C64 43.1 59.8 39 52.5 36.3L52 37.7C58.7 40.2 62.5 43.8 62.5 47.5C62.5 54.5 48.5 60.5 32 60.5C15.4 60.5 1.5 54.6 1.5 47.5C1.5 43.8 5.3 40.2 12 37.7L11.5 36.3C4.2 39 0 43.1 0 47.4C0 55.5 14.1 61.9 32 61.9Z" fill="currentcolor"/>
<path d="M54.1 54.4L53.5 53.1C53.1 53.3 52.7 53.5 52.3 53.7L52.5 54.4L52.9001 55C53.2001 54.8 53.7 54.6 54.1 54.4Z" fill="currentcolor"/>
<path d="M49.3 56.2C49.8 56 50.3001 55.9 50.7001 55.7L50.2001 54.3C49.8001 54.5 49.3 54.6 48.8 54.8L49.3 56.2Z" fill="currentcolor"/>
<path d="M56.3001 51.3C55.9001 51.6 55.5001 51.8 55.1001 52.1L55.9001 53.4C56.4001 53.1 56.8001 52.8 57.2001 52.6L56.3001 51.3Z" fill="currentcolor"/>
<path d="M45.9 57.1C46.4 57 46.9 56.9 47.3 56.7L46.9 55.3C46.4 55.4 46 55.5 45.5 55.6L45.9 57.1Z" fill="currentcolor"/>
<path d="M43.5 2.09999H42V3.59999H43.5V2.09999Z" fill="currentcolor"/>
<path d="M21.8999 2.09999H20.3999V3.59999H21.8999V2.09999Z" fill="currentcolor"/>
<path d="M36.3 2.09999H34.8V3.59999H36.3V2.09999Z" fill="currentcolor"/>
<path d="M32.7 2.09999H31.2V3.59999H32.7V2.09999Z" fill="currentcolor"/>
<path d="M39.8999 2.09999H38.3999V3.59999H39.8999V2.09999Z" fill="currentcolor"/>
<path d="M29.1001 2.09999H27.6001V3.59999H29.1001V2.09999Z" fill="currentcolor"/>
<path d="M25.5 2.09999H24V3.59999H25.5V2.09999Z" fill="currentcolor"/>
<path d="M46.4001 3.59999H60.2001V2.09999H46.4001H46.1001H45.6001V3.59999H46.1001H46.4001Z" fill="currentcolor"/>
<path d="M17.9 3.59999H18.4V2.09999H17.9H17.6H3.80005V3.59999H17.6H17.9Z" fill="currentcolor"/>
<path d="M47.8 7.39999H46.3V8.89999H47.8V7.39999Z" fill="currentcolor"/>
<path d="M51.3 7.39999H49.8V8.89999H51.3V7.39999Z" fill="currentcolor"/>
<path d="M44.3999 7.39999H42.8999V8.89999H44.3999V7.39999Z" fill="currentcolor"/>
<path d="M20.5 7.39999H19V8.89999H20.5V7.39999Z" fill="currentcolor"/>
<path d="M23.8999 7.39999H22.3999V8.89999H23.8999V7.39999Z" fill="currentcolor"/>
<path d="M13.6001 7.39999H12.1001V8.89999H13.6001V7.39999Z" fill="currentcolor"/>
<path d="M17.1001 7.39999H15.6001V8.89999H17.1001V7.39999Z" fill="currentcolor"/>
<path d="M27.3 7.39999H25.8V8.89999H27.3V7.39999Z" fill="currentcolor"/>
<path d="M37.6001 7.39999H36.1001V8.89999H37.6001V7.39999Z" fill="currentcolor"/>
<path d="M30.7 7.39999H29.2V8.89999H30.7V7.39999Z" fill="currentcolor"/>
<path d="M41 7.39999H39.5V8.89999H41V7.39999Z" fill="currentcolor"/>
<path d="M34.2 7.39999H32.7V8.89999H34.2V7.39999Z" fill="currentcolor"/>
</svg>
