<svg viewBox="0 0 64 64" fill="none" xmlns="http://www.w3.org/2000/svg">
<path d="M53.4004 60.2H51.9004V61.9H53.4004V60.2Z" fill="currentcolor"/>
<path d="M50.5 60.2H49V61.9H50.5V60.2Z" fill="currentcolor"/>
<path d="M62.0001 25.7001C61.3001 25.1001 60.3001 24.8001 59.2001 25.0001C57.6001 25.3001 56.6001 26.8001 56.6001 28.9001V39.7001H58.1001V29.0001C58.1001 27.7001 58.6001 26.7001 59.4001 26.5001C59.9001 26.4001 60.5001 26.4001 61.0001 26.8001C61.5001 27.2001 61.7001 27.9001 61.7001 28.9001V45.2001C61.7001 46.2001 61.3001 47.2001 60.6001 48.0001L54.0001 54.6001C53.4001 55.2001 53.0001 56.1001 53.0001 57.0001V57.5001H41.8001V53.0001C41.8001 51.8001 42.3001 50.7001 43.1001 49.8001L51.8001 41.3001C52.6001 40.6001 53.8001 40.6001 54.5001 41.3001C54.9001 41.7001 55.0001 42.1001 55.0001 42.7001C55.0001 43.2001 54.8001 43.7001 54.4001 44.0001L50.2001 48.0001L51.2001 49.1001L55.4001 45.1001C56.1001 44.5001 56.4001 43.6001 56.4001 42.7001C56.4001 41.8001 56.1001 40.9001 55.4001 40.3001C54.1001 39.0001 51.9001 38.9001 50.6001 40.2001L41.9001 48.7001C40.8001 49.8001 40.1001 51.4001 40.1001 52.9001V57.4001H38.1001V64.0001H39.6001V58.9001H54.9001V64.0001H56.4001V57.4001H54.4001V57.0001C54.4001 56.5001 54.6001 56.0001 55.0001 55.6001L61.6001 49.0001C62.6001 48.0001 63.2001 46.6001 63.2001 45.2001V29.0001C63.3001 27.1001 62.6001 26.2001 62.0001 25.7001Z" fill="currentcolor"/>
<path d="M12.1001 60.2H10.6001V61.9H12.1001V60.2Z" fill="currentcolor"/>
<path d="M15 60.2H13.5V61.9H15V60.2Z" fill="currentcolor"/>
<path d="M8.9002 55.6C9.2002 56 9.4002 56.5 9.4002 57V57.5H7.4002V64H8.9002V58.9H24.2002V64H25.7002V57.4H23.7002V52.9C23.7002 51.3 23.0002 49.8 21.9002 48.7L13.2002 40.2C11.9002 38.9 9.7002 38.9 8.4002 40.3C7.8002 41 7.4002 41.8 7.4002 42.7C7.4002 43.6 7.8002 44.5 8.4002 45.1L12.6002 49.1L13.6002 48L9.4002 44C9.0002 43.6 8.8002 43.2 8.8002 42.7C8.8002 42.2 9.0002 41.7 9.3002 41.3C10.0002 40.5 11.2002 40.5 12.0002 41.3L20.7002 49.8C21.6002 50.6 22.0002 51.8 22.0002 53V57.5H10.9002V57C10.9002 56.1 10.5002 55.2 9.9002 54.6L3.4002 48C2.7002 47.3 2.3002 46.3 2.3002 45.2V29C2.3002 28 2.6002 27.3 3.0002 26.9C3.5002 26.5 4.1002 26.5 4.6002 26.6C5.4002 26.7 5.9002 27.7 5.9002 29.1V39.9H7.4002V29C7.4002 26.9 6.4002 25.3 4.8002 25.1C3.7002 24.9 2.7002 25.2 2.0002 25.8C1.4002 26.3 0.700195 27.2 0.700195 29.1V45.4C0.700195 46.8 1.3002 48.2 2.3002 49.2L8.9002 55.6Z" fill="currentcolor"/>
<path d="M32.0003 45.1999C34.1003 45.1999 35.9003 43.6999 36.2003 41.6999C37.0003 41.3999 37.7003 40.6999 37.9003 39.6999C38.0003 39.1999 38.0003 38.5999 38.1003 38.0999H40.6003V36.5999H38.4003C39.2003 32.3999 40.7003 28.3999 42.7003 24.8999C42.8003 24.6999 42.9003 24.5999 43.0003 24.3999C44.2003 22.2999 44.8003 19.8999 44.6003 17.4999C44.3003 11.0999 39.2003 5.89995 32.8003 5.49995C25.5003 4.99995 19.3003 10.8999 19.3003 18.0999C19.3003 19.4999 19.5003 20.8999 20.0003 22.3999L21.1003 24.5999C21.3003 24.8999 21.4003 25.0999 21.6003 25.3999L21.7003 25.4999C23.6003 28.7999 24.9003 32.5999 25.7003 36.4999H23.4003V37.9999H25.9003C26.0003 38.5999 26.1003 39.1999 26.1003 39.7999V39.9999C26.4003 40.7999 27.0003 41.2999 27.7003 41.5999C28.1003 43.6999 29.9003 45.1999 32.0003 45.1999ZM32.0003 43.6999C30.8003 43.6999 29.7003 42.8999 29.4003 41.8999H34.7003C34.3003 42.9999 33.3003 43.6999 32.0003 43.6999ZM27.1003 36.2999C26.3003 32.0999 24.9003 28.1999 22.9003 24.6999L22.8003 24.5999C22.7003 24.3999 22.5003 24.0999 22.4003 23.8999L21.4003 21.7999C21.0003 20.5999 20.8003 19.3999 20.8003 18.0999C20.8003 11.6999 26.2003 6.49995 32.8003 6.89995C38.4003 7.29995 42.9003 11.7999 43.2003 17.4999C43.3003 19.5999 42.8003 21.7999 41.8003 23.5999C41.7003 23.7999 41.6003 23.8999 41.5003 24.0999C39.3003 27.7999 37.8003 32.0999 36.9003 36.5999H27.2003C27.2003 36.4999 27.1003 36.3999 27.1003 36.2999ZM27.4003 38.0999H36.6003C36.5003 38.5999 36.5003 38.9999 36.4003 39.3999C36.3003 39.9999 35.8003 40.3999 35.2003 40.3999H28.7003C28.2003 40.3999 27.8003 40.0999 27.6003 39.6999C27.6003 39.1999 27.5003 38.6999 27.4003 38.0999Z" fill="currentcolor"/>
<path d="M23.3003 13.8L24.6003 14.5C26.9003 10.2 31.9003 9.3 35.4003 10.6L35.9003 9.2C31.1003 7.4 25.7003 9.3 23.3003 13.8Z" fill="currentcolor"/>
<path d="M42.1326 29.4307L44.395 31.6937L45.4558 30.6332L43.1934 28.3702L42.1326 29.4307Z" fill="currentcolor"/>
<path d="M50.3001 17.5H47.1001V19H50.3001V17.5Z" fill="currentcolor"/>
<path d="M45.3971 5.85582L44.3364 4.79517L42.0737 7.05789L43.1344 8.11854L45.3971 5.85582Z" fill="currentcolor"/>
<path d="M32.8003 0H31.3003V3.2H32.8003V0Z" fill="currentcolor"/>
<path d="M21.8708 7.04783L19.6084 4.78479L18.5476 5.84529L20.81 8.10833L21.8708 7.04783Z" fill="currentcolor"/>
<path d="M16.9002 17.5H13.7002V19H16.9002V17.5Z" fill="currentcolor"/>
<path d="M21.8595 29.5108L20.7988 28.4502L18.5361 30.7129L19.5968 31.7736L21.8595 29.5108Z" fill="currentcolor"/>
</svg>
