<svg width="64" height="64" viewBox="0 0 64 64" fill="none" xmlns="http://www.w3.org/2000/svg">
<path d="M29 33.9H27.5V35.3H29V33.9Z" fill="currentcolor"/>
<path d="M29 31.4H27.5V32.8H29V31.4Z" fill="currentcolor"/>
<path d="M29 36.5H27.5V37.9H29V36.5Z" fill="currentcolor"/>
<path d="M27.5 30.2H29V18.7H32.6V17.2H28L32 13.3L36 17.2H34.8V40.3H36.2V18.7H39.5L32 11.2L24.5 18.7H27.5V30.2Z" fill="currentcolor"/>
<path d="M43.7002 33.9H42.2002V35.3H43.7002V33.9Z" fill="currentcolor"/>
<path d="M43.7002 31.4H42.2002V32.8H43.7002V31.4Z" fill="currentcolor"/>
<path d="M43.7002 36.5H42.2002V37.9H43.7002V36.5Z" fill="currentcolor"/>
<path d="M42.2002 27.5H43.7002V11.4H47.3002V9.89997H42.8002L46.7002 5.89997L50.7002 9.89997H49.5002V40.3H51.0002V11.4H54.3002L46.7002 3.79997L39.2002 11.4H42.2002V27.5Z" fill="currentcolor"/>
<path d="M14.3 33.9H12.8V35.3H14.3V33.9Z" fill="currentcolor"/>
<path d="M14.3 36.5H12.8V37.9H14.3V36.5Z" fill="currentcolor"/>
<path d="M12.8002 32.7H14.2002V26H17.8002V24.6H13.3002L17.3002 20.6L21.2002 24.6H20.0002V40.3H21.5002V26H24.8002L17.3002 18.5L9.7002 26H12.8002V32.7Z" fill="currentcolor"/>
<path d="M43.7002 28.8H42.2002V30.2H43.7002V28.8Z" fill="currentcolor"/>
<path d="M32.0001 60.2C50.1001 60.2 64.4001 53.8 64.4001 45.6C64.4001 41.2 60.2001 37.1 52.8001 34.3L52.3001 35.7C59.1001 38.2 63.0001 41.8 63.0001 45.6C63.0001 52.7 48.9001 58.7 32.1001 58.7C15.4001 58.7 1.2001 52.7 1.2001 45.6C1.2001 41.9 5.1001 38.3 11.9001 35.7L11.4001 34.3C3.9001 37 -0.399902 41.1 -0.399902 45.5C-0.399902 53.7 13.9001 60.2 32.0001 60.2Z" fill="currentcolor"/>
<path d="M45.7002 53.9L46.0002 55.3C46.5002 55.2 47.0002 55.1 47.5002 54.9L47.1002 53.5C46.7002 53.7 46.2002 53.8 45.7002 53.9Z" fill="currentcolor"/>
<path d="M49.4001 52.9L49.9001 54.3C50.4001 54.1 50.9001 54 51.3001 53.8L50.8001 52.4C50.4001 52.6 49.9001 52.7 49.4001 52.9Z" fill="currentcolor"/>
<path d="M57.2001 49C56.9001 49.2 56.7001 49.4 56.4001 49.6L57.2001 50.8C57.5001 50.6 57.8001 50.3 58.1001 50.1L57.2001 49Z" fill="currentcolor"/>
<path d="M54.4001 50.9C54.0001 51.1 53.6001 51.3 53.1001 51.5L53.7001 52.8C54.2001 52.6 54.6001 52.4 55.1001 52.1L54.4001 50.9Z" fill="currentcolor"/>
<path d="M6.2002 48.5L5.2002 49.6C6.6002 50.9 8.6002 52.1 11.0002 53.2C14.4002 54.7 18.6002 55.7 23.1002 56.3L23.3002 54.8C18.9002 54.2 14.8002 53.2 11.6002 51.8C9.3002 50.8 7.4002 49.7 6.2002 48.5Z" fill="currentcolor"/>
</svg>
