<svg viewBox="0 0 64 64" fill="none" xmlns="http://www.w3.org/2000/svg">
<path d="M38.8999 13.5H41.3999V16.2H42.8999V12L43.8999 11.2L44.7999 12V23.3H46.2999V13.5H48.7999L43.8999 9.19997L38.8999 13.5Z" fill="currentcolor"/>
<path d="M53.5001 25.2H55.0001V9.59997H57.5001L52.6001 5.29996L47.6001 9.59997H50.2001V14.2H51.6001V8.09997L52.6001 7.29996L53.6001 8.09997H53.5001V25.2Z" fill="currentcolor"/>
<path d="M51.7 15.5H50.2V17H51.7V15.5Z" fill="currentcolor"/>
<path d="M51.7 18.1H50.2V19.6H51.7V18.1Z" fill="currentcolor"/>
<path d="M42.8999 17.5H41.3999V19H42.8999V17.5Z" fill="currentcolor"/>
<path d="M51.7 20.8H50.2V22.3H51.7V20.8Z" fill="currentcolor"/>
<path d="M42.8999 20.2H41.3999V21.7H42.8999V20.2Z" fill="currentcolor"/>
<path d="M64 29.1V1.59997H16.5V21.8H18V3.09997H62.5V27.6H22.3V29.1H39L29.8 45L31.1 45.7L39.5 31.1V47.9H41V31.1L49.4 45.7L50.7 45L41.5 29.1H64Z" fill="currentcolor"/>
<path d="M35.3 10.6L34.3 9.59997L26.9 16.9L25.5 15.5L18.2 22.8H12L9.4 27.6H8.9L6.3 22.8H5.9C2.7 22.8 0 25.4 0 28.7V43H2.9L2.3 62.4H7.5L9.2 49.6L10.9 62.4H16.1L15.2 31.6C15.2 30.7 15.7 30 16.4 29.6H19.1L29.4 19.3L28 17.9L35.3 10.6ZM18.4 28.1H16.2H16C14.6 28.6 13.6 30 13.7 31.5L14.6 60.8H12.2L10 43.8C9.5 43.9 9 43.9 8.5 43.8L6.3 60.8H3.8L4.6 33.7H3.1L2.9 41.5H1.5V28.5C1.5 26.2 3.3 24.3 5.5 24.1L8 29H10.3L12.9 24.2H18.8L25.5 17.5L27.3 19.3L18.4 28.1Z" fill="currentcolor"/>
<path d="M9 22.4C11.2 22.4 13 20.6 13 18.4C13 16.2 11.2 14.4 9 14.4C6.8 14.4 5 16.2 5 18.4C5 20.6 6.8 22.4 9 22.4ZM9 15.9C10.4 15.9 11.5 17 11.5 18.4C11.5 19.8 10.4 20.9 9 20.9C7.6 20.9 6.5 19.8 6.5 18.4C6.5 17 7.6 15.9 9 15.9Z" fill="currentcolor"/>
</svg>
