<svg viewBox="0 0 64 64" fill="none" xmlns="http://www.w3.org/2000/svg">
<path d="M32 0C14.4 0 0 14.4 0 32C0 49.6 14.4 64 32 64C49.6 64 64 49.6 64 32C64 14.4 49.6 0 32 0ZM32 62.5C15.2 62.5 1.5 48.8 1.5 32C1.5 15.2 15.2 1.5 32 1.5C48.8 1.5 62.5 15.2 62.5 32C62.5 48.8 48.8 62.5 32 62.5Z" fill="currentcolor"/>
<path d="M32 3.19995C16.1 3.19995 3.19995 16.1 3.19995 32C3.19995 39.7 6.19995 46.9 11.7 52.4L12.2 52.9L15.1 50L14.1 49L12.3 50.7999C7.59995 45.8999 4.99995 39.5 4.79995 32.7999H9.29995V31.2999H4.69995C4.89995 24.2999 7.69995 18 12.1 13.2L13.9 15L14.9 14L13.1 12.2C17.8 7.69995 24.2 4.89995 31.2 4.69995V9.19995H32.7V4.69995C39.7 4.89995 46 7.69995 50.7 12.1L48.9 14L49.9 15L51.7 13.2C56.2 17.9 59 24.3 59.2 31.2H54.7V32.7H59.2C59 39.5 56.4 45.8999 51.7 50.7999L49.9 49L48.9 50L51.7 52.9L52.2 52.4C57.6 47 60.5999 39.6999 60.5999 32.0999C60.7999 16.0999 47.8999 3.19995 32 3.19995Z" fill="currentcolor"/>
<path d="M35.7 32.0999C35.7 31.0999 35.4 30.1 34.6 29.4C33.9 28.7 33 28.3 32 28.3C31.8 28.3 31.7 28.3 31.5 28.3L26.8 23.5C25.9 22.6 24.5 22.6 23.6 23.5C22.7 24.4 22.7 25.8 23.6 26.7L28.3 31.5C28.1 32.6 28.5 33.8 29.4 34.7C30.1 35.4 31 35.8 32 35.8L44.3 45.5999L44.8 46L45.7 45.0999L35.7 32.0999ZM28.9 30L24.7 25.7C24.4 25.3 24.4 25 24.7 24.6C25 24.3 25.5 24.3 25.8 24.6L30 28.9C29.6 29.1 29.2 29.5 28.9 30ZM30.4 33.5999C29.5 32.7 29.5 31.3 30.4 30.4C31.4 29.5 32.7 29.5 33.6 30.4C34.5 31.3 34.5 32.7 33.6 33.5999C32.8 34.4 31.3 34.4 30.4 33.5999ZM33.8 35.2C34.4 34.9 34.9 34.4 35.2 33.8L40.5 40.5999L33.8 35.2Z" fill="currentcolor"/>
</svg>
