<svg viewBox="0 0 64 64" fill="none" xmlns="http://www.w3.org/2000/svg">
<path d="M35.1 21.2C35.1 20 34.5 19 33.7 18.4C34.6 17.7 35.1 16.7 35.1 15.5C35.1 13.6 33.6 12.1 31.7 12.1H21.9C23.1 9.99998 23.8 7.69999 23.8 5.29998V3.49998C23.8 1.59998 22.2 -1.52588e-05 20.3 -1.52588e-05C18.4 -1.52588e-05 16.8 1.59998 16.8 3.49998C16.8 6.09998 15.9 8.69998 14.3 10.7L13.3 12H4.9V13.5H14L15.5 11.6C17.3 9.29998 18.3 6.39998 18.3 3.49998C18.3 2.39998 19.2 1.39998 20.4 1.39998C21.5 1.39998 22.5 2.29998 22.5 3.49998V5.19998C22.5 7.29998 21.9 9.39998 20.8 11.2L19.4 13.5H27.9H31.8C32.9 13.5 33.7 14.4 33.7 15.4C33.7 16.6 32.7 17.6 31.5 17.6H29H28.9V19.1H29H31.5H31.6C32.7 19.1 33.7 20 33.7 21.2C33.7 22.3 32.8 23.3 31.6 23.3H28.9V24.8H31.6C32.7 24.8 33.7 25.7 33.7 26.9C33.7 28 32.8 29 31.6 29H30H28.9V30.5H30C31.1 30.5 32.1 31.4 32.1 32.6C32.1 33.7 31.2 34.7 30 34.7H18.5C18 34.7 17.5 34.6 17.1 34.4L15.1 33.4C14.3 33 13.5 32.8 12.6 32.8H3V34H12.5C13.1 34 13.8 34.1 14.4 34.4L16.4 35.4C17 35.7 17.7 35.9 18.4 35.9H29.9C31.8 35.9 33.4 34.3 33.4 32.4C33.4 31.5 33.1 30.8 32.6 30.2C34 29.7 35.1 28.4 35.1 26.9C35.1 25.8 34.5 24.7 33.7 24.1C34.6 23.3 35.1 22.3 35.1 21.2Z" fill="currentcolor"/>
<path d="M12.5 28.8H11V30.3H12.5V28.8Z" fill="currentcolor"/>
<path d="M9.1001 28.8H7.6001V30.3H9.1001V28.8Z" fill="currentcolor"/>
<path d="M15.8999 28.8H14.3999V30.3H15.8999V28.8Z" fill="currentcolor"/>
<path d="M58.0999 62.5V32.3H50.1999V62.5H44.2999V38.8H36.3999V62.6H30.4999V49.1H22.5999V62.6H16.9999V42.4H9.1999V62.5H4.8999V64H60.8999V62.5H58.0999ZM15.4999 62.5H10.5999V43.9H15.4999V62.5ZM29.2999 62.5H24.3999V50.5H29.2999V62.5ZM42.9999 62.5H37.9999V40.2H42.9999V62.5ZM56.6999 62.5H51.7999V33.8H56.6999V62.5Z" fill="currentcolor"/>
</svg>
