<svg viewBox="0 0 64 64" fill="none" xmlns="http://www.w3.org/2000/svg">
<path d="M22.2 25.6H20.7V53H17L24.9 61L32.9 53H29.2V38.7H27.7V54.5H29.3L24.9 58.9L20.5 54.5H22.2V25.6Z" fill="currentcolor"/>
<path d="M36.3001 25.6H34.8001V44.8H31.1001L39.1001 52.8L47.0001 44.9H43.3001V38.4H41.8001V46.3H43.5001L39.1001 50.7L34.7001 46.3H36.3001V25.6Z" fill="currentcolor"/>
<path d="M29.2002 35.3H27.7002V36.8H29.2002V35.3Z" fill="currentcolor"/>
<path d="M29.2002 31.8H27.7002V33.3H29.2002V31.8Z" fill="currentcolor"/>
<path d="M29.2002 28.4H27.7002V29.9H29.2002V28.4Z" fill="currentcolor"/>
<path d="M43.2998 35.3H41.7998V36.8H43.2998V35.3Z" fill="currentcolor"/>
<path d="M43.2998 31.8H41.7998V33.3H43.2998V31.8Z" fill="currentcolor"/>
<path d="M36.2001 6.99998C34.3001 6.99998 32.5001 7.69998 31.1001 8.89998L32.0001 9.89998C33.2001 8.89998 34.6001 8.39998 36.2001 8.39998C37.9001 8.39998 39.5001 9.09998 40.8001 10.3C41.5001 11 42.0001 11.8 42.3001 12.7L43.7001 12.2C43.3001 11.1 42.7001 10.1 41.8001 9.29998C40.3001 7.79998 38.3001 6.99998 36.2001 6.99998Z" fill="currentcolor"/>
<path d="M52.2 13C50.8 13 49.4 13.3 48 13.8C47.4 7.79998 42.3 2.99998 36.2 2.99998C30.8 2.99998 26.1 6.59998 24.8 11.7C23.3 10.6 21.4 9.89998 19.4 9.89998C14.6 9.89998 10.7 13.6 10.3 18.3H9.1C4.8 18.3 1 21.4 0.1 25.6V25.9C0 26.5 0 27 0 27.5C0 32.6 4.1 36.7 9.2 36.7H16.9V35.2H9.2C5 35.2 1.5 31.7 1.5 27.5C1.5 27.1 1.5 26.6 1.6 26.2V25.9C2.3 22.3 5.5 19.8 9.1 19.8H11.7V19.1C11.7 14.9 15.1 11.5 19.3 11.5C22.3 11.5 25.1 13.3 26.3 16L27.6 15.4C27.2 14.4 26.6 13.6 25.9 12.9C27 7.99998 31.2 4.49998 36.2 4.49998C41.9 4.49998 46.6 9.19998 46.6 14.9C46.6 16 46.4 17.1 46.1 18.1L47.5 18.6C47.8 17.6 48 16.5 48.1 15.4C49.4 14.8 50.8 14.5 52.2 14.5C57.9 14.5 62.6 19.2 62.6 24.9C62.6 30.6 57.9 35.3 52.2 35.3H47.2V36.8H52.2C58.7 36.8 64 31.5 64 25C64 18.5 58.7 13 52.2 13Z" fill="currentcolor"/>
</svg>
