<svg viewBox="0 0 64 64" fill="none" xmlns="http://www.w3.org/2000/svg">
<path d="M4.2002 41.5H59.8002V7.5H4.2002V41.5ZM5.7002 9H58.4002V40H5.7002V9Z" fill="currentcolor"/>
<path d="M18.6 55.7H14V60.6H50V55.7H45.4C42.6 52.4 41.2 49 40 45.6H64V3.29999H0V45.6H24C22.7 49 21.3 52.5 18.6 55.7ZM48.6 57.2V59.2H15.4V57.2H48.6ZM43.6 55.7H20.4C23 52.4 24.3 48.8 25.5 45.6H38.4C39.6 48.9 41 52.4 43.6 55.7ZM1.5 44.2V4.79999H62.6V44.2H1.5Z" fill="currentcolor"/>
<path d="M17.4002 21.5V19.2C17.4002 17.7 16.2002 16.5 14.7002 16.5H14.4002C12.9002 16.5 11.7002 17.7 11.7002 19.2V21.5C11.7002 23 12.9002 24.2 14.4002 24.2H14.7002C16.1002 24.2 17.4002 23 17.4002 21.5ZM15.9002 21.5C15.9002 22.2 15.3002 22.7 14.7002 22.7H14.4002C13.7002 22.7 13.2002 22.1 13.2002 21.5V19.2C13.2002 18.5 13.8002 18 14.4002 18H14.7002C15.4002 18 15.9002 18.6 15.9002 19.2V21.5Z" fill="currentcolor"/>
<path d="M9.7002 16.4H8.2002V24.3H9.7002V16.4Z" fill="currentcolor"/>
<path d="M25.7002 16.4H25.4002C23.9002 16.4 22.7002 17.6 22.7002 19.1V21.4C22.7002 22.9 23.9002 24.1 25.4002 24.1H25.7002C27.2002 24.1 28.4002 22.9 28.4002 21.4V19.1C28.4002 17.6 27.2002 16.4 25.7002 16.4ZM27.0002 21.5C27.0002 22.2 26.4002 22.7 25.8002 22.7H25.5002C24.8002 22.7 24.3002 22.1 24.3002 21.5V19.2C24.3002 18.5 24.9002 18 25.5002 18H25.8002C26.5002 18 27.0002 18.6 27.0002 19.2V21.5Z" fill="currentcolor"/>
<path d="M20.7998 16.4H19.2998V24.3H20.7998V16.4Z" fill="currentcolor"/>
<path d="M41.7002 16.4H41.4002C39.9002 16.4 38.7002 17.6 38.7002 19.1V21.4C38.7002 22.9 39.9002 24.1 41.4002 24.1H41.7002C43.2002 24.1 44.4002 22.9 44.4002 21.4V19.1C44.4002 17.6 43.2002 16.4 41.7002 16.4ZM43.0002 21.5C43.0002 22.2 42.4002 22.7 41.8002 22.7H41.5002C40.8002 22.7 40.3002 22.1 40.3002 21.5V19.2C40.3002 18.5 40.9002 18 41.5002 18H41.8002C42.5002 18 43.0002 18.6 43.0002 19.2V21.5Z" fill="currentcolor"/>
<path d="M33.7002 16.4H33.4002C31.9002 16.4 30.7002 17.6 30.7002 19.1V21.4C30.7002 22.9 31.9002 24.1 33.4002 24.1H33.7002C35.2002 24.1 36.4002 22.9 36.4002 21.4V19.1C36.4002 17.6 35.2002 16.4 33.7002 16.4ZM35.0002 21.5C35.0002 22.2 34.4002 22.7 33.8002 22.7H33.5002C32.8002 22.7 32.3002 22.1 32.3002 21.5V19.2C32.3002 18.5 32.9002 18 33.5002 18H33.8002C34.5002 18 35.0002 18.6 35.0002 19.2V21.5Z" fill="currentcolor"/>
<path d="M52.7998 16.4H52.4998C50.9998 16.4 49.7998 17.6 49.7998 19.1V21.4C49.7998 22.9 50.9998 24.1 52.4998 24.1H52.7998C54.2998 24.1 55.4998 22.9 55.4998 21.4V19.1C55.4998 17.6 54.2998 16.4 52.7998 16.4ZM54.0998 21.5C54.0998 22.2 53.4998 22.7 52.8998 22.7H52.5998C51.8998 22.7 51.3998 22.1 51.3998 21.5V19.2C51.3998 18.5 51.9998 18 52.5998 18H52.8998C53.5998 18 54.0998 18.6 54.0998 19.2V21.5Z" fill="currentcolor"/>
<path d="M47.7998 16.4H46.2998V24.3H47.7998V16.4Z" fill="currentcolor"/>
<path d="M18 29.5H17.7C16.2 29.5 15 30.7 15 32.2V34.5C15 36 16.2 37.2 17.7 37.2H18C19.5 37.2 20.7 36 20.7 34.5V32.2C20.7 30.7 19.5 29.5 18 29.5ZM19.3 34.5C19.3 35.2 18.7 35.7 18.1 35.7H17.8C17.1 35.7 16.6 35.1 16.6 34.5V32.2C16.6 31.5 17.2 31 17.8 31H18C18.7 31 19.2 31.6 19.2 32.2V34.5H19.3Z" fill="currentcolor"/>
<path d="M9.7002 29.4H8.2002V37.3H9.7002V29.4Z" fill="currentcolor"/>
<path d="M13.1001 29.4H11.6001V37.3H13.1001V29.4Z" fill="currentcolor"/>
<path d="M33.7002 29.5H33.4002C31.9002 29.5 30.7002 30.7 30.7002 32.2V34.5C30.7002 36 31.9002 37.2 33.4002 37.2H33.7002C35.2002 37.2 36.4002 36 36.4002 34.5V32.2C36.4002 30.7 35.2002 29.5 33.7002 29.5ZM35.0002 34.5C35.0002 35.2 34.4002 35.7 33.8002 35.7H33.5002C32.8002 35.7 32.3002 35.1 32.3002 34.5V32.2C32.3002 31.5 32.9002 31 33.5002 31H33.8002C34.5002 31 35.0002 31.6 35.0002 32.2V34.5Z" fill="currentcolor"/>
<path d="M52.7998 29.5H52.4998C50.9998 29.5 49.7998 30.7 49.7998 32.2V34.5C49.7998 36 50.9998 37.2 52.4998 37.2H52.7998C54.2998 37.2 55.4998 36 55.4998 34.5V32.2C55.4998 30.7 54.2998 29.5 52.7998 29.5ZM54.0998 34.5C54.0998 35.2 53.4998 35.7 52.8998 35.7H52.5998C51.8998 35.7 51.3998 35.1 51.3998 34.5V32.2C51.3998 31.5 51.9998 31 52.5998 31H52.8998C53.5998 31 54.0998 31.6 54.0998 32.2V34.5Z" fill="currentcolor"/>
<path d="M47.7998 29.4H46.2998V37.3H47.7998V29.4Z" fill="currentcolor"/>
<path d="M42.2998 29.4H40.7998V37.3H42.2998V29.4Z" fill="currentcolor"/>
<path d="M26.3999 29.4H24.8999V37.3H26.3999V29.4Z" fill="currentcolor"/>
<path d="M46.8999 11.2H45.3999V12.7H46.8999V11.2Z" fill="currentcolor"/>
<path d="M43.1001 11.2H41.6001V12.7H43.1001V11.2Z" fill="currentcolor"/>
<path d="M54.6001 11.2H53.1001V12.7H54.6001V11.2Z" fill="currentcolor"/>
<path d="M50.7998 11.2H49.2998V12.7H50.7998V11.2Z" fill="currentcolor"/>
<path d="M37.2001 11.2H8.1001V12.7H37.2001V11.2Z" fill="currentcolor"/>
</svg>
