<svg viewBox="0 0 64 64" fill="none" xmlns="http://www.w3.org/2000/svg">
<path d="M41.9001 48.4V30.2H34.4001V48.4H31.1001L38.2001 55.5L45.3001 48.4H41.9001ZM38.1001 53.4L34.5001 49.8H35.8001V31.7H40.4001V49.9H41.7001L38.1001 53.4Z" fill="currentcolor"/>
<path d="M18.7998 36.7H22.0998V54.9H29.5998V36.7H32.8998L25.7998 29.6L18.7998 36.7ZM28.1998 35.2V53.4H23.5998V35.3H22.2998L25.8998 31.7L29.4998 35.3L28.1998 35.2Z" fill="currentcolor"/>
<path d="M47.4 24C47.7 23 47.9 21.9 48 20.8C49.3 20.2 50.7 19.9 52.1 19.9C57.8 19.9 62.5 24.6 62.5 30.3C62.5 36 57.8 40.7 52.1 40.7H49.1V42.2H52.1C58.6 42.2 63.9 36.9 63.9 30.4C63.9 23.9 58.6 18.6 52.1 18.6C50.7 18.6 49.3 18.9 47.9 19.4C47.3 13.4 42.3 8.69997 36.1 8.69997C30.7 8.69997 26 12.3 24.7 17.5C23.2 16.4 21.3 15.7 19.3 15.7C14.5 15.7 10.6 19.4 10.2 24.1H9C4.7 24.1 0.9 27.2 0 31.4V31.7C0 31.9 0 32.4 0 33C0 38.1 4.1 42.2 9.2 42.2H14.9V40.7H9.2C5 40.7 1.5 37.2 1.5 33C1.5 32.6 1.5 32.1 1.6 31.7V31.4C2.3 27.8 5.5 25.3 9.1 25.3H11.7V24.6C11.7 20.4 15.1 17 19.3 17C22.3 17 25.1 18.8 26.3 21.5L27.6 20.9C27.2 19.9 26.6 19.1 25.9 18.4C26.8 13.5 31.1 9.99997 36.1 9.99997C41.8 9.99997 46.5 14.7 46.5 20.4C46.5 21.5 46.3 22.6 46 23.6L47.4 24Z" fill="currentcolor"/>
<path d="M36.2001 12.4C34.3001 12.4 32.5001 13.1 31.1001 14.3L32.0001 15.4C33.2001 14.4 34.6001 13.9 36.2001 13.9C37.9001 13.9 39.5001 14.6 40.8001 15.8C41.5001 16.5 42.0001 17.3 42.3001 18.2L43.7001 17.7C43.3001 16.6 42.7001 15.6 41.8001 14.8C40.3001 13.2 38.3001 12.4 36.2001 12.4Z" fill="currentcolor"/>
<path d="M47.6001 40.7H46.1001V42.2H47.6001V40.7Z" fill="currentcolor"/>
<path d="M44.8999 40.7H43.3999V42.2H44.8999V40.7Z" fill="currentcolor"/>
<path d="M20.6001 40.7H19.1001V42.2H20.6001V40.7Z" fill="currentcolor"/>
<path d="M17.8999 40.7H16.3999V42.2H17.8999V40.7Z" fill="currentcolor"/>
</svg>
