<svg  viewBox="0 0 64 64" fill="none" xmlns="http://www.w3.org/2000/svg">
<path d="M36.3998 19.2C34.4998 19.2 32.6998 19.9 31.2998 21.1L32.1998 22.2C33.3998 21.2 34.7998 20.7 36.2998 20.7C37.9998 20.7 39.5998 21.4 40.7998 22.6C41.4998 23.3 41.9998 24.1 42.2998 25L43.6998 24.5C43.2998 23.4 42.6998 22.4 41.7998 21.6C40.3998 20 38.4998 19.2 36.3998 19.2Z" fill="currentcolor"/>
<path d="M52.2 48.7C58.7 48.7 64 43.4 64 37C64 30.5 58.7 25.2 52.2 25.2C50.8 25.2 49.4 25.4 48.1 25.9C47.5 19.9 42.5 15.3 36.3 15.3C30.9 15.3 26.3 18.9 24.9 24C23.4 22.9 21.5 22.2 19.6 22.2C14.9 22.2 11 25.9 10.6 30.5H9.4C5.1 30.5 1.3 33.6 0.5 37.8C0.5 37.9 0.2 39.3 0.5 40.4L1.9 40C1.8 39.3 1.9 38.3 2 38C2.7 34.5 5.9 32 9.5 32H12.1V31.3C12.1 27.1 15.5 23.7 19.7 23.7C22.7 23.7 25.4 25.5 26.6 28.2L27.9 27.6C27.5 26.7 26.9 25.8 26.2 25.1C27.1 20.3 31.3 16.8 36.3 16.8C42 16.8 46.7 21.4 46.7 27V28.2L47.7 27.7C49.1 27 50.6 26.7 52.1 26.7C57.8 26.7 62.4 31.3 62.4 37C62.4 42.7 57.8 47.3 52.1 47.3H9.5C7.5 47.3 5.5 46.5 4.1 45.1C3.8 44.8 3.5 44.4 3.2 44.1L5.9 44.8L6.3 43.4L1.3 42.2L0 47L1.4 47.4L2 44.9C2.3 45.3 2.6 45.7 3 46.1C4.7 47.8 7 48.8 9.4 48.8H52.2V48.7Z" fill="currentcolor"/>
<path d="M25 43.3C25 44.6 26 45.6 27.3 45.6C28.6 45.6 29.6 44.6 29.6 43.3V41.8C29.6 40.5 28.6 39.5 27.3 39.5C26 39.5 25 40.5 25 41.8V43.3ZM26.4 41.8C26.4 41.3 26.8 41 27.2 41C27.6 41 28 41.4 28 41.8V43.3C28 43.8 27.6 44.1 27.2 44.1C26.8 44.1 26.4 43.7 26.4 43.3V41.8Z" fill="currentcolor"/>
<path d="M12.6001 41.8V43.3C12.6001 44.6 13.6001 45.6 14.9001 45.6C16.2001 45.6 17.2001 44.6 17.2001 43.3V41.8C17.2001 40.5 16.2001 39.5 14.9001 39.5C13.7001 39.5 12.6001 40.5 12.6001 41.8ZM15.8001 41.8V43.3C15.8001 43.8 15.4001 44.1 15.0001 44.1C14.5001 44.1 14.2001 43.7 14.2001 43.3V41.8C14.2001 41.3 14.6001 41 15.0001 41C15.4001 40.9 15.8001 41.3 15.8001 41.8Z" fill="currentcolor"/>
<path d="M20.3999 39.6H18.8999V45.5H20.3999V39.6Z" fill="currentcolor"/>
<path d="M23.3999 39.6H21.8999V45.5H23.3999V39.6Z" fill="currentcolor"/>
<path d="M36.6999 39.5C35.3999 39.5 34.3999 40.5 34.3999 41.8V43.3C34.3999 44.6 35.3999 45.6 36.6999 45.6C37.9999 45.6 38.9999 44.6 38.9999 43.3V41.8C38.9999 40.5 37.9999 39.5 36.6999 39.5ZM37.5999 43.3C37.5999 43.8 37.1999 44.1 36.7999 44.1C36.2999 44.1 35.9999 43.7 35.9999 43.3V41.8C35.9999 41.3 36.3999 41 36.7999 41C37.2999 41 37.5999 41.4 37.5999 41.8V43.3Z" fill="currentcolor"/>
<path d="M47.1001 43.3C47.1001 44.6 48.1001 45.6 49.4001 45.6C50.7001 45.6 51.7001 44.6 51.7001 43.3V41.8C51.7001 40.5 50.7001 39.5 49.4001 39.5C48.1001 39.5 47.1001 40.5 47.1001 41.8V43.3ZM48.6001 41.8C48.6001 41.3 49.0001 41 49.4001 41C49.9001 41 50.2001 41.4 50.2001 41.8V43.3C50.2001 43.8 49.8001 44.1 49.4001 44.1C48.9001 44.1 48.6001 43.7 48.6001 43.3V41.8Z" fill="currentcolor"/>
<path d="M45.5 39.6H44V45.5H45.5V39.6Z" fill="currentcolor"/>
<path d="M42.2998 39.6H40.7998V45.5H42.2998V39.6Z" fill="currentcolor"/>
<path d="M32.7002 39.6H31.2002V45.5H32.7002V39.6Z" fill="currentcolor"/>
<path d="M43.0002 31.8C41.7002 31.8 40.7002 32.8 40.7002 34.1V35.6C40.7002 36.9 41.7002 37.9 43.0002 37.9C44.3002 37.9 45.3002 36.9 45.3002 35.6V34.1C45.3002 32.9 44.3002 31.8 43.0002 31.8ZM43.9002 35.7C43.9002 36.2 43.5002 36.5 43.1002 36.5C42.6002 36.5 42.3002 36.1 42.3002 35.7V34.2C42.3002 33.7 42.7002 33.4 43.1002 33.4C43.6002 33.4 43.9002 33.8 43.9002 34.2V35.7Z" fill="currentcolor"/>
<path d="M39.2001 34.2C39.2001 32.9 38.2001 31.9 36.9001 31.9C35.6001 31.9 34.6001 32.9 34.6001 34.2V35.7C34.6001 37 35.6001 38 36.9001 38C38.2001 38 39.2001 37 39.2001 35.7V34.2ZM37.7001 35.7C37.7001 36.2 37.3001 36.5 36.9001 36.5C36.4001 36.5 36.1001 36.1 36.1001 35.7V34.2C36.1001 33.7 36.5001 33.4 36.9001 33.4C37.4001 33.4 37.7001 33.8 37.7001 34.2V35.7Z" fill="currentcolor"/>
<path d="M48.7002 32H47.2002V37.9H48.7002V32Z" fill="currentcolor"/>
<path d="M28.5 34.2V35.7C28.5 37 29.5 38 30.8 38C32.1 38 33.1 37 33.1 35.7V34.2C33.1 32.9 32.1 31.9 30.8 31.9C29.5 31.8 28.5 32.9 28.5 34.2ZM31.6 34.2V35.7C31.6 36.2 31.2 36.5 30.8 36.5C30.3 36.5 30 36.1 30 35.7V34.2C30 33.7 30.4 33.4 30.8 33.4C31.3 33.3 31.6 33.7 31.6 34.2Z" fill="currentcolor"/>
<path d="M20.3998 34.2C20.3998 32.9 19.3998 31.9 18.0998 31.9C16.7998 31.9 15.7998 32.9 15.7998 34.2V35.7C15.7998 37 16.7998 38 18.0998 38C19.3998 38 20.3998 37 20.3998 35.7V34.2ZM18.8998 35.7C18.8998 36.2 18.4998 36.5 18.0998 36.5C17.5998 36.5 17.2998 36.1 17.2998 35.7V34.2C17.2998 33.7 17.6998 33.4 18.0998 33.4C18.5998 33.4 18.8998 33.8 18.8998 34.2V35.7Z" fill="currentcolor"/>
<path d="M23.6001 32H22.1001V37.9H23.6001V32Z" fill="currentcolor"/>
<path d="M26.7002 32H25.2002V37.9H26.7002V32Z" fill="currentcolor"/>
</svg>
