<svg viewBox="0 0 64 64" fill="none" xmlns="http://www.w3.org/2000/svg">
<path d="M43 33.6001L45.5 35.7001L43 37.8001L44 38.9001L47.8 35.7001L44 32.4001L43 33.6001Z" fill="currentcolor"/>
<path d="M36.4001 32.4001L32.6001 35.7001L36.4001 38.9001L37.3001 37.8001L34.8001 35.7001L37.3001 33.6001L36.4001 32.4001Z" fill="currentcolor"/>
<path d="M38.0048 39.955L39.4307 40.4207L42.4115 31.295L40.9856 30.8292L38.0048 39.955Z" fill="currentcolor"/>
<path d="M30.3001 32.3001C30.3001 31.3001 29.8001 30.4001 29.0001 29.9001L26.6001 28.4001C27.0001 27.8001 27.2001 27.2001 27.2001 26.5001C27.2001 24.6001 25.6001 23.0001 23.7001 23.0001C21.8001 23.0001 20.2001 24.6001 20.2001 26.5001C20.2001 27.2001 20.4001 27.8001 20.8001 28.4001L18.4001 29.9001C17.6001 30.4001 17.1001 31.3001 17.1001 32.3001V35.7001H30.3001V32.3001ZM23.7001 24.5001C24.8001 24.5001 25.7001 25.4001 25.7001 26.5001C25.7001 27.1001 25.5001 27.6001 25.0001 28.0001C24.5001 28.5001 23.6001 28.6001 23.0001 28.4001C22.8001 28.3001 22.6001 28.2001 22.4001 28.0001C22.0001 27.6001 21.7001 27.1001 21.7001 26.5001C21.7001 25.4001 22.6001 24.5001 23.7001 24.5001ZM28.8001 34.2001H18.6001V32.3001C18.6001 31.8001 18.8001 31.4001 19.2001 31.2001L21.8001 29.5001C23.0001 30.2001 24.2001 30.2001 25.5001 29.5001L28.1001 31.2001C28.5001 31.4001 28.7001 31.9001 28.7001 32.3001V34.2001H28.8001Z" fill="currentcolor"/>
<path d="M53.9999 35.6001L56.7999 32.3001L53.9999 28.9001L52.8999 29.8001L54.8999 32.3001L52.8999 34.7001L53.9999 35.6001Z" fill="currentcolor"/>
<path d="M11.1002 34.7001L9.1002 32.3001L11.1002 29.8001L10.0002 28.9001L7.2002 32.3001L10.0002 35.6001L11.1002 34.7001Z" fill="currentcolor"/>
<path d="M49.9001 20.2001H14.1001V42.3001H49.9001V20.2001ZM48.5001 40.9001H15.5001V21.7001H48.4001V40.9001H48.5001Z" fill="currentcolor"/>
<path d="M60.5 17.7001V10.5001H3.5V17.7001V46.3001H60.6V17.7001H60.5ZM59.1 44.9001H4.9V17.7001H59V44.9001H59.1ZM59.1 16.3001H4.9V12.0001H59V16.3001H59.1Z" fill="currentcolor"/>
<path d="M16.2998 13.4001H14.7998V14.9001H16.2998V13.4001Z" fill="currentcolor"/>
<path d="M12.7998 13.4001H11.2998V14.9001H12.7998V13.4001Z" fill="currentcolor"/>
<path d="M9.3999 13.4001H7.8999V14.9001H9.3999V13.4001Z" fill="currentcolor"/>
<path d="M0 50.5001L2.8 53.4001H61.3L64.1 50.5001V48.0001H0V50.5001ZM1.5 49.5001H62.6V49.9001L60.7 51.9001H3.4L1.5 49.9001V49.5001Z" fill="currentcolor"/>
<path d="M45.0999 24.4001H31.8999V25.9001H45.0999V24.4001Z" fill="currentcolor"/>
<path d="M55.8998 13.4001H34.2998V14.9001H55.8998V13.4001Z" fill="currentcolor"/>
<path d="M33.3999 27.3001H31.8999V28.8001H33.3999V27.3001Z" fill="currentcolor"/>
<path d="M36.5 27.3001H35V28.8001H36.5V27.3001Z" fill="currentcolor"/>
<path d="M39.6001 27.3001H38.1001V28.8001H39.6001V27.3001Z" fill="currentcolor"/>
<path d="M19.1001 37.6001H17.6001V39.1001H19.1001V37.6001Z" fill="currentcolor"/>
<path d="M22.2002 37.6001H20.7002V39.1001H22.2002V37.6001Z" fill="currentcolor"/>
<path d="M28.5 37.6001H27V39.1001H28.5V37.6001Z" fill="currentcolor"/>
<path d="M25.2998 37.6001H23.7998V39.1001H25.2998V37.6001Z" fill="currentcolor"/>
</svg>
