<svg viewBox="0 0 64 64" fill="none" xmlns="http://www.w3.org/2000/svg">
<path d="M62.3002 14.1H44.4002C44.4002 13.3 44.3002 12.6 44.2002 11.9L46.3002 10.4L44.7002 6.69997L42.2002 7.19997C41.3002 5.99997 40.2002 4.89997 38.8002 3.99997L39.3002 1.49997L35.6002 -3.05176e-05L34.2002 2.09997C32.6002 1.79997 31.0002 1.79997 29.5002 2.19997L28.0002 0.0999695L24.3002 1.69997L24.8002 4.19997C23.5002 5.09997 22.4002 6.29997 21.5002 7.59997L19.0002 7.09997L17.5002 10.8L19.7002 12.2C19.6002 12.8 19.5002 13.4 19.5002 14.1H1.7002V52.6H24.9002C24.5002 55.3 23.4002 57.5 21.7002 59.2H15.0002V64H49.2002V59.3H42.5002C40.7002 57.5 39.7002 55.4 39.3002 52.7H62.5002V14.1H62.3002ZM19.4002 10.3L20.0002 8.79997L22.3002 9.19997L22.6002 8.79997C23.5002 7.29997 24.7002 6.09997 26.1002 5.19997L26.5002 4.89997L26.0002 2.59997L27.5002 1.99997L28.8002 3.89997L29.3002 3.79997C30.9002 3.39997 32.7002 3.39997 34.3002 3.69997L34.8002 3.79997L36.1002 1.79997L37.6002 2.39997L37.2002 4.69997L37.7002 4.99997C39.2002 5.89997 40.4002 7.09997 41.3002 8.49997L41.6002 8.89997L43.9002 8.39997L44.5002 9.89997L42.6002 11.2L42.7002 11.7C42.9002 12.5 43.0002 13.2 43.0002 14.1H40.9002C40.7002 9.29997 36.8002 5.49997 32.0002 5.49997C27.2002 5.49997 23.2002 9.29997 23.1002 14.1H21.0002C21.0002 13.4 21.1002 12.7 21.2002 12L21.3002 11.5L19.4002 10.3ZM39.5002 14.1H24.5002C24.7002 10.1 28.0002 6.99997 32.0002 6.99997C36.0002 6.99997 39.3002 10.1 39.5002 14.1ZM43.9002 60.7H47.6002V62.5H16.4002V60.7H20.1002H43.9002ZM40.4002 59.3H23.6002C25.1002 57.5 26.0002 55.3 26.3002 52.7H37.6002C38.0002 55.3 38.9002 57.4 40.4002 59.3ZM60.8002 51.2H3.2002V15.6H60.9002V51.2H60.8002Z" fill="currentcolor"/>
<path d="M5.7002 48.7H58.4002V18.1H5.7002V48.7ZM7.1002 19.6H56.9002V47.3H7.1002V19.6Z" fill="currentcolor"/>
<path d="M26.2 32.6L20.5 38.3L26.2 44V41.3H43.3V35.4H26.2V32.6ZM41.8 36.8V39.8H24.7V40.5L22.5 38.3L24.7 36.1V36.8H41.8Z" fill="currentcolor"/>
<path d="M37.9002 25.5H20.7002V31.4H37.8002V34.1L43.5002 28.4L37.8002 22.7L37.9002 25.5ZM39.3002 26.2L41.5002 28.4L39.3002 30.6V29.9H22.2002V26.9H39.3002V26.2Z" fill="currentcolor"/>
</svg>
