<svg viewBox="0 0 64 64" fill="none" xmlns="http://www.w3.org/2000/svg">
<path d="M59.0999 37.6L63.9999 37.5L58.2999 24.6V19.9C57.3999 10.1 52.0999 3.29997 43.9999 1.69997C36.7999 0.299967 30.7999 1.49997 27.0999 2.69997L27.5999 4.09997C31.1999 2.89997 36.7999 1.79997 43.6999 3.19997C51.0999 4.59997 55.9999 10.9 56.7999 20V24.9L61.6999 36.1L57.4999 36.2L57.9999 45C57.9999 45.7 57.7999 46.3 57.2999 46.8C56.7999 47.3 56.1999 47.5 55.4999 47.5H47.8999V63H49.3999V49H55.4999C56.5999 49.1 57.5999 48.7 58.3999 47.9C59.1999 47.1 59.5999 46.1 59.4999 45L59.0999 37.6Z" fill="currentcolor"/>
<path d="M41.9999 47.4H40.3999V48.9H41.9999V47.4Z" fill="currentcolor"/>
<path d="M38.7 47.4H32.5V48.9H38.7V47.4Z" fill="currentcolor"/>
<path d="M45.4999 47.4H43.8999V48.9H45.4999V47.4Z" fill="currentcolor"/>
<path d="M41.5999 6.79996C41.9999 6.89996 42.4999 6.99996 42.8999 7.09996L43.1999 5.69996C42.6999 5.59996 42.1999 5.49996 41.6999 5.39996L41.5999 6.79996Z" fill="currentcolor"/>
<path d="M47.3999 7.29998C46.8999 6.99998 46.4999 6.79998 45.9999 6.59998L45.3999 7.89998C45.7999 8.09998 46.1999 8.29998 46.5999 8.49998L47.3999 7.29998Z" fill="currentcolor"/>
<path d="M39 5.09998C38.5 5.09998 38 5.09998 37.5 5.09998V6.59998C38 6.59998 38.4 6.59998 38.9 6.59998L39 5.09998Z" fill="currentcolor"/>
<path d="M49.7 8.99997L48.7 9.99997C49 10.3 49.2999 10.7 49.5999 11L50.7999 10.1C50.3999 9.79997 50 9.39997 49.7 8.99997Z" fill="currentcolor"/>
<path d="M34.7 5.29996C33.8 5.39996 33.2 5.49996 33.2 5.59996L33.5 6.99996C33.5 6.99996 34 6.89996 34.9 6.79996L34.7 5.29996Z" fill="currentcolor"/>
<path d="M52.1999 12.6L50.8999 13.2C51.0999 13.6 51.1999 14 51.3999 14.5L52.7999 14.1C52.5999 13.6 52.3999 13.1 52.1999 12.6Z" fill="currentcolor"/>
<path d="M23.4 5.09996L22.7 4.79996L17.1 18.8L2.19995 21.1L2.29995 21.8C2.69995 24.6 4.29995 31.6 13.8 34.6C15.5 42 17.9 45.3 19.7999 48C21.5999 50.4 22.7999 52.2 22.7999 56.3V63H24.2999V56.3C24.2999 51.7 22.7999 49.7 21 47.1C19.2 44.6 17 41.6 15.4 34.9C16.1 35 16.9 35.1 17.7 35.1C27.9 34.6 31.1999 27.7 32.0999 25.3C35.1999 17.3 31.2999 8.19996 23.4 5.09996ZM17.7 33.6C13.4 33.6 9.29995 31.7 6.69995 28.3C5.19995 26.4 4.39995 24.6 3.89995 22.3L17.4 20.3L25.7999 31C23.4 32.7 20.6 33.6 17.7 33.6ZM30.7 24.7C29.8 26.9 28.6999 28.6 26.9 30.1L26.4 29.5L18.4 19.4L23.4 6.69996C30.2999 9.79996 33.5 17.7 30.7 24.7Z" fill="currentcolor"/>
<path d="M21.8999 2.79997L21.1999 2.49997C18.4999 1.39997 16.0999 1.19997 13.1999 1.59997C9.19993 2.19997 5.49993 4.39997 3.09993 7.69997C0.599932 11 -0.400067 15.1 0.199933 19.2L0.299933 20L16.0999 17.7L21.8999 2.79997ZM1.49993 18.3C1.19993 14.8 2.09993 11.4 4.19993 8.59997C6.39993 5.59997 9.69993 3.59997 13.3999 3.09996C14.1999 2.99996 14.8999 2.89997 15.5999 2.89997C17.0999 2.89997 18.4999 3.09996 19.9999 3.69997L14.9999 16.4L1.49993 18.3Z" fill="currentcolor"/>
</svg>
