<svg viewBox="0 0 64 64" fill="none" xmlns="http://www.w3.org/2000/svg">
<path d="M55.3001 55.1L52.7001 53.5C53.1001 52.9 53.3001 52.2 53.3001 51.4C53.3001 49.3 51.6001 47.7 49.6001 47.7C47.5001 47.7 45.9001 49.4 45.9001 51.4C45.9001 52.2 46.1001 52.9 46.5001 53.5L45.3001 54.3L43.4001 53.1C43.9001 52.4 44.2001 51.5 44.2001 50.6C44.2001 48.2 42.2001 46.3 39.9001 46.3C37.5001 46.3 35.6001 48.3 35.6001 50.6C35.6001 51.5 35.9001 52.4 36.4001 53.1L34.5001 54.3L33.3001 53.5C33.7001 52.9 33.9001 52.2 33.9001 51.4C33.9001 49.3 32.2001 47.7 30.2001 47.7C28.2001 47.7 26.5001 49.4 26.5001 51.4C26.5001 52.1 26.7001 52.9 27.1001 53.5L24.5001 55.1C23.6001 55.7 23.1001 56.6 23.1001 57.6V61.2H31.5001V62.2H48.3001V61.2H56.8001V57.6C56.7001 56.6 56.1001 55.7 55.3001 55.1ZM49.5001 49.2C50.7001 49.2 51.8001 50.2 51.8001 51.5C51.8001 52.2 51.5001 52.8 51.0001 53.2C50.4001 53.7 49.5001 53.9 48.7001 53.6C48.4001 53.5 48.2001 53.4 48.0001 53.2C47.5001 52.8 47.2001 52.2 47.2001 51.5C47.3001 50.2 48.3001 49.2 49.5001 49.2ZM39.8001 47.7C41.4001 47.7 42.7001 49 42.7001 50.6C42.7001 51.4 42.3001 52.2 41.7001 52.8C40.9001 53.5 39.8001 53.7 38.8001 53.3C38.5001 53.2 38.2001 53 37.9001 52.8C37.3001 52.3 36.9001 51.5 36.9001 50.7C36.9001 49 38.2001 47.7 39.8001 47.7ZM30.1001 49.2C31.3001 49.2 32.4001 50.2 32.4001 51.5C32.4001 52.2 32.1001 52.8 31.6001 53.2C31.0001 53.7 30.1001 53.9 29.3001 53.6C29.0001 53.5 28.8001 53.4 28.6001 53.2C28.1001 52.8 27.8001 52.2 27.8001 51.5C27.8001 50.2 28.8001 49.2 30.1001 49.2ZM31.4001 58.1V59.8H24.4001V57.7C24.4001 57.2 24.7001 56.7 25.1001 56.4L28.0001 54.6C28.0001 54.6 28.0001 54.6 28.1001 54.6C28.2001 54.6 28.2001 54.7 28.3001 54.7C28.4001 54.8 28.5001 54.8 28.6001 54.9C28.7001 54.9 28.8001 55 28.9001 55C29.0001 55 29.0001 55 29.1001 55C29.4001 55.1 29.7001 55.1 30.1001 55.1C30.4001 55.1 30.7001 55 31.1001 55C31.2001 55 31.2001 55 31.3001 55C31.4001 55 31.5001 54.9 31.6001 54.9C31.7001 54.9 31.8001 54.8 31.9001 54.7C32.0001 54.7 32.0001 54.6 32.1001 54.6C32.1001 54.6 32.1001 54.6 32.2001 54.6L33.1001 55.2C32.0001 55.8 31.4001 56.9 31.4001 58.1ZM46.7001 60.8H32.9001V58.1C32.9001 57.4 33.2001 56.8 33.8001 56.4L37.4001 54.2C37.4001 54.2 37.5001 54.2 37.5001 54.3C37.6001 54.4 37.7001 54.4 37.8001 54.4C37.9001 54.5 38.0001 54.5 38.1001 54.6C38.2001 54.7 38.4001 54.7 38.5001 54.8H38.6001C39.0001 54.9 39.4001 55 39.8001 55C40.2001 55 40.6001 54.9 41.0001 54.8H41.1001C41.2001 54.8 41.4001 54.7 41.5001 54.6C41.6001 54.6 41.7001 54.5 41.8001 54.4C41.9001 54.4 42.0001 54.3 42.1001 54.3C42.1001 54.3 42.2001 54.3 42.2001 54.2L45.8001 56.4C46.4001 56.8 46.7001 57.4 46.7001 58.1V60.8ZM55.2001 59.8H48.2001V58.1C48.2001 56.9 47.6001 55.8 46.6001 55.2L47.5001 54.6C47.5001 54.6 47.5001 54.6 47.6001 54.6C47.7001 54.6 47.7001 54.7 47.8001 54.7C47.9001 54.8 48.0001 54.8 48.1001 54.9C48.2001 54.9 48.3001 55 48.4001 55C48.5001 55 48.5001 55 48.6001 55C48.9001 55.1 49.2001 55.1 49.6001 55.1C49.9001 55.1 50.3001 55 50.6001 55C50.7001 55 50.7001 55 50.8001 55C50.9001 55 51.0001 54.9 51.1001 54.9C51.2001 54.9 51.3001 54.8 51.4001 54.7C51.5001 54.7 51.5001 54.6 51.6001 54.6C51.6001 54.6 51.6001 54.6 51.7001 54.6L54.6001 56.4C55.0001 56.7 55.3001 57.2 55.3001 57.7V59.8H55.2001Z" fill="currentcolor"/>
<path d="M15.7 62.3L14.8 30.9C14.8 30.1 15.2 29.3 16 29H18.6L28.6 19L27.2 17.6L33.2 11.7L32.2 10.6L26.2 16.6L24.8 15.2L17.7 22.3H11.7L9.2 27H8.7L6.2 22.3H5.8C2.6 22.2 0 24.8 0 28V42.1H2.8L2.2 62.3H7.3L9 49.1L10.6 62.3H15.7ZM9 42.9L8.3 42.8L6.1 60.8H3.8L4.6 33H3.1L2.9 40.6H1.5V28C1.5 25.8 3.2 24 5.3 23.7L7.8 28.3H10.1L12.6 23.6H18.3L24.8 17.1L26.5 18.8L18 27.5H15.9H15.7C14.3 28 13.4 29.3 13.4 30.9L14.3 60.8H12L9.7 42.9H9Z" fill="currentcolor"/>
<path d="M8.7999 22C10.9999 22 12.6999 20.2 12.6999 18.1C12.6999 15.9 10.8999 14.2 8.7999 14.2C6.5999 14.2 4.8999 16 4.8999 18.1C4.8999 20.2 6.5999 22 8.7999 22ZM8.7999 15.6C10.0999 15.6 11.1999 16.7 11.1999 18C11.1999 19.3 10.0999 20.4 8.7999 20.4C7.4999 20.4 6.3999 19.3 6.3999 18C6.2999 16.7 7.3999 15.6 8.7999 15.6Z" fill="currentcolor"/>
<path d="M48.1001 5.59998H21.6001V7.09998H48.1001V5.59998Z" fill="currentcolor"/>
<path d="M37.7 10.1H36.2V11.6H37.7V10.1Z" fill="currentcolor"/>
<path d="M41.1001 10.1H39.6001V11.6H41.1001V10.1Z" fill="currentcolor"/>
<path d="M44.6001 10.1H43.1001V11.6H44.6001V10.1Z" fill="currentcolor"/>
<path d="M48.1001 10.1H46.6001V11.6H48.1001V10.1Z" fill="currentcolor"/>
<path d="M63.9999 3.19997V1.69997H14.3999V3.19997H16.0999V21.4H17.5999V3.19997H60.7999V27H21.6999V28.5H38.2999L29.4999 42.4H28.0999V43.9H32.2999V42.4H31.2999L38.8999 30.3V42.4H37.3999V43.9H41.9999V42.4H40.3999V30.3L48.0999 42.4H47.2999V43.9H51.4999V42.4H49.7999L40.9999 28.5H63.9999V27H62.2999V3.19997H63.9999Z" fill="currentcolor"/>
<path d="M58.1 5.19997H51.5V11.8H58.1V5.19997ZM56.7 10.3H53V6.69997H56.7V10.3Z" fill="currentcolor"/>
<path d="M48 17.3H33.8V18.8H48V17.3Z" fill="currentcolor"/>
<path d="M48.1001 21.4H28.6001V22.9H48.1001V21.4Z" fill="currentcolor"/>
<path d="M51.5 24H58.1V17.4H51.5V24ZM53 18.8H56.7V22.5H53V18.8Z" fill="currentcolor"/>
</svg>
