<svg viewBox="0 0 64 64" fill="none" xmlns="http://www.w3.org/2000/svg">
<path d="M51.7 49.5C52 49.8 52.2 50.1 52.2 50.5H53.7C53.7 49.7 53.3 49 52.7 48.4C52.3 48 51.7 47.8 51.2 47.7V46.1H49.7V47.7C49.1 47.8 48.6 48 48.2 48.4C47.6 49 47.2 49.7 47.2 50.5C47.2 51.3 47.6 52 48.2 52.6C48.8 53.1 49.6 53.4 50.5 53.4C51 53.4 51.3999 53.6 51.7999 53.9C52.0999 54.2 52.2999 54.5 52.2999 54.9C52.2999 55.3 52.0999 55.6 51.7999 55.9C51.0999 56.5 49.9 56.5 49.2 55.9C48.9 55.6 48.7 55.3 48.7 54.9H47.2C47.2 55.7 47.6 56.4 48.2 57C48.6 57.4 49.1 57.6 49.7 57.7V59.3H51.2V57.7C51.8 57.6 52.3 57.3 52.7 57C53.3 56.4 53.7 55.7 53.7 54.9C53.7 54.1 53.3 53.4 52.7 52.8C52.1 52.3 51.3 52 50.4 52C49.9 52 49.4999 51.8 49.0999 51.5C48.7999 51.2 48.5999 50.9 48.5999 50.5C48.5999 50.1 48.7999 49.8 49.0999 49.5C49.7999 48.9 51 48.9 51.7 49.5Z" fill="currentcolor"/>
<path d="M50.4 41.3C44.1 41.3 39 46.4 39 52.7C39 59 44.1 64 50.4 64C56.7 64 61.8 58.9 61.8 52.6C61.8 46.3 56.6 41.3 50.4 41.3ZM50.4 62.5C45 62.5 40.5 58.1 40.5 52.6C40.5 47.1 44.9 42.7 50.4 42.7C55.8 42.7 60.3 47.1 60.3 52.6C60.3 58.1 55.8 62.5 50.4 62.5Z" fill="currentcolor"/>
<path d="M51.0999 28.6H46.7V13.2C47.6 13 48.5999 12.9 49.5999 12.9C51.1999 12.9 52.9 13.1 54.5 13.4C56.2 13.6 57.8999 13.9 59.5999 13.9C61 13.9 62.2999 13.7 63.5 13.4L64 13.2V1.6L63.0999 1.9C62 2.2 60.8999 2.3 59.5999 2.3C58 2.3 56.2999 2.1 54.7 1.8C53 1.6 51.2999 1.3 49.5999 1.3C48.5999 1.3 47.6 1.4 46.7 1.6V0H45.2V2V13.5V28.5H40.5V36.6H31.4V44.7H22.3V52.8H13.2V64H16.5L51.2999 31.9V28.6H51.0999ZM46.7 3.2C49 2.7 51.9 3 54.5 3.4C56.2 3.6 57.8999 3.9 59.5999 3.9C60.5999 3.9 61.5999 3.8 62.5 3.6V12C60.2 12.5 57.2999 12.2 54.7 11.8C53 11.6 51.2999 11.3 49.5999 11.3C48.5999 11.3 47.6 11.4 46.7 11.6V3.2ZM49.5999 31.3L15.8 62.5H14.6V54.4H23.7V46.3H32.7999V38.2H42V30.1H49.7V31.3H49.5999Z" fill="currentcolor"/>
<path d="M10 34L10.7 32L5.9 30.3L5.2 32.3L2.4 31.3L0 38.5L10.4 42L12.8 34.9L10 34ZM6.8 32.2L8.8 32.9L8.6 33.5L6.6 32.8L6.8 32.2ZM9.4 40.2L1.8 37.6L3.3 33.3L10.9 35.9L9.4 40.2Z" fill="currentcolor"/>
<path d="M21 16C23 16 24.7001 14.4 24.7001 12.3C24.7001 10.2 23 8.70001 21 8.70001C19 8.70001 17.3 10.3 17.3 12.4C17.3 14.5 19 16 21 16ZM21 10.2C22.2 10.2 23.2001 11.2 23.2001 12.4C23.2001 13.6 22.2 14.6 21 14.6C19.8 14.6 18.8 13.6 18.8 12.4C18.8 11.2 19.8 10.2 21 10.2Z" fill="currentcolor"/>
<path d="M14.8 26.7L14.3 30L22.5 34.5L20 43.7H29.1L30.2999 40.1H26.6L28.9 31.8L23.2999 28.3L23.6 25.9H34.7L36.4 20.9H26.1L24.2 17.5H15.2L6.19995 29.6L11.3 31.5L14.8 26.7ZM8.59995 28.9L15.9 18.9H23.2999L25.2 22.3H34.2L33.5 24.4H22.2L21.7 29L27.1 32.5L24.5 41.6H28.2L28 42.2H21.9L24.2 33.8L15.9 29.3L17.2 21.1L10.8 29.7L8.59995 28.9Z" fill="currentcolor"/>
<path d="M15.3 32.2L10.8 51.4H18.7L19.8 47.6H17.1L20.5 34.7L15.3 32.2ZM17.9 49.1L17.6 50H12.7L16.3 34.4L18.7 35.6L15.1 49.2H17.9V49.1Z" fill="currentcolor"/>
</svg>
