<svg viewBox="0 0 64 64" fill="none" xmlns="http://www.w3.org/2000/svg">
<path d="M32 23.8C33.2 23.8 34.3 24.2 35.2 24.9C36 25.6 36.5 26.5 36.5 27.5H38C38 26.1 37.4 24.8 36.2 23.8C35.3 23 34.1 22.5 32.8 22.4V18.4H31.3V22.4C30 22.5 28.8 23 27.9 23.8C26.8 24.8 26.1 26.1 26.1 27.5C26.1 28.9 26.7 30.2 27.9 31.2C29 32.2 30.5 32.7 32 32.7C33.2 32.7 34.3 33.1 35.2 33.8C36 34.5 36.5 35.4 36.5 36.4C36.5 37.4 36.1 38.3 35.2 39C34.4 39.7 33.2 40.1 32 40.1C30.8 40.1 29.7 39.7 28.8 39C28 38.3 27.5 37.4 27.5 36.4H26C26 37.8 26.6 39.1 27.8 40.1C28.7 40.9 29.9 41.4 31.2 41.5V45.5H32.7V41.5C34 41.4 35.2 40.9 36.1 40.1C37.2 39.1 37.9 37.8 37.9 36.4C37.9 35 37.3 33.7 36.1 32.7C35 31.7 33.5 31.2 32 31.2C30.8 31.2 29.7 30.8 28.8 30.1C28 29.4 27.5 28.5 27.5 27.5C27.5 26.5 27.9 25.6 28.8 24.9C29.7 24.2 30.8 23.8 32 23.8Z" fill="currentcolor"/>
<path d="M52.7001 32C52.7001 20.6 43.4 11.3 32 11.3C20.6 11.3 11.3 20.6 11.3 32C11.3 43.4 20.6 52.7 32 52.7C43.4 52.7 52.7001 43.4 52.7001 32ZM32 51.2C21.4 51.2 12.8 42.6 12.8 32C12.8 21.4 21.4 12.8 32 12.8C42.6 12.8 51.2001 21.4 51.2001 32C51.2001 42.6 42.6 51.2 32 51.2Z" fill="currentcolor"/>
<path d="M10.2 55.9H3.7V57.4H12.9V48.2H11.4V55.1C5 49.3 1.4 41.2 1.4 32.6C1.5 15.7 15.1 1.99998 31.9 1.99998V0.599976C14.3 0.599976 0 14.9 0 32.5C0 41.4 3.7 49.8 10.2 55.9Z" fill="currentcolor"/>
<path d="M35.5 0.599976H34V2.09998H35.5V0.599976Z" fill="currentcolor"/>
<path d="M39.1001 0.599976H37.6001V2.09998H39.1001V0.599976Z" fill="currentcolor"/>
<path d="M42.7 0.599976H41.2V2.09998H42.7V0.599976Z" fill="currentcolor"/>
<path d="M46.3 0.599976H44.8V2.09998H46.3V0.599976Z" fill="currentcolor"/>
<path d="M53.8001 8.09995H60.3001V6.69995H51.1001V15.9H52.6001V8.99995C59.0001 14.8 62.6001 22.9 62.6001 31.5C62.5001 48.2999 48.9001 62 32.1001 62V63.5C49.7001 63.4 64.0001 49.1 64.0001 31.5C64.0001 22.6 60.3001 14.2 53.8001 8.09995Z" fill="currentcolor"/>
<path d="M30 62H28.5V63.5H30V62Z" fill="currentcolor"/>
<path d="M26.3999 62H24.8999V63.5H26.3999V62Z" fill="currentcolor"/>
<path d="M22.8999 62H21.3999V63.5H22.8999V62Z" fill="currentcolor"/>
<path d="M19.3 62H17.8V63.5H19.3V62Z" fill="currentcolor"/>
</svg>
