<svg viewBox="0 0 64 64" fill="none" xmlns="http://www.w3.org/2000/svg">
<path d="M61.9 53.3L57.2 50.4001C58 49.4001 58.4 48.2001 58.4 46.9001C58.4 43.8001 55.9 41.3 52.8 41.3C51.2 41.3 49.7 42 48.7 43.1L44.1 40.4001C44.1 40 44.2 39.5 44.2 39.1C44.2 32.6 39.1 27.3 32.7 26.9V22.9H43.1V17.5C43.1 16 42.3 14.6 41 13.8L36.3 10.9C37.1 9.90005 37.5 8.70005 37.5 7.40005C37.5 4.30005 35 1.80005 31.9 1.80005C28.8 1.80005 26.3 4.30005 26.3 7.40005C26.3 8.70005 26.7 9.90005 27.5 10.9L23 13.6C21.7 14.4 20.9 15.8 20.9 17.3V22.7001H31.3V26.7001C28.3 26.9001 25.5 28.1 23.4 30.3C21.1 32.6 19.8 35.7001 19.8 39C19.8 39.4001 19.8 39.9 19.9 40.3L15.2 43C14.2 41.9001 12.7 41.2001 11.1 41.2001C8 41.2001 5.5 43.7001 5.5 46.8C5.5 48.1 5.9 49.3 6.7 50.3L2 53.2001C0.8 54.1001 0 55.5 0 57V62.4001H22.2V57C22.2 55.5 21.4 54.1 20.1 53.3L15.4 50.4001C16.2 49.4001 16.6 48.2001 16.6 46.9001C16.6 46 16.4 45.1 15.9 44.3L19.9 42C21.2 47.4001 26 51.4001 31.8 51.4001C35.1 51.4001 38.2 50.1 40.5 47.8C42.1 46.2001 43.2 44.2001 43.7 42L47.7 44.3C47.3 45.1 47 46 47 46.9001C47 48.2001 47.4 49.4001 48.2 50.4001L43.5 53.3C42.2 54.1 41.4 55.5 41.4 57V62.4001H64V57C64 55.5 63.2 54.1 61.9 53.3ZM11.1 42.7001C13.4 42.7001 15.2 44.6 15.2 46.8C15.2 48 14.7 49.1001 13.8 49.9001C11.1 52 7.1 50.8 7 46.8C7 44.5 8.8 42.7001 11.1 42.7001ZM19.4 54.5C20.3 55 20.8 56 20.8 57V61H1.5V57C1.5 56 2 55.1 2.9 54.5L7.9 51.4001C10 52.9001 12.5 52.7001 14.5 51.4001L19.4 54.5ZM41.7 34.4001H37.3C36.9 32.0001 36.1 30 35.1 28.7001C38.1 29.6 40.5 31.7001 41.7 34.4001ZM36.3 39C36.3 40.1 36.2 41.1 36.1 42.1H27.8C27.7 41.1 27.6 40.1 27.6 39C27.6 37.9001 27.7 36.9001 27.8 35.9001H36.1C36.3 36.9001 36.3 37.9001 36.3 39ZM32 3.10005C34.3 3.10005 36.1 5.00005 36.1 7.20005C36.1 8.40005 35.6 9.50005 34.7 10.3C33.6 11.3 31.9 11.6 30.5 11.1C30.3 11 30 10.9 29.8 10.8C29.6 10.7 29.4 10.5 29.2 10.4C28.3 9.60005 27.8 8.50005 27.8 7.30005C27.9 4.90005 29.7 3.10005 32 3.10005ZM22.4 21.3V17.3C22.4 16.3 22.9 15.4 23.8 14.8L28.8 11.7C28.9 11.7 28.9 11.8 29 11.8C29.1 11.9 29.3 12 29.4 12C29.5 12.1 29.6 12.1 29.8 12.2C30 12.3 30.2 12.4 30.4 12.4C30.4 12.4 30.4 12.4 30.5 12.4C31 12.6 31.6 12.7 32.2 12.7C32.8 12.7 33.3 12.6 33.9 12.4C33.9 12.4 33.9 12.4 34 12.4C34.2 12.3 34.4 12.3 34.6 12.2C34.7 12.1 34.9 12.1 35 12C35.1 11.9 35.2 11.9 35.4 11.8C35.5 11.8 35.5 11.7 35.6 11.7L40.6 14.8C41.5 15.3 42 16.3 42 17.3V21.3H22.4ZM32 28.2001C33.5 28.2001 35.1 30.6001 35.9 34.4001H28.1C28.3 33.2001 28.7 32.1 29.1 31.1C29.9 29.3001 31 28.2001 32 28.2001ZM24.4 31.4C25.7 30.1 27.2 29.2001 28.8 28.7001C28.4 29.2001 28.1 29.8001 27.7 30.6C27.2 31.7001 26.8 33.0001 26.6 34.4001H22.2C22.8 33.3001 23.5 32.3 24.4 31.4ZM21.2 39C21.2 37.9001 21.4 36.9001 21.7 35.9001H26.4C26.3 36.9001 26.2 38 26.2 39C26.2 40.1 26.3 41.1 26.4 42.1H21.7C21.4 41.2 21.2 40.1 21.2 39ZM22.3 43.7001H26.7C27.1 46.1001 27.9 48.1001 28.9 49.4001C25.9 48.5 23.5 46.4001 22.3 43.7001ZM32 49.8C30.5 49.8 28.9 47.4 28.1 43.6H35.9C35.7 44.8 35.3 45.9001 34.9 46.9001C34.1 48.8001 33 49.8 32 49.8ZM39.6 46.7001C38.3 48 36.8 48.9001 35.2 49.4001C35.6 48.9001 35.9 48.3 36.3 47.5C36.8 46.4001 37.2 45.1001 37.4 43.7001H41.8C41.2 44.7001 40.5 45.8 39.6 46.7001ZM42.3 42.2001H37.6C37.7 41.2001 37.8 40.1 37.8 39.1C37.8 38 37.7 37 37.6 36H42.3C42.6 37 42.8 38 42.8 39.1C42.8 40.1 42.6 41.2001 42.3 42.2001ZM52.9 42.7001C55.2 42.7001 57 44.6 57 46.8C57 49.9 53.9 51.5 51.4 50.7001C49.6 49.9001 48.7 48.6 48.7 46.8C48.7 44.5 50.6 42.7001 52.9 42.7001ZM62.5 60.9001H43.3V56.9001C43.3 55.9001 43.8 55 44.7 54.4001L49.7 51.3C51.9 52.7001 54.1 52.7001 56.3 51.3L61.3 54.4001C62 55 62.5 56 62.5 57V60.9001Z" fill="currentcolor"/>
</svg>
