<svg viewBox="0 0 64 64" fill="none" xmlns="http://www.w3.org/2000/svg">
<path d="M56.5999 38.7001H55.8999H53.5999V12.8H46.6999V38.6H41.8999V17.2H34.9999V38.6H30.1999V22.9H23.2999V38.6H18.4999V28.6H11.5999V38.7001H8.0999H7.3999V39.4001C7.3999 46 10.0999 52.4001 14.7999 57L15.3999 57.5C19.8999 61.7001 25.7999 64 31.9999 64C33.4999 64 35.0999 63.9 36.5999 63.6C41.0999 62.8 45.2999 60.7001 48.6999 57.5L49.2999 57C53.9999 52.4001 56.6999 46 56.6999 39.4001V38.7001H56.5999ZM24.6999 24.4H28.6999V38.7001H24.6999V24.4ZM12.9999 30H16.9999V38.6H12.9999V30ZM8.8999 40.1H19.0999C19.1999 44.7 19.8999 48.9001 20.9999 52.5C19.1999 53.4001 17.3999 54.6 15.7999 56C11.5999 51.8 9.0999 46.1 8.8999 40.1ZM16.9999 57C18.3999 55.8 19.8999 54.8 21.5999 54C22.8999 57.5 24.6999 60.2001 26.7999 62C22.9999 61 19.6999 59.4001 16.9999 57ZM31.2999 62.5C27.8999 62.1 24.8999 58.5 22.8999 53.3C25.4999 52.2001 28.3999 51.5 31.2999 51.4001V62.5ZM31.2999 50C28.1999 50.1 25.1999 50.8001 22.3999 51.9001C21.2999 48.5 20.6999 44.5 20.5999 40.1H31.2999V50ZM48.1999 14.3H52.1999V38.7001H48.1999V14.3ZM36.4999 18.7H40.4999V38.7001H36.4999V18.7ZM32.6999 40.1H43.3999C43.2999 44.4 42.6999 48.5 41.5999 51.9001C38.7999 50.7001 35.7999 50.1 32.6999 50V40.1ZM32.6999 62.5V51.5C35.5999 51.6 38.4999 52.2001 41.0999 53.4001C39.1999 58.5 36.1999 62 32.6999 62.5ZM37.2999 61.9001C39.3999 60.2001 41.1999 57.4001 42.4999 53.9001C44.0999 54.7001 45.6999 55.7001 47.0999 56.9001C44.2999 59.4001 40.9999 61 37.2999 61.9001ZM48.0999 56C46.4999 54.6 44.7999 53.4001 42.8999 52.5C44.0999 48.9001 44.7999 44.7 44.7999 40.1H54.9999C54.8999 46.1 52.3999 51.8 48.0999 56Z" fill="currentcolor"/>
<path d="M48.1001 0C46.5001 0 45.2001 1.3 45.2001 2.9C45.2001 3.4 45.4001 3.9 45.6001 4.3L39.1001 10.8C38.7001 10.5 38.2001 10.4 37.7001 10.4C36.4001 10.4 35.3001 11.3 34.9001 12.6H29.0001C28.7001 11.3 27.6001 10.4 26.2001 10.4C24.6001 10.4 23.3001 11.7 23.3001 13.3C23.3001 13.8 23.5001 14.3 23.7001 14.8L17.0001 21.5C16.6001 21.2 16.1001 21.1 15.5001 21.1C13.9001 21.1 12.6001 22.4 12.6001 24C12.6001 25.6 13.9001 26.9 15.5001 26.9C17.1001 26.9 18.4001 25.6 18.4001 24C18.4001 23.5 18.3001 23 18.0001 22.6L24.8001 15.8C25.2001 16 25.7001 16.2 26.2001 16.2C27.5001 16.2 28.6001 15.3 28.9001 14.1H35.0001C35.3001 15.3 36.5001 16.2 37.8001 16.2C39.4001 16.2 40.7001 14.9 40.7001 13.3C40.7001 12.8 40.6001 12.3 40.3001 11.9L46.8001 5.4C47.2001 5.6 47.7001 5.8 48.2001 5.8C49.8001 5.8 51.1001 4.5 51.1001 2.9C51.1001 1.3 49.7001 0 48.1001 0ZM15.6001 25.4C14.8001 25.4 14.2001 24.8 14.2001 24C14.2001 23.2 14.8001 22.6 15.6001 22.6C16.4001 22.6 17.0001 23.2 17.0001 24C17.0001 24.7 16.4001 25.4 15.6001 25.4ZM26.3001 14.7C25.5001 14.6 25.0001 14.2 24.9001 13.3C24.9001 12.5 25.5001 11.9 26.3001 11.9C27.1001 11.9 27.7001 12.5 27.7001 13.3C27.7001 14.1 27.1001 14.7 26.3001 14.7ZM37.7001 14.7C36.9001 14.7 36.3001 14.1 36.3001 13.3C36.3001 12.5 36.9001 11.9 37.7001 11.9C38.1001 11.9 38.4001 12 38.7001 12.3C39.0001 12.6 39.1001 12.9 39.1001 13.3C39.1001 14.1 38.5001 14.7 37.7001 14.7ZM48.1001 4.3C47.3001 4.3 46.7001 3.7 46.7001 2.9C46.7001 2.1 47.3001 1.5 48.1001 1.5C48.9001 1.5 49.5001 2.1 49.5001 2.9C49.5001 3.6 48.9001 4.3 48.1001 4.3Z" fill="currentcolor"/>
</svg>
