<svg viewBox="0 0 64 64" fill="none" xmlns="http://www.w3.org/2000/svg">
<path d="M60.7 59.2V24.7H51.9V59.2H45V30.6H36.2V59.2H29.3V38.1H20.5V59.2H13.6V45.7H4.9V59.2H0V60.7H64V59.2H60.7ZM12.2 59.2H6.4V47.2H12.2V59.2ZM27.9 59.2H22.1V39.6H27.9V59.2ZM43.5 59.2H37.7V32.1H43.5V59.2ZM59.2 59.2H53.4V26.2H59.2V59.2Z" fill="currentcolor"/>
<path d="M55.5 3.29999C53.4 3.29999 51.7 4.99999 51.7 7.09999C51.7 7.89999 51.9 8.59999 52.3 9.19999L42.7 18.8C42.1 18.4 41.4 18.2 40.6 18.2C38.8 18.2 37.2 19.5 36.9 21.3H28.1C27.8 19.5 26.2 18.2 24.4 18.2C22.3 18.2 20.6 19.9 20.6 22C20.6 22.8 20.8 23.5 21.3 24.1L11.4 34C10.8 33.6 10.1 33.3 9.3 33.3C7.2 33.3 5.5 35 5.5 37.1C5.5 39.2 7.2 40.9 9.3 40.9C11.4 40.9 13.1 39.2 13.1 37.1C13.1 36.3 12.9 35.6 12.5 35L22.4 25.1C23 25.5 23.7 25.7 24.5 25.7C26.3 25.7 27.8 24.4 28.2 22.7H37C37.4 24.4 38.9 25.7 40.7 25.7C42.8 25.7 44.5 24 44.5 21.9C44.5 21.1 44.3 20.4 43.9 19.8L53.5 10.2C54.1 10.6 54.8 10.8 55.6 10.8C57.7 10.8 59.4 9.09999 59.4 6.99999C59.3 4.99999 57.6 3.29999 55.5 3.29999ZM9.3 39.4C8 39.4 7 38.4 7 37.1C7 35.8 8 34.8 9.3 34.8C10.6 34.8 11.6 35.8 11.6 37.1C11.6 38.4 10.5 39.4 9.3 39.4ZM24.5 24.2C23.2 24.2 22.3 23.2 22.2 21.9C22.2 20.6 23.2 19.6 24.5 19.6C25.8 19.6 26.8 20.6 26.8 21.9C26.7 23.2 25.7 24.2 24.5 24.2ZM40.7 24.2C39.5 24.2 38.4 23.2 38.4 21.9C38.4 20.6 39.4 19.6 40.7 19.6C41.3 19.6 41.9 19.8 42.3 20.3C42.7 20.7 43 21.3 43 21.9C43 23.2 42 24.2 40.7 24.2ZM55.5 9.39999C54.2 9.39999 53.2 8.39999 53.2 7.09999C53.2 5.79999 54.2 4.79999 55.5 4.79999C56.8 4.79999 57.8 5.79999 57.8 7.09999C57.8 8.39999 56.8 9.39999 55.5 9.39999Z" fill="currentcolor"/>
</svg>
