<svg viewBox="0 0 64 64" fill="none" xmlns="http://www.w3.org/2000/svg">
<path d="M53.0002 50.5001V52.0001H57.3002C52.2002 58.4001 42.4002 62.5001 32.0002 62.5001C21.0002 62.5001 10.7002 57.9001 5.9002 50.8001L4.7002 51.6001C9.8002 59.3001 20.3002 64.0001 32.0002 64.0001C42.8002 64.0001 52.5002 60.0001 58.0002 53.4001V57.0001H59.5002V50.5001H53.0002Z" fill="currentcolor"/>
<path d="M11 12.1001H6.7C11.8 5.60006 21.6 1.50006 32 1.50006C43 1.50006 53.3 6.10006 58.1 13.2001L59.3 12.4001C54.2 4.70006 43.7 6.10352e-05 32 6.10352e-05C21.2 6.10352e-05 11.5 4.00006 6 10.6001V7.00006H4.5V13.5001H11V12.1001Z" fill="currentcolor"/>
<path d="M31.5 27.2001C31.8 27.5001 32 27.8001 32 28.1001H33.5C33.5 27.3001 33.2 26.6001 32.5 26.0001C32.1 25.6001 31.6 25.4001 31 25.3001V23.7001H29.5V25.3001C29 25.4001 28.4 25.6001 28 26.0001C27.4 26.5001 27 27.3001 27 28.1001C27 28.9001 27.3 29.6001 28 30.2001C28.6 30.7001 29.4 31.0001 30.2 31.0001C30.7 31.0001 31.1 31.2001 31.5 31.4001C31.8 31.7001 32 32.0001 32 32.3001C32 32.6001 31.8 33.0001 31.5 33.2001C30.8 33.8001 29.7 33.8001 29 33.2001C28.7 32.9001 28.5 32.6001 28.5 32.3001H27C27 33.1001 27.3 33.8001 28 34.4001C28.4 34.8001 28.9 35.0001 29.5 35.1001V36.7001H31V35.1001C31.6 35.0001 32.1 34.7001 32.5 34.4001C33.1 33.9001 33.5 33.1001 33.5 32.3001C33.5 31.5001 33.2 30.8001 32.5 30.2001C31.9 29.7001 31.1 29.4001 30.3 29.4001C29.8 29.4001 29.4 29.2001 29 29.0001C28.7 28.7001 28.5 28.4001 28.5 28.1001C28.5 27.8001 28.7 27.4001 29 27.2001C29.6 26.6001 30.8 26.6001 31.5 27.2001Z" fill="currentcolor"/>
<path d="M58.9001 47.4001V20.1001H55.4001V16.6001H5.1001V43.9001H8.6001V47.4001H58.9001ZM57.5001 21.6001V45.9001H10.1001V43.8001H55.4001V21.6001H57.5001ZM6.5001 18.1001H53.9001V42.4001H6.5001V18.1001Z" fill="currentcolor"/>
<path d="M46.9 21.6001V20.9001H13.6V21.6001C13.6 22.9001 12.5 24.0001 11.2 24.0001H10.5V36.4001H11.2C12.5 36.4001 13.6 37.5001 13.6 38.8001V39.5001H46.8V38.8001C46.8 37.5001 47.9 36.4001 49.2 36.4001H50V24.0001H49.3C47.9 24.0001 46.9 22.9001 46.9 21.6001ZM48.6 35.0001C47 35.3001 45.8 36.5001 45.5 38.1001H15C14.7 36.5001 13.5 35.3001 11.9 35.0001V25.4001C13.5 25.1001 14.7 23.9001 15 22.3001H45.4C45.7 23.9001 46.9 25.1001 48.5 25.4001V35.0001H48.6Z" fill="currentcolor"/>
</svg>
