<svg viewBox="0 0 64 64" fill="none" xmlns="http://www.w3.org/2000/svg">
<path d="M44.4001 48.4C44.4001 41.6 38.8001 36 32.0001 36C25.2001 36 19.6001 41.6 19.6001 48.4C19.6001 55.2 25.2001 60.8 32.0001 60.8C38.8001 60.8 44.4001 55.2 44.4001 48.4ZM32.0001 59.3C26.0001 59.3 21.1001 54.4 21.1001 48.4C21.1001 42.4 26.0001 37.5 32.0001 37.5C38.0001 37.5 42.9001 42.4 42.9001 48.4C42.9001 54.4 38.0001 59.3 32.0001 59.3Z" fill="black"/>
<path d="M32 43.2001C29.2 43.2001 26.8 45.5001 26.8 48.4001C26.8 51.3001 29.1 53.6001 32 53.6001C34.9 53.6001 37.2001 51.3001 37.2001 48.4001C37.2001 45.5001 34.8 43.2001 32 43.2001ZM32 52.1001C30 52.1001 28.3 50.4001 28.3 48.4001C28.3 46.4001 30 44.7001 32 44.7001C34 44.7001 35.7001 46.4001 35.7001 48.4001C35.7001 50.4001 34 52.1001 32 52.1001Z" fill="black"/>
<path d="M51 58C58.5 54 63.3 49.1 63.5 48.9L64 48.4L63.5 47.9C63.4 47.8 60 44.4 54.6 41V11H47.3V37C45.5 36.2 43.8 35.6 42 35.1V15.7H34.7V33.7C32.8 33.5 31.3 33.5 29.4 33.7V21.8H22V35C20.2 35.5 18.5 36.2 16.7 36.9V27.9H9.4V40.9C4 44.4 0.6 47.7 0.5 47.8L0 48.4L0.5 48.9C0.7 49.1 5.5 53.9 13 58C19.5 61.5 25.9 63.2 32 63.2C38.1 63.2 44.5 61.4 51 58ZM2.1 48.4C3.3 47.3 6.3 44.6 10.5 42L10.8 41.8V29.4H15.2V39.3L16.2 38.8C18.4 37.8 20.6 36.9 22.8 36.3L23.3 36.2V23.3H27.7V35.3L28.5 35.2C31 34.9 32.6 34.9 35.1 35.2L35.9 35.3V17.2H40.3V36.2L40.8 36.3C43 36.9 45.2 37.7 47.4 38.8L48.4 39.3V12.4H52.8V41.7L53.1 41.9C57.3 44.6 60.4 47.2 61.5 48.3C60.1 49.6 55.8 53.4 49.9 56.6C44.1 60 37.9 61.7 32 61.7C26.1 61.7 19.9 60 13.7 56.6C7.8 53.5 3.5 49.7 2.1 48.4Z" fill="black"/>
<path d="M50.7 0.800049C49 0.800049 47.6 2.20005 47.6 3.90005C47.6 4.30005 47.7 4.60005 47.8 4.90005L40.9 9.20005C40.3 8.00005 39.3 7.50005 38 7.30005C36.5 7.30005 35.3 8.30005 35 9.70005H28.4C28.1 8.30005 26.9 7.30005 25.4 7.30005C23.7 7.30005 22.3 8.70005 22.3 10.4C22.3 11 22.5 11.6 22.8 12L15.2 19.6C14.7 19.3001 14.2 19.1 13.6 19.1C11.9 19.1 10.5 20.5 10.5 22.2001C10.5 23.9001 11.9 25.3 13.6 25.3C15.3 25.3 16.7 23.9001 16.7 22.2001C16.7 21.6 16.5 21.1 16.3 20.6L23.9 13C24.4 13.3 24.9 13.4 25.5 13.4C26.9 13.4 28.1 12.4 28.5 11.1H35C35.4 12.4 36.6 13.4 38 13.4C39.6 13.4 40.8 12.2 41.1 10.7L48.7 6.00005C49.1 6.70005 49.9 7.00005 50.7 7.00005C52.4 7.00005 53.8 5.60005 53.8 3.90005C53.8 2.20005 52.4 0.800049 50.7 0.800049ZM13.5 23.9C12.6 23.9 11.9 23.2 11.9 22.3C11.9 21.4 12.6 20.7001 13.5 20.7001C14.4 20.7001 15.1 21.4 15.1 22.3C15.2 23.2 14.4 23.9 13.5 23.9ZM25.3 12.1C24.2 12 23.7 11.4 23.7 10.5C23.7 9.60005 24.4 8.90005 25.3 8.90005C26.2 8.90005 26.9 9.60005 26.9 10.6C27 11.4 26.2 12.1 25.3 12.1ZM38 12.1C37.1 12.1 36.4 11.4 36.4 10.5C36.4 9.60005 37.1 8.90005 38 8.90005C39 9.00005 39.5 9.50005 39.6 10.5C39.6 11.3 38.9 12.1 38 12.1ZM50.7 5.50005C49.8 5.50005 49.1 4.80005 49.1 3.90005C49.1 3.00005 49.8 2.30005 50.7 2.30005C51.6 2.30005 52.3 3.00005 52.3 3.90005C52.3 4.80005 51.6 5.50005 50.7 5.50005Z" fill="black"/>
</svg>
