<svg width="64" height="64" viewBox="0 0 64 64" fill="none" xmlns="http://www.w3.org/2000/svg">
<path d="M59.1 36.3C59.7 32.5 59.5 28.5 58.5 24.8L63 21.4L59.7 14.6L54.2 16C51.9 12.9 49 10.2 45.6 8.3L46.4 2.7L39.2 0L36.3 4.9C32.4 4.3 28.5 4.5 24.8 5.5L21.3 1L14.5 4.3L15.9 9.8C12.8 12.1 10.1 15 8.2 18.4L2.6 17.6L0 24.8L4.9 27.7C4.3 31.5 4.5 35.5 5.5 39.2L1 42.7L4.3 49.5L9.8 48.1C12.1 51.2 15 53.9 18.4 55.8L17.6 61.4L24.8 63.9L27.7 59C31.6 59.6 35.5 59.4 39.2 58.4L42.6 62.9L49.4 59.6L48 54.1C51.1 51.8 53.8 48.9 55.7 45.5L61.3 46.3L63.8 39.1L59.1 36.3ZM60.5 44.7L55.1 44C52.7 48.1 49.9 51.5 46.5 53.6L47.9 58.9L43.2 61.2L39.9 56.8C35.6 58.1 31.3 58.4 27.1 57.5L24.3 62.2L19.4 60.5L20.2 55C16.3 52.9 13 50.1 10.6 46.4L5.3 47.8L3 43.1L7.4 39.8C5.8 35.9 5.8 31.6 6.5 27L1.8 24.2L3.5 19.3L8.9 20C11 16 13.9 12.9 17.5 10.4L16.1 5.1L20.8 2.8L24.1 7.2C28.3 5.9 32.6 5.7 36.9 6.5L39.7 1.8L44.6 3.5L44 8.9C48 11 51.2 13.9 53.6 17.5L58.9 16.1L61.2 20.8L56.8 24.1C58 28.7 58.4 33 57.5 37L62.2 39.8L60.5 44.7Z" fill="currentcolor"/>
<path d="M31.9999 9.39999C19.5999 9.39999 9.3999 19.6 9.3999 32C9.3999 44.4 19.4999 54.6 31.9999 54.6C44.4999 54.6 54.5999 44.4 54.5999 32C54.5999 19.6 44.3999 9.39999 31.9999 9.39999ZM31.9999 53.1C20.3999 53.1 10.8999 43.6 10.8999 32C10.8999 20.4 20.3999 10.9 31.9999 10.9C43.5999 10.9 53.0999 20.4 53.0999 32C53.0999 43.6 43.5999 53.1 31.9999 53.1Z" fill="currentcolor"/>
<path d="M26.4999 23.8C18.9999 25.8 13.5999 31.3 13.3999 31.5L12.8999 32L13.3999 32.5C13.4999 32.6 16.3999 35.5 20.7999 37.9C24.5999 39.9 28.3999 41 31.9999 41C35.5999 41 39.3999 40 43.1999 37.9C47.5999 35.5 50.4999 32.7 50.5999 32.5L51.0999 32L50.5999 31.5C50.3999 31.3 44.9999 25.9 37.4999 23.8C33.7999 22.8 30.1999 22.8 26.4999 23.8ZM21.3999 36.6C18.2999 34.9 15.9999 32.9 14.9999 32C16.3999 30.7 20.5999 27.3 25.8999 25.5C24.1999 27.1 23.0999 29.4 23.0999 32C23.0999 34.5 24.1999 36.8 25.8999 38.5C24.3999 38 22.8999 37.4 21.3999 36.6ZM31.9999 39.5C27.8999 39.5 24.4999 36.1 24.4999 32C24.4999 27.9 27.8999 24.5 31.9999 24.5C36.0999 24.5 39.4999 27.9 39.4999 32C39.4999 36.1 36.0999 39.5 31.9999 39.5ZM48.9999 32C47.9999 32.9 45.5999 34.9 42.4999 36.6C40.9999 37.4 39.5999 38 38.0999 38.5C39.7999 36.9 40.8999 34.6 40.8999 32C40.8999 29.5 39.7999 27.2 38.0999 25.5C43.4999 27.3 47.5999 30.7 48.9999 32Z" fill="currentcolor"/>
<path d="M31.9998 28.3C29.9998 28.3 28.2998 29.9 28.2998 32C28.2998 34 29.8998 35.7 31.9998 35.7C33.9998 35.7 35.6998 34.1 35.6998 32C35.6998 30 33.9998 28.3 31.9998 28.3ZM31.9998 34.2C30.7998 34.2 29.7998 33.2 29.7998 32C29.7998 30.8 30.7998 29.8 31.9998 29.8C33.1998 29.8 34.1998 30.8 34.1998 32C34.1998 33.2 33.1998 34.2 31.9998 34.2Z" fill="currentcolor"/>
</svg>
