<svg viewBox="0 0 64 64" fill="none" xmlns="http://www.w3.org/2000/svg">
<path d="M60.5 9.80008H3.5V47.7001H60.6V9.80008H60.5ZM59.1 11.3001V15.4001H4.9V11.3001H59.1ZM4.9 46.2001V16.8001H59V46.2001H4.9Z" fill="currentcolor"/>
<path d="M0 51.3001L2.8 54.2001H61.3L64.1 51.3001V48.8001H0V51.3001ZM1.5 50.3001H62.6V50.7001L60.7 52.7001H3.4L1.5 50.7001V50.3001Z" fill="currentcolor"/>
<path d="M15.3999 12.5001H13.8999V14.0001H15.3999V12.5001Z" fill="currentcolor"/>
<path d="M12 12.5001H10.5V14.0001H12V12.5001Z" fill="currentcolor"/>
<path d="M8.6001 12.5001H7.1001V14.0001H8.6001V12.5001Z" fill="currentcolor"/>
<path d="M7.2002 30.4001H39.5002V19.5001H7.2002V30.4001ZM8.6002 21.0001H38.0002V28.9001H8.6002V21.0001Z" fill="currentcolor"/>
<path d="M41.8999 30.4001H56.7999V19.5001H41.8999V30.4001ZM43.3999 21.0001H55.3999V28.9001H43.3999V21.0001Z" fill="currentcolor"/>
<path d="M7.2002 43.7001H22.1002V32.9001H7.2002V43.7001ZM8.6002 34.3001H20.6002V42.2001H8.6002V34.3001Z" fill="currentcolor"/>
<path d="M24.5 43.7001H39.4V32.9001H24.5V43.7001ZM26 34.3001H38V42.2001H26V34.3001Z" fill="currentcolor"/>
<path d="M41.8999 43.7001H56.7999V32.9001H41.8999V43.7001ZM43.3999 34.3001H55.3999V42.2001H43.3999V34.3001Z" fill="currentcolor"/>
</svg>
