<svg viewBox="0 0 64 64" fill="none" xmlns="http://www.w3.org/2000/svg">
<path d="M61.5001 58.7L53.7001 49.8C55.3001 48 56.3001 45.8 56.6001 43.5C57.5001 37.3 53.5001 31.3 47.6001 29.7C46.5001 29.4 45.4001 29.3 44.3001 29.3C41.8001 29.3 39.5001 30.1 37.5001 31.3C36.3001 30.1 35.4001 28.8 34.7001 27.3C36.0001 25.9 37.1001 24.1 37.8001 22.1C39.2001 22 40.1001 20.1 40.1001 17.5C40.1001 15.5 39.5001 13.9 38.5001 13.2C38.7001 11.9 38.8001 10.5 38.9001 9.2C39.3001 3.1 37.6001 2.2 34.5001 1.3C34.5001 1.1 34.3001 1.1 34.0001 1C32.0001 0.4 29.7001 0 27.3001 0C24.9001 0 22.5001 0.4 20.6001 1C20.4001 1.1 20.1001 1.2 19.9001 1.2C16.8001 2.1 15.1001 3 15.5001 9.1C15.6001 10 15.6001 10.8 15.7001 11.6C15.8001 12.1 15.8001 12.6 15.9001 13.1C14.9001 13.7 14.3001 15.4 14.3001 17.4C14.3001 20 15.3001 21.8 16.6001 22C17.3001 24.1 18.4001 25.8 19.7001 27.2C17.7001 32 13.4001 34.1 9.6001 36C7.5001 37 5.7001 37.9 4.5001 39.2C1.6001 42.3 1.6001 46.1 1.6001 48.6V49.3H34.7001C36.5001 51.6 39.1001 53.2 42.1001 53.8C44.8001 54.3 47.6001 53.9 50.0001 52.7L56.5001 62.6C57.1001 63.5 58.1001 64 59.2001 64C59.9001 64 60.6001 63.8 61.2001 63.3C61.9001 62.8 62.3001 61.9 62.4001 61.1C62.4001 60.2 62.1001 59.3 61.5001 58.7ZM20.3001 2.6C20.5001 2.5 20.8001 2.5 21.0001 2.4C22.8001 1.8 25.0001 1.5 27.3001 1.5C29.6001 1.5 31.8001 1.8 33.6001 2.4C33.9001 2.5 34.1001 2.6 34.3001 2.6C36.9001 3.4 38.0001 3.7 37.7001 8.6C37.5001 8.3 37.2001 8 36.9001 7.8C35.7001 6.8 34.1001 6.4 32.5001 6.7C31.0001 7 29.4001 7.5 27.7001 8.3C27.7001 8.3 24.2001 9.7 20.3001 8.4C19.1001 8 17.8001 8.3 16.9001 9.1V9C16.6001 3.8 17.7001 3.4 20.3001 2.6ZM17.8001 21L17.5001 20.3L16.8001 20.6C16.5001 20.6 15.8001 19.5 15.8001 17.5C15.8001 15.6 16.5001 14.5 16.8001 14.4L17.3001 14.3C17.5001 13.6 17.4001 12.7 17.2001 11.8C17.3001 11.5 17.3001 11.3 17.4001 11.1C17.7001 10.1 18.9001 9.6 19.9001 9.9C24.4001 11.4 28.2001 9.8 28.4001 9.7C30.0001 9 31.5001 8.5 32.9001 8.2C34.0001 8 35.1001 8.3 36.0001 9C36.9001 9.7 37.3001 10.6 37.4001 11.7C37.2001 12.6 37.1001 13.5 37.3001 14.2L37.8001 14.3C38.2001 14.4 38.8001 15.5 38.8001 17.4C38.8001 19.4 38.1001 20.5 37.7001 20.5L37.0001 20.2L36.8001 21C35.2001 26 31.5001 29.2 27.3001 29.2C23.1001 29.2 19.4001 26 17.8001 21ZM20.9001 28.3C22.8001 29.8 25.0001 30.7 27.3001 30.7C29.7001 30.7 31.9001 29.8 33.8001 28.3C34.5001 29.7 35.4001 31 36.5001 32.2C34.0001 34.3 32.3001 37.4 32.1001 41C32.1001 41.1 32.1001 41.2 32.1001 41.3C31.1001 42.4 29.7001 43.1 28.1001 43.2C26.2001 43.3 24.3001 42.7 23.1001 41.4C20.8001 39.1 18.8001 36.5 16.9001 33.5C18.5001 32.1 19.9001 30.4 20.9001 28.3ZM3.1001 47.9C3.1001 45.6 3.3001 42.6 5.6001 40.3C6.6001 39.3 8.3001 38.4 10.3001 37.4C12.0001 36.5 13.9001 35.6 15.7001 34.3C17.6001 37.3 19.7001 40 22.0001 42.3C23.4001 43.7 25.5001 44.5 27.6001 44.5C27.8001 44.5 27.9001 44.5 28.1001 44.5C29.6001 44.4 31.0001 43.9 32.1001 43.1C32.3001 44.8 32.9001 46.4 33.7001 47.9H3.1001ZM60.2001 62.2C59.4001 62.8 58.2001 62.6 57.7001 61.8L50.5001 50.8L49.9001 51.1C47.7001 52.4 45.0001 52.9 42.4001 52.4C37.0001 51.4 33.2001 46.5 33.5001 41C33.9001 35.2 38.6001 30.7 44.4001 30.7C45.4001 30.7 46.3001 30.8 47.3001 31.1C52.6001 32.5 56.1001 37.9 55.3001 43.3C55.0001 45.6 53.9001 47.7 52.3001 49.3L51.8001 49.8L60.4001 59.7C60.7001 60.1 60.9001 60.5 60.8001 61C60.8001 61.4 60.6001 61.9 60.2001 62.2Z" fill="currentcolor"/>
<path d="M49.6 34.1H48.2V45.8H45.1V38H43.7V45.8H40.2V40.3H38.8V45.8H37V47.3H51.4V45.8H49.6V34.1Z" fill="currentcolor"/>
</svg>
