<svg viewBox="0 0 64 64" fill="none" xmlns="http://www.w3.org/2000/svg">
<path d="M30.2 63.7C43.8 63.7 55.8 54.5 59.3 41.3L59.5 40.6L31.3 33L31.4 32.9H31V3.29999H30.3C22.5 3.29999 15.6 5.99999 9.9 11.3L9.4 11.8L8.9 12.3C7.5 13.7 6.2 15.3 5.1 17.1L4.7 17.7C4.7 17.8 4.6 17.9 4.6 17.9L4.2 18.5C3.8 19.3 3.3 20.1 2.9 21L2.7 21.4L2.3 22.4C2 23.2 1.7 24.1 1.4 24.9L1.3 25.4L1 26.3C0.8 27.1 0.6 28 0.5 28.8L0.4 29.4L0.3 30.2C0.1 31.3 0 32.1 0 32.9V33.6V34.3C0 35.1 0.1 36 0.2 36.8L0.3 37.6L0.4 38.2C0.5 39 0.7 39.9 0.9 40.7L1.2 41.6L1.4 42.1C1.7 42.9 2 43.8 2.3 44.6L2.8 45.6L3 46C3.4 46.9 3.8 47.7 4.3 48.5H4.1L4.8 49.6L5 49.9C5.6 50.8 6.2 51.6 6.9 52.4L8 54L8.2 54.2C10 56.1 12.1 57.8 14.4 59.2L15 59.6L15.6 60C17.8 61.2 19.8 62 22.2 62.7C24.9 63.3 27.6 63.7 30.2 63.7ZM29.5 4.79999V31.7L24.9 26.9L24.5 26.5L20.7 22.5L16.9 18.5L14.3 16L10.7 12.3C16 7.49999 22.3 4.89999 29.5 4.79999ZM9.7 13.3L12.8 16.5L13.3 17H6.6C7.6 15.7 8.6 14.5 9.7 13.3ZM5.3 19.1C5.4 18.9 5.5 18.7 5.7 18.5H14.8L17.2 21H4.3C4.6 20.4 5 19.7 5.3 19.1ZM3.6 22.5H18.5L21 25H2.7C3 24.2 3.3 23.3 3.6 22.5ZM2.3 26.5H22.4L24.8 29H1.8C2 28.1 2.1 27.3 2.3 26.5ZM1.6 30.4H26.2L28.6 32.9H1.5C1.5 32.1 1.5 31.3 1.6 30.4ZM1.5 34.4H28.8L27.4 36.9H1.7C1.6 36.1 1.5 35.2 1.5 34.4ZM2.4 40.9C2.2 40 2 39.2 1.9 38.4H26.5L25.1 40.9H2.4ZM3.8 44.8C3.5 44 3.1 43.1 2.9 42.3H24.3L22.9 44.8H3.8ZM4.5 46.3H22L20.6 48.8H5.9C5.4 48 4.9 47.1 4.5 46.3ZM6.9 50.2H19.7L18.3 52.7H8.9C8.2 52 7.5 51.1 6.9 50.2ZM15.2 58C13.4 56.9 11.8 55.6 10.3 54.2H17.4L15.2 58ZM30.6 34.3L57.8 41.6C54.2 53.8 43 62.2 30.3 62.2C27.8 62.2 25.3 61.9 22.8 61.2C20.4 60.6 18.6 59.8 16.5 58.7L30.6 34.3Z" fill="currentcolor"/>
<path d="M33.8001 0.299988H33.1001V31.1L62.8001 39.1L63.0001 38.4C63.7001 35.7 64.0001 33.4 64.0001 30.6C64.0001 13.9 50.5001 0.299988 33.8001 0.299988ZM61.7001 37.2L34.5001 29.9V1.79999C50.0001 2.19999 62.5001 14.9 62.5001 30.5C62.5001 32.9 62.3001 34.9 61.7001 37.2Z" fill="currentcolor"/>
</svg>
