<svg viewBox="0 0 64 64" fill="none" xmlns="http://www.w3.org/2000/svg">
<path d="M44.9001 51.4L37.8 47C39.1 45.6 39.8 43.8 39.8 41.8C39.8 37.5 36.3 34 32 34C27.7 34 24.2001 37.5 24.2001 41.8C24.2001 43.7 24.9001 45.6 26.2001 47L19.1 51.4C17.3001 52.5 16.3 54.4 16.3 56.5V64H47.8V56.5C47.8 54.4 46.7001 52.5 44.9001 51.4ZM25.7001 41.8C25.7001 38.3 28.5 35.5 32 35.5C35.5 35.5 38.3 38.3 38.3 41.8C38.3 43.6 37.5 45.4 36.2001 46.6C34 48.5 30.5 48.8 27.8 46.6C26.4 45.3 25.7001 43.6 25.7001 41.8ZM46.3 62.5H17.7001V56.4C17.7001 54.8 18.5 53.4 19.8 52.5L27.2001 47.8C29.8001 49.6 32.6 49.9 35.5 48.5C35.6 48.5 36.6 47.8 36.6 47.8L44 52.5C45.3 53.3 46.1 54.8 46.1 56.4V62.5H46.3Z" fill="currentcolor"/>
<path d="M57.0999 27.1H55.5999V28.6H57.0999V27.1Z" fill="currentcolor"/>
<path d="M57.0999 30.5H55.5999V32H57.0999V30.5Z" fill="currentcolor"/>
<path d="M12.5 9.69997H17.8V20.6H19.2V9.69997H23L13.3 -3.05176e-05L3.69995 9.69997H7.79995V40.4H9.19995V8.19997H7.19995L13.3 2.09997L19.4 8.19997H12.5V9.69997Z" fill="currentcolor"/>
<path d="M29 31.4H30.5V12.1H29L33.7 7.49996L38.3 12.1H33V13.6H37.1V18H38.6V13.6H41.9L33.7 5.39996L25.5 13.6H29V31.4Z" fill="currentcolor"/>
<path d="M19.3 32.6H17.8V34.1H19.3V32.6Z" fill="currentcolor"/>
<path d="M19.3 29.2H17.8V30.7H19.3V29.2Z" fill="currentcolor"/>
<path d="M19.3 22.4H17.8V23.9H19.3V22.4Z" fill="currentcolor"/>
<path d="M19.3 25.8H17.8V27.3H19.3V25.8Z" fill="currentcolor"/>
<path d="M38.5999 20.3H37.0999V21.8H38.5999V20.3Z" fill="currentcolor"/>
<path d="M38.5999 23.7H37.0999V25.2H38.5999V23.7Z" fill="currentcolor"/>
<path d="M38.5999 27.1H37.0999V28.6H38.5999V27.1Z" fill="currentcolor"/>
<path d="M51.5 20.7H55.6V25.1H57.1V20.7H60.3L52.2 12.5L44 20.7H47.5V35.7H49V19.2H47.5L52.2 14.6L56.8 19.2H51.5V20.7Z" fill="currentcolor"/>
</svg>
