<svg viewBox="0 0 64 64" fill="none" xmlns="http://www.w3.org/2000/svg">
<path d="M31.9998 23.4C27.1998 23.4 23.2998 27.3 23.2998 32.1C23.2998 36.9 27.1998 40.8 31.9998 40.8C36.7998 40.8 40.6998 36.9 40.6998 32.1C40.6998 27.2 36.7998 23.4 31.9998 23.4ZM31.9998 39.2C27.9998 39.2 24.7998 36 24.7998 32C24.7998 28 27.9998 24.8 31.9998 24.8C35.9998 24.8 39.1998 28 39.1998 32C39.1998 36 35.9998 39.2 31.9998 39.2Z" fill="currentcolor"/>
<path d="M43.7002 26.9L42.7002 28C42.7002 28 44.6002 29.9 44.6002 32.2C44.6002 33.5 43.9002 34.8 42.7002 35.9L43.7002 37C45.3002 35.6 46.1002 33.9 46.1002 32.2C46.1002 29.2 43.8002 27 43.7002 26.9Z" fill="currentcolor"/>
<path d="M20.2999 26.9C20.1999 27 17.8999 29.2 17.8999 32.2C17.8999 34 18.6999 35.6 20.2999 37L21.2999 35.9C19.9999 34.7 19.3999 33.5 19.3999 32.2C19.3999 29.9 21.2999 28 21.2999 28L20.2999 26.9Z" fill="currentcolor"/>
<path d="M55.6 23.8C56.9 23.8 58 22.7 58 21.4C58 20.1 56.9 19 55.6 19C54.3 19 53.2 20.1 53.2 21.4C53.2 21.7 53.3 22 53.4 22.3L49.8 25.6C48.5 24.8 47 24 45.4 23.2V16.8L49.3 12.9H53.4C53.7 13.9 54.6 14.6 55.7 14.6C57 14.6 58.1 13.5 58.1 12.2C58.1 10.9 57 9.8 55.7 9.8C54.6 9.8 53.7 10.5 53.4 11.5H48.7L43.9 16.3V22.7C42.8 22.2 41.6 21.8 40.3 21.4V15.5L46.5 9.3V4.7C47.5 4.4 48.2 3.5 48.2 2.4C48.2 1.1 47.1 0 45.8 0C44.5 0 43.4 1.1 43.4 2.4C43.4 3.5 44.1 4.4 45.1 4.7V8.6L38.9 14.8V20.9C37.7 20.6 36.5 20.4 35.3 20.3V13L39.4 8.9C39.7 9 40 9.1 40.3 9.1C41.6 9.1 42.7 8 42.7 6.7C42.7 5.4 41.6 4.3 40.3 4.3C39 4.3 37.9 5.4 37.9 6.7C37.9 7.2 38 7.6 38.3 7.9L33.9 12.3V20H30.4V12.4L25.8 8C26 7.6 26.2 7.2 26.2 6.8C26.2 5.5 25.1 4.4 23.8 4.4C22.5 4.4 21.4 5.5 21.4 6.8C21.4 8.1 22.5 9.2 23.8 9.2C24.1 9.2 24.4 9.1 24.7 9L28.8 13.1V20.3C27.6 20.4 26.4 20.7 25.2 20.9V14.8L19 8.6V4.7C20 4.4 20.7 3.5 20.7 2.4C20.7 1.1 19.6 0 18.3 0C17 0 15.9 1.1 15.9 2.4C15.9 3.5 16.6 4.4 17.6 4.7V9.2L23.8 15.4V21.3C22.6 21.7 21.4 22.1 20.2 22.6V16.2L15.4 11.4H10.7C10.4 10.4 9.5 9.7 8.4 9.7C7.1 9.6 6 10.7 6 12C6 13.3 7.1 14.4 8.4 14.4C9.5 14.4 10.3 13.7 10.7 12.7H14.8L18.7 16.6V23C17.1 23.7 15.6 24.6 14.3 25.4L10.7 22.1C10.8 21.8 10.9 21.5 10.9 21.2C10.9 19.9 9.8 18.8 8.5 18.8C7.1 19 6 20 6 21.4C6 22.7 7.1 23.8 8.4 23.8C8.9 23.8 9.3 23.7 9.7 23.4L12.9 26.4C9.8 28.5 7.6 30.4 6.8 31.2C6.6 31.4 6.4 31.8 6.4 32.1C6.4 32.4 6.5 32.8 6.8 33C7.6 33.7 9.8 35.7 12.9 37.8L9.7 40.8C9.3 40.6 8.9 40.4 8.4 40.4C7.1 40.4 6 41.5 6 42.8C6 44 7.1 45 8.4 45C9.7 45 10.8 43.9 10.8 42.6C10.8 42.3 10.7 42 10.6 41.7L14.2 38.4C15.6 39.2 17 40.1 18.7 40.8V47.2L14.8 51.1H10.7C10.4 50.1 9.5 49.4 8.4 49.4C7.1 49.6 6 50.7 6 52C6 53.3 7.1 54.4 8.4 54.4C9.5 54.4 10.4 53.7 10.7 52.7H15.4L20.2 47.9V41.5C21.3 42 22.5 42.4 23.8 42.8V48.6L17.6 54.8V59.3C16.6 59.6 15.9 60.5 15.9 61.6C15.9 62.9 17 64 18.3 64C19.6 64 20.7 62.9 20.7 61.6C20.7 60.5 20 59.6 19 59.3V55.4L25.2 49.2V43.2C26.4 43.5 27.6 43.7 28.8 43.8V51L24.7 55.1C24.4 55 24.1 54.9 23.8 54.9C22.5 54.9 21.4 56 21.4 57.3C21.4 58.6 22.5 59.7 23.8 59.7C25.1 59.7 26.2 58.6 26.2 57.3C26.2 56.8 26.1 56.4 25.8 56.1L30.2 51.7V44C30.8 44 31.4 44.1 32 44.1C32.6 44.1 33.2 44.1 33.7 44V51.6L38.1 56C37.9 56.4 37.7 56.8 37.7 57.2C37.7 58.5 38.8 59.6 40.1 59.6C41.4 59.6 42.5 58.5 42.5 57.2C42.5 55.9 41.4 54.8 40.1 54.8C39.8 54.8 39.5 54.9 39.2 55L35.2 51V43.9C36.4 43.8 37.6 43.5 38.8 43.3V49.3L45 55.5V59.4C44 59.7 43.3 60.6 43.3 61.7C43.3 63 44.4 64.1 45.7 64.1C47 64.1 48.1 63 48.1 61.7C48.1 60.6 47.4 59.7 46.4 59.4V54.9L40.2 48.7V42.9C41.4 42.5 42.6 42.1 43.8 41.6V48L48.6 52.8H53.3C53.6 53.8 54.5 54.5 55.6 54.5C56.9 54.5 58 53.4 58 52.1C58 50.8 56.9 49.7 55.6 49.7C54.5 49.7 53.7 50.4 53.3 51.4H49.2L45.3 47.5V41.1C46.9 40.3 48.4 39.5 49.8 38.7L53.4 42C53.3 42.3 53.2 42.6 53.2 42.9C53.2 44.2 54.3 45.3 55.6 45.3C56.9 45.3 58 44.2 58 42.9C58 41.6 56.9 40.5 55.6 40.5C55.1 40.5 54.7 40.6 54.3 40.9L51.1 37.9C54.2 35.8 56.4 33.9 57.2 33.1C57.4 32.9 57.6 32.5 57.6 32.2C57.6 31.9 57.5 31.5 57.2 31.3C56.4 30.5 54.2 28.6 51.1 26.5L54.3 23.5C54.7 23.6 55.1 23.8 55.6 23.8ZM55.6 20.4C56.1 20.4 56.5 20.8 56.5 21.3C56.5 21.8 56.1 22.2 55.6 22.2C55.1 22.2 54.7 21.8 54.7 21.3C54.7 20.9 55.1 20.4 55.6 20.4ZM55.6 11.1C56.1 11.1 56.5 11.5 56.5 12C56.5 12.5 56.1 12.9 55.6 12.9C55.1 12.9 54.7 12.5 54.7 12C54.7 11.5 55.1 11.1 55.6 11.1ZM44.8 2.4C44.8 1.9 45.2 1.5 45.7 1.5C46.2 1.5 46.6 1.9 46.6 2.4C46.6 2.9 46.2 3.3 45.7 3.3C45.2 3.3 44.8 2.9 44.8 2.4ZM40.2 5.8C40.7 5.8 41.1 6.2 41.1 6.7C41.1 7.2 40.7 7.6 40.2 7.6C39.7 7.6 39.3 7.2 39.3 6.7C39.3 6.2 39.7 5.8 40.2 5.8ZM23.8 7.6C23.3 7.6 22.9 7.2 22.9 6.7C22.9 6.2 23.3 5.8 23.8 5.8C24.3 5.8 24.7 6.2 24.7 6.7C24.7 7.2 24.3 7.6 23.8 7.6ZM18.3 3.3C17.8 3.3 17.4 2.9 17.4 2.4C17.4 1.9 17.8 1.5 18.3 1.5C18.8 1.5 19.2 1.9 19.2 2.4C19.2 2.9 18.8 3.3 18.3 3.3ZM8.4 12.9C7.9 12.9 7.5 12.5 7.5 12C7.5 11.5 7.9 11.1 8.4 11.1C8.9 11.1 9.3 11.5 9.3 12C9.3 12.5 8.9 12.9 8.4 12.9ZM8.4 22.3C7.9 22.3 7.5 21.9 7.5 21.4C7.5 20.9 7.9 20.5 8.4 20.5C8.9 20.5 9.3 20.9 9.3 21.4C9.3 21.9 8.9 22.3 8.4 22.3ZM8.4 43.6C7.9 43.6 7.5 43.2 7.5 42.7C7.5 42.2 7.9 41.8 8.4 41.8C8.9 41.8 9.3 42.2 9.3 42.7C9.3 43.1 8.9 43.6 8.4 43.6ZM8.4 52.9C7.9 52.9 7.5 52.5 7.5 52C7.5 51.5 7.9 51.1 8.4 51.1C8.9 51.1 9.3 51.5 9.3 52C9.3 52.5 8.9 52.9 8.4 52.9ZM19.2 61.6C19.2 62.1 18.8 62.5 18.3 62.5C17.8 62.5 17.4 62.1 17.4 61.6C17.4 61.1 17.8 60.7 18.3 60.7C18.8 60.7 19.2 61.1 19.2 61.6ZM23.8 58.2C23.3 58.2 22.9 57.8 22.9 57.3C22.9 56.8 23.3 56.4 23.8 56.4C24.3 56.4 24.7 56.8 24.7 57.3C24.7 57.8 24.3 58.2 23.8 58.2ZM40.2 56.4C40.7 56.4 41.1 56.8 41.1 57.3C41.1 57.8 40.7 58.2 40.2 58.2C39.7 58.2 39.3 57.8 39.3 57.3C39.3 56.8 39.7 56.4 40.2 56.4ZM45.7 60.7C46.2 60.7 46.6 61.1 46.6 61.6C46.6 62.1 46.2 62.5 45.7 62.5C45.2 62.5 44.8 62.1 44.8 61.6C44.8 61.1 45.2 60.7 45.7 60.7ZM55.6 51.1C56.1 51.1 56.5 51.5 56.5 52C56.5 52.5 56.1 52.9 55.6 52.9C55.1 52.9 54.7 52.5 54.7 52C54.7 51.5 55.1 51.1 55.6 51.1ZM55.6 41.7C56.1 41.7 56.5 42.1 56.5 42.6C56.5 43.1 56.1 43.5 55.6 43.5C55.1 43.5 54.7 43.1 54.7 42.6C54.7 42.1 55.1 41.7 55.6 41.7ZM56 32C53.7 34.1 43.8 42.6 32 42.6C20.2 42.6 10.3 34.1 8 32C10.3 29.9 20.2 21.4 32 21.4C43.8 21.4 53.7 29.9 56 32Z" fill="currentcolor"/>
<path d="M32.0001 28.1C29.8001 28.1 28.1001 29.9 28.1001 32C28.1001 34.2 29.9001 35.9 32.0001 35.9C34.2001 35.9 35.9001 34.1 35.9001 32C35.9001 29.9 34.2001 28.1 32.0001 28.1ZM32.0001 34.5C30.7001 34.5 29.6001 33.4 29.6001 32.1C29.6001 30.8 30.7001 29.7 32.0001 29.7C33.3001 29.7 34.4001 30.8 34.4001 32.1C34.4001 33.4 33.3001 34.5 32.0001 34.5Z" fill="currentcolor"/>
</svg>
