<svg viewBox="0 0 64 64" fill="none" xmlns="http://www.w3.org/2000/svg">
<path d="M31 28.7C30.4 29.3 30 30.2 30 31H31.5C31.5 30.5 31.7 30 32 29.7C32.7 29 33.9 29 34.6 29.7C35 30.1 35.1 30.5 35.1 31C35.1 31.5 34.9 31.9 34.5 32.4C34.5 32.4 33.3 33.5 32.8 35.3C32.6 35.9 32.5 36.5 32.5 37.1H34C34 36.6 34.1 36.2 34.2 35.7C34.6 34.3 35.5 33.5 35.5 33.5C36.2 32.7 36.6 31.9 36.6 31.1C36.6 30.2 36.3 29.4 35.6 28.8C34.4 27.5 32.2 27.5 31 28.7Z" fill="currentcolor"/>
<path d="M34.1001 38.6H32.6001V40.1H34.1001V38.6Z" fill="currentcolor"/>
<path d="M43.2998 33.9C43.2998 28.4 38.7998 23.9 33.2998 23.9C27.7998 23.9 23.2998 28.4 23.2998 33.9C23.2998 39.4 27.7998 43.9 33.2998 43.9C38.7998 43.8 43.2998 39.4 43.2998 33.9ZM33.2998 42.4C28.5998 42.4 24.7998 38.6 24.7998 33.9C24.7998 29.2 28.5998 25.4 33.2998 25.4C37.9998 25.4 41.7998 29.2 41.7998 33.9C41.7998 38.6 37.9998 42.4 33.2998 42.4Z" fill="currentcolor"/>
<path d="M64 2.59998H0V53.7H42.3L45.6 59.7C46.5 61.5 48.9 62 50.3 61C51.1 60.5 51.6 59.7 51.8 58.8C52 57.9 51.8 56.9 51.2 56.2L49.5 53.8H64V2.59998ZM1.5 3.99998H46.9V10.4H1.5V3.99998ZM50 57C50.6 58 50.5 59 49.5 59.7C48.6 60.3 47.3 59.9 46.8 59L38.7 44.3L38.1 44.6C35.6 45.7 32.7 45.9 30 45.1C24.4 43.5 20.9 37.9 21.8 32.1C22.7 26.4 27.6 22.3 33.3 22.3C34.7 22.3 36.1 22.6 37.5 23.1C42.9 25.1 46.1 31.2 44.6 36.9C44 39.3 42.7 41.4 40.8 43L40.3 43.4L50 57ZM38 21.7C36.5 21.1 34.9 20.8 33.3 20.8C26.8 20.8 21.4 25.4 20.4 31.8C19.3 38.3 23.3 44.6 29.6 46.5C32.4 47.3 35.4 47.2 38.1 46.1L39 47.8H5.8V16.8H58.3V47.8H45.3L42.3 43.5C44.2 41.8 45.5 39.6 46.1 37.1C47.7 30.8 44.1 24 38 21.7ZM62.5 52.2H48.4L46.3 49.3H59.7V15.4H4.3V49.3H39.8L41.4 52.2H1.4V11.9H62.5V52.2ZM62.5 10.4H48.4V3.99998H62.6V10.4H62.5Z" fill="currentcolor"/>
<path d="M29.3001 6.5H5.1001V8H29.3001V6.5Z" fill="currentcolor"/>
<path d="M60.3999 6.5H58.8999V8H60.3999V6.5Z" fill="currentcolor"/>
<path d="M52.2002 6.5H50.7002V8H52.2002V6.5Z" fill="currentcolor"/>
<path d="M56.2998 6.5H54.7998V8H56.2998V6.5Z" fill="currentcolor"/>
<path d="M55.6999 23.4H45.3999V24.9H55.6999V23.4Z" fill="currentcolor"/>
<path d="M52.2998 36.4H50.7998V37.9H52.2998V36.4Z" fill="currentcolor"/>
<path d="M55.7998 36.4H54.2998V37.9H55.7998V36.4Z" fill="currentcolor"/>
<path d="M48.8999 36.4H47.3999V37.9H48.8999V36.4Z" fill="currentcolor"/>
<path d="M55.6999 43H45.3999V44.5H55.6999V43Z" fill="currentcolor"/>
<path d="M15.8999 31.6H14.3999V33.1H15.8999V31.6Z" fill="currentcolor"/>
<path d="M12.7998 31.6H11.2998V33.1H12.7998V31.6Z" fill="currentcolor"/>
<path d="M18.8999 31.6H17.3999V33.1H18.8999V31.6Z" fill="currentcolor"/>
<path d="M9.7998 31.6H8.2998V33.1H9.7998V31.6Z" fill="currentcolor"/>
<path d="M16.3998 37.2999H8.2998V38.7999H16.3998V37.2999Z" fill="currentcolor"/>
<path d="M20.9998 43H8.2998V44.5H20.9998V43Z" fill="currentcolor"/>
<path d="M22.7998 20.6H8.2998V22.1H22.7998V20.6Z" fill="currentcolor"/>
</svg>
