<svg viewBox="0 0 64 64" fill="none" xmlns="http://www.w3.org/2000/svg">
<path d="M58.4 56.6V54.1H56.9V56.6H50.1V54.1H48.7V56.6H41.9V54.1H40.4V56.6H33.7V54.1H32.2V56.6H25.4V54.1H24V56.6H17.2V54.1H15.7V56.6H9V54.1H7.5V56.6H1.5V51.8H4V50.3H1.5V44H4V42.6H1.5V36.3H4V34.8H1.5V28.5H4V27H1.5V20.7H4V19.2H1.5V12.9H4V11.4H1.5V5.89999H0V58.1H64V56.6H58.4Z" fill="currentcolor"/>
<path d="M8.8002 47.3L14.9002 41.2L24.0002 50.3L32.9002 41.4L41.5002 50.1H55.8002L53.1002 52.8L54.2002 53.9L58.7002 49.4L54.2002 44.9L53.1002 45.9L55.8002 48.6H42.2002L32.9002 39.3L24.0002 48.2L15.9002 40.2L19.9002 36.2H41.5002L47.5002 30.2L52.8002 35.5H48.9002V37H55.3002V30.6H53.8002V34.5L48.5002 29.2L60.3002 17.4V21.3H61.8002V14.9H55.4002V16.4H59.3002L47.5002 28.1L34.2002 14.9H8.2002V16.4H33.6002L46.4002 29.2L40.9002 34.8H19.2002L14.9002 39.1L8.8002 33L7.7002 34.1L13.8002 40.2L7.7002 46.3L8.8002 47.3Z" fill="currentcolor"/>
</svg>
