<svg viewBox="0 0 64 64" fill="none" xmlns="http://www.w3.org/2000/svg">
<path d="M58.4 56.6V54.1H56.9V56.6H50.1V54.1H48.7V56.6H41.9V54.1H40.4V56.6H33.7V54.1H32.2V56.6H25.4V54.1H24V56.6H17.2V54.1H15.7V56.6H9V54.1H7.5V56.6H1.5V51.8H4V50.3H1.5V44H4V42.6H1.5V36.3H4V34.8H1.5V28.5H4V27H1.5V20.7H4V19.2H1.5V12.9H4V11.4H1.5V5.89997H0V58.1H64V56.6H58.4Z" fill="currentcolor"/>
<path d="M8.79995 47.3L14.9 41.2L24 50.3L32.9 41.4L41.5 50.1H55.7999L53.0999 52.8L54.2 53.9L58.7 49.4L54.2 44.9L53.0999 45.9L55.7999 48.6H42.2L32.9 39.3L24 48.2L15.9 40.2L19.9 36.2H41.5L47.5 30.2L52.7999 35.5H48.9V37H55.2999V30.6H53.7999V34.5L48.5 29.2L60.2999 17.4V21.3H61.7999V14.9H55.4V16.4H59.2999L47.5 28.1L34.2 14.9H8.19995V16.4H33.5999L46.4 29.2L40.9 34.8H19.2L14.9 39.1L8.79995 33L7.69995 34.1L13.8 40.2L7.69995 46.3L8.79995 47.3Z" fill="currentcolor"/>
</svg>
