<svg viewBox="0 0 64 64" fill="none" xmlns="http://www.w3.org/2000/svg">
<path d="M31.6998 28C34.6998 28 37.0998 25.6 37.0998 22.6C37.0998 19.6 34.6998 17.2 31.6998 17.2C28.6998 17.2 26.2998 19.6 26.2998 22.6C26.2998 25.6 28.6998 28 31.6998 28ZM31.6998 18.7C33.8998 18.7 35.5998 20.5 35.5998 22.6C35.5998 24.8 33.7998 26.5 31.6998 26.5C29.4998 26.5 27.7998 24.7 27.7998 22.6C27.7998 20.4 29.4998 18.7 31.6998 18.7Z" fill="currentcolor"/>
<path d="M35.4998 29.7L35.1998 29.6L34.9998 29.8C32.8998 30.7 30.4998 30.7 28.3998 29.8L28.0998 29.7L27.7998 29.8C22.6998 31.5 19.2998 36.2 19.2998 41.5V42.2H43.9998V41.5C43.9998 36.1 40.5998 31.4 35.4998 29.7ZM20.8998 40.7C21.1998 36.4 23.9998 32.7 28.0998 31.2C30.3998 32.1 32.9998 32.1 35.2998 31.2C39.3998 32.6 42.1998 36.4 42.4998 40.7H20.8998Z" fill="currentcolor"/>
<path d="M57.7 25.7C56.9 25.7 56 25.9 55.2 26.2L48.6 14.7C50.2 13.5 51.2 11.7 51.2 9.59999C51.2 6.19999 48.4 3.29999 45 3.29999C41.8 3.29999 39.2 5.69999 38.8 8.79999H25.3C24.9 5.69999 22.3 3.29999 19.1 3.29999C15.7 3.29999 12.8 6.09999 12.8 9.59999C12.8 11.6 13.8 13.5 15.3 14.6L8.7 26.3C7.9 26 7.1 25.8 6.2 25.8C2.8 25.7 0 28.6 0 32C0 35.4 2.8 38.3 6.3 38.3C7.1 38.3 8 38.1 8.8 37.8L15.5 49.3C13.9 50.5 13 52.3 13 54.3C13 57.7 15.8 60.6 19.3 60.6C22.5 60.6 25.1 58.2 25.5 55.1H39C39.4 58.2 42 60.6 45.2 60.6C48.6 60.6 51.4 57.8 51.4 54.3C51.4 52.3 50.4 50.4 48.8 49.2L55.4 37.7C56.2 38 57 38.2 57.9 38.2C61.3 38.2 64.2 35.4 64.2 31.9C64 28.6 61.2 25.7 57.7 25.7ZM45 4.89999C47.6 4.89999 49.8 6.99999 49.8 9.69999C49.6 12.5 47.8 14.3 45 14.5C42.4 14.5 40.2 12.4 40.2 9.69999C40.2 7.09999 42.4 4.89999 45 4.89999ZM14.3 9.69999C14.3 7.09999 16.4 4.89999 19.1 4.89999C21.7 4.89999 23.9 6.99999 23.9 9.69999C23.9 12.3 21.8 14.5 19.1 14.5C18.3 14.5 17.4 14.3 16.7 13.9C15.2 13 14.3 11.4 14.3 9.69999ZM6.3 36.8C3.7 36.8 1.5 34.7 1.5 32C1.5 29.4 3.6 27.2 6.3 27.2C8.9 27.3 10.9 29 11.1 32C11.1 32.2 11.1 32.5 11 32.7C10.4 35.2 8.8 36.7 6.3 36.8ZM19.1 59.1C16.5 59.1 14.3 57 14.3 54.3C14.3 52.6 15.2 51 16.7 50.1C19.5 48.5 23.6 50 23.8 54.3C23.9 56.9 21.7 59.1 19.1 59.1ZM49.8 54.3C49.8 56.9 47.7 59.1 45 59.1C42.4 59.1 40.2 57 40.2 54.3C40.2 51.7 42.3 49.5 45 49.5C45.8 49.5 46.6 49.7 47.3 50.1C48.8 50.9 49.8 52.6 49.8 54.3ZM47.4 48.5C47.4 48.5 47.3 48.5 47.4 48.5C47.3 48.5 43 46.6 39.8 50.8C39.3 51.6 38.9 52.5 38.8 53.5H25.3C25.2 52.6 24.8 51.7 24.3 50.8C22.9 48.7 19.9 47.2 16.7 48.5L10 37C10.9 36.4 11.6 35.4 12.1 34.3C13.2 31.5 12.3 28.9 10.1 27L16.8 15.5C17.8 15.9 18.9 16 20 15.9C23.1 15.5 24.8 13.4 25.4 10.4H38.9L39.1 11.5C40.3 14.6 42.7 16.2 45.8 15.8C46.4 15.7 46.9 15.6 47.4 15.4L54 27C53.2 27.6 52.5 28.5 52 29.7C51.1 32.2 51.4 34.5 53.4 36.5L54 37L47.4 48.5ZM57.7 36.8C55 36.8 53.1 34.8 52.9 32C52.9 31.8 52.9 31.6 52.9 31.4C53.3 28.9 55.2 27.3 57.6 27.3C60.2 27.3 62.4 29.4 62.4 32.1C62.5 34.6 60.4 36.8 57.7 36.8Z" fill="currentcolor"/>
</svg>
