<svg viewBox="0 0 64 64" fill="none" xmlns="http://www.w3.org/2000/svg">
<path d="M24.8998 5.8999C14.5998 5.8999 6.2998 14.2999 6.2998 24.4999C6.2998 34.7999 14.6998 43.0999 24.8998 43.0999C29.8998 43.0999 34.4998 41.1999 38.0998 37.5999C41.5998 34.0999 43.4998 29.3999 43.4998 24.3999C43.4998 14.1999 35.1998 5.8999 24.8998 5.8999ZM41.1998 29.7999H33.0998C33.2998 28.0999 33.3998 26.2999 33.3998 24.4999C33.3998 22.6999 33.2998 20.8999 33.0998 19.1999H41.1998C41.6998 20.8999 41.9998 22.5999 41.9998 24.4999C42.0998 26.2999 41.7998 28.0999 41.1998 29.7999ZM17.7998 24.4999C17.7998 22.6999 17.8998 20.8999 18.1998 19.1999H31.6998C31.8998 20.8999 32.0998 22.5999 32.0998 24.4999C32.0998 26.2999 31.9998 28.0999 31.6998 29.7999H18.1998C17.8998 28.0999 17.7998 26.2999 17.7998 24.4999ZM24.8998 7.2999C27.7998 7.2999 30.2998 11.6999 31.3998 17.6999H18.2998C18.6998 15.5999 19.1998 13.6999 19.8998 12.0999C21.2998 9.0999 23.0998 7.3999 24.8998 7.2999ZM40.6998 17.6999H32.9998C32.1998 13.2999 30.6998 9.7999 28.7998 7.6999C34.0998 8.9999 38.4998 12.7999 40.6998 17.6999ZM20.9998 7.7999C20.0998 8.6999 19.2998 9.9999 18.5998 11.5999C17.7998 13.3999 17.1998 15.4999 16.7998 17.7999H9.0998C11.2998 12.7999 15.6998 9.0999 20.9998 7.7999ZM8.5998 19.1999H16.6998C16.4998 20.8999 16.3998 22.6999 16.3998 24.4999C16.3998 26.2999 16.4998 28.0999 16.6998 29.7999H8.5998C8.0998 28.0999 7.7998 26.3999 7.7998 24.4999C7.7998 22.6999 8.0998 20.8999 8.5998 19.1999ZM9.0998 31.2999H16.7998C17.5998 35.6999 19.0998 39.1999 20.9998 41.2999C15.6998 39.9999 11.2998 36.1999 9.0998 31.2999ZM24.8998 41.7999V41.6999C21.9998 41.6999 19.4998 37.2999 18.3998 31.2999H31.4998C31.0998 33.3999 30.5998 35.2999 29.8998 36.8999C28.5998 39.9999 26.7998 41.6999 24.9998 41.6999L24.8998 41.7999ZM37.0998 36.5999C34.7998 38.8999 31.8998 40.4999 28.7998 41.1999C29.6998 40.2999 30.4998 38.9999 31.1998 37.3999C31.9998 35.5999 32.5998 33.4999 32.9998 31.1999H40.6998C39.7998 33.1999 38.5998 34.9999 37.0998 36.5999Z" fill="black"/>
<path d="M61.5999 53.9999L44.5999 38.8999C47.8999 34.3999 49.5999 28.8999 49.2999 23.2999C48.6999 10.9999 38.9999 0.999943 26.7999 0.0999432C19.0999 -0.500057 11.5999 2.49994 6.59991 8.19994C1.89991 13.4999 -0.200093 20.3999 0.599907 27.4999C2.09991 39.6999 12.4999 48.8999 24.8999 48.8999H25.0999C30.0999 48.8999 34.7999 47.2999 38.7999 44.4999L53.4999 61.9999C54.5999 63.2999 56.1999 63.9999 57.8999 63.9999C59.3999 63.9999 60.7999 63.3999 61.8999 62.3999C62.9999 61.2999 63.6999 59.6999 63.5999 58.1999C63.4999 56.4999 62.7999 54.9999 61.5999 53.9999ZM60.7999 61.2999C59.9999 62.0999 58.8999 62.4999 57.7999 62.4999C56.4999 62.4999 55.2999 61.8999 54.4999 60.9999L38.9999 42.4999L38.3999 42.8999C34.4999 45.7999 29.8999 47.3999 24.9999 47.3999H24.7999C13.1999 47.3999 3.39991 38.7999 1.99991 27.2999C1.19991 20.5999 3.19991 14.1999 7.69991 9.19994C12.4999 3.79994 19.4999 0.999943 26.6999 1.49994C38.1999 2.39994 47.2999 11.7999 47.7999 23.2999C48.0999 28.7999 46.2999 34.1999 42.9999 38.4999L42.5999 38.9999L60.6999 54.9999C61.5999 55.7999 62.0999 56.8999 62.0999 58.0999C62.0999 59.3999 61.6999 60.4999 60.7999 61.2999Z" fill="black"/>
</svg>
