<svg viewBox="0 0 64 64" fill="none" xmlns="http://www.w3.org/2000/svg">
<path d="M54.1 18V14H49.9V9.40004C49.9 5.90004 47.1 3.10004 43.6 3.10004C40.1 3.10004 37.3 5.90004 37.3 9.40004V14H33V18H3.5V53.8H60.6V18H54.1ZM38.7 9.40004C38.7 6.80004 40.9 4.60004 43.5 4.60004C46.1 4.60004 48.3 6.80004 48.3 9.40004V14H38.7V9.40004ZM34.5 15.5H52.6V27.9H34.5V15.5ZM4.9 19.4H33V23.6H4.9V19.4ZM59.1 52.3H4.9V25.2H33V29.4H54V25.2H59V52.3H59.1ZM59.1 23.7H54.1V19.5H59.1V23.7Z" fill="currentcolor"/>
<path d="M9.3999 20.8H7.8999V22.3H9.3999V20.8Z" fill="currentcolor"/>
<path d="M12.7998 20.8H11.2998V22.3H12.7998V20.8Z" fill="currentcolor"/>
<path d="M16.2998 20.8H14.7998V22.3H16.2998V20.8Z" fill="currentcolor"/>
<path d="M0 55.5001V58.0001L2.8 60.9001H61.3L64 58.0001V55.5001H0ZM62.5 57.4001L60.6 59.4001H3.4L1.5 57.4001V57.0001H62.6V57.4001H62.5Z" fill="currentcolor"/>
<path d="M28.6 29.7H12V31.2H28.6V29.7Z" fill="currentcolor"/>
<path d="M51.1001 35.2H49.6001V36.7H51.1001V35.2Z" fill="currentcolor"/>
<path d="M47.7002 35.2H46.2002V36.7H47.7002V35.2Z" fill="currentcolor"/>
<path d="M44.2998 35.2H42.7998V36.7H44.2998V35.2Z" fill="currentcolor"/>
<path d="M27.2002 35.2H25.7002V36.7H27.2002V35.2Z" fill="currentcolor"/>
<path d="M16.8999 35.2H15.3999V36.7H16.8999V35.2Z" fill="currentcolor"/>
<path d="M40.8999 35.2H39.3999V36.7H40.8999V35.2Z" fill="currentcolor"/>
<path d="M23.7998 35.2H22.2998V36.7H23.7998V35.2Z" fill="currentcolor"/>
<path d="M13.5 35.2H12V36.7H13.5V35.2Z" fill="currentcolor"/>
<path d="M20.3999 35.2H18.8999V36.7H20.3999V35.2Z" fill="currentcolor"/>
<path d="M37.5 35.2H36V36.7H37.5V35.2Z" fill="currentcolor"/>
<path d="M30.6001 35.2H29.1001V36.7H30.6001V35.2Z" fill="currentcolor"/>
<path d="M34 35.2H32.5V36.7H34V35.2Z" fill="currentcolor"/>
<path d="M52 40.7H12V42.2H52V40.7Z" fill="currentcolor"/>
<path d="M51.9998 46.1H25.2998V47.6H51.9998V46.1Z" fill="currentcolor"/>
<path d="M49.1 19H38V20.5H49.1V19Z" fill="currentcolor"/>
<path d="M47.4002 22.9H39.7002V24.4H47.4002V22.9Z" fill="currentcolor"/>
</svg>
