<svg viewBox="0 0 64 64" fill="none" xmlns="http://www.w3.org/2000/svg">
<path d="M40.3 27.7H35.9V40H34.3V30.1H29.9V40H28.3V33.1H23.9V40H22V41.5H42V40H40.3V27.7ZM26.7 40.1H25.2V34.7H26.7V40.1ZM32.7 40.1H31.2V31.6H32.7V40.1ZM38.8 40.1H37.3V29.2H38.8V40.1Z" fill="currentcolor"/>
<path d="M28.2001 28.9H32.6L37.9001 23.5V24.6H39.4001V20.9H35.7001V22.4H36.9001L32 27.4H27.6L23.8 31.2L24.9 32.3L28.2001 28.9Z" fill="currentcolor"/>
<path d="M64 35.6V28.5H56.9V31.3H48.1C47.9 27.4 46.4 23.9 43.9 21.2L50.1 15L52.1 17L57.1 12L52.1 7L47.1 12L49.1 14L42.9 20.2C40.3 17.8 37 16.3 33.2 16C33 16 32.9 16 32.7 16V7.1H35.5V0H28.4V7.1H31.2V15.9C27.3 16.1 23.8 17.6 21.1 20.1L14.9 13.9L16.9 11.9L11.9 6.9L6.9 11.9L11.9 16.9L13.9 14.9L20.1 21.1C17.7 23.7 16.2 27 15.9 30.8C15.9 31 15.9 31.1 15.9 31.3H7.1V28.5H0V35.6H7.1V32.8H15.9C16.1 36.4 17.4 39.8 19.8 42.6C19.9 42.7 20 42.8 20.1 42.9L13.9 49.1L11.9 47.1L6.9 52.1L11.9 57.1L16.9 52.1L14.9 50.1L21.1 43.9C23.8 46.3 27.1 47.8 30.8 48.1C31 48.1 31.1 48.1 31.3 48.1V56.9H28.5V64H35.6V56.9H32.8V48.1C36.7 47.9 40.2 46.4 42.9 43.9L49.1 50.1L47.1 52.1L52.1 57.1L57.1 52.1L52.1 47.1L50.1 49.1L43.9 42.9C46.3 40.3 47.8 37 48.1 33.2C48.1 33 48.1 32.9 48.1 32.7H56.9V35.5H64V35.6ZM52.1 8.9L55.1 11.9L52.1 14.9L49.1 11.9L52.1 8.9ZM29.9 1.5H34.1V5.7H29.9V1.5ZM8.9 11.9L11.9 8.9L14.9 11.9L11.9 14.9L8.9 11.9ZM5.7 34.1H1.5V29.9H5.7V34.1ZM11.9 55.1L8.9 52.1L11.9 49.1L14.9 52.1L11.9 55.1ZM34.1 62.5H29.9V58.3H34.1V62.5ZM55.1 52.1L52.1 55.1L49.1 52.1L52.1 49.1L55.1 52.1ZM46.6 33.1C46 41.1 39 47.3 30.9 46.6C27 46.3 23.4 44.5 20.9 41.5C18.3 38.5 17.1 34.7 17.4 30.8C18 23.2 24.4 17.2 32 17.2C32.4 17.2 32.7 17.2 33.1 17.2C41.2 18 47.2 25 46.6 33.1ZM58.3 29.9H62.5V34.1H58.3V29.9Z" fill="currentcolor"/>
</svg>
