<svg viewBox="0 0 64 64" fill="none" xmlns="http://www.w3.org/2000/svg">
<path d="M3.5 10.5001V46.3001H60.6V10.5001H3.5ZM59.1 44.9001H4.9V17.7001H59V44.9001H59.1ZM59.1 16.3001H4.9V12.0001H59V16.3001H59.1Z" fill="currentcolor"/>
<path d="M16.2998 13.4001H14.7998V14.9001H16.2998V13.4001Z" fill="currentcolor"/>
<path d="M9.3999 13.4001H7.8999V14.9001H9.3999V13.4001Z" fill="currentcolor"/>
<path d="M12.7998 13.4001H11.2998V14.9001H12.7998V13.4001Z" fill="currentcolor"/>
<path d="M0 50.5001L2.8 53.4001H61.3L64.1 50.5001V48.0001H0V50.5001ZM1.5 49.5001H62.6V49.9001L60.7 51.9001H3.4L1.5 49.9001V49.5001Z" fill="currentcolor"/>
<path d="M55.8998 20.9001H35.2998V22.4001H55.8998V20.9001Z" fill="currentcolor"/>
<path d="M45.7002 27.3001H44.2002V28.8001H45.7002V27.3001Z" fill="currentcolor"/>
<path d="M49.1001 27.3001H47.6001V28.8001H49.1001V27.3001Z" fill="currentcolor"/>
<path d="M55.8999 27.3001H54.3999V28.8001H55.8999V27.3001Z" fill="currentcolor"/>
<path d="M52.5 27.3001H51V28.8001H52.5V27.3001Z" fill="currentcolor"/>
<path d="M42.2002 27.3001H40.7002V28.8001H42.2002V27.3001Z" fill="currentcolor"/>
<path d="M38.7998 27.3001H37.2998V28.8001H38.7998V27.3001Z" fill="currentcolor"/>
<path d="M55.8002 33.6001H41.2002V35.1001H55.8002V33.6001Z" fill="currentcolor"/>
<path d="M55.8998 39.9001H32.7998V41.4001H55.8998V39.9001Z" fill="currentcolor"/>
<path d="M7.8999 37.2001H18.6999L19.5999 39.9001L21.4999 38.0001L25.5999 42.1001L28.8999 38.8001L27.3999 37.3001H31.2999V20.9001H7.8999V37.2001ZM25.5999 39.9001L21.4999 35.8001L20.1999 37.1001L18.1999 31.3001L23.9999 33.3001L22.6999 34.6001L26.7999 38.7001L25.5999 39.9001ZM9.3999 22.4001H29.8999V35.7001H25.9999L24.8999 34.6001L26.7999 32.7001L15.8999 29.0001L18.1999 35.7001H9.3999V22.4001Z" fill="currentcolor"/>
</svg>
