<svg viewBox="0 0 64 64" fill="none" xmlns="http://www.w3.org/2000/svg">
<path d="M34.7001 36.9C35.4001 37.5 35.8 38.2999 35.8 39.0999H37.3C37.3 37.8999 36.7001 36.6999 35.7001 35.7999C34.9001 35.0999 33.9 34.6999 32.8 34.5999V31.2H31.3V34.5999C30.2 34.6999 29.2 35.1999 28.4 35.7999C27.4 36.6999 26.8 37.7999 26.8 39.0999C26.8 40.2999 27.4 41.5 28.4 42.4C29.4 43.2 30.7 43.7 32 43.7C33 43.7 34.0001 43.9999 34.7001 44.5999C35.4001 45.1999 35.8 45.9999 35.8 46.7999C35.8 47.5999 35.4001 48.4 34.7001 49C33.3001 50.2 30.8 50.2 29.4 49C28.7 48.4 28.3 47.5999 28.3 46.7999H26.8C26.8 48 27.4 49.1999 28.4 50.0999C29.2 50.7999 30.2 51.1999 31.3 51.2999V54.7H32.8V51.2999C33.9 51.1999 34.9001 50.6999 35.7001 50.0999C36.7001 49.1999 37.3 48.0999 37.3 46.7999C37.3 45.5999 36.7001 44.4 35.7001 43.5C34.7001 42.7 33.4 42.2 32.1 42.2C31.1 42.2 30.1 41.9 29.4 41.2999C28.7 40.6999 28.3 39.8999 28.3 39.0999C28.3 38.2999 28.7 37.5 29.4 36.9C30.7 35.7 33.3001 35.7 34.7001 36.9Z" fill="currentcolor"/>
<path d="M48.9 42.9C48.9 41.1 48.6 39.4 48.1 37.8H54.8C59.9 37.8 64 33.7 64 28.6C64 28.1 64 27.6 63.9 27.1L63.8 26.8C62.9 22.6 59.2 19.5 54.8 19.5H53.6C53.2 14.8 49.3 11.1 44.5 11.1C42.5 11.1 40.7 11.8 39.1 12.9C37.7 7.79997 33.1 4.09998 27.7 4.09998C21.5 4.09998 16.5 8.79998 15.9 14.8C14.6 14.3 13.2 14 11.7 14C5.3 14.1 0 19.4 0 26C0 32.6 5.3 37.8 11.8 37.8H15.8C15.3 39.4 15 41.1 15 42.9C15 52.2 22.6 59.8 31.9 59.8C41.3 59.8 48.9 52.2 48.9 42.9ZM11.8 36.4C6.1 36.4 1.5 31.7 1.5 26C1.5 20.3 6.2 15.6 11.9 15.6C13.3 15.6 14.7 15.9 16 16.5C16 17.6 16.2 18.7 16.6 19.7L18 19.2C17.7 18.2 17.5 17.1 17.5 16C17.5 10.3 22.2 5.59998 27.9 5.59998C32.9 5.59998 37.1 9.09998 38.1 14C37.4 14.7 36.8 15.6 36.4 16.5L37.7 17.1C38.9 14.3 41.7 12.6 44.7 12.6C48.9 12.6 52.3 16 52.3 20.2V21H54.9C58.5 21 61.7 23.6 62.4 27.1V27.4C62.5 27.8 62.5 28.3 62.5 28.7C62.5 32.9 59 36.4 54.8 36.4H47.6C45 30.3 39 26 32 26C25 26 19 30.3 16.4 36.4H11.8ZM32 58.4C23.5 58.4 16.5 51.5 16.5 42.9C16.5 34.4 23.4 27.4 32 27.4C40.5 27.4 47.5 34.3 47.5 42.9C47.5 51.4 40.5 58.4 32 58.4Z" fill="currentcolor"/>
<path d="M27.8 8.09998C25.7 8.09998 23.7001 8.89997 22.2001 10.4C21.4001 11.2 20.7 12.2 20.3 13.3L21.7001 13.8C23.4001 9.39998 28.5 8.19998 32 11L32.9001 9.89997C31.5001 8.79997 29.7 8.09998 27.8 8.09998Z" fill="currentcolor"/>
</svg>
