<svg wviewBox="0 0 64 64" fill="none" xmlns="http://www.w3.org/2000/svg">
<path d="M40.0002 23.3L36.0002 20.8C36.7002 19.9 37.0002 18.9 37.0002 17.8C37.0002 15.1 34.8002 12.8 32.0002 12.8C29.2002 12.8 27.0002 15 27.0002 17.8C27.0002 18.9 27.4002 20 28.0002 20.8L24.0002 23.3C22.9002 24 22.2002 25.3 22.2002 26.6V31.4H41.6002V26.6C41.8002 25.2 41.1002 24 40.0002 23.3ZM32.1002 14.3C34.0002 14.3 35.6002 15.9 35.6002 17.8C35.6002 18.8 35.2002 19.8 34.4002 20.4C33.4002 21.2 32.0002 21.5 30.9002 21C30.5002 20.9 30.1002 20.6 29.8002 20.4C29.1002 19.7 28.6002 18.8 28.6002 17.8C28.6002 15.9 30.2002 14.3 32.1002 14.3ZM40.3002 29.9H23.8002V26.6C23.8002 25.8 24.2002 25 24.9002 24.5L29.2002 21.8C31.1002 23 33.0002 23 34.9002 21.8L39.2002 24.5C39.9002 24.9 40.3002 25.7 40.3002 26.6V29.9Z" fill="currentcolor"/>
<path d="M64 29.3V25C64 23.8 63.4 22.7 62.4 22L59 19.9C59.6 19.1 59.9 18.2 59.9 17.3C59.9 14.8 57.9 12.9 55.5 12.9C53 12.9 51.1 14.9 51.1 17.3C51.1 18.3 51.4 19.2 52 19.9L48.9 21.8C48 15 43.1 9.1 36.3 7.5C34.8 7.2 33.4 7 32 7C23.4 7 16.3 13.4 15.3 21.8L12.3 19.9C12.9 19.1 13.2 18.2 13.2 17.3C13.2 14.8 11.2 12.9 8.8 12.9C6.4 12.9 4.4 14.9 4.4 17.3C4.4 18.3 4.7 19.2 5.3 19.9L1.6 22C0.6 22.6 0 23.8 0 25V29.3H16C18 35 22.9 39.5 29.2 40.5C33 41.1 36.8 40.5 40.1 38.7L51.9 55.2C52.7 56.3 53.9 57 55.3 57C56.2 57 57.2 56.7 57.9 56.1C58.8 55.4 59.4 54.3 59.4 53.2C59.5 52.1 59.1 50.9 58.3 50.1L44.7 35C46.2 33.3 47.3 31.4 48 29.3H64ZM55.4 14.3C57 14.3 58.4 15.6 58.4 17.3C58.4 18.2 58 19 57.4 19.5C55.5 21 52.6 20.1 52.4 17.3C52.4 15.6 53.7 14.3 55.4 14.3ZM48.7 26.1C48.8 25.2 48.8 24.4 48.8 23.5L52.8 21C54.4 22 56 22 57.7 21.1C57.7 21.1 57.8 21.1 57.8 21L61.5 23.3C62.1 23.7 62.5 24.3 62.5 25V27.8H48.4C48.5 27.3 48.7 26.7 48.7 26.1ZM8.6 14.3C10.2 14.3 11.6 15.6 11.6 17.3C11.6 18.2 11.2 19 10.6 19.5C8.8 21 5.8 20.1 5.6 17.3C5.6 15.6 7 14.3 8.6 14.3ZM1.5 27.9V25C1.5 24.3 1.9 23.6 2.5 23.3L6.1 21C7.8 22 9.5 22 11.1 21L15.1 23.5C15.1 25 15.2 26.5 15.6 27.9H1.5ZM47.3 25.9C46.9 29.2 45.5 32.1 43.2 34.5L42.7 35L57.3 51C57.8 51.5 58.1 52.3 58 53C57.9 53.7 57.6 54.4 57 54.9C55.8 55.8 54 55.6 53.1 54.3L40.5 36.8L39.9 37.1C36.8 39 33 39.7 29.4 39.1C21.8 37.8 16.3 31 16.6 23.3C17 15 23.7 8.5 32 8.5C33.3 8.5 34.5 8.7 35.8 9C43.2 10.8 48.3 18.2 47.3 25.9Z" fill="currentcolor"/>
</svg>
