<svg viewBox="0 0 64 64" fill="none" xmlns="http://www.w3.org/2000/svg">
<path d="M33.7001 5.89997V2.19997H21.9001V5.89997H12.6001V25.2H42.9001V5.89997H33.7001ZM23.4001 3.69997H32.2001V5.89997H23.4001V3.69997ZM41.5001 23.7H14.2001V15.4C16.6001 18 21.7001 19.7 27.8001 19.7C33.9001 19.7 39.0001 18 41.4001 15.4V23.7H41.5001ZM41.5001 12.1C41.5001 15.4 35.3001 18.2 27.9001 18.2C20.5001 18.2 14.3001 15.4 14.3001 12.1V7.39997H41.6001V12.1H41.5001Z" fill="currentcolor"/>
<path d="M30.4 14.3H25.2V15.8H30.4V14.3Z" fill="currentcolor"/>
<path d="M58.4 60.3V57.8H56.9V60.3H50.1V57.8H48.7V60.3H41.9V57.8H40.4V60.3H33.7V57.8H32.2V60.3H25.4V57.8H24V60.3H17.2V57.8H15.7V60.3H9V57.8H7.5V60.3H1.5V55.5H4V54H1.5V47.7H4V46.3H1.5V40H4V38.5H1.5V32.2H4V30.7H1.5V24.4H4V22.9H1.5V16.6H4V15.1H1.5V9.59997H0V61.8H64V60.3H58.4Z" fill="currentcolor"/>
<path d="M8.79995 51L14.9 44.9L24 54L32.9 45.1L41.5 53.8H55.7999L53.0999 56.5L54.2 57.6L58.7 53.1L54.2 48.6L53.0999 49.6L55.7999 52.3H42.2L32.9 43L24 51.9L15.9 43.9L19.9 39.9H41.5L60.2999 21.1V25H61.7999V18.6H55.4V20.1H59.2999L40.9 38.5H19.2L14.9 42.8L8.79995 36.7L7.69995 37.8L13.8 43.9L7.69995 50L8.79995 51Z" fill="currentcolor"/>
</svg>
