<svg viewBox="0 0 64 64" fill="none" xmlns="http://www.w3.org/2000/svg">
<g clip-path="url(#clip0_3_2725)">
<path d="M33.7 41.6C34 41.9 34.2 42.3 34.2 42.7H35.7C35.7 41.9 35.3 41.1 34.7 40.5C34.2 40.1 33.7 39.8 33 39.7V37.9H31.5V39.7C30.9 39.8 30.2999 40.1 29.7999 40.5C29.0999 41.1 28.7999 41.9 28.7999 42.7C28.7999 43.5 29.1999 44.3 29.7999 44.9C30.3999 45.5 31.3 45.8 32.2 45.8C32.8 45.8 33.2999 46 33.5999 46.3C33.8999 46.6 34.0999 47 34.0999 47.4C34.0999 47.8 33.8999 48.2 33.5999 48.5C32.7999 49.2 31.5 49.2 30.7 48.5C30.4 48.2 30.2 47.8 30.2 47.4H28.7C28.7 48.2 29.1 49 29.7 49.6C30.2 50 30.6999 50.3 31.4 50.4V52.2H33V50.4C33.6 50.3 34.2 50 34.7 49.6C35.4 49 35.7 48.2 35.7 47.4C35.7 46.6 35.3 45.8 34.7 45.2C34.1 44.6 33.1999 44.3 32.2999 44.3C31.7999 44.3 31.1999 44.1 30.9 43.8C30.6 43.5 30.4 43.1 30.4 42.7C30.4 42.3 30.6 41.9 30.9 41.6C31.6 41 32.9 41 33.7 41.6Z" fill="currentcolor"/>
<path d="M60 34V30H59.8C59.7 28.5 59.5 27 59.1 25.6L63.8 22.3L60.7 15.3L55.1 16.5C52.9 13.2 50 10.5 46.6 8.4L47.6 2.7L40.5 0L37.4 4.9C33.5 4.1 29.5 4.2 25.7 5.1L22.4 0.4L15.4 3.5L16.6 9.1C13.3 11.3 10.6 14.2 8.5 17.6L2.8 16.6L0 23.7L4.9 26.8C4.7 27.8 4.6 28.9 4.5 30H4.4V30.8V31.4V60H8.3V64H64V34H60ZM1.8 23.1L3.7 18.2L9.2 19.2C11.2 15.5 14.3 12.4 18.2 9.8L17 4.4L21.8 2.3L25 6.9C29.1 5.7 33.5 5.7 38 6.6L41 1.9L45.9 3.8L44.9 9.3C48.9 11.6 52 14.6 54.3 18.3L59.7 17.1L61.8 21.9L57.2 25.1L57.3 25.6C57.7 27 57.9 28.6 58 30.1H52.9C51.9 19.5 43.3 11.3 32.5 10.9C21.6 10.5 12.1 19 11.1 30H5.9C6 28.8 6.5 26.1 6.5 26.1L1.8 23.1ZM51.8 30H12.5C13.6 19.8 22.4 11.9 32.8 12.3C42.8 12.7 50.8 20.2 51.8 30ZM58.6 31.5V58.6H5.9V31.5M62.5 62.5H9.8V60.1H60V35.4H62.4V62.5H62.5Z" fill="currentcolor"/>
<path d="M50.5999 35.5V34.8H13.8999V35.5C13.8999 37 12.6999 38.3 11.0999 38.3H10.3999V51.9H11.0999C12.5999 51.9 13.8999 53.1 13.8999 54.7V55.4H50.5999V54.7C50.5999 53.2 51.7999 51.9 53.3999 51.9H54.0999V38.3H53.3999C51.7999 38.3 50.5999 37 50.5999 35.5ZM52.5999 50.5C50.7999 50.8 49.4999 52.2 49.1999 53.9H15.2999C14.9999 52.1 13.5999 50.8 11.8999 50.5V39.7C13.6999 39.4 14.9999 38 15.2999 36.3H49.1999C49.4999 38.1 50.8999 39.4 52.5999 39.7V50.5Z" fill="currentcolor"/>
</svg>
