<svg viewBox="0 0 64 64" fill="none" xmlns="http://www.w3.org/2000/svg">
<path d="M58.4 59.5V57H56.9V59.5H50.1V57H48.7V59.5H41.9V57H40.4V59.5H33.7V57H32.2V59.5H25.4V57H24V59.5H17.2V57H15.7V59.5H9V57H7.5V59.5H1.5V54.7H4V53.2H1.5V46.9H4V45.5H1.5V39.2H4V37.7H1.5V31.4H4V29.9H1.5V23.6H4V22.1H1.5V15.8H4V14.3H1.5V8.8H0V61H64V59.5H58.4Z" fill="currentcolor"/>
<path d="M8.8002 50.2L14.9002 44.1L24.0002 53.2L32.9002 44.3L41.5002 53H55.8002L53.1002 55.7L54.2002 56.8L58.7002 52.3L54.2002 47.8L53.1002 48.8L55.8002 51.5H42.2002L32.9002 42.2L24.0002 51.1L15.9002 43.1L19.9002 39.1H41.5002L60.3002 20.3V24.2H61.8002V17.8H55.4002V19.3H59.3002L40.9002 37.7H19.2002L14.9002 42L8.8002 35.9L7.7002 37L13.8002 43.1L7.7002 49.2L8.8002 50.2Z" fill="currentcolor"/>
<path d="M36.9998 10.6C34.5998 7.4 31.4998 5.7 27.8998 5.3L25.8998 17.6L14.2998 22L14.5998 22.7C15.3998 24.9 16.6998 26.6 18.4998 28.1C20.7998 30 23.6998 31 26.5998 31C30.6998 31 33.8998 29.2 36.5998 26.3C38.0998 24.5 38.9998 22.5 39.2998 20.2C39.7998 16.8 38.9998 13.3 36.9998 10.6ZM26.4998 29.5C23.8998 29.5 21.2998 28.6 19.2998 26.9C17.8998 25.7 16.8998 24.4 16.0998 22.8L26.2998 18.9L34.3998 25.5H34.4998L34.7998 25.7C32.6998 28.1 29.6998 29.5 26.4998 29.5ZM37.7998 19.9C37.4998 21.7 36.8998 23.2 35.7998 24.7L34.4998 23.6L27.2998 17.7L29.0998 7C31.7998 7.6 34.0998 9.19999 35.7998 11.4C37.5998 13.9 38.2998 16.9 37.7998 19.9Z" fill="currentcolor"/>
<path d="M25.8998 3.2C23.5998 2.8 21.4998 3 19.2998 3.9C12.6998 6.4 9.29978 13.9 11.7998 20.5L12.0998 21.2L24.4998 16.5L26.5998 3.4L25.8998 3.2ZM23.1998 15.4L12.9998 19.2C11.2998 13.5 14.1998 7.4 19.8998 5.2C21.5998 4.6 23.2998 4.3 24.9998 4.5L23.1998 15.4Z" fill="currentcolor"/>
</svg>
