<svg viewBox="0 0 64 64" fill="none" xmlns="http://www.w3.org/2000/svg">
<path d="M52 32.8L50.2 29.5H61.4C62.3 29.5 63.1 28.7 63.1 27.8V8.90003C63.1 8.00003 62.3 7.20003 61.4 7.20003H29.2C28.3 7.20003 27.5 8.00003 27.5 8.90003V27.8C27.5 28.7 28.3 29.5 29.2 29.5H40.4L38.6 32.8H0L2 39.9H6.5V56.8H8V39.9H13V50.3H14.5V39.9H49.7V50.3H51.2V39.9H56.2V56.8H57.7V39.9H62L64 32.8H52ZM29.2 28C29.1 28 29 27.9 29 27.8V8.90003C29 8.80003 29.1 8.70003 29.2 8.70003H61.5C61.6 8.70003 61.7 8.80003 61.7 8.90003V27.8C61.7 27.9 61.6 28 61.5 28H29.2ZM42.1 29.5H48.6L50.4 32.8H40.3L42.1 29.5ZM60.9 38.5H3.1L1.9 34.3H62.1L60.9 38.5Z" fill="currentcolor"/>
<path d="M22.0002 12.8L23.0002 11.1L16.3002 9.80003L14.0002 8.40003C12.8002 7.70003 11.1002 8.10003 10.4002 9.30003C9.7002 10.5 10.1002 12.1 11.3002 12.9L11.4002 13L7.1002 19.4C6.9002 19.3 6.6002 19.2 6.3002 19.2C5.1002 19.2 4.2002 20.2 4.2002 21.3C4.2002 22.5 5.2002 23.5 6.3002 23.5C6.4002 23.5 6.6002 23.5 6.7002 23.4L9.5002 30.2H5.6002V31.7H16.1002V30.2H11.3002L8.1002 22.7C8.7002 21.9 8.7002 21.1 8.3002 20.4L12.7002 13.8L13.6002 14.3L18.0002 19.5L19.0002 17.9C20.2002 18.5 22.0002 18 22.7002 16.7C23.5002 15.4 23.2002 13.7 22.0002 12.8ZM6.5002 22.1C6.1002 22.1 5.8002 21.8 5.8002 21.4C5.8002 21 6.1002 20.7 6.5002 20.7C6.9002 20.7 7.2002 21 7.2002 21.4C7.1002 21.8 6.8002 22 6.5002 22.1ZM12.1002 11.7C11.6002 11.4 11.4002 10.7 11.7002 10.1C12.1002 9.50003 12.6002 9.40003 13.3002 9.70003L15.0002 10.7L13.8002 12.7L12.1002 11.7ZM17.8002 17L15.0002 13.6L16.4002 11.3L20.7002 12.2L17.8002 17ZM21.5002 15.9C20.9002 16.6 20.4002 16.8 19.8002 16.6L21.3002 14.1C21.7002 14.5 21.9002 15.3 21.5002 15.9Z" fill="currentcolor"/>
<path d="M59.9002 10.4H30.7002V26.3H59.9002V10.4ZM58.5002 24.8H32.2002V11.8H58.5002V24.8Z" fill="currentcolor"/>
</svg>
