<svg viewBox="0 0 64 64" fill="none" xmlns="http://www.w3.org/2000/svg">
<path d="M46.3001 18.7C46.7001 18 46.9001 17.3 46.9001 16.5C46.9001 13.9 44.7001 11.8 42.1001 11.9C42.0001 10.3 41.0001 8.8 38.9001 8.8C38.6001 8.8 38.3001 8.8 38.1001 8.9C37.9001 7.5 36.8001 6.5 35.4001 6.5C33.9001 6.5 32.6001 7.7 32.6001 9.3V35C32.6001 36.5 33.8001 37.8 35.4001 37.8C36.5001 37.8 37.5001 37.1 37.9001 36.2C38.4001 36.5 39.0001 36.6 39.6001 36.6C39.8001 36.6 39.9001 36.6 40.1001 36.6C41.1001 36.5 41.9001 36 42.5001 35.2C43.0001 34.6 43.2001 33.8 43.2001 33.1C45.1001 32.2 46.4001 30.3 46.4001 28.1C46.4001 27.3 46.2001 26.6 45.9001 25.9C47.4001 25.3 48.4001 23.9 48.4001 22.2C48.3001 20.7 47.5001 19.4 46.3001 18.7ZM45.0001 24.5C44.4001 23.8 43.7001 23.3 42.8001 22.9L42.3001 24.3C43.8001 24.9 44.8001 26.4 44.8001 28C44.8001 30.2 43.0001 32 40.8001 32V33.5C41.0001 33.5 41.3001 33.5 41.5001 33.5C41.4001 33.8 41.3001 34.1 41.1001 34.3C40.8001 34.8 40.3001 35.1 39.7001 35.1C39.1001 35.2 38.6001 35 38.1001 34.7C37.6001 34.4 37.3001 33.9 37.3001 33.3L35.8001 33.5C35.9001 34.1 36.1001 34.6 36.5001 35.1C36.5001 35.8 35.9001 36.3 35.2001 36.3C34.5001 36.3 33.9001 35.7 33.9001 35V30.8C34.0001 30.4 34.6001 28.2 36.7001 28.2V26.7C35.5001 26.7 34.6001 27.2 33.9001 27.8V20.2C34.3001 20.2 34.8001 20.2 35.3001 20.5C35.8001 20.8 36.1001 21.2 36.2001 21.9L37.6001 21.5C37.3001 20.5 36.8001 19.7 36.0001 19.2C35.3001 18.8 34.5001 18.7 33.9001 18.7V13.4C34.2001 13.4 34.7001 13.6 35.0001 14.1L36.3001 13.4C35.7001 12.4 34.8001 12 34.0001 12V9.3C34.0001 8.5 34.6001 8 35.3001 8C36.0001 8 36.6001 8.6 36.6001 9.3C36.6001 9.6 36.5001 9.8 36.4001 10L36.3001 10.1L36.9001 10.5L37.5001 11C37.6001 10.9 37.6001 10.9 37.6001 10.8C37.9001 10.4 38.4001 10.2 38.9001 10.2C40.6001 10.2 40.7001 11.7 40.7001 12.2V12.5L41.7001 13.4H42.0001C42.1001 13.4 42.3001 13.4 42.4001 13.4C44.1001 13.4 45.5001 14.8 45.5001 16.5C45.5001 17.7 44.8001 18.8 43.7001 19.3L44.3001 20.6C44.7001 20.4 45.1001 20.2 45.4001 19.9C46.3001 20.3 46.8001 21.2 46.8001 22.2C46.8001 23.2 46.1001 24.2 45.0001 24.5Z" fill="currentcolor"/>
<path d="M37 15.6999L37.3 17.0999C37.4 17.0999 39.5 16.5999 40.4 18.4999L41.7 17.8999C40.7 15.5999 38.2 15.4999 37 15.6999Z" fill="currentcolor"/>
<path d="M39.9003 26C39.9003 26.1 40.3003 27.5 38.8003 28.4L39.6003 29.7C41.6003 28.5 41.6003 26.5 41.3003 25.6L39.9003 26Z" fill="currentcolor"/>
<path d="M28.7002 6.5C27.3002 6.5 26.1002 7.6 26.0002 8.9C25.7002 8.8 25.5002 8.8 25.2002 8.8C23.1002 8.8 22.0002 10.3 21.9002 11.9C21.8002 11.9 21.7002 11.9 21.7002 11.9C19.2002 11.9 17.1002 13.9 17.1002 16.5C17.1002 17.3 17.3002 18.1 17.7002 18.7C16.5002 19.4 15.7002 20.7 15.7002 22.1C15.7002 23.7 16.7002 25.2 18.2002 25.8C17.9002 26.5 17.7002 27.2 17.7002 28C17.7002 30.2 19.0002 32.1 20.9002 33C20.9002 34.7 22.2002 36.3 24.0002 36.5C24.2002 36.5 24.3002 36.5 24.5002 36.5C25.1002 36.5 25.7002 36.3 26.2002 36.1C26.6002 37.1 27.6002 37.7 28.7002 37.7C30.2002 37.7 31.5002 36.5 31.5002 34.9V9.3C31.5002 7.7 30.2002 6.5 28.7002 6.5ZM30.0002 12C29.2002 12 28.3002 12.4 27.7002 13.4L29.0002 14.1C29.3002 13.6 29.7002 13.4 30.1002 13.4V18.7C29.5002 18.7 28.7002 18.7 28.0002 19.2C27.2002 19.7 26.6002 20.4 26.4002 21.5L27.8002 21.9C28.0002 21.2 28.3002 20.8 28.7002 20.5C29.2002 20.2 29.7002 20.2 30.1002 20.2V27.8C29.4002 27.2 28.5002 26.7 27.3002 26.7V28.2C29.4002 28.2 30.0002 30.4 30.1002 30.8V35C30.1002 35.7 29.5002 36.3 28.8002 36.3C28.1002 36.3 27.5002 35.7 27.5002 35.1C27.8002 34.6 28.1002 34.1 28.2002 33.5L26.7002 33.3C26.5002 34.5 25.4002 35.3 24.3002 35.1C23.4002 35 22.7002 34.3 22.5002 33.5C22.7002 33.5 23.0002 33.5 23.2002 33.5V32C21.0002 32 19.2002 30.2 19.2002 28C19.2002 26.4 20.2002 24.9 21.7002 24.3L21.2002 22.9C20.3002 23.2 19.6002 23.8 19.0002 24.5C18.0002 24.2 17.2002 23.2 17.2002 22.1C17.2002 21.1 17.8002 20.3 18.6002 19.8C18.9002 20.1 19.3002 20.3 19.7002 20.5L20.3002 19.2C19.2002 18.7 18.5002 17.6 18.5002 16.4C18.5002 14.7 19.9002 13.3 21.6002 13.3C21.7002 13.3 22.3002 13.4 22.3002 13.4L23.3002 12.5V12.2C23.3002 11.7 23.4002 10.2 25.1002 10.2C25.6002 10.2 26.1002 10.4 26.4002 10.8C26.4002 10.9 26.5002 10.9 26.5002 11L27.7002 10.1L27.6002 10C27.4002 9.8 27.4002 9.5 27.4002 9.3C27.4002 8.5 28.0002 8 28.7002 8C29.4002 8 30.0002 8.5 30.0002 9.3V12Z" fill="currentcolor"/>
<path d="M27.0002 15.7C25.8002 15.4 23.3002 15.5 22.2002 18L23.5002 18.6C24.3002 16.7 26.4002 17.1 26.6002 17.2L27.0002 15.7Z" fill="currentcolor"/>
<path d="M24.1001 26L23.4001 25.8L22.7001 25.6C22.4001 26.5 22.5001 28.5 24.4001 29.7L25.2001 28.4C23.7001 27.5 24.0001 26.1 24.1001 26Z" fill="currentcolor"/>
<path d="M52.3002 20.8C51.8002 10.6 43.6002 2.30004 33.4002 1.60004C21.6002 0.800037 11.7002 10.2 11.7002 21.9C11.7002 24.2 12.1002 26.4 12.9002 28.7L14.7002 32.3C15.0002 32.7 15.2002 33.2 15.5002 33.7L15.6002 33.8C18.5002 39 20.6002 44.8 21.9002 50.9H18.0002V52.4H22.2002C22.4002 53.2 22.5002 54 22.6002 54.8H20.6002V56.3H22.8002C22.9002 56.8 23.0002 57.8 23.0002 57.8C23.5002 59.2 24.7002 60.1 26.2002 60.3C27.2002 62.5 29.5002 64 32.1002 64C34.7002 64 37.0002 62.5 38.0002 60.3C39.6002 60 40.9002 58.8 41.3002 57.2C41.3002 56.9 41.4002 56.6 41.4002 56.3H43.6002V54.8H41.6002C41.6002 54.5 41.9002 52.9 42.0002 52.4H46.2002V50.9H42.3002C43.7002 44.4 46.0002 38.2 49.2002 32.8C49.4002 32.5 49.5002 32.3 49.7002 32L49.8002 31.9C51.6002 28.5 52.5002 24.7 52.3002 20.8ZM32.0002 62.5C30.3002 62.5 28.7002 61.6 27.8002 60.3H36.3002C35.4002 61.7 33.8002 62.5 32.0002 62.5ZM39.8002 56.9C39.5002 58.1 38.5002 58.9 37.3002 58.9H26.7002C25.7002 58.9 24.8002 58.3 24.4002 57.3C24.4002 56.9 24.3002 56.6 24.3002 56.2H40.0002C39.8002 56.4 39.8002 56.7 39.8002 56.9ZM40.1002 54.7H24.0002C23.9002 53.9 23.7002 53.1 23.6002 52.3H40.5002C40.4002 52.8 40.1002 54.4 40.1002 54.7ZM48.4002 31.1C48.2002 31.4 48.0002 31.7 47.9002 32C44.6002 37.6 42.2002 44.1 40.8002 50.8H23.3002C22.0002 44.3 19.8002 38.3 16.7002 32.9L16.6002 32.8C16.4002 32.4 16.1002 31.9 15.9002 31.5L14.2002 28C13.5002 26 13.2002 23.9 13.2002 21.8C13.2002 11 22.4002 2.30004 33.3002 3.00004C42.8002 3.60004 50.3002 11.3 50.8002 20.8C51.0002 24.5 50.2002 28 48.4002 31.1Z" fill="currentcolor"/>
<path d="M21.9098 2.94623L20.2095 0.00183105L18.9105 0.751981L20.6108 3.69638L21.9098 2.94623Z" fill="currentcolor"/>
<path d="M13.731 10.5118L10.7866 8.81177L10.0366 10.1108L12.981 11.8108L13.731 10.5118Z" fill="currentcolor"/>
<path d="M10.6002 21.1H7.2002V22.6H10.6002V21.1Z" fill="currentcolor"/>
<path d="M56.8004 21.1H53.4004V22.6H56.8004V21.1Z" fill="currentcolor"/>
<path d="M10.9306 34.8516L13.875 33.1512L13.1248 31.8522L10.1804 33.5526L10.9306 34.8516Z" fill="currentcolor"/>
<path d="M50.0756 33.19L53.02 34.8904L53.7702 33.5914L50.8258 31.891L50.0756 33.19Z" fill="currentcolor"/>
<path d="M53.7838 10.1297L53.0337 8.83069L50.0893 10.531L50.8394 11.83L53.7838 10.1297Z" fill="currentcolor"/>
<path d="M44.9821 0.696777L43.6831 -0.0532227L41.9831 2.89118L43.2821 3.64118L44.9821 0.696777Z" fill="currentcolor"/>
</svg>
