<svg viewBox="0 0 64 64" fill="none" xmlns="http://www.w3.org/2000/svg">
<path d="M53.0003 57.6C52.0003 57.6 51.2003 58 50.5003 58.7L42.8003 50.7V22.9H41.3003V51.3L49.7003 60.1C49.6003 60.4 49.5003 60.8 49.5003 61.1C49.5003 63 51.0003 64.5 52.9003 64.5C54.8003 64.5 56.3003 63 56.3003 61.1C56.4003 59.1 54.9003 57.6 53.0003 57.6ZM53.0003 62.9C52.0003 62.9 51.1003 62 51.1003 61C51.1003 60 52.0003 59.1 53.0003 59.1C54.0003 59.1 54.9003 60 54.9003 61C54.9003 62 54.1003 62.9 53.0003 62.9Z" fill="black"/>
<path d="M37.5003 57.7V20.2H36.0003V57.7C34.5003 58 33.3003 59.4 33.3003 61C33.3003 62.9 34.8003 64.4 36.7003 64.4C38.6003 64.4 40.1003 62.9 40.1003 61C40.1003 59.4 39.0003 58 37.5003 57.7ZM36.7003 62.9C35.7003 62.9 34.8003 62 34.8003 61C34.8003 60 35.7003 59.1 36.7003 59.1C37.7003 59.1 38.6003 60 38.6003 61C38.6003 62 37.8003 62.9 36.7003 62.9Z" fill="black"/>
<path d="M22.6 51.2V22.9H21.1V50.7L13.4 58.7C12.8 58.1 11.9 57.6 10.9 57.6C9 57.6 7.5 59.1 7.5 61C7.5 62.9 9 64.4 10.9 64.4C12.8 64.4 14.3 62.9 14.3 61C14.3 60.6 14.2 60.3 14.1 60L22.6 51.2ZM11 62.9C10 62.9 9.1 62 9.1 61C9.1 60 10 59.1 11 59.1C12 59.1 12.9 60 12.9 61C12.9 62 12 62.9 11 62.9Z" fill="black"/>
<path d="M8.3001 45.7C7.9001 44.2 6.6001 43 5.0001 43C3.1001 43 1.6001 44.5 1.6001 46.4C1.6001 48.3 3.1001 49.8 5.0001 49.8C6.6001 49.8 8.0001 48.7 8.3001 47.1H17.3001V25.6H15.8001V32.6H8.6001C4.3001 32.6 0.700098 29.1 0.700098 24.7C0.700098 24.3 0.700098 23.8 0.800098 23.4V23.1C1.5001 19.5 4.8001 16.8 8.5001 16.8H11.2001V16C11.2001 11.7 14.7001 8.19998 19.0001 8.19998C22.1001 8.19998 24.9001 9.99998 26.1001 12.8L27.5001 12.2C27.1001 11.2 26.5001 10.4 25.8001 9.59998C26.8001 4.59998 31.1001 0.999976 36.2001 0.999976C42.1001 0.999976 46.8001 5.79998 46.8001 11.6C46.8001 12.7 46.6001 13.9 46.3001 14.9L47.7001 15.4C48.1001 14.3 48.2001 13.2 48.3001 12.1C49.6001 11.5 51.1001 11.2 52.5001 11.2C58.4001 11.2 63.1001 16 63.1001 21.8C63.1001 27.7 58.3001 32.4 52.5001 32.4H48.1001V25.4H46.6001V47H55.6001C55.9001 48.5 57.3001 49.7 58.9001 49.7C60.8001 49.7 62.3001 48.2 62.3001 46.3C62.3001 44.4 60.8001 42.9 58.9001 42.9C57.3001 42.9 55.9001 44 55.6001 45.6H48.1001V34H52.5001C59.2001 34 64.6001 28.6 64.6001 21.9C64.6001 15.2 59.3001 9.79998 52.6001 9.79998C51.1001 9.79998 49.7001 10.1 48.3001 10.6C47.7001 4.39998 42.5001 -0.400024 36.2001 -0.400024C30.7001 -0.400024 25.9001 3.29998 24.5001 8.59998C22.9001 7.49998 21.0001 6.79998 19.0001 6.79998C14.1001 6.79998 10.1001 10.6 9.7001 15.4H8.5001C4.1001 15.4 0.200098 18.5 -0.699902 22.9L-0.799902 23.2C-0.899902 23.7 -0.899902 24.2 -0.899902 24.8C-0.899902 30 3.3001 34.2 8.5001 34.2H15.6001V45.9H8.3001V45.7ZM5.0001 48.3C4.0001 48.3 3.1001 47.4 3.1001 46.4C3.1001 45.4 4.0001 44.5 5.0001 44.5C6.0001 44.5 6.9001 45.4 6.9001 46.4C6.9001 47.5 6.0001 48.3 5.0001 48.3ZM59.0001 44.5C60.0001 44.5 60.9001 45.4 60.9001 46.4C60.9001 47.4 60.0001 48.3 59.0001 48.3C58.0001 48.3 57.1001 47.4 57.1001 46.4C57.1001 45.4 58.0001 44.5 59.0001 44.5Z" fill="black"/>
<path d="M27.9999 57.7V20.2H26.4999V57.7C24.9999 58 23.8999 59.4 23.8999 61C23.8999 62.9 25.3999 64.4 27.2999 64.4C29.1999 64.4 30.6999 62.9 30.6999 61C30.6999 59.4 29.4999 58 27.9999 57.7ZM27.2999 62.9C26.2999 62.9 25.3999 62 25.3999 61C25.3999 60 26.2999 59.1 27.2999 59.1C28.2999 59.1 29.1999 60 29.1999 61C29.1999 62 28.2999 62.9 27.2999 62.9Z" fill="black"/>
</svg>
