<svg viewBox="0 0 64 64" fill="none" xmlns="http://www.w3.org/2000/svg">
<path d="M62.1001 54.2L57.9001 51.5C58.6001 50.6 59.0001 49.5 59.0001 48.3C59.0001 45.4 56.7001 43.1 53.8001 43.1C50.9001 43.1 48.6001 45.4 48.6001 48.3C48.6001 49.5 49.0001 50.6 49.7001 51.5L45.5001 54.2C44.3001 55 43.6001 56.3 43.6001 57.7V62.8H64.0001V57.7C64.0001 56.3 63.3001 55 62.1001 54.2ZM53.7001 44.5C55.8001 44.5 57.5001 46.2 57.5001 48.3C57.5001 49.4 57.0001 50.4 56.2001 51.1C55.2001 52 53.7001 52.2 52.4001 51.8C50.7001 51.1 50.0001 49.9 50.0001 48.3C49.9001 46.2 51.6001 44.5 53.7001 44.5ZM62.5001 61.3H44.9001V57.7C44.9001 56.8 45.4001 55.9 46.1001 55.5L50.7001 52.6C52.6001 53.9 54.9001 53.9 56.8001 52.6L61.4001 55.5C62.2001 56 62.6001 56.8 62.6001 57.7V61.3H62.5001Z" fill="currentcolor"/>
<path d="M40.3998 54.2L35.9998 51.5C36.6998 50.6 36.9998 49.5 36.9998 48.4C36.9998 45.5 34.6998 43.2 31.7998 43.2C28.8998 43.2 26.5998 45.5 26.5998 48.4C26.5998 49.6 26.9998 50.8 27.7998 51.7L23.6998 54.3C22.4998 55.1 21.7998 56.4 21.7998 57.8V62.9H42.3998V57.8C42.2998 56.3 41.5998 55 40.3998 54.2ZM31.7998 44.5C33.8998 44.5 35.5998 46.2 35.5998 48.3C35.5998 49.4 35.0998 50.4 34.2998 51.1C33.5998 51.7 32.7998 52 31.8998 52C30.9998 52 30.1998 51.7 29.4998 51.1L29.0998 50.7L28.9998 50.8C28.3998 50.1 27.9998 49.2 27.9998 48.3C27.9998 46.2 29.6998 44.5 31.7998 44.5ZM40.7998 61.3H23.1998V57.7C23.1998 56.8 23.6998 55.9 24.3998 55.5L28.8998 52.7C30.6998 53.9 33.0998 54 34.9998 52.6L39.5998 55.5C40.3998 56 40.7998 56.8 40.7998 57.7V61.3Z" fill="currentcolor"/>
<path d="M18.7 54.2L14.5 51.5C15.2 50.6 15.6 49.5 15.6 48.3C15.6 45.4 13.3 43.1 10.4 43.1C7.5 43.1 5.2 45.4 5.2 48.3C5.2 49.5 5.6 50.6 6.3 51.5L2.1 54.2C0.7 55 0 56.3 0 57.7V62.8H20.6V57.7C20.6 56.3 19.9 55 18.7 54.2ZM10.3 44.5C12.4 44.5 14.1 46.2 14.1 48.3C14.1 49.4 13.6 50.4 12.8 51.1C9.9 53.3 6.6 51.2 6.5 48.3C6.5 46.2 8.2 44.5 10.3 44.5ZM19.1 61.3H1.5V57.7C1.5 56.8 2 55.9 2.7 55.5L7.3 52.6C9.3 53.9 11.5 53.8 13.4 52.6L18 55.5C18.8 56 19.2 56.8 19.2 57.7V61.3H19.1Z" fill="currentcolor"/>
<path d="M31.2999 27.5V38.1L28.7999 35.6L27.7 36.6L32 40.9L36.2999 36.6L35.2 35.6L32.7 38.1V27.5H31.2999Z" fill="currentcolor"/>
<path d="M44.6 37.2L50.4 38.9L52.1 33.1L50.7 32.7L49.7 36.1L44.7 27.1L43.5 27.9L48.4 36.8L45 35.8L44.6 37.2Z" fill="currentcolor"/>
<path d="M19.3999 37.2L18.9999 35.8L15.5999 36.8L20.4999 27.9L19.2999 27.1L14.2999 36.1L13.2999 32.7L11.8999 33.1L13.5999 38.9L19.3999 37.2Z" fill="currentcolor"/>
<path d="M30.6001 9.59996C31.0001 9.19996 31.8001 9.19996 32.3001 9.59996C32.4001 9.69996 32.6001 9.89996 32.6001 10.2H34.0001C34.0001 9.59996 33.7001 8.99996 33.2001 8.49996C32.9001 8.19996 32.5001 8.09996 32.1001 7.99996V6.89996H30.6001V7.99996C30.2001 8.09996 29.8001 8.29996 29.5001 8.49996C29.0001 8.89996 28.7001 9.49996 28.7001 10.2C28.7001 10.8 29.0001 11.5 29.5001 11.9C30.0001 12.3 30.6001 12.5 31.3001 12.5C31.6001 12.5 31.9001 12.6 32.1001 12.8C32.2001 12.9 32.4001 13.1 32.4001 13.4C32.4001 13.7 32.2001 13.9 32.1001 14C31.7001 14.4 30.9001 14.4 30.4001 14C30.3001 13.9 30.1001 13.7 30.1001 13.4H28.6001C28.6001 14 28.9001 14.6 29.4001 15.1C29.7001 15.4 30.1001 15.5 30.5001 15.6V16.7H32.0001V15.6C32.4001 15.5 32.8001 15.3 33.1001 15.1C33.6001 14.7 33.9001 14.1 33.9001 13.4C33.9001 12.8 33.6001 12.2 33.1001 11.7C32.6001 11.3 32.0001 11.1 31.3001 11.1C31.0001 11.1 30.7001 11 30.5001 10.8C30.4001 10.7 30.2001 10.5 30.2001 10.2C30.3001 9.89996 30.5001 9.69996 30.6001 9.59996Z" fill="currentcolor"/>
<path d="M14.8001 25H53.3001V3.99999H50.6001V1.29999H12.1001V22.3H14.8001V25ZM51.9001 5.39999V23.5H16.3001V22.3H50.7001V5.39999H51.9001ZM13.6001 2.69999H49.2001V20.8H13.6001V2.69999Z" fill="currentcolor"/>
<path d="M44.2002 5.2V4.5H18.6002V5.2C18.6002 6.1 17.9002 6.9 16.9002 6.9H16.2002V16.7H17.0002C17.9002 16.7 18.7002 17.4 18.7002 18.4V19.1H44.3002V18.4C44.3002 17.5 45.0002 16.7 46.0002 16.7H46.7002V6.9H46.0002C44.9002 6.9 44.2002 6.2 44.2002 5.2ZM45.1002 15.3C44.0002 15.6 43.1002 16.5 42.8002 17.6H20.0002C19.7002 16.5 18.8002 15.6 17.7002 15.3V8.3C18.8002 8 19.7002 7.1 20.0002 6H42.8002C43.1002 7.1 44.0002 8 45.1002 8.3V15.3Z" fill="currentcolor"/>
</svg>
