<svg viewBox="0 0 64 64" fill="none" xmlns="http://www.w3.org/2000/svg">
<path d="M3.5 10.5V11.2V46.3H60.6V11.3V10.6H3.5V10.5ZM59.1 44.9H4.9V17.7H59V44.9H59.1ZM59.1 16.3H4.9V12H59V16.3H59.1Z" fill="currentcolor"/>
<path d="M12.7998 13.4H11.2998V14.9H12.7998V13.4Z" fill="currentcolor"/>
<path d="M9.3999 13.4H7.8999V14.9H9.3999V13.4Z" fill="currentcolor"/>
<path d="M16.2998 13.4H14.7998V14.9H16.2998V13.4Z" fill="currentcolor"/>
<path d="M0 48.1V50.6L2.8 53.5H61.3L64.1 50.6V48.1H0ZM62.5 49.9L60.6 51.9H3.4L1.5 49.9V49.5H62.6V49.9H62.5Z" fill="currentcolor"/>
<path d="M15.5998 28.5L13.8998 25.5L12.1998 28.5L8.7998 29.2L11.0998 31.7L10.6998 35.1L13.7998 33.7L16.8998 35.1L16.4998 31.7L18.7998 29.2L15.5998 28.5ZM15.2998 32.8L13.8998 32.2L12.4998 32.8L12.6998 31.3L11.6998 30.2L13.1998 29.9L13.8998 28.6L14.5998 29.9L16.0998 30.2L15.0998 31.3L15.2998 32.8Z" fill="currentcolor"/>
<path d="M27.6999 28.5L25.9999 25.5L24.2999 28.5L20.8999 29.2L23.1999 31.7L22.7999 35.1L25.8999 33.7L28.9999 35.1L28.5999 31.7L30.8999 29.2L27.6999 28.5ZM27.3999 32.8L25.9999 32.1L24.5999 32.7L24.7999 31.2L23.7999 30.1L25.2999 29.8L25.9999 28.5L26.6999 29.8L28.1999 30.1L27.1999 31.2L27.3999 32.8Z" fill="currentcolor"/>
<path d="M39.6999 28.5L37.9999 25.5L36.2999 28.5L32.8999 29.2L35.1999 31.7L34.7999 35.1L37.8999 33.7L40.9999 35.1L40.5999 31.7L42.8999 29.2L39.6999 28.5ZM39.3999 32.8L37.9999 32.1L36.5999 32.7L36.7999 31.2L35.7999 30.1L37.2999 29.8L37.9999 28.5L38.6999 29.8L40.1999 30.1L39.1999 31.2L39.3999 32.8Z" fill="currentcolor"/>
<path d="M51.7 28.5L50 25.5L48.3 28.5L45 29.2L47.3 31.7L46.9 35.1L50 33.7L53.1 35.1L52.7 31.7L55 29.2L51.7 28.5ZM51.4 32.8L50 32.2L48.6 32.8L48.8 31.3L47.8 30.2L49.3 29.9L50 28.6L50.7 29.9L52.2 30.2L51.2 31.3L51.4 32.8Z" fill="currentcolor"/>
</svg>
