<svg viewBox="0 0 64 64" fill="none" xmlns="http://www.w3.org/2000/svg">
<path d="M12.4 0C10.6 0 9.1 1.5 9.1 3.3V44.7C9.1 45.7 8.3 46.5 7.3 46.5C6.3 46.5 5.5 45.7 5.5 44.7V7.2H4V44.7C4 46.5 5.5 48 7.3 48C9.1 48 10.6 46.5 10.6 44.7V3.3C10.6 2.3 11.4 1.5 12.4 1.5C13.4 1.5 14.2 2.3 14.2 3.3V59.2L19.4 64L23.8 59.9L28.2 64L32.6 59.9L37 64L41.4 59.9L46 64L50.4 59.9L54.8 64L60 59.2V0H12.4ZM58.6 58.6L54.9 62L50.5 57.9L46 62L41.6 57.9L37.1 62L32.7 57.9L28.3 62L23.9 57.9L19.4 62L15.7 58.6V3.3C15.7 2.6 15.5 2 15.1 1.5H58.5V58.6H58.6Z" fill="currentcolor"/>
<path d="M53.9999 6.40002H19.8999V7.90002H53.9999V6.40002Z" fill="currentcolor"/>
<path d="M53.9999 11.5H19.8999V13H53.9999V11.5Z" fill="currentcolor"/>
<path d="M53.9999 16.5H19.8999V18H53.9999V16.5Z" fill="currentcolor"/>
<path d="M42.8 21.6H41.3V23.1H42.8V21.6Z" fill="currentcolor"/>
<path d="M30.6001 21.6H29.1001V23.1H30.6001V21.6Z" fill="currentcolor"/>
<path d="M33.6001 21.6H32.1001V23.1H33.6001V21.6Z" fill="currentcolor"/>
<path d="M36.7 21.6H35.2V23.1H36.7V21.6Z" fill="currentcolor"/>
<path d="M39.7 21.6H38.2V23.1H39.7V21.6Z" fill="currentcolor"/>
<path d="M21.3999 21.6H19.8999V23.1H21.3999V21.6Z" fill="currentcolor"/>
<path d="M24.3999 21.6H22.8999V23.1H24.3999V21.6Z" fill="currentcolor"/>
<path d="M27.5 21.6H26V23.1H27.5V21.6Z" fill="currentcolor"/>
<path d="M48.8999 21.6H47.3999V23.1H48.8999V21.6Z" fill="currentcolor"/>
<path d="M54.0001 21.6H53.6001V23.1H54.0001V21.6Z" fill="currentcolor"/>
<path d="M45.8999 21.6H44.3999V23.1H45.8999V21.6Z" fill="currentcolor"/>
<path d="M52 21.6H50.5V23.1H52V21.6Z" fill="currentcolor"/>
<path d="M42.8999 26.6H19.8999V28.1H42.8999V26.6Z" fill="currentcolor"/>
<path d="M45.3 39.8C45.6 40.1 45.8 40.4 45.8 40.8H47.3C47.3 40 46.9 39.3 46.3 38.7C45.9 38.3 45.3 38.1 44.8 38V36.3H43.3V38C42.7 38.1 42.2 38.3 41.8 38.7C41.2 39.3 40.8 40 40.8 40.8C40.8 41.6 41.2 42.3 41.8 42.9C42.4 43.4 43.2 43.7 44.1 43.7C44.6 43.7 45.1001 43.9 45.4001 44.2C45.7001 44.5 45.9001 44.8 45.9001 45.2C45.9001 45.6 45.7001 45.9 45.4001 46.2C44.7001 46.8 43.5 46.8 42.8 46.2C42.5 45.9 42.3 45.6 42.3 45.2H40.8C40.8 46 41.2 46.7 41.8 47.3C42.2 47.7 42.8 47.9 43.3 48V49.6H44.8V48C45.4 47.9 45.9 47.6 46.3 47.3C46.9 46.7 47.3 46 47.3 45.2C47.3 44.4 46.9 43.7 46.3 43.1C45.7 42.6 44.9 42.3 44 42.3C43.5 42.3 43.0001 42.1 42.7001 41.8C42.4001 41.5 42.2001 41.2 42.2001 40.8C42.2001 40.4 42.4001 40.1 42.7001 39.8C43.3001 39.2 44.6 39.2 45.3 39.8Z" fill="currentcolor"/>
<path d="M33.5 53.5H54.5V32.5H33.5V53.5ZM34.9 34H53V52H34.9V34Z" fill="currentcolor"/>
<path d="M13.2 9.29999H11.7V10.8H13.2V9.29999Z" fill="currentcolor"/>
<path d="M13.2 12.3H11.7V13.8H13.2V12.3Z" fill="currentcolor"/>
<path d="M13.2 6.20001H11.7V7.70001H13.2V6.20001Z" fill="currentcolor"/>
</svg>
