<svg viewBox="0 0 64 64" fill="none" xmlns="http://www.w3.org/2000/svg">
<path d="M11.3 18.4C10.9 18.1 10.7 17.7 10.7 17.2H9.30005C9.30005 18.1 9.70005 18.9 10.4 19.5C10.9 19.9 11.5 20.2 12.2 20.3V22.2H13.7V20.3C14.4 20.2 15 19.9 15.4 19.5C16.1 18.9 16.5 18.1 16.5 17.2C16.5 16.3 16.1 15.5 15.4 14.9C14.7 14.3 13.8 14 12.9 14C12.3 14 11.8 13.8 11.4 13.5C11 13.2 10.8 12.8 10.8 12.3C10.8 11.9 11 11.4 11.4 11.1C12.2 10.4 13.6 10.4 14.4 11.1C14.8 11.4 15 11.8 15 12.3H16.5C16.5 11.4 16.1 10.6 15.4 9.99996C14.9 9.59996 14.3 9.29996 13.7 9.19996V7.29996H12.2V9.19996C11.6 9.29996 10.9 9.59996 10.4 9.99996C9.70005 10.6 9.30005 11.4 9.30005 12.3C9.30005 13.2 9.70005 14 10.4 14.6C11.1 15.2 12 15.5 12.9 15.5C13.5 15.5 14 15.7 14.4 16C14.8 16.3 15 16.7 15 17.2C15 17.6 14.8 18 14.4 18.4C13.6 19.1 12.1 19.1 11.3 18.4Z" fill="currentcolor"/>
<path d="M12.9 25.8C19 25.8 24 20.8 24 14.7C24 8.59998 19 3.59998 12.9 3.59998C6.80005 3.59998 1.80005 8.59998 1.80005 14.7C1.80005 20.9 6.80005 25.8 12.9 25.8ZM12.9 5.19998C18.2 5.19998 22.5 9.49998 22.5 14.8C22.5 20.1 18.2 24.4 12.9 24.4C7.60005 24.4 3.30005 20 3.30005 14.8C3.30005 9.59998 7.60005 5.19998 12.9 5.19998Z" fill="currentcolor"/>
<path d="M43.5 16.3L43.6 17C43.9 18.8 44.5 20.3 45.7 21.8C47.6 24.2 50.5 25.6 53.6 25.6C55.6 25.6 57.6 25 59.2 23.9L59.8 23.4L60.4 22.9C61.5 21.9 62.4 20.7 62.9 19.2C63.9 16.7 63.8 14 62.8 11.5C61.7 8.99996 59.8 7.09996 57.3 6.09996L56.6 5.79996L53.1 14.8L43.5 16.3ZM53.6 24.1C51 24.1 48.5 22.9 46.9 20.9C46.1 19.9 45.6 18.8 45.3 17.6L53.3 16.4L58.3 22.7C56.9 23.6 55.3 24.1 53.6 24.1ZM57.4 7.89996C59.2 8.79996 60.6 10.3 61.4 12.2C62.3 14.3 62.3 16.6 61.5 18.8C61 20 60.4 21 59.4 21.9L57.7 19.7L54.4 15.5L57.4 7.89996Z" fill="currentcolor"/>
<path d="M41.8999 15.4L52.2999 13.9L56.1999 4.09997L55.4999 3.79997C53.7999 3.09997 52.1999 2.89997 50.2999 3.19997C44.7999 3.99997 40.9999 9.09997 41.7999 14.6L41.8999 15.4ZM50.4999 4.69997C50.9999 4.59997 51.3999 4.59997 51.7999 4.59997C52.5999 4.59997 53.3999 4.69997 54.1999 4.99997L51.1999 12.5L43.1999 13.7C42.9999 9.29997 46.0999 5.29997 50.4999 4.69997Z" fill="currentcolor"/>
<path d="M64 28.4H0V29.9H64V28.4Z" fill="currentcolor"/>
<path d="M31.9999 33L20.8999 59.9L21.5999 60.2V61H42.4999V60.2L43.1999 59.9L31.9999 33ZM22.6999 59.4L31.9999 36.9L41.2999 59.4H22.6999Z" fill="currentcolor"/>
</svg>
