<svg viewBox="0 0 64 64" fill="none" xmlns="http://www.w3.org/2000/svg">
<g clip-path="url(#clip0_5_3443)">
<path d="M61.9001 47.3C61.5 46.4 60.9001 45.8 60 45.4C59.1 45 58.2001 45 57.3 45.4L44.6 51C44.6 50.8 44.7001 50.6 44.7001 50.4C44.7001 48.6 43.3 47.2 41.5 47.1C41.5 47.1 41.5 47.1 41.4001 47.1H32.6L25.9 44C24.5 43.3 22.9 43 21.4 43H16.3V40.6H1.80005V42.1H14.7V60.3H4.40005V61.8H16.2V59.4H20L32.3 63.5C33.1 63.8 34 63.9 34.8 63.9C36.1 63.9 37.4001 63.6 38.5 63L60 51.9C60.9001 51.5 61.5 50.9 61.9001 50C62.3001 49.1 62.3001 48.2 61.9001 47.3ZM59.4001 50.6L37.9001 61.8C36.3001 62.6 34.5 62.8 32.8 62.2L20.4 58.1H16.2V44.5H21.3C22.6 44.5 24 44.8 25.2001 45.4L32.2001 48.7H41.4001C42.4001 48.7 43.2001 49.5 43.2001 50.5C43.2001 51.5 42.4001 52.3 41.4001 52.3H30.6H30.5C29.5 52.5 27.6 53.3 27.6 55.3H29.1C29.1 54.2 30.4001 53.8 30.7001 53.8H41.4001C41.9001 53.8 42.4001 53.6 42.9001 53.4L57.8 46.8C58.3 46.6 58.9001 46.6 59.4001 46.8C59.9001 47 60.3 47.4 60.5 47.9C61 48.9 60.5 50.1 59.4001 50.6Z" fill="currentcolor"/>
<path d="M12.2 56.3H10.7V57.9001H12.2V56.3Z" fill="currentcolor"/>
<path d="M9.30005 56.3H7.80005V57.9001H9.30005V56.3Z" fill="currentcolor"/>
<path d="M40.5001 22.7V24.7C39.8001 24.8 39.2001 25.1 38.7001 25.5C38.0001 26.1 37.6001 26.9 37.6001 27.8C37.6001 28.7 38.0001 29.5 38.7001 30.1C39.4001 30.7 40.3001 31 41.2001 31C41.8001 31 42.4001 31.2 42.8001 31.6C43.2001 31.9 43.4001 32.4 43.4001 32.8C43.4001 33.3 43.2001 33.7 42.8001 34C42.0001 34.7 40.5001 34.7 39.7001 34C39.3001 33.7 39.1001 33.2 39.1001 32.8H37.6001C37.6001 33.7 38.0001 34.5 38.7001 35.1C39.2001 35.5 39.8001 35.8 40.5001 35.9V38H42.0001V36C42.7001 35.9 43.3001 35.6 43.8001 35.2C44.5001 34.6 44.9001 33.8 44.9001 32.9C44.9001 32 44.5001 31.2 43.8001 30.6C43.1001 30 42.2001 29.7 41.3001 29.7C40.7001 29.7 40.1001 29.5 39.7001 29.1C39.3001 28.8 39.1001 28.3 39.1001 27.9C39.1001 27.4 39.3001 27 39.7001 26.7C40.5001 26 42.0001 26 42.8001 26.7C43.2001 27 43.4001 27.5 43.4001 27.9H44.9001C44.9001 27 44.5001 26.2 43.8001 25.6C43.3001 25.2 42.7001 24.9 42.0001 24.8V22.8H40.5001V22.7Z" fill="currentcolor"/>
<path d="M29.2 30.4C29.2 37 34.6 42.4 41.2 42.4C47.8 42.4 53.2 37 53.2 30.4C53.2 24 48.2 18.8 42 18.4V11.6C42.2 11.6 42.3999 11.6 42.5999 11.6C44.3999 11.6 47.6 11.3 49.7 9.20002C52.7 6.20002 52.1 0.900024 52 0.700024V0.100024L51.4 2.44156e-05C51.4 2.44156e-05 50.7999 -0.0999756 50 -0.0999756C48.2 -0.0999756 45 0.200024 42.9 2.30002C40 5.20002 40.4999 10.2 40.5999 10.7V11.2C39.8999 10 38.9 8.70003 37.2999 8.10003C36.6999 7.90003 35.9999 7.70002 35.2999 7.70002C32.9999 7.70002 30.8 8.90002 30.7 9.00002L30.2 9.30002L30.4 9.80002C30.4 10 31.5999 13.8 34.5999 15C35.1999 15.2 35.8999 15.4 36.5999 15.4C38.2999 15.4 39.7999 14.8 40.5999 14.4V18.2C34.2999 18.7 29.2 24 29.2 30.4ZM51.7999 30.4C51.7999 36.2 47.0999 40.9 41.2999 40.9C35.4999 40.9 30.7999 36.2 30.7999 30.4C30.7999 24.6 35.4999 19.9 41.2999 19.9C47.0999 19.9 51.7999 24.5 51.7999 30.4ZM44 3.40002C46 1.40002 49.4 1.40002 50.7 1.40002C50.8 2.80002 50.7 6.10003 48.7 8.10003C46.9 9.90003 44 10.1 42.5 10.1C43.2 9.00002 44.6 7.00002 47 5.70002L46.2999 4.40002C44.2999 5.50002 42.9 6.90003 42 8.10003C42.2 6.60003 42.7 4.70002 44 3.40002ZM35.0999 13.8C33.3999 13.1 32.4 11.1 32 10.1C32.7 9.80002 33.9999 9.30002 35.2999 9.30002C35.8999 9.30002 36.3999 9.40003 36.7999 9.60003C37.7999 10 38.5 10.8 39 11.6C38.1 11.2 36.9 10.8 35.5 10.6L35.4 12C37.2 12.1 38.6 12.9 39.4 13.4C38.7 13.7 37.5999 14 36.5999 14C35.9999 14.1 35.4999 14 35.0999 13.8Z" fill="currentcolor"/>
</svg>
