<svg viewBox="0 0 64 64" fill="none" xmlns="http://www.w3.org/2000/svg">
<path d="M37.3999 20.5L42.3999 24.7L37.3999 28.9L38.3999 30.1L44.6999 24.7L38.3999 19.4L37.3999 20.5Z" fill="currentcolor"/>
<path d="M25.4001 19.4L19.1001 24.7L25.4001 30.1L26.4001 28.9L21.4001 24.7L26.4001 20.5L25.4001 19.4Z" fill="currentcolor"/>
<path d="M28.5222 32.7113L29.9478 33.178L35.2987 16.8311L33.8731 16.3645L28.5222 32.7113Z" fill="currentcolor"/>
<path d="M33.2002 4.70003C22.0002 4.00003 12.7002 12.9 12.7002 23.9C12.7002 26.1 13.1002 28.2 13.8002 30.3L15.5002 33.7C15.8002 34.1 16.0002 34.5 16.2002 35L16.3002 35.1C19.2002 40.3 21.3002 46.1 22.5002 52.4C22.7002 53.2 22.8002 54 22.9002 54.9H21.1002V56.4H23.1002C23.2002 56.8 23.2002 57.2 23.3002 57.7V57.9C23.8002 59.3 25.1002 60.2 26.5002 60.3H26.9002H36.9002H37.3002C38.9002 60.1 40.2002 59 40.6002 57.3C40.6002 57 40.7002 56.7 40.7002 56.4H42.6002V54.9H41.0002C41.0002 54.7 41.1002 54.4 41.1002 54.2C42.3002 47 44.7002 40.1 48.1002 34.3C48.2002 34 48.4002 33.8 48.5002 33.6L48.6002 33.5C50.4002 30.3 51.3002 26.7 51.1002 23C50.6002 13.2 42.9002 5.40003 33.2002 4.70003ZM47.3002 32.6C47.1002 32.9 47.0002 33.2 46.8002 33.4C43.3002 39.4 40.8002 46.5 39.6002 53.9C39.4002 54.9 39.3002 55.9 39.2002 56.9C39.0002 58 38.0002 58.7 36.9002 58.7H26.9002C26.0002 58.7 25.1002 58.1 24.7002 57.3C24.5002 55.6 24.3002 53.8 23.9002 52.1C22.7002 45.7 20.5002 39.7 17.5002 34.3V34.2C17.3002 33.8 17.0002 33.4 16.8002 33L15.2002 29.7C14.5002 27.8 14.2002 25.9 14.2002 23.9C14.2002 13.7 22.8002 5.50003 33.2002 6.20003C42.0002 6.80003 49.1002 14 49.6002 23C49.8002 26.4 49.0002 29.7 47.3002 32.6Z" fill="currentcolor"/>
<path d="M37.4 62.5H26.5V64H37.4V62.5Z" fill="currentcolor"/>
<path d="M34.6001 54.8H33.1001V56.3H34.6001V54.8Z" fill="currentcolor"/>
<path d="M31.3999 54.8H29.8999V56.3H31.3999V54.8Z" fill="currentcolor"/>
<path d="M37.0002 54.8H36.2002V56.3H37.0002V54.8Z" fill="currentcolor"/>
<path d="M28.2998 54.8H26.7998V56.3H28.2998V54.8Z" fill="currentcolor"/>
<path d="M49.8344 41.3454L47.4585 38.9131L46.3854 39.9613L48.7613 42.3936L49.8344 41.3454Z" fill="currentcolor"/>
<path d="M52.7722 29.1649L52.3677 30.6093L55.6415 31.5262L56.0461 30.0819L52.7722 29.1649Z" fill="currentcolor"/>
<path d="M56.1367 18.798L55.7656 17.3446L52.4714 18.1858L52.8425 19.6391L56.1367 18.798Z" fill="currentcolor"/>
<path d="M50.1778 7.40968L49.1299 6.33643L46.6972 8.71167L47.7451 9.78492L50.1778 7.40968Z" fill="currentcolor"/>
<path d="M39.4229 0.569711L37.9785 0.165161L37.0615 3.43902L38.5059 3.84357L39.4229 0.569711Z" fill="currentcolor"/>
<path d="M27.4344 3.30464L26.5933 0.010376L25.1399 0.381476L25.9811 3.67574L27.4344 3.30464Z" fill="currentcolor"/>
<path d="M17.6464 8.35438L15.2705 5.92236L14.1976 6.97056L16.5735 9.40258L17.6464 8.35438Z" fill="currentcolor"/>
<path d="M11.6383 17.684L8.36475 16.7656L7.9596 18.2098L11.2331 19.1282L11.6383 17.684Z" fill="currentcolor"/>
<path d="M11.4697 30.1681L11.0986 28.7147L7.80437 29.5559L8.17547 31.0092L11.4697 30.1681Z" fill="currentcolor"/>
<path d="M16.2141 38.585L13.7852 40.964L14.8347 42.0356L17.2637 39.6566L16.2141 38.585Z" fill="currentcolor"/>
<path d="M20.5 13L21.7 13.9C21.7 13.8 26.3 7.89999 35.6 9.99999L35.9 8.59999C25.7 6.29999 20.7 12.8 20.5 13Z" fill="currentcolor"/>
</svg>
