<svg viewBox="0 0 64 64" fill="none" xmlns="http://www.w3.org/2000/svg">
<path d="M40.1 33.1001L64 9.20006L54.8 6.10352e-05L30.9 23.9001L11.8 4.70006L1.2 1.20006L4.7 11.8001L23.9 31.0001L0 54.8001L9.2 64.0001L33.1 40.1001L53.9 60.9001C55.6 62.6001 58.7 63.1001 61 60.9001C62.9 59.0001 62.9 55.8001 61 53.8001L40.1 33.1001ZM34.2 22.7001L38.1 26.6001L39.1 25.6001L35.2 21.7001L38.5 18.4001L40.8 20.7001L41.8 19.7001L39.5 17.4001L42.8 14.1001L46.7 18.0001L47.7 17.0001L43.9 13.0001L47.2 9.70006L49.5 12.0001L50.5 11.0001L48.2 8.70006L51.5 5.40006L55.4 9.30006L56.4 8.30006L52.5 4.40006L54.8 2.10006L62 9.30006L39.1 32.1001L31.9 24.9001L34.2 22.7001ZM3.5 3.50006L5.1 4.00006L4 5.10006L3.5 3.50006ZM6 11.0001L4.5 6.60006L6.6 4.50006L11 6.00006L13.6 8.60006L8.6 13.6001L6 11.0001ZM9.2 61.9001L2 54.7001L4.3 52.4001L8.2 56.3001L9.2 55.3001L5.3 51.4001L8.6 48.1001L10.9 50.4001L11.9 49.4001L9.6 47.1001L12.9 43.8001L16.8 47.7001L17.8 46.7001L14 42.8001L17.3 39.5001L19.6 41.8001L20.6 40.8001L18.3 38.5001L21.6 35.2001L25.5 39.1001L26.5 38.1001L22.6 34.2001L24.8 32.0001L32 39.2001L9.2 61.9001ZM9.6 14.6001L14.6 9.60006L55 50.0001L50 55.0001L9.6 14.6001ZM59.9 59.9001C58.6 61.2001 56.2 61.2001 54.9 59.9001L51 56.0001L56 51.0001L59.9 54.9001C61.3 56.3001 61.3 58.5001 59.9 59.9001Z" fill="currentcolor"/>
<path d="M44.1166 45.2551L45.1772 44.1945L44.1166 43.1338L43.0559 44.1945L44.1166 45.2551Z" fill="currentcolor"/>
<path d="M50.7306 49.6414L49.6699 48.5807L48.6093 49.6414L49.6699 50.702L50.7306 49.6414Z" fill="currentcolor"/>
<path d="M47.993 46.9573L46.9326 45.8963L45.8717 46.9567L46.932 48.0176L47.993 46.9573Z" fill="currentcolor"/>
</svg>
