<svg viewBox="0 0 64 64" fill="none" xmlns="http://www.w3.org/2000/svg">
<path d="M50.7999 59.6001L48.6999 52.1001C50.2999 50.6001 50.9999 48.4001 50.2999 46.3001C49.6999 44.3001 47.9999 42.8001 45.8999 42.5001L43.0999 32.7001H47.2999V31.2001H42.6999L37.8999 14.3001C38.5999 13.2001 38.9999 12.0001 38.9999 10.7001C38.9999 7.20006 36.2999 4.30006 32.8999 3.90006V6.10352e-05H31.3999V3.80006C27.9999 4.20006 25.2999 7.10006 25.2999 10.6001C25.2999 11.9001 25.6999 13.1001 26.2999 14.2001L21.4999 31.1001H16.8999V32.6001H21.0999L18.2999 42.4001C16.2999 42.8001 14.5999 44.2001 13.8999 46.2001C13.1999 48.3001 13.8999 50.6001 15.4999 52.0001L13.3999 59.5001L14.6999 59.9001L13.4999 63.4001L14.8999 63.9001L16.0999 60.4001L17.4999 60.8001L19.9999 53.4001C22.1999 53.1001 23.9999 51.6001 24.5999 49.5001C25.1999 47.5001 24.6999 45.3001 23.1999 43.8001L26.9999 32.6001H31.1999V36.1001H32.6999V32.6001H36.9999L40.8999 44.0001C39.3999 45.5001 38.8999 47.6001 39.4999 49.7001C40.1999 51.8001 41.9999 53.3001 44.0999 53.6001L46.5999 61.0001L47.9999 60.6001L49.1999 64.1001L50.5999 63.6001L49.3999 60.0001L50.7999 59.6001ZM44.2999 42.3001C44.1999 42.3001 44.1999 42.3001 44.2999 42.3001C43.8999 42.3001 43.5999 42.4001 43.1999 42.5001C42.7999 42.6001 42.4999 42.8001 42.1999 42.9001L33.3999 17.2001C33.4999 17.2001 33.4999 17.2001 33.5999 17.1001C33.7999 17.1001 33.9999 17.0001 34.1999 16.9001C34.2999 16.9001 34.3999 16.8001 34.4999 16.8001C34.6999 16.7001 34.8999 16.7001 34.9999 16.6001C35.0999 16.6001 35.1999 16.5001 35.2999 16.5001C35.4999 16.4001 35.6999 16.3001 35.8999 16.1001L35.9999 16.0001C36.1999 15.8001 36.4999 15.7001 36.6999 15.5001L44.2999 42.3001ZM31.9999 5.20006C34.9999 5.20006 37.3999 7.60006 37.3999 10.6001C37.3999 11.7001 37.0999 12.8001 36.3999 13.7001C35.5999 14.9001 34.2999 15.7001 32.8999 15.9001C32.6999 15.9001 32.4999 16.0001 32.2999 16.0001C32.0999 16.0001 31.8999 16.0001 31.6999 16.0001C30.0999 15.9001 28.5999 15.1001 27.5999 13.7001C26.9999 12.8001 26.5999 11.7001 26.5999 10.6001C26.5999 7.60006 28.9999 5.20006 31.9999 5.20006ZM27.2999 15.6001C27.3999 15.7001 27.3999 15.7001 27.2999 15.6001C27.3999 15.7001 27.3999 15.7001 27.3999 15.7001C27.6999 16.0001 27.9999 16.2001 28.2999 16.4001C28.3999 16.5001 28.4999 16.5001 28.6999 16.6001C28.7999 16.7001 28.8999 16.7001 29.0999 16.8001C29.1999 16.9001 29.3999 16.9001 29.4999 17.0001C29.5999 17.0001 29.6999 17.1001 29.8999 17.1001C30.0999 17.2001 30.1999 17.2001 30.3999 17.2001C30.4999 17.2001 30.5999 17.2001 30.5999 17.3001L21.8999 43.0001C21.5999 42.8001 21.1999 42.7001 20.8999 42.6001C20.5999 42.5001 20.1999 42.4001 19.8999 42.4001C19.8999 42.4001 19.8999 42.4001 19.7999 42.4001L27.2999 15.6001ZM16.3999 59.0001L14.9999 58.6001L16.5999 53.0001C16.7999 53.1001 16.9999 53.2001 17.2999 53.3001C17.2999 53.3001 17.3999 53.3001 17.3999 53.4001C17.6999 53.5001 17.9999 53.5001 18.1999 53.6001L16.3999 59.0001ZM23.0999 49.2001C22.5999 50.9001 21.0999 52.0001 19.2999 52.1001H19.0999C18.6999 52.1001 18.2999 52.0001 17.8999 51.9001C17.6999 51.8001 17.4999 51.8001 17.2999 51.7001C17.2999 51.7001 17.2999 51.7001 17.1999 51.7001C17.0999 51.7001 17.0999 51.6001 16.9999 51.6001C16.8999 51.5001 16.6999 51.5001 16.5999 51.4001C15.1999 50.3001 14.5999 48.5001 15.0999 46.8001C15.5999 45.2001 16.9999 44.1001 18.6999 43.9001C18.8999 43.9001 19.1999 43.9001 19.3999 43.9001C19.4999 43.9001 19.4999 43.9001 19.5999 43.9001C19.7999 43.9001 20.0999 44.0001 20.2999 44.1001C20.7999 44.3001 21.2999 44.5001 21.6999 44.9001C23.0999 45.8001 23.5999 47.6001 23.0999 49.2001ZM32.7999 31.1001V27.6001H31.2999V31.1001H27.5999L31.9999 18.0001L36.4999 31.1001H32.7999ZM40.8999 49.2001C40.3999 47.6001 40.8999 45.9001 42.1999 44.8001C42.5999 44.5001 43.0999 44.2001 43.5999 44.0001C43.7999 43.9001 44.0999 43.9001 44.2999 43.8001C44.3999 43.8001 44.3999 43.8001 44.4999 43.8001C44.6999 43.8001 44.9999 43.8001 45.1999 43.8001C46.8999 43.9001 48.2999 45.1001 48.7999 46.7001C49.2999 48.4001 48.6999 50.2001 47.2999 51.3001C47.2999 51.3001 47.2999 51.3001 47.1999 51.3001C46.7999 51.6001 46.3999 51.8001 45.9999 51.9001C45.5999 52.0001 45.1999 52.1001 44.7999 52.1001H44.5999C42.8999 52.0001 41.3999 50.8001 40.8999 49.2001ZM45.6999 53.5001C45.9999 53.5001 46.2999 53.4001 46.4999 53.3001C46.5999 53.3001 46.5999 53.2001 46.6999 53.2001C46.8999 53.1001 47.0999 53.1001 47.2999 53.0001L48.8999 58.6001L47.5999 59.0001L45.6999 53.5001Z" fill="currentcolor"/>
<path d="M31.9998 7.90005V6.40005C29.6998 6.40005 27.7998 8.30006 27.7998 10.6001H29.2998C29.2998 9.10006 30.4998 7.90005 31.9998 7.90005Z" fill="currentcolor"/>
</svg>
