<svg viewBox="0 0 64 64" fill="none" xmlns="http://www.w3.org/2000/svg">
<path d="M60.3002 30.9L53.0002 9.7H56.9002V5H32.7002V1.5H36.1002V0H27.8002V1.5H31.2002V5H7.1002V9.7H11.0002L3.7002 30.9H0.700195V31.6C0.700195 36.1 5.5002 41.2 12.0002 41.2C18.5002 41.2 23.3002 36.1 23.3002 31.6V30.9H20.3002L13.1002 9.7H31.3002V35.1C30.0002 35.4 29.0002 36.5 28.9002 37.9L27.3002 55.4H19.3002L17.2002 60.1H46.8002L44.7002 55.4H36.7002L35.1002 37.9C35.0002 36.5 33.9002 35.4 32.6002 35.1V9.7H50.8002L43.5002 30.9H40.5002V31.6C40.5002 36.1 45.3002 41.2 51.8002 41.2C58.3002 41.2 63.1002 36.1 63.1002 31.6V30.9H60.3002ZM21.8002 32.4C21.3002 36 17.3002 39.8 12.0002 39.8C6.7002 39.8 2.7002 36 2.2002 32.4H21.8002ZM18.8002 30.9H5.3002L12.0002 11.2L18.8002 30.9ZM8.6002 8.2V6.5H31.3002V8.2H8.6002ZM43.8002 56.8L44.6002 58.6H19.5002L20.3002 56.8H43.8002ZM33.8002 38L35.4002 55.4H28.9002L30.3002 38C30.4002 37.1 31.1002 36.4 32.0002 36.4C33.0002 36.4 33.7002 37.1 33.8002 38ZM32.7002 8.2V6.5H55.4002V8.2H32.7002ZM52.0002 11.2L58.8002 30.9H45.2002L52.0002 11.2ZM52.0002 39.8C46.7002 39.8 42.7002 36 42.2002 32.4H61.7002C61.3002 36 57.2002 39.8 52.0002 39.8Z" fill="currentcolor"/>
<path d="M55.9002 62.5H8.2002V64H55.9002V62.5Z" fill="currentcolor"/>
</svg>
