<svg viewBox="0 0 64 64" fill="none" xmlns="http://www.w3.org/2000/svg">
<path d="M24.8001 57.8L23.6001 64H40.5001L39.3001 57.8H24.8001ZM25.4001 62.5L26.1001 59.2001H38.1001L38.8001 62.5H25.4001Z" fill="currentcolor"/>
<path d="M40.6001 30.8001V32.3001H60.4001V57.8001H43.1001L36.8001 16.6001C36.6001 14.8001 37.5001 13.1001 39.2001 12.0001C40.2001 11.4001 40.9001 10.6001 41.5001 9.80006C42.0001 8.90006 42.3001 8.00006 42.3001 7.00006C42.3001 6.00006 42.0001 5.10006 41.4001 4.20006C40.9001 3.40006 40.1001 2.60006 39.1001 2.00006C38.2001 1.40006 37.1001 0.900058 35.8001 0.600058C33.3001 -0.099942 30.4001 -0.099942 27.9001 0.600058C26.7001 0.900058 25.6001 1.40006 24.6001 2.00006C23.6001 2.60006 22.9001 3.40006 22.3001 4.20006C22.0001 5.00006 21.7001 6.00006 21.7001 7.00006C21.7001 8.00006 22.0001 8.90006 22.6001 9.80006C23.1001 10.6001 23.9001 11.4001 24.9001 12.0001C26.5001 13.0001 27.4001 14.8001 27.3001 16.5001L21.0001 57.8001H3.6001V32.3001H23.4001V30.8001H2.1001V64.0001H17.0001C18.8001 64.0001 19.9001 63.8001 20.9001 62.8001C21.5001 62.2001 21.8001 61.4001 22.0001 60.5001L28.7001 16.7001C28.9001 14.4001 27.7001 12.1001 25.7001 10.7001C24.9001 10.2001 24.3001 9.60006 23.9001 8.90006C23.5001 8.30006 23.3001 7.60006 23.3001 6.90006C23.3001 6.20006 23.5001 5.50006 23.9001 4.90006C24.3001 4.20006 24.9001 3.60006 25.7001 3.10006C26.5001 2.60006 27.5001 2.10006 28.5001 1.90006C30.7001 1.30006 33.3001 1.30006 35.6001 1.90006C36.7001 2.20006 37.6001 2.60006 38.4001 3.10006C39.2001 3.60006 39.8001 4.20006 40.2001 4.90006C40.6001 5.50006 40.8001 6.20006 40.8001 6.90006C40.8001 7.60006 40.6001 8.30006 40.2001 8.90006C39.8001 9.60006 39.2001 10.2001 38.3001 10.7001C36.2001 12.0001 35.1001 14.3001 35.3001 16.7001L42.0001 60.4001C42.1001 61.3001 42.5001 62.1001 43.1001 62.7001C44.1001 63.7001 45.2001 63.9001 47.0001 63.9001H61.9001V30.8001H40.6001ZM20.5001 60.3001C20.4001 60.7001 20.3001 61.3001 19.8001 61.8001C19.3001 62.3001 18.8001 62.6001 17.0001 62.6001H3.6001V59.3001H20.7001L20.5001 60.3001ZM60.4001 62.5001H47.0001C45.2001 62.5001 44.7001 62.3001 44.2001 61.7001C43.8001 61.2001 43.6001 60.6001 43.5001 60.2001L43.3001 59.2001H60.4001V62.5001Z" fill="currentcolor"/>
<path d="M36.1999 30.8001H27.8999V32.3001H36.1999V30.8001Z" fill="currentcolor"/>
</svg>
