<svg viewBox="0 0 64 64" fill="none" xmlns="http://www.w3.org/2000/svg">
<path d="M63.4001 49.5001L56.5001 33.7001L58.4001 32.1001L47.3001 18.9001L48.7001 16.8001L34.3001 7.30006L35.0001 4.90006L18.5001 6.10352e-05H0.600098V49.2001V64.0001H61.4001V50.4001L63.4001 49.5001ZM54.5001 35.4001L55.5001 35.0001L61.3001 48.5001H24.3001L54.5001 35.4001ZM53.8001 34.1001L20.7001 48.5001H13.4001L46.7001 20.4001L56.4001 31.9001L53.8001 34.1001ZM44.8001 20.1001L11.1001 48.5001H8.2001L33.5001 9.90006L34.1001 9.00006L46.7001 17.2001L44.8001 20.1001ZM32.2001 9.20006L6.5001 48.5001H4.9001L18.8001 1.60006L33.2001 5.90006L32.2001 9.20006ZM17.3001 1.50006L3.3001 48.5001H2.1001V1.50006H17.3001ZM60.0001 62.5001H2.1001V49.9001H60.0001V62.5001Z" fill="currentcolor"/>
<path d="M8.30029 59.3001C10.0003 59.3001 11.3003 57.9001 11.3003 56.3001C11.3003 54.6001 9.90029 53.3001 8.30029 53.3001C6.60029 53.3001 5.30029 54.7001 5.30029 56.3001C5.30029 57.9001 6.60029 59.3001 8.30029 59.3001ZM8.30029 54.7001C9.20029 54.7001 9.90029 55.4001 9.90029 56.3001C9.90029 57.2001 9.20029 57.9001 8.30029 57.9001C7.40029 57.9001 6.70029 57.2001 6.70029 56.3001C6.70029 55.4001 7.40029 54.7001 8.30029 54.7001Z" fill="currentcolor"/>
</svg>
