<svg viewBox="0 0 64 64" fill="none" xmlns="http://www.w3.org/2000/svg">
<path d="M63.3 12.7C41.5 9.99999 32.6 0.499988 32.6 0.399988L32 -0.200012L31.5 0.399988C31.4 0.499988 22.6 9.99999 0.7 12.7L0 12.8L0.1 13.5C0.1 13.9 4.7 52.1 31.7 64L32 64.1L32.3 64C60 52.7 63.9 13.9 63.9 13.5L64 12.8L63.3 12.7ZM32 62.6C8.1 51.8 2.4 19.3 1.6 14.1C20.8 11.6 29.8 4.09999 32 1.99999C34.2 4.09999 43.2 11.6 62.4 14.1C61.7 19.3 56.7 52.2 32 62.6Z" fill="currentcolor"/>
<path d="M51.8002 21.3C44.4002 19.5 37.9002 16.8 32.4002 13.2L32.0002 13L31.6002 13.3C26.2002 16.8 19.7002 19.5 12.4002 21.3L11.7002 21.5L11.9002 22.2C14.8002 32.2 20.5002 45.5 31.7002 52.4L32.1002 52.6L32.5002 52.4C44.0002 45.7 49.7002 32.3 52.3002 22.2L52.5002 21.5L51.8002 21.3ZM42.7002 40.6C39.9002 44.6 36.5002 48.3 32.1002 50.9C27.9002 48.2 24.4002 44.5 21.7002 40.5V37.7C21.7002 36.5 22.3002 35.5 23.2002 34.8L28.6002 31.3C30.9002 33 33.7002 32.8 35.7002 31.3L41.1002 34.8C42.1002 35.4 42.6002 36.5 42.6002 37.7V40.6H42.7002ZM27.7002 26.3C27.7002 23.7 29.7002 21.6 32.2002 21.6C34.7002 21.6 36.7002 23.7 36.7002 26.3C36.7002 27.7 36.1002 29 35.2002 29.9C35.2002 29.9 29.5002 33.9 27.7002 26.3ZM44.2002 38.3V37.7C44.2002 36 43.4002 34.5 42.0002 33.6L36.9002 30.3C37.8002 29.2 38.3002 27.8 38.3002 26.3C38.3002 22.9 35.6002 20.1 32.3002 20.1C29.0002 20.1 26.3002 22.9 26.3002 26.3C26.3002 27.8 26.8002 29.2 27.7002 30.3L22.6002 33.6C21.2002 34.5 20.4002 36 20.4002 37.7V38.2C17.1002 33 15.0002 27.4 13.5002 22.5C20.5002 20.7 26.7002 18.1 32.0002 14.8C37.4002 18.2 43.6002 20.8 50.7002 22.6C49.4002 27.5 47.3002 33.1 44.2002 38.3Z" fill="currentcolor"/></svg>
