<svg viewBox="0 0 64 64" fill="none" xmlns="http://www.w3.org/2000/svg">
<path d="M32.0001 19.2C34.7001 19.2 36.9001 17 36.9001 14.3C36.9001 11.6 34.7001 9.40002 32.0001 9.40002C29.3001 9.40002 27.1001 11.6 27.1001 14.3C27.1001 17 29.3001 19.2 32.0001 19.2ZM32.0001 10.8C33.9001 10.8 35.4001 12.3 35.4001 14.2C35.4001 16.1 33.9001 17.6 32.0001 17.6C30.1001 17.6 28.6001 16.1 28.6001 14.2C28.6001 12.3 30.1001 10.8 32.0001 10.8Z" fill="currentcolor"/>
<path d="M43.1998 31.3C43.1998 26.4 40.0998 22.1 35.4998 20.6L35.1998 20.5L34.9998 20.6C33.0998 21.4 30.9998 21.4 29.0998 20.6L28.7998 20.5L28.4998 20.6C23.8998 22.1 20.7998 26.4 20.7998 31.3V32H43.2998V31.3H43.1998ZM22.2998 30.5C22.5998 26.7 25.0998 23.4 28.6998 22.1C30.7998 22.9 33.1998 22.9 35.2998 22.1C38.8998 23.4 41.3998 26.7 41.6998 30.5H22.2998Z" fill="currentcolor"/>
<path d="M62.4 17.8L61.4 16.8L59.5 18.7V14.2H58V18.7L56.1 16.8L55 17.8L58.7 21.5L62.4 17.8Z" fill="currentcolor"/>
<path d="M59.5 8.5H58V10H59.5V8.5Z" fill="currentcolor"/>
<path d="M59.5 11.2H58V12.7H59.5V11.2Z" fill="currentcolor"/>
<path d="M9.0001 17.8L7.9001 16.8L6.0001 18.7V14.2H4.5001V18.7L2.6001 16.8L1.6001 17.8L5.3001 21.5L9.0001 17.8Z" fill="currentcolor"/>
<path d="M6 8.5H4.5V10H6V8.5Z" fill="currentcolor"/>
<path d="M6 11.2H4.5V12.7H6V11.2Z" fill="currentcolor"/>
<path d="M64 34.2H0V35.7H64V34.2Z" fill="currentcolor"/>
<path d="M55.7998 28.3C55.7998 29.9 57.0998 31.2 58.6998 31.2C60.2998 31.2 61.5998 29.9 61.5998 28.3C61.5998 26.7 60.2998 25.4 58.6998 25.4C57.0998 25.4 55.7998 26.7 55.7998 28.3ZM60.1998 28.3C60.1998 29.1 59.5998 29.7 58.7998 29.7C57.9998 29.7 57.3998 29.1 57.3998 28.3C57.3998 27.5 57.9998 26.9 58.7998 26.9C59.4998 26.9 60.1998 27.5 60.1998 28.3Z" fill="currentcolor"/>
<path d="M22.2002 55.5H42.5002L32.3002 38L22.2002 55.5ZM24.8002 54L32.3002 41L39.8002 54H24.8002Z" fill="currentcolor"/>
<path d="M2.2998 31.3H8.1998V25.4H2.2998V31.3ZM3.7998 26.9H6.6998V29.8H3.7998V26.9Z" fill="currentcolor"/>
</svg>
