<svg viewBox="0 0 64 64" fill="none" xmlns="http://www.w3.org/2000/svg">
<path d="M53.8999 59.5H52.3999V61.3H53.8999V59.5Z" fill="currentcolor"/>
<path d="M51 59.5H49.5V61.3H51V59.5Z" fill="currentcolor"/>
<path d="M62.7 24.2C62 23.6 61 23.3 59.8 23.5C58.2 23.8 57.2 25.3 57.2 27.5V38.5H58.7V27.5C58.7 26.1 59.3 25.1 60.1 25C60.6 24.9 61.3 24.9 61.8 25.3C62.3 25.7 62.6 26.5 62.6 27.5V44.2C62.6 45.3 62.2 46.3 61.4 47L54.7 53.7C54 54.4 53.7 55.2 53.7 56.2V56.7H42V52C42 50.8 42.5 49.6 43.4 48.7L52.3 40C53.1 39.2 54.4 39.3 55.1 40C55.5 40.4 55.7 40.9 55.7 41.4C55.7 41.9 55.5 42.4 55.1 42.8L50.8 46.9L51.8 48L56.1 43.9C56.8 43.3 57.1 42.4 57.1 41.5C57.1 40.6 56.8 39.7 56.1 39C55.5 38.3 54.6 38 53.7 38C52.8 38 51.9 38.3 51.2 39L42.3 47.7C41.1 48.8 40.5 50.4 40.5 52V56.7H38.5V63.4H40V58.2H55.7V63.4H57.2V56.7H55.1V56.2C55.1 55.7 55.3 55.2 55.7 54.8L62.4 48.1C63.4 47.1 64 45.7 64 44.2V27.5C64 25.6 63.3 24.7 62.7 24.2Z" fill="currentcolor"/>
<path d="M11.6001 59.5H10.1001V61.3H11.6001V59.5Z" fill="currentcolor"/>
<path d="M14.6001 59.5H13.1001V61.3H14.6001V59.5Z" fill="currentcolor"/>
<path d="M25.5 63.4V56.7H23.5V52C23.5 50.4 22.8 48.8 21.7 47.7L12.7 39C12.1 38.4 11.2 38 10.3 38C10.3 38 10.3 38 10.2 38C9.3 38 8.4 38.4 7.8 39C7.2 39.7 6.8 40.5 6.8 41.5C6.8 42.4 7.2 43.3 7.8 43.9L12.1 48L13.1 46.9L8.8 42.8C8.4 42.4 8.2 41.9 8.2 41.4C8.2 40.9 8.4 40.4 8.8 40C9.2 39.6 9.7 39.4 10.2 39.4C10.7 39.4 11.2 39.6 11.6 40L20.5 48.7C21.4 49.6 21.9 50.7 21.9 52V56.7H10.4V56.2C10.4 55.3 10 54.4 9.4 53.7L2.6 47C1.8 46.2 1.4 45.2 1.4 44.2V27.5C1.4 26.5 1.7 25.7 2.2 25.3C2.7 24.9 3.4 24.9 3.9 25C4.7 25.1 5.3 26.2 5.3 27.5V38.5H6.8V27.5C6.8 25.3 5.8 23.8 4.2 23.5C3 23.3 2 23.5 1.3 24.2C0.7 24.7 0 25.6 0 27.5V44.2C0 45.6 0.6 47 1.6 48L8.3 54.7C8.7 55.1 8.9 55.6 8.9 56.1V56.6H6.8V63.3H8.3V58.1H24V63.3H25.5V63.4Z" fill="currentcolor"/>
<path d="M12.6001 14.4V17.6H16.8001V32.9H14.4001V34.4H49.6001V32.9H47.2001V17.6H51.4001V14.4L54.2001 16.1L55.0001 14.9L32.0001 0.599976L9.1001 14.9L9.9001 16.1L12.6001 14.4ZM18.3001 17.6H24.0001V32.9H18.2001V17.6H18.3001ZM38.5001 17.6V32.9H32.7001V17.6H38.5001ZM31.3001 32.9H25.5001V17.6H31.3001V32.9ZM45.7001 32.9H40.0001V17.6H45.8001V32.9H45.7001ZM49.9001 13.5V16.1H14.1001V13.5L32.0001 2.39998L49.9001 13.5Z" fill="currentcolor"/>
<path d="M31.9999 13.4C33.9999 13.4 35.5999 11.8 35.5999 9.79995C35.5999 7.79995 33.9999 6.19995 31.9999 6.19995C29.9999 6.19995 28.3999 7.79995 28.3999 9.79995C28.3999 11.8 29.9999 13.4 31.9999 13.4ZM31.9999 7.79995C33.1999 7.79995 34.0999 8.69995 34.0999 9.89995C34.0999 11.1 33.1999 12 31.9999 12C30.7999 12 29.8999 11.1 29.8999 9.89995C29.8999 8.69995 30.7999 7.79995 31.9999 7.79995Z" fill="currentcolor"/>
</svg>
