<svg viewBox="0 0 64 64" fill="none" xmlns="http://www.w3.org/2000/svg">
<path d="M37.4 33.1H36V34.6H37.4V33.1Z" fill="currentcolor"/>
<path d="M45.2002 33.1H43.7002V34.6H45.2002V33.1Z" fill="currentcolor"/>
<path d="M41.2998 33.1H39.7998V34.6H41.2998V33.1Z" fill="currentcolor"/>
<path d="M25.6001 33.1H19.1001V34.6H25.6001V33.1Z" fill="currentcolor"/>
<path d="M37.4 43.4H36V44.9H37.4V43.4Z" fill="currentcolor"/>
<path d="M41.2998 43.4H39.7998V44.9H41.2998V43.4Z" fill="currentcolor"/>
<path d="M45.2002 43.4H43.7002V44.9H45.2002V43.4Z" fill="currentcolor"/>
<path d="M25.6001 43.4H19.1001V44.9H25.6001V43.4Z" fill="currentcolor"/>
<path d="M22.1998 16.2C21.3998 17 20.6998 18 20.2998 19.1L21.6998 19.6C21.9998 18.7 22.4998 17.9 23.1998 17.2C24.3998 16 25.9998 15.3 27.7998 15.3C29.2998 15.3 30.7998 15.8 31.9998 16.8L32.8998 15.7C31.4998 14.5 29.6998 13.8 27.7998 13.8C25.6998 13.9 23.6998 14.8 22.1998 16.2Z" fill="currentcolor"/>
<path d="M63.9 32.9L63.8 32.6C62.9 28.4 59.2 25.3 54.8 25.3H53.6C53.2 20.6 49.3 16.9 44.5 16.9C42.5 16.9 40.7 17.6 39.1 18.7C37.7 13.6 33.1 9.89996 27.7 9.89996C21.5 9.89996 16.5 14.6 15.9 20.6C14.6 20.1 13.2 19.8 11.7 19.8C5.3 20 0 25.3 0 31.8C0 38.3 5.3 43.6 11.8 43.6H14.3V48.3H20.3V52.5H17.5V54H46.5V52.5H43.7V48.3H49.7V43.6H54.9C60 43.6 64.1 39.5 64.1 34.4C64 34 64 33.5 63.9 32.9ZM42.2 52.5H21.8V48.3H42.2V52.5ZM48.2 46.9H15.8V41.3H48.2V46.9ZM15.8 36.6V31H48.2V36.6H15.8ZM42.2 38.1V39.8H21.8V38.1H42.2ZM54.8 42.2H49.6V39.9H43.6V38.2H49.6V29.7H14.3V38.2H20.3V39.9H14.3V42.2H11.8C6.1 42.2 1.4 37.5 1.4 31.8C1.4 26.1 6.1 21.4 11.8 21.4C13.2 21.4 14.6 21.7 15.9 22.3C15.9 23.4 16.1 24.5 16.5 25.5L17.9 25C17.6 24 17.4 22.9 17.4 21.8C17.4 16.1 22.1 11.4 27.8 11.4C32.8 11.4 37 14.9 38 19.8C37.3 20.5 36.7 21.4 36.3 22.3L37.6 22.9C38.8 20.1 41.6 18.4 44.6 18.4C48.8 18.4 52.2 21.8 52.2 26V26.7H54.8C58.4 26.7 61.6 29.3 62.3 32.8V33.1C62.4 33.5 62.4 34 62.4 34.4C62.5 38.7 59.1 42.2 54.8 42.2Z" fill="currentcolor"/>
</svg>
