<svg viewBox="0 0 64 64" fill="none" xmlns="http://www.w3.org/2000/svg">
<path d="M57.7002 63.0999C58.6002 62.3999 59.1002 61.2999 59.2002 60.2C59.3002 59.1 58.9002 57.8999 58.1002 57.0999L44.5002 42.0999C46.4002 39.8999 47.7002 37.2999 48.3002 34.5L49.4002 36.5999H52.0002L54.9002 31.2999L57.3002 32.0999C58.0002 32.2999 58.5002 32.7999 58.8002 33.2999C59.0002 33.6999 59.3002 34.4 59.3002 35.2C59.3002 35.2 59.6002 38.3 59.8002 41.2L61.3002 41.0999C61.2002 38.0999 60.8002 35 60.8002 35C60.8002 34.2 60.6002 33.2999 60.1002 32.5C59.6002 31.6 58.8002 31 57.8002 30.6L54.2002 29.2999L51.2002 35H50.4002L48.7002 32C48.8002 30.9 48.7002 29.7 48.5002 28.6C49.2002 28.9 49.9002 29.1 50.7002 29.1C53.5002 29.1 55.7002 26.9 55.7002 24.1C55.7002 22 54.5002 20.3 52.7002 19.5C52.6002 17.7 52.4002 16.7 52.3002 16.4C52.3002 15.6 52.0002 14.7 51.5002 13.9C51.0002 13 50.2002 12.3 49.2002 12L45.6002 10.7L42.5002 16.5H41.7002L38.6002 10.7L34.9002 12C34.2002 12.3 33.5002 12.7 33.1002 13.3C32.5002 12.9 31.9002 12.6 31.2002 12.3L27.6002 11L25.5002 15.5C24.9002 15.8 24.3002 16.1 23.7002 16.4L20.8002 11L17.2002 12.3C16.2002 12.7 15.4002 13.3 14.9002 14.2C14.4002 15 14.2002 15.9 14.2002 16.6C14.2002 16.6 14.1002 17.7 14.0002 19.2C13.8002 19.2 13.5002 19.1 13.3002 19.1C10.5002 19.1 8.3002 21.3 8.3002 24.1C8.3002 26.9 10.5002 29.1 13.3002 29.1C14.0002 29.1 14.7002 28.9 15.3002 28.7C15.2002 29.2 15.2002 29.7999 15.1002 30.2999C15.1002 31 15.1002 31.5999 15.1002 32.2999L13.6002 35.0999H12.8002L9.8002 29.4L6.2002 30.7C5.2002 31.1 4.4002 31.6999 3.9002 32.5999C3.4002 33.3999 3.2002 34.2999 3.2002 35C3.2002 35 2.9002 38.0999 2.7002 41.0999L4.2002 41.2C4.3002 38.2 4.7002 35.1999 4.7002 35.0999C4.7002 34.3999 5.0002 33.6999 5.2002 33.2999C5.5002 32.6999 6.10019 32.2999 6.7002 32.0999L9.1002 31.2999L12.0002 36.5999H14.5002L15.5002 34.7C17.0002 41.2 22.2002 46.3999 29.1002 47.5999C32.8002 48.1999 36.7002 47.5999 40.0002 45.7999L51.8002 62.2C52.6002 63.2999 53.8002 64 55.2002 64C56.0002 64 57.0002 63.6999 57.7002 63.0999ZM54.3002 24.1C54.3002 26 52.7002 27.6 50.8002 27.6C49.7002 27.6 48.7002 27.1 48.0002 26.2C47.8002 25.5 47.5002 24.7 47.2002 24H47.3002C47.3002 22.1 48.9002 20.5 50.8002 20.5C52.7002 20.6 54.3002 22.2 54.3002 24.1ZM43.4002 18L46.4002 12.5L48.9002 13.4C49.6002 13.6 50.1002 14.1 50.5002 14.7C50.8002 15.1 51.1002 15.8 51.1002 16.6V16.7C51.1002 16.7 51.3002 17.6 51.4002 19.2C51.2002 19.2 51.1002 19.2 50.9002 19.2C48.8002 19.2 47.0002 20.5 46.3002 22.3C45.3002 20.7 44.1002 19.3 42.6002 18.1H43.4002V18ZM35.4002 13.4L37.9002 12.5L39.9002 16.3C38.7002 15.6 37.4002 15.1 36.0002 14.8C35.4002 14.6 34.7002 14.5 34.0002 14.4C34.4002 13.9 34.9002 13.6 35.4002 13.4ZM28.4002 12.8L30.7002 13.6C31.1002 13.8 31.5002 13.9 31.9002 14.2C30.3002 14.2 28.9002 14.4 27.4002 14.8L28.4002 12.8ZM15.7002 16.7C15.7002 16 16.0002 15.3 16.2002 14.9C16.5002 14.3 17.1002 13.9 17.7002 13.7L20.1002 12.9L22.4002 17.2C20.5002 18.5 18.9002 20.1 17.7002 22C17.2002 21 16.4002 20.2 15.4002 19.7C15.5002 18 15.7002 16.8 15.7002 16.7ZM13.2002 27.7C11.3002 27.7 9.7002 26.1 9.7002 24.2C9.7002 22.3 11.3002 20.7 13.2002 20.7C15.0002 20.7 16.5002 22.1 16.7002 23.9C16.3002 24.8 15.9002 25.7999 15.6002 26.7999C15.0002 27.2999 14.1002 27.7 13.2002 27.7ZM52.9002 61.4L40.4002 43.9L39.8002 44.2C36.7002 46.1 32.9002 46.7999 29.3002 46.2C21.7002 44.9 16.2002 38.1 16.6002 30.4C16.7002 28.1 17.3002 26 18.2002 24.1C18.2002 24.1 18.2002 24.1 18.2002 24C20.7002 19 25.9002 15.6 31.9002 15.6C33.2002 15.6 34.4002 15.8 35.7002 16.1C43.1002 18 48.1002 25.4 47.1002 33C46.7002 36.2 45.3002 39.2 43.0002 41.5L42.5002 42L57.0002 58C57.9002 59.0999 58.1002 60.5 56.7002 61.9C55.6002 62.9 53.8002 62.6 52.9002 61.4Z" fill="currentcolor"/>
<path d="M25.0621 39.8737L26.5591 39.9685L26.7992 36.1761L25.3022 36.0813L25.0621 39.8737Z" fill="currentcolor"/>
<path d="M41.2 31.3C40.7 30.4 39.9 29.8 38.9 29.4L35.4 28.1L32.4 33.8H31.7L28.7 28.1L25 29.5C24 29.9 23.2 30.5 22.7 31.4C22.3 32.2 22 33 22 33.8C22 33.8 21.7 36.9 21.5 39.9L23 40C23.1 37.1 23.5 34 23.5 33.9C23.5 33.2 23.8 32.5 24 32.1C24.3 31.5 24.9 31.1 25.5 30.9L27.9 30.1L30.8 35.4H33.3L36.2 30.1L38.6 30.9C39.2 31.1 39.8 31.6 40.1 32.1C40.3 32.5 40.6 33.2 40.6 34C40.6 34 40.9 37.1 41.1 40L42.6 39.9C42.5 36.9 42.1 33.9 42.1 33.9C42 33 41.7 32.2 41.2 31.3Z" fill="currentcolor"/>
<path d="M37.1879 36.1837L37.4268 39.9761L38.9238 39.8818L38.6849 36.0894L37.1879 36.1837Z" fill="currentcolor"/>
<path d="M32 27.8C34.7 27.8 37 25.6 37 22.8C37 20.1 34.8 17.8 32 17.8C29.3 17.8 27 20 27 22.8C27 25.6 29.3 27.8 32 27.8ZM32 19.3C33.9 19.3 35.5 20.9 35.5 22.8C35.5 24.7 33.9 26.3 32 26.3C30.1 26.3 28.5 24.7 28.5 22.8C28.5 20.9 30.1 19.3 32 19.3Z" fill="currentcolor"/>
<path d="M56.1119 41.319L57.6089 41.2242L57.3687 37.4318L55.8717 37.5266L56.1119 41.319Z" fill="currentcolor"/>
<path d="M6.29157 41.2178L7.78857 41.3126L8.02873 37.5202L6.53173 37.4254L6.29157 41.2178Z" fill="currentcolor"/>
<path d="M42.1 10.2C44.9 10.2 47.2 7.9 47.2 5.1C47.2 2.3 44.9 0 42.1 0C39.3 0 37 2.3 37 5.1C37 7.9 39.3 10.2 42.1 10.2ZM42.1 1.5C44.1 1.5 45.8 3.1 45.8 5.2C45.8 7.2 44.2 8.9 42.1 8.9C40.1 8.9 38.4 7.3 38.4 5.2C38.4 3.1 40.1 1.5 42.1 1.5Z" fill="currentcolor"/>
<path d="M24.2002 10.6C27.0002 10.6 29.2002 8.39998 29.2002 5.59998C29.2002 2.79998 27.0002 0.599976 24.2002 0.599976C21.4002 0.599976 19.2002 2.79998 19.2002 5.59998C19.2002 8.39998 21.5002 10.6 24.2002 10.6ZM24.2002 2.09998C26.1002 2.09998 27.7002 3.69998 27.7002 5.59998C27.7002 7.49998 26.1002 9.09998 24.2002 9.09998C22.3002 9.09998 20.7002 7.49998 20.7002 5.59998C20.7002 3.69998 22.3002 2.09998 24.2002 2.09998Z" fill="currentcolor"/>
</svg>
