<svg viewBox="0 0 64 64" fill="none" xmlns="http://www.w3.org/2000/svg">
<path d="M24.5996 36.1C24.7996 35.8 24.6996 35.3 24.3996 35.1C24.0996 34.9 23.5996 35 23.3996 35.3C18.9996 41.9 11.6996 46.1 3.79961 46.5C3.39961 46.5 3.09961 46.9 3.09961 47.3C3.09961 47.7 3.39961 48 3.79961 48C12.0996 47.5 19.8996 43.1 24.5996 36.1Z" fill="currentcolor"/>
<path d="M26.7 41.7C27 41.4 26.9 40.9 26.6 40.7C26.3 40.4 25.8 40.5 25.6 40.8C20.7 46.7 13.8 50.5 6.30005 51.4C5.90005 51.5 5.60005 51.8 5.70005 52.2C5.70005 52.6 6.10005 52.8 6.40005 52.8H6.50005C14.4 51.8 21.6 47.9 26.7 41.7Z" fill="currentcolor"/>
<path d="M10.0997 56.7C10.1997 57 10.4997 57.3 10.7997 57.3C10.8997 57.3 10.8997 57.3 10.9997 57.3C18.2997 55.5 24.7997 51.6 29.8997 45.9C30.1997 45.6 30.0997 45.1 29.7997 44.9C29.4997 44.6 28.9997 44.7 28.7997 45C23.8997 50.5 17.5997 54.2 10.5997 55.9C10.1997 55.9 9.9997 56.3 10.0997 56.7Z" fill="currentcolor"/>
<path d="M32.7998 50.3C33.3998 57.9 39.6998 64 47.4998 64C55.5998 64 62.1998 57.4 62.1998 49.3C62.1998 41.2 55.5998 34.6 47.4998 34.6C46.0998 34.6 44.7998 34.8 43.5998 35.1C41.2998 35 39.3998 33 39.3998 30.7V21.4C39.3998 12.5 32.0998 5.20001 23.1998 5.20001C14.1998 5.20001 6.9998 12.4 6.9998 21.4C6.9998 23.8 4.9998 25.8 2.5998 25.8C2.1998 25.8 1.8998 26.1 1.8998 26.5C1.8998 26.9 2.1998 27.2 2.5998 27.2C5.8998 27.2 8.4998 24.6 8.4998 21.3C8.4998 13.2 15.0998 6.50001 23.2998 6.50001C31.3998 6.50001 38.0998 13.1 38.0998 21.3V30.6C38.0998 32.9 39.3998 34.9 41.3998 35.9C40.1998 36.5 38.9998 37.2 37.9998 38.1C35.6998 36.3 34.3998 33.5 34.3998 30.6V21.3C34.3998 15.2 29.3998 10.2 23.2998 10.2C17.1998 10.2 12.1998 15.2 12.1998 21.3V21.7V21.8C11.8998 27 7.6998 31 2.4998 31C2.0998 31 1.7998 31.3 1.7998 31.7C1.7998 32.1 2.0998 32.4 2.4998 32.4C8.39981 32.4 13.2998 27.8 13.4998 21.9V21.8V21.4C13.4998 16.1 17.7998 11.8 23.0998 11.8C28.3998 11.8 32.6998 16.1 32.6998 21.4V30.7C32.6998 34 34.1998 37.1 36.6998 39.2C35.8998 40.1 35.0998 41.1 34.4998 42.2C30.9998 39.4 28.9998 35.2 28.9998 30.7V21.4C28.9998 18.1 26.3998 15.5 23.0998 15.5C19.8998 15.5 17.1998 18.1 17.1998 21.4V22.5C16.6998 30.2 10.1998 36.2 2.4998 36.2C2.0998 36.2 1.7998 36.5 1.7998 36.9C1.7998 37.3 2.0998 37.6 2.4998 37.6C10.9998 37.6 18.0998 31 18.6998 22.5V21.4C18.6998 19 20.6998 17 23.0998 17C25.4998 17 27.4998 19 27.4998 21.4V30.7C27.4998 35.7 29.8998 40.5 33.7998 43.5C33.1998 44.9 32.7998 46.5 32.6998 48.1C28.3998 53 22.9998 56.8 16.9998 59.2C16.5998 59.3 16.3998 59.8 16.5998 60.2C16.6998 60.5 16.9998 60.7 17.2998 60.7C17.3998 60.7 17.4998 60.7 17.5998 60.6C23.3998 58.3 28.5998 54.8 32.7998 50.3ZM60.6998 49.3C60.6998 56.6 54.7998 62.5 47.4998 62.5C40.1998 62.5 34.2998 56.6 34.2998 49.3C34.2998 42 40.1998 36.1 47.4998 36.1C54.7998 36.1 60.6998 42 60.6998 49.3Z" fill="currentcolor"/>
<path d="M1.9998 21.9C2.0998 22 2.1998 22 2.1998 22C2.1998 22 2.1998 22 2.2998 22C2.3998 22 2.4998 22.1 2.5998 22.1C2.9998 22.1 3.2998 21.8 3.2998 21.4C3.2998 10.4 12.1998 1.5 23.1998 1.5C34.1998 1.5 43.0998 10.4 43.0998 21.4V31.5C43.0998 31.9 43.3998 32.2 43.7998 32.2C44.1998 32.2 44.4998 31.9 44.4998 31.5V21.4C44.5998 9.6 34.9998 0 23.1998 0C11.3998 0 1.7998 9.6 1.7998 21.4C1.7998 21.5 1.7998 21.6 1.8998 21.7C1.8998 21.8 1.9998 21.8 1.9998 21.9Z" fill="currentcolor"/>
<path d="M23.8999 22.7V21.6C23.8999 21.2 23.5999 20.9 23.1999 20.8C22.7999 20.8 22.4999 21.1 22.3999 21.5V22.6C21.6999 33 12.9999 41.3 2.5999 41.3C2.1999 41.3 1.8999 41.6 1.8999 42C1.8999 42.4 2.1999 42.7 2.5999 42.7C13.7999 42.7 23.0999 33.9 23.8999 22.7Z" fill="currentcolor"/>
<path d="M55.8996 44.3L54.8996 43.3L44.4996 53.7L40.0996 49.4L39.0996 50.4L44.4996 55.8L55.8996 44.3Z" fill="currentcolor"/>
</svg>
