<svg viewBox="0 0 64 64" fill="none" xmlns="http://www.w3.org/2000/svg">
<g clip-path="url(#clip0_5_3719)">
<path d="M61.8002 32.5V12.9H55.6002V32.4H51.2002V16.7H45.0002V32.5H40.6002V21.6H34.4002V32.5H32.2002V34H34.4002H40.6002H45.0002H51.2002H55.6002H61.8002H64.0002V32.5H61.8002ZM36.0002 32.5V23H39.2002V32.4H36.0002V32.5ZM46.6002 32.5V18.2H49.8002V32.5H46.6002ZM57.1002 32.5V14.4H60.3002V32.5H57.1002Z" fill="currentcolor"/>
<path d="M42 13.9H49L57.9 4.69998V7.49998H59.4V2.09998H54V3.59998H56.9L48.3 12.4H41.4L35.5 18.3L36.5 19.4L42 13.9Z" fill="currentcolor"/>
<path d="M45.4001 44.8L45.6001 44.1L23.9001 38.3V15.7H23.2001C17.3001 15.7 12.1001 17.7 7.7001 21.7L7.2001 22.2L6.7001 22.7C5.6001 23.8 4.6001 25.1 3.7001 26.5L3.5001 26.7C3.4001 26.9 3.3001 27 3.2001 27.2C2.8001 27.9 2.4001 28.7 2.0001 29.6C1.5001 30.6 1.2001 31.7 0.900098 32.7C0.600098 33.7 0.400098 34.8 0.300098 35.8C0.200098 36.8 0.100098 37.8 0.100098 38.9C0.100098 39.9 0.200098 41 0.300098 42C0.500098 43.1 0.700098 44.1 1.0001 45.1C1.3001 46.2 1.7001 47.2 2.1001 48.2C2.6001 49.3 3.1001 50.3 3.8001 51.3C4.5001 52.4 5.3001 53.5 6.2001 54.4C7.6001 55.9 9.2001 57.2 11.0001 58.3L11.6001 58.7C11.6001 58.7 11.6001 58.7 11.7001 58.7L12.3001 59C13.9001 59.9 15.4001 60.5 17.2001 61C19.2001 61.5 21.2001 61.8 23.2001 61.8C33.5001 61.9 42.7001 54.9 45.4001 44.8ZM22.3001 17.2V37L8.6001 22.8C12.5001 19.3 17.1001 17.4 22.3001 17.2ZM7.2001 53.5C6.4001 52.6 5.6001 51.6 5.0001 50.6C4.4001 49.7 3.9001 48.7 3.4001 47.7C3.0001 46.8 2.6001 45.8 2.3001 44.8C2.0001 43.9 1.8001 42.9 1.7001 41.9C1.6001 40.9 1.5001 40 1.5001 39C1.5001 38 1.5001 37 1.7001 36.1C1.8001 35.1 2.0001 34.1 2.3001 33.2C2.6001 32.2 2.9001 31.3 3.3001 30.3C3.6001 29.4 4.0001 28.7 4.4001 28C4.5001 27.9 4.6001 27.7 4.7001 27.6L4.9001 27.4C5.7001 26.1 6.6001 24.9 7.7001 23.9L22.3001 39L11.6001 57.2C10.0001 56.1 8.5001 54.9 7.2001 53.5ZM23.1001 60.4C21.2001 60.4 19.3001 60.2 17.5001 59.7C15.8001 59.2 14.4001 58.7 12.9001 57.9L23.4001 39.7L43.7001 45.1C41.0001 54.2 32.6001 60.4 23.1001 60.4Z" fill="currentcolor"/>
<path d="M48.1001 42.6C48.7001 40.5 48.9001 38.8 48.9001 36.6H47.4001C47.4001 38.4 47.2001 39.8 46.8001 41.5L26.6001 36V15C29.0001 15.1 31.4001 15.6 33.6001 16.4L34.1001 15C31.5001 14 28.7001 13.5 25.8001 13.5H25.1001V37.2L47.9001 43.3L48.1001 42.6Z" fill="currentcolor"/>
</svg>
