<svg viewBox="0 0 64 64" fill="none" xmlns="http://www.w3.org/2000/svg">
<path d="M63.5 31.5C63.1 31.1 54 21.9 41.2 18.5C34.7 16.8 28.5 16.8 22.7 18.5C10 21.9 0.9 31.1 0.5 31.5L0 32L0.5 32.5C0.7 32.7 5.5 37.5 13 41.6C19.3 45 25.5 46.7 31.5 46.8C31.7 46.8 32.3 46.8 32.5 46.8C38.5 46.7 44.7 45 51 41.6C58.5 37.6 63.3 32.7 63.5 32.5L64 32L63.5 31.5ZM13.7 40.3C7.8 37.1 3.5 33.3 2.1 32C2.9 30.7 12.3 23.2 23.7 19.7C23 20.2 21 22.1 21 22.1L21.8 22.6C22.5 23.1 22.9 23.8 22.9 24.6C22.9 25.9 21.8 27 20.5 27C20.1 27.1 19.4 26.8 18.4 26.1L18.1 27C17.5 28.6 17.2 30.3 17.2 32C17.2 37.1 19.8 41.6 23.7 44.3C20.4 43.4 17.1 42.1 13.7 40.3ZM31.5 45.3C24.4 45 18.6 39.2 18.6 32C18.6 30.7 18.8 29.4 19.1 28.2C19.5 28.3 20 28.4 20.4 28.4C22.5 28.4 24.3 26.7 24.3 24.5C24.3 23.5 23.9 22.5 23.2 21.8C25.4 19.9 28.2 18.8 31.1 18.6C31.4 18.6 32.3 18.6 32.5 18.6C39.6 18.9 45.4 24.7 45.4 31.9C45.4 39.1 39.7 45 32.5 45.2C32.3 45.3 31.7 45.3 31.5 45.3ZM50.3 40.3C46.9 42.1 43.6 43.4 40.3 44.3C44.2 41.6 46.8 37.1 46.8 32C46.8 26.9 44.2 22.4 40.3 19.7C40.5 19.7 40.7 19.8 40.9 19.8C51.5 22.8 59.8 30 61.9 32C60.5 33.4 56.2 37.1 50.3 40.3Z" fill="currentcolor"/>
<path d="M34.2 26.9C34.8 27.4 35.1 28 35.1 28.7H36.6C36.6 27.6 36.1 26.6 35.2 25.8C34.5 25.2 33.7 24.9 32.8 24.7V22H31.3V24.8C30.4 24.9 29.5 25.3 28.9 25.9C28 26.7 27.5 27.7 27.5 28.8C27.5 29.9 28 30.9 28.9 31.7C29.8 32.4 30.9 32.8 32.1 32.8C32.9 32.8 33.7 33.1 34.3 33.6C34.9 34.1 35.2 34.7 35.2 35.4C35.2 36.1 34.9 36.7 34.3 37.2C33.1 38.2 31 38.2 29.9 37.2C29.3 36.7 29 36.1 29 35.4H27.5C27.5 36.5 28 37.5 28.9 38.3C29.6 38.9 30.4 39.2 31.3 39.4V42H32.8V39.2C33.7 39.1 34.6 38.7 35.2 38.1C36.1 37.3 36.6 36.3 36.6 35.2C36.6 34.1 36.1 33.1 35.2 32.3C34.3 31.6 33.2 31.2 32 31.2C31.2 31.2 30.4 30.9 29.8 30.4C29.2 29.9 28.9 29.3 28.9 28.6C28.9 27.9 29.2 27.3 29.8 26.8C31 25.9 33 25.9 34.2 26.9Z" fill="currentcolor"/>
</svg>
