<svg viewBox="0 0 64 64" fill="none" xmlns="http://www.w3.org/2000/svg">
<path d="M56.7998 8.89999H55.2998V10.4H56.7998V8.89999Z" fill="currentcolor"/>
<path d="M60.7002 8.89999H59.2002V10.4H60.7002V8.89999Z" fill="currentcolor"/>
<path d="M47.2002 8.89999H42.7002V10.4H47.2002V8.89999Z" fill="currentcolor"/>
<path d="M21.5 8.89999H20V10.4H21.5V8.89999Z" fill="currentcolor"/>
<path d="M17.6001 8.89999H16.1001V10.4H17.6001V8.89999Z" fill="currentcolor"/>
<path d="M8 8.89999H3.5V10.4H8V8.89999Z" fill="currentcolor"/>
<path d="M56.7998 49.7H55.2998V51.2H56.7998V49.7Z" fill="currentcolor"/>
<path d="M60.7002 49.7H59.2002V51.2H60.7002V49.7Z" fill="currentcolor"/>
<path d="M47.2002 49.7H42.7002V51.2H47.2002V49.7Z" fill="currentcolor"/>
<path d="M41.7 56.4V57.9H61.6V56.4H59.9V54H64V46.9H52.3L44 38.6V26L52.7 17.3L52.5 17.1H61.7V15.6H60V13.2H64V6.10001H39.2V13.2H43.3V15.6H41.6V17.1H50.7L43 24.8L31.6 18.2L20.2 24.8L12.5 17.1H22.2V15.6H20.5V13.2H24.6V6.10001H0V13.2H4.1V15.6H2.4V17.1H11L10.8 17.3L19.5 26V38.6L11.2 46.9H0V54H4.1V56.4H2.4V57.9H22.3V56.4H20.6V54H24.7V46.9H13.2L20.3 39.8L31.7 46.4L43.1 39.8L50.2 46.9H39.2V54H43.3V56.4H41.7ZM40.7 7.60001H62.5V11.7H40.7V7.60001ZM44.8 13.2H58.4V15.6H44.8V13.2ZM1.5 7.60001H23.3V11.7H1.5V7.60001ZM5.6 13.2H19.2V15.6H5.6V13.2ZM19.2 56.4H5.6V54H19.2V56.4ZM23.3 52.5H1.5V48.4H23.3V52.5ZM42.5 38.5L31.8 44.7L21 38.5V26.1L31.7 19.9L42.4 26.1V38.5H42.5ZM40.7 48.4H62.5V52.5H40.7V48.4ZM44.8 54H58.4V56.4H44.8V54Z" fill="currentcolor"/>
<path d="M21.5 49.7H20V51.2H21.5V49.7Z" fill="currentcolor"/>
<path d="M17.6001 49.7H16.1001V51.2H17.6001V49.7Z" fill="currentcolor"/>
<path d="M8 49.7H3.5V51.2H8V49.7Z" fill="currentcolor"/>
</svg>
