<svg viewBox="0 0 64 64" fill="none" xmlns="http://www.w3.org/2000/svg">
<path d="M64 2.60005H0V53.7001H49.8L53.3 59.7001C53.9 60.8001 55 61.5001 56.3 61.5001C56.9 61.5001 57.5 61.3001 58.1 61.0001C58.9 60.5001 59.4 59.7001 59.6 58.8001C59.8 57.9001 59.6 56.9001 59 56.2001L57.2 53.8001H64V2.60005ZM1.5 4.00005H46.9V10.4001H1.5V4.00005ZM57.8 57.0001C58.4 58.0001 58.2 58.9001 57.3 59.7001C56.4 60.3001 55.1 59.9001 54.6 59.0001L48.1 48.0001V47.9001L45.1 42.9001L44.5 43.2001C42 44.3001 39.1 44.5001 36.4 43.7001C30.8 42.1001 27.3 36.5001 28.2 30.7001C29.1 25.0001 34 20.9001 39.7 20.9001C41.1 20.9001 42.5 21.2001 43.9 21.7001C49.3 23.7001 52.5 29.8001 51 35.5001C50.4 37.9001 49.1 40.0001 47.2 41.6001L46.7 42.0001L57.8 57.0001ZM44.4 20.2001C42.9 19.6001 41.3 19.3001 39.7 19.3001C33.2 19.3001 27.8 23.9001 26.8 30.3001C25.7 36.8 29.7 43.1001 36 45.0001C38.8 45.8001 41.8 45.7001 44.5 44.6001L46.4 47.7001H5.8V16.7001H58.3V47.7001H52.9L48.6 41.9001C50.5 40.2001 51.8 38.0001 52.4 35.5001C54 29.3001 50.5 22.5001 44.4 20.2001ZM62.5 52.2001H56.1L54 49.3001H59.7V15.4001H4.3V49.3001H47.2L48.9 52.2001H1.5V11.9001H62.6V52.2001H62.5ZM62.5 10.4001H48.4V4.00005H62.6V10.4001H62.5Z" fill="currentcolor"/>
<path d="M56.2998 6.50005H54.7998V8.00005H56.2998V6.50005Z" fill="currentcolor"/>
<path d="M52.2002 6.50005H50.7002V8.00005H52.2002V6.50005Z" fill="currentcolor"/>
<path d="M60.3999 6.50005H58.8999V8.00005H60.3999V6.50005Z" fill="currentcolor"/>
<path d="M47.1999 29.7001H31.8999V31.2001H47.1999V29.7001Z" fill="currentcolor"/>
<path d="M45.1999 34.7001H33.8999V36.2001H45.1999V34.7001Z" fill="currentcolor"/>
<path d="M16.2 19.4001L14.1 23.1001L10 24.0001L12.9 27.1001L12.4 31.4001L16.3 29.6001L20.2 31.4001L19.7 27.1001L22.6 24.0001L18.4 23.2001L16.2 19.4001ZM18.1 26.6001L18.4 28.9001L16.3 27.9001L14.2 28.9001L14.5 26.6001L12.9 24.9001L15.2 24.4001L16.3 22.4001L17.4 24.4001L19.7 24.9001L18.1 26.6001Z" fill="currentcolor"/>
<path d="M18.3 36.8001L16.2 33.0001L14.1 36.7001L10 37.6L12.9 40.7001L12.4 45.0001L16.3 43.2001L20.2 45.0001L19.7 40.7001L22.6 37.6L18.3 36.8001ZM18.4 42.6L16.3 41.6L14.2 42.6L14.5 40.3001L12.9 38.6L15.2 38.1L16.3 36.1L17.4 38.1L19.7 38.6L18.1 40.3001L18.4 42.6Z" fill="currentcolor"/>
</svg>
