<svg viewBox="0 0 64 64" fill="none" xmlns="http://www.w3.org/2000/svg">
<path d="M32 13.4C14.4 13.4 0 27.8 0 45.4V46.1H5.7V44.6H1.5C1.6 39.6 3 34.9 5.2 30.7L8.9 32.8L9.6 31.5L5.9 29.4C8.4 25.3 11.9 21.8 16.1 19.2L18.2 22.9L19.5 22.2L17.4 18.5C21.5 16.2 26.3 14.9 31.3 14.8V19H32.8V14.8C37.8 14.9 42.5 16.3 46.7 18.5L44.6 22.2L45.9 22.9L48 19.2C52.1 21.7 55.6 25.2 58.2 29.4L54.5 31.5L55.2 32.8L58.9 30.7C61.2 34.8 62.5 39.6 62.6 44.6H58.4V46.1H64V45.4C64 27.8 49.6 13.4 32 13.4Z" fill="currentcolor"/>
<path d="M50.8 26.9L32.6 40.3C32.4 40.3 32.2 40.2 32 40.2C29.1 40.2 26.8 42.5 26.8 45.4C26.8 48.3 29.1 50.6 32 50.6C34.8 50.6 37.0001 48.4 37.2001 45.7L50.8 26.9ZM44.1 33.6L36.8 43.6C36.3 42.4 35.4 41.4 34.3 40.8L44.1 33.6ZM32 49.1C29.9 49.1 28.3 47.4 28.3 45.4C28.3 43.3 30 41.7 32 41.7C34.1 41.7 35.7001 43.4 35.7001 45.4C35.7001 47.5 34.1 49.1 32 49.1Z" fill="currentcolor"/>
</svg>
