<svg viewBox="0 0 64 64" fill="none" xmlns="http://www.w3.org/2000/svg">
<path d="M16.0999 2.39998H14.3999V3.89998H16.0999V22.1H17.5999V3.89998H60.7999V27.7H21.6999V29.2H38.2999L27.5999 44.9H26.0999V46.4H30.2999V44.9H29.3999L38.8999 30.8V44.9H37.3999V46.4H41.9999V44.9H40.3999V30.8L49.9999 44.9H49.2999V46.4H53.4999V44.9H51.7999L41.0999 29.2H61.5999H62.2999H63.9999V27.7H62.2999V3.89998H63.9999V2.39998H62.2999H16.0999Z" fill="currentcolor"/>
<path d="M27.2 18.2L34.4 11.1L33.4 9.99998L26.2 17.1L24.8 15.7L17.7 22.8H11.7L9.2 27.5H8.7L6.2 22.8H5.8C2.6 22.8 0 25.4 0 28.6V42.7H2.8L2.2 61.6H7.3L9 49.4L10.6 61.6H15.7L14.8 31.6C14.8 30.8 15.2 30 16 29.7H18.6L28.6 19.7L27.2 18.2ZM18 28.2H15.9H15.7C14.3 28.7 13.4 30 13.4 31.6L14.3 60.1H12L9.7 43.5L9 43.6L8.3 43.5L6.1 60.1H3.8L4.6 33.7H3.1L2.9 41.3H1.5V28.7C1.5 26.5 3.2 24.7 5.3 24.4L7.8 29H10.1L12.6 24.3H18.3L24.8 17.8L26.5 19.5L18 28.2Z" fill="currentcolor"/>
<path d="M8.7999 22.7C10.9999 22.7 12.6999 20.9 12.6999 18.8C12.6999 16.6 10.8999 14.9 8.7999 14.9C6.5999 14.9 4.8999 16.7 4.8999 18.8C4.8999 20.9 6.5999 22.7 8.7999 22.7ZM8.7999 16.3C10.0999 16.3 11.1999 17.4 11.1999 18.7C11.1999 20 10.0999 21.1 8.7999 21.1C7.4999 21.1 6.3999 20 6.3999 18.7C6.2999 17.4 7.3999 16.3 8.7999 16.3Z" fill="currentcolor"/>
<path d="M37 15.8V21.8H34.7V23.3H56.2999V21.8H54V8.99998H52.5999V21.8H48.9V14.1H47.4V21.8H43.7V10.9H42.2V21.8H38.5V15.8H37Z" fill="currentcolor"/>
</svg>
