<svg viewBox="0 0 64 64" fill="none" xmlns="http://www.w3.org/2000/svg">
<path d="M62.2 48.6L64 47.5L62.7 44.3L60.6 44.7C59.9 43.7 59.1 42.8 58.1 42L58.6 40L55.4 38.6L54.2 40.3C53.8 40.2 53.4 40.2 53.1 40.1V33.9H32.7V26.7H48.5C52.3 26.7 55.3 23.6 55.3 19.9C55.3 19.5 55.3 19.1 55.2 18.7V18.5C54.6 15.3 51.7 13.1 48.5 13.1H47.8C47.4 9.69999 44.6 7.09999 41.1 7.09999C39.7 7.09999 38.4 7.49999 37.3 8.29999C36.2 4.69999 32.8 2.09999 28.9 2.09999C24.4 2.09999 20.8 5.49999 20.2 9.79999C19.3 9.49999 18.3 9.29999 17.3 9.29999C12.5 9.29999 8.5 13.2 8.5 18.1C8.5 22.9 12.4 26.9 17.3 26.9H31.1V34.1H11.5V40C11.1 40 10.6 40 10.2 40.1L9.1 38.3L5.9 39.6L6.3 41.7C5.3 42.4 4.4 43.2 3.6 44.2L1.6 43.7L0.2 46.9L1.9 48.1C1.6 49.3 1.6 50.6 1.8 51.8L0 52.9L1.3 56.1L3.4 55.7C4.1 56.7 4.9 57.6 5.9 58.4L5.4 60.4L8.6 61.8L9.8 60.1C11 60.4 12.3 60.4 13.5 60.2L14.6 62L17.8 60.7L17.4 58.6C18.4 57.9 19.3 57.1 20.1 56.1L22.1 56.6L23.5 53.4L21.8 52.2C22.1 51 22.1 49.7 21.9 48.5L23.7 47.4L22.4 44.2L20.3 44.6C19.6 43.6 18.8 42.7 17.8 41.9L18.3 39.9L15.1 38.5L13.9 40.2C13.6 40.1 13.3 40.1 12.9 40.1V35.3H51.5V40C51.1 40 50.8 40.1 50.4 40.1L49.3 38.3L46.1 39.6L46.5 41.7C45.5 42.4 44.6 43.2 43.8 44.2L41.8 43.7L40.4 46.9L42.1 48.1C41.8 49.3 41.8 50.6 42 51.8L40.2 52.9L41.5 56.1L43.6 55.7C44.3 56.7 45.1 57.6 46.1 58.4L45.6 60.4L48.8 61.8L50 60.1C51.2 60.4 52.5 60.4 53.7 60.2L54.8 62L58 60.7L57.6 58.6C58.6 57.9 59.5 57.1 60.3 56.1L62.3 56.6L63.7 53.4L62 52.2C62.4 51.1 62.4 49.8 62.2 48.6ZM14.6 41.8L15.7 40.2L16.7 40.6L16.3 42.5C17.8 43.5 19 44.6 19.8 46.1L21.7 45.8L22.1 46.8L20.5 47.8C20.9 49.3 20.9 51 20.4 52.8L22 53.9L21.6 54.9L19.7 54.5C18.9 55.9 17.7 57 16.1 58L16.4 59.9L15.4 60.3L14.4 58.7C12.7 59.1 11.1 59.1 9.4 58.6L8.3 60.2L7.3 59.8L7.7 57.9C6.2 56.9 4.9 55.7 4.2 54.3L2.3 54.6L1.9 53.6L3.5 52.6C3.1 50.9 3.1 49.2 3.6 47.6L2 46.4L2.4 45.4L4.3 45.8C5.1 44.4 6.3 43.2 7.9 42.3L7.6 40.4L8.6 40L9.6 41.6C11.2 41.3 12.8 41.4 14.6 41.8ZM17.4 25.2C13.4 25.2 10.1 21.9 10.1 17.9C10.1 13.9 13.4 10.6 17.4 10.6C18.4 10.6 19.3 10.8 20.2 11.2C20.2 12 20.4 12.7 20.6 13.5L22 13C21.8 12.3 21.6 11.5 21.6 10.7C21.6 6.69999 24.9 3.39999 28.9 3.39999C32.4 3.39999 35.3 5.79999 36 9.19999C35.5 9.69999 35.1 10.3 34.8 11L36.1 11.6C37 9.69999 38.9 8.39999 41 8.39999C43.9 8.39999 46.3 10.8 46.3 13.7V14.4H48.4C50.9 14.4 53.1 16.2 53.7 18.7V18.9C53.8 19.2 53.8 19.5 53.8 19.8C53.8 22.8 51.4 25.2 48.4 25.2H17.4ZM61.6 55L59.7 54.6C58.9 56 57.7 57.1 56.1 58.1L56.4 60L55.4 60.4L54.4 58.8C52.7 59.2 51 59.2 49.4 58.7L48.3 60.3L47.3 59.9L47.7 58C46.2 57.1 45.1 55.9 44.2 54.4L42.3 54.7L41.9 53.7L43.5 52.7C43.1 51.2 43.1 49.5 43.6 47.7L42 46.6L42.4 45.6L44.3 46C45.3 44.4 46.5 43.3 47.9 42.5L47.6 40.6L48.6 40.2L49.6 41.8C51.3 41.4 53 41.4 54.6 41.9L55.7 40.3L56.7 40.7L56.3 42.6C57.9 43.6 59.1 44.8 59.8 46.2L61.7 45.9L62.1 46.9L60.5 47.9C60.9 49.6 60.9 51.2 60.4 52.9L62 54L61.6 55Z" fill="currentcolor"/>
<path d="M52.1001 42.8C50.6001 42.8 49.1001 43.3 47.9001 44.1C46.3001 45.2 45.2001 46.9 44.9001 48.9C44.6001 50.8 45.0001 52.8 46.1001 54.4C47.5001 56.4 49.7001 57.5 52.1001 57.5C53.6001 57.5 55.1001 57 56.3001 56.2C57.9001 55.1 59.0001 53.4 59.3001 51.4C59.6001 49.5 59.2001 47.5 58.1001 45.9C56.8001 44 54.5001 42.8 52.1001 42.8ZM58.0001 51.2C57.7001 52.8 56.9001 54.1 55.6001 55C54.6001 55.7 53.4001 56.1 52.2001 56.1C50.3001 56.1 48.5001 55.2 47.3001 53.6C46.4001 52.3 46.0001 50.7 46.3001 49.2C46.6001 47.6 47.4001 46.3 48.7001 45.4C49.7001 44.7 50.9001 44.3 52.1001 44.3C54.0001 44.3 55.8001 45.2 57.0001 46.8C57.9001 48.1 58.2001 49.7 58.0001 51.2Z" fill="currentcolor"/>
<path d="M7.60004 44.2C4.30004 46.5 3.50004 51.1 5.80004 54.5C7.20004 56.5 9.40004 57.6 11.8 57.6C13.3 57.6 14.8 57.1 16 56.3C19.3 54 20.1 49.4 17.8 46C16.4 44 14.2 42.9 11.8 42.9C10.3 42.8 8.90004 43.3 7.60004 44.2ZM16.7 46.8C18.6 49.5 17.9 53.2 15.2 55C14.2 55.7 13 56.1 11.8 56.1C9.90004 56.1 8.10004 55.2 6.90004 53.6C5.00004 50.9 5.70004 47.2 8.40004 45.4C9.40004 44.7 10.6 44.3 11.8 44.3C13.8 44.3 15.6 45.2 16.7 46.8Z" fill="currentcolor"/>
<path d="M24.7999 6.49999C24.1999 7.09999 23.6999 7.89999 23.3999 8.69999L24.7999 9.19999C24.9999 8.59999 25.3999 7.99999 25.7999 7.49999C26.5999 6.69999 27.7999 6.19999 28.9999 6.19999C30.0999 6.19999 31.0999 6.59999 31.8999 7.19999L32.7999 6.09999C31.6999 5.19999 30.3999 4.69999 28.9999 4.69999C27.3999 4.79999 25.8999 5.39999 24.7999 6.49999Z" fill="currentcolor"/>
</svg>
