<svg viewBox="0 0 64 64" fill="none" xmlns="http://www.w3.org/2000/svg">
<path d="M61.1 54.5H60.9V50.7H57.9V28.8H60.9V25H64L32 0.400024L0 24.9H3.2V28.7H6.2V50.6H3.2V54.4H2.9C1.4 54.4 0.2 55.6 0.2 57.1V63.6H63.6V57.1C63.7 55.7 62.5 54.5 61.1 54.5ZM59.4 52.1V54.5H49.3V52.1H50.8H57.9H59.4ZM35.6 50.7V28.8H38.6V25H47.9V28.8H50.9V50.7H47.9V54.5H38.6V50.7H35.6ZM13.2 50.7V28.8H16.2V25H25.5V28.8H28.5V50.7H25.5V54.5H16.2V50.7H13.2ZM28.4 27.3H26.9V24.9H37V27.3H35.5H28.4ZM34.1 28.8V50.7H29.9V28.8H34.1ZM26.9 52.1H28.4H35.5H37V54.5H26.9V52.1ZM52.2 50.7V28.8H56.4V50.7H52.2ZM59.4 27.3H57.9H50.8H49.3V24.9H59.4V27.3ZM32 2.20002L59.7 23.5H4.3L32 2.20002ZM4.6 27.3V24.9H14.7V27.3H13.2H6.1H4.6ZM11.8 28.8V50.7H7.6V28.8H11.8ZM4.6 52.1H6.1H13.2H14.7V54.5H4.6V52.1ZM62.3 62.2H1.7V57.2C1.7 56.5 2.2 56 2.9 56H3.1H60.8H61C61.7 56 62.2 56.5 62.2 57.2V62.2H62.3Z" fill="currentcolor"/>
<path d="M47.5999 18.5H16.3999V20H47.5999V18.5Z" fill="currentcolor"/>
<path d="M39 14.8H25V16.3H39V14.8Z" fill="currentcolor"/>
</svg>
