<svg viewBox="0 0 64 64" fill="none" xmlns="http://www.w3.org/2000/svg">
<path d="M62.3 7.80005H1.7C0.8 7.80005 0 8.60004 0 9.50004V45.7C0 46.6 0.8 47.4 1.7 47.4H24L20 54.7H15.7V56.2H48.2V54.7H43.8L39.8 47.4H62.1C63 47.4 63.8 46.6 63.8 45.7V9.50004C64 8.60004 63.2 7.80005 62.3 7.80005ZM42.2 54.7H21.8L25.8 47.4H38.4L42.2 54.7ZM62.5 45.7C62.5 45.8 62.4 45.9 62.3 45.9H1.7C1.6 45.9 1.5 45.8 1.5 45.7V9.50004C1.5 9.40004 1.6 9.30005 1.7 9.30005H62.3C62.4 9.30005 62.5 9.40004 62.5 9.50004V45.7Z" fill="currentcolor"/>
<path d="M32.6 28.4H52.5C55.7 28.4 58.4 25.8 58.4 22.5C58.4 19.3 55.8 16.6 52.5 16.6C51.9 16.6 51.4 16.7 50.9 16.8C50.4 14.1 48 12 45.1 12C42.6 12 40.4 13.6 39.6 15.8C38.9 15.4 38.1 15.2 37.3 15.2C35 15.2 33.1 16.9 32.8 19.1H32.6C30.4 19.1 28.5 20.7 28.1 22.8V22.9C28.1 23.2 28 23.4 28 23.7C28 26.3 30.1 28.4 32.6 28.4ZM29.5 23.2V23.1C29.8 21.6 31.1 20.6 32.6 20.6H34.2V19.9C34.2 18.2 35.6 16.8 37.3 16.8C38.5 16.8 39.7 17.5 40.2 18.7L41.5 18.1C41.3 17.7 41.1 17.3 40.8 17C41.3 15 43 13.6 45.1 13.6C47.5 13.6 49.5 15.6 49.5 18C49.5 18.5 49.4 18.9 49.3 19.4L50.7 19.9C50.8 19.5 50.9 19 51 18.6C51.5 18.4 52 18.3 52.6 18.3C55 18.3 57 20.3 57 22.7C57 25.1 55 27.1 52.6 27.1H32.6C30.9 27.1 29.4 25.7 29.4 23.9C29.4 23.6 29.5 23.4 29.5 23.2Z" fill="currentcolor"/>
<path d="M5 28.1H22.8V13.1H5V28.1ZM6.4 14.5H21.2V26.6H6.4V14.5Z" fill="currentcolor"/>
<path d="M5 43.2H21.4V31.8H5V43.2ZM6.4 33.3H19.8V41.8H6.4V33.3Z" fill="currentcolor"/>
<path d="M23.7998 43.2H40.1998V31.8H23.7998V43.2ZM25.2998 33.3H38.6998V41.8H25.2998V33.3Z" fill="currentcolor"/>
<path d="M42.7002 43.2H59.0002V31.8H42.7002V43.2ZM44.1002 33.3H57.5002V41.8H44.1002V33.3Z" fill="currentcolor"/>
</svg>
