<svg viewBox="0 0 64 64" fill="none" xmlns="http://www.w3.org/2000/svg">
<path d="M49.4997 29.1H20.6997V30.6H49.4997V29.1Z" fill="currentcolor"/>
<path d="M50.8 24H32.5V25.5H50.8V24Z" fill="currentcolor"/>
<path d="M52.1996 18.9H27.5996V20.4H52.1996V18.9Z" fill="currentcolor"/>
<path d="M52.1998 57.9V64H60.6998V57.9H57.1998V48.1H32.6998V36H53.2998L59.9998 10.7H53.1998V4.6H31.4998L26.3998 0H8.8998V36H31.2998V48.1H6.7998V57.9H3.2998V64H11.7998V57.9H8.2998V49.6H31.2998V57.9H27.7998V64H36.2998V57.9H32.7998V49.6H55.7998V57.9H52.1998ZM10.2998 1.5H25.7998L30.8998 6.1H51.7998V10.8H15.3998L10.3998 29.7V1.5H10.2998ZM16.4998 12.2H58.1998L52.2998 34.5H10.5998L16.4998 12.2ZM10.2998 62.5H4.6998V59.4H10.2998V62.5ZM34.7998 62.5H29.1998V59.4H34.7998V62.5ZM59.2998 62.5H53.6998V59.4H59.2998V62.5Z" fill="currentcolor"/>
</svg>
