<svg viewBox="0 0 64 64" fill="none" xmlns="http://www.w3.org/2000/svg">
<path d="M60.2998 41.7C58.5998 41.7 57.1998 42.9 56.8998 44.5H48.9998V32.3H55.0998L55.1998 31.7C55.5998 29.2 55.5998 26.8 55.1998 24.4L60.1998 21.1L56.8998 13.2L50.9998 14.4C49.5998 12.4 47.7998 10.6 45.7998 9.1L46.9998 3.3L38.9998 0L35.6998 5C33.2998 4.6 30.6998 4.6 28.2998 5L24.9998 0L16.9998 3.3L18.1998 9.2C16.1998 10.7 14.3998 12.4 12.8998 14.5L7.0998 13.2L3.7998 21.1L8.7998 24.4C8.39981 26.8 8.39981 29.2 8.7998 31.7L8.9998 32.3H14.9998V44.6H7.1998C6.8998 43 5.4998 41.8 3.7998 41.8C1.8998 41.8 0.299805 43.4 0.299805 45.3C0.299805 47.2 1.8998 48.8 3.7998 48.8C5.4998 48.8 6.8998 47.6 7.1998 46H16.5998V32.3H18.9998H20.7998V49.7L12.6998 58.2C11.8998 57.4 10.9998 57 9.9998 57C8.0998 57 6.4998 58.6 6.4998 60.5C6.4998 62.4 8.0998 64 9.9998 64C11.8998 64 13.4998 62.4 13.4998 60.5C13.4998 60.1 13.3998 59.8 13.2998 59.4L22.0998 50.2V32.2H26.2998V57C24.6998 57.3 23.4998 58.7 23.4998 60.4C23.4998 62.3 25.0998 63.9 26.9998 63.9C28.8998 63.9 30.4998 62.3 30.4998 60.4C30.4998 58.7 29.2998 57.3 27.6998 57V32.3H36.1998V57.1C34.5998 57.4 33.3998 58.8 33.3998 60.5C33.3998 62.4 34.9998 64 36.8998 64C38.7998 64 40.3998 62.4 40.3998 60.5C40.3998 58.8 39.1998 57.4 37.5998 57.1V32.3H41.7998V50.3L50.5998 59.5C50.4998 59.8 50.3998 60.2 50.3998 60.6C50.3998 62.5 51.9998 64.1 53.8998 64.1C55.7998 64.1 57.3998 62.5 57.3998 60.6C57.3998 58.7 55.7998 57.1 53.8998 57.1C52.8998 57.1 51.9998 57.5 51.2998 58.2L43.1998 49.7V32.3H47.2998V46H56.6998C56.9998 47.6 58.3998 48.8 60.0998 48.8C61.9998 48.8 63.5998 47.2 63.5998 45.3C63.7998 43.3 62.1998 41.7 60.2998 41.7ZM3.6998 47.3C2.5998 47.3 1.6998 46.4 1.6998 45.3C1.6998 44.2 2.5998 43.3 3.6998 43.3C4.7998 43.3 5.6998 44.2 5.6998 45.3C5.7998 46.4 4.89981 47.3 3.6998 47.3ZM9.9998 62.5C8.8998 62.5 7.9998 61.6 7.9998 60.5C7.9998 59.4 8.8998 58.5 9.9998 58.5C11.0998 58.5 11.9998 59.4 11.9998 60.5C12.0998 61.6 11.1998 62.5 9.9998 62.5ZM53.9998 58.4C55.0998 58.4 55.9998 59.3 55.9998 60.4C55.9998 61.5 55.0998 62.4 53.9998 62.4C52.8998 62.4 51.9998 61.5 51.9998 60.4C51.8998 59.4 52.7998 58.4 53.9998 58.4ZM29.0998 60.5C29.0998 61.6 28.1998 62.5 27.0998 62.5C25.9998 62.5 25.0998 61.6 25.0998 60.5C25.0998 59.4 25.9998 58.5 27.0998 58.5C28.1998 58.4 29.0998 59.4 29.0998 60.5ZM38.9998 60.5C38.9998 61.6 38.0998 62.5 36.9998 62.5C35.8998 62.5 34.9998 61.6 34.9998 60.5C34.9998 59.4 35.8998 58.5 36.9998 58.5C38.0998 58.4 38.9998 59.4 38.9998 60.5ZM43.9998 30.8H20.0998C19.4998 28.3 19.6998 25.7 20.6998 23.4C24.2998 16.7 29.5998 14.5 36.7998 16.8C42.2998 19 45.2998 25 43.9998 30.8ZM45.3998 30.8C46.6998 24.4 43.2998 17.9 37.1998 15.4C35.4998 14.7 33.6998 14.3 31.8998 14.3C26.2998 14.3 21.2998 17.6 19.1998 22.8C18.0998 25.4 17.8998 28.1 18.3998 30.8H10.0998C9.7998 28.5 10.3998 23.6 10.3998 23.6L5.5998 20.5L7.9998 14.8L13.5998 16C15.3998 13.4 17.4998 11.3 19.7998 9.8L18.5998 4.2L24.2998 1.8L27.3998 6.6C30.4998 6 33.4998 6 36.1998 6.6L39.2998 1.8L44.9998 4.2L43.7998 9.8C46.1998 11.4 48.2998 13.4 49.9998 16.1L55.5998 14.9L57.9998 20.6L53.1998 23.7C53.1998 23.7 53.7998 28.6 53.4998 30.8H45.3998ZM60.2998 47.3C59.1998 47.3 58.2998 46.4 58.2998 45.3C58.2998 44.2 59.1998 43.3 60.2998 43.3C61.3998 43.3 62.2998 44.2 62.2998 45.3C62.2998 46.4 61.3998 47.3 60.2998 47.3Z" fill="currentcolor"/>
</svg>
