<svg viewBox="0 0 64 64" fill="none" xmlns="http://www.w3.org/2000/svg">
<path d="M64 23.6V22.1H53.9V15.3L48.7 10.1H41.9V0H40.4V10.1H35.8V0H34.3V10.1H29.7V0H28.2V10.1H23.6V0H22.1V10.1H15.3L10.1 15.3V22.1H0V23.6H10.2V28.2H0V29.7H10.2V34.3H0V35.8H10.2V40.4H0V41.9H10.2V48.7L15.4 53.9H22.2V64H23.7V53.9H28.3V64H29.8V53.9H34.4V64H35.9V53.9H40.5V64H42V53.9H48.8L54 48.7V41.9H64V40.4H53.9V35.8H64V34.3H53.9V29.7H64V28.2H53.9V23.6H64ZM52.4 48L48 52.4H16L11.7 48V16L16 11.7H48L52.3 16V48H52.4Z" fill="currentcolor"/>
<path d="M37.3999 18H35.8999V19.5H37.3999V18Z" fill="currentcolor"/>
<path d="M28.6001 18H27.1001V19.5H28.6001V18Z" fill="currentcolor"/>
<path d="M24.2002 18H22.7002V19.5H24.2002V18Z" fill="currentcolor"/>
<path d="M46.2002 18H44.7002V19.5H46.2002V18Z" fill="currentcolor"/>
<path d="M33 18H31.5V19.5H33V18Z" fill="currentcolor"/>
<path d="M41.7998 18H40.2998V19.5H41.7998V18Z" fill="currentcolor"/>
<path d="M19.7998 18H18.2998V19.5H19.7998V18Z" fill="currentcolor"/>
<path d="M24.2002 24.6H22.7002V26.1H24.2002V24.6Z" fill="currentcolor"/>
<path d="M19.7998 24.6H18.2998V26.1H19.7998V24.6Z" fill="currentcolor"/>
<path d="M46.2002 24.6H44.7002V26.1H46.2002V24.6Z" fill="currentcolor"/>
<path d="M28.6001 24.6H27.1001V26.1H28.6001V24.6Z" fill="currentcolor"/>
<path d="M41.7998 24.6H40.2998V26.1H41.7998V24.6Z" fill="currentcolor"/>
<path d="M37.3999 24.6H35.8999V26.1H37.3999V24.6Z" fill="currentcolor"/>
<path d="M33 24.6H31.5V26.1H33V24.6Z" fill="currentcolor"/>
<path d="M19.7998 31.3H18.2998V32.8H19.7998V31.3Z" fill="currentcolor"/>
<path d="M46.2002 31.3H44.7002V32.8H46.2002V31.3Z" fill="currentcolor"/>
<path d="M41.7998 31.3H40.2998V32.8H41.7998V31.3Z" fill="currentcolor"/>
<path d="M24.2002 31.3H22.7002V32.8H24.2002V31.3Z" fill="currentcolor"/>
<path d="M33 31.3H31.5V32.8H33V31.3Z" fill="currentcolor"/>
<path d="M28.6001 31.3H27.1001V32.8H28.6001V31.3Z" fill="currentcolor"/>
<path d="M37.3999 31.3H35.8999V32.8H37.3999V31.3Z" fill="currentcolor"/>
<path d="M33 37.9H31.5V39.4H33V37.9Z" fill="currentcolor"/>
<path d="M24.2002 37.9H22.7002V39.4H24.2002V37.9Z" fill="currentcolor"/>
<path d="M41.7998 37.9H40.2998V39.4H41.7998V37.9Z" fill="currentcolor"/>
<path d="M37.3999 37.9H35.8999V39.4H37.3999V37.9Z" fill="currentcolor"/>
<path d="M28.6001 37.9H27.1001V39.4H28.6001V37.9Z" fill="currentcolor"/>
<path d="M46.2002 37.9H44.7002V39.4H46.2002V37.9Z" fill="currentcolor"/>
<path d="M19.7998 37.9H18.2998V39.4H19.7998V37.9Z" fill="currentcolor"/>
<path d="M46.2002 44.5H44.7002V46H46.2002V44.5Z" fill="currentcolor"/>
<path d="M41.7998 44.5H40.2998V46H41.7998V44.5Z" fill="currentcolor"/>
<path d="M33 44.5H31.5V46H33V44.5Z" fill="currentcolor"/>
<path d="M19.7998 44.5H18.2998V46H19.7998V44.5Z" fill="currentcolor"/>
<path d="M37.3999 44.5H35.8999V46H37.3999V44.5Z" fill="currentcolor"/>
<path d="M28.6001 44.5H27.1001V46H28.6001V44.5Z" fill="currentcolor"/>
<path d="M24.2002 44.5H22.7002V46H24.2002V44.5Z" fill="currentcolor"/>
</svg>
