<svg viewBox="0 0 64 64" fill="none" xmlns="http://www.w3.org/2000/svg">
<path d="M22.1998 9.1C21.3998 9.9 20.6998 10.9 20.2998 12L21.6998 12.5C21.9998 11.6 22.4998 10.8 23.1998 10.1C24.3998 8.9 25.9998 8.2 27.7998 8.2C29.2998 8.2 30.7998 8.7 31.9998 9.7L32.8998 8.6C31.4998 7.4 29.6998 6.7 27.7998 6.7C25.6998 6.8 23.6998 7.6 22.1998 9.1Z" fill="currentcolor"/>
<path d="M54.8 36.5C59.9 36.5 64 32.4 64 27.3C64 26.8 64 26.3 63.9 25.8L63.8 25.5C62.9 21.3 59.2 18.2 54.8 18.2H53.6C53.2 13.5 49.3 9.8 44.5 9.8C42.5 9.8 40.7 10.5 39.1 11.6C37.7 6.5 33.1 2.8 27.7 2.8C21.5 2.8 16.5 7.5 15.9 13.5C14.6 13 13.2 12.7 11.7 12.7C5.3 12.9 0 18.2 0 24.7C0 31.2 5.3 36.5 11.8 36.5H31.2V46.2H11.2V54.3C9.7 54.6 8.5 56 8.5 57.6C8.5 59.5 10 61 11.9 61C13.8 61 15.3 59.5 15.3 57.6C15.3 56 14.1 54.6 12.6 54.3V47.7H31.2V54.3C29.7 54.6 28.5 56 28.5 57.6C28.5 59.5 30 61 31.9 61C33.8 61 35.3 59.5 35.3 57.6C35.3 56 34.1 54.6 32.6 54.3V47.7H51.2V54.3C49.7 54.6 48.5 56 48.5 57.6C48.5 59.5 50 61 51.9 61C53.8 61 55.3 59.5 55.3 57.6C55.3 56 54.1 54.6 52.6 54.3V46.2H32.7V36.5H54.8ZM13.9 57.7C13.9 58.8 13 59.7 11.9 59.7C10.8 59.7 9.9 58.8 9.9 57.7C9.9 56.6 10.8 55.7 11.9 55.7C13 55.7 13.9 56.6 13.9 57.7ZM34 57.7C34 58.8 33.1 59.7 32 59.7C30.9 59.7 30 58.8 30 57.7C30 56.6 30.9 55.7 32 55.7C33.1 55.7 34 56.6 34 57.7ZM54 57.7C54 58.8 53.1 59.7 52 59.7C50.9 59.7 50 58.8 50 57.7C50 56.6 50.9 55.7 52 55.7C53.1 55.7 54 56.6 54 57.7ZM1.5 24.7C1.5 19 6.2 14.3 11.9 14.3C13.3 14.3 14.7 14.6 16 15.2C16 16.3 16.2 17.4 16.6 18.4L18 18C17.7 17 17.5 15.9 17.5 14.8C17.5 9.1 22.2 4.4 27.9 4.4C32.9 4.4 37.1 7.9 38.1 12.8C37.4 13.5 36.8 14.4 36.4 15.3L37.7 15.9C38.9 13.1 41.7 11.4 44.7 11.4C48.9 11.4 52.3 14.8 52.3 19V19.7H54.9C58.5 19.7 61.7 22.3 62.4 25.8V26.1C62.5 26.5 62.5 27 62.5 27.4C62.5 31.6 59 35.1 54.8 35.1H11.8C6.1 35.1 1.5 30.4 1.5 24.7Z" fill="currentcolor"/>
</svg>
