<svg viewBox="0 0 64 64" fill="none" xmlns="http://www.w3.org/2000/svg">
<path d="M28.1 31.3H53.3L53.5 30.9C55.8 26.5 55.6 21.2 52.9 16.9C50.2 12.5 45.7 9.90004 40.7 9.90004C35.7 9.90004 31.1 12.5 28.5 16.9C25.8 21.3 25.6 26.5 27.9 30.9L28.1 31.3ZM29.7 17.6C30.1 16.9 30.6 16.3 31.1 15.7L32 16.6L33 15.6L32.1 14.7C34.3 12.7 37 11.5 39.9 11.4V13.2H41.4V11.4C44.3 11.6 47 12.7 49.2 14.7L48.3 15.6L49.3 16.6L50.2 15.7C50.7 16.3 51.2 16.9 51.6 17.6C52.7 19.4 53.3 21.5 53.5 23.5H51.7V25H53.5C53.4 26.7 53 28.3 52.3 29.8H28.9C28.2 28.3 27.8 26.7 27.7 25H29.5V23.5H27.7C27.9 21.5 28.6 19.5 29.7 17.6Z" fill="currentcolor"/>
<path d="M48.0999 17.8L47.0999 16.8L41.5999 22.3C40.0999 21.6 38.3999 22.7 38.4999 24.3C38.4999 24.6 38.5999 24.9 38.6999 25.2L37.3999 26.6L38.4999 27.6L39.7999 26.3C40.0999 26.4 40.3999 26.5 40.6999 26.5C42.1999 26.5 43.2999 25 42.6999 23.4L48.0999 17.8ZM41.1999 24.8C40.8999 25.1 40.4999 25.1 40.1999 24.8C39.6999 24.2 40.0999 23.6 40.6999 23.6C40.8999 23.6 41.0999 23.7 41.1999 23.8C41.3999 24 41.3999 24.5 41.1999 24.8Z" fill="currentcolor"/>
<path d="M60.5 16.4H55.9V17.9H59.1V48H4.9V17.9H25.4V16.4H3.5V48H0V50.4L2.7 54.2H61.3L64 50.4V48H60.5V16.4ZM62.5 49.4V49.9L60.5 52.7H3.5L1.5 49.9V49.4H3.5H60.6H62.5Z" fill="currentcolor"/>
<path d="M9.8999 37.9V43.4H7.8999V44.9H28.3999V43.4H26.3999V36H24.8999V43.4H21.3999V28.6H19.8999V43.4H16.3999V33.3H14.8999V43.4H11.3999V37.9H9.8999Z" fill="currentcolor"/>
</svg>
