<svg viewBox="0 0 64 64" fill="none" xmlns="http://www.w3.org/2000/svg">
<g clip-path="url(#clip0_10_1169)">
<path d="M54.5 44.3C52.3 44.3 50.3 45.1 48.6 46.3L42 39.7C43.6 37.6 44.6 34.9 44.6 32C44.6 29.1 43.6 26.5 42 24.3L48.7 17.6C50.3 18.9 52.3 19.6 54.6 19.6C59.8 19.6 64.1 15.3 64.1 10.1C64.1 4.89998 59.8 0.599976 54.6 0.599976C49.3 0.699976 45 4.99998 45 10.2C45 12.7 46 15 47.5 16.6L41 23.2C38.7 20.8 35.5 19.4 32 19.4C28.6 19.4 25.5 20.8 23.2 23L16.6 16.4C18 14.7 18.9 12.6 18.9 10.2C18.9 4.99998 14.6 0.699976 9.4 0.699976C4.3 0.699976 0 4.99998 0 10.2C0 15.4 4.3 19.7 9.5 19.7C11.8 19.7 14 18.9 15.6 17.5L22.2 24.1C20.4 26.3 19.4 29 19.4 32C19.4 35 20.5 37.8 22.2 39.9L15.6 46.5C13.9 45.1 11.8 44.3 9.5 44.3C4.3 44.3 0 48.6 0 53.8C0 59 4.3 63.3 9.5 63.3C14.7 63.3 19 59 19 53.8C19 51.4 18.1 49.3 16.7 47.6L23.3 41C25.6 43.2 28.7 44.6 32.1 44.6C35.6 44.6 38.8 43.1 41.1 40.8L47.7 47.4C46 49 45 51.3 45 53.8C45 59 49.3 63.3 54.5 63.3C59.7 63.3 64 59 64 53.8C64 48.6 59.7 44.3 54.5 44.3ZM60.1 16C58.7 17.4 56.7 18.3 54.5 18.3C52.3 18.3 50.4 17.4 48.9 16V14.5C48.9 14 49.2 13.5 49.6 13.2L52.5 11.4C53.7 12.2 55.5 12.1 56.5 11.4L59.4 13.2C59.8 13.5 60.1 13.9 60.1 14.5V16ZM52.3 8.19998C52.3 6.99998 53.3 5.99998 54.5 5.99998C55.8 6.09998 56.7 6.79998 56.7 8.19998C56.7 8.79998 56.4 9.49998 55.9 9.89997C54.4 11.2 52.2 9.99998 52.3 8.19998ZM47.5 14.1C46.9 12.9 46.5 11.6 46.5 10.2C46.5 5.79997 50.1 2.19998 54.5 2.19998C58.9 2.19998 62.5 5.79997 62.5 10.2C62.5 11.6 62.1 12.9 61.5 14.1C61.4 13.2 60.9 12.4 60.2 11.9L57.6 10.3C58 9.69998 58.2 8.99998 58.2 8.19998C58.2 6.09998 56.7 4.59998 54.5 4.49998C52.5 4.49998 50.8 6.19998 50.8 8.19998C50.8 8.89998 51 9.69998 51.4 10.3L48.8 11.9C48.1 12.4 47.6 13.2 47.5 14.1ZM15.1 16C13.7 17.4 11.7 18.3 9.5 18.3C7.3 18.3 5.4 17.4 3.9 16V14.5C3.9 14 4.2 13.5 4.6 13.2L7.5 11.4C8.8 12.2 10.5 12.1 11.5 11.4L14.4 13.2C14.8 13.5 15.1 13.9 15.1 14.5V16ZM7.2 8.19998C7.2 6.99998 8.2 5.99998 9.5 5.99998C10.7 5.99998 11.7 6.79998 11.7 8.19998C11.7 8.79998 11.4 9.49998 10.9 9.89997C10.3 10.4 9.4 10.6 8.7 10.3C7.8 9.89998 7.3 9.29998 7.2 8.19998ZM15.1 11.9L12.5 10.3C13 9.69998 13.2 8.99998 13.2 8.19998C13.2 7.49998 13 6.79998 12.7 6.29998C12.4 5.69998 11.9 5.29998 11.3 4.99998C10.8 4.69998 10.2 4.59998 9.6 4.59998C7.6 4.59998 5.9 6.29998 5.9 8.29998C5.8 8.99998 6 9.69998 6.4 10.3L3.8 11.9C3 12.4 2.5 13.2 2.5 14.1C1.9 12.9 1.5 11.6 1.5 10.2C1.5 5.79997 5.1 2.19998 9.5 2.19998C13.9 2.19998 17.5 5.79997 17.5 10.2C17.5 11.6 17.1 12.9 16.5 14.1C16.4 13.2 15.9 12.4 15.1 11.9ZM15.1 59.5C13.7 60.9 11.7 61.8 9.5 61.8C7.3 61.8 5.4 60.9 3.9 59.5V58C3.9 57.5 4.2 57 4.6 56.7L7.5 54.9C7.5 54.9 7.5 54.9 7.6 54.9C8.9 55.7 10.5 55.6 11.5 54.9C11.5 54.9 11.5 54.9 11.6 54.9L14.5 56.7C14.9 57 15.2 57.4 15.2 58V59.5H15.1ZM7.2 51.8C7.2 50.6 8.2 49.6 9.4 49.6C10.5 49.6 11.6 50.4 11.6 51.8C11.6 52.4 11.3 53.1 10.8 53.5C9.7 54.5 7.4 54.1 7.2 51.8ZM17.5 53.8C17.5 55.2 17.1 56.5 16.5 57.7C16.4 56.8 15.9 56 15.2 55.5L12.6 53.9C13 53.3 13.2 52.6 13.2 51.8C13.1 49.6 11.6 48.1 9.5 48.1C7.5 48.1 5.8 49.8 5.8 51.8C5.8 52.5 6 53.3 6.4 53.9L3.8 55.5C3 56 2.5 56.8 2.5 57.7C1.9 56.5 1.5 55.2 1.5 53.8C1.5 49.4 5.1 45.8 9.5 45.8C13.9 45.8 17.5 49.4 17.5 53.8ZM32 43.1C25.9 43.1 20.9 38.1 20.9 32C20.9 25.9 25.9 20.9 32 20.9C38.1 20.9 43.1 25.9 43.1 32C43.1 38.1 38.1 43.1 32 43.1ZM60.1 59.5C58.7 60.9 56.7 61.8 54.5 61.8C52.3 61.8 50.4 60.9 48.9 59.5V58C48.9 57.5 49.2 57 49.6 56.7L52.5 54.9C52.5 54.9 52.5 54.9 52.6 54.9C53.9 55.6 55.2 55.6 56.5 54.9C56.5 54.9 56.5 54.9 56.6 54.9L59.5 56.7C59.9 57 60.2 57.4 60.2 58V59.5H60.1ZM52.3 51.8C52.3 50.6 53.3 49.6 54.5 49.6C55.9 49.7 56.6 50.5 56.7 51.8C56.5 53.5 55.3 54.3 53.7 53.9C52.8 53.4 52.3 52.7 52.3 51.8ZM61.5 57.7C61.4 56.8 60.9 56 60.2 55.5L57.6 53.9C58 53.3 58.2 52.6 58.2 51.8C58.2 49.5 56.4 48.1 54.5 48.1C52.5 48.1 50.8 49.8 50.8 51.8C50.8 52.5 51 53.3 51.4 53.9L48.8 55.5C48 56 47.5 56.8 47.5 57.7C46.9 56.5 46.5 55.2 46.5 53.8C46.5 49.4 50.1 45.8 54.5 45.8C58.9 45.8 62.5 49.4 62.5 53.8C62.5 55.2 62.2 56.5 61.5 57.7Z" fill="currentcolor"/>
<path d="M34 27.4C34.5 27.8 34.8 28.4 34.8 29H36.3C36.3 28 35.8 27 35 26.3C34.4 25.8 33.6 25.5 32.8 25.3V22.8H31.3V25.3C30.5 25.4 29.7 25.7 29.1 26.3C28.2 27 27.8 28 27.8 29C27.8 30 28.3 31 29.1 31.7C29.9 32.4 30.9 32.8 32 32.8C32.7 32.8 33.5 33 34 33.5C34.5 33.9 34.8 34.5 34.8 35.1C34.8 35.7 34.5 36.2 34 36.7C33 37.6 31.1 37.6 30.1 36.7C29.6 36.3 29.3 35.7 29.3 35.1H27.8C27.8 36.1 28.3 37.1 29.1 37.8C29.7 38.3 30.5 38.7 31.3 38.8V41.3H32.8V38.8C33.6 38.7 34.4 38.3 35 37.8C35.8 37.1 36.3 36.1 36.3 35.1C36.3 34.1 35.8 33.1 35 32.4C34.2 31.7 33.2 31.3 32.1 31.3C31.3 31.3 30.7 31.1 30.1 30.6C29.6 30.2 29.3 29.6 29.3 29C29.3 28.4 29.6 27.9 30.1 27.4C31.1 26.5 32.9 26.5 34 27.4Z" fill="currentcolor"/>
</svg>
