<svg viewBox="0 0 64 64" fill="none" xmlns="http://www.w3.org/2000/svg">
<path d="M30.2999 23.8H3.19995V34.3H30.2999V23.8ZM28.7999 32.9H4.59995V25.3H28.7999V32.9Z" fill="currentcolor"/>
<path d="M13.1 52.9H6.30005V54.4H13.1V52.9Z" fill="currentcolor"/>
<path d="M24.6 55.6H23V57.1H24.6V55.6Z" fill="currentcolor"/>
<path d="M27.1999 52.9H20.3999V54.4H27.1999V52.9Z" fill="currentcolor"/>
<path d="M24.6 50.2H23V51.7H24.6V50.2Z" fill="currentcolor"/>
<path d="M10.4 38.7H8.90005V41.4H6.30005V42.9H8.90005V45.5H10.4V42.9H13.1V41.4H10.4V38.7Z" fill="currentcolor"/>
<path d="M21.9 45L23.8 43.2L25.6 45L26.7001 44L24.8 42.0999L26.7001 40.2L25.6 39.2L23.8 41.0999L21.9 39.2L20.8 40.2L22.7001 42.0999L20.8 44L21.9 45Z" fill="currentcolor"/>
<path d="M64.0001 17.4L63.8001 16.7C63.1001 13.3 61.7001 10.5 59.3001 7.89998C55.7001 3.89998 50.6001 1.59998 45.2001 1.59998C40.5001 1.59998 36.0001 3.29998 32.5001 6.49998L32.1001 6.99998L45.1001 21.4L64.0001 17.4ZM45.3001 3.09998C50.3001 3.09998 55.0001 5.19998 58.3001 8.89998C60.3001 11.1 61.5001 13.4 62.2001 16.3L45.5001 19.8L34.1001 7.19998C37.3001 4.59998 41.2001 3.09998 45.3001 3.09998Z" fill="currentcolor"/>
<path d="M62.6 20.4L62.4 19.7L44.3 23.6L31.9 9.79999C28.6 12.7 26.3 16.2 25.5 20.6H0V62.4H33.4V40.1C35.4 41.3 37.3 42.3 38.8 42.6C43.2 43.8 47.4 43.6 51.5 41.7C55.1 40.3 58.1 37.5 60.5 33.6C61.6 31.6 62.3 29.5 62.7 27.1C63.1 24.9 63 22.7 62.6 20.4ZM32 60.9H1.5V22H32V60.9ZM37.9 40.8C36.3 40.2 34.8 39.4 33.4 38.3V20.5H26.9C27 20 28.4 14.5 31.7 11.8L43.1 24.5L37.9 40.8ZM39.3 41.3L40.3 38.3L43.6 42C42.2 41.9 40.8 41.7 39.3 41.3ZM47.7 41.5C47 41.7 46.3 41.8 45.6 41.8L40.9 36.6L42 33.2L49.1 41.1C48.6 41.3 48.1 41.4 47.7 41.5ZM50.5 40.6L42.4 31.6L43.5 28.2L53.3 39.1C52.5 39.7 51.5 40.2 50.5 40.6ZM54.6 38.4L44 26.7L44.5 25L46.2 24.6L56.7 36.3C56.1 37.1 55.4 37.8 54.6 38.4ZM57.8 35.2L48 24.3L51.4 23.6L59.5 32.6C59 33.4 58.4 34.3 57.8 35.2ZM60.2 31.1L53.1 23.2L56.5 22.5L61.2 27.7C61 28.8 60.6 30 60.2 31.1ZM61.5 25.8L58.2 22.1L61.3 21.4C61.5 22.9 61.6 24.3 61.5 25.8Z" fill="currentcolor"/>
</svg>
