<svg viewBox="0 0 64 64" fill="none" xmlns="http://www.w3.org/2000/svg">
<path d="M22.1998 6.29998C21.3998 7.09998 20.6998 8.09998 20.2998 9.19998L21.6998 9.69998C21.9998 8.89998 22.5998 7.99998 23.1998 7.39998C24.3998 6.19998 25.9998 5.49998 27.7998 5.49998C29.2998 5.49998 30.7998 5.99998 31.9998 6.99998L32.8998 5.89998C31.4998 4.69998 29.6998 3.99998 27.7998 3.99998C25.6998 3.99998 23.6998 4.79998 22.1998 6.29998Z" fill="currentcolor"/>
<path d="M63.9 23L63.8 22.7C62.9 18.5 59.2 15.4 54.8 15.4H53.6C53.2 10.7 49.3 6.99999 44.5 6.99999C42.5 6.99999 40.7 7.69999 39.1 8.79999C37.7 3.69999 33.1 0.0999908 27.7 0.0999908C21.5 0.0999908 16.5 4.79999 15.9 10.8C14.6 10.3 13.2 9.99999 11.7 9.99999C5.3 9.99999 0 15.4 0 21.9C0 28.4 5.3 33.7 11.8 33.7H15.2C13.3 36.7 12.2 40.3 12.2 44.2C12.2 55.1 21.1 63.9 32 63.9C42.9 63.9 51.7 55 51.7 44.1C51.7 40.3 50.6 36.7 48.7 33.7H54.8C59.9 33.7 64 29.6 64 24.5C64 24 64 23.5 63.9 23ZM32 25.9C35.1 25.9 37.8 30.6 39 37.1H25C25.4 34.9 26 32.8 26.8 31.1C28.2 27.8 30.1 25.9 32 25.9ZM35.9 26.3C41.7 27.6 46.5 31.6 48.8 37H40.5C39.7 32.3 38 28.5 35.9 26.3ZM39.6 44.2C39.6 46.2 39.5 48.1 39.2 49.9H24.7C24.4 48.1 24.3 46.2 24.3 44.2C24.3 42.2 24.4 40.3 24.7 38.5H39.2C39.5 40.3 39.6 42.2 39.6 44.2ZM32 62.5C28.9 62.5 26.2 57.8 25 51.3H39C37.8 57.8 35.1 62.5 32 62.5ZM25.4 30.4C24.6 32.3 23.9 34.6 23.5 37H15.2C17.5 31.6 22.3 27.6 28.1 26.3C27.1 27.3 26.2 28.7 25.4 30.4ZM14.6 38.5H23.3C23.1 40.3 22.9 42.2 22.9 44.2C22.9 46.2 23 48.1 23.3 49.9H14.6C14 48.1 13.7 46.2 13.7 44.2C13.7 42.2 14 40.3 14.6 38.5ZM15.2 51.3H23.5C24.3 56.1 26 59.9 28.1 62C22.3 60.7 17.5 56.7 15.2 51.3ZM36 62C38.1 59.9 39.7 56 40.5 51.3H48.8C46.6 56.7 41.8 60.7 36 62ZM49.4 49.8H40.7C40.9 48 41.1 46.1 41.1 44.1C41.1 42.1 41 40.2 40.7 38.4H49.4C50 40.2 50.3 42.1 50.3 44.1C50.3 46.1 50 48 49.4 49.8ZM54.8 32.3H47.7C44.1 27.5 38.4 24.5 32 24.5C25.6 24.5 19.9 27.6 16.3 32.3H11.9C6.2 32.3 1.5 27.6 1.5 21.9C1.5 16.2 6.2 11.5 11.9 11.5C13.3 11.5 14.7 11.8 16 12.4C16 13.5 16.2 14.6 16.6 15.6L18 15.1C17.7 14.1 17.5 13 17.5 11.9C17.5 6.19999 22.2 1.49999 27.9 1.49999C32.9 1.49999 37.1 4.99999 38.1 9.89999C37.4 10.6 36.8 11.5 36.4 12.4L37.7 13C38.9 10.2 41.7 8.49999 44.7 8.49999C48.9 8.49999 52.3 11.9 52.3 16.1V16.8H54.9C58.5 16.8 61.7 19.4 62.4 22.9V23.2C62.5 23.6 62.5 24.1 62.5 24.5C62.5 28.8 59.1 32.3 54.8 32.3Z" fill="currentcolor"/>
</svg>
