<svg viewBox="0 0 64 64" fill="none" xmlns="http://www.w3.org/2000/svg">
<path d="M54.9001 32.5C53.3001 32.5 52.0001 33.8 52.0001 35.4C52.0001 35.9 52.2001 36.4 52.4001 36.9L45.7001 43.6C45.3001 43.3 44.7001 43.2 44.2001 43.2C42.8001 43.2 41.7001 44.1 41.4001 45.5H35.3001C35.0001 44.2 33.8001 43.2 32.5001 43.2C30.9001 43.2 29.6001 44.5 29.6001 46.1C29.6001 46.6 29.8001 47.2 30.0001 47.6L23.0001 54.6C22.6001 54.3 22.0001 54.2 21.5001 54.2C19.9001 54.2 18.6001 55.5 18.6001 57.1C18.6001 58.7 19.9001 60 21.5001 60C23.1001 60 24.4001 58.7 24.4001 57.1C24.4001 56.6 24.2001 56.1 24.0001 55.7L31.0001 48.7C31.4001 49 31.9001 49.1 32.5001 49.1C33.8001 49.1 34.9001 48.2 35.3001 46.9H41.4001C41.7001 48.1 42.9001 49.1 44.2001 49.1C45.8001 49.1 47.1001 47.8 47.1001 46.2C47.1001 45.7 46.9001 45.2 46.7001 44.7L53.4001 38C53.8001 38.3 54.3001 38.4 54.9001 38.4C56.5001 38.4 57.8001 37.1 57.8001 35.5C57.8001 33.8 56.5001 32.5 54.9001 32.5ZM21.5001 58.6C20.7001 58.6 20.0001 57.9 20.0001 57.1C20.0001 56.3 20.7001 55.6 21.5001 55.6C22.3001 55.6 23.0001 56.3 23.0001 57.1C22.9001 57.9 22.3001 58.6 21.5001 58.6ZM32.4001 47.6C31.6001 47.6 31.1001 47.1 30.9001 46.1C30.9001 45.3 31.6001 44.6 32.4001 44.6C33.2001 44.6 33.9001 45.3 33.9001 46.1C33.9001 46.9 33.2001 47.6 32.4001 47.6ZM44.2001 47.6C43.4001 47.6 42.7001 47 42.7001 46.1C42.7001 45.3 43.4001 44.6 44.2001 44.6C44.6001 44.6 45.7001 45 45.7001 46.1C45.7001 46.9 45.0001 47.6 44.2001 47.6ZM54.9001 36.9C54.1001 36.9 53.4001 36.2 53.4001 35.4C53.4001 34.6 54.1001 33.9 54.9001 33.9C55.7001 33.9 56.4001 34.6 56.4001 35.4C56.4001 36.2 55.7001 36.9 54.9001 36.9Z" fill="currentcolor"/>
<path d="M54.9001 0H12.9001V5.9C9.40008 6.7 6.10008 9.8 6.10008 9.8L16.5001 21.4L31.8001 18.2C31.8001 18.2 31.0001 13.1 28.1001 10.5C22.2001 4.2 15.2001 5.5 14.4001 5.7V1.5H53.9001V9.6H62.0001V62.6H14.4001V38.7C18.0001 39 21.2001 38.1 23.9001 36.3C27.4001 34 29.4001 30.9 30.4001 27.4L30.5001 27.5C31.1001 24.8 31.1001 22.1 30.5001 19.6L16.0001 22.8L6.10008 11.8C6.10008 11.8 2.70008 14.4 1.30008 18.9C0.100078 22.8 0.400078 26.9 2.20008 30.5C3.90008 33.9 6.80008 36.4 10.4001 37.8C11.4001 38.1 12.3001 38.3 12.9001 38.5V64H63.4001V8.5L54.9001 0ZM16.8001 6.9C20.7001 6.9 24.4001 8.6 27.0001 11.4C28.5001 13.1 29.5001 14.9 30.1001 17L17.1001 19.8L8.10008 9.9C10.6001 8 13.6001 6.9 16.8001 6.9ZM55.4001 8.1V2.5L61.0001 8.1H55.4001ZM18.6001 37C18.1001 37.1 17.5001 37.2 17.0001 37.3L16.5001 36.7L13.4001 33.3L14.2001 31L15.5001 32.4L19.5001 36.8C19.2001 36.9 18.9001 37 18.6001 37ZM29.3001 21.5C29.4001 22.4 29.5001 23.4 29.4001 24.4L28.3001 23L27.3001 21.8L29.3001 21.5ZM25.6001 22.2L27.6001 24.4L29.2001 26.2C29.0001 27 28.8001 27.8 28.5001 28.6L23.2001 22.7L25.6001 22.2ZM21.6001 23.1L27.9001 30.1C27.6001 30.7 27.2001 31.4 26.7001 31.9L19.2001 23.6L21.6001 23.1ZM16.3001 24.2L17.5001 23.9L25.7001 33C25.2001 33.5 24.7001 34 24.1001 34.4L15.9001 25.3L16.3001 24.2ZM22.9001 35.3C22.3001 35.7 21.6001 36 20.9001 36.3L14.6001 29.3L15.4001 27L22.9001 35.3ZM3.50008 29.9C1.80008 26.6 1.50008 22.9 2.60008 19.4C3.30008 17.2 4.30008 15.5 5.90008 13.9L14.8001 23.8L10.7001 36.4C7.70008 35.2 5.10008 32.9 3.50008 29.9ZM12.2001 36.9L12.8001 34.9L15.0001 37.4C14.2001 37.3 13.2001 37.1 12.2001 36.9Z" fill="currentcolor"/>
<path d="M51.2001 15.6H37.6001V17.1H51.2001V15.6Z" fill="currentcolor"/>
<path d="M56.5001 20.1H37.6001V21.6H56.5001V20.1Z" fill="currentcolor"/>
<path d="M56.5001 24.7H37.6001V26.2H56.5001V24.7Z" fill="currentcolor"/>

</svg>
