<svg viewBox="0 0 64 64" fill="none" xmlns="http://www.w3.org/2000/svg">
<path d="M50.6998 5.34058e-05H13.2998C11.6998 5.34058e-05 10.2998 1.30005 10.2998 3.00005V61.0001C10.2998 62.6001 11.5998 64.0001 13.2998 64.0001H50.7998C52.3998 64.0001 53.7998 62.7001 53.7998 61.0001V3.00005C53.6998 1.30005 52.3998 5.34058e-05 50.6998 5.34058e-05ZM13.2998 1.50005H50.7998C51.5998 1.50005 52.2998 2.20005 52.2998 3.00005V8.00005H11.7998V3.00005C11.7998 2.10005 12.3998 1.50005 13.2998 1.50005ZM52.1998 9.50005V55.6001H11.7998V9.50005H52.1998ZM50.6998 62.5001H13.2998C12.4998 62.5001 11.7998 61.8001 11.7998 61.0001V57.0001H52.1998V61.0001C52.1998 61.9001 51.5998 62.5001 50.6998 62.5001Z" fill="currentcolor"/>
<path d="M36.5999 58.8H27.3999V60.3H36.5999V58.8Z" fill="currentcolor"/>
<path d="M33.0999 4.00005H23.8999V5.50005H33.0999V4.00005Z" fill="currentcolor"/>
<path d="M36.5 4.00005H35V5.50005H36.5V4.00005Z" fill="currentcolor"/>
<path d="M39.3999 4.00005H37.8999V5.50005H39.3999V4.00005Z" fill="currentcolor"/>
<path d="M24.3997 13.2001H14.1997V21.2001H24.3997V13.2001ZM22.8997 19.6001H15.5997V14.6001H22.8997V19.6001Z" fill="currentcolor"/>
<path d="M37.0999 13.2001H26.8999V21.2001H37.0999V13.2001ZM35.5999 19.6001H28.2999V14.6001H35.5999V19.6001Z" fill="currentcolor"/>
<path d="M49.7996 13.2001H39.5996V21.2001H49.7996V13.2001ZM48.3996 19.6001H41.0996V14.6001H48.3996V19.6001Z" fill="currentcolor"/>
<path d="M24.3997 23.6001H14.1997V31.6001H24.3997V23.6001ZM22.8997 30.1001H15.5997V25.1001H22.8997V30.1001Z" fill="currentcolor"/>
<path d="M37.0999 23.6001H26.8999V31.6001H37.0999V23.6001ZM35.5999 30.1001H28.2999V25.1001H35.5999V30.1001Z" fill="currentcolor"/>
<path d="M24.3997 52.6001V44.6001H14.1997V52.6001H24.3997ZM15.5997 46.1001H22.8997V51.1001H15.5997V46.1001Z" fill="currentcolor"/>
<path d="M37.0999 44.6001H26.8999V52.6001H37.0999V44.6001ZM35.5999 51.1001H28.2999V46.1001H35.5999V51.1001Z" fill="currentcolor"/>
<path d="M49.7996 44.6001H39.5996V52.6001H49.7996V44.6001ZM48.3996 51.1001H41.0996V46.1001H48.3996V51.1001Z" fill="currentcolor"/>
</svg>
