<svg viewBox="0 0 64 64" fill="none" xmlns="http://www.w3.org/2000/svg">

<path d="M44.2 57.9001V34.9001H3.4V57.9001H0V61.2001L2.1 63.5001H45.4L47.5 61.2001V57.9001H44.2ZM4.9 36.4001H42.8V57.9001H4.9V36.4001ZM46.1 60.6001L44.8 62.0001H2.8L1.5 60.6001V59.4001H46.2V60.6001H46.1Z" fill="currentcolor"/>
<path d="M43.8999 0.500053V29.7001H63.9999V0.500053H43.8999ZM62.4999 28.3001H45.3999V25.1001H62.4999V28.3001ZM62.4999 23.6001H45.3999V5.60005H62.4999V23.6001ZM62.4999 4.10005H45.3999V2.00005H62.4999V4.10005Z" fill="currentcolor"/>
<path d="M55.4998 26.0001H52.2998V27.5001H55.4998V26.0001Z" fill="currentcolor"/>
<path d="M59.3999 39.8H57.8999V41.4001H59.3999V39.8Z" fill="currentcolor"/>
<path d="M59.3999 32.1001H57.8999V33.7001H59.3999V32.1001Z" fill="currentcolor"/>
<path d="M59.3999 43.6001H57.8999V45.2001H59.3999V43.6001Z" fill="currentcolor"/>
<path d="M59.3999 47.5001H57.8999V49.1001H59.3999V47.5001Z" fill="currentcolor"/>
<path d="M59.3999 35.9001H57.8999V37.5001H59.3999V35.9001Z" fill="currentcolor"/>
<path d="M59.3999 51.4001H57.8999V52.9001H59.3999V51.4001Z" fill="currentcolor"/>
<path d="M55.7001 51.4001H54.1001V52.9001H55.7001V51.4001Z" fill="currentcolor"/>
<path d="M48.1 51.4001H46.5V52.9001H48.1V51.4001Z" fill="currentcolor"/>
<path d="M51.8998 51.4001H50.2998V52.9001H51.8998V51.4001Z" fill="currentcolor"/>
<path d="M23.3999 9.00005H21.8999V10.5001H23.3999V9.00005Z" fill="currentcolor"/>
<path d="M27 9.00005H25.5V10.5001H27V9.00005Z" fill="currentcolor"/>
<path d="M19.7002 9.00005H18.2002V10.5001H19.7002V9.00005Z" fill="currentcolor"/>
<path d="M16 9.00005H14.5V10.5001H16V9.00005Z" fill="currentcolor"/>
<path d="M41.7002 9.00005H40.2002V10.5001H41.7002V9.00005Z" fill="currentcolor"/>
<path d="M30.7002 9.00005H29.2002V10.5001H30.7002V9.00005Z" fill="currentcolor"/>
<path d="M38.1001 9.00005H36.6001V10.5001H38.1001V9.00005Z" fill="currentcolor"/>
<path d="M34.3999 9.00005H32.8999V10.5001H34.3999V9.00005Z" fill="currentcolor"/>
<path d="M12.2998 9.00005H10.7998V10.5001H12.2998V9.00005Z" fill="currentcolor"/>
<path d="M12.2998 16.4001H10.7998V17.9001H12.2998V16.4001Z" fill="currentcolor"/>
<path d="M12.2998 27.5001H10.7998V29.0001H12.2998V27.5001Z" fill="currentcolor"/>
<path d="M12.2998 31.2001H10.7998V32.7001H12.2998V31.2001Z" fill="currentcolor"/>
<path d="M12.2998 12.7001H10.7998V14.2001H12.2998V12.7001Z" fill="currentcolor"/>
<path d="M12.2998 23.8H10.7998V25.3H12.2998V23.8Z" fill="currentcolor"/>
<path d="M12.2998 20.1001H10.7998V21.6001H12.2998V20.1001Z" fill="currentcolor"/>
</svg>
