<svg viewBox="0 0 64 64" fill="none" xmlns="http://www.w3.org/2000/svg">
<path d="M31.9998 11.1L32.8998 9.99998C31.4998 8.79998 29.6998 8.09998 27.7998 8.09998C25.6998 8.09998 23.6998 8.89997 22.1998 10.4C21.3998 11.2 20.6998 12.2 20.2998 13.3L21.6998 13.8C21.9998 12.9 22.4998 12.1 23.1998 11.4C24.3998 10.2 25.9998 9.49998 27.7998 9.49998C29.2998 9.49998 30.7998 10.1 31.9998 11.1Z" fill="currentcolor"/>
<path d="M64 28.6C64 28.1 64 27.6 63.9 27.1L63.8 26.8C62.9 22.6 59.2 19.5 54.8 19.5H53.6C53.2 14.8 49.3 11.1 44.5 11.1C42.5 11.1 40.7 11.8 39.1 12.9C37.7 7.79998 33.1 4.19998 27.7 4.19998C21.5 4.19998 16.5 8.89998 15.9 14.9C14.6 14.4 13.2 14.1 11.7 14.1C5.3 14.1 0 19.4 0 26C0 32.6 5.3 37.8 11.8 37.8H26.7C26.5 38.3 26.4 38.9 26.3 39.5L23.3 40.1L23.4 44.7L26.4 45.3C26.8 47.2 27.6 49 28.7 50.7L27 53.2L30.3 56.4L32.8 54.7C34.4 55.8 36.3 56.5 38.2 56.9L38.8 59.9L43.4 59.8L44 56.8C45.9 56.4 47.7 55.6 49.4 54.5L52 56.2L55.2 52.9L53.5 50.4C54.6 48.8 55.3 46.9 55.7 45L58.7 44.4L58.6 39.8L55.6 39.2C55.5 38.8 55.4 38.3 55.2 37.9C60.5 37.4 64 33.8 64 28.6ZM57.1 40.9V43.1L54.3 43.7C53.9 46.2 53.1 48.4 51.7 50.3L53.3 52.7L51.8 54.3L49.4 52.7C47.5 54.2 45.4 55.1 42.8 55.5L42.3 58.3H40.1L39.5 55.5C37.2 55.2 35 54.4 32.9 52.9L30.5 54.5L28.9 53L30.5 50.6C29 48.6 28.1 46.4 27.7 44L24.9 43.5V41.3L27.7 40.7C28.1 38.1 29 35.9 30.3 34.1L28.7 31.7L30.2 30.1L32.6 31.7C34.7 30.1 36.9 29.2 39.2 28.9L39.7 26.1H41.9L42.5 28.9C45 29.2 47.2 30.1 49.1 31.5L51.5 29.9L53.1 31.4L51.5 33.8C53 35.8 54 38 54.3 40.4L57.1 40.9ZM54.6 36.3C54.2 35.4 53.7 34.5 53.2 33.7L54.9 31.1L51.6 28L49.1 29.7C47.5 28.6 45.6 27.9 43.7 27.5L43.1 24.5L38.5 24.6L37.9 27.6C36 28 34.2 28.8 32.5 29.9L29.9 28.2L26.7 31.5L28.4 34C27.9 34.7 27.5 35.5 27.2 36.3H11.8C6.1 36.3 1.5 31.7 1.5 26C1.5 20.3 6.2 15.6 11.9 15.6C13.3 15.6 14.7 15.9 16 16.5C16 17.6 16.2 18.7 16.6 19.7L18 19.2C17.7 18.2 17.5 17.1 17.5 16C17.5 10.3 22.2 5.59998 27.9 5.59998C32.9 5.59998 37.1 9.09998 38.1 14C37.4 14.7 36.8 15.6 36.4 16.5L37.7 17.1C38.9 14.3 41.7 12.6 44.7 12.6C48.9 12.6 52.3 16 52.3 20.2V21H54.9C58.5 21 61.7 23.6 62.4 27.1V27.4C62.5 27.8 62.5 28.3 62.5 28.7C62.5 33.1 59.4 36.1 54.6 36.3Z" fill="currentcolor"/>
<path d="M40.8999 32.4C38.1999 32.4 35.6999 33.5 33.8999 35.4C30.0999 39.3 30.1999 45.5 34.0999 49.3C35.8999 51.1 38.3999 52.1 40.9999 52.1C43.6999 52.1 46.1999 51 47.9999 49.1C49.7999 47.2 50.7999 44.7 50.7999 42.1C50.7999 39.5 49.6999 37 47.7999 35.2C45.9999 33.4 43.4999 32.4 40.8999 32.4ZM46.8999 48C45.2999 49.6 43.1999 50.5 40.8999 50.5C38.6999 50.5 36.5999 49.7 35.0999 48.1C31.7999 44.9 31.6999 39.6 34.9999 36.3C36.5999 34.7 38.6999 33.8 40.9999 33.8C43.1999 33.8 45.2999 34.6 46.7999 36.2C48.3999 37.8 49.2999 39.8 49.2999 42.1C49.2999 44.3 48.4999 46.4 46.8999 48Z" fill="currentcolor"/>
</svg>
