<svg viewBox="0 0 64 64" fill="none" xmlns="http://www.w3.org/2000/svg">
<path d="M63.9 44.6V44.4C63.4 42 61.3 40.3 58.8 40.3H58.5C58.1 37.8 56 35.9 53.4 35.9C52.4 35.9 51.5 36.2 50.8 36.6C49.9 34 47.4 32.2 44.6 32.2C41.3 32.2 38.6 34.6 38.1 37.8C37.5 37.6 36.8 37.5 36.2 37.5H36.1V9.19999C36.1 5.29999 26.8 3.19999 18.1 3.19999C9.4 3.19999 0 5.29999 0 9.19999V40.8C0 44.6 8.8 46.7 17.3 46.8V51.6L9.1 59.8L10.1 60.8L17.3 53.6V60.1H18.8V53.6L26 60.8L27 59.8L18.8 51.6V46.8C22.9 46.7 26.7 46.3 29.7 45.4C30.4 48.4 33 50.6 36.1 50.6H58.8C61.7 50.6 64 48.3 64 45.4C64 45.2 64 44.9 63.9 44.6ZM18 4.69999C28.2 4.69999 34.5 7.29999 34.5 9.19999C34.5 11.1 28.2 13.7 18 13.7C7.8 13.7 1.5 11.1 1.5 9.19999C1.5 7.29999 7.8 4.69999 18 4.69999ZM1.5 11.7C4.4 14 11.4 15.2 18 15.2C24.6 15.2 31.6 14 34.5 11.7V19.8C34.5 21.7 28.2 24.3 18 24.3C7.8 24.3 1.5 21.6 1.5 19.7V11.7ZM1.5 22.2C4.4 24.5 11.4 25.7 18 25.7C24.6 25.7 31.6 24.5 34.5 22.2V30.3C34.5 32.2 28.2 34.8 18 34.8C7.8 34.8 1.5 32.2 1.5 30.3V22.2ZM1.5 40.8V32.7C4.4 35 11.4 36.2 18 36.2C24.6 36.2 31.6 35 34.5 32.7V37.6C31.6 38.3 29.5 40.9 29.5 43.9C26.4 44.8 22.3 45.3 18 45.3C7.8 45.4 1.5 42.7 1.5 40.8ZM58.8 49.2H36.1C33.3 49.2 31 46.9 31 44.1C31 41.3 33.3 39 36.1 39C36.7 39 37.4 39.1 38 39.4C38 39.9 38.1 40.5 38.3 41L39.7 40.5C39.5 40 39.4 39.4 39.4 38.9C39.4 36.1 41.7 33.8 44.5 33.8C46.9 33.8 49 35.5 49.5 37.8C49.2 38.2 48.9 38.6 48.7 39.1L50 39.7C50.6 38.4 51.9 37.5 53.4 37.5C55.4 37.5 57.1 39.2 57.1 41.2V41.9H58.8C60.6 41.9 62.1 43.1 62.4 44.8V44.9C62.4 45.1 62.5 45.3 62.5 45.5C62.5 47.5 60.9 49.2 58.8 49.2Z" fill="currentcolor"/>
</svg>
