<svg viewBox="0 0 64 64" fill="none" xmlns="http://www.w3.org/2000/svg">
<path d="M22.1998 12.1C21.3998 12.9 20.6998 13.9 20.2998 15L21.6998 15.5C21.9998 14.6 22.4998 13.8 23.1998 13.1C24.3998 11.9 25.9998 11.2 27.7998 11.2C29.2998 11.2 30.7998 11.7 31.9998 12.7L32.8998 11.6C31.4998 10.4 29.6998 9.69998 27.7998 9.69998C25.6998 9.79998 23.6998 10.6 22.1998 12.1Z" fill="currentcolor"/>
<path d="M63.9 28.8L63.8 28.5C62.9 24.3 59.2 21.2 54.8 21.2H53.6C53.2 16.5 49.3 12.8 44.5 12.8C42.5 12.8 40.7 13.5 39.1 14.6C37.7 9.49998 33.1 5.89998 27.7 5.89998C21.5 5.89998 16.5 10.6 15.9 16.6C14.6 16.1 13.2 15.8 11.7 15.8C5.3 15.8 0 21.2 0 27.7C0 34.2 5.3 39.5 11.8 39.5H14.2V38H11.8C6.1 38 1.4 33.3 1.4 27.6C1.4 21.9 6.1 17.2 11.8 17.2C13.2 17.2 14.6 17.5 15.9 18.1C15.9 19.2 16.1 20.3 16.5 21.3L18 21C17.7 20 17.5 18.9 17.5 17.8C17.5 12.1 22.2 7.39998 27.9 7.39998C32.9 7.39998 37.1 10.9 38.1 15.8C37.4 16.5 36.8 17.4 36.4 18.3L37.7 18.9C38.9 16.1 41.7 14.4 44.7 14.4C48.9 14.4 52.3 17.8 52.3 22V22.7H54.9C58.5 22.7 61.7 25.3 62.4 28.8V29.1C62.5 29.5 62.5 30 62.5 30.4C62.5 34.6 59 38.1 54.8 38.1H47.4V39.6H54.8C59.9 39.6 64 35.5 64 30.4C64 29.8 64 29.3 63.9 28.8Z" fill="currentcolor"/>
<path d="M34.1999 19.9H32.7999V30.4H30.3999L35.4999 36.3L40.5999 30.4H38.1999V27.2H36.6999V31.9H37.3999L35.4999 34L33.5999 31.9H34.1999V19.9Z" fill="currentcolor"/>
<path d="M38.2002 24.2H36.7002V25.7H38.2002V24.2Z" fill="currentcolor"/>
<path d="M38.2002 21.5H36.7002V23H38.2002V21.5Z" fill="currentcolor"/>
<path d="M44.2002 58.1L50.3002 41.5H44.3002V37.6H32.4002L29.2002 34.7H17.2002V38.4V58.2H17.4002H44.2002V58.1ZM43.2002 56.7H19.4002L24.4002 43H48.2002L43.2002 56.7ZM18.6002 38.3V36.1H28.6002L31.8002 39H42.8002V41.4H23.4002L18.6002 54.5V38.3Z" fill="currentcolor"/>
</svg>
