<svg viewBox="0 0 64 64" fill="none" xmlns="http://www.w3.org/2000/svg">
<path d="M58.4 56.6V54.1H56.9V56.6H50.1V54.1H48.7V56.6H41.9V54.1H40.4V56.6H33.7V54.1H32.2V56.6H25.4V54.1H24V56.6H17.2V54.1H15.7V56.6H9V54.1H7.5V56.6H1.5V51.8H4V50.3H1.5V44H4V42.6H1.5V36.3H4V34.8H1.5V28.5H4V27H1.5V20.7H4V19.2H1.5V12.9H4V11.4H1.5V5.89998H0V58.1H64V56.6H58.4Z" fill="currentcolor"/>
<path d="M46.3999 49.2H53.6999V36H46.3999V49.2ZM47.8999 37.5H52.1999V47.7H47.8999V37.5Z" fill="currentcolor"/>
<path d="M22.8 49.2H30.1V21.7H22.8V49.2ZM24.3 23.2H28.6V47.7H24.3V23.2Z" fill="currentcolor"/>
<path d="M18.3 16.5H11V49.1H18.3V16.5ZM16.8 47.7H12.5V18H16.8V47.7Z" fill="currentcolor"/>
<path d="M34.6001 49.2H41.9001V28.7H34.6001V49.2ZM36.1001 30.2H40.4001V47.7H36.1001V30.2Z" fill="currentcolor"/>
<path d="M38 19.1L50.9 32H46.9V33.5H53.4V27H52V31L38.5999 17.6H26.6L15.2 6.19998L14.2 7.29998L26 19.1H38Z" fill="currentcolor"/>
</svg>
