<svg viewBox="0 0 64 64" fill="none" xmlns="http://www.w3.org/2000/svg">
<path d="M51.6002 23.4C54.5002 23.4 56.8002 21.1 56.8002 18.2V7.10004C56.8002 5.00004 55.1002 3.20004 52.9002 3.20004C50.8002 3.20004 49.0002 4.90004 49.0002 7.10004V18.2C49.0002 19.6 50.1002 20.7 51.5002 20.7C52.9002 20.7 54.0002 19.6 54.0002 18.2V7.50004H52.5002V18.2C52.5002 18.8 52.0002 19.3 51.4002 19.3C50.8002 19.3 50.3002 18.8 50.3002 18.2V7.10004C50.3002 5.80004 51.4002 4.70004 52.7002 4.70004C54.0002 4.70004 55.1002 5.80004 55.1002 7.10004V18.2C55.1002 20.3 53.4002 21.9 51.4002 21.9C49.3002 21.9 47.7002 20.2 47.7002 18.2V7.50004H46.2002V18.2C46.4002 21.1 48.7002 23.4 51.6002 23.4Z" fill="currentcolor"/>
<path d="M64 39.3H0V44.4H7.1L4.3 60.5L5.7 60.8L8.6 44.5H55.5L58.4 60.8L59.8 60.5L57 44.4H64V39.3ZM62.5 42.9H1.5V40.7H62.6V42.9H62.5Z" fill="currentcolor"/>
<path d="M4.4998 23H36.4998L42.8998 19.8L36.4998 16.6H4.4998C2.6998 16.6 1.2998 18 1.2998 19.8C1.2998 21.6 2.6998 23 4.4998 23ZM8.7998 21.6V18.2H32.8998V21.6H8.7998ZM39.4998 19.9L36.0998 21.6H34.3998V18.2H36.0998L39.4998 19.9ZM4.4998 18.2H7.39981V21.6H4.4998C3.5998 21.6 2.7998 20.8 2.7998 19.9C2.7998 18.9 3.4998 18.2 4.4998 18.2Z" fill="currentcolor"/>
<path d="M56.7998 26.2H1.2998V35H56.7998V26.2ZM55.2998 33.6H51.2998V30.7H49.7998V33.6H45.9998V31.6H44.4998V33.6H40.5998V30.7H39.0998V33.6H35.1998V31.6H33.6998V33.6H29.7998V30.7H28.2998V33.6H24.3998V31.6H22.8998V33.6H18.9998V30.7H17.4998V33.6H13.5998V31.6H12.0998V33.6H8.1998V30.7H6.6998V33.6H2.6998V27.7H55.2998V33.6Z" fill="currentcolor"/>
</svg>
