<svg viewBox="0 0 64 64" fill="none" xmlns="http://www.w3.org/2000/svg">
<path d="M58.4 54.1H56.9V56.6H50.1V54.1H48.7V56.6H41.9V54.1H40.4V56.6H33.7V54.1H32.2V56.6H25.4V54.1H24V56.6H17.2V54.1H15.7V56.6H9V54.1H7.5V56.6H1.5V51.8H4V50.3H1.5V44H4V42.6H1.5V36.3H4V34.8H1.5V28.5H4V27H1.5V20.7H4V19.2H1.5V12.9H4V11.4H1.5V5.89998H0V58.1H64V56.6H58.4V54.1Z" fill="currentcolor"/>
<path d="M51.5 11L54.4 13.9L55.4 12.9L50.7999 8.29997L46.2 12.9L47.2 13.9L50 11.1C49 31.4 32.2 47.6 11.7 47.6V49C33.1 49 50.5999 32.1 51.5 11Z" fill="currentcolor"/>
</svg>
