<svg viewBox="0 0 64 64" fill="none" xmlns="http://www.w3.org/2000/svg">
<path d="M43.5 6.99997H42V8.49997H43.5V6.99997Z" fill="currentcolor"/>
<path d="M39.6001 6.99997H38.1001V8.49997H39.6001V6.99997Z" fill="currentcolor"/>
<path d="M47.5 6.99997H46V8.49997H47.5V6.99997Z" fill="currentcolor"/>
<path d="M24.4998 6.99997H16.7998V8.49997H24.4998V6.99997Z" fill="currentcolor"/>
<path d="M43.5 19H42V20.5H43.5V19Z" fill="currentcolor"/>
<path d="M47.5 19H46V20.5H47.5V19Z" fill="currentcolor"/>
<path d="M39.6001 19H38.1001V20.5H39.6001V19Z" fill="currentcolor"/>
<path d="M24.4998 19H16.7998V20.5H24.4998V19Z" fill="currentcolor"/>
<path d="M64 58.1V46.4H56.1V36.5H32.7V24.6H52.5V14.9H45.5V12.6H52.5V2.89996H11.4V12.6H18.4V14.9H11.4V24.6H31.2V36.5H7.9V46.4H0V58.1H7.9V59.7H6V61.2H11.2V59.7H9.3V58.1H17.2V46.4H9.3V38H31.2V46.4H23.3V58.1H31.2V59.7H29.4V61.2H34.6V59.7H32.8V58.1H40.7V46.4H32.8V38H54.7V46.4H46.8V58.1H54.7V59.7H52.9V61.2H58V59.7H56.2V58.1H64ZM12.9 4.29996H51.1V11.1H12.9V4.29996ZM19.9 12.6H44V14.9H19.9V12.6ZM12.9 16.3H51.1V23.1H12.9V16.3ZM15.7 56.6H1.5V47.9H15.8V56.6H15.7ZM39.1 56.6H24.9V47.9H39.2V56.6H39.1ZM48.3 47.9H62.6V56.6H48.3V47.9Z" fill="currentcolor"/>
</svg>
