<svg viewBox="0 0 64 64" fill="none" xmlns="http://www.w3.org/2000/svg">
<path d="M60.5 43.2V8.39999H3.5V43.2H0V45.6L2.7 49.4H49.8L52.7 54.1C54.5 56.7 57.1 55.4 57.5 55.1C58.3 54.6 58.8 53.7 58.9 52.8C59 51.9 58.7 50.9 58.2 50.2L57.6 49.4H61.3L64 45.6V43.2H60.5ZM4.9 9.79999H59.1V43.2H52.8L47.6 36.6C49.4 34.8 50.5 32.5 51 30C52.2 23.4 48.3 17 42 15C40.7 14.6 39.4 14.4 38.1 14.4C31.3 14.4 25.7 19.5 25 26.3C24.8 28.1 25 29.9 25.6 31.6C27 36 30.7 39.4 35.2 40.4C38 41 41 40.7 43.6 39.5L45.9 43.2H4.9V9.79999ZM3.5 47.9L1.5 45.1V44.6H46.9L48.9 47.8H3.5V47.9ZM54 53.3L44.1 37.6L43.5 37.9C41.1 39.2 38.2 39.6 35.5 39C31.5 38.1 28.2 35.1 27 31.2C26.5 29.7 26.3 28.1 26.5 26.5C27.1 20.5 32.1 15.9 38.1 15.9C39.3 15.9 40.4 16.1 41.6 16.4C47.2 18.1 50.7 23.9 49.6 29.7C49.1 32.2 48 34.3 46.2 36L45.7 36.5L57.1 51.1C58.6 54.9 54.3 54.6 54 53.3ZM62.5 45.1L60.5 47.9H56.4L53.9 44.7H60.5H62.5V45.1Z" fill="currentcolor"/>
<path d="M34.5 22.1H37.3V32.7H34.5V34.2H41.7V32.7H38.8V22.1H41.7V20.6H34.5V22.1Z" fill="currentcolor"/>
<path d="M26.1002 13.1H8.2002V14.6H26.1002V13.1Z" fill="currentcolor"/>
<path d="M23.4002 18.3H8.2002V19.8H23.4002V18.3Z" fill="currentcolor"/>
<path d="M20.7002 23.4H8.2002V24.9H20.7002V23.4Z" fill="currentcolor"/>
<path d="M20.7002 28.5H8.2002V30H20.7002V28.5Z" fill="currentcolor"/>
<path d="M23.4002 33.6H8.2002V35.1H23.4002V33.6Z" fill="currentcolor"/>
<path d="M26.1002 38.8H8.2002V40.3H26.1002V38.8Z" fill="currentcolor"/>
</svg>
