<svg viewBox="0 0 64 64" fill="none" xmlns="http://www.w3.org/2000/svg">
<path d="M60.5 44.7V13.2H3.5V44.7H0V47.1L2.7 50.9H61.3L64 47.1V44.7H60.5ZM4.9 14.6H59V44.7H4.9V14.6ZM62.5 46.6L60.5 49.4H3.5L1.5 46.6V46.1H3.5H60.6H62.6V46.6H62.5Z" fill="currentcolor"/>
<path d="M53.9 31.6L43 27.9L46.7 38.8L48.6 36.9L52.7 41L56 37.7L52 33.5L53.9 31.6ZM54 37.6L52.7 38.9L48.6 34.8L47.3 36.1L45.3 30.3L51.1 32.3L50 33.5L54 37.6Z" fill="currentcolor"/>
<path d="M51.3351 23.1121L50.2744 22.0514L47.3753 24.9505L48.436 26.0112L51.3351 23.1121Z" fill="currentcolor"/>
<path d="M45.1001 19.9H43.6001V24H45.1001V19.9Z" fill="currentcolor"/>
<path d="M37.3182 23.11L40.2173 26.0091L41.2779 24.9484L38.3788 22.0493L37.3182 23.11Z" fill="currentcolor"/>
<path d="M39.3002 28.3H35.2002V29.8H39.3002V28.3Z" fill="currentcolor"/>
<path d="M17.2002 23.3V31.7L25.3002 27.5L17.2002 23.3ZM18.7002 25.7L22.2002 27.5L18.7002 29.3V25.7Z" fill="currentcolor"/>
<path d="M8.2002 36H11.8002L11.9002 40.8L16.9002 36H32.6002V18.4H8.2002V36ZM9.7002 19.9H31.1002V34.6H16.2002L13.3002 37.5V34.6H9.7002V19.9Z" fill="currentcolor"/>
</svg>
