<svg  viewBox="0 0 64 64" fill="none" xmlns="http://www.w3.org/2000/svg">

<path d="M62.4 49.6L50.2 37.4C52.6 34.5 53.9 30.8 54 26.9C54 23.3 52.9 19.9 51 17.1V0H0.5V64H42.5L51 55.5V48.3L56.1 55C58.6 57.9 61.4 56.3 62.1 55.7C64.6 53.3 63.2 50.4 62.4 49.6ZM42.9 61.5V55.9H48.5L42.9 61.5ZM49.5 54.5H41.4V62.6H2V1.5H49.6V15.3C47 12.5 43.5 10.5 39.5 9.9C34.1 9.1 28.5 11.1 24.8 15.1C21.6 18.5 19.9 23.1 20.2 27.8C20.7 36.2 27.8 43.2 36.3 43.6C39.7 43.8 42.9 43 45.8 41.2L49.7 46.3V54.5H49.5ZM61.2 54.6C60.7 55 59 56 57.3 54.2L46 39.3L45.4 39.7C42.7 41.5 39.6 42.4 36.2 42.2C28.4 41.8 22 35.5 21.5 27.8C21.2 23.4 22.7 19.3 25.7 16.2C29.1 12.6 34.2 10.8 39.1 11.5C46.8 12.6 52.5 19.2 52.4 27C52.3 30.7 51 34.3 48.5 37L48 37.5L61.1 50.7C62.9 52.3 61.7 54.1 61.2 54.6Z" fill="currentcolor"/>
<path d="M58.1318 52.1406L59.126 53.2638L60.2492 52.2696L59.255 51.1464L58.1318 52.1406Z" fill="currentcolor"/>
<path d="M57.2404 49.0041L56.1172 49.9983L57.1114 51.1215L58.2346 50.1273L57.2404 49.0041Z" fill="currentcolor"/>
<path d="M43.4002 5.20001H5.2002V6.70001H43.4002V5.20001Z" fill="currentcolor"/>
<path d="M20.0002 10.6H5.2002V12.1H20.0002V10.6Z" fill="currentcolor"/>
<path d="M22.6002 44.5H5.2002V46H22.6002V44.5Z" fill="currentcolor"/>
<path d="M27.7002 50.3H5.2002V51.8H27.7002V50.3Z" fill="currentcolor"/>
<path d="M37.1002 56.1H5.2002V57.6H37.1002V56.1Z" fill="currentcolor"/>
<path d="M37 14.4C30.2 14.4 24.7 19.9 24.7 26.7C24.6 33.5 30.2 39 37 39C43.8 39 49.3 33.5 49.3 26.7C49.3 19.9 43.8 14.4 37 14.4ZM37 37.6C31 37.6 26.1 32.7 26.1 26.7C26.1 20.7 31 15.8 37 15.8C43 15.8 47.9 20.7 47.9 26.7C47.9 32.7 43 37.6 37 37.6Z" fill="currentcolor"/>
</svg>
