<svg viewBox="0 0 64 64" fill="none" xmlns="http://www.w3.org/2000/svg">
<path d="M60.7 60.9V26.3H51.9V60.8H45V32.2H36.2V60.8H29.3V39.8H20.5V60.9H13.6V47.4H4.9V60.9H0V62.4H64V60.9H60.7ZM12.2 60.9H6.4V48.9H12.2V60.9ZM27.9 60.9H22.1V41.3H27.9V60.9ZM43.5 60.9H37.7V33.7H43.5V60.9ZM59.2 60.9H53.4V27.9H59.2V60.9Z" fill="currentcolor"/>
<path d="M24.6 26.3L8.80005 42.1L9.80005 43.1L25.2001 27.8H40.9001L55.5 13.2V18.7H57V10.6H49V12.1H54.5L40.3 26.3H24.6Z" fill="currentcolor"/>
<path d="M13.9 16.4C13.6 16.1 13.4 15.8 13.4 15.4H12C12 16.2 12.4 17 13 17.5C13.4 17.9 14 18.1 14.5 18.2V19.8H16V18.2C16.6 18.1 17.1 17.8 17.5 17.5C18.1 16.9 18.5 16.2 18.5 15.4C18.5 14.6 18.1 13.8 17.5 13.3C16.9 12.8 16.1 12.5 15.2 12.5C14.7 12.5 14.2 12.3 13.9 12C13.6 11.7 13.4 11.4 13.4 11C13.4 10.6 13.6 10.3 13.9 9.99998C14.6 9.39998 15.8 9.39998 16.5 9.99998C16.8 10.3 17 10.6 17 11H18.5C18.5 10.2 18.1 9.39998 17.5 8.89998C17.1 8.49998 16.5 8.29998 16 8.19998V6.49998H14.5V8.19998C13.9 8.29998 13.4 8.49998 13 8.89998C12.4 9.49998 12 10.2 12 11C12 11.8 12.4 12.6 13 13.1C13.6 13.6 14.4 13.9 15.3 13.9C15.8 13.9 16.3 14.1 16.6 14.4C16.9 14.7 17.1 15 17.1 15.4C17.1 15.8 16.9 16.1 16.6 16.4C15.9 17 14.6 17 13.9 16.4Z" fill="currentcolor"/>
<path d="M15.3 24.7C21.7 24.7 26.7999 19.5 26.7999 13.2C26.7999 6.79998 21.6 1.69998 15.3 1.69998C8.89995 1.59998 3.69995 6.79998 3.69995 13.2C3.69995 19.6 8.89995 24.7 15.3 24.7ZM15.3 3.09998C20.8 3.09998 25.2999 7.59998 25.2999 13.1C25.2999 18.6 20.8 23.1 15.3 23.1C9.79995 23.1 5.29995 18.6 5.29995 13.1C5.19995 7.59998 9.69995 3.09998 15.3 3.09998Z" fill="currentcolor"/>
</svg>
