<svg viewBox="0 0 64 64" fill="none" xmlns="http://www.w3.org/2000/svg">
<path d="M64 38.6H0V40.1H64V38.6Z" fill="currentcolor"/>
<path d="M8.89995 30.7H5.19995C5.29995 26.4 6.49995 22.3 8.39995 18.7L11.5 20.5L12.3 19.2L9.19995 17.4C11.4 13.8 14.4 10.8 18 8.59995L19.7999 11.7L21.1 10.9L19.3 7.99995C22.9 6.09995 27 4.89995 31.2999 4.79995V8.39995H32.7999V4.69995C37.0999 4.79995 41.2 5.99995 44.7999 7.89995L43 11L44.2999 11.8L46 8.69995C49.5999 10.9 52.5999 13.9 54.7999 17.5L51.7 19.2999L52.5 20.6L55.5999 18.8C57.5 22.4 58.7 26.4 58.7999 30.7999H55.2V32.2999H60.2999V31.5C60.2999 15.9 47.6 3.19995 32 3.19995C16.4 3.19995 3.69995 15.9 3.69995 31.5V32.2999H8.79995V30.7H8.89995Z" fill="currentcolor"/>
<path d="M32 26.7999C29.4 26.7999 27.3 28.8999 27.3 31.4999C27.3 34.0999 29.4 36.1999 32 36.1999C34.5 36.1999 36.5001 34.1999 36.7001 31.7999L49.1 14.7999L32.5 26.8999C32.3 26.7999 32.2 26.7999 32 26.7999ZM32 34.6999C30.2 34.6999 28.8 33.2999 28.8 31.4999C28.8 29.6999 30.2 28.2999 32 28.2999C33.8 28.2999 35.2001 29.6999 35.2001 31.4999C35.2001 33.2999 33.8 34.6999 32 34.6999ZM42.2001 21.5999L36.3 29.6999C35.9 28.6999 35.2001 27.8999 34.2001 27.3999L42.2001 21.5999Z" fill="currentcolor"/>
<path d="M59.5999 53.2999V46.7999H53.0999V48.2999H57.2999C52.2 54.9999 42.5 59.2999 32.2999 59.2999C21.5 59.2999 11.3 54.5999 6.39995 47.1999L5.19995 47.9999C10.4 55.6999 21.1 60.6999 32.4 60.6999C42.7999 60.6999 52.6 56.4999 58.2 49.7999V53.2999H59.5999Z" fill="currentcolor"/>
</svg>
