<svg viewBox="0 0 64 64" fill="none" xmlns="http://www.w3.org/2000/svg">
<path d="M26.1004 41.8001L33.0004 41.9001C34.3004 41.9001 35.5004 41.0001 35.8004 39.6001C35.9004 38.9001 36.0004 38.2001 36.1004 37.5001C36.1004 37.4001 36.1004 37.3001 36.1004 37.3001H38.3004V35.8001H36.4004C37.3004 31.5001 38.9004 27.5001 41.1004 23.9001C41.2004 23.7001 41.3004 23.6001 41.4004 23.3001C42.7004 21.1001 43.3004 18.6001 43.2004 16.0001C43.1004 9.20007 37.8004 3.70007 31.0004 3.10007C23.2004 2.50007 16.5004 8.60007 16.4004 16.3001C16.4004 17.8001 16.6004 19.3001 17.1004 20.8001L18.2004 23.2001C18.4004 23.5001 18.5004 23.8001 18.7004 24.1001V24.2001C20.6004 27.7001 21.9004 31.5001 22.7004 35.5001H20.7004V37.0001H22.9004C23.0004 37.9001 23.2004 38.8001 23.2004 39.6001V39.8001C23.9004 41.0001 24.9004 41.7001 26.1004 41.8001ZM20.1004 23.5001C19.9004 23.1001 19.7004 22.9001 19.6004 22.6001L18.5004 20.4001C18.1004 19.1001 17.9004 17.8001 17.9004 16.4001C18.0004 9.50007 23.9004 4.10007 30.9004 4.60007C36.9004 5.10007 41.6004 10.0001 41.9004 16.1001C42.0004 18.4001 41.4004 20.6001 40.3004 22.5001L40.2004 22.6001C40.1004 22.8001 40.0004 23.0001 39.9004 23.1001C37.6004 26.9001 36.0004 31.1001 35.0004 35.7001L24.3004 35.6001C23.6004 31.2001 22.1004 27.1001 20.1004 23.5001ZM34.7004 37.2001C34.6004 37.9001 34.5004 38.6001 34.4004 39.3001C34.2004 39.9001 33.7004 40.4001 33.0004 40.4001L26.1004 40.3001C25.6004 40.3001 25.1004 40.0001 24.9004 39.5001C24.8004 38.7001 24.7004 37.9001 24.6004 37.2001H34.7004Z" fill="currentcolor"/>
<path d="M39.5754 27.9068L41.229 29.6463L42.3162 28.6128L40.6626 26.8733L39.5754 27.9068Z" fill="currentcolor"/>
<path d="M46.5582 20.8681L44.2563 20.1889L43.8318 21.6276L46.1337 22.3068L46.5582 20.8681Z" fill="currentcolor"/>
<path d="M46.6955 13.5225L46.3442 12.0642L44.011 12.6263L44.3623 14.0846L46.6955 13.5225Z" fill="currentcolor"/>
<path d="M42.8589 5.48871L41.8262 4.40091L40.0857 6.05331L41.1184 7.14111L42.8589 5.48871Z" fill="currentcolor"/>
<path d="M35.4906 0.649791L34.0522 0.224091L33.3711 2.52545L34.8095 2.95115L35.4906 0.649791Z" fill="currentcolor"/>
<path d="M27.2606 2.34165L26.6982 0.00836945L25.2399 0.359819L25.8023 2.6931L27.2606 2.34165Z" fill="currentcolor"/>
<path d="M20.4544 5.63041L18.8008 3.89089L17.7136 4.92439L19.3672 6.66391L20.4544 5.63041Z" fill="currentcolor"/>
<path d="M16.1624 11.8778L13.8608 11.1978L13.4359 12.6363L15.7375 13.3163L16.1624 11.8778Z" fill="currentcolor"/>
<path d="M15.8676 20.9041L15.5161 19.4458L13.1828 20.0081L13.5343 21.4664L15.8676 20.9041Z" fill="currentcolor"/>
<path d="M18.8096 26.2626L17.0728 27.9189L18.1079 29.0044L19.8448 27.3482L18.8096 26.2626Z" fill="currentcolor"/>
<path d="M54.7001 42.8001L49.8001 31.4001L49.9001 27.4001C49.8001 26.3001 49.6001 25.2001 49.1001 24.0001L47.7001 24.5001C48.1001 25.5001 48.3001 26.5001 48.4001 27.4001L48.3001 31.7001L52.4001 41.4001H48.8001L49.0001 49.2001C49.0001 49.8001 48.8001 50.3001 48.4001 50.6001C48.0001 51.0001 47.5001 51.2001 46.9001 51.1001L40.2001 51.0001L40.0001 62.4001H36.6001V63.9001L41.5001 64.0001L41.7001 52.6001H46.8001C47.8001 52.7001 48.7001 52.3001 49.4001 51.7001C50.1001 51.0001 50.5001 50.1001 50.5001 49.1001L50.3001 42.8001H54.7001Z" fill="currentcolor"/>
<path d="M12.3002 39.1001C10.4002 33.5001 10.4002 28.4001 12.3002 23.9001L10.9002 23.3001C8.8002 28.2001 8.8002 33.6001 10.9002 39.5001C11.6002 41.5001 12.7002 43.4001 13.9002 45.5001C16.2002 49.3001 18.5002 53.3001 18.4002 58.4001L18.3002 63.7001H19.8002L19.9002 58.4001C20.0002 52.9001 17.4002 48.6001 15.1002 44.7001C14.0002 42.9001 12.9002 41.0001 12.3002 39.1001Z" fill="currentcolor"/>
<path d="M38.2093 54.1105L36.7095 54.0903L36.6893 55.5901L38.1891 55.6103L38.2093 54.1105Z" fill="currentcolor"/>
<path d="M36.589 59.0587L38.0889 59.079L38.1092 57.5791L36.6093 57.5588L36.589 59.0587Z" fill="currentcolor"/>
</svg>
