<svg viewBox="0 0 64 64" fill="none" xmlns="http://www.w3.org/2000/svg">
<path d="M46.0001 58.3C44.7001 57.9 43.4001 57.4 42.2001 56.8C41.8001 56.6 41.4001 56.8 41.2001 57.1C41.0001 57.5 41.2001 57.9 41.5001 58.1C42.8001 58.7 44.1001 59.3 45.5001 59.7C45.6001 59.7 45.6001 59.7 45.7001 59.7C46.0001 59.7 46.3001 59.5 46.4001 59.2C46.6001 58.9 46.4001 58.5 46.0001 58.3Z" fill="currentcolor"/>
<path d="M46.6001 52.7C46.2001 52.6 45.8001 52.7 45.7001 53.1C45.6001 53.5 45.7001 53.9 46.1001 54C47.4001 54.5 48.7001 54.8 50.0001 55.1H50.1001C50.4001 55.1 50.8001 54.9 50.8001 54.5C50.9001 54.1 50.6001 53.7 50.2001 53.6C49.0001 53.5 47.8001 53.1 46.6001 52.7Z" fill="currentcolor"/>
<path d="M32.0002 0C19.4002 0 9.2002 10.2 9.2002 22.8C9.2002 22.9 9.2002 23 9.3002 23.1C9.3002 23.2 9.4002 23.2 9.4002 23.3C9.4002 23.3 9.4002 23.3 9.5002 23.3C9.5002 23.3 9.6002 23.4 9.7002 23.4C9.7002 23.4 9.7002 23.4 9.8002 23.4C9.9002 23.4 10.0002 23.5 10.1002 23.5C10.5002 23.5 10.8002 23.2 10.8002 22.8C10.7002 11 20.3002 1.5 32.0002 1.5C43.7002 1.5 53.3002 11.1 53.3002 22.8V33.6C53.3002 34 53.6002 34.3 54.0002 34.3C54.4002 34.3 54.7002 34 54.7002 33.6V22.8C54.8002 10.2 44.6002 0 32.0002 0Z" fill="currentcolor"/>
<path d="M38.1999 22.8C38.1999 19.4 35.3999 16.6 31.9999 16.6C28.5999 16.6 25.7999 19.4 25.7999 22.8V23.9C25.1999 32.1 18.2999 38.6 10.0999 38.6C9.6999 38.6 9.3999 38.9 9.3999 39.3C9.3999 39.7 9.6999 40 10.0999 40C19.0999 40 26.6999 32.9 27.2999 23.9V22.7C27.2999 20.1 29.3999 17.9 32.0999 17.9C34.6999 17.9 36.8999 20 36.8999 22.7V32.5V32.6C36.8999 41.6 43.8999 49.1 52.7999 49.8C52.7999 49.8 52.7999 49.8 52.8999 49.8C53.2999 49.8 53.5999 49.5 53.5999 49.1C53.5999 48.7 53.2999 48.3 52.8999 48.3C44.7999 47.7 38.3999 40.8 38.2999 32.6V32.5V22.8H38.1999Z" fill="currentcolor"/>
<path d="M33.3999 38.4C33.5999 38.1 33.4999 37.6 33.1999 37.4C32.8999 37.2 32.3999 37.3 32.1999 37.6C27.5999 44.6 19.8999 49 11.5999 49.5C11.1999 49.5 10.8999 49.9 10.8999 50.3C10.8999 50.7 11.1999 51 11.5999 51C20.3999 50.4 28.4999 45.7 33.3999 38.4Z" fill="currentcolor"/>
<path d="M35.7003 44.4C36.0003 44.1 35.9003 43.6 35.6003 43.4C35.3003 43.1 34.8003 43.2 34.6003 43.5C29.5003 49.6 22.4003 53.6 14.6003 54.8C14.2003 54.9 13.9003 55.2 14.0003 55.6C14.1003 56 14.4003 56.2 14.7003 56.2H14.8003C23.0003 55 30.4003 50.8 35.7003 44.4Z" fill="currentcolor"/>
<path d="M19.7001 60.8C19.8001 60.8 19.8001 60.8 19.9001 60.8C27.3001 58.8 34.0001 54.7 39.1001 48.9C39.4001 48.6 39.3001 48.1 39.0001 47.9C38.7001 47.6 38.2001 47.7 38.0001 48C33.0001 53.6 26.6001 57.5 19.5001 59.4C19.1001 59.5 18.9001 59.9 19.0001 60.3C19.1001 60.6 19.4001 60.8 19.7001 60.8Z" fill="currentcolor"/>
<path d="M27.4003 63.9C33.5003 61.3 39.1003 57.2 43.5003 52.1C43.8003 51.8 43.7003 51.3 43.4003 51.1C43.1003 50.8 42.6003 50.9 42.4003 51.2C38.1003 56.1 32.7003 60.1 26.8003 62.6C26.4003 62.8 26.3003 63.2 26.4003 63.6C26.5003 63.9 26.8003 64 27.1003 64C27.2003 64 27.3003 64 27.4003 63.9Z" fill="currentcolor"/>
<path d="M31.3 22.9V24C30.5 35.1 21.3 43.9 10.2 44C9.8 44 9.5 44.3 9.5 44.7C9.5 45.1 9.8 45.4 10.2 45.4C22 45.4 31.9 36 32.7 24.1V22.9C32.7 22.5 32.4 22.2 32 22.1C31.6 22.2 31.3 22.5 31.3 22.9Z" fill="currentcolor"/>
<path d="M54.0003 43C48.3003 43 43.7003 38.4 43.7003 32.8V22.9C43.7003 16.3 38.5003 11 32.0003 11C25.5003 11 20.3003 16.3 20.3003 22.7V23.1V23.2C20.0003 28.8 15.5003 33 10.0003 33C9.60029 33 9.30029 33.3 9.30029 33.7C9.30029 34.1 9.60029 34.4 10.0003 34.4C16.3003 34.4 21.4003 29.5 21.7003 23.2V23.1V22.6C21.7003 16.9 26.3003 12.3 32.0003 12.3C37.7003 12.3 42.3003 16.9 42.3003 22.6V32.5C42.3003 39 47.6003 44.3 54.1003 44.3C54.5003 44.3 54.8003 44 54.8003 43.6C54.8003 43.3 54.4003 43 54.0003 43Z" fill="currentcolor"/>
<path d="M54.0001 37.5C51.4001 37.5 49.2001 35.4 49.2001 32.7V22.8C49.2001 13.3 41.5001 5.5 31.9001 5.5C22.3001 5.5 14.6001 13.2 14.6001 22.8C14.6001 25.4 12.5001 27.6 9.8001 27.6C9.4001 27.6 9.1001 27.9 9.1001 28.3C9.1001 28.7 9.4001 29 9.8001 29C13.2001 29 16.0001 26.2 16.0001 22.8C16.2001 14.1 23.3001 7 32.0001 7C40.7001 7 47.8001 14.1 47.8001 22.8V32.7C47.8001 36.1 50.6001 38.9 54.0001 38.9C54.4001 38.9 54.7001 38.6 54.7001 38.2C54.8001 37.8 54.4001 37.5 54.0001 37.5Z" fill="currentcolor"/>
</svg>
