<svg viewBox="0 0 64 64" fill="none" xmlns="http://www.w3.org/2000/svg">
<path d="M34.5998 14.6C38.5998 14.6 41.8998 11.3 41.8998 7.3C41.8998 3.3 38.5998 0 34.5998 0C30.5998 0 27.2998 3.3 27.2998 7.3C27.2998 11.3 30.4998 14.6 34.5998 14.6ZM34.5998 1.5C37.7998 1.5 40.3998 4.1 40.3998 7.3C40.3998 10.5 37.7998 13.1 34.5998 13.1C31.3998 13.1 28.7998 10.5 28.7998 7.3C28.7998 4.1 31.2998 1.5 34.5998 1.5Z" fill="currentcolor"/>
<path d="M56.5998 20.5L60.2998 16.8V20.8H61.7998V14.2H55.1998V15.7H59.2998L50.7998 24.2C50.6998 23.3 50.6998 22.8 50.6998 22.8C50.6998 21.5 50.2998 20.2 49.5998 18.9C48.7998 17.6 47.5998 16.6 46.0998 16L40.6998 14.1L35.7998 23.2H33.9998L28.9998 14.1L23.5998 16C22.0998 16.5 20.8998 17.6 20.0998 18.9C19.2998 20.2 18.9998 21.5 18.9998 22.7C18.9998 22.7 18.4998 27.6 18.2998 32.4L2.6998 47.9L3.6998 48.9L7.2998 45.3V62.5H2.2998V64H61.7998V62.5H56.5998V20.5ZM20.3998 22.8C20.3998 21.5 20.8998 20.4 21.2998 19.7C21.8998 18.7 22.7998 17.9 23.9998 17.5L28.1998 16L32.8998 24.8H36.3998L41.0998 16L45.2998 17.5C46.4998 17.9 47.3998 18.7 47.9998 19.7C48.3998 20.4 48.8998 21.6 48.8998 22.9C48.8998 22.9 48.9998 24 49.1998 25.6L35.0998 39.9L22.9998 27.7L19.7998 30.9C19.9998 26.7 20.3998 22.9 20.3998 22.8ZM15.2998 62.5H8.7998V43.9L15.2998 37.4V62.5ZM23.2998 62.5H16.7998V35.9L22.9998 29.7L23.2998 30V62.5ZM31.1998 62.5H24.6998V31.5L31.1998 38V62.5ZM39.1998 62.5H32.6998V39.5L35.1998 42L39.1998 38V62.5ZM47.1998 62.5H40.6998V36.4L47.1998 29.9V62.5ZM55.0998 62.5H48.5998V28.5L55.0998 22V62.5Z" fill="currentcolor"/>
</svg>
