<svg viewBox="0 0 64 64" fill="none" xmlns="http://www.w3.org/2000/svg">
<path d="M61.8 12.9C41 10.2 32.6 0.7 32.6 0.6L32 0L31.5 0.6C31.4 0.7 23 10.2 2.2 12.9L1.5 13L1.6 13.7C1.6 14 6 52 31.7 63.9L32 64L32.3 63.9C58.7 52.6 62.4 14 62.5 13.6L62.6 12.9H61.8ZM32 62.4C9.2 51.7 3.8 19.4 3.1 14.2C21.2 11.7 29.9 4.3 32 2.2C34.2 4.3 42.8 11.7 60.9 14.2C60.3 19.4 55.5 52.1 32 62.4Z" fill="currentcolor"/>
<path d="M31.6001 9.70002C27.6001 12.5 20.7001 16.3 10.3001 18.6L9.6001 18.8L9.8001 19.5C12.1001 29.6 17.9001 47.7 31.8001 56L32.2001 56.2L32.6001 56C46.8001 48 52.4001 29.7 54.5001 19.5L54.6001 18.8L53.9001 18.6C43.4001 16.3 36.5001 12.5 32.5001 9.70002L32.0001 9.40002L31.6001 9.70002ZM52.8001 19.9C50.7001 29.9 45.2001 46.8 32.1001 54.5C19.2001 46.6 13.6001 29.8 11.3001 19.9C21.2001 17.6 28.0001 14 32.0001 11.2C36.1001 14 42.9001 17.6 52.8001 19.9Z" fill="currentcolor"/>
<path d="M27.5 23.3V26.7H25.7C24.8 26.7 24 27.5 24 28.4V37C24 37.9 24.8 38.7 25.7 38.7H38.5C39.4 38.7 40.2 37.9 40.2 37V28.4C40.2 27.5 39.4 26.7 38.5 26.7H36.7V23.3C36.7 20.8 34.7 18.8 32.2 18.8C29.6 18.8 27.5 20.8 27.5 23.3ZM38.7 28.5V37.1C38.7 37.2 38.6 37.3 38.5 37.3H25.7C25.6 37.3 25.5 37.2 25.5 37.1V28.5C25.5 28.4 25.6 28.3 25.7 28.3H38.5C38.6 28.2 38.7 28.3 38.7 28.5ZM32.1 20.2C33.8 20.2 35.2 21.6 35.2 23.3V26.7H29V23.3C29 21.6 30.4 20.2 32.1 20.2Z" fill="currentcolor"/>
</svg>
