<svg viewBox="0 0 64 64" fill="none" xmlns="http://www.w3.org/2000/svg">
<path d="M32.7998 10.8H31.2998V14.7H32.7998V10.8Z" fill="currentcolor"/>
<path d="M64 37.5H0V39H64V37.5Z" fill="currentcolor"/>
<path d="M32.3002 41.2L22.2002 58.8H42.5002L32.3002 41.2ZM32.3002 44.2L39.8002 57.2H24.8002L32.3002 44.2Z" fill="currentcolor"/>
<path d="M11.7001 29.4H8.6001C8.7001 25.7 9.7001 22.2 11.4001 19.1L14.1001 20.6L14.9001 19.3L12.2001 17.8C14.1001 14.7 16.7001 12.2 19.8001 10.3L21.3001 13L22.6001 12.2L21.1001 9.50001C24.2001 7.70001 28.0001 6.70001 32.0001 6.70001C36.0001 6.70001 39.8001 7.70001 43.1001 9.50001L41.6001 12.2L42.9001 13L44.4001 10.3C47.5001 12.2 50.0001 14.8 52.0001 17.8L49.3001 19.3L50.1001 20.6L52.8001 19.1C54.5001 22.2 55.5001 25.7 55.6001 29.4H52.5001V30.9H57.0001V30.1C57.0001 16.4 45.8001 5.20001 32.0001 5.20001C18.2001 5.20001 7.1001 16.4 7.1001 30.2V31H11.7001V29.4Z" fill="currentcolor"/>
<path d="M31.9998 26C29.6998 26 27.7998 27.9 27.7998 30.2C27.7998 32.5 29.6998 34.4 31.9998 34.4C34.1998 34.4 35.9998 32.7 36.1998 30.5L47.3998 15.1L32.3998 26C32.2998 26 32.0998 26 31.9998 26ZM31.9998 32.9C30.4998 32.9 29.2998 31.7 29.2998 30.2C29.2998 28.7 30.4998 27.5 31.9998 27.5C33.4998 27.5 34.6998 28.7 34.6998 30.2C34.6998 31.7 33.4998 32.9 31.9998 32.9ZM40.5998 21.9L35.8998 28.4C35.4998 27.6 34.9998 27 34.1998 26.6L40.5998 21.9Z" fill="currentcolor"/>
</svg>
