<svg viewBox="0 0 64 64" fill="none" xmlns="http://www.w3.org/2000/svg">
<path d="M5.3999 24.1H34.4999V13.1H5.3999V24.1ZM6.8999 14.6H32.9999V22.7H6.8999V14.6Z" fill="currentcolor"/>
<path d="M15.4999 45.9H7.3999V47.4H15.4999V45.9Z" fill="currentcolor"/>
<path d="M29.3001 49.4H27.6001V50.9H29.3001V49.4Z" fill="currentcolor"/>
<path d="M32.4001 45.9H24.3V47.4H32.4001V45.9Z" fill="currentcolor"/>
<path d="M29.3001 42.3H27.6001V43.8H29.3001V42.3Z" fill="currentcolor"/>
<path d="M12.1999 28.8H10.7999V32.1H7.3999V33.6H10.7999V36.9H12.1999V33.6H15.5999V32.1H12.1999V28.8Z" fill="currentcolor"/>
<path d="M26 36.2L28.4 33.9L30.8 36.2L31.8 35.2L29.4 32.8L31.8 30.5L30.8 29.4L28.4 31.8L26 29.4L25 30.5L27.4 32.8L25 35.2L26 36.2Z" fill="currentcolor"/>
<path d="M59.3 28.5V12.5H57.8V28.4H54.6V18.9H53.1V28.4H49.9V15.7H48.4V28.5H45.2V22.8H43.7V28.5H39.8V7H0V57H39.9V51.7H64V28.5H59.3ZM38.4 55.5H1.4V8.5H38.4V28.4H34.8V51.6H38.4V55.5ZM62.5 50.2H36.3V29.9H62.5V50.2Z" fill="currentcolor"/>
<path d="M44.0289 46.4904L56.0496 34.4697L54.9889 33.409L42.9682 45.4297L44.0289 46.4904Z" fill="currentcolor"/>
<path d="M53.3 40.9C51.6 40.9 50.3 42.3 50.3 43.9C50.3 45.6 51.7 46.9 53.3 46.9C55 46.9 56.3 45.5 56.3 43.9C56.3 42.2 54.9 40.9 53.3 40.9ZM53.3 45.4C52.4 45.4 51.7001 44.7 51.7001 43.8C51.7001 42.9 52.4 42.2 53.3 42.2C54.2 42.2 54.9001 42.9 54.9001 43.8C54.8001 44.7 54.1 45.4 53.3 45.4Z" fill="currentcolor"/>
<path d="M45.6001 39.2C47.3001 39.2 48.6001 37.8 48.6001 36.2C48.6001 34.5 47.2001 33.2 45.6001 33.2C43.9001 33.2 42.6001 34.6 42.6001 36.2C42.6001 37.9 43.9001 39.2 45.6001 39.2ZM45.6001 34.7C46.5001 34.7 47.2001 35.4 47.2001 36.3C47.2001 37.2 46.5001 37.9 45.6001 37.9C44.7001 37.9 44.0001 37.2 44.0001 36.3C44.0001 35.4 44.7001 34.7 45.6001 34.7Z" fill="currentcolor"/>
</svg>
