<svg viewBox="0 0 64 64" fill="none" xmlns="http://www.w3.org/2000/svg">
<path d="M34.5999 40.1C35.2999 40.7 35.5999 41.4 35.5999 42.2H37.0999C37.0999 41 36.5999 39.8 35.5999 38.9C34.7999 38.2 33.8 37.8 32.7 37.7V34.4H31.2V37.7C30.1 37.8 29.0999 38.3 28.2999 38.9C27.2999 39.8 26.7999 40.9 26.7999 42.2C26.7999 43.4 27.2999 44.6 28.2999 45.5C29.2999 46.3 30.4999 46.8 31.9 46.8C32.9 46.8 33.8 47.1 34.5 47.7C35.2 48.3 35.5 49 35.5 49.8C35.5 50.6 35.1 51.4 34.5 51.9C33.1 53.1 30.6 53.1 29.2 51.9C28.5 51.3 28.2 50.6 28.2 49.8H26.7C26.7 51 27.2 52.2 28.2 53.1C29 53.8 30 54.2 31.1 54.3V57.6H32.5999V54.3C33.6999 54.2 34.7 53.7 35.5 53.1C36.5 52.2 37 51.1 37 49.8C37 48.6 36.5 47.4 35.5 46.5C34.5 45.7 33.3 45.2 31.9 45.2C30.9 45.2 29.9999 44.9 29.2999 44.3C28.5999 43.7 28.2999 43 28.2999 42.2C28.2999 41.4 28.6999 40.6 29.2999 40.1C30.7999 38.8 33.1999 38.8 34.5999 40.1Z" fill="currentcolor"/>
<path d="M50 46C50 36.4 42.4 28.5 32.9 28.1V16.9C33.2 16.9 33.7 16.9 34.1 16.9C36.7 16.9 41.6 16.4 44.7 13.3C49.1 9 48.2 1.1 48.1 0.7L48 0.2L47.4 0.1C47.4 0.1 46.6 0 45.3 0C42.7 0 37.8 0.5 34.7 3.6C30.4 7.9 31.2 15.6 31.2 16.2V18.6C30.4 16.7 28.6 13.7 25.6 12.5C24.7 12.1 23.7 12 22.6 12C19.1 12 15.9 13.9 15.8 13.9L15.3 14.2L15.5 14.7C15.6 14.9 17.3 20.7 21.7 22.4C22.6 22.8 23.6 22.9 24.7 22.9C27.6 22.9 30.3 21.6 31.2 21.1V28C21.7 28.4 14 36.3 14 46C14 55.9 22.1 64 32 64C41.9 64 50 55.9 50 46ZM35.9 4.6C38.6 1.9 43.1 1.5 45.4 1.5C45.9 1.5 46.4 1.5 46.7 1.5C46.8 3.3 46.9 9.1 43.6 12.3C40.9 15 36.4 15.4 34.1 15.4C33.8 15.4 33.5 15.4 33.3 15.4C34.2 13.7 36.5 10.2 40.7 7.9L40 6.6C36.4 8.5 34.1 11.3 32.8 13.3C32.8 10.9 33.4 7 35.9 4.6ZM22.4 21.1C19.4 19.9 17.8 16.3 17.3 14.9C18.3 14.4 20.5 13.4 22.8 13.4C23.7 13.4 24.5 13.5 25.2 13.8C27.3 14.6 28.7 16.6 29.5 18.2C28 17.3 25.8 16.3 23.1 16.1L23 17.6C26.2 17.9 28.7 19.4 29.9 20.3C28.8 20.8 26.8 21.5 24.8 21.5C24 21.5 23.1 21.4 22.4 21.1ZM32 62.5C22.9 62.5 15.5 55.1 15.5 46C15.5 36.9 22.9 29.5 32 29.5C41.1 29.5 48.5 36.9 48.5 46C48.5 55.1 41.1 62.5 32 62.5Z" fill="currentcolor"/>
</svg>
