<svg currentcolor="0 0 64 64" fill="none" xmlns="http://www.w3.org/2000/svg">
<path d="M26.9 26.5V24.1C26.9 22.6 25.7 21.3 24.1 21.3H23.8C22.3 21.3 21 22.5 21 24.1V26.5C21 28 22.2 29.3 23.8 29.3H24.1C25.7 29.3 26.9 28 26.9 26.5ZM25.4 26.5C25.4 27.2 24.8 27.8 24.1 27.8H23.8C23.1 27.8 22.5 27.2 22.5 26.5V24.1C22.5 23.4 23.1 22.8 23.8 22.8H24.1C24.8 22.8 25.4 23.4 25.4 24.1V26.5Z" fill="black"/>
<path d="M19 21.3H17.5V29.3H19V21.3Z" fill="black"/>
<path d="M35.4999 21.4H35.1999C33.6999 21.4 32.3999 22.6 32.3999 24.2V26.6C32.3999 28.1 33.5999 29.4 35.1999 29.4H35.4999C36.9999 29.4 38.2999 28.2 38.2999 26.6V24.2C38.2999 22.6 36.9999 21.4 35.4999 21.4ZM36.7999 26.5C36.7999 27.2 36.1999 27.8 35.4999 27.8H35.1999C34.4999 27.8 33.8999 27.2 33.8999 26.5V24.1C33.8999 23.4 34.4999 22.8 35.1999 22.8H35.4999C36.1999 22.8 36.7999 23.4 36.7999 24.1V26.5Z" fill="black"/>
<path d="M30.3999 21.3H28.8999V29.3H30.3999V21.3Z" fill="black"/>
<path d="M43.7001 21.4H43.4001C41.9001 21.4 40.6001 22.6 40.6001 24.2V26.6C40.6001 28.1 41.8001 29.4 43.4001 29.4H43.7001C45.2001 29.4 46.5001 28.2 46.5001 26.6V24.2C46.5001 22.6 45.2001 21.4 43.7001 21.4ZM45.0001 26.5C45.0001 27.2 44.4001 27.8 43.7001 27.8H43.4001C42.7001 27.8 42.1001 27.2 42.1001 26.5V24.1C42.1001 23.4 42.7001 22.8 43.4001 22.8H43.7001C44.4001 22.8 45.0001 23.4 45.0001 24.1V26.5Z" fill="black"/>
<path d="M27.6 34.7H27.3C25.8 34.7 24.5 35.9 24.5 37.5V39.9C24.5 41.4 25.7 42.7 27.3 42.7H27.6C29.1 42.7 30.4 41.5 30.4 39.9V37.5C30.4 36 29.2 34.7 27.6 34.7ZM28.9 39.9C28.9 40.6 28.3 41.2 27.6 41.2H27.3C26.6 41.2 26 40.6 26 39.9V37.5C26 36.8 26.6 36.2 27.3 36.2H27.6C28.3 36.2 28.9 36.8 28.9 37.5V39.9Z" fill="black"/>
<path d="M19 34.7H17.5V42.7H19V34.7Z" fill="black"/>
<path d="M22.6001 34.7H21.1001V42.7H22.6001V34.7Z" fill="black"/>
<path d="M43.7001 34.7H43.4001C41.9001 34.7 40.6001 35.9 40.6001 37.5V39.9C40.6001 41.4 41.8001 42.7 43.4001 42.7H43.7001C45.2001 42.7 46.5001 41.5 46.5001 39.9V37.5C46.5001 36 45.2001 34.7 43.7001 34.7ZM45.0001 39.9C45.0001 40.6 44.4001 41.2 43.7001 41.2H43.4001C42.7001 41.2 42.1001 40.6 42.1001 39.9V37.5C42.1001 36.8 42.7001 36.2 43.4001 36.2H43.7001C44.4001 36.2 45.0001 36.8 45.0001 37.5V39.9Z" fill="black"/>
<path d="M36.1001 34.7H34.6001V42.7H36.1001V34.7Z" fill="black"/>
<path d="M64 23.6V22.1H53.9V15.3L48.7 10.1H41.9V0H40.4V10.1H35.8V0H34.3V10.1H29.7V0H28.2V10.1H23.6V0H22.1V10.1H15.3L10.1 15.3V22.1H0V23.6H10.2V28.2H0V29.7H10.2V34.3H0V35.8H10.2V40.4H0V41.9H10.2V48.7L15.4 53.9H22.2V64H23.7V53.9H28.3V64H29.8V53.9H34.4V64H35.9V53.9H40.5V64H42V53.9H48.8L54 48.7V41.9H64V40.4H53.9V35.8H64V34.3H53.9V29.7H64V28.2H53.9V23.6H64ZM52.4 48L48 52.4H16L11.7 48V16L16 11.7H48L52.3 16V48H52.4Z" fill="black"/>
</svg>
