<svg viewBox="0 0 64 64" fill="none" xmlns="http://www.w3.org/2000/svg">
<path d="M61.5 47.5C60.7999 45.7 58.7 44.9 56.9 45.6L54.5 46.7C56 44.4 56.9 41.7 56.9 38.9C56.9 31.2 50.6 24.9 42.9 24.9C35.2 24.9 28.9 31.2 28.9 38.9C28.9 41.8 29.7999 44.5 31.4 46.9L25.9 44.3C24.5 43.7 23 43.3 21.5 43.3H16.5V41H2.19995V42.5H14.9V60.4H4.79995V61.9H16.4V59.6H20.2L32.2999 63.6C33.0999 63.9 34 64 34.7999 64C36.0999 64 37.2999 63.7 38.5 63.1L59.5999 52.1C60.5 51.7 61.0999 51.1 61.5 50.2C61.9 49.3 61.9 48.4 61.5 47.5ZM30.4 38.9C30.4 32 36 26.4 42.9 26.4C49.8 26.4 55.4 32 55.4 38.9C55.4 42.4 53.9 45.7 51.4 48.1L44.4 51.2C44.4 51 44.5 50.9 44.5 50.7C44.5 48.9 43.0999 47.5 41.2999 47.4C41.2999 47.4 41.2999 47.4 41.2 47.4H33.7C31.6 45.1 30.4 42.1 30.4 38.9ZM59 50.7L37.7999 61.8C36.2 62.6 34.3999 62.7 32.7999 62.2L20.6 58.1H16.5V44.8H21.5C22.7999 44.8 24.0999 45.1 25.2999 45.6L32.2 48.8H41.2999C42.2999 48.8 43 49.6 43 50.6C43 51.6 42.2 52.4 41.2 52.4H30.6H30.5C29.5 52.6 27.6 53.4 27.6 55.4H29.1C29.1 54.3 30.4 54 30.7 53.9H41.2999C41.7999 53.9 42.2999 53.7 42.7999 53.5L57.5 47C58.5 46.6 59.6999 47.1 60.0999 48.1C60.6999 49.5 59.5999 50.5 59 50.7Z" fill="currentcolor"/>
<path d="M9 56.4H7.5V57.9H9V56.4Z" fill="currentcolor"/>
<path d="M12.5 56.4H11V57.9H12.5V56.4Z" fill="currentcolor"/>
<path d="M41.7 41.1C41.4 40.8 41.2 40.4 41.2 40.1H39.7C39.7 40.9 40.1 41.7 40.7 42.3C41.2 42.7 41.6999 42.9 42.2999 43.1V44.8H43.7999V43C44.3999 42.9 45 42.6 45.4 42.2C46.1 41.6 46.4 40.9 46.4 40C46.4 39.2 46 38.4 45.4 37.8C44.8 37.3 43.9 37 43 37C42.5 37 41.9999 36.8 41.5999 36.5C41.2999 36.2 41.0999 35.8 41.0999 35.5C41.0999 35.1 41.2999 34.7 41.5999 34.5C42.2999 33.9 43.6 33.9 44.4 34.5C44.7 34.8 44.9 35.2 44.9 35.5H46.4C46.4 34.7 46 33.9 45.4 33.3C45 32.9 44.3999 32.7 43.7999 32.6V30.9H42.2999V32.6C41.6999 32.7 41.1 33 40.7 33.3C40 33.9 39.7 34.6 39.7 35.5C39.7 36.4 40.1 37.1 40.7 37.7C41.3 38.2 42.1999 38.5 43.0999 38.5C43.5999 38.5 44.1 38.7 44.5 39C44.8 39.3 45 39.7 45 40C45 40.4 44.8 40.8 44.5 41C43.7 41.8 42.4 41.8 41.7 41.1Z" fill="currentcolor"/>
<path d="M17.7 23.9C17.5 23.7 17.3 23.4 17.3 23.1H15.8C15.8 23.8 16.1 24.5 16.7 25C17.1 25.3 17.5 25.5 18 25.6V27H19.5V25.7C20 25.6 20.4 25.4 20.8 25.1C21.4 24.6 21.7 23.9 21.7 23.2C21.7 22.5 21.4 21.8 20.8 21.3C20.3 20.8 19.5 20.6 18.8 20.6C18.4 20.6 18 20.5 17.7 20.2C17.5 20 17.3 19.7 17.3 19.4C17.3 19.1 17.4 18.8 17.7 18.6C18.3 18.1 19.3 18.1 19.8 18.6C20 18.8 20.2 19.1 20.2 19.4H21.7C21.7 18.7 21.4 18 20.8 17.5C20.4 17.2 20 17 19.5 16.9V15.6H18V16.9C17.5 17 17.1 17.2 16.7 17.5C16.1 18 15.8 18.7 15.8 19.4C15.8 20.1 16.1 20.8 16.7 21.3C17.2 21.8 18 22 18.7 22C19.1 22 19.5 22.1 19.8 22.4C20 22.6 20.2 22.9 20.2 23.2C20.2 23.5 20.1 23.8 19.8 24C19.3 24.4 18.3 24.4 17.7 23.9Z" fill="currentcolor"/>
<path d="M18.7999 30.5C23.8999 30.5 27.9999 26.4 27.9999 21.3C27.9999 16.2 23.8999 12.1 18.7999 12.1C13.6999 12.1 9.59989 16.2 9.59989 21.3C9.49989 26.4 13.6999 30.5 18.7999 30.5ZM18.7999 13.5C23.0999 13.5 26.4999 17 26.4999 21.2C26.4999 25.5 22.9999 28.9 18.7999 28.9C14.4999 28.9 11.0999 25.4 11.0999 21.2C10.9999 17 14.4999 13.5 18.7999 13.5Z" fill="currentcolor"/>
<path d="M47.4999 16.6L46.4999 15.5L44.4999 17.5L44.3999 11.9H42.9999V17.5L40.8999 15.5L39.8999 16.6L43.6999 20.4L47.4999 16.6Z" fill="currentcolor"/>
<path d="M44.3999 8.79999H42.8999V10.3H44.3999V8.79999Z" fill="currentcolor"/>
<path d="M44.3999 5.79999H42.8999V7.29999H44.3999V5.79999Z" fill="currentcolor"/>
<path d="M56.7999 10.7L55.7999 9.69998L53.7999 11.7L53.7 6.09998H52.2999V11.7L50.2 9.69998L49.2 10.7L53 14.6L56.7999 10.7Z" fill="currentcolor"/>
<path d="M53.7 3H52.2V4.5H53.7V3Z" fill="currentcolor"/>
<path d="M53.7 0H52.2V1.5H53.7V0Z" fill="currentcolor"/>
</svg>
