<svg viewBox="0 0 64 64" fill="none" xmlns="http://www.w3.org/2000/svg">
<path d="M29.8999 21H16.3999V22.5H29.8999V21Z" fill="currentcolor"/>
<path d="M25.7999 26.5H16.3999V28H25.7999V26.5Z" fill="currentcolor"/>
<path d="M43.3999 32H16.3999V33.5H43.3999V32Z" fill="currentcolor"/>
<path d="M34.6999 37.4H16.3999V38.9H34.6999V37.4Z" fill="currentcolor"/>
<path d="M46.2999 42.9H16.3999V44.4H46.2999V42.9Z" fill="currentcolor"/>
<path d="M27.5999 15.6001H16.3999V17.1001H27.5999V15.6001Z" fill="currentcolor"/>
<path d="M28.3999 10.1001H16.3999V11.6001H28.3999V10.1001Z" fill="currentcolor"/>
<path d="M61.3 27.9C62.8 27.9 64 26.7001 64 25.2001V11.5C64 10 62.8 8.80005 61.3 8.80005H54.3V8.60005C54.3 5.20005 51.5 2.40005 48.1 2.30005C48.1 2.30005 6.5 2.30005 6.3 2.30005C2.8 2.30005 0 5.10005 0 8.60005V10.8H11.1V55.5C11.1 59 14 61.8 17.4 61.8H18.1H58.5C61.6 61.8 64 59.3 64 56C64 55.5 64 54 64 54V53.3H54.3V27.9H61.3ZM11.1 9.30005H1.5V8.60005C1.5 5.90005 3.7 3.80005 6.3 3.80005C8.9 3.80005 11.1 6.00005 11.1 8.60005V9.30005ZM17.4 60.3C14.7 60.3 12.6 58.1 12.6 55.5V52.1V8.60005C12.6 6.70005 11.7 4.90005 10.3 3.70005H47.9C50.6 3.70005 52.7 5.90005 52.7 8.50005V8.80005H35.7C34.2 8.80005 33 10 33 11.5V25.2001C33 26.7001 34.2 27.9 35.7 27.9H52.7V53.3H23L21.9 53.5C21.9 53.5 22.2 55.2001 22.2 55.5C22.3 58.1 20.1 60.3 17.4 60.3ZM62.5 54.7001C62.5 55.1001 62.5 55.6001 62.5 55.9001C62.5 58.4001 60.8 60.2001 58.5 60.2001H21.4C23.9 58.4001 23.7 54.9 23.6 54.6H62.5V54.7001ZM35.8 26.4C35.1 26.4 34.6 25.9001 34.6 25.2001V11.5C34.6 10.8 35.1 10.3 35.8 10.3H61.3C62 10.3 62.5 10.8 62.5 11.5V25.2001C62.5 25.9001 62 26.4 61.3 26.4H35.8Z" fill="currentcolor"/>
<path d="M47.6001 22.2001H46.1001V23.7001H47.6001V22.2001Z" fill="currentcolor"/>
<path d="M37.6001 22.2001H36.1001V23.7001H37.6001V22.2001Z" fill="currentcolor"/>
<path d="M44.2 22.2001H42.7V23.7001H44.2V22.2001Z" fill="currentcolor"/>
<path d="M57.5 22.2001H56V23.7001H57.5V22.2001Z" fill="currentcolor"/>
<path d="M54.2 22.2001H52.7V23.7001H54.2V22.2001Z" fill="currentcolor"/>
<path d="M60.8 22.2001H59.3V23.7001H60.8V22.2001Z" fill="currentcolor"/>
<path d="M40.8999 22.2001H39.3999V23.7001H40.8999V22.2001Z" fill="currentcolor"/>
<path d="M50.8999 22.2001H49.3999V23.7001H50.8999V22.2001Z" fill="currentcolor"/>
<path d="M46.5001 12.2001H37.1001V17.7001H46.5001V12.2001ZM45.1001 16.2001H38.6001V13.6001H45.1001V16.2001Z" fill="currentcolor"/>
<path d="M59.9999 13H50.3999V14.5H59.9999V13Z" fill="currentcolor"/>
<path d="M60 16H54.7V17.5H60V16Z" fill="currentcolor"/>
</svg>
