<svg viewBox="0 0 64 64" fill="none" xmlns="http://www.w3.org/2000/svg">
<path d="M37.2999 22.2C36.8999 21.9 36.7 21.5 36.7 21H35.2C35.2 21.9 35.5999 22.7 36.2999 23.3C36.7999 23.7 37.4 24 38 24.1V26H39.5V24.1C40.2 24 40.8 23.7 41.2 23.3C41.9 22.7 42.2999 21.9 42.2999 21C42.2999 20.1 41.9 19.3 41.2 18.7C40.5 18.1 39.6 17.8 38.7 17.8C38.1 17.8 37.6 17.6 37.2 17.3C36.8 17 36.5999 16.6 36.5999 16.1C36.5999 15.6 36.8 15.3 37.2 14.9C38 14.2 39.4 14.2 40.2 14.9C40.6 15.2 40.7999 15.6 40.7999 16.1H42.2999C42.2999 15.2 41.9 14.4 41.2 13.8C40.7 13.4 40.1 13.1 39.5 13V11.1H38V13C37.4 13.1 36.6999 13.4 36.2999 13.8C35.5999 14.4 35.2 15.2 35.2 16.1C35.2 17 35.5999 17.8 36.2999 18.4C36.9999 19 37.8999 19.3 38.7999 19.3C39.3999 19.3 39.8999 19.5 40.2999 19.8C40.6999 20.1 40.9 20.5 40.9 21C40.9 21.4 40.6999 21.8 40.2999 22.2C39.4999 22.9 38.0999 22.9 37.2999 22.2Z" fill="currentcolor"/>
<path d="M58.4 56.6V54.1H56.9V56.6H50.1V54.1H48.7V56.6H41.9V54.1H40.4V56.6H33.7V54.1H32.2V56.6H25.4V54.1H24V56.6H17.2V54.1H15.7V56.6H9V54.1H7.5V56.6H1.5V51.8H4V50.3H1.5V44H4V42.6H1.5V36.3H4V34.8H1.5V28.5H4V27H1.5V20.7H4V19.2H1.5V12.9H4V11.4H1.5V5.89996H0V58.1H64V56.6H58.4Z" fill="currentcolor"/>
<path d="M38.8 30C41 30 43.1 29.4 44.9 28.2L52.1 36.7C52.7 37.4 53.5 37.8 54.4 37.8C55.2 37.8 55.9 37.5 56.5 37C57.1 36.4 57.4 35.6 57.4 34.8C57.4 34 57 33.2 56.4 32.6L48.2 25C49.6 23 50.3 20.5 50.2 18C49.9 12.3 45.4 7.59997 39.7 7.09997C36.1 6.79997 32.6 8.19997 30.2 10.9C28 13.4 27 16.6 27.4 19.9C28 25.7 32.9 30 38.8 30ZM31.3 11.9C33.4 9.59997 36.4 8.29997 39.6 8.59997C44.6 8.99997 48.5 13.1 48.8 18.1C48.9 20.5 48.2 22.8 46.7 24.7L46.3 25.2L55.6 33.5C55.9 33.8 56.1 34.2 56.1 34.6C56.1 35 55.9 35.4 55.6 35.7C55 36.3 53.9 36.2 53.4 35.6L45.3 26.1L44.7 26.5C43 27.8 41 28.4 38.8 28.4C33.7 28.4 29.5 24.6 28.9 19.7C28.5 16.9 29.4 14.1 31.3 11.9Z" fill="currentcolor"/>
<path d="M8.3999 41.9L14.9999 35.3L24.8999 45.3L33.8999 36.3L42.5999 45.1H56.9999L54.1999 47.8L55.2999 48.8L59.7999 44.3L55.2999 39.8L54.1999 40.8L56.9999 43.6H43.1999L33.8999 34.2L24.8999 43.2L15.9999 34.3L18.6999 31.6H27.1999L30.5999 28.2L29.5999 27.1L26.5999 30.1H18.0999L14.9999 33.2L9.5999 27.9L8.5999 28.9L13.8999 34.3L7.3999 40.8L8.3999 41.9Z" fill="currentcolor"/>
</svg>
