<svg viewBox="0 0 64 64" fill="none" xmlns="http://www.w3.org/2000/svg">
<path d="M0 6.40002V57.5H64V6.40002H0ZM62.5 14.3H48.4V7.90002H62.6V14.3H62.5ZM46.9 7.90002V14.3H1.5V7.90002H46.9ZM1.5 56.1V15.8H62.6V56.1H1.5Z" fill="currentcolor"/>
<path d="M29.3001 10.4H5.1001V11.9H29.3001V10.4Z" fill="currentcolor"/>
<path d="M56.2998 10.4H54.7998V11.9H56.2998V10.4Z" fill="currentcolor"/>
<path d="M60.3999 10.4H58.8999V11.9H60.3999V10.4Z" fill="currentcolor"/>
<path d="M52.2002 10.4H50.7002V11.9H52.2002V10.4Z" fill="currentcolor"/>
<path d="M38 30.4L47.7 36.2L38 42.1L38.7 43.3L50.6 36.2L38.7 29.1L38 30.4Z" fill="currentcolor"/>
<path d="M25.2999 29.1L13.3999 36.2L25.2999 43.3L25.9999 42.1L16.2999 36.2L25.9999 30.4L25.2999 29.1Z" fill="currentcolor"/>
<path d="M27.6288 47.0233L29.0547 47.489L36.2893 25.34L34.8634 24.8743L27.6288 47.0233Z" fill="currentcolor"/>
<path d="M4.2998 53.2001H59.6998V19.3H4.2998V53.2001ZM5.7998 20.7001H58.2998V51.7001H5.7998V20.7001Z" fill="currentcolor"/>
</svg>
